<?xml version="1.0" encoding="UTF-8" standalone="no"?><!DOCTYPE svg PUBLIC "-//W3C//DTD SVG 1.1//EN" "http://www.w3.org/Graphics/SVG/1.1/DTD/svg11.dtd"><svg width="100%" height="100%" viewBox="0 0 168 188" version="1.1" xmlns="http://www.w3.org/2000/svg" xmlns:xlink="http://www.w3.org/1999/xlink" xml:space="preserve" style="fill-rule:evenodd;clip-rule:evenodd;stroke-linejoin:round;stroke-miterlimit:1.41421;">
  <g id="cluster-2">
    <path d="M28.6,44.588l-2.6,-0.5c-1.6,-0.3 -2.6,-1.9 -2.2,-3.4l0.5,-2.6c0.3,-1.6 -0.7,-3.2 -2.3,-3.5c-1.6,-0.4 -3.2,0.7 -3.6,2.3l-0.5,2.6c-0.3,1.6 -1.9,2.6 -3.4,2.2l-2.4,-0.5c-1.6,-0.3 -3.3,0.6 -3.7,2.1c-0.4,1.7 0.6,3.3 2.3,3.7l2.6,0.5c1.6,0.3 2.6,1.9 2.2,3.4l-0.5,2.6c-0.3,1.6 0.7,3.2 2.3,3.5c1.6,0.4 3.2,-0.7 3.5,-2.3l0.5,-2.6c0.3,-1.6 1.9,-2.6 3.4,-2.2l2.6,0.5c2,0.4 3.9,-1.2 3.6,-3.4c-0.1,-1.2 -1.1,-2.2 -2.3,-2.4Z" style="fill:#ACC7FF;fill-rule:nonzero;"/>
    <path d="M58,165.388c-3.3,-2.5 -4.8,-45 -2,-50.5c3.1,-6.1 106.6,-5.9 109.9,0c2.8,5.2 2.5,47.4 -2,50.5c-4.7,3.3 -103.5,1.8 -105.9,0Z" style="fill:#7B16FF;fill-rule:nonzero;"/>
    <g>
      <circle cx="139.9" cy="139.588" r="5.1" style="fill:#fff;"/>
      <circle cx="111.1" cy="139.588" r="5.1" style="fill:#fff;"/>
      <circle cx="82.3" cy="139.588" r="5.1" style="fill:#fff;"/>
    </g>
    <circle cx="118.8" cy="13.488" r="5.1" style="fill:#ACC7FF;"/>
    <circle cx="6" cy="82.388" r="5.1" style="fill:#ACC7FF;"/>
    <path d="M108.2,167.288c10.3,0.6 15.7,19.6 18.5,19.8c2.9,0.2 11,-20.5 18.3,-20c3.2,0.2 -11.5,-6 -11.5,-6" style="fill:#7B16FF;fill-rule:nonzero;"/>
    <path d="M33.578,60.208l0.22,0.043l0.214,0.068l0.205,0.092l0.193,0.113l0.179,0.135l0.163,0.154l0.145,0.171l0.125,0.187l38.7,65.5l0.103,0.199l0.08,0.209l0.056,0.218l0.032,0.222l0.006,0.224l-0.018,0.223l-0.044,0.22l-0.068,0.214l-0.091,0.205l-0.114,0.193l-0.135,0.179l-0.154,0.163l-0.171,0.145l-0.187,0.125l-0.199,0.103l-0.209,0.08l-0.217,0.056l-0.222,0.032l-0.225,0.006l-0.223,-0.018l-0.22,-0.044l-0.214,-0.068l-0.205,-0.091l-0.193,-0.114l-0.179,-0.135l-0.163,-0.154l-0.145,-0.171l-0.125,-0.187l-38.7,-65.5l-0.103,-0.199l-0.08,-0.209l-0.056,-0.217l-0.032,-0.222l-0.006,-0.225l0.018,-0.223l0.044,-0.22l0.068,-0.214l0.091,-0.205l0.114,-0.193l0.135,-0.179l0.154,-0.163l0.171,-0.145l0.187,-0.125l0.199,-0.103l0.209,-0.08l0.217,-0.056l0.223,-0.032l0.224,-0.006l0.223,0.019Z" style="fill:#ACC7FF;"/>
    <path d="M95.624,18.392l0.208,0.024l0.204,0.045l0.199,0.067l0.19,0.087l0.181,0.106l0.168,0.125l0.154,0.142l0.138,0.157l0.122,0.17l0.103,0.183l0.083,0.192l0.063,0.199l0.041,0.206l0.02,0.208l-0.002,0.209l-0.024,0.208l-0.045,0.205l-0.067,0.198l-0.087,0.19l-0.106,0.181l-0.125,0.168l-0.142,0.154l-0.157,0.139l-0.17,0.121l-0.183,0.103l-0.192,0.083l-0.199,0.063l-56.7,14.6l-0.206,0.041l-0.208,0.02l-0.209,-0.002l-0.208,-0.024l-0.205,-0.045l-0.198,-0.067l-0.19,-0.087l-0.181,-0.106l-0.168,-0.125l-0.154,-0.142l-0.139,-0.157l-0.121,-0.17l-0.103,-0.182l-0.083,-0.192l-0.063,-0.2l-0.041,-0.205l-0.02,-0.209l0.002,-0.209l0.024,-0.208l0.045,-0.204l0.067,-0.199l0.087,-0.19l0.106,-0.181l0.125,-0.168l0.142,-0.154l0.157,-0.138l0.17,-0.122l0.182,-0.103l0.192,-0.083l0.2,-0.063l56.7,-14.6l0.205,-0.041l0.209,-0.02l0.209,0.002Z" style="fill:#ACC7FF;"/>
  </g>
</svg>
