<svg width="1921" height="503" viewBox="0 0 1921 503" version="1.1" xmlns="http://www.w3.org/2000/svg" xmlns:xlink="http://www.w3.org/1999/xlink" xmlns:figma="http://www.figma.com/figma/ns">
<title>constellations</title>
<desc>Created using Figma</desc>
<g id="Canvas" transform="translate(-3786 -1155)" figma:type="canvas">
<g id="constellations" figma:type="frame">
<g id="cluster-2" figma:type="frame">
<g id="Subtract" figma:type="vector-operation">
<use xlink:href="#path0_fill" transform="matrix(0.987238 0.15925 -0.15925 0.987238 4547.04 1238.17)" fill="#FFFFFF" fill-opacity="0.05"/>
</g>
<g id="Union" figma:type="vector-operation">
<use xlink:href="#path1_fill" transform="matrix(0.987238 0.15925 -0.15925 0.987238 4529.24 1185)" fill="#FFFFFF" fill-opacity="0.05"/>
</g>
</g>
<g id="cluster-1" figma:type="frame">
<g id="Subtract" figma:type="vector-operation">
<use xlink:href="#path2_fill" transform="matrix(0.950971 -0.309279 0.309279 0.950971 3849.44 1293.16)" fill="#FFFFFF" fill-opacity="0.1"/>
</g>
<g id="Union" figma:type="vector-operation">
<use xlink:href="#path3_fill" transform="matrix(0.950971 -0.309279 0.309279 0.950971 3852.56 1242.31)" fill="#FFFFFF" fill-opacity="0.1"/>
</g>
</g>
<g id="cluster-3" figma:type="frame">
<g id="Subtract" figma:type="vector-operation">
<use xlink:href="#path4_fill" transform="matrix(0.965926 0.258819 -0.258819 0.965926 5602.93 1361.16)" fill="#FFFFFF" fill-opacity="0.1"/>
</g>
<g id="Union" figma:type="vector-operation">
<use xlink:href="#path5_fill" transform="matrix(-0.965926 -0.258819 -0.258819 0.965926 5675.55 1332.55)" fill="#FFFFFF" fill-opacity="0.1"/>
</g>
</g>
<g id="cluster-5" figma:type="frame">
<g id="Union" figma:type="vector-operation">
<use xlink:href="#path6_fill" transform="translate(3994.39 1183)" fill="#FFFFFF" fill-opacity="0.1"/>
</g>
</g>
<g id="cluster-5" figma:type="frame">
<g id="Union" figma:type="vector-operation">
<use xlink:href="#path6_fill" transform="translate(4764.39 1257)" fill="#FFFFFF" fill-opacity="0.1"/>
</g>
</g>
<g id="cluster-1" figma:type="frame">
<g id="Subtract" figma:type="vector-operation">
<use xlink:href="#path2_fill" transform="matrix(-0.950971 0.309279 -0.309279 -0.950971 5445.94 1250.01)" fill="#FFFFFF" fill-opacity="0.1"/>
</g>
<g id="Union" figma:type="vector-operation">
<use xlink:href="#path3_fill" transform="matrix(-0.950971 0.309279 -0.309279 -0.950971 5442.82 1300.86)" fill="#FFFFFF" fill-opacity="0.1"/>
</g>
</g>
<g id="cluster-5" figma:type="frame">
<g id="Union" figma:type="vector-operation">
<use xlink:href="#path6_fill" transform="matrix(-1 0 0 1 5279.39 1177)" fill="#FFFFFF" fill-opacity="0.1"/>
</g>
</g>
<g id="cluster-4" figma:type="frame">
<g id="Union" figma:type="vector-operation">
<use xlink:href="#path7_fill" transform="matrix(0.973558 -0.228441 0.228441 0.973558 4160.39 1222.71)" fill="#FFFFFF" fill-opacity="0.1"/>
</g>
</g>
<g id="cluster-4" figma:type="frame">
<g id="Union" figma:type="vector-operation">
<use xlink:href="#path7_fill" transform="matrix(-0.965926 0.258819 -0.258819 -0.965926 5064.12 1240)" fill="#FFFFFF" fill-opacity="0.05"/>
</g>
</g>
<g id="cluster-4" figma:type="frame">
<g id="Union" figma:type="vector-operation">
<use xlink:href="#path7_fill" transform="matrix(0.866025 0.5 -0.5 0.866025 5543.39 1208)" fill="#FFFFFF" fill-opacity="0.05"/>
</g>
</g>
<g id="cluster-4" figma:type="frame">
<g id="Union" figma:type="vector-operation">
<use xlink:href="#path7_fill" transform="matrix(-0.965926 0.258819 -0.258819 -0.965926 3866.73 1445.84)" fill="#FFFFFF" fill-opacity="0.1"/>
</g>
</g>
</g>
</g>
<defs>
<path id="path0_fill" fill-rule="evenodd" d="M 1.68452 26.7766C 0.0819763 25.5596 -0.646295 4.86865 0.713324 2.19092C 2.2187 -0.778809 52.4777 -0.681397 54.08 2.19092C 55.4396 4.72253 55.2941 25.2675 53.1088 26.7766C 52.5327 27.1821 49.0451 27.4388 44.134 27.5818C 44.1044 27.6028 44.0385 27.611 43.9311 27.6042C 41.7568 27.455 39.4365 31.1886 37.642 34.0756C 36.5112 35.8954 35.5891 37.3789 35.0446 37.3412C 34.5798 37.3079 33.9675 36.2051 33.163 34.7561C 31.6142 31.9666 29.3532 27.8939 26.0612 27.7017L 26.0661 27.7004C 13.9584 27.5967 2.25287 27.2041 1.68452 26.7766ZM 13.4843 16.699C 14.852 16.699 15.9609 15.5873 15.9609 14.2161C 15.9609 12.8448 14.852 11.7332 13.4843 11.7332C 12.1166 11.7332 11.0078 12.8448 11.0078 14.2161C 11.0078 15.5873 12.1166 16.699 13.4843 16.699ZM 29.9462 14.2161C 29.9462 15.5873 28.8373 16.699 27.4697 16.699C 26.102 16.699 24.9931 15.5873 24.9931 14.2161C 24.9931 12.8448 26.102 11.7332 27.4697 11.7332C 28.8373 11.7332 29.9462 12.8448 29.9462 14.2161ZM 43.9311 14.2161C 43.9311 15.5873 42.8222 16.699 41.4545 16.699C 40.0869 16.699 38.978 15.5873 38.978 14.2161C 38.978 12.8448 40.0869 11.7332 41.4545 11.7332C 42.8222 11.7332 43.9311 12.8448 43.9311 14.2161Z"/>
<path id="path1_fill" fill-rule="evenodd" d="M 57.2517 4.96582C 58.6194 4.96582 59.7283 3.85413 59.7283 2.48291C 59.7283 1.11169 58.6194 0 57.2517 0C 55.884 0 54.7751 1.11169 54.7751 2.48291C 54.7751 3.85413 55.884 4.96582 57.2517 4.96582ZM 13.4509 17.6238L 12.1885 17.3802C 11.4116 17.2343 10.926 16.4553 11.1201 15.725L 11.363 14.4592C 11.5085 13.6803 11.0232 12.9014 10.2461 12.7552C 9.46924 12.5605 8.69214 13.0961 8.49805 13.875L 8.25513 15.1409C 8.10962 15.9198 7.33252 16.4066 6.60425 16.2119L 5.43872 15.9685C 4.66187 15.8224 3.83618 16.2605 3.64209 16.9908C 3.44775 17.8185 3.93335 18.5974 4.75879 18.7921L 6.02148 19.0355C 6.79834 19.1816 7.28394 19.9606 7.08984 20.6908L 6.84692 21.9567C 6.70117 22.7356 7.18677 23.5145 7.96387 23.6606C 8.74072 23.8553 9.51782 23.3198 9.66333 22.5409L 9.90625 21.275C 10.052 20.4961 10.8289 20.0093 11.5571 20.204L 12.8198 20.4474C 13.791 20.6422 14.7136 19.8632 14.5679 18.7921C 14.5193 18.2079 14.0337 17.7211 13.4509 17.6238ZM 4.95312 36.0265C 4.95312 37.3977 3.84424 38.5094 2.47656 38.5094C 1.10889 38.5094 0 37.3977 0 36.0265C 0 34.6553 1.10889 33.5436 2.47656 33.5436C 3.84424 33.5436 4.95312 34.6553 4.95312 36.0265ZM 15.8682 25.2284L 15.9751 25.2493L 16.0789 25.2823L 16.1785 25.3271L 16.2722 25.3822L 16.3591 25.4479L 16.4382 25.5229L 16.5085 25.6062L 16.5693 25.6971L 35.3618 57.5856L 35.4119 57.6824L 35.4507 57.7842L 35.478 57.8903L 35.4934 57.9984L 35.4963 58.1074L 35.4875 58.2161L 35.4663 58.3231L 35.4333 58.4272L 35.3892 58.5271L 35.3337 58.6211L 35.2681 58.7083L 35.1934 58.7876L 35.1104 58.8582L 35.0195 58.9191L 34.9229 58.9691L 34.8213 59.0081L 34.7161 59.0354L 34.6082 59.0509L 34.499 59.0538L 34.3906 59.0452L 34.2839 59.0237L 34.1799 58.9906L 34.0803 58.9463L 33.9866 58.8907L 33.8997 58.8251L 33.8206 58.7501L 33.7502 58.6669L 33.6895 58.5758L 14.897 26.6875L 14.8469 26.5906L 14.8081 26.4888L 14.781 26.3832L 14.7654 26.275L 14.7625 26.1655L 14.7712 26.057L 14.7925 25.9498L 14.8257 25.8457L 14.8699 25.7458L 14.925 25.652L 14.9907 25.5648L 15.0654 25.4855L 15.1484 25.4148L 15.2393 25.354L 15.3359 25.3038L 15.4375 25.2649L 15.5427 25.2377L 15.6511 25.222L 15.7598 25.2191L 15.8682 25.2284ZM 46.0984 4.88208L 45.9976 4.87036L 45.896 4.86938L 45.7944 4.87915L 45.6951 4.89905L 18.1619 12.007L 18.0647 12.0377L 17.9714 12.0781L 17.8831 12.1283L 17.8005 12.1876L 17.7241 12.2549L 17.6553 12.3298L 17.5945 12.4116L 17.5432 12.4998L 17.5007 12.5922L 17.4683 12.6891L 17.4465 12.7885L 17.4348 12.8896L 17.4338 12.9915L 17.4436 13.0931L 17.4634 13.193L 17.4941 13.2903L 17.5344 13.3838L 17.5845 13.4724L 17.6431 13.5552L 17.7107 13.6316L 17.7854 13.7008L 17.8669 13.7616L 17.9548 13.8132L 18.0471 13.8556L 18.1433 13.8882L 18.2429 13.9102L 18.3438 13.9218L 18.4453 13.9227L 18.5464 13.913L 18.6465 13.8931L 46.1797 6.78516L 46.2761 6.75439L 46.3694 6.71399L 46.4583 6.66394L 46.5408 6.60498L 46.6172 6.53735L 46.686 6.4624L 46.7468 6.38049L 46.7983 6.29248L 46.8406 6.19995L 46.873 6.10352L 46.8948 6.00378L 46.9065 5.90247L 46.9075 5.80066L 46.8977 5.69946L 46.8779 5.59912L 46.8472 5.50232L 46.8069 5.40881L 46.7568 5.3197L 46.6978 5.23694L 46.6306 5.16052L 46.5559 5.09143L 46.4744 5.03052L 46.3865 4.97888L 46.2942 4.93652L 46.1975 4.90393L 46.0984 4.88208Z"/>
<path id="path2_fill" fill-rule="evenodd" d="M 46.5706 32.3907C 42.3788 32.4878 37.7305 32.5577 33.065 32.5906L 33.0556 32.5907C 18.3832 32.6937 3.542 32.4297 2.18519 31.4893C -0.391103 29.7456 -0.575185 5.51794 1.03504 2.58117C 2.87538 -0.814338 62.3156 -0.906135 64.0639 2.58117C 64.9362 4.29638 65.0929 12.2064 64.7461 19.3293C 64.7702 25.5876 68.8462 28.5535 70.877 30.031C 71.5513 30.5215 72 30.848 72 31.0765C 72 31.9033 64.577 32.1145 46.5706 32.3907ZM 18.8395 16.7601C 18.8395 18.3566 17.5419 19.6509 15.9412 19.6509C 14.3403 19.6509 13.0427 18.3566 13.0427 16.7601C 13.0427 15.1636 14.3403 13.8693 15.9412 13.8693C 17.5419 13.8693 18.8395 15.1636 18.8395 16.7601ZM 35.3558 16.7601C 35.3558 18.3566 34.0582 19.6509 32.4575 19.6509C 30.8567 19.6509 29.5591 18.3566 29.5591 16.7601C 29.5591 15.1636 30.8567 13.8693 32.4575 13.8693C 34.0582 13.8693 35.3558 15.1636 35.3558 16.7601ZM 48.9739 19.6509C 50.5746 19.6509 51.8722 18.3566 51.8722 16.7601C 51.8722 15.1636 50.5746 13.8693 48.9739 13.8693C 47.3731 13.8693 46.0754 15.1636 46.0754 16.7601C 46.0754 18.3566 47.3731 19.6509 48.9739 19.6509Z"/>
<path id="path3_fill" fill-rule="evenodd" d="M 9.24964 3.90027L 8.00745 3.90027C 7.27137 3.90027 6.67322 3.30383 6.67322 2.56958L 6.67322 1.37659C 6.67322 0.642456 6.02918 0 5.29309 0C 4.51099 0 3.91284 0.642456 3.91284 1.37659L 3.91284 2.56958C 3.91284 3.30383 3.31482 3.90027 2.57874 3.90027L 1.42847 3.90027C 0.692386 3.90027 0.00232232 4.45093 0.00232232 5.23096C -0.0436982 6.01111 0.600467 6.65344 1.38257 6.65344L 2.57874 6.65344C 3.31482 6.65344 3.91284 7.25 3.91284 7.98413L 3.95887 11.7468C 3.95887 12.481 4.60291 13.1234 5.33911 13.1234C 6.12122 13.1234 6.71924 12.481 6.71924 11.7468L 6.67322 7.93823C 6.67322 7.2041 7.27137 6.60754 8.00745 6.60754L 9.20362 6.60754C 10.1238 6.60754 10.8138 5.68982 10.4918 4.7262C 10.3538 4.22156 9.80164 3.90027 9.24964 3.90027ZM 10.9771 10.2404L 11.1003 10.2646L 11.2191 10.3055L 11.3309 10.3624L 11.4345 10.4335L 11.5269 10.5184L 11.6069 10.6147L 11.6732 10.7212L 11.7242 10.8359L 28.1946 55.85L 28.229 55.9702L 28.2474 56.0941L 28.2484 56.2194L 28.2323 56.3438L 28.1996 56.4644L 28.1504 56.5796L 28.0859 56.6874L 28.0078 56.7852L 27.9166 56.8715L 27.8146 56.9443L 27.7036 57.0031L 27.5858 57.0458L 27.463 57.0724L 27.3379 57.082L 27.2123 57.0747L 27.0895 57.0504L 26.9708 57.009L 26.8585 56.9526L 26.7555 56.8811L 26.663 56.7966L 26.5829 56.6998L 26.5167 56.5934L 26.4656 56.4791L 9.99536 11.4651L 9.96033 11.3448L 9.94239 11.2209L 9.94104 11.0957L 9.95716 10.9713L 9.99024 10.8502L 10.0391 10.735L 10.1034 10.6276L 10.1821 10.5294L 10.2732 10.4431L 10.3749 10.3702L 10.4862 10.3119L 10.604 10.2688L 10.7268 10.2422L 10.8519 10.2325L 10.9771 10.2404ZM 18.911 6.14868C 18.911 7.39038 17.9017 8.39709 16.6566 8.39709C 15.4116 8.39709 14.4023 7.39038 14.4023 6.14868C 14.4023 4.90686 15.4116 3.90027 16.6566 3.90027C 17.9017 3.90027 18.911 4.90686 18.911 6.14868Z"/>
<path id="path4_fill" fill-rule="evenodd" d="M 54.6516 27.4022C 56.2956 26.1567 57.0429 4.98242 55.6479 2.24219C 54.1037 -0.796994 2.54367 -0.697385 0.899625 2.24219C -0.49515 4.83289 -0.345736 25.8578 1.89596 27.4022C 2.47921 27.8033 5.8464 28.062 10.6218 28.2111C 12.5959 28.6918 14.0747 31.9039 15.2382 34.4319C 16.0332 36.1586 16.6811 37.5662 17.2397 37.5662C 17.7175 37.5662 18.2536 36.4904 18.9587 35.0759L 18.9594 35.0742C 20.3122 32.3595 22.2859 28.3988 25.6587 28.3988L 25.5837 28.3716C 39.3115 28.3291 54.0046 27.8875 54.6516 27.4022ZM 16.3928 14.5482C 16.3928 15.9515 15.2553 17.0891 13.852 17.0891C 12.4489 17.0891 11.3115 15.9515 11.3115 14.5482C 11.3115 13.1449 12.4489 12.0073 13.852 12.0073C 15.2553 12.0073 16.3928 13.1449 16.3928 14.5482ZM 30.74 14.5482C 30.74 15.9515 29.6025 17.0891 28.1992 17.0891C 26.7961 17.0891 25.6587 15.9515 25.6587 14.5482C 25.6587 13.1449 26.7961 12.0073 28.1992 12.0073C 29.6025 12.0073 30.74 13.1449 30.74 14.5482ZM 42.5464 17.0891C 43.9497 17.0891 45.0871 15.9515 45.0871 14.5482C 45.0871 13.1449 43.9497 12.0073 42.5464 12.0073C 41.1433 12.0073 40.0058 13.1449 40.0058 14.5482C 40.0058 15.9515 41.1433 17.0891 42.5464 17.0891Z"/>
<path id="path5_fill" fill-rule="evenodd" d="M 36.3602 2.54089C 36.3602 3.94421 35.2227 5.08179 33.8194 5.08179C 32.4163 5.08179 31.2789 3.94421 31.2789 2.54089C 31.2789 1.13757 32.4163 0 33.8194 0C 35.2227 0 36.3602 1.13757 36.3602 2.54089ZM 8.81157 17.637L 10.1067 17.8861C 10.7046 17.9857 11.2027 18.484 11.2525 19.0819C 11.4019 20.178 10.4554 20.9751 9.45903 20.7758L 8.16387 20.5267C 7.41655 20.3274 6.61968 20.8256 6.47026 21.6228L 6.221 22.9181C 6.07158 23.7153 5.27446 24.2633 4.47759 24.0641C 3.68047 23.9146 3.18218 23.1174 3.33159 22.3203L 3.58086 21.0249C 3.78008 20.2776 3.28179 19.4805 2.48491 19.3309L 1.1895 19.0819C 0.342823 18.8826 -0.155468 18.0854 0.0437503 17.2384C 0.242969 16.4911 1.08989 16.0427 1.88701 16.1921L 3.08257 16.4413C 3.82988 16.6406 4.627 16.1423 4.77642 15.3452L 5.02544 14.0498C 5.22466 13.2527 6.02178 12.7046 6.8189 12.9039C 7.61602 13.0533 8.11406 13.8506 7.96465 14.6477L 7.71563 15.9431C 7.51641 16.6904 8.01445 17.4875 8.81157 17.637ZM 11.4498 26.0181L 11.5518 26.0389L 11.6514 26.0703L 11.7471 26.1117L 11.8377 26.1635L 11.9224 26.2238L 12.0008 26.2931L 12.0708 26.3698L 12.1331 26.454L 30.615 54.4042L 30.668 54.4938L 30.7112 54.589L 30.7442 54.6876L 30.7667 54.7898L 30.7786 54.8934L 30.7796 54.9976L 30.7696 55.1012L 30.7486 55.2032L 30.7173 55.3029L 30.6753 55.3986L 30.6241 55.4893L 30.5633 55.5745L 30.4947 55.6522L 30.4173 55.7229L 30.3335 55.7847L 30.2435 55.8375L 30.1487 55.8809L 30.0496 55.9137L 29.948 55.9366L 29.8445 55.9481L 29.7403 55.9491L 29.6363 55.9391L 29.534 55.9182L 29.4349 55.8868L 29.3394 55.845L 29.2481 55.7937L 29.1634 55.7334L 29.0853 55.6642L 29.0149 55.5869L 28.9527 55.5032L 10.4708 27.553L 10.418 27.4634L 10.3753 27.3682L 10.3418 27.2695L 10.3194 27.1674L 10.3074 27.0638L 10.3069 26.9597L 10.3169 26.8561L 10.3379 26.7534L 10.3692 26.6543L 10.4104 26.5586L 10.462 26.4679L 10.5228 26.3827L 10.5918 26.3051L 10.6685 26.2343L 10.7522 26.1725L 10.8426 26.1196L 10.9371 26.0763L 11.0362 26.043L 11.138 26.0205L 11.2415 26.009L 11.346 26.0081L 11.4498 26.0181ZM 24.9441 5.78943L 24.8763 5.78186L 24.8086 5.77942L 24.7403 5.78137L 24.6727 5.78784L 24.6058 5.79883L 24.5396 5.81482L 24.4744 5.83472L 24.4112 5.85962L 24.3494 5.88855L 12.5428 11.917L 12.4834 11.9498L 12.4263 11.9867L 12.3719 12.0276L 12.3201 12.0719L 12.2718 12.1198L 12.2269 12.1705L 12.1856 12.2249L 12.1478 12.2817L 12.1138 12.3405L 12.0845 12.4017L 12.0591 12.4651L 12.0381 12.5298L 12.0218 12.5956L 12.0098 12.6628L 12.0022 12.7301L 11.9998 12.7983L 12.0018 12.8661L 12.0083 12.9338L 12.0193 13.0011L 12.0352 13.0674L 12.055 13.1322L 12.0794 13.1959L 12.1084 13.2572L 12.1419 13.317L 12.1788 13.3738L 12.2195 13.4286L 12.2637 13.4799L 12.3116 13.5282L 12.3624 13.5736L 12.4163 13.615L 12.4729 13.6528L 12.5323 13.6862L 12.5936 13.7161L 12.6568 13.741L 12.7212 13.762L 12.7874 13.7788L 12.8541 13.7908L 12.9219 13.7977L 12.99 13.8008L 13.0579 13.7988L 13.1255 13.7922L 13.1929 13.7814L 13.2591 13.7654L 13.324 13.745L 13.3873 13.7206L 13.449 13.6917L 25.2554 7.66321L 25.3152 7.63025L 25.3721 7.59338L 25.4263 7.55261L 25.4781 7.5083L 25.5264 7.46045L 25.5713 7.40906L 25.6131 7.35535L 25.6504 7.29846L 25.6844 7.23975L 25.7137 7.17847L 25.7393 7.11511L 25.7601 7.05042L 25.7767 6.98462L 25.7886 6.91736L 25.7959 6.84961L 25.7989 6.78186L 25.7969 6.71362L 25.7906 6.64636L 25.7791 6.5791L 25.7637 6.51282L 25.7432 6.448L 25.7188 6.38428L 25.69 6.323L 25.657 6.26318L 25.6197 6.20593L 25.5794 6.15161L 25.5345 6.10022L 25.4871 6.052L 25.4358 6.00659L 25.3819 5.96521L 25.3252 5.92737L 25.2659 5.89404L 25.2046 5.86414L 25.1419 5.83875L 25.0772 5.81775L 25.0108 5.80139L 24.9441 5.78943Z"/>
<path id="path6_fill" fill-rule="evenodd" d="M 47.3045 0.0424805L 47.184 0.0136719L 47.0606 0L 46.9367 0.00195312L 46.8139 0.019043L 46.6944 0.0513916L 46.5799 0.0982666L 46.4719 0.158936L 46.3726 0.2323L 46.2838 0.317871L 46.2058 0.413696L 18.6146 39.1901L 18.5499 39.2947L 18.4986 39.4062L 18.462 39.5236L 18.4404 39.6448L 18.4344 39.7676L 18.4443 39.8898L 18.4689 40.0101L 18.509 40.1265L 18.5632 40.2365L 18.6313 40.3397L 18.7117 40.4331L 18.803 40.5157L 18.9047 40.5865L 19.0139 40.6443L 19.1298 40.6879L 19.2503 40.7167L 19.3737 40.7303L 19.4976 40.7284L 19.6204 40.7113L 19.7399 40.6791L 19.8544 40.6321L 19.9625 40.5714L 20.0617 40.498L 20.1506 40.4125L 20.2286 40.3167L 47.8198 1.54028L 47.8845 1.43567L 47.9357 1.32422L 47.9724 1.20679L 47.994 1.08557L 47.9999 0.962769L 47.9901 0.840576L 47.9654 0.720215L 47.9254 0.603882L 47.8712 0.493896L 47.803 0.390747L 47.7226 0.297241L 47.6313 0.214722L 47.5296 0.143799L 47.4205 0.0860596L 47.3045 0.0424805ZM 0.00263282 35.9055C 0.0642783 34.5844 1.19709 33.5619 2.53022 33.6229C 3.86384 33.6841 4.89594 34.8063 4.8343 36.1271C 4.77253 37.4482 3.63972 38.4707 2.30659 38.4097C 0.973458 38.3485 -0.0591348 37.2263 0.00263282 35.9055ZM 17.9407 43.9098L 16.6081 43.9098C 15.8183 43.9098 15.1767 43.274 15.1767 42.4917L 15.1767 41.2203C 15.1767 40.438 14.4857 39.7534 13.696 39.7534C 12.8569 39.7534 12.2152 40.438 12.2152 41.2203L 12.2152 42.4917C 12.2152 43.274 11.5736 43.9098 10.7839 43.9098L 9.54987 43.9098C 8.7602 43.9098 8.01972 44.4966 8.01972 45.3279C 7.97041 46.1591 8.66145 46.8436 9.50056 46.8436L 10.7839 46.8436C 11.5736 46.8436 12.2152 47.4794 12.2152 48.2617L 12.2646 49.5331C 12.2646 50.3154 12.9556 51 13.7453 51C 14.5844 51 15.226 50.3154 15.226 49.5331L 15.1767 48.2129C 15.1767 47.4304 15.8183 46.7948 16.6081 46.7948L 17.8914 46.7948C 18.8786 46.7948 19.619 45.8168 19.2734 44.7899C 19.1253 44.2521 18.533 43.9098 17.9407 43.9098Z"/>
<path id="path7_fill" fill-rule="evenodd" d="M 28.8407 4.29395L 30.2136 4.29395C 30.8239 4.29395 31.4341 4.64758 31.5867 5.20325C 31.9427 6.26404 31.1798 7.27441 30.1629 7.27441L 28.8407 7.27441C 28.027 7.27441 27.366 7.93115 27.366 8.73938L 27.4168 10.1033C 27.4168 10.9116 26.7558 11.6188 25.8913 11.6188C 25.0777 11.6188 24.3657 10.9116 24.3657 10.1033L 24.3148 8.78992C 24.3148 7.98157 23.6538 7.32495 22.8401 7.32495L 21.518 7.32495C 20.6536 7.32495 19.9416 6.61768 19.9925 5.75891C 19.9925 4.90015 20.7553 4.29395 21.5689 4.29395L 22.8401 4.29395C 23.6538 4.29395 24.3148 3.63721 24.3148 2.82898L 24.3148 1.5155C 24.3148 0.707275 24.976 0 25.8405 0C 26.6541 0 27.366 0.707275 27.366 1.5155L 27.366 2.82898C 27.366 3.63721 28.027 4.29395 28.8407 4.29395ZM 16.8444 13.5576C 15.4709 13.4945 14.3039 14.5508 14.2403 15.9158C 14.1767 17.2802 15.2405 18.4396 16.614 18.5027C 17.9876 18.5658 19.1546 17.5095 19.2182 16.1445C 19.2818 14.7802 18.2184 13.6207 16.8444 13.5576ZM 0.00271048 67.2102C 0.0663091 65.8457 1.2333 64.7889 2.60684 64.8521C 3.98037 64.9152 5.04421 66.0746 4.98062 67.4396C 4.91702 68.804 3.75002 69.8607 2.37649 69.7976C 1.00247 69.734 -0.0608882 68.5751 0.00271048 67.2102ZM 57.1654 77.8462L 58.5384 77.8462C 59.1995 77.8462 59.7588 78.2502 59.9114 78.7555C 60.2674 79.8163 59.5045 80.8267 58.4876 80.8267L 57.1654 80.8267C 56.3517 80.8267 55.6907 81.4834 55.6907 82.2916L 55.7415 86.4845C 55.7415 87.2927 55.0805 88 54.216 88C 53.4024 88 52.6905 87.2927 52.6905 86.4845L 52.6396 82.3422C 52.6396 81.5338 51.9785 80.8772 51.1648 80.8772L 49.8427 80.8772C 48.9783 80.8772 48.2663 80.1699 48.3172 79.3112C 48.3172 78.4524 49.08 77.8462 49.8936 77.8462L 51.1648 77.8462C 51.9785 77.8462 52.6396 77.1895 52.6396 76.3812L 52.6396 75.0677C 52.6396 74.2595 53.3007 73.5522 54.1652 73.5522C 54.9788 73.5522 55.6907 74.2595 55.6907 75.0677L 55.6907 76.3812C 55.6907 77.1895 56.3517 77.8462 57.1654 77.8462ZM 23.5126 22.6951L 23.6479 22.7263L 23.7775 22.7759L 23.8991 22.8425L 24.0104 22.9249L 24.1095 23.0214L 24.194 23.1305L 24.2631 23.2502L 47.5025 70.6853L 47.5548 70.8131L 47.5889 70.9464L 47.6042 71.0839L 47.6006 71.2213L 47.5781 71.3577L 47.5375 71.4895L 47.479 71.6143L 47.4037 71.7305L 47.3137 71.8351L 47.21 71.9265L 47.0946 72.0033L 46.9695 72.0638L 46.8378 72.1068L 46.701 72.1311L 46.5626 72.1371L 46.4243 72.1245L 46.2891 72.0927L 46.1594 72.0437L 46.0379 71.9769L 45.9265 71.8947L 45.8273 71.7981L 45.7429 71.6891L 45.6737 71.5693L 22.4345 24.1343L 22.3821 24.0065L 22.348 23.8726L 22.3328 23.7357L 22.3363 23.5978L 22.3587 23.4619L 22.3994 23.33L 22.4579 23.2047L 22.5331 23.089L 22.6232 22.984L 22.7268 22.8926L 22.8423 22.8158L 22.9674 22.7556L 23.0991 22.7126L 23.2359 22.688L 23.3743 22.6819L 23.5126 22.6951ZM 14.5183 25.0804L 14.4096 25.0623L 14.2997 25.0562L 14.1898 25.0618L 14.0811 25.0789L 13.9748 25.1082L 13.8726 25.1486L 13.7749 25.1991L 13.6839 25.2607L 13.5995 25.3309L 13.5237 25.4103L 13.4571 25.4972L 13.3996 25.5911L 13.3533 25.6902L 13.3178 25.7937L 4.52041 56.9624L 4.49648 57.069L 4.48428 57.1776L 4.48428 57.2872L 4.496 57.3959L 4.51931 57.5029L 4.55398 57.6066L 4.60024 57.7061L 4.65664 57.8L 4.7228 57.8873L 4.79849 57.9667L 4.88247 58.038L 4.97341 58.0996L 5.07058 58.1511L 5.17275 58.1915L 5.27859 58.2213L 5.38735 58.2395L 5.49722 58.2456L 5.60708 58.24L 5.71597 58.2223L 5.82217 58.1935L 5.92434 58.1531L 6.022 58.1021L 6.11306 58.041L 6.19753 57.9702L 6.27322 57.8909L 6.33987 57.8041L 6.39736 57.7106L 6.44363 57.6116L 6.47915 57.5081L 15.2765 26.3392L 15.3004 26.2322L 15.3126 26.1235L 15.3126 26.0144L 15.3015 25.9054L 15.2781 25.7987L 15.2429 25.6947L 15.1967 25.5952L 15.1403 25.5017L 15.0741 25.4143L 14.9984 25.3345L 14.9145 25.2638L 14.824 25.2021L 14.7263 25.1506L 14.6247 25.1097L 14.5183 25.0804Z"/>
</defs>
</svg>
