<?xml version="1.0" encoding="UTF-8" standalone="no"?><!DOCTYPE svg PUBLIC "-//W3C//DTD SVG 1.1//EN" "http://www.w3.org/Graphics/SVG/1.1/DTD/svg11.dtd"><svg width="100%" height="100%" viewBox="0 0 434 635" version="1.1" xmlns="http://www.w3.org/2000/svg" xmlns:xlink="http://www.w3.org/1999/xlink" xml:space="preserve" style="fill-rule:evenodd;clip-rule:evenodd;stroke-linecap:round;stroke-miterlimit:10;"><g id="discover"><path d="M226.032,610.558c5.4,-11 -45.2,-51.1 -6,-54c33.2,-2.4 71.5,23.8 91.3,39.6c16,-17.4 27,-39.7 30.3,-64.8c-31.8,-0.9 -87.8,-35.8 -79.6,-48.3c9,-13.9 50.5,9.2 13.9,-44c-8.6,-12.5 -7.5,-22.7 -2.7,-30.5c-10.9,-4.9 -22.8,-8.3 -35.3,-9.7c-42,-4.7 -81.3,13.2 -105.8,44c19,17.1 64.1,60.7 56.9,85.1c-6.7,22.6 -53,4.3 -80.8,7.4c4,24.5 15.7,46.8 32.8,64c30.5,-7.7 80.1,21.1 85,11.2Z" style="fill:#1cd2f2;fill-rule:nonzero;"/><path d="M275.832,438.958c36.6,53.2 -4.9,30.1 -13.9,44c-8.2,12.6 47.9,47.4 79.6,48.3c0.1,-0.6 0.2,-1.3 0.3,-1.9c5.9,-52.2 -23.3,-100.3 -68.7,-120.8c-4.7,7.7 -5.9,17.9 2.7,30.4Z" style="fill:url(#_Linear1);fill-rule:nonzero;"/><path d="M188.932,527.858c7.2,-24.3 -37.9,-68 -56.9,-85.1c-13.3,16.7 -22.2,37.2 -24.8,60c-1.3,11.1 -0.9,21.9 0.8,32.4c27.9,-3 74.3,15.4 80.9,-7.3Z" style="fill:#0f015e;fill-rule:nonzero;"/><path d="M311.332,596.058c-19.8,-15.8 -58.1,-42 -91.3,-39.6c-39.1,2.9 11.4,43 6,54c-4.9,9.9 -54.5,-18.9 -85.1,-11.2c18.3,18.4 42.7,30.9 70.4,34.1c38.8,4.4 75.4,-10.6 100,-37.3Z" style="fill:#0f015e;fill-rule:nonzero;"/><circle cx="224.832" cy="442.858" r="27.1" style="fill:url(#_Linear2);"/><circle cx="212.932" cy="501.058" r="13.5" style="fill:url(#_Linear3);"/><path d="M84.394,536.164l0.236,0.027l0.233,0.049l0.227,0.071l0.22,0.092l0.209,0.113l0.198,0.132l0.184,0.15l0.17,0.167l0.152,0.183l0.135,0.196l0.115,0.208l0.095,0.218l0.074,0.226l0.052,0.232l0.03,0.236l0.007,0.238l-0.015,0.238l-0.038,0.235l-0.06,0.23l-0.082,0.223l-0.103,0.215l-0.122,0.204l-0.142,0.191l-0.159,0.177l-0.175,0.161l-0.189,0.144l-0.203,0.125l-0.213,0.105l-0.879,0.383l-0.872,0.382l-0.866,0.381l-0.861,0.379l-0.855,0.379l-0.85,0.377l-0.844,0.377l-0.838,0.376l-0.832,0.374l-0.827,0.374l-0.821,0.372l-0.814,0.371l-0.809,0.371l-0.804,0.369l-0.797,0.368l-0.791,0.367l-0.785,0.365l-0.779,0.365l-0.773,0.364l-0.767,0.362l-0.761,0.361l-0.755,0.36l-0.749,0.358l-0.742,0.358l-0.736,0.355l-0.73,0.355l-0.724,0.354l-0.717,0.352l-0.711,0.351l-0.704,0.349l-0.698,0.349l-0.692,0.347l-0.685,0.345l-0.679,0.344l-0.672,0.343l-0.666,0.341l-0.659,0.34l-0.652,0.338l-0.646,0.337l-0.639,0.336l-0.632,0.334l-0.625,0.332l-0.619,0.331l-0.612,0.33l-0.605,0.328l-0.598,0.326l-0.591,0.324l-0.585,0.324l-0.577,0.321l-0.57,0.32l-0.563,0.318l-0.557,0.317l-0.549,0.315l-0.541,0.313l-0.535,0.311l-0.528,0.31l-0.52,0.308l-0.513,0.306l-0.506,0.305l-0.498,0.302l-0.491,0.301l-0.483,0.299l-0.476,0.297l-0.469,0.295l-0.461,0.293l-0.453,0.291l-0.446,0.29l-0.439,0.287l-0.43,0.285l-0.423,0.283l-0.415,0.282l-0.407,0.279l-0.4,0.277l-0.391,0.274l-0.384,0.273l-0.375,0.27l-0.37,0.27l-0.178,0.132l-0.18,0.133l-0.176,0.131l-0.175,0.132l-0.173,0.131l-0.17,0.13l-0.169,0.13l-0.166,0.129l-0.165,0.129l-0.163,0.127l-0.16,0.127l-0.158,0.127l-0.156,0.126l-0.155,0.125l-0.151,0.124l-0.15,0.125l-0.149,0.123l-0.145,0.123l-0.144,0.122l-0.141,0.121l-0.139,0.12l-0.138,0.12l-0.135,0.12l-0.133,0.118l-0.131,0.118l-0.129,0.117l-0.126,0.116l-0.123,0.115l-0.123,0.115l-0.12,0.114l-0.118,0.114l-0.116,0.112l-0.112,0.111l-0.112,0.111l-0.109,0.11l-0.106,0.108l-0.104,0.109l-0.103,0.107l-0.1,0.106l-0.098,0.106l-0.094,0.104l-0.094,0.104l-0.091,0.103l-0.089,0.101l-0.086,0.1l-0.084,0.1l-0.082,0.098l-0.08,0.098l-0.077,0.097l-0.075,0.095l-0.072,0.093l-0.071,0.093l-0.068,0.092l-0.066,0.09l-0.064,0.09l-0.061,0.088l-0.059,0.087l-0.056,0.085l-0.055,0.084l-0.052,0.083l-0.05,0.081l-0.047,0.078l-0.046,0.079l-0.044,0.077l-0.04,0.074l-0.039,0.074l-0.037,0.072l-0.034,0.07l-0.033,0.068l-0.03,0.068l-0.029,0.064l-0.026,0.063l-0.025,0.061l-0.022,0.059l-0.02,0.057l-0.019,0.056l-0.017,0.053l-0.016,0.051l-0.013,0.05l-0.012,0.047l-0.011,0.045l-0.01,0.044l-0.007,0.041l-0.007,0.039l-0.005,0.037l-0.005,0.036l-0.003,0.033l-0.003,0.032l-0.001,0.03l-0.001,0.028l0,0.026l0.001,0.025l0.001,0.024l0.001,0.022l0.003,0.021l0.002,0.02l0.003,0.019l0.004,0.018l0.003,0.017l0.004,0.017l0.005,0.017l0.005,0.017l0.003,0.01l0.004,0.01l0.004,0.01l0.005,0.012l0.004,0.01l0.005,0.01l0.006,0.013l0.006,0.011l0.005,0.011l0.007,0.012l0.007,0.012l0.008,0.014l0.008,0.012l0.01,0.015l0.009,0.014l0.01,0.014l0.012,0.016l0.011,0.016l0.012,0.015l0.013,0.016l0.015,0.018l0.014,0.017l0.015,0.017l0.018,0.02l0.018,0.019l0.018,0.018l0.019,0.02l0.022,0.021l0.023,0.022l0.02,0.019l0.024,0.021l0.028,0.024l0.026,0.022l0.025,0.021l0.029,0.024l0.032,0.024l0.03,0.023l0.031,0.024l0.033,0.023l0.036,0.026l0.035,0.024l0.036,0.024l0.04,0.026l0.038,0.025l0.043,0.027l0.041,0.025l0.042,0.025l0.046,0.027l0.045,0.026l0.046,0.026l0.044,0.023l0.105,0.056l0.106,0.053l0.111,0.053l0.113,0.053l0.121,0.053l0.126,0.053l0.129,0.052l0.135,0.052l0.139,0.052l0.145,0.051l0.15,0.051l0.154,0.05l0.158,0.05l0.163,0.049l0.169,0.048l0.172,0.047l0.177,0.047l0.182,0.046l0.186,0.044l0.191,0.045l0.194,0.042l0.198,0.042l0.204,0.042l0.209,0.04l0.212,0.039l0.216,0.038l0.221,0.037l0.225,0.036l0.228,0.035l0.233,0.033l0.237,0.033l0.241,0.031l0.246,0.031l0.249,0.029l0.253,0.028l0.257,0.027l0.262,0.025l0.264,0.025l0.27,0.023l0.273,0.022l0.276,0.021l0.281,0.02l0.284,0.019l0.288,0.017l0.292,0.016l0.296,0.015l0.3,0.013l0.303,0.013l0.307,0.011l0.31,0.01l0.315,0.009l0.318,0.007l0.321,0.006l0.325,0.005l0.33,0.004l0.332,0.003l0.336,0.001l0.339,0l0.343,-0.001l0.347,-0.003l0.35,-0.003l0.353,-0.005l0.358,-0.007l0.361,-0.007l0.364,-0.009l0.368,-0.01l0.371,-0.011l0.374,-0.013l0.378,-0.014l0.381,-0.015l0.385,-0.016l0.388,-0.017l0.391,-0.019l0.395,-0.02l0.398,-0.022l0.401,-0.022l0.405,-0.024l0.408,-0.025l0.411,-0.026l0.414,-0.028l0.419,-0.029l0.421,-0.03l0.424,-0.032l0.428,-0.032l0.43,-0.034l0.434,-0.035l0.438,-0.037l0.44,-0.037l0.444,-0.039l0.446,-0.04l0.45,-0.042l0.453,-0.042l0.456,-0.044l0.46,-0.045l0.462,-0.047l0.465,-0.047l0.469,-0.049l0.471,-0.05l0.475,-0.052l0.478,-0.052l0.481,-0.054l0.486,-0.055l0.237,-0.016l0.238,0.007l0.236,0.029l0.232,0.052l0.226,0.074l0.218,0.095l0.209,0.115l0.196,0.135l0.183,0.152l0.167,0.169l0.15,0.185l0.132,0.197l0.113,0.21l0.093,0.219l0.071,0.227l0.049,0.233l0.027,0.236l0.004,0.238l-0.018,0.237l-0.041,0.235l-0.063,0.229l-0.084,0.223l-0.105,0.213l-0.125,0.202l-0.144,0.19l-0.161,0.175l-0.177,0.159l-0.191,0.142l-0.204,0.122l-0.214,0.103l-0.224,0.082l-0.23,0.06l-0.235,0.038l-0.49,0.056l-0.49,0.055l-0.487,0.054l-0.485,0.052l-0.48,0.051l-0.479,0.05l-0.475,0.049l-0.473,0.047l-0.469,0.046l-0.466,0.045l-0.464,0.044l-0.46,0.042l-0.458,0.042l-0.454,0.039l-0.451,0.039l-0.448,0.037l-0.446,0.036l-0.442,0.035l-0.439,0.033l-0.437,0.033l-0.433,0.031l-0.429,0.029l-0.428,0.029l-0.424,0.027l-0.42,0.026l-0.418,0.024l-0.415,0.024l-0.411,0.022l-0.409,0.021l-0.405,0.019l-0.403,0.018l-0.399,0.017l-0.396,0.016l-0.392,0.014l-0.39,0.013l-0.387,0.012l-0.383,0.01l-0.38,0.009l-0.377,0.008l-0.373,0.007l-0.372,0.005l-0.367,0.004l-0.365,0.003l-0.361,0.001l-0.358,0l-0.355,-0.001l-0.352,-0.003l-0.347,-0.004l-0.345,-0.005l-0.343,-0.007l-0.339,-0.008l-0.335,-0.009l-0.332,-0.011l-0.329,-0.012l-0.327,-0.013l-0.322,-0.015l-0.319,-0.016l-0.317,-0.017l-0.313,-0.019l-0.311,-0.02l-0.306,-0.022l-0.303,-0.023l-0.3,-0.024l-0.297,-0.026l-0.295,-0.027l-0.29,-0.029l-0.287,-0.03l-0.284,-0.031l-0.282,-0.033l-0.278,-0.035l-0.274,-0.035l-0.273,-0.038l-0.268,-0.039l-0.266,-0.04l-0.261,-0.042l-0.259,-0.043l-0.257,-0.045l-0.252,-0.047l-0.249,-0.048l-0.247,-0.05l-0.244,-0.051l-0.241,-0.053l-0.237,-0.055l-0.235,-0.057l-0.231,-0.058l-0.228,-0.06l-0.226,-0.062l-0.222,-0.064l-0.22,-0.066l-0.217,-0.068l-0.214,-0.069l-0.21,-0.072l-0.208,-0.073l-0.205,-0.077l-0.203,-0.078l-0.2,-0.081l-0.197,-0.083l-0.193,-0.085l-0.193,-0.089l-0.188,-0.09l-0.185,-0.093l-0.178,-0.094l-0.095,-0.052l-0.091,-0.05l-0.089,-0.052l-0.087,-0.05l-0.089,-0.053l-0.087,-0.054l-0.085,-0.053l-0.086,-0.055l-0.084,-0.055l-0.085,-0.057l-0.084,-0.058l-0.081,-0.058l-0.082,-0.06l-0.082,-0.06l-0.081,-0.062l-0.078,-0.062l-0.077,-0.062l-0.081,-0.066l-0.077,-0.066l-0.073,-0.064l-0.076,-0.067l-0.077,-0.071l-0.072,-0.069l-0.071,-0.069l-0.072,-0.072l-0.071,-0.074l-0.07,-0.075l-0.067,-0.073l-0.068,-0.077l-0.067,-0.078l-0.064,-0.078l-0.064,-0.08l-0.063,-0.082l-0.062,-0.082l-0.059,-0.082l-0.059,-0.085l-0.058,-0.086l-0.055,-0.086l-0.055,-0.088l-0.053,-0.088l-0.052,-0.09l-0.05,-0.091l-0.049,-0.093l-0.047,-0.093l-0.044,-0.093l-0.044,-0.095l-0.042,-0.096l-0.04,-0.096l-0.038,-0.098l-0.037,-0.098l-0.034,-0.098l-0.037,-0.111l-0.044,-0.148l-0.04,-0.149l-0.036,-0.15l-0.032,-0.152l-0.028,-0.151l-0.024,-0.152l-0.019,-0.152l-0.016,-0.152l-0.011,-0.153l-0.008,-0.153l-0.003,-0.152l0,-0.152l0.004,-0.151l0.008,-0.151l0.012,-0.15l0.015,-0.15l0.018,-0.15l0.022,-0.148l0.025,-0.148l0.028,-0.147l0.031,-0.145l0.034,-0.145l0.037,-0.145l0.04,-0.143l0.043,-0.143l0.045,-0.142l0.048,-0.141l0.05,-0.141l0.054,-0.14l0.055,-0.138l0.058,-0.139l0.06,-0.137l0.062,-0.137l0.065,-0.135l0.067,-0.136l0.069,-0.136l0.071,-0.134l0.074,-0.135l0.075,-0.133l0.078,-0.133l0.08,-0.134l0.082,-0.133l0.083,-0.132l0.086,-0.132l0.087,-0.132l0.09,-0.132l0.092,-0.131l0.092,-0.131l0.096,-0.131l0.097,-0.131l0.1,-0.131l0.101,-0.132l0.103,-0.131l0.105,-0.13l0.107,-0.131l0.108,-0.13l0.111,-0.131l0.112,-0.131l0.115,-0.132l0.117,-0.131l0.117,-0.13l0.12,-0.132l0.122,-0.131l0.124,-0.132l0.125,-0.132l0.128,-0.132l0.129,-0.132l0.131,-0.132l0.133,-0.133l0.136,-0.133l0.136,-0.133l0.139,-0.133l0.14,-0.133l0.142,-0.134l0.145,-0.134l0.146,-0.135l0.148,-0.134l0.149,-0.134l0.152,-0.136l0.153,-0.135l0.155,-0.135l0.158,-0.137l0.159,-0.136l0.161,-0.136l0.163,-0.138l0.164,-0.137l0.166,-0.137l0.169,-0.139l0.17,-0.137l0.171,-0.139l0.174,-0.139l0.176,-0.139l0.178,-0.14l0.178,-0.14l0.182,-0.14l0.182,-0.141l0.185,-0.141l0.187,-0.141l0.189,-0.142l0.19,-0.142l0.192,-0.143l0.195,-0.144l0.392,-0.286l0.401,-0.288l0.408,-0.29l0.415,-0.291l0.422,-0.293l0.43,-0.294l0.437,-0.296l0.444,-0.298l0.451,-0.299l0.458,-0.3l0.466,-0.302l0.473,-0.304l0.479,-0.305l0.487,-0.307l0.494,-0.308l0.5,-0.309l0.509,-0.312l0.515,-0.312l0.521,-0.314l0.529,-0.316l0.536,-0.317l0.543,-0.319l0.549,-0.32l0.557,-0.321l0.563,-0.324l0.57,-0.324l0.577,-0.326l0.584,-0.327l0.59,-0.329l0.597,-0.33l0.604,-0.332l0.611,-0.333l0.617,-0.335l0.623,-0.335l0.631,-0.338l0.637,-0.338l0.643,-0.34l0.65,-0.341l0.657,-0.343l0.663,-0.344l0.67,-0.345l0.676,-0.347l0.682,-0.348l0.689,-0.349l0.695,-0.35l0.701,-0.352l0.707,-0.353l0.714,-0.354l0.721,-0.356l0.726,-0.357l0.733,-0.357l0.738,-0.36l0.745,-0.36l0.751,-0.361l0.757,-0.363l0.763,-0.364l0.769,-0.365l0.776,-0.366l0.781,-0.367l0.787,-0.368l0.793,-0.369l0.799,-0.371l0.804,-0.371l0.811,-0.373l0.816,-0.374l0.823,-0.374l0.828,-0.376l0.833,-0.377l0.84,-0.377l0.845,-0.379l0.851,-0.38l0.856,-0.381l0.862,-0.381l0.868,-0.383l0.873,-0.383l0.878,-0.385l0.883,-0.384l0.222,-0.085l0.23,-0.063l0.234,-0.041l0.237,-0.018l0.238,0.004Z" style="fill:#fff;"/><path d="M391.671,451.042l0.318,0.002l0.316,0.003l0.313,0.004l0.312,0.005l0.307,0.006l0.305,0.007l0.304,0.008l0.3,0.009l0.298,0.011l0.294,0.011l0.293,0.012l0.291,0.014l0.286,0.015l0.285,0.016l0.283,0.017l0.279,0.018l0.276,0.019l0.275,0.02l0.272,0.021l0.269,0.023l0.267,0.024l0.264,0.024l0.261,0.026l0.258,0.027l0.256,0.029l0.255,0.029l0.251,0.031l0.247,0.032l0.248,0.033l0.242,0.034l0.24,0.035l0.24,0.037l0.236,0.039l0.233,0.039l0.229,0.04l0.229,0.042l0.227,0.043l0.222,0.045l0.22,0.045l0.22,0.048l0.216,0.048l0.212,0.05l0.211,0.051l0.209,0.053l0.206,0.054l0.204,0.056l0.201,0.058l0.199,0.059l0.196,0.06l0.194,0.062l0.192,0.064l0.19,0.065l0.187,0.068l0.185,0.069l0.183,0.071l0.18,0.072l0.178,0.075l0.176,0.077l0.174,0.079l0.169,0.08l0.171,0.084l0.167,0.086l0.163,0.087l0.164,0.091l0.16,0.093l0.158,0.096l0.155,0.098l0.153,0.101l0.151,0.104l0.148,0.107l0.147,0.111l0.143,0.114l0.139,0.115l0.133,0.116l0.075,0.069l0.064,0.059l0.065,0.062l0.067,0.066l0.067,0.067l0.063,0.065l0.06,0.063l0.064,0.07l0.063,0.07l0.059,0.069l0.059,0.07l0.058,0.071l0.059,0.074l0.056,0.073l0.055,0.073l0.056,0.077l0.053,0.075l0.051,0.077l0.051,0.077l0.051,0.08l0.049,0.079l0.047,0.08l0.047,0.083l0.045,0.082l0.044,0.082l0.043,0.086l0.041,0.084l0.039,0.085l0.039,0.087l0.037,0.087l0.036,0.087l0.033,0.087l0.034,0.09l0.031,0.089l0.029,0.089l0.03,0.095l0.037,0.128l0.037,0.139l0.033,0.141l0.029,0.14l0.026,0.141l0.023,0.141l0.019,0.142l0.015,0.142l0.012,0.142l0.008,0.142l0.005,0.142l0.002,0.141l-0.002,0.142l-0.005,0.141l-0.008,0.14l-0.011,0.14l-0.014,0.139l-0.018,0.139l-0.02,0.139l-0.023,0.137l-0.025,0.137l-0.029,0.137l-0.031,0.135l-0.033,0.134l-0.036,0.134l-0.038,0.134l-0.041,0.133l-0.043,0.132l-0.045,0.131l-0.048,0.13l-0.049,0.131l-0.052,0.129l-0.054,0.128l-0.056,0.129l-0.058,0.129l-0.059,0.125l-0.062,0.127l-0.064,0.126l-0.065,0.126l-0.068,0.126l-0.069,0.125l-0.071,0.124l-0.072,0.123l-0.075,0.126l-0.077,0.123l-0.078,0.123l-0.079,0.123l-0.082,0.124l-0.083,0.122l-0.085,0.123l-0.086,0.122l-0.089,0.122l-0.09,0.122l-0.091,0.122l-0.093,0.122l-0.095,0.122l-0.097,0.123l-0.098,0.122l-0.1,0.122l-0.101,0.121l-0.103,0.122l-0.105,0.122l-0.106,0.122l-0.109,0.123l-0.109,0.122l-0.111,0.123l-0.114,0.123l-0.114,0.122l-0.115,0.121l-0.119,0.124l-0.12,0.124l-0.119,0.122l-0.124,0.124l-0.123,0.123l-0.126,0.124l-0.128,0.124l-0.129,0.124l-0.13,0.124l-0.133,0.125l-0.134,0.126l-0.134,0.123l-0.137,0.125l-0.14,0.127l-0.14,0.126l-0.142,0.125l-0.144,0.127l-0.144,0.126l-0.147,0.126l-0.147,0.127l-0.151,0.128l-0.152,0.128l-0.153,0.128l-0.155,0.128l-0.158,0.13l-0.315,0.256l-0.324,0.259l-0.33,0.26l-0.337,0.261l-0.343,0.263l-0.349,0.263l-0.355,0.266l-0.362,0.266l-0.369,0.268l-0.375,0.269l-0.381,0.27l-0.387,0.271l-0.393,0.273l-0.4,0.274l-0.406,0.276l-0.413,0.277l-0.418,0.277l-0.425,0.28l-0.43,0.28l-0.438,0.283l-0.443,0.283l-0.45,0.285l-0.456,0.286l-0.461,0.287l-0.468,0.289l-0.474,0.289l-0.48,0.292l-0.486,0.292l-0.492,0.294l-0.499,0.295l-0.504,0.297l-0.51,0.297l-0.516,0.299l-0.522,0.3l-0.528,0.302l-0.534,0.303l-0.54,0.304l-0.546,0.305l-0.552,0.306l-0.557,0.308l-0.564,0.309l-0.569,0.31l-0.574,0.311l-0.581,0.313l-0.587,0.314l-0.592,0.315l-0.597,0.316l-0.604,0.317l-0.609,0.319l-0.615,0.319l-0.62,0.321l-0.626,0.322l-0.632,0.323l-0.638,0.324l-0.642,0.325l-0.648,0.327l-0.655,0.327l-0.659,0.329l-0.664,0.329l-0.67,0.331l-0.676,0.332l-0.681,0.333l-0.686,0.334l-0.692,0.335l-0.697,0.336l-0.703,0.336l-0.707,0.338l-0.713,0.34l-0.718,0.34l-0.724,0.34l-0.728,0.342l-0.734,0.343l-0.739,0.344l-0.744,0.345l-0.75,0.346l-0.754,0.346l-0.759,0.348l-0.765,0.349l-0.769,0.349l-0.775,0.35l-0.779,0.351l-0.785,0.352l-0.789,0.353l-0.795,0.354l-0.799,0.354l-0.804,0.356l-0.809,0.356l-0.814,0.357l-0.819,0.358l-0.823,0.358l-0.829,0.36l-0.833,0.36l-0.837,0.361l-0.843,0.362l-0.847,0.362l-0.852,0.363l-0.856,0.364l-0.861,0.365l-0.866,0.365l-0.87,0.367l-0.875,0.366l-0.879,0.368l-0.884,0.368l-0.889,0.369l-0.893,0.369l-0.897,0.37l-0.901,0.37l-0.906,0.372l-0.911,0.372l-0.915,0.372l-0.919,0.373l-0.924,0.374l-0.927,0.374l-0.932,0.375l-0.937,0.375l-0.94,0.376l-0.945,0.377l-0.949,0.377l-0.953,0.377l-0.957,0.378l-0.962,0.379l-0.965,0.378l-0.969,0.38l-0.974,0.38l-0.977,0.38l-0.982,0.381l-0.985,0.381l-0.99,0.382l-0.993,0.382l-0.997,0.382l-1.002,0.383l-1.005,0.383l-1.009,0.384l-1.013,0.384l-1.016,0.384l-1.021,0.385l-1.024,0.384l-1.028,0.386l-1.031,0.385l-1.035,0.386l-1.039,0.386l-1.043,0.387l-1.046,0.387l-1.05,0.387l-1.053,0.387l-1.057,0.388l-1.061,0.387l-1.064,0.388l-1.067,0.389l-1.071,0.388l-1.074,0.389l-1.078,0.388l-1.081,0.389l-1.085,0.389l-1.088,0.39l-1.091,0.389l-1.095,0.39l-1.098,0.389l-1.101,0.39l-1.104,0.39l-1.108,0.39l-1.11,0.39l-1.115,0.39l-1.117,0.391l-1.12,0.39l-1.123,0.39l-1.127,0.391l-1.129,0.39l-1.133,0.39l-1.136,0.391l-1.138,0.39l-1.142,0.391l-1.144,0.39l-1.148,0.39l-1.15,0.39l-1.154,0.391l-1.156,0.39l-1.159,0.39l-1.161,0.39l-1.165,0.39l-1.167,0.39l-1.171,0.389l-1.172,0.39l-1.176,0.389l-1.178,0.39l-1.181,0.389l-1.183,0.389l-1.187,0.389l-1.188,0.388l-1.192,0.388l-1.193,0.389l-1.197,0.388l-1.199,0.388l-1.201,0.387l-1.204,0.387l-1.206,0.387l-1.209,0.387l-1.211,0.386l-1.214,0.387l-1.216,0.386l-1.218,0.385l-1.22,0.386l-1.223,0.384l-1.225,0.385l-1.227,0.384l-1.229,0.384l-1.232,0.384l-1.234,0.383l-1.237,0.383l-1.297,0.399l-1.293,0.396l-1.291,0.395l-1.289,0.393l-1.288,0.392l-1.286,0.39l-1.284,0.388l-1.283,0.387l-1.28,0.385l-1.279,0.383l-1.276,0.381l-1.274,0.38l-1.273,0.378l-1.27,0.376l-1.268,0.375l-1.267,0.372l-1.264,0.371l-1.262,0.37l-1.26,0.367l-1.257,0.366l-1.256,0.364l-1.253,0.363l-1.251,0.36l-1.248,0.359l-1.246,0.357l-1.244,0.355l-1.241,0.353l-1.239,0.352l-1.236,0.35l-1.234,0.348l-1.232,0.346l-1.229,0.345l-1.226,0.342l-1.224,0.341l-1.221,0.339l-1.219,0.337l-1.215,0.335l-1.213,0.334l-1.211,0.331l-1.207,0.33l-1.205,0.328l-1.202,0.325l-1.199,0.324l-1.197,0.323l-1.193,0.32l-1.191,0.318l-1.187,0.317l-1.185,0.314l-1.181,0.313l-1.179,0.311l-1.175,0.309l-1.172,0.307l-1.17,0.305l-1.166,0.303l-1.163,0.301l-1.159,0.299l-1.157,0.297l-1.153,0.295l-1.15,0.294l-1.147,0.291l-1.143,0.289l-1.14,0.288l-1.136,0.285l-1.133,0.284l-1.13,0.281l-1.126,0.279l-1.123,0.278l-1.119,0.275l-1.116,0.274l-1.112,0.271l-1.108,0.269l-1.105,0.268l-1.101,0.265l-1.097,0.263l-1.094,0.261l-1.09,0.259l-1.086,0.257l-1.082,0.255l-1.079,0.253l-1.075,0.251l-1.071,0.249l-1.066,0.246l-1.063,0.245l-1.059,0.242l-1.055,0.241l-1.051,0.238l-1.047,0.236l-1.043,0.234l-1.038,0.232l-1.035,0.23l-1.03,0.228l-1.027,0.225l-1.022,0.223l-1.017,0.222l-1.014,0.219l-1.009,0.217l-1.005,0.214l-1,0.213l-0.996,0.21l-0.992,0.209l-0.988,0.206l-0.982,0.203l-0.979,0.202l-0.974,0.199l-0.969,0.197l-0.965,0.195l-0.96,0.193l-0.955,0.191l-0.951,0.188l-0.947,0.186l-0.941,0.184l-0.937,0.181l-0.932,0.18l-0.927,0.177l-0.922,0.174l-0.918,0.173l-0.913,0.17l-0.908,0.168l-0.903,0.166l-0.898,0.163l-0.892,0.161l-0.888,0.159l-0.884,0.157l-0.878,0.154l-0.872,0.151l-0.868,0.15l-0.863,0.147l-0.855,0.145l-0.975,-0.029l-0.89,-0.399l-0.67,-0.71l-0.347,-0.912l0.029,-0.975l0.399,-0.889l0.71,-0.67l0.911,-0.347l0.852,-0.143l0.854,-0.146l0.86,-0.148l0.865,-0.151l0.87,-0.153l0.875,-0.155l0.881,-0.157l0.885,-0.16l0.891,-0.162l0.896,-0.164l0.9,-0.167l0.906,-0.169l0.91,-0.171l0.916,-0.173l0.92,-0.176l0.925,-0.178l0.93,-0.18l0.935,-0.183l0.94,-0.184l0.944,-0.187l0.949,-0.19l0.954,-0.191l0.959,-0.194l0.963,-0.196l0.967,-0.198l0.973,-0.2l0.976,-0.203l0.982,-0.204l0.985,-0.207l0.99,-0.21l0.996,-0.211l0.999,-0.213l1.003,-0.216l1.007,-0.218l1.013,-0.22l1.016,-0.222l1.021,-0.224l1.025,-0.227l1.029,-0.228l1.033,-0.231l1.037,-0.233l1.042,-0.235l1.046,-0.237l1.049,-0.239l1.054,-0.241l1.058,-0.244l1.062,-0.245l1.065,-0.248l1.07,-0.249l1.073,-0.252l1.078,-0.254l1.081,-0.256l1.085,-0.258l1.089,-0.26l1.093,-0.262l1.095,-0.264l1.1,-0.266l1.104,-0.268l1.108,-0.27l1.11,-0.273l1.115,-0.274l1.118,-0.276l1.122,-0.278l1.125,-0.281l1.128,-0.282l1.132,-0.284l1.135,-0.286l1.139,-0.289l1.142,-0.29l1.146,-0.292l1.149,-0.294l1.152,-0.296l1.155,-0.298l1.159,-0.3l1.161,-0.302l1.165,-0.304l1.168,-0.306l1.172,-0.308l1.174,-0.309l1.177,-0.312l1.18,-0.313l1.184,-0.316l1.186,-0.317l1.189,-0.319l1.192,-0.321l1.195,-0.323l1.198,-0.325l1.201,-0.326l1.203,-0.329l1.207,-0.33l1.209,-0.333l1.211,-0.334l1.215,-0.336l1.217,-0.338l1.22,-0.339l1.222,-0.342l1.225,-0.343l1.227,-0.345l1.23,-0.347l1.233,-0.348l1.235,-0.351l1.237,-0.352l1.24,-0.354l1.242,-0.356l1.245,-0.358l1.247,-0.359l1.249,-0.361l1.251,-0.363l1.254,-0.365l1.256,-0.366l1.258,-0.369l1.26,-0.37l1.262,-0.371l1.265,-0.374l1.266,-0.375l1.269,-0.377l1.271,-0.378l1.272,-0.381l1.275,-0.381l1.276,-0.384l1.279,-0.385l1.28,-0.388l1.282,-0.388l1.284,-0.391l1.286,-0.392l1.287,-0.393l1.29,-0.396l1.289,-0.396l1.231,-0.382l1.23,-0.382l1.228,-0.382l1.226,-0.383l1.223,-0.383l1.222,-0.383l1.219,-0.384l1.216,-0.384l1.215,-0.385l1.212,-0.384l1.21,-0.386l1.207,-0.385l1.205,-0.385l1.202,-0.386l1.201,-0.386l1.197,-0.386l1.195,-0.387l1.193,-0.387l1.19,-0.387l1.188,-0.387l1.185,-0.387l1.182,-0.388l1.18,-0.388l1.177,-0.388l1.175,-0.388l1.171,-0.388l1.17,-0.388l1.166,-0.389l1.163,-0.388l1.161,-0.389l1.158,-0.389l1.156,-0.388l1.152,-0.389l1.149,-0.389l1.147,-0.389l1.144,-0.389l1.14,-0.389l1.138,-0.389l1.135,-0.389l1.131,-0.389l1.129,-0.39l1.126,-0.389l1.122,-0.389l1.12,-0.388l1.116,-0.389l1.114,-0.389l1.109,-0.389l1.108,-0.389l1.103,-0.388l1.101,-0.389l1.097,-0.388l1.094,-0.388l1.09,-0.389l1.088,-0.388l1.083,-0.388l1.081,-0.387l1.077,-0.388l1.074,-0.387l1.07,-0.387l1.067,-0.387l1.064,-0.387l1.059,-0.386l1.057,-0.386l1.052,-0.386l1.05,-0.386l1.045,-0.386l1.042,-0.385l1.039,-0.385l1.034,-0.384l1.031,-0.385l1.028,-0.384l1.023,-0.384l1.02,-0.383l1.016,-0.383l1.012,-0.383l1.008,-0.382l1.005,-0.382l1.001,-0.381l0.996,-0.381l0.993,-0.381l0.989,-0.38l0.985,-0.38l0.981,-0.38l0.977,-0.379l0.973,-0.378l0.969,-0.378l0.965,-0.378l0.961,-0.377l0.956,-0.376l0.952,-0.377l0.949,-0.375l0.944,-0.375l0.94,-0.375l0.935,-0.373l0.932,-0.374l0.927,-0.373l0.923,-0.372l0.918,-0.372l0.914,-0.371l0.91,-0.37l0.905,-0.37l0.901,-0.369l0.897,-0.369l0.892,-0.367l0.887,-0.368l0.883,-0.366l0.878,-0.366l0.874,-0.365l0.87,-0.365l0.865,-0.363l0.86,-0.363l0.855,-0.362l0.851,-0.362l0.846,-0.361l0.841,-0.36l0.837,-0.359l0.832,-0.359l0.827,-0.357l0.822,-0.357l0.818,-0.356l0.812,-0.355l0.808,-0.355l0.803,-0.353l0.798,-0.352l0.792,-0.352l0.789,-0.351l0.783,-0.35l0.777,-0.349l0.773,-0.348l0.768,-0.348l0.763,-0.346l0.757,-0.345l0.753,-0.345l0.747,-0.343l0.742,-0.342l0.737,-0.342l0.732,-0.34l0.726,-0.34l0.721,-0.338l0.716,-0.338l0.711,-0.336l0.705,-0.335l0.7,-0.334l0.694,-0.334l0.689,-0.332l0.684,-0.331l0.678,-0.329l0.672,-0.329l0.667,-0.328l0.661,-0.326l0.657,-0.326l0.65,-0.324l0.645,-0.322l0.639,-0.322l0.633,-0.321l0.628,-0.319l0.622,-0.318l0.616,-0.317l0.611,-0.316l0.604,-0.314l0.599,-0.313l0.593,-0.312l0.588,-0.311l0.581,-0.309l0.575,-0.308l0.57,-0.306l0.564,-0.306l0.557,-0.303l0.552,-0.303l0.545,-0.301l0.54,-0.299l0.533,-0.299l0.527,-0.297l0.521,-0.295l0.515,-0.294l0.509,-0.292l0.502,-0.292l0.497,-0.289l0.489,-0.288l0.484,-0.286l0.477,-0.286l0.471,-0.283l0.465,-0.282l0.458,-0.28l0.451,-0.278l0.446,-0.278l0.439,-0.275l0.432,-0.274l0.425,-0.272l0.419,-0.27l0.413,-0.269l0.406,-0.267l0.399,-0.265l0.392,-0.263l0.386,-0.261l0.379,-0.26l0.372,-0.259l0.365,-0.256l0.359,-0.254l0.351,-0.252l0.344,-0.25l0.338,-0.248l0.331,-0.247l0.323,-0.244l0.316,-0.242l0.31,-0.241l0.302,-0.237l0.295,-0.236l0.29,-0.236l0.139,-0.114l0.139,-0.115l0.138,-0.116l0.135,-0.113l0.133,-0.114l0.133,-0.113l0.13,-0.113l0.129,-0.112l0.126,-0.111l0.125,-0.111l0.123,-0.11l0.119,-0.108l0.12,-0.109l0.118,-0.11l0.114,-0.106l0.113,-0.106l0.112,-0.107l0.11,-0.105l0.107,-0.105l0.106,-0.104l0.104,-0.103l0.101,-0.102l0.101,-0.103l0.097,-0.1l0.096,-0.1l0.095,-0.101l0.092,-0.099l0.09,-0.097l0.088,-0.097l0.087,-0.097l0.083,-0.094l0.083,-0.095l0.081,-0.094l0.078,-0.093l0.077,-0.092l0.074,-0.091l0.073,-0.091l0.07,-0.088l0.068,-0.088l0.067,-0.087l0.065,-0.086l0.062,-0.085l0.061,-0.085l0.059,-0.082l0.056,-0.082l0.055,-0.081l0.053,-0.08l0.05,-0.078l0.049,-0.077l0.047,-0.076l0.044,-0.073l0.044,-0.075l0.041,-0.072l0.039,-0.071l0.037,-0.068l0.036,-0.068l0.033,-0.067l0.032,-0.065l0.03,-0.064l0.028,-0.061l0.026,-0.06l0.025,-0.06l0.023,-0.057l0.021,-0.055l0.019,-0.054l0.018,-0.053l0.017,-0.05l0.015,-0.049l0.013,-0.046l0.013,-0.046l0.01,-0.044l0.01,-0.042l0.008,-0.04l0.007,-0.038l0.007,-0.037l0.005,-0.035l0.004,-0.033l0.003,-0.032l0.002,-0.03l0.002,-0.029l0.001,-0.027l0,-0.025l0,-0.025l-0.001,-0.023l-0.001,-0.022l-0.002,-0.02l-0.002,-0.02l-0.002,-0.019l-0.003,-0.018l-0.004,-0.018l-0.003,-0.016l-0.004,-0.016l-0.004,-0.016l-0.008,-0.026l-0.001,-0.006l-0.004,-0.01l-0.004,-0.011l-0.003,-0.009l-0.004,-0.011l-0.004,-0.01l-0.005,-0.011l-0.004,-0.009l-0.005,-0.011l-0.005,-0.011l-0.005,-0.01l-0.006,-0.011l-0.007,-0.013l-0.006,-0.01l-0.007,-0.012l-0.008,-0.013l-0.007,-0.011l-0.009,-0.014l-0.01,-0.014l-0.01,-0.014l-0.009,-0.013l-0.011,-0.015l-0.012,-0.015l-0.011,-0.014l-0.013,-0.016l-0.014,-0.016l-0.015,-0.018l-0.013,-0.014l-0.014,-0.015l-0.019,-0.021l-0.019,-0.019l-0.016,-0.016l-0.016,-0.016l-0.021,-0.02l-0.024,-0.022l-0.014,-0.013l-0.05,-0.044l-0.051,-0.042l-0.053,-0.042l-0.056,-0.042l-0.061,-0.044l-0.065,-0.045l-0.069,-0.046l-0.072,-0.046l-0.077,-0.047l-0.081,-0.047l-0.084,-0.046l-0.091,-0.048l-0.093,-0.048l-0.095,-0.047l-0.103,-0.049l-0.106,-0.048l-0.109,-0.048l-0.113,-0.047l-0.118,-0.048l-0.121,-0.047l-0.125,-0.046l-0.129,-0.047l-0.133,-0.046l-0.137,-0.045l-0.14,-0.045l-0.146,-0.045l-0.148,-0.044l-0.152,-0.043l-0.156,-0.043l-0.159,-0.042l-0.163,-0.041l-0.167,-0.041l-0.171,-0.04l-0.174,-0.039l-0.176,-0.038l-0.182,-0.038l-0.186,-0.037l-0.186,-0.035l-0.191,-0.035l-0.196,-0.035l-0.2,-0.033l-0.201,-0.033l-0.203,-0.031l-0.21,-0.031l-0.213,-0.03l-0.213,-0.029l-0.22,-0.028l-0.222,-0.027l-0.224,-0.026l-0.227,-0.025l-0.233,-0.024l-0.235,-0.024l-0.238,-0.022l-0.24,-0.022l-0.245,-0.02l-0.247,-0.02l-0.25,-0.018l-0.255,-0.017l-0.257,-0.017l-0.259,-0.016l-0.263,-0.014l-0.266,-0.014l-0.269,-0.013l-0.271,-0.011l-0.276,-0.011l-0.278,-0.009l-0.281,-0.009l-0.283,-0.008l-0.288,-0.006l-0.29,-0.006l-0.292,-0.005l-0.295,-0.003l-0.3,-0.003l-0.302,-0.002l-0.303,0l-0.308,0l-0.311,0.001l-0.312,0.003l-0.316,0.003l-0.319,0.005l-0.322,0.005l-0.324,0.006l-0.327,0.008l-0.33,0.008l-0.334,0.009l-0.335,0.011l-0.337,0.011l-0.343,0.013l-0.344,0.013l-0.346,0.014l-0.348,0.016l-0.353,0.016l-0.355,0.017l-0.357,0.019l-0.361,0.019l-0.362,0.021l-0.366,0.021l-0.368,0.022l-0.371,0.024l-0.373,0.024l-0.376,0.025l-0.379,0.027l-0.381,0.027l-0.384,0.028l-0.386,0.03l-0.39,0.03l-0.392,0.031l-0.394,0.033l-0.397,0.033l-0.402,0.034l-0.969,-0.108l-0.855,-0.47l-0.609,-0.762l-0.271,-0.937l0.108,-0.969l0.47,-0.855l0.762,-0.609l0.937,-0.271l0.406,-0.035l0.407,-0.034l0.405,-0.034l0.401,-0.031l0.399,-0.031l0.397,-0.031l0.394,-0.029l0.392,-0.028l0.389,-0.027l0.387,-0.026l0.385,-0.025l0.382,-0.024l0.379,-0.023l0.377,-0.022l0.375,-0.021l0.371,-0.02l0.37,-0.019l0.366,-0.018l0.364,-0.017l0.363,-0.016l0.36,-0.015l0.357,-0.014l0.353,-0.013l0.352,-0.012l0.35,-0.01l0.346,-0.01l0.344,-0.009l0.341,-0.008l0.34,-0.006l0.336,-0.006l0.333,-0.004l0.332,-0.004l0.33,-0.003l0.325,-0.001l0.324,0l0.321,0Z" style="fill:#fff;"/><path d="M330.381,546.66l0.25,0.005l0.249,0.008l0.248,0.011l0.248,0.014l0.245,0.017l0.246,0.02l0.245,0.024l0.244,0.026l0.243,0.029l0.242,0.033l0.242,0.035l0.24,0.038l0.239,0.042l0.238,0.044l0.238,0.047l0.236,0.05l0.235,0.053l0.235,0.056l0.232,0.058l0.232,0.061l0.232,0.064l0.229,0.067l0.228,0.069l0.229,0.073l0.226,0.075l0.224,0.078l0.223,0.08l0.223,0.083l0.221,0.086l0.22,0.088l0.218,0.091l0.218,0.093l0.215,0.097l0.214,0.098l0.213,0.101l0.212,0.104l0.209,0.105l0.209,0.109l0.207,0.111l0.205,0.113l0.204,0.116l0.202,0.118l0.201,0.12l0.199,0.123l0.198,0.125l0.196,0.127l0.194,0.13l0.193,0.131l0.191,0.135l0.189,0.136l0.187,0.138l0.186,0.141l0.184,0.143l0.183,0.146l0.18,0.146l0.178,0.149l0.178,0.152l0.175,0.154l0.172,0.155l0.172,0.158l0.169,0.159l0.167,0.161l0.166,0.164l0.163,0.165l0.162,0.167l0.16,0.17l0.157,0.171l0.155,0.173l0.154,0.176l0.151,0.176l0.15,0.179l0.147,0.181l0.145,0.182l0.143,0.184l0.14,0.185l0.139,0.188l0.136,0.19l0.135,0.191l0.131,0.192l0.13,0.194l0.127,0.196l0.125,0.198l0.123,0.199l0.12,0.2l0.119,0.203l0.115,0.204l0.113,0.205l0.111,0.207l0.109,0.209l0.106,0.21l0.103,0.211l0.101,0.213l0.099,0.214l0.096,0.216l0.093,0.217l0.091,0.218l0.088,0.22l0.086,0.221l0.083,0.222l0.08,0.224l0.078,0.224l0.075,0.227l0.072,0.227l0.07,0.229l0.067,0.23l0.064,0.23l0.061,0.232l0.059,0.233l0.055,0.235l0.053,0.235l0.05,0.236l0.047,0.238l0.044,0.238l0.042,0.239l0.038,0.241l0.035,0.241l0.033,0.242l0.029,0.243l0.026,0.244l0.024,0.245l0.02,0.246l0.017,0.246l0.014,0.247l0.011,0.248l0.008,0.249l0.005,0.249l0.002,0.25l-0.002,0.251l-0.005,0.249l-0.008,0.249l-0.011,0.248l-0.014,0.247l-0.017,0.246l-0.02,0.246l-0.024,0.245l-0.026,0.244l-0.029,0.243l-0.033,0.242l-0.035,0.241l-0.038,0.241l-0.042,0.239l-0.044,0.238l-0.047,0.238l-0.05,0.236l-0.053,0.235l-0.055,0.234l-0.059,0.234l-0.061,0.232l-0.064,0.231l-0.067,0.229l-0.07,0.229l-0.072,0.227l-0.075,0.226l-0.078,0.225l-0.08,0.224l-0.083,0.222l-0.086,0.221l-0.088,0.22l-0.091,0.218l-0.093,0.217l-0.096,0.216l-0.099,0.214l-0.101,0.213l-0.104,0.212l-0.105,0.209l-0.109,0.208l-0.111,0.208l-0.113,0.205l-0.116,0.204l-0.118,0.202l-0.12,0.201l-0.123,0.199l-0.125,0.198l-0.127,0.196l-0.13,0.194l-0.132,0.193l-0.134,0.191l-0.136,0.189l-0.139,0.188l-0.14,0.185l-0.143,0.184l-0.146,0.183l-0.146,0.18l-0.15,0.179l-0.151,0.177l-0.153,0.174l-0.156,0.174l-0.158,0.171l-0.159,0.169l-0.161,0.167l-0.164,0.166l-0.166,0.164l-0.167,0.161l-0.169,0.16l-0.171,0.157l-0.173,0.155l-0.175,0.154l-0.177,0.151l-0.179,0.15l-0.181,0.147l-0.182,0.145l-0.184,0.143l-0.186,0.14l-0.187,0.139l-0.189,0.136l-0.191,0.134l-0.193,0.133l-0.194,0.129l-0.196,0.127l-0.198,0.125l-0.199,0.123l-0.201,0.12l-0.202,0.118l-0.204,0.116l-0.205,0.113l-0.207,0.111l-0.209,0.109l-0.21,0.106l-0.211,0.103l-0.212,0.101l-0.216,0.099l-0.215,0.096l-0.216,0.093l-0.219,0.091l-0.22,0.088l-0.22,0.085l-0.223,0.084l-0.224,0.08l-0.225,0.078l-0.226,0.075l-0.227,0.072l-0.229,0.07l-0.23,0.067l-0.23,0.064l-0.232,0.061l-0.234,0.059l-0.234,0.055l-0.234,0.053l-0.237,0.05l-0.238,0.047l-0.238,0.044l-0.239,0.042l-0.24,0.038l-0.242,0.035l-0.243,0.033l-0.242,0.029l-0.244,0.026l-0.245,0.024l-0.245,0.02l-0.247,0.017l-0.247,0.014l-0.248,0.011l-0.249,0.008l-0.25,0.005l-0.249,0.001l-0.25,-0.001l-0.25,-0.005l-0.249,-0.008l-0.248,-0.011l-0.247,-0.014l-0.247,-0.017l-0.245,-0.02l-0.245,-0.024l-0.244,-0.026l-0.242,-0.029l-0.243,-0.033l-0.242,-0.035l-0.24,-0.038l-0.239,-0.042l-0.238,-0.044l-0.238,-0.047l-0.237,-0.05l-0.234,-0.053l-0.234,-0.055l-0.234,-0.059l-0.232,-0.061l-0.23,-0.064l-0.23,-0.067l-0.229,-0.07l-0.227,-0.072l-0.226,-0.075l-0.225,-0.078l-0.224,-0.08l-0.223,-0.084l-0.219,-0.085l-0.221,-0.088l-0.219,-0.091l-0.216,-0.093l-0.215,-0.096l-0.216,-0.099l-0.212,-0.101l-0.211,-0.103l-0.21,-0.106l-0.209,-0.109l-0.207,-0.111l-0.205,-0.113l-0.204,-0.116l-0.202,-0.118l-0.201,-0.12l-0.199,-0.123l-0.198,-0.125l-0.196,-0.127l-0.194,-0.129l-0.193,-0.133l-0.191,-0.134l-0.189,-0.136l-0.187,-0.139l-0.186,-0.14l-0.184,-0.143l-0.182,-0.145l-0.181,-0.147l-0.179,-0.15l-0.177,-0.151l-0.175,-0.154l-0.173,-0.155l-0.171,-0.157l-0.169,-0.16l-0.167,-0.161l-0.166,-0.164l-0.164,-0.166l-0.161,-0.167l-0.159,-0.169l-0.158,-0.171l-0.156,-0.174l-0.153,-0.174l-0.151,-0.177l-0.15,-0.179l-0.146,-0.18l-0.146,-0.183l-0.143,-0.184l-0.14,-0.185l-0.139,-0.188l-0.136,-0.189l-0.134,-0.191l-0.132,-0.193l-0.13,-0.194l-0.127,-0.196l-0.125,-0.198l-0.123,-0.199l-0.12,-0.201l-0.118,-0.202l-0.116,-0.204l-0.113,-0.205l-0.111,-0.208l-0.109,-0.208l-0.105,-0.209l-0.104,-0.212l-0.101,-0.213l-0.099,-0.214l-0.096,-0.216l-0.093,-0.217l-0.091,-0.218l-0.088,-0.22l-0.086,-0.221l-0.083,-0.222l-0.08,-0.224l-0.078,-0.225l-0.075,-0.226l-0.072,-0.227l-0.07,-0.229l-0.067,-0.229l-0.064,-0.231l-0.061,-0.232l-0.059,-0.234l-0.055,-0.233l-0.053,-0.236l-0.05,-0.236l-0.047,-0.238l-0.044,-0.238l-0.042,-0.239l-0.038,-0.241l-0.035,-0.241l-0.033,-0.242l-0.029,-0.243l-0.026,-0.244l-0.024,-0.245l-0.02,-0.246l-0.017,-0.246l-0.014,-0.247l-0.011,-0.248l-0.008,-0.249l-0.005,-0.249l-0.002,-0.251l0.002,-0.25l0.005,-0.249l0.008,-0.249l0.011,-0.248l0.014,-0.247l0.017,-0.246l0.02,-0.246l0.024,-0.245l0.026,-0.244l0.029,-0.243l0.033,-0.242l0.035,-0.241l0.038,-0.241l0.042,-0.239l0.044,-0.238l0.047,-0.238l0.05,-0.236l0.053,-0.235l0.055,-0.235l0.059,-0.233l0.061,-0.232l0.064,-0.231l0.067,-0.229l0.07,-0.229l0.072,-0.227l0.075,-0.227l0.078,-0.224l0.08,-0.224l0.083,-0.222l0.086,-0.221l0.088,-0.22l0.091,-0.218l0.093,-0.217l0.096,-0.216l0.099,-0.214l0.101,-0.213l0.103,-0.211l0.106,-0.21l0.109,-0.209l0.111,-0.207l0.113,-0.205l0.115,-0.204l0.119,-0.203l0.12,-0.2l0.123,-0.199l0.125,-0.198l0.127,-0.196l0.13,-0.194l0.131,-0.192l0.135,-0.191l0.136,-0.19l0.139,-0.188l0.14,-0.185l0.143,-0.184l0.145,-0.182l0.147,-0.181l0.15,-0.179l0.151,-0.176l0.154,-0.176l0.155,-0.173l0.157,-0.171l0.16,-0.17l0.162,-0.167l0.163,-0.165l0.166,-0.164l0.167,-0.161l0.169,-0.159l0.172,-0.158l0.172,-0.155l0.175,-0.154l0.178,-0.152l0.178,-0.149l0.18,-0.146l0.183,-0.146l0.184,-0.143l0.186,-0.141l0.187,-0.138l0.189,-0.136l0.191,-0.135l0.193,-0.131l0.194,-0.13l0.196,-0.127l0.198,-0.125l0.199,-0.123l0.201,-0.12l0.202,-0.118l0.204,-0.116l0.205,-0.113l0.207,-0.111l0.209,-0.109l0.209,-0.105l0.212,-0.104l0.213,-0.101l0.214,-0.098l0.215,-0.097l0.218,-0.093l0.218,-0.091l0.22,-0.088l0.221,-0.086l0.223,-0.083l0.223,-0.08l0.224,-0.078l0.226,-0.075l0.229,-0.073l0.228,-0.069l0.229,-0.067l0.232,-0.064l0.232,-0.061l0.232,-0.058l0.235,-0.056l0.235,-0.053l0.236,-0.05l0.238,-0.047l0.238,-0.044l0.239,-0.042l0.24,-0.038l0.242,-0.035l0.242,-0.033l0.243,-0.029l0.244,-0.026l0.245,-0.024l0.246,-0.02l0.245,-0.017l0.248,-0.014l0.248,-0.011l0.249,-0.008l0.25,-0.005l0.25,-0.002l0.249,0.002Zm-0.449,4l-0.199,0.003l-0.198,0.007l-0.197,0.008l-0.196,0.012l-0.197,0.014l-0.195,0.016l-0.194,0.018l-0.194,0.021l-0.192,0.023l-0.193,0.026l-0.191,0.028l-0.191,0.031l-0.19,0.032l-0.189,0.035l-0.188,0.038l-0.188,0.039l-0.186,0.042l-0.185,0.044l-0.186,0.047l-0.183,0.048l-0.182,0.051l-0.183,0.053l-0.182,0.055l-0.178,0.057l-0.18,0.06l-0.179,0.061l-0.177,0.064l-0.176,0.066l-0.175,0.068l-0.174,0.07l-0.173,0.072l-0.172,0.073l-0.171,0.077l-0.17,0.078l-0.169,0.08l-0.167,0.082l-0.167,0.084l-0.165,0.086l-0.165,0.088l-0.162,0.09l-0.162,0.092l-0.161,0.094l-0.16,0.095l-0.157,0.097l-0.157,0.1l-0.156,0.101l-0.154,0.103l-0.154,0.105l-0.151,0.106l-0.15,0.109l-0.15,0.11l-0.147,0.112l-0.146,0.113l-0.145,0.115l-0.144,0.117l-0.142,0.119l-0.14,0.12l-0.139,0.122l-0.138,0.124l-0.136,0.125l-0.135,0.127l-0.133,0.129l-0.131,0.129l-0.131,0.132l-0.128,0.133l-0.127,0.134l-0.125,0.137l-0.124,0.138l-0.122,0.138l-0.12,0.141l-0.119,0.142l-0.116,0.144l-0.116,0.145l-0.113,0.146l-0.112,0.148l-0.111,0.149l-0.108,0.15l-0.106,0.151l-0.105,0.154l-0.103,0.154l-0.101,0.156l-0.099,0.156l-0.098,0.159l-0.096,0.159l-0.093,0.16l-0.092,0.163l-0.09,0.163l-0.088,0.164l-0.086,0.165l-0.084,0.167l-0.082,0.168l-0.08,0.168l-0.078,0.17l-0.076,0.171l-0.074,0.172l-0.072,0.173l-0.07,0.174l-0.068,0.175l-0.066,0.176l-0.064,0.178l-0.061,0.178l-0.06,0.179l-0.057,0.18l-0.055,0.181l-0.053,0.182l-0.051,0.183l-0.048,0.184l-0.047,0.184l-0.044,0.186l-0.042,0.187l-0.039,0.187l-0.038,0.188l-0.035,0.189l-0.032,0.19l-0.031,0.19l-0.028,0.192l-0.026,0.192l-0.023,0.193l-0.021,0.194l-0.018,0.194l-0.016,0.195l-0.014,0.197l-0.011,0.196l-0.009,0.197l-0.006,0.199l-0.004,0.198l-0.001,0.199l0.001,0.2l0.004,0.199l0.006,0.198l0.009,0.197l0.011,0.197l0.014,0.196l0.016,0.195l0.018,0.194l0.021,0.194l0.023,0.193l0.026,0.192l0.028,0.191l0.031,0.191l0.032,0.19l0.035,0.189l0.038,0.188l0.039,0.187l0.042,0.187l0.044,0.185l0.047,0.185l0.048,0.184l0.051,0.183l0.053,0.182l0.055,0.181l0.057,0.18l0.06,0.179l0.061,0.178l0.064,0.177l0.066,0.177l0.068,0.175l0.07,0.174l0.072,0.173l0.074,0.172l0.076,0.171l0.078,0.17l0.08,0.169l0.082,0.167l0.084,0.167l0.086,0.166l0.088,0.163l0.09,0.164l0.092,0.161l0.093,0.161l0.096,0.16l0.097,0.157l0.1,0.157l0.101,0.156l0.103,0.154l0.105,0.153l0.106,0.152l0.109,0.151l0.11,0.148l0.112,0.148l0.113,0.147l0.115,0.144l0.117,0.144l0.119,0.142l0.12,0.14l0.123,0.14l0.123,0.137l0.125,0.136l0.127,0.135l0.129,0.133l0.129,0.131l0.132,0.13l0.133,0.129l0.135,0.127l0.136,0.125l0.138,0.124l0.139,0.122l0.141,0.12l0.141,0.119l0.143,0.116l0.146,0.116l0.146,0.113l0.147,0.112l0.15,0.11l0.15,0.109l0.152,0.107l0.152,0.104l0.155,0.103l0.156,0.101l0.157,0.099l0.158,0.098l0.159,0.095l0.161,0.094l0.162,0.092l0.162,0.09l0.165,0.088l0.165,0.086l0.166,0.084l0.168,0.082l0.17,0.08l0.168,0.078l0.171,0.076l0.173,0.074l0.173,0.072l0.174,0.07l0.176,0.068l0.176,0.066l0.176,0.064l0.179,0.061l0.179,0.06l0.18,0.057l0.181,0.055l0.182,0.053l0.184,0.051l0.183,0.049l0.184,0.046l0.186,0.044l0.187,0.042l0.187,0.039l0.188,0.038l0.189,0.035l0.19,0.032l0.191,0.031l0.191,0.028l0.192,0.025l0.193,0.024l0.194,0.021l0.194,0.018l0.196,0.016l0.195,0.014l0.197,0.011l0.197,0.009l0.198,0.006l0.199,0.004l0.2,0.001l0.199,-0.001l0.199,-0.004l0.198,-0.006l0.197,-0.009l0.197,-0.011l0.195,-0.014l0.196,-0.016l0.194,-0.018l0.194,-0.021l0.193,-0.024l0.192,-0.025l0.191,-0.028l0.191,-0.031l0.19,-0.032l0.189,-0.035l0.188,-0.038l0.187,-0.039l0.187,-0.042l0.186,-0.044l0.184,-0.046l0.183,-0.049l0.184,-0.051l0.182,-0.053l0.181,-0.055l0.18,-0.057l0.179,-0.06l0.179,-0.061l0.176,-0.064l0.176,-0.066l0.176,-0.068l0.174,-0.07l0.173,-0.072l0.173,-0.074l0.171,-0.076l0.168,-0.078l0.17,-0.08l0.168,-0.082l0.166,-0.084l0.165,-0.086l0.165,-0.088l0.162,-0.09l0.162,-0.092l0.161,-0.094l0.159,-0.095l0.158,-0.098l0.157,-0.099l0.156,-0.101l0.155,-0.103l0.152,-0.104l0.152,-0.107l0.15,-0.109l0.15,-0.11l0.147,-0.112l0.146,-0.113l0.146,-0.116l0.143,-0.116l0.141,-0.119l0.141,-0.12l0.139,-0.122l0.138,-0.124l0.136,-0.125l0.135,-0.127l0.133,-0.129l0.132,-0.13l0.129,-0.131l0.129,-0.133l0.127,-0.135l0.125,-0.136l0.123,-0.137l0.123,-0.14l0.12,-0.14l0.119,-0.142l0.117,-0.144l0.115,-0.144l0.113,-0.147l0.112,-0.148l0.11,-0.148l0.109,-0.151l0.106,-0.152l0.105,-0.153l0.103,-0.154l0.101,-0.156l0.1,-0.157l0.097,-0.157l0.096,-0.16l0.093,-0.161l0.092,-0.161l0.09,-0.164l0.088,-0.163l0.086,-0.166l0.084,-0.167l0.082,-0.167l0.08,-0.169l0.078,-0.17l0.076,-0.171l0.074,-0.172l0.072,-0.173l0.07,-0.174l0.068,-0.175l0.066,-0.177l0.064,-0.177l0.061,-0.178l0.06,-0.179l0.057,-0.18l0.055,-0.181l0.053,-0.182l0.051,-0.183l0.048,-0.184l0.047,-0.185l0.044,-0.185l0.042,-0.187l0.039,-0.187l0.038,-0.188l0.035,-0.189l0.032,-0.19l0.031,-0.191l0.028,-0.191l0.026,-0.192l0.023,-0.193l0.021,-0.194l0.018,-0.194l0.016,-0.195l0.014,-0.196l0.011,-0.197l0.009,-0.197l0.006,-0.198l0.004,-0.199l0.001,-0.2l-0.001,-0.199l-0.004,-0.198l-0.006,-0.199l-0.009,-0.197l-0.011,-0.196l-0.014,-0.197l-0.016,-0.195l-0.018,-0.194l-0.021,-0.194l-0.023,-0.193l-0.026,-0.192l-0.028,-0.192l-0.031,-0.19l-0.032,-0.19l-0.035,-0.189l-0.038,-0.188l-0.039,-0.187l-0.042,-0.187l-0.044,-0.186l-0.046,-0.184l-0.049,-0.184l-0.051,-0.183l-0.053,-0.182l-0.055,-0.181l-0.057,-0.18l-0.06,-0.179l-0.061,-0.178l-0.064,-0.178l-0.066,-0.176l-0.068,-0.175l-0.07,-0.174l-0.072,-0.173l-0.074,-0.172l-0.076,-0.171l-0.078,-0.17l-0.08,-0.168l-0.082,-0.168l-0.084,-0.167l-0.086,-0.165l-0.088,-0.164l-0.09,-0.163l-0.092,-0.163l-0.093,-0.16l-0.096,-0.159l-0.098,-0.159l-0.099,-0.156l-0.101,-0.156l-0.103,-0.154l-0.105,-0.154l-0.106,-0.151l-0.108,-0.15l-0.111,-0.149l-0.112,-0.148l-0.113,-0.146l-0.116,-0.145l-0.116,-0.144l-0.119,-0.142l-0.12,-0.141l-0.122,-0.138l-0.124,-0.138l-0.125,-0.137l-0.127,-0.134l-0.128,-0.133l-0.131,-0.132l-0.131,-0.129l-0.133,-0.129l-0.135,-0.127l-0.136,-0.125l-0.138,-0.124l-0.139,-0.122l-0.14,-0.12l-0.142,-0.119l-0.144,-0.117l-0.145,-0.115l-0.146,-0.113l-0.147,-0.112l-0.15,-0.11l-0.15,-0.109l-0.151,-0.106l-0.154,-0.105l-0.154,-0.103l-0.156,-0.101l-0.157,-0.1l-0.157,-0.097l-0.16,-0.095l-0.161,-0.094l-0.162,-0.092l-0.162,-0.09l-0.165,-0.088l-0.165,-0.086l-0.167,-0.084l-0.167,-0.082l-0.169,-0.08l-0.17,-0.078l-0.171,-0.077l-0.172,-0.073l-0.173,-0.072l-0.174,-0.07l-0.175,-0.068l-0.176,-0.066l-0.177,-0.064l-0.179,-0.061l-0.18,-0.06l-0.178,-0.057l-0.182,-0.055l-0.183,-0.053l-0.182,-0.051l-0.183,-0.048l-0.186,-0.047l-0.185,-0.044l-0.186,-0.042l-0.188,-0.039l-0.188,-0.038l-0.189,-0.035l-0.19,-0.032l-0.191,-0.031l-0.191,-0.028l-0.193,-0.026l-0.192,-0.023l-0.194,-0.021l-0.194,-0.018l-0.195,-0.016l-0.197,-0.014l-0.196,-0.012l-0.197,-0.008l-0.198,-0.007l-0.199,-0.003l-0.199,-0.002l-0.2,0.002Z" style="fill:#fff;"/><path d="M386.369,569.859l0.137,0.003l0.138,0.004l0.137,0.006l0.136,0.008l0.137,0.01l0.134,0.011l0.134,0.013l0.135,0.014l0.134,0.016l0.133,0.018l0.134,0.02l0.133,0.021l0.132,0.023l0.131,0.024l0.131,0.026l0.131,0.028l0.13,0.029l0.128,0.03l0.128,0.032l0.129,0.034l0.129,0.036l0.127,0.037l0.126,0.039l0.123,0.039l0.125,0.041l0.126,0.044l0.123,0.044l0.121,0.045l0.123,0.048l0.121,0.049l0.122,0.05l0.12,0.052l0.118,0.053l0.118,0.054l0.117,0.055l0.117,0.058l0.116,0.058l0.115,0.06l0.114,0.061l0.113,0.062l0.113,0.064l0.111,0.065l0.111,0.066l0.11,0.068l0.11,0.07l0.107,0.07l0.107,0.071l0.107,0.073l0.105,0.074l0.104,0.075l0.103,0.076l0.103,0.078l0.101,0.079l0.101,0.08l0.1,0.081l0.098,0.082l0.097,0.084l0.096,0.084l0.095,0.085l0.096,0.088l0.094,0.088l0.091,0.088l0.092,0.091l0.09,0.091l0.088,0.091l0.089,0.095l0.087,0.094l0.085,0.095l0.085,0.097l0.083,0.097l0.082,0.099l0.082,0.1l0.079,0.099l0.079,0.102l0.078,0.103l0.076,0.103l0.075,0.104l0.074,0.105l0.073,0.107l0.071,0.107l0.07,0.107l0.07,0.11l0.067,0.11l0.067,0.11l0.065,0.112l0.064,0.113l0.062,0.113l0.061,0.114l0.06,0.115l0.059,0.116l0.057,0.116l0.055,0.118l0.055,0.118l0.052,0.119l0.052,0.12l0.05,0.12l0.049,0.121l0.047,0.123l0.046,0.123l0.045,0.123l0.042,0.124l0.042,0.124l0.04,0.126l0.038,0.126l0.037,0.127l0.035,0.127l0.034,0.129l0.033,0.128l0.03,0.129l0.029,0.13l0.028,0.131l0.026,0.131l0.024,0.131l0.023,0.132l0.021,0.133l0.02,0.133l0.018,0.133l0.016,0.135l0.014,0.134l0.013,0.135l0.011,0.135l0.01,0.136l0.008,0.137l0.006,0.136l0.004,0.137l0.003,0.138l0.001,0.137l-0.001,0.138l-0.003,0.138l-0.004,0.137l-0.006,0.136l-0.008,0.137l-0.01,0.136l-0.011,0.135l-0.013,0.135l-0.014,0.134l-0.016,0.134l-0.018,0.134l-0.02,0.133l-0.021,0.132l-0.023,0.133l-0.024,0.131l-0.026,0.131l-0.028,0.131l-0.029,0.13l-0.03,0.129l-0.033,0.128l-0.034,0.129l-0.035,0.127l-0.037,0.127l-0.038,0.125l-0.04,0.127l-0.042,0.124l-0.042,0.124l-0.045,0.124l-0.046,0.122l-0.047,0.122l-0.049,0.122l-0.05,0.12l-0.052,0.12l-0.052,0.119l-0.055,0.118l-0.055,0.118l-0.057,0.116l-0.059,0.116l-0.06,0.115l-0.061,0.114l-0.062,0.113l-0.064,0.113l-0.065,0.112l-0.067,0.11l-0.067,0.11l-0.07,0.11l-0.07,0.107l-0.071,0.107l-0.073,0.107l-0.074,0.105l-0.075,0.104l-0.076,0.103l-0.078,0.103l-0.079,0.102l-0.079,0.099l-0.082,0.1l-0.082,0.099l-0.083,0.097l-0.085,0.097l-0.086,0.096l-0.086,0.093l-0.088,0.094l-0.089,0.092l-0.09,0.091l-0.092,0.091l-0.093,0.089l-0.093,0.088l-0.094,0.086l-0.095,0.085l-0.097,0.085l-0.097,0.084l-0.098,0.082l-0.1,0.081l-0.101,0.08l-0.101,0.079l-0.103,0.078l-0.103,0.076l-0.104,0.075l-0.105,0.074l-0.107,0.073l-0.107,0.071l-0.109,0.071l-0.108,0.068l-0.109,0.068l-0.112,0.067l-0.111,0.065l-0.113,0.064l-0.113,0.062l-0.114,0.061l-0.115,0.06l-0.116,0.058l-0.117,0.058l-0.117,0.055l-0.118,0.054l-0.12,0.054l-0.118,0.051l-0.12,0.05l-0.123,0.049l-0.123,0.048l-0.121,0.045l-0.123,0.044l-0.126,0.044l-0.125,0.041l-0.123,0.039l-0.127,0.039l-0.128,0.037l-0.125,0.035l-0.129,0.034l-0.13,0.033l-0.128,0.03l-0.13,0.029l-0.131,0.028l-0.131,0.026l-0.131,0.024l-0.132,0.023l-0.133,0.021l-0.134,0.02l-0.133,0.018l-0.134,0.016l-0.135,0.014l-0.134,0.013l-0.134,0.011l-0.137,0.01l-0.136,0.008l-0.137,0.006l-0.138,0.004l-0.137,0.003l-0.138,0.001l-0.137,-0.001l-0.137,-0.003l-0.138,-0.004l-0.137,-0.006l-0.136,-0.008l-0.137,-0.01l-0.134,-0.011l-0.134,-0.013l-0.135,-0.014l-0.134,-0.016l-0.133,-0.018l-0.134,-0.02l-0.133,-0.021l-0.132,-0.023l-0.131,-0.024l-0.131,-0.026l-0.131,-0.028l-0.131,-0.029l-0.128,-0.03l-0.129,-0.033l-0.129,-0.034l-0.125,-0.035l-0.128,-0.037l-0.127,-0.039l-0.123,-0.039l-0.125,-0.041l-0.126,-0.044l-0.123,-0.044l-0.121,-0.045l-0.123,-0.048l-0.123,-0.049l-0.12,-0.05l-0.118,-0.051l-0.12,-0.054l-0.118,-0.054l-0.117,-0.055l-0.118,-0.058l-0.115,-0.058l-0.115,-0.06l-0.114,-0.061l-0.113,-0.062l-0.113,-0.064l-0.11,-0.065l-0.113,-0.067l-0.109,-0.068l-0.108,-0.068l-0.109,-0.071l-0.107,-0.071l-0.107,-0.073l-0.105,-0.074l-0.104,-0.075l-0.103,-0.076l-0.103,-0.078l-0.101,-0.079l-0.101,-0.08l-0.1,-0.081l-0.097,-0.082l-0.098,-0.084l-0.098,-0.085l-0.094,-0.085l-0.094,-0.086l-0.093,-0.088l-0.093,-0.089l-0.092,-0.091l-0.09,-0.091l-0.089,-0.092l-0.088,-0.094l-0.086,-0.093l-0.086,-0.096l-0.085,-0.097l-0.083,-0.097l-0.082,-0.099l-0.082,-0.1l-0.079,-0.099l-0.079,-0.102l-0.078,-0.103l-0.076,-0.103l-0.075,-0.104l-0.074,-0.105l-0.073,-0.107l-0.072,-0.107l-0.069,-0.107l-0.069,-0.11l-0.068,-0.11l-0.067,-0.11l-0.065,-0.113l-0.064,-0.112l-0.062,-0.113l-0.061,-0.114l-0.06,-0.115l-0.059,-0.116l-0.056,-0.116l-0.056,-0.118l-0.055,-0.118l-0.053,-0.119l-0.051,-0.12l-0.051,-0.121l-0.048,-0.121l-0.047,-0.122l-0.046,-0.122l-0.044,-0.124l-0.043,-0.124l-0.042,-0.125l-0.04,-0.126l-0.038,-0.125l-0.037,-0.127l-0.035,-0.127l-0.034,-0.129l-0.033,-0.128l-0.03,-0.129l-0.029,-0.13l-0.028,-0.131l-0.026,-0.131l-0.024,-0.131l-0.023,-0.133l-0.021,-0.132l-0.02,-0.133l-0.018,-0.134l-0.016,-0.134l-0.014,-0.134l-0.013,-0.135l-0.011,-0.135l-0.01,-0.137l-0.008,-0.136l-0.006,-0.136l-0.004,-0.137l-0.003,-0.138l-0.001,-0.138l0.001,-0.137l0.003,-0.138l0.004,-0.137l0.006,-0.136l0.008,-0.136l0.01,-0.137l0.011,-0.135l0.013,-0.135l0.014,-0.134l0.016,-0.134l0.018,-0.134l0.02,-0.133l0.021,-0.133l0.023,-0.132l0.024,-0.131l0.026,-0.131l0.028,-0.131l0.029,-0.13l0.03,-0.129l0.033,-0.128l0.034,-0.129l0.035,-0.127l0.037,-0.127l0.038,-0.126l0.04,-0.126l0.042,-0.124l0.043,-0.124l0.044,-0.124l0.046,-0.122l0.047,-0.122l0.048,-0.121l0.051,-0.121l0.051,-0.12l0.053,-0.119l0.055,-0.118l0.056,-0.118l0.056,-0.116l0.059,-0.116l0.06,-0.115l0.061,-0.114l0.062,-0.113l0.064,-0.112l0.065,-0.113l0.067,-0.11l0.068,-0.11l0.069,-0.11l0.069,-0.107l0.072,-0.107l0.073,-0.107l0.074,-0.105l0.075,-0.104l0.076,-0.103l0.078,-0.103l0.079,-0.102l0.079,-0.099l0.082,-0.1l0.082,-0.099l0.083,-0.097l0.085,-0.097l0.085,-0.095l0.087,-0.094l0.089,-0.095l0.088,-0.091l0.09,-0.091l0.092,-0.091l0.091,-0.088l0.094,-0.088l0.096,-0.088l0.095,-0.085l0.096,-0.084l0.098,-0.084l0.097,-0.082l0.1,-0.081l0.101,-0.08l0.101,-0.079l0.103,-0.078l0.103,-0.076l0.104,-0.075l0.105,-0.074l0.107,-0.073l0.107,-0.071l0.107,-0.07l0.11,-0.07l0.11,-0.068l0.112,-0.066l0.11,-0.065l0.113,-0.064l0.113,-0.062l0.114,-0.061l0.115,-0.06l0.115,-0.058l0.118,-0.058l0.117,-0.055l0.118,-0.054l0.118,-0.053l0.12,-0.052l0.121,-0.05l0.122,-0.049l0.123,-0.048l0.121,-0.045l0.123,-0.044l0.126,-0.044l0.125,-0.041l0.123,-0.039l0.125,-0.039l0.129,-0.037l0.128,-0.036l0.129,-0.034l0.127,-0.032l0.128,-0.03l0.131,-0.029l0.131,-0.028l0.131,-0.026l0.131,-0.024l0.132,-0.023l0.133,-0.021l0.134,-0.02l0.133,-0.018l0.134,-0.016l0.135,-0.014l0.134,-0.013l0.134,-0.011l0.137,-0.01l0.136,-0.008l0.137,-0.006l0.138,-0.004l0.137,-0.003l0.137,-0.001l0.138,0.001Zm-0.225,4l-0.086,0.002l-0.087,0.002l-0.085,0.004l-0.085,0.005l-0.085,0.006l-0.086,0.007l-0.086,0.008l-0.083,0.009l-0.085,0.011l-0.084,0.011l-0.082,0.012l-0.083,0.013l-0.083,0.014l-0.082,0.015l-0.081,0.017l-0.082,0.017l-0.08,0.018l-0.082,0.019l-0.081,0.021l-0.079,0.021l-0.079,0.021l-0.078,0.023l-0.079,0.024l-0.08,0.026l-0.078,0.026l-0.076,0.026l-0.077,0.028l-0.078,0.029l-0.076,0.029l-0.075,0.03l-0.074,0.031l-0.075,0.032l-0.075,0.034l-0.074,0.034l-0.074,0.035l-0.072,0.035l-0.072,0.037l-0.073,0.037l-0.071,0.039l-0.071,0.038l-0.07,0.04l-0.071,0.042l-0.069,0.041l-0.068,0.042l-0.068,0.043l-0.068,0.044l-0.068,0.045l-0.065,0.045l-0.067,0.047l-0.066,0.047l-0.065,0.048l-0.064,0.049l-0.063,0.05l-0.063,0.049l-0.062,0.051l-0.063,0.053l-0.061,0.052l-0.061,0.053l-0.061,0.054l-0.057,0.053l-0.059,0.056l-0.059,0.057l-0.057,0.056l-0.056,0.057l-0.057,0.059l-0.054,0.058l-0.055,0.059l-0.054,0.061l-0.053,0.06l-0.053,0.062l-0.051,0.061l-0.051,0.062l-0.051,0.064l-0.049,0.063l-0.048,0.064l-0.049,0.066l-0.047,0.065l-0.046,0.066l-0.046,0.067l-0.044,0.066l-0.045,0.069l-0.043,0.068l-0.042,0.068l-0.042,0.07l-0.04,0.069l-0.04,0.071l-0.04,0.071l-0.038,0.072l-0.037,0.071l-0.036,0.072l-0.037,0.074l-0.034,0.073l-0.034,0.074l-0.033,0.075l-0.033,0.074l-0.031,0.075l-0.03,0.076l-0.03,0.076l-0.028,0.077l-0.028,0.077l-0.027,0.077l-0.026,0.078l-0.024,0.078l-0.024,0.079l-0.023,0.079l-0.023,0.079l-0.02,0.08l-0.021,0.08l-0.019,0.081l-0.018,0.081l-0.017,0.082l-0.017,0.081l-0.015,0.082l-0.014,0.083l-0.013,0.083l-0.012,0.083l-0.011,0.083l-0.011,0.084l-0.009,0.085l-0.008,0.085l-0.007,0.085l-0.006,0.085l-0.005,0.085l-0.004,0.086l-0.002,0.087l-0.002,0.086l0,0.087l0,0.087l0.002,0.087l0.002,0.086l0.004,0.086l0.005,0.086l0.006,0.085l0.007,0.085l0.008,0.085l0.009,0.085l0.011,0.084l0.011,0.083l0.012,0.083l0.013,0.083l0.014,0.083l0.015,0.082l0.017,0.081l0.017,0.082l0.018,0.081l0.019,0.081l0.021,0.08l0.02,0.08l0.022,0.079l0.024,0.079l0.024,0.079l0.024,0.078l0.026,0.078l0.027,0.077l0.027,0.077l0.029,0.077l0.03,0.077l0.03,0.075l0.031,0.075l0.033,0.074l0.033,0.075l0.034,0.074l0.034,0.073l0.037,0.074l0.036,0.071l0.037,0.072l0.038,0.072l0.04,0.071l0.04,0.071l0.04,0.069l0.042,0.07l0.042,0.068l0.043,0.068l0.045,0.068l0.044,0.067l0.046,0.067l0.046,0.066l0.047,0.065l0.049,0.066l0.048,0.064l0.049,0.063l0.051,0.064l0.051,0.062l0.051,0.061l0.053,0.062l0.053,0.06l0.053,0.06l0.056,0.06l0.055,0.059l0.056,0.058l0.056,0.057l0.057,0.056l0.058,0.056l0.059,0.055l0.06,0.055l0.06,0.055l0.06,0.052l0.061,0.052l0.063,0.053l0.062,0.05l0.063,0.05l0.063,0.05l0.064,0.049l0.065,0.048l0.066,0.047l0.067,0.047l0.065,0.044l0.068,0.046l0.067,0.043l0.069,0.044l0.07,0.043l0.067,0.04l0.071,0.042l0.07,0.04l0.071,0.038l0.071,0.039l0.073,0.037l0.072,0.037l0.072,0.035l0.074,0.035l0.074,0.034l0.074,0.033l0.076,0.033l0.076,0.032l0.073,0.029l0.076,0.029l0.078,0.029l0.077,0.028l0.076,0.026l0.078,0.026l0.08,0.026l0.078,0.023l0.077,0.023l0.083,0.023l0.079,0.021l0.079,0.02l0.082,0.019l0.08,0.018l0.082,0.017l0.081,0.017l0.082,0.015l0.083,0.014l0.083,0.013l0.082,0.012l0.084,0.011l0.085,0.011l0.083,0.009l0.086,0.008l0.086,0.007l0.085,0.006l0.085,0.005l0.085,0.004l0.087,0.002l0.086,0.002l0.087,0l0.088,0l0.086,-0.002l0.087,-0.002l0.085,-0.004l0.085,-0.005l0.085,-0.006l0.086,-0.007l0.086,-0.008l0.083,-0.009l0.085,-0.011l0.084,-0.011l0.082,-0.012l0.083,-0.013l0.083,-0.014l0.082,-0.015l0.081,-0.017l0.081,-0.017l0.081,-0.018l0.082,-0.019l0.079,-0.02l0.079,-0.021l0.083,-0.023l0.077,-0.023l0.078,-0.023l0.08,-0.026l0.078,-0.026l0.076,-0.026l0.077,-0.028l0.078,-0.029l0.076,-0.029l0.073,-0.03l0.077,-0.031l0.075,-0.033l0.074,-0.033l0.074,-0.034l0.074,-0.035l0.072,-0.035l0.073,-0.037l0.072,-0.037l0.071,-0.039l0.071,-0.038l0.07,-0.04l0.071,-0.042l0.067,-0.04l0.07,-0.043l0.069,-0.044l0.067,-0.043l0.068,-0.046l0.066,-0.045l0.066,-0.046l0.066,-0.047l0.065,-0.048l0.064,-0.049l0.063,-0.049l0.063,-0.051l0.063,-0.05l0.062,-0.053l0.061,-0.052l0.06,-0.052l0.06,-0.055l0.06,-0.055l0.059,-0.055l0.058,-0.056l0.057,-0.056l0.056,-0.057l0.056,-0.058l0.056,-0.059l0.055,-0.06l0.053,-0.06l0.053,-0.06l0.053,-0.062l0.051,-0.061l0.051,-0.062l0.051,-0.064l0.049,-0.063l0.048,-0.064l0.049,-0.066l0.047,-0.065l0.046,-0.066l0.046,-0.067l0.044,-0.067l0.045,-0.068l0.043,-0.068l0.042,-0.068l0.042,-0.07l0.04,-0.069l0.04,-0.071l0.04,-0.071l0.038,-0.072l0.037,-0.072l0.036,-0.071l0.037,-0.074l0.034,-0.073l0.034,-0.074l0.033,-0.075l0.033,-0.074l0.031,-0.075l0.03,-0.075l0.03,-0.077l0.028,-0.077l0.028,-0.076l0.027,-0.078l0.026,-0.078l0.024,-0.078l0.024,-0.079l0.023,-0.079l0.023,-0.08l0.021,-0.079l0.02,-0.08l0.019,-0.081l0.018,-0.081l0.017,-0.081l0.016,-0.082l0.016,-0.082l0.014,-0.083l0.013,-0.083l0.012,-0.083l0.012,-0.084l0.01,-0.084l0.009,-0.084l0.008,-0.085l0.007,-0.085l0.006,-0.085l0.005,-0.085l0.004,-0.087l0.002,-0.086l0.002,-0.086l0,-0.088l0,-0.087l-0.002,-0.086l-0.002,-0.087l-0.004,-0.086l-0.005,-0.085l-0.006,-0.085l-0.007,-0.085l-0.008,-0.085l-0.009,-0.084l-0.01,-0.085l-0.012,-0.083l-0.012,-0.084l-0.013,-0.082l-0.014,-0.082l-0.016,-0.083l-0.016,-0.082l-0.017,-0.081l-0.018,-0.081l-0.019,-0.081l-0.02,-0.08l-0.021,-0.079l-0.023,-0.08l-0.023,-0.08l-0.024,-0.078l-0.024,-0.078l-0.026,-0.078l-0.027,-0.078l-0.028,-0.077l-0.028,-0.076l-0.03,-0.076l-0.03,-0.076l-0.031,-0.075l-0.033,-0.074l-0.033,-0.075l-0.034,-0.074l-0.034,-0.073l-0.037,-0.074l-0.036,-0.071l-0.037,-0.072l-0.038,-0.072l-0.04,-0.071l-0.04,-0.071l-0.04,-0.069l-0.042,-0.07l-0.042,-0.068l-0.043,-0.068l-0.045,-0.068l-0.044,-0.067l-0.046,-0.067l-0.046,-0.066l-0.047,-0.065l-0.049,-0.066l-0.048,-0.064l-0.049,-0.063l-0.051,-0.064l-0.051,-0.062l-0.051,-0.061l-0.053,-0.062l-0.053,-0.06l-0.054,-0.061l-0.054,-0.059l-0.055,-0.058l-0.057,-0.059l-0.056,-0.057l-0.057,-0.056l-0.059,-0.057l-0.059,-0.056l-0.057,-0.053l-0.061,-0.054l-0.061,-0.053l-0.061,-0.052l-0.062,-0.053l-0.063,-0.051l-0.063,-0.05l-0.063,-0.049l-0.064,-0.049l-0.065,-0.048l-0.066,-0.047l-0.066,-0.047l-0.066,-0.045l-0.068,-0.045l-0.068,-0.044l-0.068,-0.043l-0.068,-0.042l-0.069,-0.041l-0.071,-0.042l-0.07,-0.04l-0.071,-0.038l-0.071,-0.039l-0.072,-0.037l-0.073,-0.037l-0.072,-0.035l-0.074,-0.035l-0.074,-0.034l-0.075,-0.034l-0.074,-0.032l-0.075,-0.031l-0.075,-0.03l-0.076,-0.029l-0.078,-0.03l-0.077,-0.027l-0.076,-0.026l-0.078,-0.026l-0.08,-0.026l-0.079,-0.024l-0.078,-0.023l-0.079,-0.021l-0.079,-0.021l-0.081,-0.021l-0.082,-0.019l-0.081,-0.018l-0.081,-0.017l-0.081,-0.017l-0.082,-0.015l-0.083,-0.014l-0.083,-0.013l-0.082,-0.012l-0.084,-0.011l-0.085,-0.011l-0.083,-0.009l-0.086,-0.008l-0.086,-0.007l-0.085,-0.006l-0.085,-0.005l-0.085,-0.004l-0.087,-0.002l-0.086,-0.002l-0.088,0l-0.087,0Z" style="fill:#fff;"/><path d="M386.032,532.458l-2.7,0c-1.6,0 -2.9,-1.3 -2.9,-2.9l0,-2.6c0,-1.6 -1.4,-3 -3,-3c-1.7,0 -3,1.4 -3,3l0,2.6c0,1.6 -1.3,2.9 -2.9,2.9l-2.5,0c-1.6,0 -3.1,1.2 -3.1,2.9c-0.1,1.7 1.3,3.1 3,3.1l2.6,0c1.6,0 2.9,1.3 2.9,2.9l0.1,2.6c0,1.6 1.4,3 3,3c1.7,0 3,-1.4 3,-3l-0.1,-2.7c0,-1.6 1.3,-2.9 2.9,-2.9l2.6,0c2,0 3.5,-2 2.8,-4.1c-0.3,-1 -1.4,-1.8 -2.7,-1.8Z" style="fill:#fff;fill-rule:nonzero;"/><path d="M70.632,492.558l-2.3,-1.3c-1.4,-0.8 -1.9,-2.5 -1.2,-3.9l1.3,-2.3c0.8,-1.4 0.3,-3.3 -1.2,-4.1c-1.5,-0.8 -3.3,-0.3 -4.1,1.2l-1.3,2.3c-0.8,1.4 -2.5,1.9 -3.9,1.2l-2.2,-1.2c-1.4,-0.8 -3.3,-0.4 -4.1,1c-0.9,1.5 -0.4,3.4 1.1,4.2l2.3,1.3c1.4,0.8 1.9,2.5 1.2,3.9l-1.2,2.3c-0.8,1.4 -0.3,3.3 1.2,4.1c1.4,0.8 3.3,0.3 4.1,-1.2l1.2,-2.4c0.8,-1.4 2.5,-1.9 3.9,-1.2l2.3,1.3c1.8,0.9 4,0 4.4,-2.2c0.2,-1.2 -0.4,-2.4 -1.5,-3Z" style="fill:#fff;fill-rule:nonzero;"/><path d="M335.232,211.058l-50.9,-49.7l-24.5,30.9l59.7,39.8c0.2,0.2 0.4,0.4 0.6,0.5c4.6,3.2 11.7,1 15.8,-5c4.2,-5.9 3.9,-13.3 -0.7,-16.5Z" style="fill:#acc7ff;fill-rule:nonzero;"/><path d="M318.832,166.858c1.1,1 2.4,1.5 3.7,1.6c1.7,0.1 3.5,-0.5 4.8,-1.9c2.3,-2.4 2.2,-6.2 -0.2,-8.5l-28.4,-26.9c-2.4,-2.3 -6.2,-2.2 -8.5,0.2c-2.3,2.4 -2.2,6.2 0.2,8.5l10.8,10.2l-6.8,7.7l-76.1,-74.2l-48.5,61.2l58.9,39.2l-16.5,20.3l-5.9,7.2l14.6,10.8l7.7,-9.5l5.7,2.9l-5.2,29.1l18.2,3.8l5.2,-29.1l3.8,-0.2l9.1,23.3l17,-6l-8.6,-22.5l14.3,9.5c0.4,0.4 0.8,0.7 1.3,1c9.1,6.3 23.1,1.9 31.3,-9.8c8.2,-11.8 7.5,-26.4 -1.6,-32.8l0.1,-0.1l-16.1,-15.7l6.9,-7.9l8.8,8.6Z" style="fill:#fff;fill-rule:nonzero;"/><path d="M263.332,93.858Z" style="fill:#c5d3e7;"/><g><path d="M202.948,25.17l0.155,0.023l0.153,0.035l0.15,0.048l0.145,0.058l0.141,0.07l0.135,0.081l0.128,0.091l0.12,0.101l0.112,0.11l0.103,0.118l0.094,0.126l0.083,0.134l0.073,0.139l0.061,0.144l0.05,0.149l0.038,0.153l0.026,0.154l0.014,0.157l0.002,0.157l-0.011,0.157l-3.5,32.2l-0.023,0.155l-0.035,0.153l-0.048,0.15l-0.058,0.145l-0.07,0.141l-0.081,0.135l-0.091,0.128l-0.101,0.12l-0.11,0.112l-0.118,0.103l-0.127,0.094l-0.133,0.083l-0.139,0.073l-0.144,0.061l-0.149,0.05l-0.153,0.038l-0.154,0.026l-0.157,0.014l-0.157,0.002l-0.157,-0.011l-0.155,-0.023l-0.153,-0.036l-0.15,-0.047l-0.145,-0.058l-0.141,-0.07l-0.135,-0.081l-0.128,-0.091l-0.12,-0.101l-0.112,-0.11l-0.103,-0.118l-0.094,-0.127l-0.083,-0.133l-0.073,-0.139l-0.061,-0.144l-0.05,-0.149l-0.038,-0.153l-0.026,-0.155l-0.014,-0.156l-0.002,-0.157l0.011,-0.157l3.5,-32.2l0.023,-0.155l0.036,-0.153l0.047,-0.15l0.058,-0.146l0.07,-0.14l0.081,-0.135l0.091,-0.128l0.101,-0.12l0.11,-0.112l0.118,-0.103l0.127,-0.094l0.133,-0.083l0.139,-0.073l0.144,-0.061l0.149,-0.05l0.153,-0.038l0.154,-0.026l0.157,-0.014l0.157,-0.002l0.157,0.011Z" style="fill:#fff;"/><path d="M166.149,19.062l0.098,0.008l0.097,0.013l0.097,0.018l0.095,0.022l0.095,0.027l0.093,0.032l0.091,0.036l0.089,0.041l0.088,0.045l0.084,0.049l0.083,0.054l0.08,0.057l0.076,0.061l0.074,0.065l0.071,0.068l0.066,0.072l0.064,0.075l0.06,0.078l0.055,0.081l0.052,0.083l0.048,0.086l0.043,0.088l0.039,0.09l0.034,0.092l0.03,0.094l3.6,12.3l0.025,0.095l0.021,0.096l0.016,0.096l0.011,0.098l0.006,0.098l0.001,0.098l-0.003,0.098l-0.008,0.098l-0.013,0.097l-0.018,0.097l-0.022,0.095l-0.027,0.095l-0.032,0.093l-0.036,0.091l-0.041,0.089l-0.045,0.088l-0.049,0.084l-0.054,0.083l-0.057,0.08l-0.061,0.076l-0.065,0.074l-0.068,0.071l-0.072,0.067l-0.075,0.063l-0.078,0.06l-0.081,0.055l-0.083,0.052l-0.086,0.048l-0.088,0.043l-0.09,0.039l-0.092,0.034l-0.094,0.03l-0.095,0.025l-0.096,0.021l-0.096,0.016l-0.098,0.011l-0.098,0.006l-0.098,0.001l-0.098,-0.003l-0.098,-0.008l-0.097,-0.013l-0.097,-0.018l-0.095,-0.022l-0.095,-0.027l-0.093,-0.032l-0.091,-0.036l-0.089,-0.041l-0.088,-0.045l-0.084,-0.049l-0.083,-0.054l-0.08,-0.057l-0.076,-0.061l-0.074,-0.065l-0.07,-0.068l-0.067,-0.072l-0.064,-0.075l-0.059,-0.078l-0.056,-0.081l-0.052,-0.083l-0.047,-0.086l-0.044,-0.088l-0.039,-0.09l-0.034,-0.092l-0.03,-0.094l-3.6,-12.3l-0.025,-0.095l-0.021,-0.096l-0.016,-0.096l-0.011,-0.098l-0.006,-0.098l-0.001,-0.098l0.003,-0.098l0.008,-0.098l0.013,-0.097l0.018,-0.097l0.022,-0.095l0.027,-0.095l0.032,-0.093l0.036,-0.091l0.041,-0.089l0.045,-0.088l0.049,-0.084l0.054,-0.083l0.057,-0.08l0.061,-0.076l0.065,-0.074l0.068,-0.07l0.072,-0.067l0.075,-0.064l0.078,-0.059l0.081,-0.056l0.083,-0.052l0.086,-0.047l0.088,-0.044l0.09,-0.039l0.092,-0.034l0.094,-0.03l0.095,-0.025l0.096,-0.021l0.096,-0.016l0.098,-0.011l0.098,-0.006l0.098,-0.001l0.098,0.003Z" style="fill:#fff;"/><path d="M174.299,46.16l0.096,0.005l0.096,0.01l0.096,0.015l0.095,0.02l0.093,0.024l0.092,0.028l0.091,0.033l0.09,0.037l0.087,0.042l0.085,0.046l0.083,0.05l0.08,0.053l0.078,0.058l0.075,0.061l0.071,0.065l0.069,0.068l0.065,0.071l0.062,0.075l0.058,0.077l0.054,0.08l0.05,0.083l0.046,0.085l0.042,0.087l0.038,0.089l0.033,0.09l0.029,0.093l3.4,11.8l0.025,0.093l0.02,0.095l0.015,0.095l0.011,0.096l0.006,0.097l0.001,0.096l-0.003,0.097l-0.008,0.096l-0.012,0.096l-0.017,0.095l-0.022,0.094l-0.027,0.093l-0.03,0.092l-0.035,0.09l-0.04,0.088l-0.043,0.087l-0.048,0.084l-0.052,0.081l-0.056,0.079l-0.059,0.076l-0.063,0.074l-0.067,0.07l-0.069,0.067l-0.073,0.063l-0.076,0.06l-0.079,0.056l-0.081,0.052l-0.084,0.048l-0.086,0.045l-0.088,0.039l-0.09,0.036l-0.091,0.031l-0.093,0.027l-0.094,0.022l-0.095,0.018l-0.096,0.013l-0.096,0.008l-0.097,0.004l-0.097,-0.001l-0.096,-0.005l-0.096,-0.011l-0.096,-0.014l-0.095,-0.02l-0.093,-0.024l-0.092,-0.028l-0.091,-0.033l-0.09,-0.038l-0.087,-0.041l-0.085,-0.046l-0.083,-0.05l-0.08,-0.053l-0.078,-0.058l-0.075,-0.061l-0.071,-0.065l-0.069,-0.068l-0.065,-0.072l-0.062,-0.074l-0.058,-0.077l-0.054,-0.08l-0.05,-0.083l-0.046,-0.085l-0.042,-0.087l-0.038,-0.089l-0.033,-0.091l-0.029,-0.092l-3.4,-11.8l-0.025,-0.093l-0.02,-0.095l-0.015,-0.095l-0.011,-0.096l-0.006,-0.097l-0.001,-0.097l0.003,-0.096l0.008,-0.096l0.012,-0.096l0.017,-0.095l0.022,-0.095l0.026,-0.093l0.031,-0.091l0.035,-0.09l0.04,-0.089l0.043,-0.086l0.048,-0.084l0.052,-0.081l0.056,-0.079l0.059,-0.077l0.063,-0.073l0.067,-0.07l0.069,-0.067l0.073,-0.063l0.076,-0.06l0.079,-0.056l0.081,-0.052l0.084,-0.049l0.086,-0.044l0.088,-0.04l0.09,-0.035l0.091,-0.031l0.093,-0.027l0.094,-0.022l0.095,-0.018l0.096,-0.013l0.096,-0.009l0.097,-0.003l0.097,0.001Z" style="fill:#fff;"/><path d="M141.723,47.161l0.13,0.01l0.13,0.019l0.128,0.027l0.126,0.035l0.123,0.044l0.121,0.052l0.116,0.059l0.113,0.067l0.108,0.074l0.102,0.081l0.098,0.088l0.091,0.093l0.085,0.1l17.5,21.9l0.078,0.105l0.072,0.11l0.063,0.114l0.057,0.118l0.048,0.121l0.041,0.125l0.032,0.127l0.024,0.128l0.015,0.13l0.007,0.131l-0.002,0.131l-0.01,0.13l-0.019,0.13l-0.027,0.128l-0.035,0.126l-0.044,0.123l-0.052,0.121l-0.059,0.116l-0.067,0.113l-0.074,0.108l-0.081,0.102l-0.088,0.098l-0.093,0.091l-0.1,0.085l-0.105,0.078l-0.11,0.072l-0.114,0.063l-0.118,0.057l-0.121,0.048l-0.125,0.041l-0.127,0.032l-0.128,0.024l-0.13,0.015l-0.131,0.007l-0.131,-0.002l-0.13,-0.01l-0.13,-0.019l-0.128,-0.027l-0.126,-0.035l-0.123,-0.044l-0.121,-0.052l-0.116,-0.059l-0.113,-0.067l-0.108,-0.074l-0.102,-0.081l-0.098,-0.088l-0.091,-0.093l-0.085,-0.1l-17.5,-21.9l-0.078,-0.105l-0.072,-0.11l-0.063,-0.114l-0.057,-0.118l-0.048,-0.121l-0.041,-0.125l-0.032,-0.127l-0.024,-0.128l-0.015,-0.13l-0.007,-0.131l0.002,-0.131l0.01,-0.13l0.019,-0.13l0.027,-0.128l0.035,-0.126l0.044,-0.123l0.052,-0.121l0.059,-0.116l0.067,-0.113l0.074,-0.108l0.081,-0.102l0.088,-0.098l0.093,-0.091l0.1,-0.085l0.105,-0.078l0.11,-0.072l0.114,-0.063l0.118,-0.057l0.121,-0.048l0.125,-0.041l0.127,-0.032l0.128,-0.024l0.13,-0.015l0.131,-0.007l0.131,0.002Z" style="fill:#fff;"/><path d="M232.402,39.966l0.136,0.016l0.134,0.026l0.132,0.034l0.129,0.044l0.127,0.052l0.122,0.061l0.118,0.069l0.113,0.077l0.107,0.084l0.101,0.091l0.095,0.099l0.088,0.104l0.081,0.11l0.073,0.116l0.065,0.12l0.056,0.124l0.048,0.128l0.039,0.131l0.03,0.133l0.021,0.135l0.012,0.136l0.002,0.137l-0.007,0.136l-0.016,0.136l-0.026,0.134l-0.034,0.132l-0.044,0.129l-0.052,0.127l-0.061,0.122l-12.8,23.7l-0.069,0.118l-0.077,0.113l-0.084,0.107l-0.091,0.101l-0.099,0.095l-0.104,0.088l-0.11,0.081l-0.116,0.073l-0.12,0.065l-0.124,0.056l-0.128,0.048l-0.131,0.039l-0.133,0.03l-0.135,0.021l-0.136,0.012l-0.137,0.002l-0.136,-0.007l-0.136,-0.016l-0.134,-0.026l-0.132,-0.034l-0.129,-0.044l-0.127,-0.052l-0.122,-0.061l-0.118,-0.069l-0.113,-0.077l-0.107,-0.084l-0.101,-0.091l-0.095,-0.099l-0.088,-0.104l-0.081,-0.11l-0.073,-0.116l-0.065,-0.12l-0.056,-0.124l-0.048,-0.128l-0.039,-0.131l-0.03,-0.133l-0.021,-0.135l-0.012,-0.136l-0.002,-0.137l0.007,-0.136l0.016,-0.136l0.026,-0.134l0.034,-0.132l0.044,-0.129l0.052,-0.127l0.061,-0.122l12.8,-23.7l0.069,-0.118l0.077,-0.113l0.084,-0.107l0.091,-0.101l0.099,-0.095l0.104,-0.088l0.11,-0.081l0.116,-0.073l0.12,-0.065l0.124,-0.056l0.128,-0.048l0.131,-0.039l0.133,-0.03l0.135,-0.021l0.136,-0.012l0.137,-0.002l0.136,0.007Z" style="fill:#fff;"/><path d="M266.303,52.666l0.152,0.019l0.15,0.03l0.148,0.042l0.143,0.054l0.14,0.063l0.133,0.075l0.128,0.084l0.121,0.094l0.114,0.103l0.105,0.112l0.096,0.119l0.087,0.126l0.077,0.132l0.067,0.138l0.056,0.143l0.045,0.146l0.033,0.15l0.022,0.152l0.011,0.152l-0.002,0.154l-0.013,0.152l-0.025,0.152l-0.036,0.148l-0.048,0.146l-0.058,0.142l-0.069,0.136l-0.08,0.131l-0.089,0.125l-0.099,0.117l-0.107,0.109l-0.115,0.101l-30.4,24.6l-0.123,0.092l-0.129,0.082l-0.136,0.072l-0.14,0.061l-0.145,0.051l-0.148,0.039l-0.151,0.028l-0.152,0.016l-0.153,0.004l-0.153,-0.007l-0.152,-0.019l-0.15,-0.031l-0.148,-0.042l-0.143,-0.053l-0.14,-0.064l-0.133,-0.074l-0.128,-0.085l-0.121,-0.094l-0.114,-0.103l-0.105,-0.111l-0.096,-0.119l-0.087,-0.126l-0.077,-0.133l-0.067,-0.137l-0.056,-0.143l-0.045,-0.147l-0.033,-0.149l-0.022,-0.152l-0.011,-0.153l0.002,-0.153l0.013,-0.152l0.025,-0.152l0.036,-0.148l0.048,-0.146l0.058,-0.142l0.069,-0.136l0.08,-0.131l0.089,-0.125l0.099,-0.117l0.107,-0.109l0.115,-0.101l30.4,-24.6l0.123,-0.092l0.129,-0.082l0.136,-0.072l0.14,-0.061l0.145,-0.051l0.148,-0.039l0.151,-0.028l0.152,-0.016l0.153,-0.004l0.153,0.007Z" style="fill:#fff;"/></g><path d="M208.232,171.858l47.1,30.1" style="fill:none;stroke:#7b16ff;stroke-width:2px;"/><path d="M268.832,131.658l28.5,29.2" style="fill:none;stroke:#7b16ff;stroke-width:2px;"/><path d="M241.732,103.358c3.2,15 -0.7,30.1 -9.8,41.5" style="fill:none;stroke:#7b16ff;stroke-width:2px;"/><path d="M166.832,259.958c-17.2,20.6 -33.3,12.8 -52.1,7c-12.8,-3.9 -25.7,-2.7 -21,3.6c7.7,10.3 44.1,36 54.9,38.2c2.7,0.6 17.3,-18.1 29.1,-33.4c-2.4,-8.2 -5.2,-14.9 -7.4,-19.7l-3.5,4.3Z" style="fill:#0f015e;fill-rule:nonzero;"/><path d="M178.232,274.658l42.7,-52.3l-14.6,-10.8l-36,44.1c2.2,4.8 4.9,11.5 7.4,19.7c0.1,-0.2 0.3,-0.5 0.5,-0.7l0,0Z" style="fill:#acc7ff;fill-rule:nonzero;"/><path d="M173.132,397.158c-10,8.9 -16.1,20.2 -8.3,19.6c6.8,-0.5 22.8,-8 36.4,-12c11.9,-3.5 21.6,-3.4 25.2,-7.1c1.7,-1.8 2.1,-26 4.7,-46.1c-6.5,-3.9 -13,-7.1 -17.9,-9.4c-9,33.3 -22.3,39.3 -40.1,55Z" style="fill:#0f015e;fill-rule:nonzero;"/><path d="M232.332,341.158l15,-92.5l-18.2,-3.8l-15.7,96.7c-0.1,0.2 -0.1,0.4 -0.2,0.6c4.9,2.2 11.4,5.5 17.9,9.4c0.4,-2.7 0.8,-5.4 1.2,-7.9c0.1,-0.8 0.1,-1.7 0,-2.5Z" style="fill:#acc7ff;fill-rule:nonzero;"/><path d="M325.232,278.058c-5.1,1.5 -10.7,3.1 -16.5,4.5c-4.8,1.2 -8.7,0.3 -12.2,-8.9l-14.1,-36.9l-17,6l17,43.6c8.9,22.9 13,21.4 26,16.7l12.9,-4.7c1.6,-0.6 3.1,-1.1 4.6,-1.6c-0.6,-3.8 -1.5,-11.6 -0.7,-18.7Z" style="fill:#acc7ff;fill-rule:nonzero;"/><path d="M383.132,320.458c-1.4,-12.8 -16.5,-44.3 -24.7,-51.6c-1.6,-1.5 -14.7,3.7 -33.2,9.2c-0.8,7.1 0.1,14.9 0.7,18.7c20.8,-6.9 23.4,-1.8 39,13.8c9.5,9.5 19,17.7 18.2,9.9Z" style="fill:#0f015e;fill-rule:nonzero;"/><path d="M154.371,111.204c1.418,-21.478 20.007,-37.763 41.484,-36.344c21.478,1.418 37.763,20.007 36.344,41.484c-1.418,21.477 -20.007,37.763 -41.484,36.344c-21.477,-1.418 -37.763,-20.007 -36.344,-41.484Z" style="fill:#acc7ff;"/><path d="M197.332,111.258l7.4,-11.8c0.2,-0.4 0.2,-0.9 -0.2,-1.2c-3.3,-2.4 -7.3,-3.7 -11.8,-3.6c-9.1,0.2 -16.8,7 -18.4,15.9c-2.1,12.3 7.8,23.3 20.3,22.4c8,-0.5 14.9,-6.2 17.1,-13.9c0.5,-1.7 0.7,-3.4 0.7,-5.1c0,-0.5 -0.4,-0.8 -0.8,-0.9l-14.1,-1.2c-0.2,-0.1 -0.3,-0.4 -0.2,-0.6Z" style="fill:#5f45fc;fill-rule:nonzero;"/></g><defs><linearGradient id="_Linear1" x1="0" y1="0" x2="1" y2="0" gradientUnits="userSpaceOnUse" gradientTransform="matrix(-147.52,101.102,-101.102,-147.52,414.633,396.381)"><stop offset="0" style="stop-color:#0f015e;stop-opacity:1"/><stop offset="1" style="stop-color:#5f45fc;stop-opacity:1"/></linearGradient><linearGradient id="_Linear2" x1="0" y1="0" x2="1" y2="0" gradientUnits="userSpaceOnUse" gradientTransform="matrix(-147.52,101.102,-101.102,-147.52,375.642,339.489)"><stop offset="0" style="stop-color:#0f015e;stop-opacity:1"/><stop offset="1" style="stop-color:#5f45fc;stop-opacity:1"/></linearGradient><linearGradient id="_Linear3" x1="0" y1="0" x2="1" y2="0" gradientUnits="userSpaceOnUse" gradientTransform="matrix(-147.52,101.102,-101.102,-147.52,398.998,373.567)"><stop offset="0" style="stop-color:#0f015e;stop-opacity:1"/><stop offset="1" style="stop-color:#5f45fc;stop-opacity:1"/></linearGradient></defs></svg>