<?xml version="1.0" encoding="utf-8"?>
<!-- Generator: Adobe Illustrator 20.0.0, SVG Export Plug-In . SVG Version: 6.00 Build 0)  -->
<svg version="1.1" xmlns="http://www.w3.org/2000/svg" xmlns:xlink="http://www.w3.org/1999/xlink" x="0px" y="0px"
	 viewBox="0 0 1522.1 2168.1" style="enable-background:new 0 0 1522.1 2168.1;" xml:space="preserve">
<style type="text/css">
	.st0{fill:#747E8D;}
	.st1{fill:#ACC7FF;}
	.st2{fill:#5F45FC;}
	.st3{fill:#2B01B3;}
	.st4{fill:#1CD2F2;}
	.st5{fill:none;stroke:#F6F7F8;stroke-width:2;stroke-linecap:round;stroke-miterlimit:10;}
	.st6{fill:#B2B9C6;}
	.st7{fill:#171A21;}
	.st8{fill:none;stroke:#333333;stroke-width:4;stroke-linecap:round;stroke-miterlimit:10;}
	.st9{fill:#7A16FF;}
	.st10{fill:none;stroke:#333333;stroke-width:5;stroke-linecap:round;stroke-miterlimit:10;}
	.st11{fill:#333333;}
	.st12{fill:#4D4D4D;}
	.st13{fill:#C5D3E7;}
	.st14{fill:#474A55;}
	.st15{fill:none;stroke:#333333;stroke-width:3.5;stroke-linecap:round;stroke-miterlimit:10;}
	.st16{fill:#FFFFFF;}
	.st17{fill:none;stroke:#FFFFFF;stroke-width:4;stroke-miterlimit:10;}
	.st18{fill:none;stroke:#FFFFFF;stroke-width:2;stroke-linecap:round;stroke-miterlimit:10;}
	.st19{fill:none;stroke:#FFFFFF;stroke-width:7;stroke-miterlimit:10;}
	.st20{fill:none;stroke:#B3B3B3;stroke-width:2;stroke-linecap:round;stroke-miterlimit:10;}
	.st21{fill:none;stroke:#2B01B3;stroke-width:3;stroke-linecap:round;stroke-miterlimit:10;}
	.st22{fill:none;stroke:#7415FC;stroke-width:2;stroke-linecap:round;stroke-miterlimit:10;}
	.st23{fill:none;stroke:#333333;stroke-width:6;stroke-linecap:round;stroke-miterlimit:10;}
	.st24{fill:none;stroke:#1CD2F2;stroke-width:4;stroke-linecap:round;stroke-miterlimit:10;}
	.st25{fill:none;stroke:#7415FC;stroke-width:4;stroke-linecap:round;stroke-miterlimit:10;}
	.st26{fill:none;stroke:#F6F7F8;stroke-width:3;stroke-linecap:round;stroke-miterlimit:10;}
	.st27{fill:none;}
	.st28{fill:none;stroke:#1CD2F2;stroke-miterlimit:10;}
</style>
<g id="background">
</g>
<g id="Layer_1">
	<g>
		<circle class="st0" cx="739.1" cy="156.8" r="115.9"/>
		<path class="st1" d="M1075.5,1589.7c-12.9-1.7-23.3-3.3-29.9-15c-8.8-15.6-23-25.3-41.3-24.4c-8.3,0.4-16.5,2.6-24.5,4.8
			c-7.5,2-15,4.1-22.5,6.1c-18.1,4.9-33-17.9-48.3-26.2c-18.1-9.8-38.3-14.3-58.9-13.7c-32.2,0.9-60.9,15.6-75.4,45.3
			c-7.6,15.5-13.6,32.6-13,49.9c0.6,19.7,12.6,39.8,10.5,46.1c-1.1,3.4-4.6,5.5-7.9,7.1c-28.9,13.8-37.7,36.8-36.4,54.3
			c2.3,30.1,43.1,38.5,52.3,8.6c1.1-3.5,1.4-7.2,1.8-10.8c0-0.2,0.2-1.2,0.3-1.9c0.2-0.7,0.5-2,0.6-2.2c0-0.2,0.1-0.3,0.1-0.4
			c0.5-1,1.1-2,1.7-3c0.1-0.1,0.2-0.3,0.2-0.4c0.8-0.9,1.6-1.8,2.4-2.6c0.7-0.7,1.4-1.3,2-1.9c0.3-0.3,0.5-0.4,0.6-0.6
			c0.1-0.1,0.3-0.2,0.5-0.3c2-1.4,4-2.7,6.1-4c4.2-2.5,8.5-4.6,12.9-6.7c2.7-1.3,4.7-3.5,6.1-6.1c11.6,6.3,24.9,9.8,39,9.8
			c45.3,0,82.1-36.7,82.1-82.1c0-2.8-0.1-5.6-0.4-8.4c2.4-0.4,4.8-0.7,7.1-1c0.9,1.3,2.1,2.5,3.7,3.4c5.3,3.1,13.5,1.5,16.4-4.3
			c0.2-0.5,0.5-0.9,0.7-1.3c3.4-0.3,6.9-0.5,10.3-0.7c12.4-0.7,24.9-1,37.3-0.6c5.6,0.2,12.2,0.3,17.9,2.1c3.1,2,6.3,3.8,9.7,5.5
			c0.7,0.3,1.4,0.6,2.1,0.8c2,1.1,4.1,2,6.5,2.6c5.9,1.4,11,0,16.8-0.6c11.6-1.1,22.5,6.7,25.5,17.8c2.9,10.7,16.2,10.9,21.9,2.9
			C1124.1,1620.6,1115.8,1595,1075.5,1589.7z"/>
		<g>
			<path class="st2" d="M1026.5,1768.9c0.1,0.2,0.3,0.4,0.4,0.6C1026.9,1769.3,1026.7,1769.1,1026.5,1768.9
				C1026.5,1768.8,1026.5,1768.9,1026.5,1768.9z"/>
			<path class="st2" d="M1078.2,1741.3c-0.1-1.2-0.5-2.2-0.9-3.2C1077.6,1739.2,1077.9,1740.3,1078.2,1741.3z"/>
			<path class="st2" d="M1062.6,1988.5c-7.5-19.4-4.6-38.3-7.2-58.4c-0.6-4.6-1.6-9.3-4.3-13.1c-4.2-6.1-10.5-6.8-17.1-5
				c-32.3,8.8-67.1,5.7-92.5-17.9c-13.3-12.3-23.9-28.3-22.7-47.1c1-16.8,9.8-32.6,20.7-44.8c6.8-7.7,15.9-13,22.5-20.8
				c12.8-15.1,15-35.6,18.2-54.4c2.7-15.9,12.9-45.2,33.5-43.1c14,1.4,19.6,15.8,20.4,28.1c0.6,9.6-0.7,18.6-3.1,27.9
				c-2.6,10.5-12.5,27.6,1.6,34.3c4.6,2.2,10.2,1.7,14.5-1c17.5-10.8,4.4-33.8,1.5-48.5c-2.5-12.6-2.7-25.7,0.9-38.2
				c4.1-14.4,15-27.3,28.8-33.3c14.6-6.3,31.5-4,43.7,6.3c12.7,10.8,19.2,26.6,19.9,43c0.8,17.7-2.7,35.7-8.3,52.5
				c-5.6,16.5-14.5,31.7-20.2,48.2c-4.1,12-9.4,29.4,5.2,36.6c5.4,2.7,12,3,17.6,0.8c9.1-3.4,13.2-11.8,15-20.8
				c6.7-32.8,38-58.7,72.3-52.2c7.4,1.4,14.2,4.8,20.2,9.3c-35.9-107.1-137-184.2-256.1-184.2c-97.8,0-183.5,52-230.9,129.9
				c2.1,0.9,4.1,2.2,6,4.2c13.3,14.1,6,38.4,5.7,55.3c-0.1,4.7,0.4,9.8,3.4,13.4c11.8,13.7,31.6-3,40.1-11.7
				c10.7-11.1,20.7-23.3,35.1-29.8c13.1-5.9,28.5-6.6,40.8,1.8c28.9,19.7,6.3,57.2-11.6,76.3c-0.9,0.9-1.7,1.8-2.6,2.7
				c-18.9,18.7-42.3,29.5-67.1,37.6c-26.5,8.6-54.7,13-82.5,14.5c-1.9,0.1-3.8-0.2-5.5-0.9c11.7,138.3,127.7,246.9,269.1,246.9
				c80.5,0,152.8-35.2,202.3-91.1c-8.9,3.3-18.2,5.5-27.7,6.7C1119.4,2054,1078.1,2028.6,1062.6,1988.5z"/>
			<path class="st3" d="M806.6,1872.3c24.7-8.1,48.2-18.9,67.1-37.6c0.9-0.9,1.8-1.8,2.6-2.7c17.9-19.1,40.5-56.6,11.6-76.3
				c-12.3-8.4-27.7-7.7-40.8-1.8c-14.4,6.5-24.3,18.7-35.1,29.8c-8.5,8.8-28.3,25.4-40.1,11.7c-3.1-3.6-3.5-8.7-3.4-13.4
				c0.3-17,7.6-41.3-5.7-55.3c-1.9-2-3.9-3.3-6-4.2c-24.9,40.9-39.2,88.9-39.2,140.2c0,7.8,0.3,15.5,1,23.1c1.7,0.7,3.5,1,5.5,0.9
				C752,1885.3,780.2,1880.9,806.6,1872.3z"/>
			<path class="st3" d="M1243.8,1776.9c-6-4.5-12.8-7.9-20.2-9.3c-34.3-6.5-65.6,19.4-72.3,52.2c-1.8,9-5.9,17.4-15,20.8
				c-5.6,2.1-12.2,1.8-17.6-0.8c-14.5-7.1-9.2-24.5-5.2-36.6c5.6-16.5,14.6-31.7,20.2-48.2c5.7-16.8,9.2-34.7,8.3-52.5
				c-0.8-16.5-7.2-32.2-19.9-43c-12.2-10.3-29.1-12.6-43.7-6.3c-13.8,6-24.7,18.9-28.8,33.3c-3.6,12.5-3.3,25.6-0.9,38.2
				c2.9,14.7,16,37.6-1.5,48.5c-4.3,2.7-10,3.2-14.5,1c-14.1-6.7-4.3-23.8-1.6-34.3c2.3-9.3,3.6-18.3,3.1-27.9
				c-0.7-12.2-6.3-26.6-20.4-28.1c-20.6-2.1-30.8,27.1-33.5,43.1c-3.1,18.7-5.4,39.3-18.2,54.4c-6.6,7.8-15.7,13.1-22.5,20.8
				c-10.9,12.2-19.6,28-20.7,44.8c-1.2,18.8,9.4,34.7,22.7,47.1c25.4,23.6,60.2,26.7,92.5,17.9c6.6-1.8,12.9-1.1,17.1,5
				c2.6,3.8,3.7,8.5,4.3,13.1c2.6,20-0.3,39,7.2,58.4c15.4,40.1,56.7,65.5,99.6,60c9.5-1.2,18.8-3.4,27.7-6.7
				c42.2-47.7,67.8-110.3,67.8-179C1257.8,1832.8,1252.9,1803.9,1243.8,1776.9z M1026.5,1768.9
				C1026.5,1768.9,1026.5,1768.8,1026.5,1768.9c0.2,0.3,0.4,0.5,0.4,0.6C1026.8,1769.3,1026.6,1769.1,1026.5,1768.9z M1077.2,1738.1
				c0.5,1,0.8,2,0.9,3.2C1077.9,1740.3,1077.6,1739.2,1077.2,1738.1z"/>
		</g>
		<g>
			<path class="st1" d="M1092.3,123.3c0.7-0.3,0.4-0.5-2.3,0.3c0.1,0,0.3,0,0.4,0C1091.1,123.5,1091.7,123.4,1092.3,123.3z"/>
			<path class="st1" d="M1497.4,224.5c0-85.1-60.8-162.3-143.5-181.7c-79.3-18.6-171.7-4.7-229.2,57.7c-5.2,5.6-9.4,11.8-15.7,16.3
				c-11.9,8.5-28.3,9.4-41.3,2.9c-15.7-7.8-26.7-21.3-44.1-25.8c-41-10.7-77.2,12.9-87.7,53c-8.7,33,6.9,65.9,35.1,83.9
				c29.4,18.7,64,18,92.9-0.6c5.5-3.6,11.1-7.8,17.1-10.3c19.1-7.9,35.5,3.7,38.6,22.4c11.7,69.4,57.8,130.2,123.2,156.7
				c21.7,8.8,44.9,13.4,68.3,13.5c0.4,0,0.8,0,1.2,0c102.2,0,185.1-82.9,185.1-185.1c0-0.4,0-0.9,0-1.3
				C1497.4,225.6,1497.4,225.1,1497.4,224.5z M1071.5,121.7c-0.2,0.2-1-0.2-2-0.8C1070.3,121.2,1071.6,121.6,1071.5,121.7z"/>
		</g>
		<circle class="st1" cx="922.5" cy="1496" r="22.9"/>
		<path class="st0" d="M891.6,215.2c-1.5,0.7-10,12.9-20.1,28c-6.5,9.7-13.5,20.6-19.7,30.5c-9.5,15.2-16.9,28.1-17,30.8
			c0,1.3,13.7,10.5,32.6,22.5c9.1-15.6,43.1-72,56.9-94.9C906.2,221.7,892.8,214.6,891.6,215.2z"/>
		<path class="st4" d="M927,233.6c-0.9-0.5-1.8-1.1-2.8-1.6c-13.9,22.9-47.9,79.3-56.9,94.9c0.7,0.5,1.4,0.9,2.2,1.4
			c10.6,6.7,22.6,14.2,34.8,21.6c11-18.7,45.4-75.8,57.5-95.7C949.7,246.9,937.6,239.8,927,233.6z"/>
		<path class="st0" d="M965.2,256.3c-1.1-0.7-2.3-1.4-3.4-2.1c-12.1,20-46.5,77-57.5,95.7c1,0.6,2,1.2,2.9,1.8
			c11.4,6.9,22.6,13.7,32.7,19.7c13.1-21.9,44.3-72.5,58-94.8C987.9,270.2,976.6,263.2,965.2,256.3z"/>
		<path class="st4" d="M1032.4,301.9c-0.5-2.3-12.6-11-29.6-22.1c-1.6-1-3.2-2.1-4.9-3.1c-13.7,22.3-44.8,72.9-58,94.8
			c1.8,1.1,3.6,2.1,5.3,3.1c17.7,10.4,30.5,17.7,31.3,17.4c1-0.3,10.3-13.4,21.1-29.6c6.5-9.8,13.6-20.7,19.6-30.6
			C1026.2,317,1033,304.7,1032.4,301.9z"/>
		<line class="st5" x1="841.1" y1="273.4" x2="974.5" y2="353.6"/>
		<line class="st5" x1="929.8" y1="278.2" x2="963.8" y2="298.6"/>
		<line class="st5" x1="871.5" y1="243.1" x2="917.9" y2="271.1"/>
		<path class="st0" d="M1330.1,482.8c0,1.6-6.9,14.8-15.8,30.6c-5.7,10.2-12.2,21.4-18.2,31.5c-9.2,15.4-17.3,27.9-19.7,29.2
			c-1.1,0.6-15.6-7.4-34.9-18.8c9.7-15.1,44.5-71.1,58.6-93.9C1317.7,472.8,1330.1,481.5,1330.1,482.8z"/>
		<path class="st4" d="M1297.6,459.6c0.9,0.6,1.8,1.2,2.7,1.7c-14.1,22.8-48.9,78.7-58.6,93.9c-0.7-0.4-1.5-0.9-2.2-1.3
			c-10.8-6.4-22.9-13.7-35-21.1c11.7-18.3,46.8-74.9,59.1-94.7C1275.5,445.5,1287.3,453,1297.6,459.6z"/>
		<path class="st0" d="M1260.1,436c1.1,0.7,2.3,1.4,3.4,2.1c-12.3,19.8-47.4,76.4-59.1,94.7c-1-0.6-2-1.2-2.9-1.8
			c-11.3-7-22.5-13.9-32.5-20.2c13.5-21.7,44.4-72.4,58-94.8C1237.3,422.1,1248.7,428.9,1260.1,436z"/>
		<path class="st4" d="M1188.9,396.8c2.3-0.6,15.6,6.2,33.1,16.4c1.6,0.9,3.3,1.9,5,2.9c-13.6,22.4-44.5,73.1-58,94.8
			c-1.8-1.1-3.5-2.2-5.2-3.3c-17.3-11-29.6-19.1-29.8-20c-0.2-1.1,7.3-15.3,16.8-32.2c5.8-10.3,12.3-21.5,18.3-31.4
			C1178.2,409.3,1186.1,397.6,1188.9,396.8z"/>
		<line class="st5" x1="1273.3" y1="536.8" x2="1206.5" y2="495.2"/>
		<line class="st5" x1="1301.2" y1="554.2" x2="1282.9" y2="542.8"/>
		<line class="st5" x1="1256.6" y1="477.4" x2="1196.6" y2="440"/>
		<line class="st5" x1="1314.4" y1="513.4" x2="1268.4" y2="484.7"/>
		<path class="st6" d="M608,1477.1l55.9,269.5c0.5,2.3,3.7,2.3,4.3,0.1l67.3-287.7l-81.8-17.7l-36.9,24.4L608,1477.1z"/>
		<path class="st2" d="M750.3,1453.9c-1.2-2.1-2.8-3.7-4.6-4.9c-0.2-0.2-0.4-0.4-0.8-0.6c0,0-0.1,0-0.1-0.1c-0.6-0.4-1.2-0.7-1.9-1
			c-4.1-2.5-2-4.1,0-10.8l0,0c0.8-2.5,1.5-5.1,2.1-7.8c9.1-42.1-17.6-83.6-59.7-92.7c-42.1-9.1-83.6,17.6-92.7,59.7
			c-3.2,14.9-1.9,29.7,2.9,43l0,0c0.4,1.5,1,2.7,1.5,3.8c0,0,0,0.1,0,0.1l0,0c1.4,3,1.9,4.5-4.2,8.4l0,0c-5.2,2.9-10.2,7.4-10,13.6
			c0.2,7.6,8.1,11.3,14.7,10c2.3-0.4,4.2-1.3,6.3-2.3c0.1-0.1,0.2-0.1,0.4-0.2c-1.4,0.7,0.1,6.7,0.5,7.9c2.4,7.3,10.9,8.5,16.6,4.2
			c5-3.8,5.8-10,9.7-14.5c2.3-2.7,4.5-2.8,5.3,0.9c1.5,6.7,4.3,12.7,9.8,16.9c12.1,9.2,28,3.9,32.7-10.3c0.3-0.4,0.6-0.8,0.9-1.4
			c-0.5,1.2,1,3.1,1.4,4.2c0.8,2.1,1.7,4.1,2.9,6c4.6,6.8,13.6,7.4,19,1.1c1.9-2.2,3-4.9,3.7-7.7c0.6-2.4,0.7-5.2,2.4-7.1
			c2.9-3.4,8.1,2.4,10.7,3.8c10.5,5.6,26.8,6.3,31.4-7.1c0.2-0.5,0.3-1,0.5-1.5C752.8,1463.1,752.7,1457.8,750.3,1453.9z"/>
		<path class="st1" d="M692.9,1303.8c-5.1,6.9-8.9,15.1-15.4,20.8c-7.9,6.9-20.6,9.4-29.2,2.1c-9.6-8.2-6.8-20.7,0.6-29.4
			c4.7-5.5,10.7-9.8,15.7-15c1.2-1.2,2.4-2.9,1.8-4.5c-0.8-2.1-3.8-2.1-6-1.3c-5.1,2-9,6.2-13.6,9.3c-4.5,3.1-10.7,5.2-15.5,2.5
			c-4.2-2.4-6-7.9-5.2-12.7c1.3-7.8,7.5-12.4,11.4-18.8c0.8-1.4,1.4-2.9,1.8-4.5c-19.9,6.7-34.5,24-38,44.5c4,0.1,8.1,1.2,11.8,3.1
			c7.6,4,15.3,10.9,17.6,19.5c2.5,9.7-1.3,19.8,1.5,29.6c0.4,1.5,1.1,3,1.9,4.4c8.7,1,18.6,0.1,29.1-1.2
			c31.3-3.8,56.3-9.5,51.1-52.7c-0.3-2.6-0.8-5.2-1.5-7.7C704.9,1291.5,697.7,1297.3,692.9,1303.8z"/>
		<path class="st7" d="M709.2,1282c-10.2-21.6-33.5-35.3-58.5-32.2c-0.4,0.1-0.9,0.1-1.3,0.2c-3.5,0.5-6.8,1.3-10.1,2.4
			c-0.3,1.6-0.9,3.1-1.8,4.5c-3.9,6.4-10.1,11-11.4,18.8c-0.8,4.8,0.9,10.3,5.2,12.7c4.8,2.7,10.9,0.6,15.5-2.5
			c4.5-3.1,8.5-7.3,13.6-9.3c2.1-0.8,5.2-0.9,6,1.3c0.6,1.6-0.6,3.3-1.8,4.5c-5,5.2-11,9.5-15.7,15c-7.3,8.6-10.2,21.2-0.6,29.4
			c8.5,7.3,21.3,4.8,29.2-2.1c6.5-5.7,10.2-13.8,15.4-20.8c4.8-6.5,12.1-12.3,20-12C711.9,1288.4,710.7,1285.1,709.2,1282z"/>
		<path class="st7" d="M632.3,1349c-2.8-9.8,1-19.9-1.5-29.6c-2.2-8.6-9.9-15.5-17.6-19.5c-3.8-2-7.8-3-11.8-3.1
			c-0.6,3.3-0.8,6.7-0.8,10.1c0,2.1,0.2,4.3,0.4,6.4c2.6,21.6,10.4,32.2,21.3,37c3.6,1.6,7.6,2.5,11.8,3
			C633.4,1351.9,632.7,1350.5,632.3,1349z"/>
		<path class="st7" d="M761,1297.3L761,1297.3l-2.6-0.5c-1.6-0.3-2.6-1.8-2.4-3.3l0.4-2.6c0.3-1.6-0.8-3.2-2.4-3.5l0,0
			c-1.6-0.3-3.2,0.8-3.5,2.4l-0.4,2.6c-0.3,1.6-1.8,2.6-3.3,2.4l-2.4-0.4c-1.6-0.3-3.2,0.7-3.6,2.2c-0.4,1.7,0.7,3.3,2.4,3.6
			c0,0,0,0,0,0l2.6,0.4c1.6,0.3,2.6,1.8,2.4,3.3l-1.4,8.1c-0.3,1.6,0.8,3.2,2.4,3.5l0,0c1.6,0.3,3.2-0.8,3.5-2.4l1.4-8.1
			c0.3-1.6,1.8-2.6,3.3-2.4l2.6,0.4c2,0.3,3.8-1.3,3.5-3.5C763.2,1298.5,762.2,1297.6,761,1297.3z"/>
		<g>
			<path class="st8" d="M556.2,1445.1c-21.2,5.9-34.5,7.9-35.9,4.6c-1.9-4.7,21-18.9,57.7-36.9"/>
			<path class="st8" d="M765.7,1337.6c27.6-8.4,45.4-11.7,47-7.8c3.1,7.6-59.7,40.7-140.5,73.8c-35.7,14.7-68.9,26.9-95.1,35.3"/>
			<path class="st8" d="M780,1398.6c19.3,6.4,30.3,12.1,29.6,16c-1.3,7.4-45.3,6.2-106.2-2"/>
			<path class="st8" d="M634.9,1401.8c-72.9-14.7-126.6-31.5-125.1-39.9c1.1-6.2,32.1-6.4,77.8-1.5"/>
		</g>
		
			<ellipse transform="matrix(0.1206 -0.9927 0.9927 0.1206 -560.2137 1903.7842)" class="st7" cx="794.5" cy="1268.1" rx="4.9" ry="4.9"/>
		<path class="st7" d="M796.6,1493L796.6,1493l-2.6-0.5c-1.6-0.3-2.6-1.8-2.4-3.3l0.4-2.6c0.3-1.6-0.8-3.2-2.4-3.5l0,0
			c-1.6-0.3-3.2,0.8-3.5,2.4l-0.4,2.6c-0.3,1.6-1.8,2.6-3.3,2.4l-2.4-0.4c-1.6-0.3-3.2,0.7-3.6,2.2c-0.4,1.7,0.7,3.3,2.4,3.6
			c0,0,0,0,0,0l2.6,0.4c1.6,0.3,2.6,1.8,2.4,3.3l-0.4,2.6c-0.3,1.6,0.8,3.2,2.4,3.5l0,0c1.6,0.3,3.2-0.8,3.5-2.4l0.4-2.6
			c0.3-1.6,1.8-2.6,3.3-2.4l2.6,0.4c2,0.3,3.8-1.3,3.5-3.5C798.8,1494.2,797.8,1493.2,796.6,1493z"/>
		<circle class="st1" cx="1363" cy="546.1" r="34.2"/>
		<path class="st0" d="M811.3,186.3c-7,6.6-17.6,3.2-21.4-4.8h-78.6c-4.1,29-2.2,59.1-2.8,88.2c9.3,2.4,19.1,3.7,29.2,3.7
			c11.3,0,22.3-1.6,32.6-4.6c2.1-13.7-0.1-27.5-0.5-41.2c-0.3-9.9-1.5-28.6,11.9-30.6c9-1.3,12,8.6,12.4,15.4
			c0.7,12,0.3,23.4,3.1,35.3c0.5,2.3,1.2,5.2,3.2,6.9c0.2,0.1,0.4,0.3,0.5,0.4c25.6-16.5,44.4-42.7,51.2-73.4h-37.5
			C813.9,183.4,812.7,185,811.3,186.3z M811.8,223.7c-5.3,0-9.6-4.3-9.6-9.6c0-5.3,4.3-9.6,9.6-9.6c5.3,0,9.6,4.3,9.6,9.6
			C821.4,219.4,817.1,223.7,811.8,223.7z"/>
		<path class="st0" d="M680.1,201.7c-3.3,0-1.7,7.3-2.1,13c-0.3,4.2-1.5,6.7-3.5,8.3c-5.1,4-12.4,2.8-16.1-2.3
			c-1.6-2.1-2.7-4.6-3.2-7.2c-2.5-11.1-3.3-21.7-3.3-32h-28.4c7.8,35.6,31.8,65.2,63.9,80.5C686.3,237.2,686.6,201.7,680.1,201.7z"
			/>
		<path class="st7" d="M711.6,184.8c1-15.8-0.5-31.4-11.8-43c-9.4-9.5-24.4-7.5-34.5-0.3c-14,9.9-13.5,25.4-13.4,40.8
			c0,10.1,0.8,20.4,3.3,31.3c0.6,2.6,1.7,5.1,3.2,7.2c3.7,5,11,6.3,16.1,2.3c2-1.6,3.2-4.1,3.5-8.3c0.5-5.7-1.2-13,2.1-13
			c6.5,0,6.2,35.5,7.3,60.3c6.7,3.2,13.8,5.8,21.2,7.7C708.9,251.3,711,194.9,711.6,184.8z"/>
		<path class="st7" d="M797.3,247.7c-2.8-11.8-2.4-23.3-3.1-35.3c-0.4-6.9-3.4-16.8-12.4-15.4c-13.4,2-12.2,20.7-11.9,30.6
			c0.4,13.7,2.6,27.6,0.5,41.2c10.9-3.2,21.2-7.9,30.6-13.9c-0.2-0.1-0.4-0.2-0.5-0.4C798.6,253,797.9,250,797.3,247.7z"/>
		<path class="st7" d="M802.3,164.1c-7.8,0-14.5,6.7-14.5,14.5c0,7.9,6.6,14.5,14.5,14.5c7.8,0,14.5-6.7,14.5-14.5
			C816.8,170.7,810.2,164.1,802.3,164.1z"/>
		<circle class="st7" cx="811.8" cy="214" r="9.6"/>
		<g>
			<path class="st4" d="M297.9,1619.2c4.2-3.2,6-56.1,2.5-63c-3.8-7.6-133-7.4-137,0c-3.5,6.4-3.1,59.2,2.5,63
				C171.8,1623.3,295,1621.5,297.9,1619.2z"/>
			<path class="st4" d="M233,1621.6c60.6-0.9,83.7-1.3,83.7-3.5c0-2.1-16.4-7.8-14.7-28.3L233,1621.6z"/>
		</g>
		
			<ellipse transform="matrix(0.9194 -0.3933 0.3933 0.9194 -481.3154 224.2725)" class="st9" cx="306.6" cy="1286.7" rx="16.5" ry="16.5"/>
		<path class="st9" d="M429.2,1433.2c-5.8-5.3-15.3-10.5-17.9-14.3c-2.8-4.1-0.3-8.5,1.4-12.7c2.5-6.1,3.2-13,0.1-19
			c-3.8-7.3-12.1-9.8-19.8-8.1c-5.9,1.3-10.3,6.6-16,7.4c-10.6,1.4-15.9-12-15.8-20.3c0.1-14.8,8.6-28.2,14.1-41.5
			c5.6-13.4,9-29,3.8-43.1c-2.9-7.9-9.1-15.5-17.7-17.5c-10-2.3-18.9,3-22,12.7c-4.8,14.9-0.7,30.7-2.6,45.9
			c-0.3,2.3-0.8,4.8-2.5,6.6c-1.1,1.1-2.7,1.5-3.3-0.3c-2.2-6.6-3.8-12.8-12.1-15.1c-9.4-2.6-18.5,2.6-23.5,10.3
			c-4.7,7.1-7.2,16.5-8.2,24.8c-1.1,9,0.6,17.6,4.2,25.9c7.5,16.9,23,28,39.1,36c3.5,1.7,11,6,7.2,16.8c-0.3,0.9-0.6,1.8-0.9,2.6
			c-5.7,14.8-9,31.4-3.1,46.7c6.5,17.1,21.2,31.4,38.7,36.9c31.2,9.6,69.6-14.8,69.6-48.3C441.9,1452.8,437.7,1440.9,429.2,1433.2z"
			/>
		<line class="st10" x1="364.3" y1="1416.3" x2="402.8" y2="1499"/>
		<path class="st11" d="M376.5,1429.6l-1.4,9.8l-8.4-5.2c-2.9-1.8-5.2-4.4-6.7-7.5l-3.9-8.4c-1.9-4.2-0.1-9.1,4-11h0
			c4.2-1.9,9.1-0.1,11,4l3.9,8.4C376.5,1422.7,377,1426.2,376.5,1429.6z"/>
		<line class="st10" x1="367.9" y1="1449.7" x2="387.6" y2="1440.5"/>
		<line class="st10" x1="370.8" y1="1481.9" x2="411.6" y2="1462.9"/>
		<path class="st12" d="M473.1,1452.6c8.6,18.6-19.4,62.2-56.7,79.6c-39.1,18.2-86.1,9.5-94.4-9.3
			C320.6,1519.8,471.8,1449.7,473.1,1452.6z"/>
		<path class="st7" d="M402.9,1557.2c-8-2.7-12.5-17,0-28.2c10-8.9,28.2-8,35.6,0c6.1,6.6,5,16,0,21.5S402.9,1557.2,402.9,1557.2z"
			/>
		<path class="st7" d="M464.9,1661.8c8.8-4.9,16.2-11.9,21.6-20.3C482.5,1640.7,470.7,1642.1,464.9,1661.8z"/>
		<path class="st4" d="M750.9,991c6.8-8,10.3-15.1,12.4-22.8c1.8-5.8,2.8-12,3-18.5c0.6-36.5-28.5-66.6-65-67.2
			c-36.5-0.6-66.6,28.5-67.2,65c-0.3,19.2,3.6,33.1,30,61.2c17.1,18.2,9.5,28.9,9.8,50c0.1,4.6,34.2,7,35,2.7
			c3.8-20.8-2.2-32.6,17.4-47.9c10.5-8.2,18.1-15.2,23.7-21.5C750.3,991.7,750.6,991.4,750.9,991z"/>
		<path class="st12" d="M1028.6,867.8c0,0,31.1-24.2,39-45.6l-26.8-38.8L989,819.2L1028.6,867.8z"/>
		<path class="st12" d="M950.2,754.1c0,0,33.7-20.5,56.5-20.3l26.8,38.8l-51.8,35.8L950.2,754.1z"/>
		<path class="st13" d="M1019.6,835.4l-13.1,9l-86.8,59.9l5.8,8.4c44.5-24.3,59.8-3.2,89.2,12c20.3,10.5,26.5,10.3,45.7-2.3
			c3.8-2.5,8.1-5.5,13.1-9L1019.6,835.4z"/>
		<path class="st13" d="M923.8,696.7c-5,3.5-9.4,6.4-13,9.1c-18.6,13.5-21,19.2-18.4,41.9c3.8,32.9,18.1,54.7-20.4,87.7l5.8,8.4
			l86.8-59.9l13.1-9L923.8,696.7z"/>
		<path class="st0" d="M856.6,925.8c-4.9-0.8-13.1-3.7-17.8-10.4c-4.5-6.6-4.3-15.1-3.5-20c-4.8-0.9-13.6-3.1-18.1-9.5l-7.3,27.1
			c5.3,2.7,10.3,7,14.2,12.6c3.9,5.6,6.1,11.8,6.7,17.7l28,2.7C854.5,939.4,855.6,930.5,856.6,925.8z"/>
		<path class="st7" d="M835.3,895.4c-0.8,4.8-1,13.4,3.5,20c4.6,6.7,12.9,9.6,17.8,10.4c-1,4.7-2,13.6,2.1,20.3l0.4,0l119.6-82.5
			L936.8,803l-119.6,82.5l-0.1,0.5C821.7,892.3,830.5,894.5,835.3,895.4z"/>
		<path class="st7" d="M1023.9,832.4c2.8-2,4.8-4.9,5.4-8.3c1.1-6.2-1.2-16.2-12-31.8c-10.6-15.4-19.2-21.1-25.5-22.4
			c-3.4-0.7-7,0.1-9.9,2.1l-18,12.4l41.8,60.6L1023.9,832.4z"/>
		
			<rect x="954.8" y="787.1" transform="matrix(0.823 -0.5681 0.5681 0.823 -296.1325 697.6715)" class="st2" width="32.9" height="73.7"/>
		<path class="st7" d="M809.8,913.1l-6.7,24.9c-0.4,1.4,0.6,2.7,2,2.8l25.7,2.5c-0.6-5.9-2.9-12.1-6.7-17.7
			C820.1,920,815.1,915.8,809.8,913.1z"/>
		<polygon class="st14" points="923.1,1156 893.4,1110 933.8,1083.9 910.8,1048.3 856.1,1083.6 918,1179.6 972.8,1144.3 963.5,1130 
					"/>
		<polygon class="st14" points="965.6,1013 910.8,1048.3 933.8,1083.9 974.3,1057.9 1003.9,1103.9 963.5,1130 972.8,1144.3 
			1027.5,1109 		"/>
		
			<rect x="944.8" y="1066.5" transform="matrix(0.8404 -0.542 0.542 0.8404 -438.2685 699.8205)" class="st9" width="48.1" height="54.8"/>
		<path class="st9" d="M787.2,1179c6-3.9,12.1-8,18.3-12.6l72.3-49.5l-21.5-33.4c0,0-38.9,29.1-64.7,37.7
			c-20.3,5.5-42.4,2.4-47.8-15.1c-5.6-17.9,3.4-38,0.3-46.3c-3.1-8.4-7.2-8.4-14.6-14.1c-7-5.3-7.6-11.5-12.2-9.7
			c-3.9,1.5-11.1,10.1-3.5,25.1c6.7,13.2,12.7,43-28.1,42c-16-0.4-37.7-17.3-36.5-31.1s19.5-18.4,24.8-32
			c4.1-10.5-1.5-21.7-6.1-22.1s-11.3,9.5-26.7,19.1c-12.8,7.9-22.6,14.8-22.1,26c1.2,22.8,36.6,46,35,49.8
			c-2.1,4.9-24.3-12.9-39.1-36.3c-10.9-17.2-20.7-28.4-24.9-28.8c-4.2-0.4-9.4,11.7-0.1,30.7c14.4,29.4,43.7,48.4,40.5,54
			c-3.2,5.6-24.3-14.5-38.3-31.7c-12.5-15.4-20.2-24.5-24-19.1c-2.3,3.3-2.3,15.2,8.6,29.8c10.9,14.7,43.4,36.3,39.6,39.8
			c-3.8,3.5-27.6-18.9-33.6-19.8c-5.3-0.8-11.6,3.4,0.9,19.3c10.9,13.8,41.4,49.5,90.4,57.8c39.2,6.7,73.6-4.1,113.1-29.5
			c0,0,0,0,0,0L787.2,1179z"/>
		
			<ellipse transform="matrix(0.8404 -0.542 0.542 0.8404 -448.292 656.4217)" class="st1" cx="890.2" cy="1089.2" rx="8.6" ry="8.6"/>
		<path class="st1" d="M871.6,1073.6l78.6-50.7l-5.5-8.5c-14-21.7-42.9-27.9-64.6-13.9l0,0c-21.7,14-27.9,42.9-13.9,64.6
			L871.6,1073.6z"/>
		<path class="st7" d="M888.2,1062.9l45.3-29.2l-4.9-7.6c-8.1-12.5-24.8-16.1-37.3-8h0c-12.5,8.1-16.1,24.8-8,37.3L888.2,1062.9z"/>
		<line class="st15" x1="885.2" y1="1010.4" x2="865.2" y2="979.5"/>
		
			<ellipse transform="matrix(0.8404 -0.542 0.542 0.8404 -392.7776 625.3557)" class="st15" cx="865.2" cy="979.5" rx="10.1" ry="10.1"/>
		
			<ellipse transform="matrix(0.8404 -0.542 0.542 0.8404 -426.5807 645.8574)" class="st16" cx="883.1" cy="1047.1" rx="10.1" ry="10.1"/>
		
			<ellipse transform="matrix(0.8404 -0.542 0.542 0.8404 -415.2792 655.6009)" class="st16" cx="905.3" cy="1032.8" rx="10.1" ry="10.1"/>
		<path class="st17" d="M889.5,1043.4c0,0,1.5-5.8,10.8-7"/>
		<path class="st7" d="M989.3,1140.6c7.3,11.4,7.3,24.4,0,29.1s-19.2-0.6-26.6-12L989.3,1140.6z"/>
		<path class="st4" d="M457.1,1573.1c-14.6,29.9-48.5,30.1-68.4,27.3l0-0.4l-9-1.3c-3.8-0.8-6.1-1.5-6.1-1.6c0,0.2-0.1,0.5-0.1,0.7
			l-4-0.6c-7.4-1-14.2,4.1-15.2,11.5v0c-1,7.4,4.1,14.2,11.5,15.2l9.5,1.3c0.1,0.4,0.2,0.8,0.3,1.2c1.7-0.2,3.6-0.3,5.7-0.3l3.8,0.5
			l0.1-0.5c9.3,0.5,20.1,3.4,25.9,13.4c5.4,9.1,4.7,19.6,3.2,26.6c9.2,3.2,19.2,4.3,29.5,2.8c7.7-1.1,14.8-3.6,21.2-7.2
			c5.9-19.7,17.6-21.1,21.6-20.3c5.8-8.9,9.4-19.4,10-30.4C473.1,1603.9,462,1585.5,457.1,1573.1z"/>
		<path class="st12" d="M495.9,1598.7c-3-20.5-15.8-37.1-32.8-45.9c-11.2-5.8-24.2-8.2-37.5-6.3c-27.1,4-47.5,25.1-51.9,50.7
			c0.5,0.1,62.3,19.3,83.5-24.1c4.9,12.4,16,30.9,39.4,38.1C496.7,1607.1,496.5,1602.9,495.9,1598.7z"/>
		<path class="st18" d="M458.4,1596.3c0-3.3,0-5.2,0-6.8"/>
		<path class="st18" d="M458.3,1622.9c0-0.7,0-1.4,0-2.1"/>
		<path class="st18" d="M441.4,1643.1c7,1.1,15.4,0.9,16.4,0.4c0.2-0.1,0.3-5.2,0.4-14.4"/>
		<circle class="st16" cx="432.2" cy="1606.3" r="22.9"/>
		<circle class="st16" cx="432.4" cy="1606.3" r="22.9"/>
		<circle class="st16" cx="486.5" cy="1611.4" r="22.9"/>
		<path class="st19" d="M449.1,1609c0.6-0.1,14.1-3.5,21.9,5.5"/>
		<path class="st9" d="M318.6,1422.6c-5.6-13.1-24.7-23.2-35.1-13.4c-5.4,5.1-4,13.8-0.7,18.8c6.3,9.5,6.4,14.2,6.9,16.5
			c0.9,4.1,2.6,7.9,6,10.5c4.3,3.4,10.4,3.2,14.7,0.1c7.6-5.6,11.2-16.6,10.1-25.7C320.2,1427.2,319.6,1424.9,318.6,1422.6z"/>
		<path class="st4" d="M748.6,1510.5c-8.2-3.1-12.9,19.1-52.5,55.6c-25.2,23.2-61.6,37.5-68.4,40.1c-12.7,4.9-28.3,3.7-15.7-19
			c14.2-25.3,12.4-46.6-24.7-4.8s-41.5,96.8-34.4,136.1c7.6,41.4,33.1,77.3,30.9,88.1c-2.9,14.1-25.2,8.3-50.9-23.5
			c-21.6-26.8-32.5-61.6-82-82.9c-16.2,7.4-38.5,23.3-41.7,54.5c-3.5,34.3,22.6,52.3,38.1,59.9c26.2-32.6,41.7,1.1,61.9,22.2
			c40.8,42.6,96.1,79.5,127.2,64.8c30-14.2,29.3-48.8,8.1-116.8c-15-48-9.5-67.5,8.3-83.9c18.3-16.9,67.9-27.8,74.1-39.2
			c6.2-11.4-7.2-17.5-7.2-20.4c0-3,11.3-9.9,11.8-15.2s-7.7-8.1-7.7-11.8c0-3.7,13.9-11.2,11.3-19c-2.6-7.7-10.8-4.1-14.4-7
			c-3.6-2.9,5.4-8.7,16.9-27.6C753.1,1535.8,756.9,1513.6,748.6,1510.5z"/>
		<path class="st7" d="M409.4,1754.7c3.2-31.1,25.5-47.1,41.7-54.5c-6.7-2.9-14-5.5-22.2-8c-21.4-6.4-102-26.1-169.3,20
			S146,1844.7,151.2,1856.4s264.1,48.6,278.1,8.1c0,0,4.6-25.3,18.2-49.9C432,1807,405.9,1789,409.4,1754.7z"/>
		<path class="st7" d="M411,1639.7c-8.1-13.7-25.5-14.1-35.4-13.1c6,18.9,20.6,33.4,38.6,39.7C415.7,1659.2,416.4,1648.8,411,1639.7
			z"/>
		<path class="st20" d="M720.7,1584.8"/>
		<path class="st5" d="M729.6,1576.6c-4.9,5.4-35.9,32.2-51,38.2"/>
		<g>
			<circle class="st16" cx="195.8" cy="1587.1" r="6.3"/>
			<circle class="st16" cx="231.7" cy="1587.1" r="6.3"/>
			<circle class="st16" cx="267.6" cy="1587.1" r="6.3"/>
		</g>
		<circle class="st16" cx="65.2" cy="1585.7" r="0"/>
		<line class="st8" x1="225.4" y1="1471.6" x2="261.2" y2="1569.7"/>
		<path class="st7" d="M221.9,1455.8L221.9,1455.8l-2.7,0c-1.6,0-2.9-1.3-2.9-2.9l0-2.6c0-1.6-1.4-3-3-3h0c-1.7,0-3,1.4-3,3l0,2.6
			c0,1.6-1.3,2.9-2.9,2.9l-2.5,0c-1.6,0-3.1,1.2-3.1,2.9c-0.1,1.7,1.3,3.1,3,3.1c0,0,0,0,0,0l2.6,0c1.6,0,2.9,1.3,2.9,2.9l0.1,8.2
			c0,1.6,1.4,3,3,3h0c1.7,0,3-1.4,3-3l-0.1-8.3c0-1.6,1.3-2.9,2.9-2.9l2.6,0c2,0,3.5-2,2.8-4.1
			C224.3,1456.5,223.1,1455.8,221.9,1455.8z"/>
		<path class="st7" d="M407.6,1168L407.6,1168l-2.6-0.5c-1.6-0.3-2.6-1.9-2.2-3.4l0.5-2.6c0.3-1.6-0.7-3.2-2.3-3.5h0
			c-1.6-0.4-3.2,0.7-3.6,2.3l-0.5,2.6c-0.3,1.6-1.9,2.6-3.4,2.2l-2.4-0.5c-1.6-0.3-3.3,0.6-3.7,2.1c-0.4,1.7,0.6,3.3,2.3,3.7
			c0,0,0,0,0,0l2.6,0.5c1.6,0.3,2.6,1.9,2.2,3.4l-0.5,2.6c-0.3,1.6,0.7,3.2,2.3,3.5l0,0c1.6,0.4,3.2-0.7,3.5-2.3l0.5-2.6
			c0.3-1.6,1.9-2.6,3.4-2.2l2.6,0.5c2,0.4,3.9-1.2,3.6-3.4C409.8,1169.2,408.8,1168.2,407.6,1168z"/>
		<path class="st7" d="M541.5,253L541.5,253l-2.6-0.5c-1.6-0.3-2.6-1.9-2.2-3.4l0.5-2.6c0.3-1.6-0.7-3.2-2.3-3.5l0,0
			c-1.6-0.4-3.2,0.7-3.6,2.3l-0.5,2.6c-0.3,1.6-1.9,2.6-3.4,2.2l-2.4-0.5c-1.6-0.3-3.3,0.6-3.7,2.1c-0.4,1.7,0.6,3.3,2.3,3.7
			c0,0,0,0,0,0l2.6,0.5c1.6,0.3,2.6,1.9,2.2,3.4l-0.5,2.6c-0.3,1.6,0.7,3.2,2.3,3.5l0,0c1.6,0.4,3.2-0.7,3.5-2.3l0.5-2.6
			c0.3-1.6,1.9-2.6,3.4-2.2l2.6,0.5c2,0.4,3.9-1.2,3.6-3.4C543.7,254.2,542.7,253.2,541.5,253z"/>
		<path class="st7" d="M1091.8,270.4L1091.8,270.4l-2.7,0c-1.6,0-2.9-1.3-2.9-2.9l0-2.6c0-1.6-1.4-3-3-3h0c-1.7,0-3,1.4-3,3l0,2.6
			c0,1.6-1.3,2.9-2.9,2.9l-2.5,0c-1.6,0-3.1,1.2-3.1,2.9c-0.1,1.7,1.3,3.1,3,3.1c0,0,0,0,0,0l2.6,0c1.6,0,2.9,1.3,2.9,2.9l0.1,2.6
			c0,1.6,1.4,3,3,3h0c1.7,0,3-1.4,3-3l-0.1-2.7c0-1.6,1.3-2.9,2.9-2.9l2.6,0c2,0,3.5-2,2.8-4.1
			C1094.2,271.1,1093,270.4,1091.8,270.4z"/>
		<path class="st7" d="M1060.3,1256.6L1060.3,1256.6l-2.7,0c-1.6,0-2.9-1.3-2.9-2.9l0-2.6c0-1.6-1.4-3-3-3h0c-1.7,0-3,1.4-3,3l0,2.6
			c0,1.6-1.3,2.9-2.9,2.9l-2.5,0c-1.6,0-3.1,1.2-3.1,2.9c-0.1,1.7,1.3,3.1,3,3.1c0,0,0,0,0,0l2.6,0c1.6,0,2.9,1.3,2.9,2.9l0.1,2.6
			c0,1.6,1.4,3,3,3h0c1.7,0,3-1.4,3-3l-0.1-2.7c0-1.6,1.3-2.9,2.9-2.9l2.6,0c2,0,3.5-2,2.8-4.1
			C1062.8,1257.4,1061.6,1256.6,1060.3,1256.6z"/>
		<path class="st7" d="M1211.5,895.3L1211.5,895.3l-2.7,0c-1.6,0-2.9-1.3-2.9-2.9l0-2.6c0-1.6-1.4-3-3-3h0c-1.7,0-3,1.4-3,3l0,2.6
			c0,1.6-1.3,2.9-2.9,2.9l-2.5,0c-1.6,0-3.1,1.2-3.1,2.9c-0.1,1.7,1.3,3.1,3,3.1c0,0,0,0,0,0l2.6,0c1.6,0,2.9,1.3,2.9,2.9l0.1,2.6
			c0,1.6,1.4,3,3,3h0c1.7,0,3-1.4,3-3l-0.1-2.7c0-1.6,1.3-2.9,2.9-2.9l2.6,0c2,0,3.5-2,2.8-4.1
			C1213.9,896.1,1212.8,895.3,1211.5,895.3z"/>
		<path class="st7" d="M1199.3,582.5L1199.3,582.5l-2.7,0c-1.6,0-2.9-1.3-2.9-2.9l0-2.6c0-1.6-1.4-3-3-3h0c-1.7,0-3,1.4-3,3l0,2.6
			c0,1.6-1.3,2.9-2.9,2.9l-2.5,0c-1.6,0-3.1,1.2-3.1,2.9c-0.1,1.7,1.3,3.1,3,3.1c0,0,0,0,0,0l2.6,0c1.6,0,2.9,1.3,2.9,2.9l0.1,2.6
			c0,1.6,1.4,3,3,3h0c1.7,0,3-1.4,3-3l-0.1-2.7c0-1.6,1.3-2.9,2.9-2.9l2.6,0c2,0,3.5-2,2.8-4.1
			C1201.7,583.2,1200.5,582.5,1199.3,582.5z"/>
		<circle class="st7" cx="238" cy="1460.7" r="4.9"/>
		<path class="st4" d="M1404.4,852.3c10.3-12.7,18.3-27.7,19.5-43.9c1.2-17.4-5.6-34.4-14.8-49.2c-9.2-14.8-20.9-27.9-30.9-42.2
			c-2.6-3.8-5.2-7.8-5.8-12.3c-1.1-8.5,4.9-16.1,9.8-23.2c9.3-13.3,15.9-29.4,13.9-45.5c-4.5-37.2-45.2-40.6-66.6-14.9
			c-10.6,12.8-16.5,31.2-12.9,47.6c2.5,11.3,8.7,21.5,10.4,33s-3.9,25.5-15.4,27c-6.9,0.9-13.7-3.2-18.2-8.6
			c-4.5-5.4-7.3-11.9-10.7-18c-7.6-13.6-19.5-25.6-34.6-29.3c-24.1-5.8-48.5,11.4-61.2,32.8c-6.5,10.9-10.9,23-17.5,33.9
			c-6.6,10.8-16.3,20.8-28.7,23.6c-4.7,1.1-9.8,1-14.1-1.2c-7.7-3.9-10.7-13.4-11.3-22c-0.6-8.6,0.4-17.5-2.4-25.6
			c-7.5-21.3-35.5-24.4-54.3-18.5c-16.8,5.3-39.1,22.1-31.4,42c6.6,17,28.1,28.8,44.8,33.3c2.5,0.7,5.1,2,5.9,4.5
			c0.8,2.4-0.2,5-1.8,7c-4.2,5.4-9.5,9.8-8,17.4c1.4,6.9,8.4,12.5,15.5,11.6c8.7-1.1,15.6-5,18,6.6c4.3,20.5-2.6,45.7,12.7,59.9
			c11.7,10.9,31.3,8.4,44.1-1.1c12.8-9.5,20.6-24.2,28-38.3c7.4-14.1,15.5-28.7,28.6-37.8c4.6-3.1,11.4-5.3,15.2-1.2
			c1.5,1.5,2.1,3.7,2.4,5.8c2.5,17.1-13.5,32.6-11.6,49.8c1.4,13.5,13.6,23.5,26.5,27.8c12.8,4.3,26.6,4.4,40,6.7
			c10.7,1.9,22.5,6.4,26.2,16.6c3.3,9.1-1.1,19-4.6,28c-5.1,13-8.4,27.1-6.9,41c1.5,13.9,8.4,27.7,20.2,35.2
			c15.4,9.8,36.4,7.2,51.7-2.8s25.6-26,33-42.7c10.5-23.4,15-53.7-2.5-72.4c-5.6-5.9-13.6-11.3-13.6-19.5c0-6.1,4.6-11,8.6-15.5
			C1401.3,856,1402.9,854.2,1404.4,852.3z"/>
		<path class="st21" d="M422.7,1605.6c0.4-5.3,5.1-9.3,10.4-8.9c5.3,0.4,9.3,5.1,8.9,10.4"/>
		<path class="st4" d="M1139.8,388.9c-1-10.2-4.6-19.5-10.1-27.3c-5.2-7.3-12-13.3-19.9-17.5c-9.3-4.9-20.1-7.3-31.3-6.4
			c-0.2,0-0.4,0-0.5,0c-18.6,1.8-34.2,12.3-43.2,27c-6.1,10.1-9.2,22.1-8,34.8c0,0.3,0.1,0.5,0.1,0.8c1.4,13,7.2,24.6,15.7,33.4
			c9.9,10.2,23.6,16.6,38.5,17.2c2.5,0.1,5,0,7.6-0.2c18.6-1.8,34.2-12.3,43.2-27C1137.9,413.6,1141,401.5,1139.8,388.9z"/>
		<line class="st8" x1="1150.7" y1="435.1" x2="1175.8" y2="450.4"/>
		<line class="st8" x1="998.1" y1="342.4" x2="1143.1" y2="430.5"/>
		<path class="st8" d="M1072.7,335c-0.5,15-6.2,40.9-34.6,67.1"/>
		<path class="st8" d="M1102.1,378.9c-13.1,17.5-24.7,42.1-21.7,72.1"/>
		<path class="st8" d="M1126.5,353.6c-3.1,2.6-6.7,5.9-10.5,9.8"/>
		<line class="st8" x1="1101.1" y1="338.8" x2="1055.1" y2="414.7"/>
		<line class="st5" x1="852" y1="929.1" x2="914.4" y2="886"/>
		<line class="st5" x1="860.6" y1="877.9" x2="917" y2="838.9"/>
		<line class="st5" x1="830.9" y1="898.4" x2="850.7" y2="884.7"/>
		<path class="st9" d="M1180.1,932.3c-56.2-8.5-106.3,7.9-151.8,36.9c-0.5,0.2-0.9,0.4-1.4,0.7c-1,0.7-1.9,1.3-2.9,2
			c-5.9,3.9-11.8,8-17.6,12.3l0,0c-21.5,15.2-40.8,28.8-40.8,28.8l21.4,33.5l42.5-25.5l0,0c14-8.4,51.8-29.3,86.3-28.8
			c37.1,0.5,73.9,25.5,60.9,61.9c-8.8,24.5-45.1,44.5-71,37.5c-26.2-7.1-44.9-20.7-45-10.4c-0.1,9.1,16.9,21.2,26.6,25.1
			c12.2,4.9,14.5,6.6-4.7,11.1c-34.4,8.1-59.2,24.5-59.7,32.9s30.7-10.7,46.6-10.7c7.6,0-14.2,4.3-34.2,34.8
			c-8.9,13.7-2.7,15.4,12,3.5c20.8-17,34.5-28.2,38.5-26c4,2.2-2.9,5.6-9.9,24.3c-11.7,31.6,0,34.6,10.9,15.5
			c10.9-19.2,26.3-37.7,30.7-35.5c4.4,2.2-4.1,13.2-8.4,37.7c-2.1,12.3,1.8,30.8,12.6,1.4c10.3-27.9,25.7-39.5,45.8-45
			c76.5-21,95.6-51.4,106.4-80.8C1301.4,995.4,1245.6,942.2,1180.1,932.3z"/>
		<path class="st5" d="M1086.5,1114.9c0.2-0.2,18.4-3.5,28.6-4.8"/>
		<path class="st8" d="M687.8,1047.1c0,0,0-122.8-23-116.9c-20.1,5.1,8.1,61,30.7,56.2c25.9-5.6,24.7-82.8,5.7-77.6
			c-15.6,4.3-0.9,91.8,86.6,37.3"/>
		<path class="st22" d="M887,1045.1c1.1,2.1,0.3,4.8-1.9,5.9c-2.1,1.1-4.8,0.3-5.9-1.9"/>
		<path class="st22" d="M909.2,1030.8c1.1,2.1,0.3,4.8-1.9,5.9c-2.1,1.1-4.8,0.3-5.9-1.9"/>
		<path class="st1" d="M1374.9,1216c1.4-39.7,79.6-74.9,68.5-115.1c-11.9-43.2-76.2-54.6-123.5-6.5c-35.5,36-18.2,85.6-38.6,97.6
			c-12.6,7.4-35.5-17.9-56,3.2c-29.4,30.1-12.5,78.3-31,80.6c-11.4,1.4-23.7-9.5-12.7-36.3c11-26.8-36.6-33.8-45-1.8
			c-4.6,17.5,8.7,28.3,8.4,46.3c-0.3,16.5-33.6,31.1-46.8,66.8c-0.1,0.2-0.1,0.4-0.2,0.5c-0.3,0.9-0.6,1.8-0.9,2.7
			c-0.2,0.5-0.3,1-0.5,1.5c-0.2,0.7-0.4,1.5-0.6,2.2c-0.1,0.4-0.2,0.8-0.3,1.2c-0.2,0.7-0.3,1.4-0.5,2.1c0,0,0,0,0,0
			c-1.2,5.6-1.9,11.4-1.9,17.4c0,43.9,35.6,79.5,79.5,79.5c31.6,0,58.8-18.4,71.7-45c0,0,0,0,0,0c7.9-13.3,10.2-43,15.1-66.3
			c4.9-23.3,25.8-40.8,44.1-29.1c12.6,8.1-6.5,40.4,10.9,46.3c12.7,4.4,15.9-17.3,28.3-33.8c16.2-21.6,41.3-16.1,54.9-43.8
			S1374.1,1237.8,1374.9,1216z"/>
		<g>
			<path class="st7" d="M1132.2,1358.7c23.5-20.4,14.7,0.7,21.8,4.3c6.5,3.2,20.2-25.5,18.9-40.8c-0.3,0-0.6,0-0.9,0
				c-25.4,0-46.8,16.6-54.2,39.5C1121.7,1363.6,1126.6,1363.6,1132.2,1358.7z"/>
			<path class="st7" d="M1179.5,1395.6c-12.1-2.1-30.5,21.9-37.7,31.9c8.7,5.5,19.1,8.6,30.1,8.6c5.4,0,10.6-0.8,15.5-2.2
				C1184.4,1420.8,1190.7,1397.6,1179.5,1395.6z"/>
			<path class="st2" d="M1217.1,1373.4c-5.6-2-22.1,24.4-25.6,5.8c-3-15.8,7.5-35.6,14-45.9c-9.2-6.7-20.5-10.8-32.7-11
				c1.3,15.3-12.4,44-18.9,40.8c-7.1-3.6,1.7-24.7-21.8-4.3c-5.5,4.8-10.5,4.8-14.5,3c-1.8,5.5-2.7,11.4-2.7,17.5
				c0,20.4,10.7,38.3,26.8,48.3c7.2-10,25.6-34,37.7-31.9c11.2,2,4.9,25.2,7.9,38.4c11.6-3.3,21.6-10.1,28.9-19.2
				C1211,1400.5,1222.1,1375.2,1217.1,1373.4z"/>
			<path class="st7" d="M1205.6,1333.2c-6.5,10.4-17,30.1-14,45.9c3.5,18.6,20-7.8,25.6-5.8c5,1.8-6.1,27.1-0.8,41.4
				c7.8-9.8,12.5-22.1,12.5-35.6C1228.9,1360.3,1219.7,1343.6,1205.6,1333.2z"/>
			<circle class="st7" cx="1140.8" cy="1385.2" r="13.1"/>
			<circle class="st7" cx="1171.1" cy="1372.1" r="6.5"/>
		</g>
		<path class="st23" d="M746.8,247.2"/>
		<path class="st23" d="M747.7,219.2"/>
		<circle class="st12" cx="696.3" cy="323" r="18"/>
		<path class="st4" d="M771.3,662c-5.2,4.5-5.7,12.4-1.1,17.6c1.1,1.3,2.3,2.2,3.5,2.7c3.6-7.4,8.4-16.3,11.7-21.9
			C780.9,658,775.3,658.4,771.3,662z"/>
		
			<ellipse transform="matrix(0.6085 -0.7935 0.7935 0.6085 -224.6662 861.0989)" class="st4" cx="760.4" cy="658.2" rx="6.4" ry="6.4"/>
		<path class="st12" d="M784.9,678.6c5.2-4.5,8.5-10.3,4-15.5c-1-1.2-2.2-2.1-3.5-2.8c-3.4,5.6-8.1,14.5-11.7,21.9
			C777.2,683.8,781,682,784.9,678.6z"/>
		<g>
			<line class="st24" x1="951.1" y1="444.7" x2="951.1" y2="416.2"/>
			<line class="st24" x1="974.5" y1="428.1" x2="978" y2="419.5"/>
			<line class="st24" x1="966.7" y1="446.7" x2="970.1" y2="438.5"/>
			<line class="st24" x1="979.2" y1="456.2" x2="993.5" y2="441.7"/>
			<line class="st24" x1="936.1" y1="447.6" x2="928.6" y2="429.6"/>
		</g>
		<g>
			<path class="st2" d="M1119.4,607.8c-7.3,28.2-23.2,51.5-54.9,54.3c-48.3,4.4-102.2-67.2-122.4-92.3l15.3-25.2
				c19,20.1,58.6,66.3,84.1,56.9c7.5-2.8,7.2-18.8-11.6-30.9c-18.8-12.1-28.8-27.6-25.6-51c3.2-23.4,12.7-27.5,14.2-5
				c1.6,24.1,10.1,27.6,13.8,26s-6.6-32.7,6.1-65.5c11.1-28.8,25.7-30.3,17.9-2c-8.2,30.1-1.9,37.5,3.3,39.2c2,0.7,9.2-9.3,17-9.6
				c9.2-0.3,6.2,9.1,11.4,8.8c5.1-0.3,5.5-5.2,11.6-4.1c6.8,1.3,4.1,7.5,9.5,7.3c5.4-0.2,6.2-5,12.5-3.5
				C1128.8,513.2,1131.5,561.2,1119.4,607.8z"/>
			<path class="st18" d="M1121.6,537.8c0.3-2.4,0.5-4.9,0.7-7.7"/>
			<path class="st18" d="M1074.9,558.1c6.4,2,7.9-23,10.4-22.8c3.4,0.3,6.8,32.4,10.8,32.6c8,0.3,5.6-31.8,9.7-30.6
				c3.7,1.1-0.1,22,3.6,27.1c1.6,2.2,4.9,1.8,11.2-19.5"/>
			<path class="st18" d="M1069.2,540.1c0.8,4.6,1.2,8.6,1.8,11.7"/>
			<path class="st18" d="M1066.2,527.7c0.8,2.5,1.5,4.9,2,7.2"/>
		</g>
		<path class="st2" d="M892.4,480.2L892.4,480.2c-64.5-65.6-80.8-108.1-113.8-111.4c-33-3.3-47.1,14.2-57.9,19.4
			c-6,2.9-15.8,2.4-26.7-5.2c-22.2-15.5-17.7,1.3-10.7,9.9c10,12.4,30.1,9.3,27.2,13.1c-2.9,3.8-22.7-1.1-41,14.4
			c-13.2,11.2-13.3,25.9,5.2,13.2c18.5-12.7,36.2-11.7,36.9-11s-17.1,7.8-28.2,22.8c-9.5,12.8-10.8,26.1-6.2,28.4
			c3.9,2,11.8-12.9,20.8-21.6c12.4-12.1,22.5-17.6,23.8-16.1c1.3,1.5-12.5,15-18.6,28.7c-5.1,11.6-6.2,24.4-1.4,28.7
			c4.7,4.3,11.5-16.3,16.6-24.8c5.7-9.6,23.1-37,34.9-29.8c11.5,7.1,0.5,14.9-4.8,22.7c-5.3,7.7-4,19.3,3.4,21.9
			c7.1,2.5,29.2-73.2,58.2-45.4c33.8,32.4,56.5,55,64.7,63.2c12.8-17.6,16.9-22.2,16.9-22.2L892.4,480.2z"/>
		
			<ellipse transform="matrix(0.6085 -0.7935 0.7935 0.6085 -211.0784 854.9434)" class="st4" cx="760.9" cy="641.4" rx="4.7" ry="4.7"/>
		<path class="st4" d="M774.3,541.3c-3.2-6.1-10.8-8.4-16.9-5.1c-5.3,2.8-7.7,9-6.1,14.5c8-2.6,17-5.2,23.9-6.9
			C775.1,543,774.7,542.1,774.3,541.3z"/>
		
			<ellipse transform="matrix(0.8956 -0.4449 0.4449 0.8956 -152.9299 394.8225)" class="st4" cx="764.6" cy="523.2" rx="6.4" ry="6.4"/>
		
			<ellipse transform="matrix(0.8956 -0.4449 0.4449 0.8956 -145.4815 396.7882)" class="st4" cx="772.6" cy="508.3" rx="4.7" ry="4.7"/>
		<path class="st12" d="M823.1,575.6c-7.2,9.6-13.2,14.3-18.5,7.8c-9.1-11.2-14.2-39.2-18.9-41c-1.2-0.5-5.2,0.2-10.5,1.4
			c1.2,4.9-1.8,9-7,11.8c-6.1,3.2-12.7,3.5-15.9-2.6c-0.4-0.8-0.7-1.5-1-2.3c-9.5,3.1-17.4,5.9-17.9,6.7c-1.4,2,39.2,3.1,41.7,6.6
			c2.5,3.6,9.2,58.7,23.4,65.6c8.4,4.1,31.2-12.6,48.5-28.6C843.3,585.7,829.9,578.4,823.1,575.6z"/>
		<path class="st12" d="M768.2,555.6c5.2-2.8,8.3-6.8,7-11.8c-6.9,1.6-16,4.3-23.9,6.9c0.2,0.8,0.6,1.6,1,2.3
			C755.5,559.1,762.2,558.8,768.2,555.6z"/>
		<path class="st12" d="M863,621.6c-9,11.5-19.3,23.8-22.9,25.1c-12.4,4.5-48.5,6.7-50.9,7.9c-0.5,0.3-2,2.5-3.9,5.7
			c1.3,0.7,2.5,1.6,3.5,2.8c4.5,5.2,1.2,11-4,15.5c-3.9,3.4-7.7,5.2-11.3,3.6c-3.3,6.7-5.6,12.2-5.1,13.1
			c1.3,2.4,28.3-24.4,32.4-24.7c4.1-0.4,51.5,17.9,60.6,13c3.1-1.7,15.8-18.1,30.9-39.1C885.8,631.2,870.5,624.3,863,621.6z"/>
		<path class="st12" d="M939.3,526.7c-11.6,19.1-2.1,37.2,2.8,43.1c9.1-14.2,15.6-24.7,15.3-25.2L939.3,526.7z"/>
		<path class="st13" d="M892.4,480.2l-1-0.9c0,0-4.1,4.6-16.9,22.2c2.2,2.2,3.4,3.4,3.4,3.4L892.4,480.2z"/>
		<path class="st2" d="M910,514.9c-4.4-4.2-8.9-8.3-13.3-11.9c-0.6-0.5-1.4-0.4-1.8,0.2c-7.4,9.9-17.6,24.2-36,50.9
			c-0.4,0.5-0.3,1.2,0.2,1.7l13.4,12.2c0.6,0.5,1.4,0.4,1.9-0.2l35.8-51.1C910.5,516,910.4,515.3,910,514.9z"/>
		<path class="st4" d="M904.8,548c-0.8-0.8-2.1-0.7-2.7,0.3l-19,27.1c-0.5,0.7-0.4,1.8,0.3,2.4l23.3,21.2c0.8,0.7,2.1,0.6,2.7-0.3
			c6.8-9.9,12.6-18.6,17.5-26.1c0.5-0.7,0.4-1.6-0.2-2.2C919.6,562.6,910.7,553.7,904.8,548z"/>
		<path class="st13" d="M939.3,526.7l-47-46.6L878,504.9c0,0-1.2-1.2-3.4-3.4c-7.7,10.6-18.6,25.9-33.6,47.8
			c-6.7,9.8-12.6,19.4-17.9,26.3c6.8,2.8,20.2,10.1,24,25.4c5.9-5.4,11.1-10.7,15-15.1l16.5,15.1c0,0-7.2,9.9-15.5,20.5
			c7.5,2.7,22.7,9.6,29.3,23c11.1-15.4,34.3-50.5,49.8-74.7C937.3,563.9,927.8,545.8,939.3,526.7z M874.3,567.7
			c-0.4,0.6-1.3,0.7-1.9,0.2L859,555.7c-0.5-0.4-0.5-1.1-0.2-1.7c18.4-26.7,28.7-41,36-50.9c0.4-0.6,1.3-0.7,1.8-0.2
			c4.4,3.6,8.8,7.7,13.3,11.9c0.5,0.4,0.5,1.1,0.2,1.6L874.3,567.7z M926.8,572.4c-4.9,7.5-10.7,16.2-17.5,26.1
			c-0.6,0.9-1.9,1.1-2.7,0.3l-23.3-21.2c-0.7-0.6-0.8-1.6-0.3-2.4l19-27.1c0.6-0.9,1.9-1,2.7-0.3c5.9,5.8,14.8,14.6,21.9,22.3
			C927.2,570.9,927.3,571.7,926.8,572.4z"/>
		<path class="st12" d="M970.5,469.8c-6.3-11.8-21-16.3-32.8-10s-16.3,21-10,32.8c1.6,2.9,3.7,5.4,6.1,7.4
			c-5.2,7.4-9.6,12.6-9.6,12.7c-1.4,1.7-1.2,4.2,0.5,5.6c0.8,0.6,1.7,0.9,2.6,0.9c1.1,0,2.3-0.5,3.1-1.4c0.3-0.4,5.1-6,10.5-13.9
			c6.2,2.3,13.4,2,19.7-1.4C972.3,496.3,976.8,481.6,970.5,469.8z"/>
		<g>
			<path class="st5" d="M938.6,482c0.2-5.7,5.1-10.2,10.8-10s10.2,5.1,10,10.8"/>
		</g>
		<g>
			<g>
				<path class="st2" d="M706.5,780.2c1.9,0,1.9-3,0-3C704.6,777.2,704.6,780.2,706.5,780.2L706.5,780.2z"/>
			</g>
		</g>
		<g>
			<g>
				<path class="st2" d="M706.5,780.2c1.9,0,1.9-3,0-3C704.6,777.2,704.6,780.2,706.5,780.2L706.5,780.2z"/>
			</g>
		</g>
		<g>
			<g>
				<path class="st2" d="M458.7,870.2c1.9,0,1.9-3,0-3C456.8,867.2,456.8,870.2,458.7,870.2L458.7,870.2z"/>
			</g>
		</g>
		<g>
			<g>
				<path class="st2" d="M458.7,870.2c1.9,0,1.9-3,0-3C456.8,867.2,456.8,870.2,458.7,870.2L458.7,870.2z"/>
			</g>
		</g>
		<g>
			<g>
				<path class="st2" d="M577.1,663.1c1.9,0,1.9-3,0-3C575.1,660.1,575.1,663.1,577.1,663.1L577.1,663.1z"/>
			</g>
		</g>
		<g>
			<g>
				<path class="st2" d="M577.1,663.1c1.9,0,1.9-3,0-3C575.1,660.1,575.1,663.1,577.1,663.1L577.1,663.1z"/>
			</g>
		</g>
		<g>
			<path class="st4" d="M437,1288.8c-3.3-2.5-4.8-45-2-50.5c3.1-6.1,106.6-5.9,109.9,0c2.8,5.2,2.5,47.4-2,50.5
				C538.2,1292.1,439.4,1290.6,437,1288.8z"/>
		</g>
		<g>
			<circle class="st16" cx="518.9" cy="1263" r="5.1"/>
			<circle class="st16" cx="490.1" cy="1263" r="5.1"/>
			<circle class="st16" cx="461.3" cy="1263" r="5.1"/>
		</g>
		<g>
			<circle class="st7" cx="497.8" cy="1136.9" r="5.1"/>
		</g>
		<g>
			<circle class="st7" cx="385" cy="1205.8" r="5.1"/>
		</g>
		
			<ellipse transform="matrix(4.625285e-02 -0.9989 0.9989 4.625285e-02 -257.037 2310.5474)" class="st7" cx="1081.5" cy="1289.9" rx="4.9" ry="4.9"/>
		
			<ellipse transform="matrix(4.625285e-02 -0.9989 0.9989 4.625285e-02 513.5035 1749.2273)" class="st7" cx="1172.8" cy="605.7" rx="4.9" ry="4.9"/>
		
			<ellipse transform="matrix(4.625285e-02 -0.9989 0.9989 4.625285e-02 757.3894 1301.6337)" class="st7" cx="1060.3" cy="254.2" rx="4.9" ry="4.9"/>
		
			<ellipse transform="matrix(4.625285e-02 -0.9989 0.9989 4.625285e-02 385.3122 1818.0992)" class="st7" cx="1144.8" cy="707.3" rx="4.9" ry="4.9"/>
		<circle class="st7" cx="741.9" cy="337.4" r="4.9"/>
		<circle class="st7" cx="463.6" cy="1429.5" r="4.9"/>
		<path class="st25" d="M478.4,1610c0.4-5.3,5.1-9.3,10.4-8.9c5.3,0.4,9.3,5.1,8.9,10.4"/>
		<path class="st7" d="M706.5,1070.1c0.1-2-1.7-3.6-3.6-3.3c-9.8,1.3-19.3-0.4-23.1-1.3c-1.7-0.4-3.4,0.5-3.9,2.1
			c-0.5,1.8,0.5,3.6,2.3,4c0,0,0,0,0,0c2.5,0.5,2.4,4.2,2.5,5.7c0.3,5,4.9,8.9,10.1,9c4.7,0.1,8.7-2.9,10-7.1c0,0,0,0,0,0
			c0,0,0,0,0,0c0.2-0.9,0.8-3.2,1.2-4.7c0.2-0.7,0.7-1.2,1.4-1.2l0,0C705.1,1072.9,706.4,1071.7,706.5,1070.1z"/>
		<g>
			<path class="st1" d="M493.8,1589.8c0.9,2.9,1.6,5.9,2,9c0.6,4.2,0.8,8.4,0.6,12.5c-0.4,8-2.4,15.6-5.7,22.7
				c10.6-2,18.6-11.3,18.6-22.5C509.4,1601.4,502.9,1592.8,493.8,1589.8z"/>
			<path class="st16" d="M486.5,1607.2c-6.4-3.4-11.7-7.6-15.9-12.2c-4.3,4.2-7,10-7,16.5c0,10.9,7.6,19.9,17.7,22.3
				C487.3,1624.3,487.9,1615,486.5,1607.2z"/>
			<path class="st1" d="M486.5,1607.2c1.4,7.8,0.8,17.1-5.2,26.5c1.7,0.4,3.4,0.6,5.2,0.6c1.5,0,2.9-0.1,4.3-0.4
				c3.3-7,5.2-14.7,5.7-22.7C492.9,1610.2,489.6,1608.8,486.5,1607.2z"/>
			<path class="st1" d="M496.5,1611.3c0.2-4.1,0-8.3-0.6-12.5c-0.5-3.1-1.1-6.1-2-9c-2.3-0.8-4.8-1.2-7.3-1.2
				c-2.5,0-4.8,0.4-7.1,1.1c2.2,3.4,5.7,9.7,7.1,17.5C489.6,1608.8,492.9,1610.2,496.5,1611.3z"/>
			<path class="st16" d="M486.5,1607.2c-1.4-7.8-4.9-14.1-7.1-17.5c-3.3,1.1-6.4,2.9-8.8,5.3
				C474.9,1599.6,480.1,1603.9,486.5,1607.2z"/>
		</g>
		<line class="st26" x1="1329.6" y1="1214.9" x2="1350.3" y2="1194.7"/>
		<line class="st26" x1="1224.5" y1="1317.6" x2="1314.4" y2="1229.8"/>
		<line class="st26" x1="1304.9" y1="1272.4" x2="1345.6" y2="1232.7"/>
		<line class="st26" x1="1239.2" y1="1341.2" x2="1247.4" y2="1333.2"/>
		<line class="st26" x1="1164.6" y1="1306.6" x2="1177.7" y2="1293.9"/>
		<line class="st26" x1="1222.2" y1="1278.9" x2="1265.8" y2="1236.3"/>
		<line class="st26" x1="1192.9" y1="1307.5" x2="1213.6" y2="1287.4"/>
		<path class="st21" d="M477.5,1610c0.4-5.3,5.1-9.3,10.4-8.9c5.3,0.4,9.3,5.1,8.9,10.4"/>
		<path class="st4" d="M487.2,1290.7c10.3,0.6,15.7,19.6,18.5,19.8c2.9,0.2,11-20.5,18.3-20c3.2,0.2-11.5-6-11.5-6"/>
		<path class="st27" d="M724.5,1763.6c0.2-0.2,0.3-0.4,0.5-0.6c-0.5,0.4-1.1,0.7-1.6,0.9C723.2,1765.7,723.7,1764.5,724.5,1763.6z"
			/>
		<path class="st28" d="M1078.2,1741.3c-0.1-1.2-0.5-2.2-0.9-3.2C1077.6,1739.2,1077.9,1740.3,1078.2,1741.3z"/>
		<path class="st2" d="M1224.5,1730.9c-5.6,4.1-10.1,9.5-16.1,13.1c-13.4,8-36,10.8-43.6-6.4c-3-6.7-2.3-14.4-1.3-21.5
			c1.2-8.2,2.4-16.4,3.1-24.7c1-11.8,0.6-23.7-2.4-34.9c-15.9-13.7-33.4-25.7-52.3-35.4c0,0,0,0,0,0c-0.2,3-1.1,5.9-2.7,8.5
			c-3.2,5.3-9,8.9-15.3,8.3c-7.9-0.7-12.8-6.9-13.5-14.5c-0.5-5.2,0.5-10.9,4.3-14.6c-4.1-1.6-8.2-3-12.4-4.4
			c-5.6,19.9-18.7,40.7-34.2,47.7c-15.3,7-31.9-0.6-41.2-13.4c-10.1-13.8-13.2-31.1-16.9-47.7c-12.5,0.4-24.8,1.6-36.9,3.6
			c-65.2,10.9-122.6,45.3-163.1,94.1c-8.8,10.6-16.8,21.8-23.9,33.6c2.4,0.8,4.7,2.3,6.8,4.5c13.3,14.1,6,38.4,5.7,55.3
			c-0.1,4.7,0.4,9.8,3.4,13.4c11.8,13.7,31.6-3,40.1-11.7c10.7-11.1,20.7-23.3,35.1-29.8c13.1-5.9,28.5-6.6,40.8,1.8
			c28.9,19.7,6.3,57.2-11.6,76.3c-12.7,13.5-30.3,25.4-49,29.8c29,0,61.5,0,95.7,0c-2.5-5.5-3.7-11.7-3.4-18.4
			c0.7-15.6,9.8-29.8,20-41.2c6.8-7.7,15.9-13,22.5-20.8c12.8-15.1,15-35.6,18.2-54.4c2.7-15.9,12.9-45.2,33.5-43.1
			c14,1.4,19.6,15.8,20.4,28.1c0.6,9.6-0.7,18.6-3.1,27.9c-2.6,10.5-12.5,27.6,1.6,34.3c4.6,2.2,10.2,1.7,14.5-1
			c17.5-10.8,4.4-33.8,1.5-48.5c-2.5-12.6-2.7-25.7,0.9-38.2c4.1-14.4,15-27.3,28.8-33.3c14.6-6.3,31.5-4,43.7,6.3
			c12.7,10.8,19.2,26.6,19.9,43c0.8,17.7-2.7,35.7-8.3,52.5c-5.6,16.5-14.5,31.7-20.2,48.2c-4.1,12-9.4,29.4,5.2,36.6
			c5.4,2.7,12,3,17.6,0.8c9.1-3.4,13.2-11.8,15-20.8c6.7-32.8,38-58.7,72.3-52.2c7.7,1.5,14.8,5.1,21,9.9
			C1239.4,1761.2,1232.6,1745.6,1224.5,1730.9z"/>
		<path class="st3" d="M1038.1,1652c15.5-7,28.6-27.8,34.2-47.7c-26.6-8.8-55-13.5-84.5-13.5c-2.6,0-5.2,0-7.8,0.1
			c3.7,16.5,6.8,33.9,16.9,47.7C1006.2,1651.4,1022.7,1659,1038.1,1652z"/>
		<path class="st4" d="M1166.6,1691.4c-0.7,8.3-2,16.5-3.1,24.7c-1,7.1-1.7,14.7,1.3,21.5c7.6,17.2,30.2,14.4,43.6,6.4
			c6-3.6,10.5-9,16.1-13.1c-15.6-28.3-36-53.5-60.3-74.4C1167.2,1667.7,1167.6,1679.6,1166.6,1691.4z"/>
		<path class="st3" d="M1080.4,1623.3c0.7,7.6,5.6,13.8,13.5,14.5c6.3,0.6,12.1-3,15.3-8.3c1.6-2.6,2.5-5.5,2.7-8.5c0,0,0,0,0,0
			c-8.8-4.6-17.9-8.7-27.3-12.3C1080.9,1612.5,1079.9,1618.1,1080.4,1623.3z"/>
		<path class="st4" d="M1026.5,1768.9c0.1,0.2,0.3,0.4,0.4,0.6C1026.9,1769.3,1026.7,1769.1,1026.5,1768.9
			C1026.5,1768.8,1026.5,1768.9,1026.5,1768.9z"/>
		<path class="st0" d="M1414.9,1680.6c1.1-7,1.6-14.1,0.5-21.1c-1.1-7.1-3.6-13.7-6.9-20c-6.7-13-14.6-24.9-18.1-39.3
			c-4.4-18.4-0.6-36.6,6.5-53.6c-4.8-1.3-10.1-1.1-15,0c-13,2.9-24.3,10.8-35.2,18.1c-15.6,10.5-37.1,26.8-57,18.6
			c-7.1-2.9-12.8-8.9-13.9-16.7c-0.9-6.6,1.6-12.9,4.7-18.6c6.9-12.4,24.8-31.1,10-44.5c-9.8-8.9-23.9-6.2-35.1-1.9
			c-6.8,2.6-13.3,5.8-19.4,9.7c-10.1,21.2-15.8,45-15.8,70.1c0,29,7.6,56.3,20.9,79.9c8.9-3.4,18-6.2,27.4-8.3
			C1319.3,1641.8,1372.3,1652.3,1414.9,1680.6z"/>
		<path class="st7" d="M1443.1,1447c1.1-10.1-5.2-19.6-15-22.4c-14.2-4-29.2-6.2-44.7-6.2c-62.9,0-117.5,35.7-144.7,87.9
			c-0.9,1.6-1.7,3.3-2.5,5c6.1-3.9,12.6-7.1,19.4-9.7c11.2-4.2,25.3-7,35.1,1.9c14.8,13.4-3.2,32.2-10,44.5
			c-3.1,5.7-5.7,12-4.7,18.6c1.1,7.8,6.8,13.8,13.9,16.7c19.9,8.2,41.4-8.1,57-18.6c10.8-7.3,22.2-15.2,35.2-18.1
			c4.9-1.1,10.2-1.3,15,0c0.4-0.9,0.8-1.9,1.2-2.8c1.8-4.1,3.8-8.1,5.9-11.9c11.6-21.5,26.6-41.5,34.6-64.9
			C1440.9,1460.4,1442.4,1453.8,1443.1,1447z"/>
		<path class="st7" d="M1268.7,1653c-9.3,2.1-18.5,4.8-27.4,8.3c0.5,0.9,1,1.8,1.6,2.7c24.4,41.5,66.7,71.2,116.3,78.6
			c14.9,2.2,29.6-4.3,38-16.7c8.3-12.2,14.1-25.9,16.7-39.7c0.2-0.8,0.3-1.6,0.4-2.4c0.2-1.1,0.4-2.1,0.5-3.2
			C1372.3,1652.3,1319.3,1641.8,1268.7,1653z"/>
		<circle class="st7" cx="1259.6" cy="1601.5" r="16"/>
		<g>
			<g>
				<path class="st3" d="M1438.2,227.6c-0.8-64.7-49.1-117.9-111.7-126.4c5.5,11.2,6,24.8,3.9,37c6.2,11.9,8.6,27.5,9.3,38.6
					c1.4,22-3.1,44.8-11.1,65.3c-12.8,33-35.4,63.6-67.8,79.6c-8.9,4.4-20.3,8.3-31.5,9.2c22,17.2,49.6,27.5,79.7,27.5
					c0.4,0,0.9,0,1.3,0c6-29.9,23.8-59.5,43.9-80.7C1376.6,254.1,1406.6,236.8,1438.2,227.6z"/>
				<path class="st3" d="M1212.4,264.8c13.5-10.6,30.8-15.8,43.4-27.6c3-2.8,5.3-6.6,5-10.7c-0.3-3.1-2-5.9-4.1-8.2
					c-7.5-8.7-16.1-1.3-24,2.8c-6.7,3.5-13.2,7.4-19.9,10.9c-9.3,4.8-20.9,10.8-31.8,8.5c-0.3-0.1-0.5-0.1-0.7-0.2
					c1.4,16.8,6,32.6,13.2,47C1197.6,278.2,1204.7,270.8,1212.4,264.8z"/>
				<path class="st9" d="M1328.6,242.2c8-20.5,12.4-43.3,11.1-65.3c-0.7-11.1-3.2-26.7-9.3-38.6c2.1-12.2,1.7-25.8-3.9-37
					c-5.7-0.8-11.5-1.2-17.4-1.2c-71.3,0-129.2,57.8-129.2,129.2c0,3.7,0.2,7.3,0.5,10.9c0.2,0.1,0.5,0.1,0.7,0.2
					c10.8,2.3,22.4-3.7,31.8-8.5c6.7-3.5,13.2-7.4,19.9-10.9c7.9-4.1,16.5-11.5,24-2.8c2,2.4,3.8,5.1,4.1,8.2c0.3,4.1-2,7.9-5,10.7
					c-12.6,11.8-29.9,17-43.4,27.6c-7.8,6.1-14.8,13.4-18.9,22.4c8.6,17.1,20.9,32,35.8,43.7c11.2-0.9,22.6-4.8,31.5-9.2
					C1293.2,305.7,1315.7,275.1,1328.6,242.2z M1288.2,224.5c-0.3,0.4-0.6,0.9-0.9,1.3C1287.6,225.4,1287.9,225,1288.2,224.5z"/>
				<path class="st9" d="M1438.2,229.3c0-0.5,0-1.1,0-1.6c-31.5,9.2-61.6,26.5-83.9,50.1c-20.1,21.2-37.9,50.8-43.9,80.7
					C1381,357.7,1438.2,300.2,1438.2,229.3z"/>
			</g>
		</g>
		<path class="st16" d="M951.9,1137.5l11.7-7.5l-29.7-46l-28.8,18.6C909.5,1108.9,924.8,1128.1,951.9,1137.5z"/>
		<path class="st1" d="M905,1102.5l-11.6,7.5l29.7,46l28.8-18.5C924.8,1128.1,909.5,1108.9,905,1102.5z"/>
		<line class="st8" x1="451" y1="1251.1" x2="412.3" y2="1185.6"/>
		<line class="st8" x1="417.8" y1="1158.4" x2="474.5" y2="1143.8"/>
		<g>
			<path class="st4" d="M642.2,365.3c3.3-2.5,4.8-45,2-50.5c-3.1-6.1-106.6-5.9-109.9,0c-2.8,5.2-2.5,47.4,2,50.5
				C541.1,368.6,639.8,367.1,642.2,365.3z"/>
		</g>
		<g>
			<circle class="st16" cx="560.3" cy="339.5" r="5.1"/>
			<circle class="st16" cx="589.1" cy="339.5" r="5.1"/>
			<circle class="st16" cx="617.9" cy="339.5" r="5.1"/>
		</g>
		<g>
			<circle class="st7" cx="589.1" cy="222.2" r="5.1"/>
		</g>
		<path class="st4" d="M584,367.3c-10.3,0-14.1,18.4-16.9,18.4c-2.9,0-7-18.9-14.3-18.9c-3.2,0,9.2-7.5,9.2-7.5"/>
		<path class="st7" d="M1255,728.1L1255,728.1l-2.7,0c-1.6,0-2.9-1.3-2.9-2.9l0-2.6c0-1.6-1.4-3-3-3h0c-1.7,0-3,1.4-3,3l0,2.6
			c0,1.6-1.3,2.9-2.9,2.9l-2.5,0c-1.6,0-3.1,1.2-3.1,2.9c-0.1,1.7,1.3,3.1,3,3.1c0,0,0,0,0,0l2.6,0c1.6,0,2.9,1.3,2.9,2.9l0.1,8.2
			c0,1.6,1.4,3,3,3h0c1.7,0,3-1.4,3-3l-0.1-8.3c0-1.6,1.3-2.9,2.9-2.9l2.6,0c2,0,3.5-2,2.8-4.1
			C1257.4,728.9,1256.3,728.1,1255,728.1z"/>
		<line class="st8" x1="1231.5" y1="714.8" x2="1185.8" y2="620.9"/>
		<line class="st8" x1="1168" y1="625.6" x2="1150.7" y2="687.3"/>
		<path class="st8" d="M735.2,219.2c-3.3-10.1-6.5-20.6-9.6-31.4c-2.8-9.6-26.9-95.9-29.3-105.1"/>
		<path class="st8" d="M793.7,287.4c3.3,25.9,2.6,42.5-3.1,44.1c-9.2,2.7-28.7-35.2-48.1-90.7"/>
		<circle class="st1" cx="1187.4" cy="1184.8" r="15.9"/>
		<line class="st5" x1="658" y1="1512.2" x2="606.3" y2="1545.9"/>
		<line class="st5" x1="693.4" y1="1517.6" x2="635.8" y2="1555"/>
		<line class="st5" x1="678.6" y1="1555" x2="626.9" y2="1588.6"/>
		<line class="st5" x1="637.8" y1="1503.8" x2="653.7" y2="1585.9"/>
		<line class="st8" x1="543.9" y1="271.3" x2="581" y2="327.4"/>
		<line class="st8" x1="547.3" y1="242.8" x2="571" y2="230.7"/>
		<line class="st8" x1="1094.8" y1="261.9" x2="1150.7" y2="182.6"/>
		<g>
			<path class="st0" d="M1052.7,1383.5L1052.7,1383.5l-50.9-49.7l-24.5,30.9l59.7,39.8c0.2,0.2,0.4,0.4,0.6,0.5
				c4.6,3.2,11.7,1,15.8-5C1057.6,1394.1,1057.3,1386.7,1052.7,1383.5z"/>
			<path class="st2" d="M1036.3,1339.3c1.1,1,2.4,1.5,3.7,1.6c1.7,0.1,3.5-0.5,4.8-1.9c2.3-2.4,2.2-6.2-0.2-8.5l-28.4-26.9
				c-2.4-2.3-6.2-2.2-8.5,0.2c-2.3,2.4-2.2,6.2,0.2,8.5l10.8,10.2l-6.8,7.7l-76.1-74.2l-48.5,61.2l58.9,39.2l-22.4,27.4l14.6,10.8
				l7.7-9.5l5.7,2.9l-5.2,29.1l18.2,3.8l5.2-29.1l3.8-0.2l9.1,23.3l17-6l-8.6-22.5l14.3,9.5c0.4,0.4,0.8,0.7,1.3,1
				c9.1,6.3,23.1,1.9,31.3-9.8c8.2-11.8,7.5-26.4-1.6-32.8l0.1-0.1l-16.1-15.7l6.9-7.9L1036.3,1339.3z"/>
			<circle class="st13" cx="980.8" cy="1266.3" r="0"/>
			<g>
				<line class="st25" x1="916.7" y1="1231.8" x2="920.2" y2="1199.6"/>
				<line class="st25" x1="887.1" y1="1205.8" x2="883.5" y2="1193.5"/>
				<line class="st25" x1="895.1" y1="1232.4" x2="891.7" y2="1220.6"/>
				<line class="st25" x1="876.6" y1="1243.5" x2="859.1" y2="1221.6"/>
				<line class="st25" x1="936.9" y1="1238.1" x2="949.7" y2="1214.4"/>
				<line class="st25" x1="953.3" y1="1251.7" x2="983.6" y2="1227.1"/>
			</g>
			<line class="st5" x1="925.8" y1="1344.3" x2="972.8" y2="1374.4"/>
			<line class="st5" x1="986.4" y1="1304.1" x2="1014.8" y2="1333.3"/>
			<path class="st5" d="M959.2,1275.8c3.2,15-0.7,30.1-9.8,41.5"/>
			<path class="st7" d="M884.3,1432.4c-17.2,20.6-33.3,12.8-52.1,7c-12.8-3.9-25.7-2.7-21,3.6c7.7,10.3,44.1,36,54.9,38.2
				c2.7,0.6,17.3-18.1,29.1-33.4c-2.4-8.2-5.2-14.9-7.4-19.7L884.3,1432.4z"/>
			<path class="st0" d="M895.7,1447.1l42.7-52.3l-14.6-10.8l-36,44.1c2.2,4.8,4.9,11.5,7.4,19.7
				C895.3,1447.6,895.5,1447.3,895.7,1447.1L895.7,1447.1z"/>
			<path class="st7" d="M890.6,1594.6c-10,8.9-16.1,20.2-8.3,19.6c6.8-0.5,22.8-8,36.4-12c11.9-3.5,21.6-3.4,25.2-7.1
				c1.7-1.8,2.1-26,4.7-46.1c-6.5-3.9-13-7.1-17.9-9.4C921.7,1572.9,908.4,1578.9,890.6,1594.6z"/>
			<path class="st0" d="M949.8,1538.6l15-117.5l-18.2-3.8L930.9,1539c-0.1,0.2-0.1,0.4-0.2,0.6c4.9,2.2,11.4,5.5,17.9,9.4
				c0.4-2.7,0.8-5.4,1.2-7.9C950,1540.3,950,1539.4,949.8,1538.6z"/>
			<path class="st0" d="M1042.7,1450.5c-5.1,1.5-10.7,3.1-16.5,4.5c-4.8,1.2-8.7,0.3-12.2-8.9v0l-14.1-36.9l-17,6l17,43.6
				c8.9,22.9,13,21.4,26,16.7l0,0l12.9-4.7c1.6-0.6,3.1-1.1,4.6-1.6C1042.8,1465.4,1041.9,1457.6,1042.7,1450.5z"/>
			<path class="st7" d="M1100.6,1492.9c-1.4-12.8-16.5-44.3-24.7-51.6c-1.6-1.5-14.7,3.7-33.2,9.2c-0.8,7.1,0.1,14.9,0.7,18.7
				c20.8-6.9,23.4-1.8,39,13.8C1091.9,1492.5,1101.5,1500.7,1100.6,1492.9z"/>
			
				<ellipse transform="matrix(6.590126e-02 -0.9978 0.9978 6.590126e-02 -432.6532 2110.2886)" class="st4" cx="910.8" cy="1286.2" rx="39" ry="39"/>
			<g>
				<path class="st7" d="M914.8,1283.7l7.4-11.8c0.2-0.4,0.2-0.9-0.2-1.2c-3.3-2.4-7.3-3.7-11.8-3.6c-9.1,0.2-16.8,7-18.4,15.9
					c-2.1,12.3,7.8,23.3,20.3,22.4c8-0.5,14.9-6.2,17.1-13.9c0.5-1.7,0.7-3.4,0.7-5.1c0-0.5-0.4-0.8-0.8-0.9l-14.1-1.2
					C914.8,1284.2,914.7,1283.9,914.8,1283.7z"/>
			</g>
		</g>
		<path class="st4" d="M1279.9,938.9c-0.3-16.7-14.4-32.9-33.2-27.4c-19.1,5.5-34.3,24.8-28,45.2c5.8,18.6,27.8,18,41.9,10.4
			c4.7-2.5,9.3-5.5,12.8-9.6C1278.1,952.1,1280.1,945.4,1279.9,938.9z"/>
		<circle class="st4" cx="935.5" cy="1741.3" r="19.6"/>
		<g>
			<path class="st13" d="M334.2,1670.7c-3.7,4.5-7.5,9.1-11.1,13.8c-11-4.4-22.6-6-34.6-4.5l-12.6,28.6c3.8-0.8,14.3-2,26.7,4.2
				c-17.2,25.2-29.2,46.6-28.2,47.6c22.9,26.2,67.4,16.9,69.3,14.1s43.9-69.6,45.2-87.8C390.9,1657.7,348.6,1653.5,334.2,1670.7z"/>
		</g>
		<path class="st1" d="M375.8,1817.6c-7.1-6.7-16.3-8-25.7-6.8c-11.4,1.4-22.7,4.4-34.1,6.4c-4.4,0.8-10.8,2-14.5-1.3
			c-5.9-5.2-1.6-15.4,1.4-20.9c4.2-7.9,11.5-13.6,16.6-20.9c0.2-0.3,0.4-0.6,0.6-1c4.1-6.6,3.9-15.5-3.1-20.9
			c-4.2-3.3-10.2-4-15.1-1.7c-4.5,2.2-6.2,6.1-7.9,10.6c-3.8,9.7-5.1,21.7-12.3,29.7c-1.7,1.9-3.6,3.7-5.7,5.4
			c-4.6,3.7-13.2,10.2-18.6,4.3c-4.4-4.8,0.3-11.7,1.3-16.9c1.1-5.4,1.1-11.9-3.9-15.5c-5.3-3.7-12.1-1.3-17,1.7
			c-5.3,3.2-9.4,7.4-12.9,12.4c-3.3,4.6-8.4,7.1-12.1,0.7c-1.8-3.2-1.2-7.2-0.2-10.7c3.1-11.2,10.3-24.4,20.4-30.3
			c4.4-2.6,8.3-5.2,4.6-6c-0.5-0.4-1-0.8-1.7-1c-5.2-1.9-9.7-4.6-13.9-8.2c-1.6-1.3-3.2-1.4-4.6-0.7c-1.1,0-2.2,0.4-3.2,1.4
			c0,0-16.8,30.9-34.4,29.6c-10.7-0.8-17.2-24.5-23.2-32.5c-7.5-9.8-16.7-18.5-29-21.6c-10.6-2.7-22.4-0.4-30.6,7.1
			c-9.4,8.8-10.2,21.4-6.1,33.1c2.1,6,5.8,11.4,7.6,17.5c1.3,4.4,1.2,12.2-4.7,13.2c-7.1,1.2-14.9-5.4-21.6-7.3
			c-8.4-2.4-17.7-1.7-25.5,2.1c-18,8.7-28.8,37.1-16.7,54.4c13.8,19.8,57.2,9,62.4,33.7c2.5,11.8,2.6,23.5,8.1,34.5
			c5,10.1,13.7,18.9,24.8,21.9c11.9,3.3,24.6-0.1,35.5-5.1c11.8-5.5,19.6-14.3,28.8-23.2c6-5.8,18.8-14.6,26.8-6.4
			c3.9,4,3,11.2,3.1,16.4c0.1,6.1,0.1,12.2,2,18.1c3.3,10.6,12.6,18.7,23.9,19.3c13,0.6,21.9-7.9,27.1-18.9
			c2.8-5.9,5.3-11.5,12.2-13c2.6-0.6,5.4-0.6,8.1-0.3c31.7,11.4,68.6-0.7,85.4-31.4C386.7,1852.9,390.3,1831.1,375.8,1817.6z"/>
		<path class="st13" d="M193.5,1732.8c-1.2-1.5,27.2-43,56.8-73.8c13.5-14,49.6-7.9,46.1,17c-2.1,15.6-42.2,70.5-44,72.9
			C250.6,1751.3,211.7,1756.7,193.5,1732.8z"/>
	</g>
</g>
<g id="Layer_3">
</g>
</svg>
