<svg width="1920" height="240" viewBox="0 0 1920 240" version="1.1" xmlns="http://www.w3.org/2000/svg" xmlns:xlink="http://www.w3.org/1999/xlink" xmlns:figma="http://www.figma.com/figma/ns">
<title>goopy-2</title>
<desc>Created using Figma</desc>
<g id="Canvas" transform="translate(961 -1277)" figma:type="canvas">
<mask id="mask0_alpha" mask-type="alpha">
<path d="M -961 1277L 959 1277L 959 1517L -961 1517L -961 1277Z" fill="#FFFFFF"/>
</mask>
<g id="goopy-2" mask="url(#mask0_alpha)" figma:type="frame">
<g id="Vector 2" figma:type="vector">
<use xlink:href="#path0_fill" transform="translate(-1003.5 1387)" fill="#0F015E"/>
</g>
<g id="Ellipse 6" figma:type="vector">
<use xlink:href="#path1_fill" transform="matrix(0.954313 0.298808 -0.298808 0.954313 -791.423 1406.96)" fill="#0F015E"/>
</g>
<g id="Ellipse 6" figma:type="vector">
<use xlink:href="#path2_fill" transform="matrix(0.890343 0.455291 -0.455291 0.890343 -777.544 1404.04)" fill="#0F015E"/>
</g>
<g id="Ellipse 7" figma:type="vector">
<use xlink:href="#path3_fill" transform="matrix(0.93 -0.36756 0.36756 0.93 -338 1420.34)" fill="#0F015E"/>
</g>
<g id="Ellipse 8" figma:type="ellipse">
<use xlink:href="#path4_fill" transform="matrix(0.973213 -0.229907 0.229907 0.973213 719 1403.9)" fill="#0F015E"/>
</g>
<g id="Ellipse 9" figma:type="ellipse">
<use xlink:href="#path5_fill" transform="matrix(0.967421 -0.253173 0.253173 0.967421 222 1455.62)" fill="#0F015E"/>
</g>
</g>
</g>
<defs>
<path id="path0_fill" d="M 0.504779 98.4115C 0.331982 97.9518 0.163715 97.4813 0 97L 0.504779 98.4115C 17.9233 144.753 81.3841 82.0374 170.5 42.5C 260.5 2.57042 228 102 284 113C 340 124 344 80.5 405 80.5C 466 80.5 486 138 584.5 113C 683 88 678 30.5 760.5 55.5C 843 80.5 873.74 92.6555 965 113C 1043.5 130.5 1134 118.5 1228.5 80.5C 1323 42.5 1461.5 97 1572.5 97C 1683.5 97 1715.5 4.5 1808 42.5C 1900.5 80.5 1955.5 23.3333 1980 0L 1980 152.5L 27 172.5L 0.504779 98.4115Z"/>
<path id="path1_fill" d="M 24.7879 7.46973C 24.7879 11.6612 18.9415 7.20455 12.7964 5.98505C 6.65125 4.76555 1.01163e-05 7.76161 1.01164e-05 5.27633C 1.01165e-05 2.79105 5.49064 0 12.1181 0C 18.7455 0 24.7879 4.98445 24.7879 7.46973Z"/>
<path id="path2_fill" d="M 11.4577 3.63984C 11.4577 5.32459 9.22169 3.66008 6.08523 3.01758C 2.94878 2.37509 -0.435865 3.93906 0.0461069 2.65286C 0.528079 1.36665 3.78022 -0.232156 6.56602 0.0281253C 9.35182 0.288407 11.4577 1.9551 11.4577 3.63984Z"/>
<path id="path3_fill" d="M 55.3403 19.9441C 55.3403 27.6648 42.0843 17.6737 27.9611 17.6737C 13.8379 17.6737 0 23.6004 0 15.8797C 0 8.15902 13.0363 0 27.1595 0C 41.2827 0 55.3403 12.2234 55.3403 19.9441Z"/>
<path id="path4_fill" d="M 30 5.11265C 30 7.93628 23.2843 10.2253 15 10.2253C 6.71573 10.2253 0 7.93628 0 5.11265C 0 2.28901 6.71573 0 15 0C 23.2843 0 30 2.28901 30 5.11265Z"/>
<path id="path5_fill" d="M 38 3C 38 4.65685 29.4934 6 19 6C 8.50659 6 0 4.65685 0 3C 0 1.34315 8.50659 0 19 0C 29.4934 0 38 1.34315 38 3Z"/>
</defs>
</svg>
