<svg width="1920" height="240" viewBox="0 0 1920 240" version="1.1" xmlns="http://www.w3.org/2000/svg" xmlns:xlink="http://www.w3.org/1999/xlink" xmlns:figma="http://www.figma.com/figma/ns">
<title>goopy</title>
<desc>Created using Figma</desc>
<g id="Canvas" transform="translate(961 -806)" figma:type="canvas">
<mask id="mask0_alpha" mask-type="alpha">
<path d="M -961 806L 959 806L 959 1046L -961 1046L -961 806Z" fill="#FFFFFF"/>
</mask>
<g id="goopy" mask="url(#mask0_alpha)" figma:type="frame">
<g id="Vector" figma:type="vector">
<use xlink:href="#path0_fill" transform="translate(-1050.5 857)" fill="#FFFFFF"/>
</g>
<g id="Ellipse" figma:type="vector">
<use xlink:href="#path1_fill" transform="translate(-569.5 830.276)" fill="#FFFFFF"/>
</g>
<g id="Ellipse 2" figma:type="ellipse">
<use xlink:href="#path2_fill" transform="matrix(0.866025 0.5 -0.5 0.866025 -506 819)" fill="#FFFFFF"/>
</g>
<g id="Ellipse 2" figma:type="ellipse">
<use xlink:href="#path3_fill" transform="matrix(0.866025 0.5 -0.5 0.866025 -486.538 819)" fill="#FFFFFF"/>
</g>
<g id="Ellipse 3" figma:type="vector">
<use xlink:href="#path4_fill" transform="matrix(0.991804 -0.127764 0.127764 0.991804 273 889.371)" fill="#FFFFFF"/>
</g>
<g id="Vector" figma:type="vector">
<use xlink:href="#path0_fill" transform="translate(863 857)" fill="#FFFFFF"/>
</g>
<g id="Ellipse 4" figma:type="ellipse">
<use xlink:href="#path5_fill" transform="matrix(0.954583 -0.297945 0.297945 0.954583 759 941.64)" fill="#FFFFFF"/>
</g>
<g id="Ellipse 4" figma:type="ellipse">
<use xlink:href="#path6_fill" transform="matrix(0.929849 0.367942 -0.367942 0.929849 805.255 924)" fill="#FFFFFF"/>
</g>
<g id="Ellipse 4" figma:type="ellipse">
<use xlink:href="#path7_fill" transform="matrix(-0.00176578 -0.999998 0.999998 -0.00176578 828.025 936.018)" fill="#FFFFFF"/>
</g>
<g id="Ellipse 5" figma:type="ellipse">
<use xlink:href="#path8_fill" transform="matrix(0.994709 -0.102731 0.102731 0.994709 363.77 881.527)" fill="#FFFFFF"/>
</g>
</g>
</g>
<defs>
<path id="path0_fill" d="M 307 69C 229.8 108.6 103.5 94.8333 50 83L 0 464.5L 2145 489.5L 2126 196.5C 2105.67 174.333 2057.8 125 2029 105C 1993 80 1929.5 69 1841 105C 1752.5 141 1631.5 37 1473 37C 1342.5 37 1122.5 105 1023 105C 923.5 105 835.5 69 755 69C 674.5 69 627.5 97 542 83C 456.5 69 544.648 -2.40527e-05 486.5 0C 445 1.71661e-05 403.5 19.5 307 69Z"/>
<path id="path1_fill" d="M 63 9.72417C 82.5001 28.2242 54 56.2242 46 52.2242C 38 48.2242 51.5716 32.2242 39.5 19.2242C 27.4283 6.22419 -3.64781e-05 15.7242 3.63852e-11 9.72418C 3.64781e-05 3.7242 43.4999 -8.77581 63 9.72417Z"/>
<path id="path2_fill" d="M 19.8905 5C 19.8905 7.76142 15.4379 10 9.94525 10C 4.45264 10 0 7.76142 0 5C 0 2.23858 4.45264 0 9.94525 0C 15.4379 0 19.8905 2.23858 19.8905 5Z"/>
<path id="path3_fill" d="M 9.79386 2.46194C 9.79386 3.82164 7.60143 4.92389 4.89693 4.92389C 2.19243 4.92389 0 3.82164 0 2.46194C 0 1.10225 2.19243 0 4.89693 0C 7.60143 0 9.79386 1.10225 9.79386 2.46194Z"/>
<path id="path4_fill" d="M 73.3478 7C 73.3478 10.866 50.4878 10.1635 30.2334 10.1635C 13.05 10.1634 -8.11242e-13 12.4805 4.12138e-26 7C 4.12138e-26 3.13401 16.4195 0 36.6739 0C 56.9283 0 73.3478 3.13401 73.3478 7Z"/>
<path id="path5_fill" d="M 29 10.5C 29 16.299 22.5081 21 14.5 21C 6.49187 21 0 16.299 0 10.5C 0 4.70101 6.49187 0 14.5 0C 22.5081 0 29 4.70101 29 10.5Z"/>
<path id="path6_fill" d="M 13 8.5C 13 13.1944 10.0899 17 6.5 17C 2.91015 17 0 13.1944 0 8.5C 0 3.80558 2.91015 0 6.5 0C 10.0899 0 13 3.80558 13 8.5Z"/>
<path id="path7_fill" d="M 14 5C 14 7.76142 10.866 10 7 10C 3.13401 10 0 7.76142 0 5C 0 2.23858 3.13401 0 7 0C 10.866 0 14 2.23858 14 5Z"/>
<path id="path8_fill" d="M 10 2.5C 10 3.88071 7.76142 5 5 5C 2.23858 5 0 3.88071 0 2.5C 0 1.11929 2.23858 0 5 0C 7.76142 0 10 1.11929 10 2.5Z"/>
</defs>
</svg>
