<?xml version="1.0" encoding="utf-8"?>
<!-- Generator: Adobe Illustrator 20.0.0, SVG Export Plug-In . SVG Version: 6.00 Build 0)  -->
<svg version="1.1" xmlns="http://www.w3.org/2000/svg" xmlns:xlink="http://www.w3.org/1999/xlink" x="0px" y="0px"
	 viewBox="0 0 387.1 615.1" style="enable-background:new 0 0 387.1 615.1;" xml:space="preserve">
<style type="text/css">
	.st0{fill:#1CD2F2;}
	.st1{fill:url(#SVGID_1_);}
	.st2{fill:#0F015E;}
	.st3{fill:url(#SVGID_2_);}
	.st4{fill:url(#SVGID_3_);}
	.st5{fill:none;stroke:#FFFFFF;stroke-width:5;stroke-linecap:round;stroke-miterlimit:10;}
	.st6{fill:none;stroke:#FFFFFF;stroke-width:4;stroke-linecap:round;stroke-miterlimit:10;}
	.st7{fill:#FFFFFF;}
	.st8{fill:#ACC7FF;}
	.st9{fill:#C5D3E7;}
	.st10{fill:none;stroke:#7B16FF;stroke-width:2;stroke-linecap:round;stroke-miterlimit:10;}
	.st11{fill:#5F45FC;}
</style>
<g id="background">
</g>
<g id="Layer_1">
	<g>
		<path class="st0" d="M202.6,591.5c5.4-11-45.2-51.1-6-54c33.2-2.4,71.5,23.8,91.3,39.6c16-17.4,27-39.7,30.3-64.8
			c-31.8-0.9-87.8-35.8-79.6-48.3c9-13.9,50.5,9.2,13.9-44c-8.6-12.5-7.5-22.7-2.7-30.5c-10.9-4.9-22.8-8.3-35.3-9.7
			c-42-4.7-81.3,13.2-105.8,44c19,17.1,64.1,60.7,56.9,85.1c-6.7,22.6-53,4.3-80.8,7.4c4,24.5,15.7,46.8,32.8,64
			C148.1,572.6,197.7,601.4,202.6,591.5z"/>
		<linearGradient id="SVGID_1_" gradientUnits="userSpaceOnUse" x1="391.2011" y1="377.3222" x2="243.681" y2="478.4243">
			<stop  offset="0" style="stop-color:#0F015E"/>
			<stop  offset="1" style="stop-color:#5F45FC"/>
		</linearGradient>
		<path class="st1" d="M252.4,419.9c36.6,53.2-4.9,30.1-13.9,44c-8.2,12.6,47.9,47.4,79.6,48.3c0.1-0.6,0.2-1.3,0.3-1.9
			c5.9-52.2-23.3-100.3-68.7-120.8C245,397.2,243.8,407.4,252.4,419.9z"/>
		<path class="st2" d="M165.5,508.8c7.2-24.3-37.9-68-56.9-85.1c-13.3,16.7-22.2,37.2-24.8,60c-1.3,11.1-0.9,21.9,0.8,32.4
			C112.5,513.1,158.9,531.5,165.5,508.8z"/>
		<path class="st2" d="M287.9,577c-19.8-15.8-58.1-42-91.3-39.6c-39.1,2.9,11.4,43,6,54c-4.9,9.9-54.5-18.9-85.1-11.2
			c18.3,18.4,42.7,30.9,70.4,34.1C226.7,618.7,263.3,603.7,287.9,577z"/>
		<linearGradient id="SVGID_2_" gradientUnits="userSpaceOnUse" x1="352.2107" y1="320.4305" x2="204.6906" y2="421.5326">
			<stop  offset="0" style="stop-color:#0F015E"/>
			<stop  offset="1" style="stop-color:#5F45FC"/>
		</linearGradient>
		<circle class="st3" cx="201.4" cy="423.8" r="27.1"/>
		<linearGradient id="SVGID_3_" gradientUnits="userSpaceOnUse" x1="375.566" y1="354.5088" x2="228.046" y2="455.6109">
			<stop  offset="0" style="stop-color:#0F015E"/>
			<stop  offset="1" style="stop-color:#5F45FC"/>
		</linearGradient>
		<circle class="st4" cx="189.5" cy="482" r="13.5"/>
		<path class="st5" d="M37.8,560.2c-20.9,2.4-33.7,1.4-35.2-3.3c-2.2-7,20.5-20.9,58.2-37.3"/>
		<path class="st5" d="M355.3,435.1c17.3-1.5,27.8-0.3,29.1,4c4,13.1-78.2,50-183.6,82.6c-55.2,17-105.8,29.5-142.1,35.6"/>
		<circle class="st6" cx="306.7" cy="547" r="17.4"/>
		<circle class="st6" cx="362.8" cy="561.5" r="8.7"/>
		<path class="st7" d="M362.6,513.4L362.6,513.4l-2.7,0c-1.6,0-2.9-1.3-2.9-2.9l0-2.6c0-1.6-1.4-3-3-3h0c-1.7,0-3,1.4-3,3l0,2.6
			c0,1.6-1.3,2.9-2.9,2.9l-2.5,0c-1.6,0-3.1,1.2-3.1,2.9c-0.1,1.7,1.3,3.1,3,3.1c0,0,0,0,0,0l2.6,0c1.6,0,2.9,1.3,2.9,2.9l0.1,2.6
			c0,1.6,1.4,3,3,3h0c1.7,0,3-1.4,3-3l-0.1-2.7c0-1.6,1.3-2.9,2.9-2.9l2.6,0c2,0,3.5-2,2.8-4.1C365,514.2,363.9,513.4,362.6,513.4z"
			/>
		<path class="st7" d="M47.2,473.5L47.2,473.5l-2.3-1.3c-1.4-0.8-1.9-2.5-1.2-3.9l1.3-2.3c0.8-1.4,0.3-3.3-1.2-4.1l0,0
			c-1.5-0.8-3.3-0.3-4.1,1.2l-1.3,2.3c-0.8,1.4-2.5,1.9-3.9,1.2l-2.2-1.2c-1.4-0.8-3.3-0.4-4.1,1c-0.9,1.5-0.4,3.4,1.1,4.2
			c0,0,0,0,0,0l2.3,1.3c1.4,0.8,1.9,2.5,1.2,3.9l-1.2,2.3c-0.8,1.4-0.3,3.3,1.2,4.1l0,0c1.4,0.8,3.3,0.3,4.1-1.2l1.2-2.4
			c0.8-1.4,2.5-1.9,3.9-1.2l2.3,1.3c1.8,0.9,4,0,4.4-2.2C48.9,475.3,48.3,474.1,47.2,473.5z"/>
		<path class="st8" d="M311.8,192L311.8,192l-50.9-49.7l-24.5,30.9l59.7,39.8c0.2,0.2,0.4,0.4,0.6,0.5c4.6,3.2,11.7,1,15.8-5
			C316.7,202.6,316.4,195.2,311.8,192z"/>
		<path class="st7" d="M295.4,147.8c1.1,1,2.4,1.5,3.7,1.6c1.7,0.1,3.5-0.5,4.8-1.9c2.3-2.4,2.2-6.2-0.2-8.5l-28.4-26.9
			c-2.4-2.3-6.2-2.2-8.5,0.2c-2.3,2.4-2.2,6.2,0.2,8.5l10.8,10.2l-6.8,7.7l-76.1-74.2l-48.5,61.2l58.9,39.2l-16.5,20.3l0,0l0,0
			l-5.9,7.2l14.6,10.8l7.7-9.5l5.7,2.9l-5.2,29.1l18.2,3.8l5.2-29.1l3.8-0.2l9.1,23.3l17-6l-8.6-22.5l14.3,9.5
			c0.4,0.4,0.8,0.7,1.3,1c9.1,6.3,23.1,1.9,31.3-9.8c8.2-11.8,7.5-26.4-1.6-32.8l0.1-0.1l-16.1-15.7l6.9-7.9L295.4,147.8z"/>
		<circle class="st9" cx="239.9" cy="74.8" r="0"/>
		<g>
			<line class="st6" x1="175.8" y1="40.3" x2="179.3" y2="8.1"/>
			<line class="st6" x1="146.2" y1="14.3" x2="142.6" y2="2"/>
			<line class="st6" x1="154.2" y1="40.9" x2="150.8" y2="29.1"/>
			<line class="st6" x1="135.7" y1="52" x2="118.2" y2="30.1"/>
			<line class="st6" x1="196" y1="46.6" x2="208.8" y2="22.9"/>
			<line class="st6" x1="212.3" y1="60.2" x2="242.7" y2="35.6"/>
		</g>
		<line class="st10" x1="184.8" y1="152.8" x2="231.9" y2="182.9"/>
		<line class="st10" x1="245.4" y1="112.6" x2="273.9" y2="141.8"/>
		<path class="st10" d="M218.3,84.3c3.2,15-0.7,30.1-9.8,41.5"/>
		<path class="st2" d="M143.4,240.9c-17.2,20.6-33.3,12.8-52.1,7c-12.8-3.9-25.7-2.7-21,3.6c7.7,10.3,44.1,36,54.9,38.2
			c2.7,0.6,17.3-18.1,29.1-33.4c-2.4-8.2-5.2-14.9-7.4-19.7L143.4,240.9z"/>
		<path class="st8" d="M154.8,255.6l42.7-52.3l-14.6-10.8l-36,44.1c2.2,4.8,4.9,11.5,7.4,19.7C154.4,256.1,154.6,255.8,154.8,255.6
			C154.8,255.6,154.8,255.6,154.8,255.6z"/>
		<path class="st2" d="M149.7,378.1c-10,8.9-16.1,20.2-8.3,19.6c6.8-0.5,22.8-8,36.4-12c11.9-3.5,21.6-3.4,25.2-7.1
			c1.7-1.8,2.1-26,4.7-46.1c-6.5-3.9-13-7.1-17.9-9.4C180.8,356.4,167.5,362.4,149.7,378.1z"/>
		<path class="st8" d="M208.9,322.1l15-92.5l-18.2-3.8L190,322.5c-0.1,0.2-0.1,0.4-0.2,0.6c4.9,2.2,11.4,5.5,17.9,9.4
			c0.4-2.7,0.8-5.4,1.2-7.9C209,323.8,209,322.9,208.9,322.1z"/>
		<path class="st8" d="M301.8,259c-5.1,1.5-10.7,3.1-16.5,4.5c-4.8,1.2-8.7,0.3-12.2-8.9v0l-14.1-36.9l-17,6l17,43.6
			c8.9,22.9,13,21.4,26,16.7l0,0l12.9-4.7c1.6-0.6,3.1-1.1,4.6-1.6C301.9,273.9,301,266.1,301.8,259z"/>
		<path class="st2" d="M359.7,301.4c-1.4-12.8-16.5-44.3-24.7-51.6c-1.6-1.5-14.7,3.7-33.2,9.2c-0.8,7.1,0.1,14.9,0.7,18.7
			c20.8-6.9,23.4-1.8,39,13.8C351,301,360.5,309.2,359.7,301.4z"/>
		
			<ellipse transform="matrix(6.590126e-02 -0.9978 0.9978 6.590126e-02 64.1653 258.0008)" class="st8" cx="169.9" cy="94.7" rx="39" ry="39"/>
		<g>
			<path class="st11" d="M173.9,92.2l7.4-11.8c0.2-0.4,0.2-0.9-0.2-1.2c-3.3-2.4-7.3-3.7-11.8-3.6c-9.1,0.2-16.8,7-18.4,15.9
				c-2.1,12.3,7.8,23.3,20.3,22.4c8-0.5,14.9-6.2,17.1-13.9c0.5-1.7,0.7-3.4,0.7-5.1c0-0.5-0.4-0.8-0.8-0.9l-14.1-1.2
				C173.9,92.7,173.8,92.4,173.9,92.2z"/>
		</g>
	</g>
</g>
<g id="Layer_3">
</g>
</svg>
