<?xml version="1.0" encoding="UTF-8" standalone="no"?><!DOCTYPE svg PUBLIC "-//W3C//DTD SVG 1.1//EN" "http://www.w3.org/Graphics/SVG/1.1/DTD/svg11.dtd"><svg width="100%" height="100%" viewBox="0 0 352 395" version="1.1" xmlns="http://www.w3.org/2000/svg" xmlns:xlink="http://www.w3.org/1999/xlink" xml:space="preserve" style="fill-rule:evenodd;clip-rule:evenodd;stroke-linejoin:round;stroke-miterlimit:1.41421;"><g id="planet.-2"><g><path d="M281.9,153c1.4,-39.7 79.6,-74.9 68.5,-115.1c-11.9,-43.2 -76.2,-54.6 -123.5,-6.5c-35.5,36 -18.2,85.6 -38.6,97.6c-12.6,7.4 -35.5,-17.9 -56,3.2c-29.4,30.1 -12.5,78.3 -31,80.6c-11.4,1.4 -23.7,-9.5 -12.7,-36.3c11,-26.8 -36.6,-33.8 -45,-1.8c-4.6,17.5 8.7,28.3 8.4,46.3c-0.3,16.5 -33.6,31.1 -46.8,66.8c-0.1,0.2 -0.1,0.4 -0.2,0.5c-0.3,0.9 -0.6,1.8 -0.9,2.7c-0.2,0.5 -0.3,1 -0.5,1.5c-0.2,0.7 -0.4,1.5 -0.6,2.2c-0.1,0.4 -0.2,0.8 -0.3,1.2c-0.2,0.7 -0.3,1.4 -0.5,2.1c-1.2,5.6 -1.9,11.4 -1.9,17.4c0,43.9 35.6,79.5 79.5,79.5c31.6,0 58.8,-18.4 71.7,-45c7.9,-13.3 10.2,-43 15.1,-66.3c4.9,-23.3 25.8,-40.8 44.1,-29.1c12.6,8.1 -6.5,40.4 10.9,46.3c12.7,4.4 15.9,-17.3 28.3,-33.8c16.2,-21.6 41.3,-16.1 54.9,-43.8c13.6,-27.7 -23.7,-48.4 -22.9,-70.2Z" style="fill:#acc7ff;fill-rule:nonzero;"/><path d="M86.5,332.6c-12.1,-2.1 -30.5,21.9 -37.7,31.9c8.7,5.5 19.1,8.6 30.1,8.6c5.4,0 10.6,-0.8 15.5,-2.2c-3,-13.1 3.3,-36.3 -7.9,-38.3Z" style="fill:#171a21;fill-rule:nonzero;"/><path d="M124.1,310.4c-5.6,-2 -22.1,24.4 -25.6,5.8c-3,-15.8 7.5,-35.6 14,-45.9c-9.2,-6.7 -20.5,-10.8 -32.7,-11c1.3,15.3 -12.4,44 -18.9,40.8c-7.1,-3.6 1.7,-24.7 -21.8,-4.3c-5.5,4.8 -10.5,4.8 -14.5,3c-1.8,5.5 -2.7,11.4 -2.7,17.5c0,20.4 10.7,38.3 26.8,48.3c7.2,-10 25.6,-34 37.7,-31.9c11.2,2 4.9,25.2 7.9,38.4c11.6,-3.3 21.6,-10.1 28.9,-19.2c-5.2,-14.4 5.9,-39.7 0.9,-41.5Z" style="fill:#5f45fc;fill-rule:nonzero;"/><path d="M112.6,270.2c-6.5,10.4 -17,30.1 -14,45.9c3.5,18.6 20,-7.8 25.6,-5.8c5,1.8 -6.1,27.1 -0.8,41.4c7.8,-9.8 12.5,-22.1 12.5,-35.6c0,-18.8 -9.2,-35.5 -23.3,-45.9Z" style="fill:#171a21;fill-rule:nonzero;"/><circle cx="47.8" cy="322.2" r="13.1" style="fill:#171a21;"/><circle cx="78.1" cy="309.1" r="6.5" style="fill:#171a21;"/><path d="M257.455,130.208l0.109,0.015l0.107,0.024l0.105,0.03l0.102,0.039l0.1,0.046l0.096,0.053l0.091,0.06l0.088,0.066l0.082,0.073l0.076,0.078l0.071,0.084l0.064,0.089l0.058,0.093l0.05,0.097l0.044,0.101l0.036,0.103l0.028,0.106l0.021,0.108l0.012,0.108l0.005,0.11l-0.003,0.109l-0.012,0.109l-0.019,0.108l-0.027,0.106l-0.035,0.104l-0.042,0.101l-0.05,0.098l-0.056,0.094l-0.063,0.09l-0.07,0.084l-0.075,0.08l-20.7,20.2l-0.082,0.073l-0.086,0.068l-0.091,0.061l-0.095,0.054l-0.099,0.047l-0.102,0.04l-0.105,0.032l-0.107,0.024l-0.108,0.017l-0.109,0.009l-0.11,0l-0.109,-0.007l-0.109,-0.015l-0.107,-0.024l-0.105,-0.03l-0.102,-0.039l-0.1,-0.046l-0.096,-0.053l-0.091,-0.06l-0.088,-0.066l-0.082,-0.073l-0.076,-0.078l-0.071,-0.084l-0.064,-0.089l-0.058,-0.093l-0.05,-0.097l-0.044,-0.101l-0.036,-0.103l-0.028,-0.106l-0.021,-0.108l-0.012,-0.108l-0.005,-0.11l0.003,-0.109l0.012,-0.109l0.019,-0.108l0.027,-0.106l0.035,-0.104l0.042,-0.101l0.05,-0.098l0.056,-0.094l0.063,-0.09l0.07,-0.084l0.075,-0.08l20.7,-20.2l0.082,-0.073l0.086,-0.068l0.091,-0.061l0.095,-0.054l0.099,-0.047l0.102,-0.04l0.105,-0.032l0.107,-0.024l0.108,-0.017l0.109,-0.009l0.11,0l0.109,0.007Z" style="fill:#f6f7f8;"/><path d="M221.585,165.312l0.22,0.044l0.211,0.076l0.197,0.107l0.179,0.136l0.156,0.16l0.131,0.182l0.103,0.199l0.071,0.213l0.039,0.221l0.006,0.224l-0.028,0.222l-0.06,0.216l-0.092,0.205l-0.122,0.188l-0.148,0.168l-89.9,87.8l-0.172,0.144l-0.191,0.117l-0.206,0.088l-0.218,0.055l-0.223,0.023l-0.224,-0.011l-0.219,-0.045l-0.211,-0.076l-0.197,-0.107l-0.179,-0.136l-0.157,-0.16l-0.13,-0.182l-0.103,-0.199l-0.071,-0.213l-0.04,-0.221l-0.005,-0.224l0.027,-0.222l0.061,-0.216l0.092,-0.204l0.122,-0.189l0.148,-0.168l89.9,-87.8l0.172,-0.144l0.191,-0.117l0.206,-0.088l0.218,-0.055l0.223,-0.022l0.223,0.011Z" style="fill:#f6f7f8;"/><path d="M252.808,168.214l0.149,0.029l0.146,0.044l0.14,0.058l0.134,0.072l0.126,0.085l0.116,0.098l0.106,0.108l0.095,0.119l0.082,0.128l0.069,0.136l0.054,0.141l0.04,0.147l0.025,0.15l0.01,0.152l-0.006,0.151l-0.021,0.151l-0.036,0.147l-0.051,0.144l-0.065,0.137l-0.079,0.13l-0.091,0.121l-0.104,0.112l-40.7,39.7l-0.114,0.1l-0.123,0.089l-0.132,0.075l-0.139,0.062l-0.144,0.047l-0.149,0.033l-0.151,0.017l-0.152,0.002l-0.151,-0.013l-0.149,-0.029l-0.146,-0.044l-0.14,-0.058l-0.134,-0.072l-0.126,-0.085l-0.116,-0.098l-0.106,-0.108l-0.095,-0.119l-0.082,-0.128l-0.069,-0.136l-0.054,-0.142l-0.04,-0.146l-0.025,-0.15l-0.01,-0.152l0.006,-0.151l0.021,-0.151l0.036,-0.148l0.051,-0.143l0.065,-0.137l0.079,-0.13l0.091,-0.121l0.104,-0.112l40.7,-39.7l0.114,-0.1l0.123,-0.089l0.132,-0.075l0.139,-0.062l0.144,-0.047l0.149,-0.033l0.151,-0.017l0.152,-0.002l0.151,0.013Z" style="fill:#f6f7f8;"/><path d="M154.488,268.703l0.069,0.005l0.069,0.009l0.068,0.012l0.067,0.015l0.067,0.018l0.066,0.022l0.065,0.024l0.064,0.027l0.062,0.031l0.061,0.033l0.059,0.036l0.058,0.038l0.056,0.041l0.053,0.044l0.052,0.046l0.05,0.049l0.047,0.05l0.045,0.053l0.042,0.055l0.04,0.057l0.037,0.058l0.034,0.06l0.032,0.062l0.029,0.063l0.025,0.064l0.023,0.066l0.02,0.066l0.016,0.068l0.014,0.068l0.01,0.068l0.007,0.069l0.004,0.069l0.001,0.07l-0.003,0.069l-0.005,0.069l-0.009,0.069l-0.012,0.068l-0.015,0.067l-0.018,0.067l-0.022,0.066l-0.024,0.065l-0.027,0.064l-0.031,0.062l-0.033,0.061l-0.036,0.059l-0.038,0.058l-0.041,0.056l-0.044,0.053l-0.046,0.052l-0.049,0.05l-8.2,8l-0.05,0.047l-0.053,0.045l-0.055,0.042l-0.057,0.04l-0.058,0.037l-0.06,0.034l-0.062,0.032l-0.063,0.029l-0.064,0.025l-0.066,0.023l-0.066,0.02l-0.068,0.016l-0.068,0.014l-0.068,0.01l-0.069,0.007l-0.069,0.004l-0.07,0.001l-0.069,-0.003l-0.069,-0.005l-0.069,-0.009l-0.068,-0.012l-0.067,-0.015l-0.067,-0.018l-0.066,-0.022l-0.065,-0.024l-0.064,-0.027l-0.062,-0.031l-0.061,-0.033l-0.059,-0.036l-0.058,-0.038l-0.056,-0.041l-0.053,-0.044l-0.052,-0.046l-0.05,-0.049l-0.047,-0.05l-0.045,-0.053l-0.042,-0.055l-0.04,-0.057l-0.037,-0.058l-0.034,-0.06l-0.032,-0.062l-0.029,-0.063l-0.025,-0.065l-0.023,-0.065l-0.02,-0.066l-0.016,-0.068l-0.014,-0.068l-0.01,-0.068l-0.007,-0.069l-0.004,-0.069l-0.001,-0.07l0.003,-0.069l0.005,-0.069l0.009,-0.069l0.012,-0.068l0.015,-0.067l0.018,-0.067l0.022,-0.066l0.024,-0.065l0.027,-0.064l0.031,-0.062l0.033,-0.061l0.036,-0.059l0.038,-0.058l0.041,-0.056l0.044,-0.053l0.046,-0.052l0.049,-0.05l8.2,-8l0.05,-0.047l0.053,-0.045l0.055,-0.042l0.057,-0.04l0.058,-0.037l0.06,-0.034l0.062,-0.032l0.063,-0.029l0.064,-0.025l0.066,-0.023l0.066,-0.02l0.068,-0.016l0.068,-0.014l0.068,-0.01l0.069,-0.007l0.069,-0.004l0.07,-0.001l0.069,0.003Z" style="fill:#f6f7f8;"/><path d="M84.767,229.401l0.087,0.007l0.086,0.011l0.086,0.017l0.085,0.021l0.083,0.027l0.081,0.031l0.08,0.036l0.077,0.04l0.075,0.045l0.072,0.049l0.069,0.053l0.066,0.057l0.063,0.061l0.059,0.064l0.055,0.068l0.051,0.071l0.047,0.073l0.042,0.077l0.038,0.078l0.033,0.081l0.029,0.082l0.024,0.084l0.018,0.085l0.014,0.087l0.009,0.086l0.004,0.088l-0.002,0.087l-0.006,0.087l-0.011,0.086l-0.017,0.086l-0.021,0.085l-0.027,0.083l-0.031,0.081l-0.036,0.08l-0.04,0.077l-0.045,0.075l-0.049,0.072l-0.053,0.069l-0.057,0.066l-0.061,0.063l-13.1,12.7l-0.064,0.059l-0.068,0.055l-0.071,0.051l-0.073,0.047l-0.077,0.042l-0.078,0.038l-0.081,0.033l-0.082,0.029l-0.084,0.024l-0.086,0.019l-0.086,0.013l-0.086,0.009l-0.088,0.004l-0.087,-0.001l-0.087,-0.007l-0.086,-0.011l-0.086,-0.017l-0.085,-0.021l-0.083,-0.027l-0.081,-0.031l-0.08,-0.036l-0.077,-0.04l-0.075,-0.045l-0.072,-0.049l-0.07,-0.053l-0.065,-0.057l-0.063,-0.061l-0.059,-0.064l-0.055,-0.068l-0.051,-0.071l-0.047,-0.073l-0.042,-0.077l-0.038,-0.078l-0.033,-0.081l-0.029,-0.082l-0.024,-0.084l-0.019,-0.085l-0.013,-0.087l-0.009,-0.086l-0.004,-0.088l0.001,-0.087l0.007,-0.087l0.011,-0.086l0.017,-0.086l0.021,-0.085l0.027,-0.083l0.031,-0.081l0.035,-0.08l0.041,-0.077l0.045,-0.075l0.049,-0.072l0.053,-0.069l0.057,-0.066l0.061,-0.063l13.1,-12.7l0.064,-0.059l0.068,-0.055l0.071,-0.051l0.073,-0.047l0.077,-0.042l0.078,-0.038l0.081,-0.033l0.082,-0.029l0.084,-0.024l0.085,-0.019l0.087,-0.013l0.086,-0.009l0.088,-0.004l0.087,0.001Z" style="fill:#f6f7f8;"/><path d="M172.896,171.803l0.156,0.018l0.153,0.035l0.149,0.05l0.143,0.066l0.135,0.08l0.126,0.093l0.115,0.107l0.104,0.118l0.09,0.128l0.077,0.137l0.063,0.144l0.046,0.15l0.031,0.154l0.015,0.156l-0.002,0.157l-0.018,0.156l-0.035,0.153l-0.05,0.149l-0.065,0.142l-0.08,0.136l-0.094,0.125l-0.107,0.116l-43.6,42.6l-0.118,0.104l-0.128,0.09l-0.137,0.077l-0.144,0.062l-0.15,0.047l-0.153,0.031l-0.157,0.015l-0.157,-0.002l-0.156,-0.018l-0.153,-0.035l-0.149,-0.05l-0.142,-0.066l-0.135,-0.08l-0.126,-0.093l-0.116,-0.107l-0.104,-0.118l-0.09,-0.128l-0.077,-0.137l-0.062,-0.144l-0.047,-0.15l-0.031,-0.154l-0.015,-0.156l0.002,-0.157l0.018,-0.156l0.035,-0.153l0.05,-0.149l0.066,-0.142l0.08,-0.136l0.093,-0.125l0.107,-0.116l43.6,-42.6l0.118,-0.104l0.128,-0.09l0.137,-0.077l0.144,-0.062l0.15,-0.047l0.154,-0.031l0.156,-0.015l0.157,0.002Z" style="fill:#f6f7f8;"/><path d="M120.759,222.908l0.108,0.016l0.107,0.023l0.105,0.032l0.103,0.038l0.099,0.047l0.096,0.053l0.091,0.06l0.087,0.067l0.082,0.072l0.077,0.079l0.07,0.084l0.064,0.089l0.058,0.093l0.05,0.098l0.043,0.1l0.036,0.104l0.028,0.106l0.02,0.107l0.013,0.109l0.004,0.11l-0.004,0.109l-0.011,0.109l-0.02,0.108l-0.027,0.106l-0.035,0.104l-0.043,0.101l-0.049,0.098l-0.057,0.093l-0.063,0.09l-0.07,0.084l-0.076,0.079l-20.7,20.1l-0.081,0.074l-0.087,0.067l-0.091,0.061l-0.095,0.054l-0.099,0.046l-0.103,0.04l-0.104,0.032l-0.107,0.024l-0.109,0.016l-0.109,0.009l-0.109,0l-0.11,-0.007l-0.108,-0.016l-0.107,-0.023l-0.105,-0.032l-0.103,-0.038l-0.099,-0.047l-0.096,-0.053l-0.091,-0.06l-0.087,-0.067l-0.082,-0.072l-0.077,-0.079l-0.07,-0.084l-0.064,-0.089l-0.057,-0.093l-0.051,-0.097l-0.043,-0.101l-0.036,-0.104l-0.028,-0.106l-0.02,-0.107l-0.013,-0.109l-0.004,-0.11l0.004,-0.109l0.011,-0.109l0.02,-0.108l0.027,-0.106l0.035,-0.104l0.043,-0.101l0.049,-0.097l0.057,-0.094l0.064,-0.09l0.069,-0.084l0.076,-0.079l20.7,-20.1l0.081,-0.073l0.087,-0.068l0.091,-0.061l0.095,-0.054l0.099,-0.046l0.103,-0.04l0.104,-0.032l0.107,-0.024l0.109,-0.016l0.109,-0.009l0.11,0l0.109,0.007Z" style="fill:#f6f7f8;"/><circle cx="94.4" cy="121.8" r="15.9" style="fill:#acc7ff;"/></g><g><path d="M39.2,295.7c23.5,-20.4 14.7,0.7 21.8,4.3c6.5,3.2 20.2,-25.5 18.9,-40.8c-0.3,0 -0.6,0 -0.9,0c-25.4,0 -46.8,16.6 -54.2,39.5c3.9,1.9 8.8,1.9 14.4,-3Z" style="fill:#171a21;fill-rule:nonzero;"/></g></g></svg>