<svg width="24" height="24" viewBox="0 0 24 24" version="1.1" xmlns="http://www.w3.org/2000/svg" xmlns:xlink="http://www.w3.org/1999/xlink" xmlns:figma="http://www.figma.com/figma/ns">
<title>add-story</title>
<desc>Created using Figma</desc>
<g id="Canvas" transform="translate(-3303 -672)" figma:type="canvas">
<g id="add-story" style="mix-blend-mode:normal;" figma:type="vector-operation">
<use xlink:href="#path0_fill" transform="translate(3303 672)" fill="url(#paint0_radial)" style="mix-blend-mode:normal;"/>
</g>
</g>
<defs>
<radialGradient id="paint0_radial" cx="0.5" cy="0.5" r="0.5" gradientUnits="userSpaceOnUse" gradientTransform="matrix(48 48 -48 48 0 -48)">
<stop offset="0" stop-color="#4315FD"/>
<stop offset="1" stop-color="#AB15FF"/>
</radialGradient>
<path id="path0_fill" fill-rule="evenodd" d="M 2 12C 2 6.90002 2.5752 4.75305 3.66406 3.66418C 4.75293 2.57538 6.8999 2 12 2C 17.1001 2 19.2471 2.57538 20.3357 3.66418C 21.4246 4.75305 22 6.89996 22 12C 22 17.1 21.4246 19.2469 20.3357 20.3358C 19.2468 21.4246 17.0999 22 12 22C 6.8999 22 4.75293 21.4246 3.66406 20.3358C 2.5752 19.2469 2 17.1 2 12ZM 2.23477e-08 12C 2.23477e-08 2 1.99976 0 12 0C 22 0 24 2 24 12C 24 22 22 24 12 24C 1.99976 24 -0.000244118 22 2.23477e-08 12ZM 12.9998 7L 10.9998 7L 10.9998 11L 6.99976 11L 6.99976 13L 10.9998 13L 10.9998 17L 12.9998 17L 12.9998 13L 16.9998 13L 16.9998 11L 12.9998 11L 12.9998 7Z"/>
</defs>
</svg>
