<svg width="28" height="28" viewBox="0 0 28 28" version="1.1" xmlns="http://www.w3.org/2000/svg" xmlns:xlink="http://www.w3.org/1999/xlink" xmlns:figma="http://www.figma.com/figma/ns">
<title>/ Everything</title>
<desc>Created using Figma</desc>
<g id="Canvas" transform="translate(-2641 -761)" figma:type="canvas">
<mask id="mask0_alpha" mask-type="alpha">
<path d="M 2641 761L 2669 761L 2669 789L 2641 789L 2641 761Z" fill="#FFFFFF"/>
</mask>
<g id="Icons / Everything" style="mix-blend-mode:normal;" mask="url(#mask0_alpha)" figma:type="frame">
<g id="Secondary" style="mix-blend-mode:normal;isolation:isolate;" figma:type="vector">
<use xlink:href="#path0_fill" transform="translate(2647 763)" fill="#FFFFFF" fill-opacity="0.5" style="mix-blend-mode:overlay;"/>
<use xlink:href="#path1_fill" transform="translate(2647 763)" fill="#FFFFFF" fill-opacity="0.5" style="mix-blend-mode:overlay;"/>
<use xlink:href="#path2_fill" transform="translate(2647 763)" fill="#FFFFFF" fill-opacity="0.5" style="mix-blend-mode:overlay;"/>
<use xlink:href="#path3_fill" transform="translate(2647 763)" fill="#FFFFFF" fill-opacity="0.5" style="mix-blend-mode:overlay;"/>
</g>
<g id="Primary" style="mix-blend-mode:normal;" figma:type="vector">
<use xlink:href="#path4_fill" transform="translate(2644 771)" fill="#FFFFFF" style="mix-blend-mode:normal;"/>
</g>
</g>
</g>
<defs>
<path id="path0_fill" d="M 8.05795 19.732C 8.92398 20.232 10.29 19.866 10.79 19C 10.29 19.866 10.656 21.232 11.5221 21.732C 10.656 21.232 9.29 21.5981 8.79 22.4641C 9.29 21.5981 8.92398 20.232 8.05795 19.732Z"/>
<path id="path1_fill" d="M 5.55795 3C 5.28181 3 5.05795 3.22385 5.05795 3.5L 5.05795 4L 4.55795 4C 4.28181 4 4.05795 4.22385 4.05795 4.5C 4.05795 4.77614 4.28181 5 4.55795 5L 5.05795 5L 5.05795 5.5C 5.05795 5.77615 5.28181 6 5.55795 6C 5.83409 6 6.05795 5.77615 6.05795 5.5L 6.05795 5L 6.55795 5C 6.83409 5 7.05795 4.77615 7.05795 4.5C 7.05795 4.22386 6.83409 4 6.55795 4L 6.05795 4L 6.05795 3.5C 6.05795 3.22385 5.83409 3 5.55795 3Z"/>
<path id="path2_fill" d="M 3 23.4641C 3 24.2925 2.32843 24.9641 1.5 24.9641C 0.671573 24.9641 0 24.2925 0 23.4641C 0 22.6357 0.671573 21.9641 1.5 21.9641C 2.32843 21.9641 3 22.6357 3 23.4641Z"/>
<path id="path3_fill" d="M 14 1C 14 1.55228 13.5523 2 13 2C 12.4477 2 12 1.55228 12 1C 12 0.447715 12.4477 0 13 0C 13.5523 0 14 0.447715 14 1Z"/>
<path id="path4_fill" fill-rule="evenodd" d="M 11 3.59067C 10.6062 3.21456 10.0613 2.7165 9.46115 2.22563C 8.82899 1.70953 8.07774 1.15976 7.36008 0.753616C 6.65137 0.354599 5.81531 0 5 0C 2.23857 0 0 2.23858 0 5C 0 7.76142 2.23857 10 5 10C 5.81531 10 6.65137 9.6454 7.36008 9.24638C 8.07774 8.84024 8.82899 8.29047 9.46115 7.77437C 10.0613 7.2835 10.6062 6.78544 11 6.40933C 11.3938 6.78544 11.9387 7.2835 12.5388 7.77437C 13.171 8.29047 13.9223 8.84024 14.6399 9.24638C 15.3486 9.6454 16.1847 10 17 10C 19.7614 10 22 7.76142 22 5C 22 2.23858 19.7614 0 17 0C 16.1847 0 15.3486 0.354599 14.6399 0.753616C 13.9223 1.15976 13.171 1.70953 12.5388 2.22563C 11.9387 2.7165 11.3938 3.21456 11 3.59067ZM 2 5C 2 3.34315 3.34314 2 5 2C 5.28926 2 5.75549 2.1454 6.37888 2.49638C 6.99332 2.84024 7.604 3.29047 8.19569 3.77437C 8.73499 4.2145 9.21031 4.64791 9.57994 5C 9.21031 5.35209 8.73499 5.7855 8.19569 6.22563C 7.604 6.70953 6.99332 7.15976 6.37888 7.50362C 5.75549 7.8546 5.28926 8 5 8C 3.34314 8 2 6.65685 2 5ZM 20 5C 20 3.34315 18.6569 2 17 2C 16.7107 2 16.2445 2.1454 15.6211 2.49638C 15.0067 2.84024 14.396 3.29047 13.8043 3.77437C 13.265 4.2145 12.7897 4.64791 12.4201 5C 12.7897 5.35209 13.265 5.7855 13.8043 6.22563C 14.396 6.70953 15.0067 7.15976 15.6211 7.50362C 16.2445 7.8546 16.7107 8 17 8C 18.6569 8 20 6.65685 20 5Z"/>
</defs>
</svg>
