<svg width="320" height="160" viewBox="0 0 320 160" version="1.1" xmlns="http://www.w3.org/2000/svg" xmlns:xlink="http://www.w3.org/1999/xlink">
<title>chat</title>
<desc>Created using Figma</desc>
<g id="Canvas" transform="translate(-477 536)">
 clip-path="url(#clip-0)"<g id="chat">
<mask id="mask0_alpha" mask-type="alpha">
<g id="Group">
<g id="Group">
<g id="Union">
<use xlink:href="#path0_fill" transform="matrix(0.965914 -0.258862 0.258776 0.965937 484.751 -522.107)" fill="#171A21"/>
</g>
<g id="Union">
<use xlink:href="#path1_fill" transform="matrix(0.978722 0.20519 -0.205119 0.978737 520.033 -426.615)" fill="#171A21"/>
</g>
<g id="Union">
<use xlink:href="#path2_fill" transform="matrix(0.965914 0.258862 -0.258776 0.965937 506.833 -490.391)" fill="#171A21"/>
</g>
<g id="Union">
<use xlink:href="#path3_fill" transform="matrix(0.965914 0.258862 -0.258776 0.965937 536.33 -527.565)" fill="#171A21"/>
</g>
<g id="Union">
<use xlink:href="#path4_fill" transform="matrix(0.865987 0.500067 -0.499933 0.866064 494.331 -439.647)" fill="#171A21"/>
</g>
<g id="Union">
<use xlink:href="#path5_fill" transform="matrix(0.865987 0.500067 -0.499933 0.866064 620.336 -524.947)" fill="#171A21"/>
</g>
<g id="Union">
<use xlink:href="#path6_fill" transform="matrix(0.258776 -0.965937 0.965914 0.258862 485.673 -460.896)" fill="#171A21"/>
</g>
<g id="Union">
<use xlink:href="#path7_fill" transform="matrix(0.865987 -0.500067 0.499933 0.866064 541.225 -432.192)" fill="#171A21"/>
</g>
<g id="Subtract">
<use xlink:href="#path8_fill" transform="matrix(0.965914 0.258862 -0.258776 0.965937 517.599 -507.503)" fill="#171A21"/>
</g>
<g id="Subtract">
<use xlink:href="#path9_fill" transform="matrix(0.865987 -0.500067 0.499933 0.866064 487.323 -490.683)" fill="#171A21"/>
</g>
<g id="Subtract">
<use xlink:href="#path10_fill" transform="matrix(0.965914 -0.258862 0.258776 0.965937 502.288 -460.015)" fill="#171A21"/>
</g>
<g id="Subtract">
<use xlink:href="#path11_fill" transform="matrix(0.965914 -0.258862 0.258776 0.965937 567.772 -518.939)" fill="#171A21"/>
</g>
<g id="Subtract">
<use xlink:href="#path12_fill" transform="matrix(0.965914 -0.258862 0.258776 0.965937 489.841 -403.743)" fill="#171A21"/>
</g>
</g>
<g id="Group">
<g id="Union">
<use xlink:href="#path13_fill" transform="matrix(-0.965914 -0.258862 -0.258776 0.965937 789.249 -403.401)" fill="#171A21"/>
</g>
<g id="Union">
<use xlink:href="#path14_fill" transform="matrix(-0.978722 0.20519 0.205119 0.978737 753.967 -528.745)" fill="#171A21"/>
</g>
<g id="Union">
<use xlink:href="#path15_fill" transform="matrix(-0.965914 0.258862 0.258776 0.965937 767.167 -443.037)" fill="#171A21"/>
</g>
<g id="Union">
<use xlink:href="#path16_fill" transform="matrix(-0.965914 0.258862 0.258776 0.965937 737.67 -405.864)" fill="#171A21"/>
</g>
<g id="Union">
<use xlink:href="#path17_fill" transform="matrix(-0.865987 0.500067 0.499933 0.866064 779.669 -501.672)" fill="#171A21"/>
</g>
<g id="Union">
<use xlink:href="#path18_fill" transform="matrix(-0.258776 -0.965937 -0.965914 0.258862 788.327 -440.684)" fill="#171A21"/>
</g>
<g id="Union">
<use xlink:href="#path19_fill" transform="matrix(-0.865987 -0.500067 -0.499933 0.866064 726.286 -483.934)" fill="#171A21"/>
</g>
<g id="Union">
<use xlink:href="#path20_fill" transform="matrix(-0.865987 -0.500067 -0.499933 0.866064 696.789 -395.427)" fill="#171A21"/>
</g>
<g id="Subtract">
<use xlink:href="#path21_fill" transform="matrix(-0.965914 0.258862 0.258776 0.965937 756.401 -417.914)" fill="#171A21"/>
</g>
<g id="Subtract">
<use xlink:href="#path22_fill" transform="matrix(-0.865987 -0.500067 -0.499933 0.866064 786.677 -422.336)" fill="#171A21"/>
</g>
<g id="Subtract">
<use xlink:href="#path23_fill" transform="matrix(-0.965914 -0.258862 -0.258776 0.965937 771.712 -473.937)" fill="#171A21"/>
</g>
<g id="Subtract">
<use xlink:href="#path24_fill" transform="matrix(-0.965914 -0.258862 -0.258776 0.965937 784.159 -513.765)" fill="#171A21"/>
</g>
<g id="Subtract">
<use xlink:href="#path25_fill" transform="matrix(-0.965914 -0.258862 -0.258776 0.965937 713.365 -407.555)" fill="#171A21"/>
</g>
</g>
</g>
</mask>
<g id="Rectangle" mask="url(#mask0_alpha)">
<use xlink:href="#path26_fill" transform="translate(477 -536)" fill="url(#paint26_radial)" fill-opacity="0.48" style="mix-blend-mode:hard-light"/>
</g>
</g>
</g>
<defs>
<radialGradient id="paint26_radial" cx="0.5" cy="0.5" r="0.5" gradientUnits="userSpaceOnUse" gradientTransform="matrix(-320 160 -159.035 -318.07 399.517 159.035)">
<stop offset="0" stop-color="#FFFFFF"/>
<stop offset="1" stop-color="#D6E0EE"/>
</radialGradient>
<path id="path0_fill" fill-rule="evenodd" d="M 24.3131 9.26361C 24.3137 11.0924 24.2668 12.3391 24.0137 13.3429C 23.8153 14.2592 23.7033 14.5097 23.1442 14.8763C 22.6879 15.2243 21.8472 15.5941 20.191 15.8492C 18.4934 16.1141 16.3122 16.2119 13.3143 16.2113C 12.7248 16.2113 12.1721 16.2073 11.6364 16.1986C 11.2857 16.2194 10.6161 16.4165 10.3113 16.5882L 6.94665 18.8316L 6.94663 17.8532C 6.94663 16.742 6.17742 15.852 5.19638 15.6029C 3.58811 15.1946 3.13117 14.6617 2.86808 14.0968C 2.47343 13.2495 2.31553 11.8703 2.31552 9.2636C 2.31492 7.43473 2.36183 6.1881 2.61495 5.18421C 2.81335 4.26796 2.92532 4.01748 3.4844 3.65087C 3.94072 3.30286 4.78141 2.93306 6.43755 2.67791C 8.13519 2.41303 10.3164 2.31533 13.3143 2.31589C 16.3122 2.31531 18.4934 2.41304 20.191 2.67792C 21.8472 2.93308 22.6879 3.30288 23.1442 3.65088C 23.7033 4.01751 23.8153 4.26798 24.0136 5.18422C 24.2668 6.18806 24.3137 7.43474 24.3131 9.26361ZM 13.3143 18.5271C 25.519 18.5271 26.6286 16.7902 26.6287 9.26359C 26.6286 1.73692 25.5191 -8.86123e-06 13.3143 3.39052e-11C 1.1095 9.61451e-07 1.89602e-05 1.73693 1.06873e-10 9.26356C -8.5143e-06 14.3602 0.508721 16.8021 4.62663 17.8476C 4.62921 17.8483 4.63112 17.8506 4.6311 17.8532L 4.63109 20.9953C 4.63105 21.9201 5.66167 22.4718 6.43103 21.9588L 11.5957 18.5151C 11.5967 18.5145 11.5978 18.5141 11.599 18.5142C 12.1449 18.523 12.7163 18.5272 13.3143 18.5271ZM 20.8398 9.84252C 20.8397 10.8018 20.0622 11.5794 19.1031 11.5794C 18.144 11.5795 17.3665 10.8018 17.3664 9.84252C 17.3664 8.88327 18.144 8.1056 19.1031 8.10565C 20.0622 8.10564 20.8398 8.88327 20.8398 9.84252ZM 13.3143 11.5795C 14.2734 11.5795 15.051 10.8019 15.051 9.84256C 15.051 8.88331 14.2734 8.10568 13.3143 8.10569C 12.3552 8.10564 11.5777 8.88331 11.5777 9.84256C 11.5777 10.8019 12.3552 11.5795 13.3143 11.5795ZM 7.52547 11.5794C 8.48462 11.5794 9.26212 10.8018 9.26214 9.84252C 9.26214 8.88327 8.4846 8.10564 7.52548 8.10566C 6.56635 8.1056 5.78883 8.88327 5.78883 9.84252C 5.78884 10.8018 6.56635 11.5795 7.52547 11.5794Z"/>
<path id="path1_fill" fill-rule="evenodd" d="M 39.7269 15.1366C 39.7279 18.1249 39.6513 20.1619 39.2377 21.8022C 38.9135 23.2993 38.7305 23.7086 37.817 24.3076C 37.0714 24.8762 35.6977 25.4805 32.9916 25.8974C 30.2177 26.3302 26.6537 26.4899 21.7552 26.4889C 20.7919 26.489 19.8889 26.4824 19.0136 26.4682C 18.4406 26.5022 17.3465 26.8243 16.8484 27.1048L 11.3506 30.7706L 11.3506 29.1719C 11.3506 27.3561 10.0937 25.9019 8.49073 25.4949C 5.8629 24.8277 5.11624 23.957 4.68637 23.034C 4.0415 21.6495 3.78353 19.3959 3.78351 15.1365C 3.78252 12.1482 3.85918 10.1112 4.27279 8.47088C 4.59693 6.97376 4.77987 6.56446 5.6934 5.96544C 6.439 5.39679 7.81267 4.79254 10.5188 4.37562C 13.2927 3.94281 16.8566 3.78311 21.7552 3.78413C 26.6537 3.78311 30.2177 3.94281 32.9915 4.37562C 35.6977 4.79253 37.0713 5.39678 37.8169 5.96542C 38.7305 6.56443 38.9135 6.97377 39.2376 8.4709C 39.6513 10.1112 39.7279 12.1482 39.7269 15.1366ZM 21.7552 30.2731C 41.6975 30.273 43.5104 27.435 43.5105 15.1365C 43.5103 2.83805 41.6974 -1.93127e-05 21.7552 9.85648e-11C 1.81286 -1.5376e-05 -2.7431e-06 2.83811 1.00679e-11 15.1365C -3.34041e-06 23.4643 0.831232 27.4543 7.55981 29.1627C 7.56402 29.1637 7.56707 29.1676 7.5671 29.1719L 7.5671 34.306C 7.56701 35.8171 9.25099 36.7186 10.5081 35.8803L 18.9471 30.2534C 18.9487 30.2524 18.9506 30.2518 18.9525 30.2518C 19.8445 30.2663 20.7781 30.2731 21.7552 30.2731ZM 12.2965 18.9207C 13.8637 18.9207 15.1342 17.65 15.1341 16.0826C 15.1341 14.5151 13.8637 13.2445 12.2965 13.2444C 10.7293 13.2445 9.45887 14.5151 9.45885 16.0825C 9.45883 17.65 10.7293 18.9207 12.2965 18.9207ZM 21.7553 18.9207C 23.3224 18.9207 24.5929 17.65 24.5929 16.0826C 24.5929 14.5151 23.3225 13.2445 21.7553 13.2445C 20.1881 13.2445 18.9176 14.5151 18.9176 16.0826C 18.9176 17.65 20.1881 18.9207 21.7553 18.9207ZM 34.0516 16.0825C 34.0517 17.65 32.7812 18.9206 31.214 18.9206C 29.6468 18.9206 28.3764 17.65 28.3764 16.0825C 28.3764 14.5151 29.6468 13.2444 31.214 13.2444C 32.7812 13.2444 34.0517 14.5151 34.0516 16.0825Z"/>
<path id="path2_fill" fill-rule="evenodd" d="M 19.2733 7.34336C 19.2738 8.7931 19.2366 9.78133 19.0359 10.5771C 18.8787 11.3034 18.7899 11.502 18.3467 11.7926C 17.985 12.0685 17.3186 12.3616 16.0057 12.5639C 14.66 12.7739 12.9309 12.8514 10.5544 12.8509C 10.0871 12.8509 9.649 12.8477 9.2243 12.8408C 8.94633 12.8573 8.41557 13.0136 8.17388 13.1497L 5.50667 14.9281L 5.50668 14.1525C 5.50668 13.2715 4.89691 12.5661 4.11923 12.3686C 2.84433 12.0449 2.48211 11.6225 2.27356 11.1748C 1.96072 10.5031 1.83555 9.40975 1.83555 7.34336C 1.83506 5.89359 1.87225 4.90536 2.07291 4.10957C 2.23017 3.38327 2.31892 3.1847 2.76212 2.89409C 3.12384 2.61821 3.79026 2.32505 5.10312 2.12282C 6.44889 1.9128 8.17791 1.83536 10.5544 1.83584C 12.9309 1.83536 14.66 1.91281 16.0057 2.12279C 17.3185 2.32505 17.985 2.61821 18.3467 2.89407C 18.7899 3.18468 18.8787 3.38325 19.0359 4.10957C 19.2366 4.90534 19.2738 5.89359 19.2733 7.34336ZM 10.5544 14.6867C 20.2293 14.6867 21.1089 13.3098 21.1089 7.34336C 21.1088 1.37686 20.2293 -2.76692e-06 10.5544 1.92729e-10C 0.879508 -1.88102e-05 -4.28001e-06 1.37688 1.73772e-10 7.34336C -9.66636e-06 11.3835 0.403266 13.3192 3.66757 14.148C 3.66961 14.1486 3.67111 14.1504 3.67114 14.1525L 3.67113 16.6433C 3.67108 17.3764 4.48808 17.8137 5.09797 17.407L 9.19206 14.6772C 9.19287 14.6767 9.19374 14.6764 9.1947 14.6764C 9.48174 14.681 9.77765 14.6841 10.0827 14.6856C 10.2376 14.6863 10.3948 14.6867 10.5544 14.6867ZM 5.96551 9.17918C 6.72583 9.17917 7.34221 8.56273 7.3422 7.8023C 7.3422 7.04187 6.72582 6.42543 5.96552 6.4254C 5.2052 6.42541 4.58887 7.04187 4.58887 7.8023C 4.58887 8.56273 5.20523 9.17918 5.96551 9.17918ZM 10.5544 9.17919C 11.3147 9.17918 11.9311 8.56275 11.9311 7.80232C 11.9311 7.04189 11.3147 6.42543 10.5544 6.42542C 9.79408 6.42542 9.17772 7.04189 9.17772 7.80232C 9.17772 8.56275 9.79411 9.17919 10.5544 9.17919ZM 16.5199 7.80228C 16.5199 8.56271 15.9035 9.17914 15.1432 9.17914C 14.3829 9.17915 13.7666 8.5627 13.7666 7.80227C 13.7666 7.04184 14.3829 6.42538 15.1432 6.42538C 15.9036 6.42539 16.5199 7.04185 16.5199 7.80228Z"/>
<path id="path3_fill" fill-rule="evenodd" d="M 19.2734 7.34342C 19.2738 8.79313 19.2366 9.78137 19.036 10.5772C 18.8787 11.3035 18.7899 11.502 18.3467 11.7926C 17.985 12.0685 17.3186 12.3617 16.0057 12.5639C 14.66 12.7739 12.9309 12.8514 10.5544 12.8509C 10.0871 12.8509 9.64898 12.8477 9.22434 12.8408C 8.94636 12.8573 8.41555 13.0136 8.17392 13.1497L 5.50671 14.9281L 5.50669 14.1525C 5.5067 13.2716 4.89692 12.5661 4.11923 12.3686C 2.84432 12.045 2.48213 11.6226 2.27356 11.1748C 1.96074 10.5031 1.83553 9.4098 1.83552 7.34338C 1.83511 5.89365 1.87225 4.90536 2.07288 4.10959C 2.23014 3.38331 2.31893 3.18474 2.76212 2.8941C 3.12385 2.61828 3.79031 2.32511 5.10315 2.12285C 6.44887 1.91285 8.17794 1.83536 10.5544 1.83586C 12.931 1.83539 14.66 1.91285 16.0057 2.12285C 17.3186 2.32511 17.985 2.61821 18.3467 2.89415C 18.7899 3.18476 18.8787 3.38333 19.036 4.1096C 19.2366 4.90539 19.2738 5.89365 19.2734 7.34342ZM 10.5544 14.6868C 20.2293 14.6867 21.1089 13.3099 21.1089 7.34337C 21.1088 1.3769 20.2293 -2.76711e-06 10.5544 4.17071e-12C 0.879515 1.85668e-05 -3.37554e-05 1.3769 2.84917e-09 7.34337C -3.91418e-05 11.3835 0.403236 13.3192 3.66759 14.1481C 3.66866 14.1483 3.66953 14.149 3.67019 14.1498C 3.67078 14.1506 3.6711 14.1515 3.67111 14.1525L 3.67114 16.6433C 3.67109 17.3764 4.48806 17.8137 5.09795 17.4071L 9.1921 14.6772C 9.19285 14.6767 9.19378 14.6764 9.19468 14.6765C 9.62744 14.6835 10.0804 14.6868 10.5544 14.6868ZM 5.96552 9.17922C 6.72582 9.17924 7.34219 8.56278 7.34219 7.80238C 7.34218 7.04192 6.72585 6.42546 5.96551 6.42551C 5.20522 6.42548 4.58885 7.04195 4.58885 7.80235C 4.58886 8.5628 5.20524 9.17925 5.96552 9.17922ZM 10.5544 9.17919C 11.3147 9.17921 11.9311 8.56275 11.9311 7.80235C 11.9311 7.04189 11.3148 6.42543 10.5544 6.42548C 9.79412 6.42545 9.17776 7.04192 9.17775 7.80232C 9.17776 8.56277 9.79414 9.17922 10.5544 9.17919ZM 16.5199 7.80234C 16.5199 8.56274 15.9036 9.1792 15.1433 9.17917C 14.383 9.17921 13.7666 8.56276 13.7666 7.8023C 13.7666 7.0419 14.383 6.42544 15.1433 6.42547C 15.9036 6.42542 16.5199 7.04188 16.5199 7.80234Z"/>
<path id="path4_fill" fill-rule="evenodd" d="M 22.6795 8.64063C 22.6801 10.3465 22.6363 11.5093 22.4002 12.4456C 22.2151 13.3003 22.1107 13.5339 21.5891 13.8758C 21.1635 14.2005 20.3793 14.5454 18.8344 14.7834C 17.2509 15.0305 15.2162 15.1216 12.4197 15.121C 11.8698 15.1211 11.3543 15.1173 10.8545 15.1092C 10.5274 15.1286 9.90285 15.3125 9.61847 15.4726L 6.47988 17.5652L 6.47988 16.6526C 6.4799 15.6161 5.76237 14.7859 4.84722 14.5536C 3.34703 14.1727 2.92079 13.6757 2.67537 13.1488C 2.30725 12.3585 2.15995 11.072 2.15994 8.64059C 2.15938 6.93474 2.20314 5.77191 2.43924 4.83556C 2.62429 3.98095 2.72875 3.7473 3.25029 3.40536C 3.67592 3.08074 4.46013 2.73579 6.00501 2.49781C 7.58858 2.25074 9.62321 2.15959 12.4197 2.16018C 15.2162 2.15958 17.2508 2.25076 18.8344 2.49782C 20.3793 2.73581 21.1635 3.08074 21.5891 3.40536C 22.1107 3.7473 22.2151 3.98097 22.4002 4.83556C 22.6363 5.77195 22.6801 6.93474 22.6795 8.64063ZM 12.4197 17.2812C 23.8044 17.2812 24.8395 15.6611 24.8395 8.64063C 24.8394 1.62011 23.8044 1.03556e-05 12.4197 0C 1.03496 8.99906e-06 5.52883e-06 1.62014 1.79276e-12 8.6406C -1.06505e-06 13.3945 0.474546 15.6721 4.31576 16.6473C 4.31815 16.6479 4.31994 16.6501 4.31994 16.6526L 4.31993 19.5834C 4.31988 20.446 5.28127 20.9605 5.99894 20.482L 10.8166 17.27C 10.8175 17.2694 10.8186 17.269 10.8197 17.2691C 11.3289 17.2773 11.8619 17.2812 12.4197 17.2812ZM 7.01986 10.8007C 7.91453 10.8007 8.6398 10.0754 8.63982 9.18065C 8.63981 8.28588 7.91453 7.56055 7.01984 7.56053C 6.12517 7.56054 5.39987 8.28589 5.39988 9.18062C 5.39988 10.0754 6.12514 10.8007 7.01986 10.8007ZM 12.4197 10.8007C 13.3144 10.8007 14.0397 10.0754 14.0397 9.18063C 14.0397 8.28586 13.3144 7.56053 12.4197 7.56051C 11.5251 7.56052 10.7998 8.28587 10.7998 9.1806C 10.7998 10.0754 11.525 10.8007 12.4197 10.8007ZM 19.4396 9.18063C 19.4395 10.0754 18.7143 10.8007 17.8196 10.8007C 16.9249 10.8007 16.1996 10.0754 16.1996 9.1806C 16.1996 8.28586 16.9249 7.56051 17.8196 7.5605C 18.7143 7.56052 19.4396 8.28585 19.4396 9.18063Z"/>
<path id="path5_fill" fill-rule="evenodd" d="M 11.7015 4.45811C 11.7018 5.33824 11.6792 5.93817 11.5574 6.42129C 11.4619 6.8622 11.408 6.98274 11.1389 7.15918C 10.9193 7.32666 10.5147 7.50468 9.71756 7.62743C 8.90056 7.75491 7.85079 7.80197 6.40794 7.80165C 6.12421 7.80169 5.85822 7.79974 5.60038 7.79555C 5.43166 7.80558 5.10939 7.90039 4.96267 7.98307L 3.34332 9.0627L 3.34334 8.59185C 3.3433 8.05704 2.97313 7.62876 2.50092 7.50887C 1.72692 7.31235 1.50701 7.05595 1.38038 6.7841C 1.19044 6.37634 1.11448 5.71258 1.11445 4.45808C 1.11416 3.57796 1.13672 2.97802 1.25856 2.4949C 1.35401 2.05395 1.4079 1.9334 1.67698 1.75696C 1.89661 1.58948 2.30125 1.41151 3.09833 1.28871C 3.91533 1.16124 4.96513 1.11422 6.40795 1.11449C 7.85082 1.11424 8.90057 1.16127 9.7176 1.28875C 10.5147 1.41148 10.9193 1.58949 11.1389 1.75698C 11.408 1.93343 11.4619 2.05395 11.5574 2.49489C 11.6792 2.978 11.7017 3.57795 11.7015 4.45811ZM 6.40795 8.9162C 12.2819 8.91619 12.8159 8.08027 12.8159 4.45807C 12.8159 0.835853 12.2819 -2.99725e-05 6.40797 8.06055e-10C 0.533994 7.6402e-06 1.26796e-05 0.835899 0 4.45807C 2.65321e-05 6.91084 0.244852 8.086 2.22676 8.58912C 2.22796 8.58948 2.22887 8.59058 2.22889 8.59183L 2.22889 10.104C 2.22886 10.5491 2.72487 10.8145 3.09514 10.5676L 5.58083 8.9104C 5.58127 8.91007 5.58189 8.90992 5.58244 8.90989C 5.70588 8.9119 5.83201 8.91343 5.96089 8.91449C 6.10638 8.91562 6.25537 8.91621 6.40795 8.9162ZM 3.62194 5.57262C 4.08357 5.57261 4.45778 5.19833 4.45778 4.73672C 4.45775 4.27506 4.08355 3.90083 3.62197 3.90082C 3.16033 3.90084 2.78615 4.27503 2.78612 4.73672C 2.78615 5.19838 3.16035 5.57261 3.62194 5.57262ZM 6.40799 5.57267C 6.86962 5.57265 7.24383 5.19837 7.24383 4.73676C 7.2438 4.2751 6.8696 3.90088 6.40801 3.90086C 5.94638 3.90088 5.5722 4.27508 5.57217 4.73677C 5.5722 5.19843 5.9464 5.57265 6.40799 5.57267ZM 10.0298 4.73676C 10.0298 5.19836 9.65564 5.57264 9.194 5.57266C 8.73242 5.57265 8.35822 5.19842 8.35819 4.73676C 8.35821 4.27507 8.7324 3.90087 9.19403 3.90085C 9.65562 3.90087 10.0298 4.2751 10.0298 4.73676Z"/>
<path id="path6_fill" fill-rule="evenodd" d="M 11.4581 4.36432C 11.4584 5.22593 11.4363 5.81325 11.317 6.28621C 11.2235 6.71788 11.1708 6.83589 10.9073 7.0086C 10.6922 7.17256 10.296 7.34679 9.5155 7.46699C 8.71547 7.59178 7.68752 7.63783 6.2747 7.63755C 5.99687 7.63755 5.7364 7.63564 5.48392 7.63157C 5.31869 7.64136 5.00312 7.73425 4.85944 7.81514L 3.27377 8.8721L 3.27376 8.41113C 3.27377 7.88758 2.91127 7.46828 2.44891 7.35093C 1.69099 7.15858 1.47563 6.90753 1.35164 6.64139C 1.16568 6.24219 1.09125 5.59242 1.09125 4.36431C 1.09097 3.50268 1.11306 2.91536 1.23236 2.4424C 1.32586 2.01073 1.37862 1.89271 1.64211 1.72001C 1.85715 1.55605 2.25334 1.38182 3.03387 1.26162C 3.8339 1.13682 4.86182 1.09078 6.27468 1.09108C 7.68753 1.09079 8.71545 1.13681 9.51551 1.2616C 10.296 1.38182 10.6922 1.55604 10.9073 1.72C 11.1708 1.89271 11.2235 2.01074 11.317 2.44239C 11.4363 2.91534 11.4584 3.5027 11.4581 4.36432ZM 6.2747 8.72864C 12.0265 8.72862 12.5494 7.91033 12.5494 4.36431C 12.5494 0.818281 12.0265 -2.22972e-05 6.27468 4.5567e-10C 0.522877 -7.17993e-06 9.94716e-06 0.818312 0 4.36432C 1.5241e-05 6.76547 0.239759 7.91589 2.18042 8.40848C 2.18164 8.40879 2.18253 8.40988 2.18252 8.41114L 2.1825 9.89144C 2.1825 10.3272 2.66821 10.587 3.03077 10.3454L 5.46477 8.72298C 5.46522 8.72267 5.46577 8.72249 5.46631 8.7225C 5.72359 8.72665 5.99288 8.72863 6.2747 8.72864ZM 9.82121 4.63706C 9.82121 5.08902 9.4548 5.45539 9.00279 5.45538C 8.55078 5.45538 8.18433 5.08902 8.18434 4.63706C 8.18433 4.18513 8.55076 3.81876 9.00277 3.81876C 9.45479 3.81877 9.8212 4.18513 9.82121 4.63706ZM 6.2747 5.45538C 6.72671 5.45539 7.09312 5.08902 7.09313 4.63706C 7.09311 4.18513 6.7267 3.81877 6.27469 3.81876C 5.82267 3.81876 5.45624 4.18513 5.45625 4.63706C 5.45624 5.08902 5.82269 5.45538 6.2747 5.45538ZM 3.54655 5.4554C 3.99857 5.4554 4.36497 5.08904 4.36498 4.63707C 4.36497 4.18515 3.99855 3.81878 3.54654 3.81878C 3.09453 3.81877 2.72809 4.18515 2.72811 4.63707C 2.7281 5.08904 3.09454 5.4554 3.54655 5.4554Z"/>
<path id="path7_fill" fill-rule="evenodd" d="M 11.4567 4.36488C 11.457 5.22659 11.4349 5.81402 11.3156 6.28703C 11.2222 6.71873 11.1694 6.83675 10.9059 7.00952C 10.6909 7.17349 10.2948 7.34774 9.51436 7.46796C 8.7144 7.59276 7.68658 7.63878 6.27394 7.63854C 5.99612 7.63852 5.73571 7.63665 5.48329 7.63256C 5.318 7.64234 5.00248 7.73522 4.85885 7.81614L 3.27337 8.87321L 3.27337 8.41221C 3.27337 7.88858 2.91093 7.46926 2.44862 7.35187C 1.6908 7.15948 1.47546 6.90839 1.35149 6.64224C 1.16551 6.24298 1.09113 5.59315 1.09111 4.36487C 1.09085 3.50314 1.11294 2.91574 1.23221 2.44273C 1.32568 2.01103 1.37846 1.89298 1.64191 1.72024C 1.85695 1.55627 2.25306 1.38202 3.03348 1.26179C 3.83345 1.137 4.86127 1.09095 6.2739 1.09122C 7.68663 1.09095 8.71437 1.13699 9.51437 1.2618C 10.2948 1.38201 10.6909 1.55627 10.9059 1.72025C 11.1694 1.89299 11.2221 2.011 11.3156 2.44274C 11.4349 2.91575 11.457 3.50316 11.4567 4.36488ZM 6.27395 8.72973C 12.025 8.72974 12.5479 7.91134 12.5478 4.36489C 12.5478 0.81841 12.025 3.3974e-05 6.27391 0C 0.522827 2.29755e-05 2.68695e-05 0.81845 0 4.36487C 1.18706e-06 6.76631 0.239738 7.91692 2.18014 8.40953C 2.18137 8.40985 2.18229 8.41095 2.18227 8.4122L 2.18224 9.89268C 2.18222 10.3284 2.66788 10.5884 3.03043 10.3467L 5.46409 8.72407C 5.46454 8.72377 5.46512 8.72362 5.46568 8.72362C 5.72288 8.72776 5.99216 8.72975 6.27395 8.72973ZM 9.82008 4.63767C 9.82007 5.08965 9.4537 5.45607 9.00177 5.45608C 8.54978 5.45607 8.18343 5.08968 8.18344 4.6377C 8.1834 4.18568 8.54979 3.81924 9.00176 3.81928C 9.45369 3.81926 9.82009 4.18569 9.82008 4.63767ZM 6.27395 5.4561C 6.72588 5.45608 7.09226 5.08967 7.09227 4.63769C 7.09228 4.18571 6.72587 3.81928 6.27394 3.8193C 5.82197 3.81926 5.45558 4.1857 5.45563 4.63771C 5.45562 5.08969 5.82197 5.45609 6.27395 5.4561ZM 3.54615 5.45609C 3.99808 5.45607 4.36446 5.08966 4.36447 4.63768C 4.36448 4.1857 3.99807 3.81927 3.54614 3.81929C 3.09417 3.81925 2.72778 4.18569 2.72783 4.6377C 2.72782 5.08968 3.09417 5.45608 3.54615 5.45609Z"/>
<path id="path8_fill" fill-rule="evenodd" d="M 13.5689 4.72038C 13.5689 8.55567 13.0035 9.44074 6.78443 9.44072C 6.47973 9.44071 6.18855 9.43859 5.9104 9.43412C 5.90976 9.4341 5.90918 9.43428 5.9087 9.4346L 3.27699 11.1894C 2.88492 11.4508 2.35976 11.1697 2.35982 10.6984L 2.35981 9.09731C 2.35979 9.09675 2.35964 9.09619 2.35932 9.09571C 2.3589 9.09509 2.35827 9.09463 2.35753 9.09445C 0.259227 8.5617 -7.4254e-06 7.31741 1.59515e-10 4.72037C 1.17745e-05 0.885078 0.565338 3.24028e-05 6.78445 0C 13.0035 1.28743e-05 13.5689 0.885086 13.5689 4.72038ZM 3.83459 5.90048C 4.32335 5.90048 4.71954 5.50421 4.71952 5.01543C 4.71955 4.5266 4.32335 4.13035 3.83459 4.13034C 3.34589 4.13035 2.94969 4.52659 2.94972 5.0154C 2.94969 5.50423 3.34589 5.90049 3.83459 5.90048ZM 9.7341 5.90048C 10.2229 5.90048 10.6191 5.50421 10.619 5.01543C 10.6191 4.5266 10.2229 4.13034 9.7341 4.13034C 9.2454 4.13035 8.8492 4.52659 8.84923 5.0154C 8.8492 5.50423 9.2454 5.90049 9.7341 5.90048ZM 7.66931 5.01542C 7.66933 5.5042 7.27314 5.90047 6.78437 5.90047C 6.29567 5.90048 5.89947 5.50422 5.8995 5.0154C 5.89948 4.52659 6.29567 4.13035 6.78437 4.13033C 7.27314 4.13034 7.66934 4.5266 7.66931 5.01542Z"/>
<path id="path9_fill" fill-rule="evenodd" d="M 9.15977 3.18631C 9.15977 5.77514 8.77811 6.37259 4.57988 6.37258C 4.46101 6.37259 4.34516 6.37212 4.2323 6.37112C 4.1499 6.37041 4.0691 6.36942 3.98985 6.36813C 3.98944 6.36811 3.98905 6.36823 3.98871 6.36846L 2.21215 7.55292C 1.94751 7.72937 1.59301 7.53962 1.59301 7.22154L 1.593 6.14077C 1.593 6.13986 1.59236 6.13907 1.59148 6.13884C 0.174986 5.77925 -9.10349e-07 4.93932 8.29157e-11 3.18628C -6.49576e-06 0.597441 0.381654 -5.59505e-06 4.57989 3.92981e-11C 8.77813 5.59513e-06 9.15978 0.597442 9.15977 3.18631ZM 6.57113 3.98285C 6.90108 3.98286 7.16851 3.71538 7.16852 3.38543C 7.16853 3.05548 6.90107 2.78801 6.57116 2.788C 6.24121 2.78799 5.97377 3.05549 5.97376 3.38545C 5.97377 3.71537 6.2412 3.98287 6.57113 3.98285ZM 2.58864 3.98284C 2.91858 3.98286 3.18601 3.71538 3.18602 3.38543C 3.18603 3.05547 2.91858 2.78801 2.58866 2.788C 2.25871 2.78798 1.99127 3.05549 1.99126 3.38544C 1.99127 3.71537 2.2587 3.98287 2.58864 3.98284ZM 5.17727 3.38543C 5.17726 3.71538 4.90983 3.98286 4.57989 3.98284C 4.24995 3.98287 3.98252 3.71537 3.98251 3.38545C 3.98252 3.05549 4.24996 2.78799 4.57991 2.788C 4.90983 2.78801 5.17728 3.05547 5.17727 3.38543Z"/>
<path id="path10_fill" fill-rule="evenodd" d="M 42.1276 14.6554C 42.1276 26.5628 40.3723 29.3107 21.0638 29.3107C 20.1177 29.3107 19.2138 29.3041 18.3501 29.2902C 18.3482 29.2902 18.3464 29.2907 18.3449 29.2917L 10.1742 34.7397C 8.95698 35.5512 7.32652 34.6786 7.32655 33.2154L 7.32656 28.2446C 7.32655 28.242 7.32542 28.2396 7.3236 28.2379C 7.32243 28.2369 7.32107 28.2361 7.31947 28.2357C 0.804853 26.5816 -2.06607e-06 22.7184 3.9777e-12 14.6554C 1.06715e-05 2.74789 1.7553 2.40701e-05 21.0638 0C 40.3723 2.1207e-05 42.1276 2.74789 42.1276 14.6554ZM 30.2221 18.3193C 31.7395 18.3193 32.9696 17.089 32.9695 15.5714C 32.9695 14.0538 31.7394 12.8235 30.2221 12.8235C 28.7047 12.8235 27.4746 14.0538 27.4746 15.5714C 27.4746 17.089 28.7047 18.3193 30.2221 18.3193ZM 11.9057 18.3193C 13.4231 18.3193 14.6532 17.089 14.6532 15.5714C 14.6532 14.0538 13.4231 12.8235 11.9057 12.8235C 10.3884 12.8235 9.15828 14.0538 9.15826 15.5714C 9.15829 17.089 10.3883 18.3193 11.9057 18.3193ZM 23.8114 15.5714C 23.8114 17.089 22.5813 18.3193 21.0639 18.3193C 19.5465 18.3193 18.3165 17.089 18.3164 15.5714C 18.3165 14.0538 19.5466 12.8235 21.0639 12.8235C 22.5813 12.8235 23.8114 14.0538 23.8114 15.5714Z"/>
<path id="path11_fill" fill-rule="evenodd" d="M 31.0422 10.7989C 31.0423 19.5731 29.7488 21.5979 15.5211 21.5979C 14.824 21.5979 14.1579 21.5931 13.5215 21.5828C 13.5202 21.5828 13.5188 21.5832 13.5176 21.5839L 7.49698 25.5984C 6.60006 26.1963 5.39867 25.5533 5.39867 24.4751L 5.39865 20.8123C 5.39865 20.8092 5.39647 20.8065 5.39346 20.8057C 0.593076 19.587 -4.82641e-06 16.7403 2.94574e-11 10.799C 3.71019e-05 2.02478 1.29344 -3.0134e-05 15.5211 3.3635e-10C 29.7488 -2.88201e-05 31.0423 2.02479 31.0422 10.7989ZM 22.2695 13.4987C 23.3876 13.4987 24.294 12.5922 24.294 11.4739C 24.294 10.3556 23.3876 9.44913 22.2695 9.44913C 21.1514 9.44912 20.245 10.3557 20.245 11.4739C 20.245 12.5922 21.1514 13.4987 22.2695 13.4987ZM 8.77294 13.4987C 9.89107 13.4987 10.7974 12.5922 10.7974 11.4739C 10.7975 10.3556 9.89104 9.4491 8.77297 9.4491C 7.65484 9.44912 6.74849 10.3557 6.74847 11.4739C 6.74846 12.5922 7.65488 13.4987 8.77294 13.4987ZM 17.5457 11.4739C 17.5457 12.5922 16.6393 13.4987 15.5212 13.4987C 14.4031 13.4987 13.4967 12.5922 13.4967 11.4739C 13.4968 10.3557 14.4031 9.44914 15.5212 9.44915C 16.6393 9.44914 17.5457 10.3557 17.5457 11.4739Z"/>
<path id="path12_fill" fill-rule="evenodd" d="M 11.9445 4.15523C 11.9445 7.53137 11.4468 8.31049 5.97223 8.31048C 5.70399 8.31047 5.44769 8.30861 5.20282 8.30465C 5.20228 8.30467 5.20176 8.30481 5.20131 8.3051L 2.88467 9.84976C 2.53956 10.0798 2.07727 9.83243 2.0773 9.41758L 2.07729 8.00821C 2.07729 8.00764 2.07711 8.00712 2.07681 8.00669C 2.07645 8.00618 2.07591 8.00582 2.07529 8.00565C 0.228195 7.53671 -9.79186e-06 6.44137 8.54472e-10 4.15524C -2.38128e-05 0.779099 0.49767 -1.4087e-05 5.97223 1.91028e-10C 11.4468 6.18751e-06 11.9445 0.779097 11.9445 4.15523ZM 8.5689 5.1941C 8.99913 5.19408 9.34789 4.84527 9.34788 4.41499C 9.34787 3.98468 8.99912 3.63588 8.5689 3.63587C 8.13868 3.63589 7.78991 3.98471 7.7899 4.41498C 7.7899 4.84529 8.13868 5.1941 8.5689 5.1941ZM 3.37565 5.1941C 3.80588 5.19408 4.15464 4.84526 4.15463 4.41498C 4.15462 3.98468 3.80587 3.63587 3.37566 3.63586C 2.94543 3.63588 2.59666 3.9847 2.59665 4.41497C 2.59665 4.84528 2.94543 5.19409 3.37565 5.1941ZM 6.75123 4.41496C 6.75124 4.84524 6.40248 5.19406 5.97225 5.19408C 5.54203 5.19407 5.19325 4.84526 5.19325 4.41495C 5.19326 3.98468 5.54203 3.63586 5.97225 3.63584C 6.40247 3.63585 6.75122 3.98466 6.75123 4.41496Z"/>
<path id="path13_fill" fill-rule="evenodd" d="M 24.3131 9.26358C 24.3137 11.0924 24.2668 12.339 24.0136 13.3429C 23.8152 14.2592 23.7033 14.5096 23.1442 14.8763C 22.6879 15.2243 21.8472 15.5941 20.191 15.8492C 18.4934 16.1141 16.3122 16.2119 13.3143 16.2112C 13.0202 16.2113 12.7352 16.2103 12.457 16.2082C 12.1775 16.2061 11.9048 16.2029 11.6364 16.1985C 11.2857 16.2194 10.6161 16.4165 10.3113 16.5882L 6.9466 18.8316L 6.94661 17.8532C 6.94658 16.7419 6.17739 15.852 5.19633 15.6029C 3.58812 15.1946 3.13115 14.6617 2.86803 14.0968C 2.47338 13.2495 2.31551 11.8703 2.3155 9.26357C 2.31493 7.43471 2.36179 6.18804 2.61493 5.18418C 2.81332 4.26796 2.9253 4.01745 3.48441 3.65085C 3.94067 3.30282 4.78139 2.93303 6.43756 2.67789C 8.13514 2.41299 10.3163 2.31526 13.3143 2.31589C 16.3122 2.31527 18.4934 2.41301 20.191 2.6779C 21.8472 2.93302 22.6878 3.30282 23.1442 3.65085C 23.7032 4.01744 23.8153 4.26795 24.0136 5.18419C 24.2668 6.18806 24.3137 7.43471 24.3131 9.26358ZM 13.3143 18.5271C 25.519 18.5271 26.6286 16.7902 26.6286 9.26355C 26.6286 1.7369 25.519 -8.86123e-06 13.3143 3.39056e-11C 1.10944 -6.9384e-06 -3.99947e-05 1.73692 1.33511e-09 9.26357C -3.00939e-05 14.3602 0.5087 16.8021 4.62661 17.8476C 4.62762 17.8479 4.62855 17.8484 4.62925 17.8491C 4.63036 17.8501 4.6311 17.8516 4.63111 17.8532L 4.63107 20.9953C 4.631 21.9201 5.66162 22.4718 6.43101 21.9587L 11.5957 18.5151C 11.5967 18.5145 11.5978 18.5141 11.599 18.5141C 11.9442 18.5197 12.2996 18.5234 12.6655 18.5254C 12.8782 18.5266 13.0944 18.5271 13.3143 18.5271ZM 20.8397 9.84251C 20.8397 10.8018 20.0621 11.5794 19.1031 11.5794C 18.1439 11.5794 17.3664 10.8018 17.3664 9.84251C 17.3664 8.88324 18.1439 8.1056 19.103 8.10558C 20.0622 8.10558 20.8397 8.88324 20.8397 9.84251ZM 13.3143 11.5795C 14.2734 11.5795 15.0509 10.8018 15.0509 9.84256C 15.0509 8.88328 14.2734 8.10562 13.3143 8.10563C 12.3552 8.10565 11.5776 8.88328 11.5776 9.84256C 11.5776 10.8018 12.3552 11.5795 13.3143 11.5795ZM 7.5255 11.5795C 8.48458 11.5795 9.26212 10.8018 9.26213 9.84256C 9.26214 8.88328 8.48461 8.10562 7.52546 8.10563C 6.56637 8.10565 5.78883 8.88328 5.78882 9.84256C 5.78882 10.8018 6.56635 11.5795 7.5255 11.5795Z"/>
<path id="path14_fill" fill-rule="evenodd" d="M 39.7269 15.1366C 39.7279 18.1249 39.6513 20.1619 39.2377 21.8022C 38.9135 23.2993 38.7305 23.7086 37.817 24.3076C 37.0714 24.8763 35.6977 25.4805 32.9916 25.8974C 30.2177 26.3303 26.6537 26.4899 21.7552 26.4889C 20.7919 26.489 19.8889 26.4824 19.0136 26.4682C 18.4406 26.5022 17.3465 26.8243 16.8484 27.1049L 11.3506 30.7706L 11.3506 29.1719C 11.3506 27.3561 10.0937 25.9019 8.49073 25.4949C 5.8629 24.8277 5.11624 23.9571 4.68637 23.034C 4.0415 21.6495 3.78353 19.3959 3.78351 15.1366C 3.78252 12.1482 3.85918 10.1112 4.27279 8.47088C 4.59693 6.97379 4.77987 6.56452 5.6934 5.96547C 6.439 5.39682 7.81267 4.79254 10.5188 4.37568C 13.2927 3.94281 16.8566 3.78314 21.7552 3.78413C 26.6537 3.78314 30.2177 3.94281 32.9915 4.37565C 35.6977 4.79256 37.0713 5.39684 37.8169 5.96548C 38.7305 6.56449 38.9135 6.97383 39.2376 8.4709C 39.6513 10.1112 39.7279 12.1483 39.7269 15.1366ZM 21.7552 30.2731C 41.6975 30.2731 43.5104 27.435 43.5105 15.1365C 43.5103 2.83811 41.6974 -1.93127e-05 21.7552 9.85627e-11C 1.81286 -1.5376e-05 -2.7431e-06 2.83814 1.00679e-11 15.1366C -3.34041e-06 23.4643 0.831232 27.4544 7.55981 29.1627C 7.56402 29.1638 7.56707 29.1676 7.5671 29.1719L 7.5671 34.306C 7.56701 35.8172 9.25099 36.7186 10.5081 35.8803L 18.9471 30.2535C 18.9481 30.2528 18.9492 30.2523 18.9503 30.2521L 18.9525 30.2519C 19.8445 30.2663 20.7781 30.2731 21.7552 30.2731ZM 12.2965 18.9207C 13.8636 18.9207 15.1341 17.6501 15.1341 16.0826C 15.1341 14.5152 13.8636 13.2445 12.2965 13.2445C 10.7292 13.2445 9.45882 14.5152 9.45879 16.0826C 9.45878 17.6501 10.7292 18.9207 12.2965 18.9207ZM 21.7553 18.9207C 23.3224 18.9207 24.5929 17.65 24.5929 16.0826C 24.5929 14.5152 23.3225 13.2445 21.7553 13.2445C 20.1881 13.2445 18.9176 14.5152 18.9176 16.0826C 18.9176 17.65 20.1881 18.9207 21.7553 18.9207ZM 34.0517 16.0826C 34.0517 17.65 32.7812 18.9207 31.214 18.9207C 29.6468 18.9207 28.3764 17.65 28.3764 16.0826C 28.3764 14.5152 29.6468 13.2445 31.2141 13.2445C 32.7812 13.2445 34.0517 14.5151 34.0517 16.0826Z"/>
<path id="path15_fill" fill-rule="evenodd" d="M 19.2733 7.34336C 19.2738 8.7931 19.2366 9.78134 19.036 10.5771C 18.8787 11.3034 18.7899 11.502 18.3467 11.7926C 17.985 12.0685 17.3186 12.3617 16.0057 12.5639C 14.66 12.7739 12.9309 12.8514 10.5544 12.8509C 10.0871 12.8509 9.64897 12.8477 9.22433 12.8408C 8.94636 12.8573 8.41554 13.0136 8.17391 13.1497L 5.5067 14.9281L 5.50668 14.1525C 5.50668 13.2716 4.89691 12.5661 4.11923 12.3686C 2.8443 12.0449 2.48211 11.6225 2.27356 11.1748C 1.96072 10.5031 1.83552 9.40977 1.83552 7.34338C 1.83509 5.89359 1.87225 4.90536 2.07288 4.10959C 2.23014 3.38328 2.31892 3.18471 2.76212 2.8941C 3.12384 2.61822 3.79029 2.32505 5.10314 2.12282C 6.44886 1.91282 8.17794 1.83536 10.5544 1.83586C 12.9309 1.83536 14.66 1.91282 16.0057 2.12279C 17.3186 2.32505 17.985 2.61821 18.3467 2.89409C 18.7899 3.1847 18.8787 3.38327 19.036 4.10957C 19.2366 4.90536 19.2738 5.89359 19.2733 7.34336ZM 10.5544 14.6867C 20.2293 14.6867 21.1089 13.3098 21.1089 7.34337C 21.1088 1.37687 20.2293 -2.76705e-06 10.5544 6.48403e-11C 0.879508 -1.09105e-05 -3.37554e-05 1.3769 2.84917e-09 7.34337C -3.91418e-05 11.3835 0.403236 13.3192 3.66757 14.148C 3.66961 14.1486 3.67111 14.1504 3.67111 14.1525L 3.67113 16.6433C 3.67108 17.3764 4.48805 17.8137 5.09794 17.407L 9.19209 14.6772C 9.19258 14.6769 9.19314 14.6766 9.19374 14.6765L 9.19467 14.6764C 9.40765 14.6799 9.62546 14.6824 9.84828 14.6841C 10.0783 14.6859 10.3137 14.6867 10.5544 14.6867ZM 5.96557 9.17917C 6.72586 9.17917 7.34224 8.56273 7.34223 7.8023C 7.34223 7.04187 6.72591 6.42541 5.96555 6.4254C 5.20526 6.42541 4.58889 7.04187 4.5889 7.8023C 4.5889 8.56273 5.20528 9.17917 5.96557 9.17917ZM 10.5544 9.17919C 11.3147 9.17918 11.9311 8.56275 11.9311 7.80232C 11.9311 7.04189 11.3148 6.42543 10.5544 6.42542C 9.79411 6.42542 9.17775 7.04189 9.17775 7.80232C 9.17775 8.56275 9.79414 9.17919 10.5544 9.17919ZM 16.5199 7.80231C 16.5199 8.56274 15.9036 9.17917 15.1433 9.17917C 14.383 9.17918 13.7666 8.56273 13.7666 7.8023C 13.7666 7.04187 14.383 6.42541 15.1432 6.42541C 15.9036 6.42542 16.5199 7.04188 16.5199 7.80231Z"/>
<path id="path16_fill" fill-rule="evenodd" d="M 19.2733 7.34336C 19.2738 8.7931 19.2366 9.78134 19.036 10.5771C 18.8787 11.3034 18.7899 11.502 18.3467 11.7926C 17.985 12.0685 17.3186 12.3617 16.0057 12.5639C 14.66 12.7739 12.9309 12.8514 10.5544 12.8509C 10.2827 12.8509 10.0209 12.8498 9.76584 12.8476C 9.58222 12.8459 9.4021 12.8437 9.22433 12.8408C 8.94636 12.8573 8.41554 13.0136 8.17391 13.1497L 5.5067 14.9281L 5.50668 14.1525C 5.50668 13.2716 4.89691 12.5661 4.11923 12.3686C 2.8443 12.0449 2.48211 11.6225 2.27356 11.1748C 1.96072 10.5031 1.83552 9.40977 1.83552 7.34338C 1.83509 5.89359 1.87225 4.90536 2.07288 4.10959C 2.23014 3.38328 2.31892 3.18471 2.76212 2.8941C 3.12384 2.61822 3.79029 2.32505 5.10314 2.12282C 6.44886 1.91282 8.17794 1.83536 10.5544 1.83586C 12.9309 1.83536 14.66 1.91282 16.0057 2.12279C 17.3186 2.32505 17.985 2.61821 18.3467 2.89409C 18.7899 3.1847 18.8787 3.38327 19.036 4.10957C 19.2366 4.90536 19.2738 5.89359 19.2733 7.34336ZM 10.5544 14.6867C 20.2293 14.6867 21.1089 13.3098 21.1089 7.34337C 21.1088 1.37687 20.2293 -2.76705e-06 10.5544 6.48403e-11C 0.879508 -1.09105e-05 -3.37554e-05 1.3769 2.84917e-09 7.34337C -3.91418e-05 11.3835 0.403236 13.3192 3.66757 14.148C 3.66893 14.1484 3.67007 14.1494 3.67066 14.1506C 3.67094 14.1512 3.67112 14.1518 3.67111 14.1525L 3.67113 16.6433C 3.67108 17.3764 4.48805 17.8137 5.09794 17.407L 9.19209 14.6772C 9.19284 14.6767 9.19377 14.6764 9.19467 14.6764C 9.62743 14.6834 10.0804 14.6867 10.5544 14.6867ZM 5.96551 9.17919C 6.7258 9.17918 7.34218 8.56275 7.34217 7.80232C 7.34217 7.04189 6.72585 6.42543 5.96549 6.42542C 5.2052 6.42542 4.58884 7.04189 4.58884 7.80232C 4.58884 8.56274 5.20523 9.17919 5.96551 9.17919ZM 10.5544 9.17919C 11.3147 9.17918 11.9311 8.56275 11.9311 7.80232C 11.9311 7.04189 11.3148 6.42543 10.5544 6.42542C 9.79411 6.42542 9.17775 7.04189 9.17775 7.80232C 9.17775 8.56275 9.79414 9.17919 10.5544 9.17919ZM 16.5199 7.80228C 16.5199 8.56271 15.9036 9.17914 15.1433 9.17914C 14.383 9.17915 13.7666 8.5627 13.7666 7.80227C 13.7666 7.04184 14.383 6.42538 15.1432 6.42538C 15.9036 6.42539 16.5199 7.04185 16.5199 7.80228Z"/>
<path id="path17_fill" fill-rule="evenodd" d="M 22.6795 8.64062C 22.6801 10.3464 22.6363 11.5093 22.4002 12.4456C 22.2151 13.3002 22.1107 13.5339 21.5892 13.8758C 21.1635 14.2005 20.3793 14.5454 18.8344 14.7834C 17.2509 15.0304 15.2163 15.1216 12.4198 15.121C 12.033 15.121 11.6632 15.1192 11.304 15.1153C 11.1525 15.1136 11.0028 15.1116 10.8545 15.1092C 10.5274 15.1286 9.90285 15.3125 9.6185 15.4726L 6.47988 17.5652L 6.47988 16.6526C 6.47987 15.6161 5.76234 14.7859 4.84722 14.5536C 3.34706 14.1727 2.92079 13.6757 2.67534 13.1488C 2.30725 12.3585 2.15992 11.072 2.15994 8.64058C 2.1594 6.93471 2.20314 5.7719 2.43927 4.83553C 2.62429 3.98093 2.72875 3.74728 3.25032 3.40533C 3.67595 3.08071 4.46011 2.73579 6.00501 2.4978C 7.58858 2.25072 9.62318 2.15959 12.4197 2.16015C 15.2162 2.15957 17.2508 2.25074 18.8344 2.49779C 20.3793 2.73581 21.1635 3.08072 21.5891 3.40534C 22.1107 3.74728 22.2151 3.98096 22.4002 4.83554C 22.6363 5.77194 22.6801 6.93471 22.6795 8.64062ZM 12.4197 17.2812C 23.8044 17.2812 24.8394 15.6611 24.8395 8.64061C 24.8394 1.62009 23.8044 -4.90518e-06 12.4197 1.11386e-11C 1.03493 8.99907e-06 5.53003e-06 1.62012 1.19466e-09 8.64059C -2.7494e-05 13.3945 0.47452 15.6721 4.31576 16.6473C 4.31815 16.6479 4.31991 16.6501 4.31994 16.6526L 4.31996 19.5833C 4.31988 20.446 5.28127 20.9605 5.99894 20.482L 10.8166 17.27C 10.8175 17.2694 10.8186 17.269 10.8197 17.2691C 11.3289 17.2773 11.8619 17.2812 12.4197 17.2812ZM 7.01989 10.8007C 7.91456 10.8007 8.63985 10.0754 8.63987 9.18061C 8.63987 8.28583 7.91461 7.56049 7.01992 7.56047C 6.12525 7.56048 5.39995 8.28583 5.39993 9.18058C 5.39994 10.0754 6.1252 10.8007 7.01989 10.8007ZM 12.4197 10.8007C 13.3144 10.8007 14.0397 10.0753 14.0397 9.1806C 14.0397 8.28583 13.3145 7.56048 12.4198 7.56046C 11.5251 7.56047 10.7998 8.28582 10.7998 9.18057C 10.7998 10.0753 11.5251 10.8007 12.4197 10.8007ZM 19.4396 9.18059C 19.4396 10.0753 18.7143 10.8007 17.8196 10.8007C 16.9249 10.8007 16.1997 10.0753 16.1997 9.18057C 16.1997 8.28582 16.925 7.56047 17.8196 7.56046C 18.7143 7.56047 19.4396 8.28582 19.4396 9.18059Z"/>
<path id="path18_fill" fill-rule="evenodd" d="M 11.4581 4.36435C 11.4584 5.22599 11.4363 5.81331 11.317 6.28627C 11.2235 6.71788 11.1707 6.83589 10.9073 7.00866C 10.6922 7.17262 10.296 7.34682 9.5155 7.46702C 8.71547 7.59181 7.68753 7.63789 6.2747 7.63758C 5.99687 7.63758 5.73641 7.6357 5.48393 7.63163C 5.31869 7.64139 5.00312 7.73428 4.85944 7.81517L 3.27377 8.87213L 3.27376 8.41116C 3.27376 7.88758 2.91127 7.46831 2.44892 7.35099C 1.69099 7.15861 1.47563 6.90756 1.35165 6.64145C 1.16569 6.24225 1.09125 5.59245 1.09124 4.36431C 1.09098 3.50274 1.11305 2.91536 1.23235 2.4424C 1.32587 2.01079 1.37863 1.89277 1.6421 1.72001C 1.85714 1.55605 2.25334 1.38185 3.03387 1.26165C 3.8339 1.13685 4.86181 1.09078 6.27467 1.09108C 7.68753 1.09082 8.71546 1.13687 9.51552 1.26166C 10.296 1.38185 10.6922 1.55607 10.9073 1.72005C 11.1708 1.89274 11.2235 2.0108 11.317 2.44242C 11.4363 2.9154 11.4584 3.5027 11.4581 4.36435ZM 6.2747 8.72867C 12.0265 8.72865 12.5494 7.91036 12.5494 4.36431C 12.5494 0.81834 12.0265 3.66585e-05 6.27467 0C 0.522877 2.22977e-05 2.04731e-06 0.818312 0 4.36435C 7.34115e-06 6.76547 0.239759 7.91592 2.18041 8.40848C 2.18163 8.40879 2.18254 8.40994 2.18251 8.41114L 2.1825 9.89147C 2.18249 10.3272 2.66821 10.5871 3.03077 10.3454L 5.46476 8.72298C 5.46521 8.72267 5.46577 8.72252 5.46632 8.72256C 5.72359 8.72668 5.99288 8.72866 6.2747 8.72867ZM 9.82124 4.63708C 9.82123 5.08901 9.45483 5.45541 9.00281 5.45538C 8.55081 5.4554 8.18435 5.08901 8.18437 4.63708C 8.18436 4.18516 8.5508 3.81881 9.0028 3.81878C 9.45481 3.81876 9.82123 4.18516 9.82124 4.63708ZM 6.2747 5.45541C 6.72672 5.45545 7.09312 5.08905 7.09313 4.63712C 7.09312 4.18519 6.7267 3.8188 6.27469 3.81882C 5.82269 3.81885 5.45625 4.18519 5.45626 4.63712C 5.45624 5.08905 5.8227 5.45544 6.2747 5.45541ZM 3.54658 5.45539C 3.9986 5.45543 4.36499 5.08903 4.36501 4.6371C 4.365 4.18517 3.99857 3.81877 3.54657 3.8188C 3.09456 3.81882 2.72812 4.18517 2.72814 4.6371C 2.72812 5.08903 3.09457 5.45542 3.54658 5.45539Z"/>
<path id="path19_fill" fill-rule="evenodd" d="M 11.4567 4.36488C 11.457 5.22659 11.4349 5.81402 11.3156 6.28703C 11.2222 6.71873 11.1694 6.83675 10.9059 7.00952C 10.6909 7.17349 10.2948 7.34774 9.51436 7.46796C 8.7144 7.59276 7.68658 7.63878 6.27394 7.63854C 5.99612 7.63852 5.73571 7.63665 5.48329 7.63256C 5.318 7.64234 5.00248 7.73522 4.85885 7.81614L 3.27337 8.87321L 3.27337 8.41221C 3.27337 7.88858 2.91093 7.46926 2.44862 7.35187C 1.6908 7.15948 1.47546 6.90839 1.35149 6.64224C 1.16551 6.24298 1.09113 5.59315 1.09111 4.36487C 1.09085 3.50314 1.11294 2.91574 1.23221 2.44273C 1.32568 2.01103 1.37846 1.89298 1.64191 1.72024C 1.85695 1.55627 2.25306 1.38202 3.03348 1.26179C 3.83345 1.137 4.86127 1.09095 6.2739 1.09122C 7.68663 1.09095 8.71437 1.13699 9.51437 1.2618C 10.2948 1.38201 10.6909 1.55627 10.9059 1.72025C 11.1694 1.89299 11.2221 2.011 11.3156 2.44274C 11.4349 2.91575 11.457 3.50316 11.4567 4.36488ZM 6.27395 8.72973C 12.025 8.72974 12.5479 7.91134 12.5478 4.36489C 12.5478 0.81841 12.025 3.3974e-05 6.27391 0C 0.522827 2.29755e-05 2.68695e-05 0.81845 0 4.36487C 1.18706e-06 6.76631 0.239738 7.91692 2.18014 8.40953C 2.18069 8.40968 2.18122 8.40998 2.18162 8.41039C 2.18204 8.41088 2.18231 8.41152 2.18227 8.4122L 2.18224 9.89268C 2.18222 10.3284 2.66788 10.5884 3.03043 10.3467L 5.46409 8.72407L 5.46493 8.72371L 5.46568 8.72362C 5.72288 8.72776 5.99216 8.72975 6.27395 8.72973ZM 9.82001 4.63767C 9.82001 5.08965 9.45363 5.45606 9.0017 5.45608C 8.54971 5.45607 8.18336 5.08967 8.18337 4.63769C 8.18333 4.18568 8.54972 3.81924 9.00169 3.81928C 9.45362 3.81926 9.82002 4.18569 9.82001 4.63767ZM 6.2739 5.45607C 6.72583 5.45605 7.0922 5.08964 7.09221 4.63766C 7.09222 4.18568 6.72582 3.81925 6.27389 3.81927C 5.82192 3.81923 5.45553 4.18567 5.45557 4.63768C 5.45556 5.08966 5.82191 5.45606 6.2739 5.45607ZM 3.54615 5.45609C 3.99808 5.45607 4.36446 5.08966 4.36447 4.63768C 4.36448 4.1857 3.99807 3.81927 3.54614 3.81929C 3.09417 3.81925 2.72778 4.18569 2.72783 4.6377C 2.72782 5.08968 3.09417 5.45608 3.54615 5.45609Z"/>
<path id="path20_fill" fill-rule="evenodd" d="M 11.4567 4.36488C 11.457 5.22659 11.4349 5.81402 11.3156 6.28703C 11.2222 6.71873 11.1694 6.83675 10.9059 7.00952C 10.6909 7.17349 10.2948 7.34774 9.51436 7.46796C 8.7144 7.59276 7.68658 7.63878 6.27394 7.63854C 6.16695 7.63854 6.06259 7.63825 5.96024 7.63768C 5.79677 7.63674 5.63851 7.63508 5.48329 7.63256C 5.318 7.64234 5.00248 7.73522 4.85885 7.81614L 3.27337 8.87321L 3.27337 8.41221C 3.27337 7.88858 2.91093 7.46926 2.44862 7.35187C 1.6908 7.15948 1.47546 6.90839 1.35149 6.64224C 1.16551 6.24298 1.09113 5.59315 1.09111 4.36487C 1.09085 3.50314 1.11294 2.91574 1.23221 2.44273C 1.32568 2.01103 1.37846 1.89298 1.64191 1.72024C 1.85695 1.55627 2.25306 1.38202 3.03348 1.26179C 3.83345 1.137 4.86127 1.09095 6.2739 1.09122C 7.68663 1.09095 8.71437 1.13699 9.51437 1.2618C 10.2948 1.38201 10.6909 1.55627 10.9059 1.72025C 11.1694 1.89299 11.2221 2.011 11.3156 2.44274C 11.4349 2.91575 11.457 3.50316 11.4567 4.36488ZM 6.27395 8.72973C 12.025 8.72974 12.5479 7.91134 12.5478 4.36489C 12.5478 0.81841 12.025 3.3974e-05 6.27391 0C 0.522827 2.29755e-05 2.68695e-05 0.81845 0 4.36487C 1.18706e-06 6.76631 0.239738 7.91692 2.18014 8.40953C 2.18137 8.40985 2.18229 8.41095 2.18227 8.4122L 2.18224 9.89268C 2.18222 10.3284 2.66788 10.5884 3.03043 10.3467L 5.46409 8.72407C 5.46454 8.72377 5.46512 8.72362 5.46568 8.72362C 5.72288 8.72776 5.99216 8.72975 6.27395 8.72973ZM 9.82001 4.63767C 9.82001 5.08965 9.45363 5.45606 9.0017 5.45608C 8.54971 5.45607 8.18336 5.08967 8.18337 4.63769C 8.18333 4.18568 8.54972 3.81924 9.00169 3.81928C 9.45362 3.81926 9.82002 4.18569 9.82001 4.63767ZM 6.27395 5.4561C 6.72588 5.45608 7.09226 5.08967 7.09227 4.63769C 7.09228 4.18571 6.72587 3.81928 6.27394 3.8193C 5.82197 3.81926 5.45558 4.1857 5.45563 4.63771C 5.45562 5.08969 5.82197 5.45609 6.27395 5.4561ZM 3.54615 5.45609C 3.99808 5.45607 4.36446 5.08966 4.36447 4.63768C 4.36448 4.1857 3.99807 3.81927 3.54614 3.81929C 3.09417 3.81925 2.72778 4.18569 2.72783 4.6377C 2.72782 5.08968 3.09417 5.45608 3.54615 5.45609Z"/>
<path id="path21_fill" fill-rule="evenodd" d="M 13.5689 4.72038C 13.5689 8.55567 13.0035 9.44074 6.78443 9.44072C 6.47973 9.44071 6.18855 9.43859 5.9104 9.43412C 5.90976 9.4341 5.90918 9.43428 5.9087 9.4346L 3.27699 11.1894C 2.88492 11.4508 2.35976 11.1697 2.35982 10.6984L 2.35981 9.09731C 2.35977 9.09647 2.35937 9.09566 2.35877 9.09509C 2.35844 9.0948 2.358 9.09457 2.35753 9.09445C 0.259227 8.5617 -7.4254e-06 7.31741 1.59515e-10 4.72037C 1.17745e-05 0.885078 0.565338 3.24028e-05 6.78445 0C 13.0035 1.28743e-05 13.5689 0.885086 13.5689 4.72038ZM 3.8347 5.90045C 4.32347 5.90045 4.71966 5.50418 4.71964 5.0154C 4.71967 4.52657 4.32347 4.13031 3.8347 4.13031C 3.346 4.13032 2.94981 4.52656 2.94984 5.01537C 2.94981 5.5042 3.346 5.90046 3.8347 5.90045ZM 9.73422 5.90045C 10.223 5.90045 10.6192 5.50418 10.6192 5.0154C 10.6192 4.52657 10.223 4.13031 9.73422 4.13031C 9.24552 4.13032 8.84932 4.52656 8.84935 5.01537C 8.84932 5.5042 9.24552 5.90046 9.73422 5.90045ZM 7.66937 5.01541C 7.66939 5.50419 7.2732 5.90046 6.78443 5.90045C 6.29573 5.90046 5.89953 5.50421 5.89956 5.01538C 5.89953 4.52657 6.29573 4.13033 6.78443 4.13032C 7.2732 4.13032 7.6694 4.52658 7.66937 5.01541Z"/>
<path id="path22_fill" fill-rule="evenodd" d="M 9.15972 3.18629C 9.15977 5.77516 8.77809 6.37259 4.57985 6.37258C 4.49485 6.37259 4.41146 6.37236 4.32956 6.37187C 4.21325 6.37117 4.10001 6.36991 3.98982 6.36813C 3.98941 6.36811 3.989 6.36822 3.98871 6.36848L 2.21213 7.55292C 1.94746 7.72936 1.59296 7.53961 1.59298 7.22154L 1.593 6.14079C 1.59302 6.14027 1.5928 6.13979 1.59245 6.13942C 1.5922 6.13913 1.59183 6.13891 1.59145 6.13884C 0.174959 5.77925 -5.37584e-05 4.93931 1.23827e-08 3.18629C -5.93438e-05 0.597425 0.381627 -5.59505e-06 4.57986 3.92991e-11C 8.7781 5.59513e-06 9.15972 0.597427 9.15972 3.18629ZM 6.57124 3.98292C 6.90116 3.98292 7.16861 3.71546 7.1686 3.38549C 7.16858 3.05552 6.90115 2.78807 6.57124 2.78807C 6.24132 2.78806 5.97385 3.05555 5.97381 3.38549C 5.97384 3.71544 6.24131 3.98294 6.57124 3.98292ZM 2.58874 3.98292C 2.91866 3.98292 3.18612 3.71546 3.1861 3.38549C 3.18608 3.05552 2.91866 2.78807 2.58874 2.78806C 2.25882 2.78806 1.99135 3.05555 1.99131 3.38549C 1.99135 3.71543 2.25881 3.98294 2.58874 3.98292ZM 5.17732 3.38548C 5.17734 3.71545 4.90988 3.98291 4.57996 3.98291C 4.25003 3.98293 3.98257 3.71542 3.98254 3.38548C 3.98257 3.05554 4.25004 2.78805 4.57996 2.78805C 4.90988 2.78805 5.1773 3.05551 5.17732 3.38548Z"/>
<path id="path23_fill" fill-rule="evenodd" d="M 42.1276 14.6554C 42.1277 26.5628 40.3723 29.3107 21.0638 29.3107C 20.1178 29.3107 19.2138 29.3041 18.3501 29.2902C 18.3488 29.2902 18.3474 29.2905 18.3462 29.291L 18.3449 29.2917L 10.1742 34.7397C 8.95698 35.5512 7.32657 34.6786 7.32655 33.2154L 7.32656 28.2446C 7.32654 28.2404 7.32356 28.2367 7.31953 28.2357C 0.804853 26.5816 2.7412e-05 22.7184 0 14.6554C 1.06715e-05 2.74787 1.75536 2.40701e-05 21.0638 0C 40.3723 5.4073e-06 42.1276 2.74788 42.1276 14.6554ZM 30.222 18.3193C 31.7394 18.3193 32.9695 17.089 32.9695 15.5714C 32.9695 14.0538 31.7394 12.8235 30.222 12.8235C 28.7047 12.8235 27.4746 14.0538 27.4745 15.5714C 27.4746 17.089 28.7046 18.3193 30.222 18.3193ZM 11.9057 18.3193C 13.4231 18.3193 14.6532 17.089 14.6532 15.5714C 14.6532 14.0538 13.4231 12.8235 11.9057 12.8235C 10.3884 12.8235 9.15828 14.0538 9.15826 15.5714C 9.15829 17.089 10.3883 18.3193 11.9057 18.3193ZM 23.8113 15.5714C 23.8114 17.089 22.5813 18.3193 21.0639 18.3193C 19.5465 18.3193 18.3165 17.089 18.3164 15.5714C 18.3164 14.0538 19.5465 12.8235 21.0639 12.8235C 22.5813 12.8235 23.8114 14.0538 23.8113 15.5714Z"/>
<path id="path24_fill" fill-rule="evenodd" d="M 11.9445 4.15523C 11.9445 7.53134 11.4468 8.31046 5.97223 8.31044C 5.70399 8.31043 5.44769 8.30857 5.20282 8.30462C 5.20231 8.30464 5.20176 8.30478 5.20137 8.30508L 2.88473 9.84974C 2.53962 10.0798 2.07733 9.83241 2.07733 9.41755L 2.07729 8.00817C 2.0773 8.00697 2.07644 8.00592 2.07532 8.00562C 0.228195 7.53667 1.96854e-05 6.44134 0 4.15521C 5.66446e-06 0.77907 0.497699 -4.35627e-05 5.97226 1.82681e-09C 11.4468 -3.11881e-05 11.9445 0.779068 11.9445 4.15523ZM 8.56884 5.19405C 8.9991 5.19404 9.34783 4.84522 9.34785 4.41495C 9.34786 3.9847 8.99905 3.63589 8.56887 3.63586C 8.13861 3.63587 7.78988 3.98466 7.78987 4.41493C 7.7899 4.84525 8.13865 5.19405 8.56884 5.19405ZM 3.37564 5.19409C 3.8059 5.19408 4.15464 4.84525 4.15465 4.41498C 4.15468 3.98468 3.80587 3.63587 3.37568 3.63586C 2.94542 3.63588 2.59668 3.9847 2.59667 4.41497C 2.5967 4.84529 2.94545 5.19409 3.37564 5.19409ZM 6.75122 4.41496C 6.75121 4.84523 6.40247 5.19405 5.97221 5.19406C 5.54202 5.19406 5.19327 4.84526 5.19324 4.41494C 5.19325 3.98467 5.54199 3.63585 5.97225 3.63584C 6.40244 3.63584 6.75125 3.98466 6.75122 4.41496Z"/>
<path id="path25_fill" fill-rule="evenodd" d="M 11.9445 4.15523C 11.9445 7.53137 11.4468 8.31049 5.97223 8.31047C 5.70399 8.31046 5.44769 8.3086 5.20282 8.30464L 5.20202 8.30481L 5.20137 8.30511L 2.88473 9.84977C 2.53962 10.0799 2.07733 9.83244 2.07733 9.41758L 2.07729 8.0082C 2.0773 8.007 2.07644 8.00595 2.07532 8.00565C 0.228195 7.5367 1.96854e-05 6.44137 0 4.15524C 5.66446e-06 0.779099 0.497699 -1.4087e-05 5.97226 1.91028e-10C 11.4468 -1.71234e-06 11.9445 0.779097 11.9445 4.15523ZM 8.56883 5.19411C 8.99909 5.1941 9.34783 4.84528 9.34784 4.415C 9.34787 3.9847 8.99906 3.63589 8.56887 3.63588C 8.13861 3.6359 7.78987 3.98472 7.78986 4.41499C 7.78989 4.84531 8.13864 5.19411 8.56883 5.19411ZM 3.37564 5.19412C 3.8059 5.19411 4.15464 4.84528 4.15465 4.41501C 4.15468 3.98471 3.80587 3.6359 3.37568 3.63589C 2.94542 3.63591 2.59668 3.98473 2.59667 4.415C 2.5967 4.84532 2.94545 5.19412 3.37564 5.19412ZM 6.75122 4.41499C 6.75121 4.84526 6.40247 5.19408 5.97221 5.19409C 5.54202 5.19409 5.19327 4.84529 5.19324 4.41497C 5.19325 3.9847 5.54199 3.63588 5.97225 3.63587C 6.40244 3.63587 6.75125 3.98469 6.75122 4.41499Z"/>
<path id="path26_fill" d="M 0 0L 320 0L 320 160L 0 160L 0 0Z"/>
</defs>
</svg>
