<svg width="320" height="160" viewBox="0 0 320 160" version="1.1" xmlns="http://www.w3.org/2000/svg" xmlns:xlink="http://www.w3.org/1999/xlink">
<title>communities</title>
<desc>Created using Figma</desc>
<g id="Canvas" transform="translate(603 536)">
 clip-path="url(#clip-0)"<g id="communities">
<mask id="mask0_alpha" mask-type="alpha">
<g id="Group">
<g id="Group">
<g id="Group">
<g id="Rectangle 8">
<use xlink:href="#path0_fill" transform="translate(-587.429 -526)" fill="#171A21"/>
</g>
<g id="Rectangle 8">
<use xlink:href="#path0_fill" transform="matrix(0.5 0.866025 -0.866025 0.5 -581.608 -524.083)" fill="#171A21"/>
</g>
<g id="Rectangle 8">
<use xlink:href="#path0_fill" transform="matrix(-0.5 0.866025 -0.866025 -0.5 -580.358 -518.083)" fill="#171A21"/>
</g>
</g>
<g id="Group">
<g id="Rectangle 8">
<use xlink:href="#path1_fill" transform="matrix(0.866025 0.5 -0.5 0.866025 -578.105 -495.102)" fill="#171A21"/>
</g>
<g id="Rectangle 8">
<use xlink:href="#path2_fill" transform="matrix(0 1 -1 0 -571.909 -488.164)" fill="#171A21"/>
</g>
<g id="Rectangle 8">
<use xlink:href="#path1_fill" transform="matrix(-0.866025 0.5 -0.5 -0.866025 -574.819 -479.329)" fill="#171A21"/>
</g>
</g>
<g id="Group">
<g id="Rectangle 8">
<use xlink:href="#path3_fill" transform="matrix(0.965926 0.258819 -0.258819 0.965926 -525.385 -508.962)" fill="#171A21"/>
</g>
<g id="Rectangle 8">
<use xlink:href="#path4_fill" transform="matrix(0.258819 0.965926 -0.965926 0.258819 -519.297 -504.974)" fill="#171A21"/>
</g>
<g id="Rectangle 8">
<use xlink:href="#path3_fill" transform="matrix(-0.707107 0.707107 -0.707107 -0.707107 -519.707 -497.707)" fill="#171A21"/>
</g>
</g>
<g id="Group">
<g id="Rectangle 8">
<use xlink:href="#path5_fill" transform="matrix(0.965926 0.258819 -0.258819 0.965926 -505.263 -527.149)" fill="#171A21"/>
</g>
<g id="Rectangle 8">
<use xlink:href="#path6_fill" transform="matrix(0.258819 0.965926 -0.965926 0.258819 -502.062 -525.052)" fill="#171A21"/>
</g>
<g id="Rectangle 8">
<use xlink:href="#path5_fill" transform="matrix(-0.707107 0.707107 -0.707107 -0.707107 -502.278 -521.231)" fill="#171A21"/>
</g>
</g>
<g id="Group">
<g id="Rectangle 8">
<use xlink:href="#path7_fill" transform="matrix(0.965926 -0.258819 0.258819 0.965926 -595.721 -448)" fill="#171A21"/>
</g>
<g id="Rectangle 8">
<use xlink:href="#path8_fill" transform="matrix(0.707107 0.707107 -0.707107 0.707107 -591.611 -447.768)" fill="#171A21"/>
</g>
<g id="Rectangle 8">
<use xlink:href="#path7_fill" transform="matrix(-0.258819 0.965926 -0.965926 -0.258819 -589.757 -444.093)" fill="#171A21"/>
</g>
</g>
<g id="Group">
<g id="Rectangle 8">
<use xlink:href="#path9_fill" transform="matrix(0.965926 0.258819 -0.258819 0.965926 -565.097 -427.834)" fill="#171A21"/>
</g>
<g id="Rectangle 8">
<use xlink:href="#path10_fill" transform="matrix(0.258819 0.965926 -0.965926 0.258819 -559.504 -424.169)" fill="#171A21"/>
</g>
<g id="Rectangle 8">
<use xlink:href="#path11_fill" transform="matrix(-0.707107 0.707107 -0.707107 -0.707107 -559.881 -417.493)" fill="#171A21"/>
</g>
</g>
<g id="Group">
<g id="Rectangle 8">
<use xlink:href="#path12_fill" transform="matrix(0.965926 0.258819 -0.258819 0.965926 -582.61 -401.467)" fill="#171A21"/>
</g>
<g id="Rectangle 8">
<use xlink:href="#path13_fill" transform="matrix(0.258819 0.965926 -0.965926 0.258819 -580.3 -399.953)" fill="#171A21"/>
</g>
<g id="Rectangle 8">
<use xlink:href="#path14_fill" transform="matrix(-0.707107 0.707107 -0.707107 -0.707107 -580.456 -397.195)" fill="#171A21"/>
</g>
</g>
</g>
<g id="Group">
<g id="Group">
<g id="Rectangle 8">
<use xlink:href="#path0_fill" transform="matrix(-1 0 0 -1 -298.902 -395.418)" fill="#171A21"/>
</g>
<g id="Rectangle 8">
<use xlink:href="#path0_fill" transform="matrix(-0.5 -0.866025 0.866025 -0.5 -304.723 -397.336)" fill="#171A21"/>
</g>
<g id="Rectangle 8">
<use xlink:href="#path0_fill" transform="matrix(0.5 -0.866025 0.866025 0.5 -305.973 -403.336)" fill="#171A21"/>
</g>
</g>
<g id="Group">
<g id="Rectangle 8">
<use xlink:href="#path15_fill" transform="matrix(-0.707107 -0.707107 0.707107 -0.707107 -352.26 -449.703)" fill="#171A21"/>
</g>
<g id="Rectangle 8">
<use xlink:href="#path16_fill" transform="matrix(0.285472 -0.958387 0.972935 0.231077 -356.845 -459.26)" fill="#171A21"/>
</g>
<g id="Rectangle 8">
<use xlink:href="#path16_fill" transform="matrix(0.958387 -0.285472 0.231077 0.972935 -350.585 -468.557)" fill="#171A21"/>
</g>
</g>
<g id="Group">
<g id="Rectangle 8">
<use xlink:href="#path1_fill" transform="matrix(-0.866025 -0.5 0.5 -0.866025 -308.226 -426.316)" fill="#171A21"/>
</g>
<g id="Rectangle 8">
<use xlink:href="#path2_fill" transform="matrix(0 -1 1 0 -314.422 -433.254)" fill="#171A21"/>
</g>
<g id="Rectangle 8">
<use xlink:href="#path1_fill" transform="matrix(0.866025 -0.5 0.5 0.866025 -311.512 -442.089)" fill="#171A21"/>
</g>
</g>
<g id="Group">
<g id="Rectangle 8">
<use xlink:href="#path17_fill" transform="matrix(-0.866025 -0.5 0.5 -0.866025 -376.494 -397.538)" fill="#171A21"/>
</g>
<g id="Rectangle 8">
<use xlink:href="#path18_fill" transform="matrix(0 -1 1 0 -380.112 -401.588)" fill="#171A21"/>
</g>
<g id="Rectangle 8">
<use xlink:href="#path17_fill" transform="matrix(0.866025 -0.5 0.5 0.866025 -378.413 -406.746)" fill="#171A21"/>
</g>
</g>
<g id="Group">
<g id="Rectangle 8">
<use xlink:href="#path7_fill" transform="matrix(-0.965926 0.258819 -0.258819 -0.965926 -290.61 -473.418)" fill="#171A21"/>
</g>
<g id="Rectangle 8">
<use xlink:href="#path8_fill" transform="matrix(-0.707107 -0.707107 0.707107 -0.707107 -294.72 -473.65)" fill="#171A21"/>
</g>
<g id="Rectangle 8">
<use xlink:href="#path7_fill" transform="matrix(0.258819 -0.965926 0.965926 0.258819 -296.574 -477.325)" fill="#171A21"/>
</g>
</g>
<g id="Group">
<g id="Rectangle 8">
<use xlink:href="#path19_fill" transform="matrix(-0.965926 0.258819 -0.258819 -0.965926 -379.394 -503.572)" fill="#171A21"/>
</g>
<g id="Rectangle 8">
<use xlink:href="#path20_fill" transform="matrix(-0.707107 -0.707107 0.707107 -0.707107 -385.571 -503.921)" fill="#171A21"/>
</g>
<g id="Rectangle 8">
<use xlink:href="#path21_fill" transform="matrix(0.258819 -0.965926 0.965926 0.258819 -388.357 -509.444)" fill="#171A21"/>
</g>
</g>
<g id="Group">
<g id="Rectangle 8">
<use xlink:href="#path22_fill" transform="matrix(-1 1.38778e-16 -1.38778e-16 -1 -416.253 -385.611)" fill="#171A21"/>
</g>
<g id="Rectangle 8">
<use xlink:href="#path23_fill" transform="matrix(-0.5 -0.866025 0.866025 -0.5 -427.913 -389.452)" fill="#171A21"/>
</g>
<g id="Rectangle 8">
<use xlink:href="#path24_fill" transform="matrix(0.5 -0.866025 0.866025 0.5 -430.417 -401.47)" fill="#171A21"/>
</g>
</g>
<g id="Group">
<g id="Rectangle 8">
<use xlink:href="#path9_fill" transform="matrix(-0.965926 -0.258819 0.258819 -0.965926 -321.234 -493.584)" fill="#171A21"/>
</g>
<g id="Rectangle 8">
<use xlink:href="#path10_fill" transform="matrix(-0.258819 -0.965926 0.965926 -0.258819 -326.827 -497.249)" fill="#171A21"/>
</g>
<g id="Rectangle 8">
<use xlink:href="#path11_fill" transform="matrix(0.707107 -0.707107 0.707107 0.707107 -326.451 -503.925)" fill="#171A21"/>
</g>
</g>
<g id="Group">
<g id="Rectangle 8">
<use xlink:href="#path25_fill" transform="matrix(-1 -1.38778e-16 2.09225e-16 -1 -471.141 -513)" fill="#171A21"/>
</g>
<g id="Rectangle 8">
<use xlink:href="#path26_fill" transform="matrix(-0.511389 -0.859349 0.872454 -0.488697 -475.141 -514.278)" fill="#171A21"/>
</g>
<g id="Rectangle 8">
<use xlink:href="#path27_fill" transform="matrix(0.511389 -0.859349 0.872454 0.488697 -476 -518.278)" fill="#171A21"/>
</g>
</g>
<g id="Group">
<g id="Rectangle 8">
<use xlink:href="#path9_fill" transform="matrix(-0.965926 -0.258819 0.258819 -0.965926 -515.548 -390.357)" fill="#171A21"/>
</g>
<g id="Rectangle 8">
<use xlink:href="#path10_fill" transform="matrix(-0.258819 -0.965926 0.965926 -0.258819 -521.141 -394.022)" fill="#171A21"/>
</g>
<g id="Rectangle 8">
<use xlink:href="#path11_fill" transform="matrix(0.707107 -0.707107 0.707107 0.707107 -520.764 -400.698)" fill="#171A21"/>
</g>
</g>
<g id="Group">
<g id="Rectangle 8">
<use xlink:href="#path12_fill" transform="matrix(-0.965926 -0.258819 0.258819 -0.965926 -303.721 -519.951)" fill="#171A21"/>
</g>
<g id="Rectangle 8">
<use xlink:href="#path13_fill" transform="matrix(-0.258819 -0.965926 0.965926 -0.258819 -306.031 -521.465)" fill="#171A21"/>
</g>
<g id="Rectangle 8">
<use xlink:href="#path14_fill" transform="matrix(0.707107 -0.707107 0.707107 0.707107 -305.875 -524.223)" fill="#171A21"/>
</g>
</g>
</g>
</g>
</mask>
<g id="Rectangle" mask="url(#mask0_alpha)">
<use xlink:href="#path28_fill" transform="translate(-603 -536)" fill="url(#paint54_radial)" fill-opacity="0.48" style="mix-blend-mode:hard-light"/>
</g>
</g>
</g>
<defs>
<radialGradient id="paint54_radial" cx="0.5" cy="0.5" r="0.5" gradientUnits="userSpaceOnUse" gradientTransform="matrix(-320 160 -159.035 -318.07 399.517 159.035)">
<stop offset="0" stop-color="#FFFFFF"/>
<stop offset="1" stop-color="#D6E0EE"/>
</radialGradient>
<path id="path0_fill" d="M 0.25 5C 0.25 2 -0.75 0 1.25 0C 3.25 0 2.25 2 2.25 5L 2.25 7C 2.25 10 3.25 12 1.25 12C -0.750001 12 0.25 10 0.25 7L 0.25 5Z"/>
<path id="path1_fill" d="M 0.37944 7.5888C 0.37944 3.03552 -1.13832 0 1.8972 0C 4.93272 0 3.41496 3.03552 3.41496 7.5888L 3.41496 10.6243C 3.41496 15.1776 4.93272 18.2131 1.8972 18.2131C -1.13832 18.2131 0.37944 15.1776 0.37944 10.6243L 0.37944 7.5888Z"/>
<path id="path2_fill" d="M 0.37944 7.5888C 0.37944 3.03552 -1.13832 0 1.8972 0C 4.93272 0 3.41496 3.03552 3.41496 7.5888L 3.41496 10.6243C 3.41496 15.1776 4.93272 18.2131 1.8972 18.2131C -1.13832 18.2131 0.37944 15.1776 0.37944 10.6243L 0.37944 7.5888Z"/>
<path id="path3_fill" d="M 0.296878 5.93756C 0.296878 2.37502 -0.890634 0 1.48439 0C 3.85941 0 2.6719 2.37502 2.6719 5.93756L 2.6719 8.31259C 2.6719 11.8751 3.85942 14.2501 1.48439 14.2501C -0.890635 14.2501 0.296878 11.8751 0.296878 8.31259L 0.296878 5.93756Z"/>
<path id="path4_fill" d="M 0.296878 5.93756C 0.296878 2.37502 -0.890634 0 1.48439 0C 3.85941 0 2.6719 2.37502 2.6719 5.93756L 2.6719 8.31259C 2.6719 11.8751 3.85942 14.2501 1.48439 14.2501C -0.890635 14.2501 0.296878 11.8751 0.296878 8.31259L 0.296878 5.93756Z"/>
<path id="path5_fill" d="M 0.1561 3.122C 0.1561 1.2488 -0.4683 0 0.780501 0C 2.0293 0 1.4049 1.2488 1.4049 3.122L 1.4049 4.3708C 1.4049 6.24401 2.0293 7.49281 0.780501 7.49281C -0.468301 7.49281 0.1561 6.24401 0.1561 4.3708L 0.1561 3.122Z"/>
<path id="path6_fill" d="M 0.1561 3.122C 0.1561 1.2488 -0.468301 0 0.780501 0C 2.0293 0 1.4049 1.2488 1.4049 3.122L 1.4049 4.3708C 1.4049 6.24401 2.0293 7.49281 0.780501 7.49281C -0.468301 7.49281 0.1561 6.24401 0.1561 4.3708L 0.1561 3.122Z"/>
<path id="path7_fill" d="M 0.167911 3.35822C 0.167911 1.34329 -0.503732 0 0.839554 0C 2.18284 0 1.5112 1.34329 1.5112 3.35822L 1.5112 4.7015C 1.5112 6.71643 2.18284 8.05972 0.839554 8.05972C -0.503733 8.05972 0.167911 6.71643 0.167911 4.7015L 0.167911 3.35822Z"/>
<path id="path8_fill" d="M 0.167911 3.35822C 0.167911 1.34329 -0.503733 0 0.839554 0C 2.18284 0 1.5112 1.34329 1.5112 3.35822L 1.5112 4.7015C 1.5112 6.71643 2.18284 8.05972 0.839554 8.05972C -0.503733 8.05972 0.167911 6.71643 0.167911 4.7015L 0.167911 3.35822Z"/>
<path id="path9_fill" d="M 0.272753 5.45507C 0.272753 2.18203 -0.81826 0 1.36377 0C 3.54579 0 2.45478 2.18203 2.45478 5.45507L 2.45478 7.63709C 2.45478 10.9101 3.54579 13.0922 1.36377 13.0922C -0.818261 13.0922 0.272753 10.9101 0.272753 7.63709L 0.272753 5.45507Z"/>
<path id="path10_fill" d="M 0.272753 5.45507C 0.272753 2.18203 -0.81826 0 1.36377 0C 3.54579 0 2.45478 2.18203 2.45478 5.45507L 2.45478 7.63709C 2.45478 10.9101 3.54579 13.0922 1.36377 13.0922C -0.818261 13.0922 0.272753 10.9101 0.272753 7.63709L 0.272753 5.45507Z"/>
<path id="path11_fill" d="M 0.272753 5.45507C 0.272753 2.18203 -0.81826 0 1.36377 0C 3.54579 0 2.45478 2.18203 2.45478 5.45507L 2.45478 7.63709C 2.45478 10.9101 3.54579 13.0922 1.36377 13.0922C -0.818261 13.0922 0.272753 10.9101 0.272753 7.63709L 0.272753 5.45507Z"/>
<path id="path12_fill" d="M 0.112669 2.25339C 0.112669 0.901357 -0.338009 0 0.563348 0C 1.4647 0 1.01403 0.901357 1.01403 2.25339L 1.01403 3.15475C 1.01403 4.50678 1.4647 5.40814 0.563348 5.40814C -0.338009 5.40814 0.112669 4.50678 0.112669 3.15475L 0.112669 2.25339Z"/>
<path id="path13_fill" d="M 0.11267 2.25339C 0.11267 0.901357 -0.338009 0 0.563348 0C 1.4647 0 1.01403 0.901357 1.01403 2.25339L 1.01403 3.15475C 1.01403 4.50678 1.46471 5.40814 0.563348 5.40814C -0.338009 5.40814 0.11267 4.50678 0.11267 3.15475L 0.11267 2.25339Z"/>
<path id="path14_fill" d="M 0.112669 2.25339C 0.112669 0.901357 -0.338009 0 0.563348 0C 1.4647 0 1.01403 0.901357 1.01403 2.25339L 1.01403 3.15475C 1.01403 4.50678 1.4647 5.40814 0.563348 5.40814C -0.338009 5.40814 0.112669 4.50678 0.112669 3.15475L 0.112669 2.25339Z"/>
<path id="path15_fill" d="M 0.429468 9.16667C 0.429468 3.66667 -1.2884 0 2.14734 0C 5.58309 0 3.86521 3.66667 3.86521 9.16667L 3.86521 12.8333C 3.86521 18.3333 5.58309 22 2.14734 22C -1.28841 22 0.429468 18.3333 0.429468 12.8333L 0.429468 9.16667Z"/>
<path id="path16_fill" d="M 0.45129 8.73727C 0.45129 3.49491 -1.35387 0 2.25645 0C 5.86677 0 4.06161 3.49491 4.06161 8.73727L 4.06161 12.2322C 4.06161 17.4745 5.86677 20.9694 2.25645 20.9694C -1.35387 20.9694 0.45129 17.4745 0.45129 12.2322L 0.45129 8.73727Z"/>
<path id="path17_fill" d="M 0.221528 4.43056C 0.221528 1.77222 -0.664584 0 1.10764 0C 2.87986 0 1.99375 1.77222 1.99375 4.43056L 1.99375 6.20278C 1.99375 8.86112 2.87986 10.6333 1.10764 10.6333C -0.664585 10.6333 0.221528 8.86112 0.221528 6.20278L 0.221528 4.43056Z"/>
<path id="path18_fill" d="M 0.221528 4.43056C 0.221528 1.77222 -0.664584 0 1.10764 0C 2.87986 0 1.99375 1.77222 1.99375 4.43056L 1.99375 6.20278C 1.99375 8.86112 2.87986 10.6333 1.10764 10.6333C -0.664585 10.6333 0.221528 8.86112 0.221528 6.20278L 0.221528 4.43056Z"/>
<path id="path19_fill" d="M 0.252347 5.04695C 0.252347 2.01878 -0.757042 0 1.26174 0C 3.28052 0 2.27113 2.01878 2.27113 5.04695L 2.27113 7.06573C 2.27113 10.0939 3.28052 12.1127 1.26174 12.1127C -0.757043 12.1127 0.252347 10.0939 0.252347 7.06573L 0.252347 5.04695Z"/>
<path id="path20_fill" d="M 0.252347 5.04695C 0.252347 2.01878 -0.757042 0 1.26174 0C 3.28052 0 2.27113 2.01878 2.27113 5.04695L 2.27113 7.06573C 2.27113 10.0939 3.28052 12.1127 1.26174 12.1127C -0.757043 12.1127 0.252347 10.0939 0.252347 7.06573L 0.252347 5.04695Z"/>
<path id="path21_fill" d="M 0.252348 5.04695C 0.252348 2.01878 -0.757042 0 1.26174 0C 3.28052 0 2.27113 2.01878 2.27113 5.04695L 2.27113 7.06573C 2.27113 10.0939 3.28052 12.1127 1.26174 12.1127C -0.757043 12.1127 0.252348 10.0939 0.252348 7.06573L 0.252348 5.04695Z"/>
<path id="path22_fill" d="M 0.500773 10.0155C 0.500773 4.00619 -1.50232 0 2.50387 0C 6.51006 0 4.50696 4.00619 4.50696 10.0155L 4.50696 14.0217C 4.50696 20.0309 6.51006 24.0371 2.50387 24.0371C -1.50232 24.0371 0.500773 20.0309 0.500773 14.0217L 0.500773 10.0155Z"/>
<path id="path23_fill" d="M 0.500773 10.0155C 0.500773 4.00619 -1.50232 0 2.50387 0C 6.51006 0 4.50696 4.00619 4.50696 10.0155L 4.50696 14.0217C 4.50696 20.0309 6.51006 24.0371 2.50387 24.0371C -1.50232 24.0371 0.500773 20.0309 0.500773 14.0217L 0.500773 10.0155Z"/>
<path id="path24_fill" d="M 0.500774 10.0155C 0.500774 4.00619 -1.50232 0 2.50387 0C 6.51006 0 4.50696 4.00619 4.50696 10.0155L 4.50696 14.0217C 4.50696 20.0309 6.51006 24.0371 2.50387 24.0371C -1.50232 24.0371 0.500774 20.0309 0.500774 14.0217L 0.500774 10.0155Z"/>
<path id="path25_fill" d="M 0.171787 3.33333C 0.171787 1.33333 -0.515362 0 0.858936 0C 2.23323 0 1.54609 1.33333 1.54609 3.33333L 1.54609 4.66667C 1.54609 6.66667 2.23323 8 0.858936 8C -0.515362 8 0.171787 6.66667 0.171787 4.66667L 0.171787 3.33333Z"/>
<path id="path26_fill" d="M 0.167961 3.41043C 0.167961 1.36417 -0.503884 0 0.839807 0C 2.1835 0 1.51165 1.36417 1.51165 3.41043L 1.51165 4.7746C 1.51165 6.82086 2.1835 8.18504 0.839807 8.18504C -0.503885 8.18504 0.167961 6.82086 0.167961 4.7746L 0.167961 3.41043Z"/>
<path id="path27_fill" d="M 0.167961 3.41043C 0.167961 1.36417 -0.503884 0 0.839807 0C 2.1835 0 1.51165 1.36417 1.51165 3.41043L 1.51165 4.7746C 1.51165 6.82086 2.1835 8.18504 0.839807 8.18504C -0.503885 8.18504 0.167961 6.82086 0.167961 4.7746L 0.167961 3.41043Z"/>
<path id="path28_fill" d="M 0 0L 320 0L 320 160L 0 160L 0 0Z"/>
</defs>
</svg>
