<svg width="320" height="160" viewBox="0 0 320 160" version="1.1" xmlns="http://www.w3.org/2000/svg" xmlns:xlink="http://www.w3.org/1999/xlink">
<title>error</title>
<desc>Created using Figma</desc>
<g id="Canvas" transform="translate(243 136)">
 clip-path="url(#clip-0)"<g id="error">
<mask id="mask0_alpha" mask-type="alpha">
<g id="Union">
<use xlink:href="#path0_fill" transform="translate(-234.389 -128.375)" fill="#171A21"/>
</g>
</mask>
<g id="Rectangle" mask="url(#mask0_alpha)">
<use xlink:href="#path1_fill" transform="translate(-243 -136)" fill="url(#paint1_radial)" fill-opacity="0.48" style="mix-blend-mode:hard-light"/>
</g>
</g>
</g>
<defs>
<radialGradient id="paint1_radial" cx="0.5" cy="0.5" r="0.5" gradientUnits="userSpaceOnUse" gradientTransform="matrix(-320 160 -159.035 -318.07 399.517 159.035)">
<stop offset="0" stop-color="#FFFFFF"/>
<stop offset="1" stop-color="#D6E0EE"/>
</radialGradient>
<path id="path0_fill" fill-rule="evenodd" d="M 193.191 3.2505C 192.674 1.98965 193.331 0.554416 194.624 0.122348C 195.916 -0.309704 197.305 0.441669 197.65 1.75999L 201.487 16.4165C 201.666 17.1019 201.283 17.809 200.611 18.0337C 199.94 18.2583 199.209 17.9235 198.94 17.268L 193.191 3.2505ZM 203.401 20.4201C 203.731 21.4094 203.197 22.4793 202.208 22.81C 201.219 23.1407 200.149 22.6069 199.818 21.6177C 199.488 20.6285 200.021 19.5585 201.011 19.2278C 202 18.8971 203.07 19.4309 203.401 20.4201ZM 2.01724 1.07953C 0.497218 1.48682 -0.361211 3.09497 0.146297 4.58454L 5.78843 21.1449C 6.05227 21.9193 6.87138 22.3565 7.66165 22.1448C 8.45192 21.933 8.94267 21.1448 8.78396 20.3422L 5.39003 3.17948C 5.08474 1.63573 3.53726 0.672245 2.01724 1.07953ZM 9.16684 27.7622C 10.3302 27.4504 11.0206 26.2546 10.7089 25.0912C 10.3972 23.9278 9.20135 23.2374 8.03794 23.5491C 6.87455 23.8609 6.18414 25.0567 6.49586 26.2201C 6.8076 27.3835 8.00343 28.0739 9.16684 27.7622ZM 26.7315 6.72889C 24.2331 6.93228 22.4279 9.2067 22.7971 11.686L 26.9009 39.2502C 27.0928 40.5392 28.2513 41.4587 29.5502 41.353C 30.8491 41.2472 31.8436 40.1525 31.8245 38.8494L 31.416 10.9844C 31.3792 8.47799 29.2299 6.5255 26.7315 6.72889ZM 30.3019 50.5861C 32.2141 50.4304 33.6381 48.754 33.4824 46.8418C 33.3267 44.9296 31.6504 43.5056 29.7381 43.6613C 27.8259 43.8169 26.4019 45.4933 26.5576 47.4055C 26.7133 49.3178 28.3896 50.7417 30.3019 50.5861ZM 52.9331 5.54269C 53.403 4.6184 54.5569 4.28447 55.4479 4.81488C 56.3388 5.3453 56.5953 6.51879 56.0068 7.37252L 49.4639 16.864C 49.158 17.3078 48.5603 17.4384 48.097 17.1627C 47.6338 16.8869 47.4637 16.2992 47.708 15.8186L 52.9331 5.54269ZM 48.1067 19.9557C 47.7007 20.6377 46.8188 20.8614 46.1368 20.4554C 45.4548 20.0494 45.2311 19.1675 45.6371 18.4855C 46.0431 17.8036 46.925 17.5799 47.607 17.9858C 48.2889 18.3918 48.5126 19.2738 48.1067 19.9557ZM 12.7145 41.0315C 13.6947 41.1366 14.3816 42.0489 14.2116 43.02L 12.3212 53.8161C 12.2328 54.321 11.7681 54.6709 11.2585 54.6162C 10.7489 54.5616 10.3689 54.1212 10.3894 53.6091L 10.8299 42.6576C 10.8695 41.6725 11.7342 40.9264 12.7145 41.0315ZM 10.8702 58.2388C 10.12 58.1584 9.57695 57.485 9.65736 56.7348C 9.73776 55.9845 10.4112 55.4415 11.1614 55.5219C 11.9117 55.6023 12.4547 56.2757 12.3743 57.026C 12.2939 57.7762 11.6205 58.3192 10.8702 58.2388ZM 58.1614 36.0534C 58.9102 34.2363 57.9656 32.1648 56.1027 31.5385C 54.2398 30.9122 52.2358 31.9925 51.7348 33.8929L 46.1654 55.021C 45.905 56.0091 46.4552 57.0298 47.4237 57.3554C 48.3922 57.681 49.4473 57.1999 49.8366 56.2552L 58.1614 36.0534ZM 43.3955 60.7903C 42.9162 62.2161 43.6835 63.7606 45.1093 64.2399C 46.5351 64.7192 48.0796 63.952 48.5589 62.5261C 49.0382 61.1003 48.2709 59.5559 46.8451 59.0765C 45.4193 58.5972 43.8748 59.3645 43.3955 60.7903ZM 2.93707 70.9515C 4.4107 70.6183 5.85884 71.6011 6.09329 73.0937L 8.6999 89.6871C 8.8218 90.4631 8.32118 91.2007 7.55502 91.374C 6.78886 91.5472 6.0196 91.0968 5.79577 90.3438L 1.00956 74.2432C 0.579051 72.795 1.46342 71.2847 2.93707 70.9515ZM 8.78648 96.82C 7.65856 97.075 6.53747 96.3674 6.28244 95.2395C 6.02739 94.1116 6.73498 92.9905 7.86288 92.7355C 8.99078 92.4804 10.1119 93.188 10.3669 94.3159C 10.622 95.4438 9.91438 96.5649 8.78648 96.82ZM 36.0978 77.669C 35.4687 73.6642 31.5831 71.027 27.6291 71.9211C 23.6751 72.8152 21.3022 76.8676 22.4573 80.7534L 35.2995 123.954C 35.9001 125.974 37.9641 127.183 40.0199 126.718C 42.0756 126.253 43.4189 124.274 43.0918 122.192L 36.0978 77.669ZM 36.6053 137.09C 37.2896 140.116 40.2977 142.015 43.3241 141.331C 46.3504 140.646 48.249 137.638 47.5647 134.612C 46.8804 131.586 43.8723 129.687 40.8459 130.371C 37.8196 131.056 35.921 134.064 36.6053 137.09ZM 12.8565 120.985C 11.5402 120.632 10.2001 121.467 9.93571 122.804L 6.99662 137.666C 6.85917 138.361 7.28416 139.044 7.96852 139.227C 8.65289 139.411 9.36221 139.032 9.59071 138.361L 14.4767 124.02C 14.9162 122.731 14.1728 121.338 12.8565 120.985ZM 6.66505 144.092C 7.67254 144.362 8.70811 143.764 8.97807 142.756C 9.24803 141.749 8.65013 140.713 7.64265 140.443C 6.63516 140.173 5.59959 140.771 5.32963 141.779C 5.05967 142.786 5.65757 143.822 6.66505 144.092ZM 62.9357 100.804C 63.2001 99.4668 64.5402 98.6325 65.8565 98.9852C 67.1728 99.3379 67.9162 100.731 67.4767 102.02L 62.5907 116.361C 62.3622 117.032 61.6529 117.411 60.9685 117.227C 60.2842 117.044 59.8592 116.361 59.9966 115.666L 62.9357 100.804ZM 61.9781 120.756C 61.7081 121.764 60.6726 122.362 59.6651 122.092C 58.6576 121.822 58.0597 120.786 58.3296 119.779C 58.5996 118.771 59.6352 118.173 60.6427 118.443C 61.6501 118.713 62.248 119.749 61.9781 120.756ZM 96.9257 118.634C 95.5694 118.502 94.3838 119.544 94.3416 120.906L 93.8723 136.049C 93.8503 136.757 94.3812 137.361 95.0863 137.43C 95.7915 137.499 96.4293 137.01 96.5451 136.311L 99.0204 121.364C 99.2431 120.02 98.282 118.767 96.9257 118.634ZM 94.5958 142.443C 95.6339 142.544 96.5578 141.785 96.6594 140.747C 96.761 139.709 96.0018 138.785 94.9637 138.683C 93.9256 138.582 93.0018 139.341 92.9002 140.379C 92.7986 141.417 93.5578 142.341 94.5958 142.443ZM 72.9842 128.803C 72.0617 129.05 71.5408 130.026 71.8488 130.93L 75.2729 140.98C 75.4331 141.45 75.9302 141.715 76.4098 141.587C 76.8894 141.458 77.1872 140.98 77.0909 140.493L 75.0311 130.077C 74.8459 129.14 73.9067 128.555 72.9842 128.803ZM 77.3232 144.996C 78.0293 144.807 78.4483 144.081 78.2591 143.375C 78.0699 142.669 77.3442 142.25 76.6381 142.439C 75.9321 142.628 75.5131 143.354 75.7023 144.06C 75.8914 144.766 76.6172 145.185 77.3232 144.996ZM 54.5911 69.2707C 54.3523 68.5698 54.7562 67.813 55.4715 67.6214C 56.1868 67.4297 56.915 67.8831 57.0587 68.6095L 58.6558 76.6859C 58.7305 77.0636 58.4995 77.4345 58.1277 77.5341C 57.7558 77.6338 57.3703 77.428 57.2462 77.0636L 54.5911 69.2707ZM 59.5616 78.9207C 59.7083 79.4681 59.3834 80.0309 58.8359 80.1775C 58.2885 80.3242 57.7257 79.9993 57.5791 79.4519C 57.4324 78.9044 57.7573 78.3417 58.3047 78.195C 58.8522 78.0483 59.4149 78.3732 59.5616 78.9207ZM 74.6827 4.4431C 73.9374 4.51448 73.4079 5.20145 73.5287 5.94036L 74.8717 14.1553C 74.9345 14.5395 75.2844 14.8091 75.6719 14.772C 76.0594 14.7349 76.3518 14.4037 76.3405 14.0146L 76.0999 5.69412C 76.0782 4.9457 75.428 4.37172 74.6827 4.4431ZM 75.9347 17.5265C 76.5052 17.4719 76.9233 16.9651 76.8687 16.3947C 76.8141 15.8242 76.3073 15.4061 75.7369 15.4607C 75.1664 15.5154 74.7483 16.0221 74.8029 16.5925C 74.8576 17.163 75.3643 17.5811 75.9347 17.5265ZM 302.161 4.58454C 302.669 3.09497 301.81 1.48682 300.29 1.07953C 298.77 0.672245 297.223 1.63573 296.917 3.17948L 293.523 20.3422C 293.365 21.1448 293.856 21.933 294.646 22.1448C 295.436 22.3565 296.255 21.9193 296.519 21.1449L 302.161 4.58454ZM 291.599 25.0912C 291.287 26.2546 291.977 27.4504 293.141 27.7622C 294.304 28.0739 295.5 27.3835 295.812 26.2201C 296.123 25.0567 295.433 23.8609 294.27 23.5491C 293.106 23.2374 291.91 23.9278 291.599 25.0912ZM 275.576 6.7289C 278.074 6.93229 279.88 9.20671 279.51 11.686L 275.407 39.2502C 275.215 40.5393 274.056 41.4587 272.757 41.353C 271.458 41.2472 270.464 40.1525 270.483 38.8494L 270.891 10.9844C 270.928 8.478 273.078 6.52551 275.576 6.7289ZM 272.006 50.5861C 270.093 50.4304 268.669 48.754 268.825 46.8418C 268.981 44.9296 270.657 43.5056 272.569 43.6613C 274.482 43.8169 275.906 45.4933 275.75 47.4055C 275.594 49.3178 273.918 50.7418 272.006 50.5861ZM 249.374 5.54269C 248.904 4.6184 247.751 4.28447 246.86 4.81488C 245.969 5.3453 245.712 6.51879 246.301 7.37252L 252.844 16.864C 253.149 17.3078 253.747 17.4384 254.21 17.1627C 254.674 16.8869 254.844 16.2992 254.599 15.8186L 249.374 5.54269ZM 254.201 19.9557C 254.607 20.6377 255.489 20.8614 256.171 20.4554C 256.853 20.0494 257.076 19.1675 256.67 18.4855C 256.264 17.8036 255.382 17.5799 254.7 17.9858C 254.019 18.3918 253.795 19.2738 254.201 19.9557ZM 289.593 41.0315C 288.613 41.1366 287.926 42.0489 288.096 43.02L 289.986 53.8161C 290.075 54.321 290.539 54.6708 291.049 54.6162C 291.559 54.5616 291.939 54.1212 291.918 53.6091L 291.478 42.6576C 291.438 41.6725 290.573 40.9264 289.593 41.0315ZM 291.437 58.2388C 292.187 58.1584 292.731 57.485 292.65 56.7347C 292.57 55.9845 291.896 55.4415 291.146 55.5219C 290.396 55.6023 289.853 56.2757 289.933 57.0259C 290.014 57.7762 290.687 58.3192 291.437 58.2388ZM 244.146 36.0533C 243.397 34.2362 244.342 32.1647 246.205 31.5385C 248.068 30.9122 250.072 31.9925 250.573 33.8929L 256.142 55.021C 256.402 56.009 255.852 57.0298 254.884 57.3554C 253.915 57.681 252.86 57.1999 252.471 56.2552L 244.146 36.0533ZM 258.912 60.7903C 259.391 62.2161 258.624 63.7606 257.198 64.2399C 255.772 64.7192 254.228 63.9519 253.749 62.5261C 253.269 61.1003 254.037 59.5558 255.462 59.0765C 256.888 58.5972 258.433 59.3645 258.912 60.7903ZM 203.084 109.293C 201.202 108.725 199.233 109.869 198.793 111.784L 193.894 133.077C 193.665 134.073 194.247 135.076 195.225 135.371C 196.203 135.666 197.243 135.151 197.602 134.195L 205.284 113.74C 205.975 111.9 204.966 109.86 203.084 109.293ZM 193.129 142.325C 194.57 142.759 196.089 141.943 196.523 140.503C 196.957 139.063 196.141 137.543 194.701 137.109C 193.261 136.675 191.742 137.491 191.308 138.931C 190.873 140.372 191.689 141.891 193.129 142.325ZM 97.6935 7.79417C 98.4705 6.49842 100.181 6.13021 101.423 6.99165C 102.664 7.85309 102.917 9.5848 101.975 10.7659L 91.5015 23.8975C 91.0117 24.5115 90.1297 24.6407 89.4844 24.1928C 88.8391 23.745 88.6515 22.8735 89.0555 22.1998L 97.6935 7.79417ZM 89.2148 28.2535C 88.5554 29.2035 87.2508 29.4391 86.3008 28.7798C 85.3508 28.1205 85.1152 26.8159 85.7745 25.8659C 86.4339 24.9159 87.7385 24.6802 88.6885 25.3396C 89.6385 25.9989 89.8741 27.3035 89.2148 28.2535ZM 274.678 71.9211C 270.724 71.027 266.839 73.6642 266.21 77.669L 259.216 122.192C 258.889 124.274 260.232 126.253 262.288 126.718C 264.343 127.183 266.407 125.974 267.008 123.954L 279.85 80.7534C 281.005 76.8676 278.632 72.8152 274.678 71.9211ZM 258.983 141.331C 262.01 142.015 265.018 140.116 265.702 137.09C 266.386 134.064 264.488 131.056 261.462 130.371C 258.435 129.687 255.427 131.586 254.743 134.612C 254.058 137.638 255.957 140.646 258.983 141.331ZM 292.372 122.804C 292.107 121.467 290.767 120.632 289.451 120.985C 288.135 121.338 287.391 122.731 287.831 124.02L 292.717 138.361C 292.945 139.032 293.655 139.411 294.339 139.227C 295.023 139.044 295.448 138.361 295.311 137.666L 292.372 122.804ZM 293.329 142.756C 293.599 143.764 294.635 144.362 295.642 144.092C 296.65 143.822 297.248 142.786 296.978 141.779C 296.708 140.771 295.672 140.174 294.665 140.443C 293.657 140.713 293.059 141.749 293.329 142.756ZM 236.451 98.9852C 237.767 98.6325 239.107 99.4668 239.372 100.804L 242.311 115.666C 242.448 116.361 242.023 117.044 241.339 117.227C 240.655 117.411 239.945 117.032 239.717 116.361L 234.831 102.02C 234.391 100.731 235.135 99.3379 236.451 98.9852ZM 242.642 122.092C 241.635 122.362 240.599 121.764 240.329 120.756C 240.059 119.749 240.657 118.713 241.665 118.443C 242.672 118.174 243.708 118.771 243.978 119.779C 244.248 120.786 243.65 121.822 242.642 122.092ZM 230.459 130.93C 230.767 130.026 230.246 129.05 229.323 128.803C 228.401 128.556 227.462 129.14 227.276 130.077L 225.217 140.493C 225.12 140.98 225.418 141.459 225.898 141.587C 226.377 141.716 226.874 141.45 227.035 140.98L 230.459 130.93ZM 224.048 143.375C 223.859 144.081 224.278 144.807 224.984 144.996C 225.69 145.185 226.416 144.766 226.605 144.06C 226.794 143.354 226.375 142.629 225.669 142.439C 224.963 142.25 224.238 142.669 224.048 143.375ZM 246.836 67.6214C 247.551 67.813 247.955 68.5698 247.716 69.2707L 245.061 77.0636C 244.937 77.428 244.552 77.6338 244.18 77.5342C 243.808 77.4345 243.577 77.0636 243.652 76.6859L 245.249 68.6096C 245.392 67.8831 246.121 67.4297 246.836 67.6214ZM 243.472 80.1776C 242.924 80.0309 242.599 79.4681 242.746 78.9207C 242.893 78.3732 243.455 78.0483 244.003 78.195C 244.55 78.3417 244.875 78.9044 244.728 79.4519C 244.582 79.9994 244.019 80.3242 243.472 80.1776ZM 228.779 5.94036C 228.9 5.20145 228.37 4.51448 227.625 4.4431C 226.879 4.37172 226.229 4.9457 226.208 5.69412L 225.967 14.0146C 225.956 14.4037 226.248 14.7349 226.636 14.772C 227.023 14.8091 227.373 14.5395 227.436 14.1553L 228.779 5.94036ZM 225.439 16.3947C 225.384 16.9651 225.802 17.4719 226.373 17.5265C 226.943 17.5811 227.45 17.163 227.505 16.5925C 227.559 16.0221 227.141 15.5154 226.571 15.4607C 226 15.4061 225.493 15.8242 225.439 16.3947Z"/>
<path id="path1_fill" d="M 0 0L 320 0L 320 160L 0 160L 0 0Z"/>
</defs>
</svg>
