<svg width="320" height="160" viewBox="0 0 320 160" version="1.1" xmlns="http://www.w3.org/2000/svg" xmlns:xlink="http://www.w3.org/1999/xlink">
<title>locked</title>
<desc>Created using Figma</desc>
<g id="Canvas" transform="translate(-837 536)">
 clip-path="url(#clip-0)"<g id="locked">
<mask id="mask0_alpha" mask-type="alpha">
<g id="Group">
<g id="Group">
<g id="Union">
<use xlink:href="#path0_fill" transform="matrix(0.965877 0.259003 -0.258635 0.965975 849.359 -532)"/>
</g>
<g id="Union">
<use xlink:href="#path1_fill" transform="matrix(0.86586 0.500286 -0.499714 0.86619 910.941 -430.515)"/>
</g>
<g id="Union">
<use xlink:href="#path2_fill" transform="matrix(0.86586 -0.500286 0.499714 0.86619 859.505 -513.407)"/>
</g>
<g id="Union">
<use xlink:href="#path3_fill" transform="matrix(0.584009 0.811747 -0.811325 0.584595 855.79 -493.895)"/>
</g>
<g id="Union">
<use xlink:href="#path4_fill" transform="matrix(0.706837 0.707376 -0.706837 0.707376 873.433 -433.438)"/>
</g>
<g id="Union">
<use xlink:href="#path5_fill" transform="matrix(1 5.55534e-17 -5.54689e-17 1 864.34 -478.774)"/>
</g>
<g id="Union">
<use xlink:href="#path6_fill" transform="matrix(0.86586 0.500286 -0.499714 0.86619 926.289 -394.701)"/>
</g>
<g id="Union">
<use xlink:href="#path7_fill" transform="matrix(0.965877 -0.259003 0.258635 0.965975 845.651 -467.764)"/>
</g>
<g id="Union">
<use xlink:href="#path8_fill" transform="matrix(0.965877 -0.259003 0.258635 0.965975 889.12 -404.229)"/>
</g>
<g id="Union">
<use xlink:href="#path9_fill" transform="matrix(0.81061 -0.585586 0.585 0.811033 848.39 -436.297)"/>
</g>
<g id="Union">
<use xlink:href="#path10_fill" transform="matrix(0.959049 -0.283241 0.282844 0.959166 885.494 -439.783)"/>
</g>
<g id="Union">
<use xlink:href="#path11_fill" transform="matrix(0.959049 -0.283241 0.282844 0.959166 846.813 -506.316)"/>
</g>
<g id="Union">
<use xlink:href="#path12_fill" transform="matrix(0.86586 0.500286 -0.499714 0.86619 890.616 -481.193)"/>
</g>
<g id="Union">
<use xlink:href="#path13_fill" transform="matrix(0.974197 0.225701 -0.225375 0.974272 874.536 -454.58)"/>
</g>
</g>
<g id="Group">
<g id="Union">
<use xlink:href="#path14_fill" transform="matrix(-0.965669 0.259775 0.257866 0.966181 1147.74 -400.807)"/>
</g>
<g id="Union">
<use xlink:href="#path15_fill" transform="matrix(-0.865168 0.501483 0.498519 0.866879 1087.59 -501.686)"/>
</g>
<g id="Union">
<use xlink:href="#path16_fill" transform="matrix(-0.865168 -0.501483 -0.498519 0.866879 1137.83 -419.949)"/>
</g>
<g id="Union">
<use xlink:href="#path17_fill" transform="matrix(-0.582781 0.812629 0.810439 0.585823 1141.46 -437.614)"/>
</g>
<g id="Union">
<use xlink:href="#path18_fill" transform="matrix(-0.705708 0.708503 0.705708 0.708503 1124.23 -530)"/>
</g>
<g id="Union">
<use xlink:href="#path19_fill" transform="matrix(-1 5.5731e-17 5.52922e-17 1 1133.11 -442.674)"/>
</g>
<g id="Union">
<use xlink:href="#path20_fill" transform="matrix(-0.865168 0.501483 0.498519 0.866879 1072.6 -526.848)"/>
</g>
<g id="Union">
<use xlink:href="#path21_fill" transform="matrix(-0.965669 -0.259775 -0.257866 0.966181 1151.36 -462.111)"/>
</g>
<g id="Union">
<use xlink:href="#path22_fill" transform="matrix(-0.965669 -0.259775 -0.257866 0.966181 1108.91 -524.367)"/>
</g>
<g id="Union">
<use xlink:href="#path23_fill" transform="matrix(-0.809722 -0.586814 -0.583772 0.811917 1148.69 -482.464)"/>
</g>
<g id="Union">
<use xlink:href="#path24_fill" transform="matrix(-0.958803 -0.284073 -0.282015 0.95941 1112.45 -482.601)"/>
</g>
<g id="Union">
<use xlink:href="#path25_fill" transform="matrix(-0.958803 -0.284073 -0.282015 0.95941 1150.23 -417.408)"/>
</g>
<g id="Union">
<use xlink:href="#path26_fill" transform="matrix(-0.865168 0.501483 0.498519 0.866879 1107.44 -454.195)"/>
</g>
<g id="Union">
<use xlink:href="#path27_fill" transform="matrix(-0.974038 0.226385 0.224693 0.97443 1123.15 -474.707)"/>
</g>
</g>
</g>
</mask>
<g id="Rectangle" mask="url(#mask0_alpha)">
<use xlink:href="#path28_fill" transform="translate(837 -536)" fill="url(#paint28_radial)" fill-opacity="0.48" style="mix-blend-mode:hard-light"/>
</g>
</g>
</g>
<defs>
<radialGradient id="paint28_radial" cx="0.5" cy="0.5" r="0.5" gradientUnits="userSpaceOnUse" gradientTransform="matrix(-320 160 -159.035 -318.07 399.517 159.035)">
<stop offset="0" stop-color="#FFFFFF"/>
<stop offset="1" stop-color="#D6E0EE"/>
</radialGradient>
<path id="path0_fill" fill-rule="evenodd" d="M 7.97554 1.35351C 7.51896 1.23424 6.93829 1.20923 6.04418 1.20962C 5.15005 1.20926 4.56938 1.23428 4.11277 1.35349C 3.74692 1.44444 3.61365 1.5608 3.52339 1.68698C 3.39769 1.86272 3.25034 2.21418 3.15236 2.96354C 3.08056 3.50508 3.045 4.156 3.03047 4.96829C 3.81764 4.86988 4.80551 4.83848 6.04413 4.83847C 7.28274 4.83847 8.27069 4.86991 9.05787 4.96833C 9.04328 4.15608 9.00773 3.50508 8.93596 2.96355C 8.83804 2.21415 8.69067 1.86274 8.565 1.68697C 8.47472 1.5608 8.34144 1.44445 7.97554 1.35351ZM 10.2702 5.22609C 10.2104 0.542681 9.55082 3.74311e-05 6.04419 0C 2.53752 3.73296e-05 1.87791 0.542738 1.81805 5.22614C 0.244105 5.7617 8.3992e-06 6.98653 1.57496e-14 9.67701C -1.12661e-07 13.9107 0.60442 14.5155 6.04412 14.5155C 11.4838 14.5155 12.0882 13.9107 12.0883 9.67697C 12.0883 6.98655 11.8441 5.76164 10.2702 5.22609ZM 6.64851 10.12C 7.00982 9.91085 7.25294 9.51988 7.25292 9.07215C 7.25293 8.4041 6.71177 7.86256 6.04416 7.86256C 5.37654 7.86257 4.83529 8.40411 4.83528 9.07217C 4.8353 9.51989 5.07838 9.91085 5.43971 10.12L 5.43974 10.887C 5.43971 11.2208 5.71034 11.4914 6.04411 11.4914C 6.37795 11.4914 6.64855 11.2208 6.64852 10.887L 6.64851 10.12Z"/>
<path id="path1_fill" fill-rule="evenodd" d="M 7.97669 1.35332C 7.52002 1.23406 6.93933 1.20904 6.04503 1.20944C 5.15077 1.20905 4.57005 1.23406 4.11335 1.35328C 3.74747 1.44422 3.61415 1.56057 3.5239 1.68672C 3.39817 1.86239 3.25078 2.2138 3.15285 2.9631C 3.08103 3.50456 3.04547 4.15539 3.03091 4.96755C 3.81817 4.86915 4.80622 4.83785 6.04496 4.83785C 7.28376 4.83784 8.27185 4.86916 9.05915 4.96758C 9.04461 4.15543 9.00907 3.50453 8.93724 2.96308C 8.8393 2.21382 8.6919 1.86242 8.56618 1.68672C 8.4759 1.56059 8.34262 1.44422 7.97669 1.35332ZM 10.2717 5.22535C 10.2118 0.542579 9.55214 -1.55429e-05 6.04503 3.33921e-10C 2.53791 1.55436e-05 1.87825 0.542553 1.81835 5.2253C 0.24415 5.76077 3.00348e-05 6.98557 0 9.67566C 3.29219e-05 13.9087 0.604507 14.5135 6.04499 14.5135C 11.4855 14.5135 12.0899 13.9088 12.0899 9.67566C 12.0899 6.98564 11.8458 5.76082 10.2717 5.22535ZM 6.64949 10.1186C 7.01088 9.90946 7.25401 9.51861 7.25399 9.07093C 7.25399 8.40296 6.71268 7.86148 6.04498 7.86147C 5.37729 7.86146 4.83602 8.40295 4.83601 9.07092C 4.83601 9.51858 5.07915 9.90945 5.44051 10.1186L 5.44049 10.8854C 5.44046 11.2192 5.71111 11.4898 6.04496 11.4898C 6.37881 11.4899 6.64949 11.2192 6.64947 10.8853L 6.64949 10.1186Z"/>
<path id="path2_fill" fill-rule="evenodd" d="M 22.1275 3.7541C 20.8607 3.42337 19.2498 3.35393 16.769 3.35507C 14.2883 3.35394 12.6774 3.42341 11.4105 3.75411C 10.3955 4.00638 10.0257 4.32909 9.77528 4.67897C 9.42649 5.16645 9.01765 6.14123 8.74599 8.2198C 8.54675 9.7218 8.44804 11.5273 8.40769 13.7803C 10.5916 13.5073 13.3326 13.4203 16.769 13.4202C 20.2055 13.4202 22.9464 13.5072 25.1304 13.7802C 25.09 11.5273 24.9913 9.72177 24.7921 8.21978C 24.5204 6.14124 24.1116 5.16641 23.7628 4.679C 23.5124 4.32911 23.1426 4.00636 22.1275 3.7541ZM 28.494 14.4952C 28.328 1.50516 26.498 -7.11883e-06 16.769 2.52518e-11C 7.04012 7.11888e-06 5.2102 1.5051 5.0441 14.4952C 0.67722 15.9807 3.04202e-05 19.3782 0 26.8405C 2.14823e-05 38.5833 1.67691 40.2608 16.769 40.2608C 31.861 40.2608 33.5379 38.5833 33.5379 26.8405C 33.538 19.3782 32.8607 15.9807 28.494 14.4952ZM 18.4458 28.0693C 19.4483 27.4892 20.1228 26.4049 20.1228 25.163C 20.1228 23.31 18.6212 21.8079 16.769 21.8079C 14.9167 21.8079 13.4152 23.31 13.4152 25.163C 13.4152 26.4048 14.0896 27.489 15.092 28.0691L 15.092 30.8731C 15.092 31.4253 15.5397 31.8731 16.092 31.8731L 17.4458 31.8731C 17.998 31.8731 18.4458 31.4253 18.4458 30.8731L 18.4458 28.0693Z"/>
<path id="path3_fill" fill-rule="evenodd" d="M 7.1812 1.24015C 6.77005 1.13091 6.24725 1.10794 5.44213 1.10834C 4.63706 1.10794 4.11423 1.13091 3.7031 1.24016C 3.37371 1.32345 3.25368 1.43009 3.17242 1.54568C 3.0592 1.70672 2.92657 2.02869 2.8384 2.71533C 2.77371 3.21155 2.74173 3.80796 2.7286 4.55223C 3.4374 4.46204 4.32694 4.43326 5.44219 4.43327C 6.55744 4.43328 7.44699 4.46207 8.15575 4.55225C 8.14264 3.80797 8.1106 3.21152 8.04594 2.71533C 7.95776 2.02873 7.8251 1.70672 7.71188 1.54571C 7.63061 1.43011 7.51062 1.3235 7.1812 1.24015ZM 9.24736 4.78846C 10.6645 5.27918 10.8843 6.40146 10.8843 8.86657C 10.8843 12.7457 10.3401 13.2999 5.44219 13.2998C 0.544229 13.2999 1.87556e-05 12.7457 0 8.86659C 1.38511e-05 6.40149 0.219786 5.27914 1.63696 4.78843C 1.69087 0.497207 2.28472 3.06285e-05 5.44215 2.47337e-10C 8.59961 -1.28055e-05 9.19349 0.497218 9.24736 4.78846ZM 5.98642 9.27248C 6.31175 9.08087 6.53065 8.72267 6.53063 8.31243C 6.53066 7.70031 6.04333 7.2041 5.44225 7.20407C 4.8411 7.20407 4.35378 7.70029 4.35378 8.31243C 4.35379 8.72266 4.5727 9.08079 4.89802 9.27246L 4.898 9.9848C 4.89802 10.2854 5.14165 10.529 5.44222 10.529C 5.74279 10.529 5.98642 10.2854 5.98642 9.98483L 5.98642 9.27248Z"/>
<path id="path4_fill" fill-rule="evenodd" d="M 21.1695 3.65671C 19.9575 3.33461 18.4163 3.26696 16.043 3.26806C 13.6696 3.26694 12.1284 3.33459 10.9164 3.65673C 9.9453 3.90248 9.59154 4.21681 9.35194 4.55766C 9.01824 5.03244 8.62714 5.98192 8.36722 8.00656C 8.17664 9.46957 8.08219 11.2283 8.04357 13.4227C 10.133 13.1568 12.7553 13.072 16.0431 13.072C 19.3307 13.072 21.953 13.1568 24.0424 13.4227C 24.0037 11.2282 23.9093 9.46958 23.7187 8.00654C 23.4588 5.98193 23.0677 5.03244 22.734 4.55765C 22.4944 4.21681 22.1406 3.90245 21.1695 3.65671ZM 27.2603 14.1191C 31.4382 15.566 32.0861 18.8754 32.0861 26.1442C 32.0861 37.5823 30.4818 39.2163 16.0431 39.2163C 1.60431 39.2162 -1.86623e-05 37.5823 1.62814e-10 26.1442C 6.08109e-06 18.8754 0.647865 15.5661 4.82561 14.1192C 4.98448 1.46609 6.7352 2.73549e-05 16.043 0C 25.3507 1.582e-05 27.1014 1.46606 27.2603 14.1191ZM 17.6474 27.341C 18.6064 26.7759 19.2516 25.7198 19.2516 24.5102C 19.2516 22.7053 17.815 21.2422 16.043 21.2422C 14.2709 21.2422 12.8344 22.7053 12.8344 24.5102C 12.8344 25.7199 13.4797 26.776 14.4388 27.3411L 14.4388 30.0461C 14.4388 30.5984 14.8865 31.0461 15.4388 31.0461L 16.6474 31.0461C 17.1997 31.0461 17.6474 30.5984 17.6474 30.0461L 17.6474 27.341Z"/>
<path id="path5_fill" fill-rule="evenodd" d="M 3.58875 0.620392C 3.3833 0.565735 3.12201 0.55426 2.71967 0.554443C 2.31732 0.55426 2.05603 0.565735 1.85059 0.620392C 1.68597 0.662079 1.62598 0.715393 1.58539 0.773224C 1.52881 0.85376 1.46252 1.01486 1.41846 1.35834C 1.38611 1.60657 1.37012 1.90494 1.36359 2.27722C 1.71777 2.23212 2.16235 2.21774 2.71973 2.21774C 3.27704 2.21774 3.72156 2.23212 4.07574 2.27722C 4.06921 1.90494 4.05322 1.60657 4.02094 1.35834C 3.97687 1.01486 3.91052 0.85376 3.85394 0.773224C 3.84662 0.762817 3.83868 0.752563 3.82965 0.742493C 3.82056 0.732361 3.8103 0.722443 3.7984 0.712738C 3.75641 0.678436 3.69397 0.647034 3.58875 0.620392ZM 4.62134 2.39539C 4.59442 0.248718 4.29755 -8.76567e-17 2.71967 0C 1.14178 8.76567e-17 0.84491 0.248718 0.817993 2.39539C 0.109802 2.64087 -6.84e-17 3.20236 0 4.43549C 1.0764e-16 6.37604 0.271973 6.65326 2.71973 6.65326C 5.16748 6.65326 5.43945 6.37604 5.43945 4.43549C 5.43945 3.2023 5.32959 2.64084 4.62134 2.39539ZM 2.9917 4.63855C 3.1543 4.54269 3.26367 4.36353 3.26367 4.15829C 3.26367 3.85208 3.02014 3.60385 2.71973 3.60385C 2.41931 3.60385 2.17578 3.85208 2.17578 4.15829C 2.17578 4.36353 2.28516 4.54269 2.44775 4.63855L 2.44775 4.99518C 2.44775 5.14539 2.56952 5.26715 2.71973 5.26715C 2.86993 5.26715 2.9917 5.14539 2.9917 4.99518L 2.9917 4.63855Z"/>
<path id="path6_fill" fill-rule="evenodd" d="M 3.58941 0.620265C 3.38391 0.565646 3.1226 0.554155 2.72019 0.554323C 2.31774 0.554166 2.05641 0.565617 1.85089 0.620267C 1.76516 0.641984 1.70781 0.666829 1.66679 0.693832C 1.62905 0.718697 1.60512 0.74538 1.58565 0.773079C 1.52908 0.853631 1.46278 1.01467 1.41871 1.3581C 1.3864 1.60625 1.37036 1.90457 1.36384 2.27679C 1.71811 2.2317 2.16274 2.21736 2.72024 2.21735C 3.27768 2.21734 3.72224 2.23172 4.07653 2.27678C 4.07001 1.90455 4.05399 1.60626 4.02165 1.3581C 3.9776 1.01466 3.91125 0.85364 3.85467 0.77308C 3.81406 0.715291 3.7541 0.661952 3.58941 0.620265ZM 4.62215 2.39493C 4.59524 0.248711 4.29832 2.29239e-05 2.72016 0C 1.14202 3.50007e-06 0.845127 0.248708 0.818182 2.39492C 0.109847 2.64035 -1.09308e-05 3.20177 8.15684e-10 4.43467C -2.7447e-06 6.37486 0.27203 6.65201 2.72024 6.652C 5.16846 6.65201 5.44046 6.37484 5.44048 4.43468C 5.44048 3.20167 5.33059 2.64033 4.62215 2.39493ZM 2.99232 4.63764C 3.15495 4.54177 3.26431 4.36265 3.26426 4.15749C 3.26429 3.85134 3.02073 3.60313 2.72025 3.60316C 2.41975 3.60316 2.17619 3.85133 2.17617 4.15751C 2.17617 4.3627 2.28557 4.54187 2.44823 4.63769L 2.44824 4.99412C 2.44824 5.14435 2.57005 5.26612 2.72027 5.26613C 2.87049 5.26614 2.99229 5.14436 2.99228 4.9941L 2.99232 4.63764Z"/>
<path id="path7_fill" fill-rule="evenodd" d="M 11.1657 1.91743C 10.5265 1.74852 9.71359 1.71305 8.4618 1.71362C 7.21 1.71305 6.39709 1.74852 5.7578 1.91743C 5.24562 2.0463 5.05899 2.21112 4.93266 2.38983C 4.75667 2.63879 4.55036 3.13669 4.41326 4.19831C 4.31273 4.96546 4.26289 5.88765 4.24255 7.03832C 5.34459 6.89891 6.72768 6.85449 8.46177 6.8545C 10.1959 6.85451 11.5789 6.8989 12.681 7.03833C 12.6607 5.88765 12.6108 4.9655 12.5103 4.19833C 12.3732 3.13668 12.1669 2.63878 11.9909 2.38984C 11.8645 2.21114 11.6779 2.0463 11.1657 1.91743ZM 14.3782 7.40352C 14.2945 0.768753 13.371 3.81637e-06 8.46176 1.08118e-09C 3.55249 -3.32904e-05 2.62903 0.768727 2.54526 7.4035C 0.341718 8.16218 -4.43408e-06 9.89758 9.52083e-11 13.709C -1.03642e-05 19.7067 0.846152 20.5635 8.46179 20.5635C 16.0774 20.5636 16.9236 19.7067 16.9236 13.709C 16.9236 9.89757 16.5819 8.16222 14.3782 7.40352ZM 9.30809 14.3366C 9.81391 14.0403 10.1542 13.4865 10.1541 12.8523C 10.1542 11.9058 9.39646 11.1386 8.46179 11.1386C 7.52713 11.1386 6.76945 11.9058 6.76942 12.8522C 6.76943 13.4866 7.10985 14.0404 7.61573 14.3367L 7.61569 15.4332C 7.61573 15.9006 7.99454 16.2794 8.4619 16.2794C 8.9292 16.2794 9.30806 15.9006 9.30808 15.4332L 9.30809 14.3366Z"/>
<path id="path8_fill" fill-rule="evenodd" d="M 11.1657 1.91743C 10.5265 1.74852 9.71359 1.71305 8.4618 1.71362C 7.21 1.71305 6.39709 1.74852 5.7578 1.91743C 5.24562 2.0463 5.05899 2.21112 4.93266 2.38983C 4.75667 2.63879 4.55036 3.13669 4.41326 4.19831C 4.31273 4.96546 4.26289 5.88765 4.24254 7.03835C 5.34459 6.89894 6.72768 6.85449 8.46177 6.8545C 10.1959 6.85451 11.5789 6.89893 12.681 7.03836C 12.6607 5.88768 12.6108 4.9655 12.5103 4.19833C 12.3732 3.13668 12.1669 2.63878 11.9909 2.38984C 11.8645 2.21114 11.6779 2.0463 11.1657 1.91743ZM 14.3782 7.40352C 14.2945 0.768753 13.371 3.81637e-06 8.46176 1.08118e-09C 3.55249 -3.32904e-05 2.62903 0.768727 2.54525 7.40353C 0.34171 8.16221 -4.43408e-06 9.89758 9.52083e-11 13.709C -1.03642e-05 19.7067 0.846152 20.5635 8.46179 20.5635C 16.0774 20.5636 16.9236 19.7067 16.9236 13.709C 16.9236 9.89757 16.5819 8.16222 14.3782 7.40352ZM 9.30805 14.3365C 9.81381 14.0402 10.1541 13.4865 10.1541 12.8522C 10.1541 11.9058 9.3964 11.1386 8.46173 11.1386C 7.52707 11.1386 6.76939 11.9058 6.76937 12.8522C 6.76936 13.4866 7.10978 14.0404 7.61573 14.3367L 7.61569 15.4332C 7.61573 15.9006 7.99454 16.2794 8.4619 16.2794C 8.9292 16.2794 9.30806 15.9006 9.30808 15.4332L 9.30805 14.3365Z"/>
<path id="path9_fill" fill-rule="evenodd" d="M 7.90235 1.35642C 7.44992 1.23693 6.87463 1.21183 5.9887 1.21226C 5.10276 1.21185 4.52746 1.23695 4.07501 1.35642C 3.71255 1.44759 3.58045 1.56417 3.49107 1.69063C 3.36646 1.86674 3.22047 2.21896 3.12346 2.96999C 3.05233 3.51271 3.01706 4.16515 3.00264 4.97921C 3.78258 4.88058 4.76137 4.84903 5.98859 4.84905C 7.2159 4.84906 8.19476 4.88054 8.97472 4.97917C 8.9603 4.16511 8.92507 3.51271 8.8539 2.96998C 8.75688 2.21893 8.61093 1.86675 8.48633 1.69062C 8.39692 1.5642 8.26484 1.44758 7.90235 1.35642ZM 10.176 5.23753C 10.1167 0.543844 9.46313 1.41793e-06 5.9887 2.12753e-10C 2.51421 -1.2421e-05 1.86073 0.543857 1.80144 5.23755C 0.24184 5.77426 -4.34895e-06 7.00174 5.86533e-11 9.69813C -2.05875e-06 13.9411 0.598861 14.5472 5.98859 14.5472C 11.3783 14.5472 11.9772 13.9411 11.9772 9.6981C 11.9772 7.00188 11.7354 5.77428 10.176 5.23753ZM 6.58756 10.142C 6.94551 9.9324 7.1863 9.54063 7.18632 9.09197C 7.18633 8.42246 6.65007 7.87972 5.9886 7.87972C 5.32714 7.87971 4.79088 8.42246 4.79088 9.09197C 4.79087 9.54072 5.03182 9.93259 5.38987 10.1422L 5.38984 10.9176C 5.38989 11.2484 5.65796 11.5165 5.98874 11.5165C 6.31944 11.5165 6.58762 11.2484 6.58756 10.9176L 6.58756 10.142Z"/>
<path id="path10_fill" fill-rule="evenodd" d="M 6.28945 1.08002C 5.92936 0.984884 5.4715 0.964917 4.76639 0.965226C 4.06127 0.964898 3.60334 0.984873 3.24326 1.08004C 2.95475 1.15262 2.84966 1.24548 2.77848 1.34613C 2.67933 1.48637 2.56314 1.76682 2.48588 2.36479C 2.42927 2.79691 2.40125 3.31638 2.38976 3.96453C 3.01051 3.88599 3.78961 3.86098 4.76643 3.86098C 5.7432 3.861 6.52224 3.88599 7.143 3.96453C 7.13152 3.31637 7.10347 2.79692 7.04686 2.3648C 6.96961 1.76681 6.85344 1.48637 6.75428 1.34614C 6.6831 1.24545 6.57798 1.15262 6.28945 1.08002ZM 8.09907 4.17024C 8.05188 0.433041 7.53173 -6.4815e-06 4.76639 8.99074e-10C 2.00105 -2.27846e-05 1.48092 0.433022 1.43373 4.17022C 0.192501 4.59758 -6.9124e-07 5.57507 1.86159e-12 7.72197C 2.29017e-05 11.1003 0.476663 11.5829 4.76641 11.5829C 9.05621 11.583 9.5328 11.1003 9.53284 7.72195C 9.53284 5.57505 9.34031 4.59758 8.09907 4.17024ZM 5.24311 8.07537C 5.528 7.90847 5.71965 7.59656 5.71968 7.23933C 5.7197 6.70624 5.2929 6.2741 4.7664 6.27408C 4.23989 6.27409 3.81313 6.70627 3.8131 7.23935C 3.81311 7.59668 4.00482 7.90863 4.28985 8.07552L 4.28983 8.69317C 4.28984 8.9564 4.50323 9.16981 4.76652 9.1698C 5.02974 9.1698 5.24312 8.95642 5.24312 8.69316L 5.24311 8.07537Z"/>
<path id="path11_fill" fill-rule="evenodd" d="M 6.28945 1.08002C 5.92936 0.984884 5.4715 0.964917 4.76639 0.965226C 4.06127 0.964898 3.60334 0.984873 3.24326 1.08004C 2.95475 1.15262 2.84966 1.24548 2.77848 1.34613C 2.67933 1.48637 2.56314 1.76682 2.48588 2.36479C 2.42927 2.79691 2.40125 3.31638 2.38976 3.96453C 3.01051 3.88599 3.78961 3.86098 4.76643 3.86098C 5.7432 3.861 6.52224 3.88599 7.143 3.96453C 7.13152 3.31637 7.10347 2.79692 7.04686 2.3648C 6.96961 1.76681 6.85344 1.48637 6.75428 1.34614C 6.6831 1.24545 6.57798 1.15262 6.28945 1.08002ZM 8.09907 4.17024C 8.05188 0.433041 7.53173 -6.4815e-06 4.76639 8.99074e-10C 2.00105 -2.27846e-05 1.48092 0.433022 1.43373 4.17022C 0.192501 4.59758 -6.9124e-07 5.57507 1.86159e-12 7.72197C 2.29017e-05 11.1003 0.476663 11.5829 4.76641 11.5829C 9.05621 11.583 9.5328 11.1003 9.53284 7.72195C 9.53284 5.57505 9.34031 4.59758 8.09907 4.17024ZM 5.24311 8.07537C 5.528 7.90847 5.71965 7.59656 5.71968 7.23933C 5.7197 6.70624 5.2929 6.2741 4.7664 6.27408C 4.23989 6.27409 3.81313 6.70627 3.8131 7.23935C 3.81311 7.59668 4.00482 7.90863 4.28985 8.07552L 4.28983 8.69317C 4.28984 8.9564 4.50323 9.16981 4.76652 9.1698C 5.02974 9.1698 5.24312 8.95642 5.24312 8.69316L 5.24311 8.07537Z"/>
<path id="path12_fill" fill-rule="evenodd" d="M 8.85262 1.51978C 8.34578 1.3859 7.70128 1.3578 6.70882 1.35825C 5.71638 1.35777 5.0719 1.38589 4.56502 1.51979C 4.15894 1.62193 4.01102 1.75256 3.91085 1.89424C 3.7713 2.09153 3.60776 2.48616 3.49908 3.32762C 3.41938 3.93568 3.37987 4.66662 3.36374 5.57866C 4.23743 5.46818 5.33396 5.43295 6.70873 5.43294C 8.08359 5.43296 9.18021 5.46812 10.0539 5.57866C 10.0378 4.66663 9.99829 3.93569 9.91861 3.32763C 9.8099 2.48619 9.64637 2.09156 9.50681 1.89421C 9.40667 1.75257 9.25867 1.62194 8.85262 1.51978ZM 11.3996 5.86812C 11.3332 0.609332 10.601 4.31242e-05 6.70886 1.9505e-10C 2.81663 -1.25888e-05 2.08445 0.609356 2.018 5.86813C 0.270903 6.46946 5.65516e-06 7.84488 1.61345e-09 10.8659C -3.79918e-05 15.6197 0.670879 16.2988 6.70872 16.2989C 12.7466 16.2989 13.4175 15.6198 13.4175 10.8659C 13.4175 7.84496 13.1466 6.46949 11.3996 5.86812ZM 7.37967 11.3632C 7.78063 11.1284 8.05043 10.6894 8.0504 10.1868C 8.05042 9.43664 7.44971 8.82853 6.70865 8.82854C 5.96765 8.82853 5.36691 9.43664 5.36693 10.1867C 5.36691 10.6896 5.63676 11.1286 6.0379 11.3634L 6.03791 12.2323C 6.03787 12.6028 6.33826 12.9032 6.70881 12.9032C 7.07932 12.9032 7.37966 12.6028 7.37964 12.2323L 7.37967 11.3632Z"/>
<path id="path13_fill" fill-rule="evenodd" d="M 7.09176 1.21785C 6.68577 1.11056 6.16944 1.08803 5.37441 1.0884C 4.57935 1.08806 4.06304 1.11056 3.65707 1.21786C 3.33173 1.29968 3.21323 1.40438 3.13298 1.51791C 3.0212 1.67602 2.89018 1.99226 2.80308 2.66653C 2.73919 3.15382 2.7076 3.73952 2.69468 4.47038C 3.39457 4.38185 4.27299 4.35361 5.37428 4.35362C 6.4757 4.35362 7.35421 4.38181 8.05416 4.47037C 8.04121 3.73952 8.00958 3.1538 7.94573 2.66654C 7.85865 1.99224 7.72761 1.67604 7.61584 1.5179C 7.53558 1.40441 7.41707 1.29971 7.09176 1.21785ZM 9.13211 4.70231C 9.07895 0.488275 8.49241 2.79399e-06 5.37442 0C 2.25637 1.09817e-05 1.66994 0.488282 1.61672 4.70231C 0.217094 5.18417 5.16249e-05 6.28632 0 8.7072C 2.12688e-05 12.5166 0.537416 13.0608 5.37432 13.0608C 10.2112 13.0608 10.7486 12.5166 10.7486 8.7072C 10.7486 6.28642 10.5316 5.18418 9.13211 4.70231ZM 5.9118 9.10575C 6.23302 8.91754 6.44918 8.56582 6.44916 8.163C 6.44918 7.5619 5.96793 7.07461 5.3743 7.07459C 4.78068 7.0746 4.29947 7.56189 4.29945 8.16299C 4.29943 8.56588 4.51564 8.91767 4.83697 9.10585L 4.83696 9.80233C 4.83696 10.0992 5.07757 10.3398 5.37435 10.3398C 5.67119 10.3398 5.91181 10.0991 5.91181 9.80232L 5.9118 9.10575Z"/>
<path id="path14_fill" fill-rule="evenodd" d="M 7.79176 1.32597C 7.34556 1.20917 6.77838 1.18463 5.90487 1.18503C 5.03127 1.18463 4.46404 1.20915 4.01791 1.32597C 3.66046 1.4151 3.53023 1.52908 3.44212 1.65264C 3.31933 1.82479 3.17527 2.16912 3.07968 2.90326C 3.0096 3.43373 2.97473 4.07147 2.96057 4.86719C 3.72957 4.7708 4.69474 4.74013 5.90486 4.74013C 7.11498 4.74014 8.0801 4.7708 8.84913 4.86722C 8.83498 4.07146 8.80008 3.43378 8.72996 2.90326C 8.63429 2.16912 8.49039 1.8248 8.36756 1.65265C 8.27933 1.52908 8.14914 1.41507 7.79176 1.32597ZM 10.0335 5.11975C 9.97499 0.531638 9.33067 6.00136e-06 5.90483 0C 2.479 2.34686e-05 1.83456 0.531633 1.77604 5.11976C 0.238432 5.64442 -7.5359e-05 6.84456 1.78565e-08 9.48018C -6.22722e-05 13.6278 0.590475 14.2203 5.90488 14.2203C 11.2192 14.2203 11.8097 13.6278 11.8096 9.48021C 11.8096 6.8445 11.5712 5.64441 10.0335 5.11975ZM 6.49529 9.91414C 6.84838 9.70926 7.0859 9.32628 7.08583 8.88764C 7.08589 8.23317 6.55714 7.70261 5.90487 7.70263C 5.25272 7.70261 4.72391 8.23316 4.72397 8.8876C 4.72391 9.32622 4.96143 9.70917 5.31435 9.91406L 5.31434 10.6672C 5.31433 10.9933 5.57871 11.2577 5.90485 11.2577C 6.23087 11.2577 6.49526 10.9933 6.49527 10.6672L 6.49529 9.91414Z"/>
<path id="path15_fill" fill-rule="evenodd" d="M 7.79736 1.32503C 7.35098 1.2083 6.78333 1.18376 5.90919 1.18416C 5.03503 1.18377 4.46728 1.20829 4.02094 1.32497C 3.66323 1.41404 3.53289 1.52796 3.44462 1.65147C 3.32178 1.82346 3.17773 2.16751 3.08195 2.90116C 3.0118 3.43126 2.97692 4.06859 2.9627 4.86373C 3.73231 4.76739 4.69816 4.73664 5.90917 4.73664C 7.12006 4.73667 8.08592 4.76739 8.85551 4.86373C 8.84134 4.06854 8.80655 3.43126 8.73631 2.90117C 8.64063 2.16753 8.49657 1.82349 8.37361 1.65147C 8.28538 1.52797 8.15511 1.41404 7.79736 1.32503ZM 10.0408 5.1161C 9.98228 0.531292 9.33741 5.9787e-05 5.9092 0C 2.48089 1.42954e-06 1.83603 0.531256 1.77744 5.11607C 0.238666 5.64033 -1.96142e-06 6.83955 4.04872e-10 9.47333C -1.78602e-05 13.6179 0.590873 14.21 5.90913 14.2099C 11.2273 14.21 11.8183 13.6179 11.8182 9.47334C 11.8182 6.83953 11.5796 5.64038 10.0408 5.1161ZM 6.49996 9.90704C 6.85325 9.70231 7.091 9.31958 7.09097 8.88124C 7.091 8.22724 6.56187 7.69706 5.90916 7.69705C 5.25647 7.69707 4.72737 8.22722 4.72735 8.88122C 4.72733 9.31949 4.96491 9.70218 5.3181 9.90694L 5.31812 10.6587C 5.31819 10.985 5.5827 11.2496 5.90903 11.2496C 6.23539 11.2496 6.50001 10.985 6.49992 10.6587L 6.49996 9.90704Z"/>
<path id="path16_fill" fill-rule="evenodd" d="M 21.6303 3.67563C 20.3919 3.35179 18.8172 3.28384 16.3921 3.28491C 13.9672 3.28382 12.3925 3.35184 11.1541 3.6756C 10.1619 3.92264 9.80038 4.23862 9.55559 4.58118C 9.21459 5.05838 8.81503 6.01284 8.54949 8.04792C 8.35469 9.5185 8.25814 11.2862 8.21875 13.492C 10.3536 13.2248 13.0329 13.1396 16.3921 13.1396C 19.7514 13.1396 22.4308 13.2248 24.5657 13.4921C 24.5262 11.2863 24.4297 9.51851 24.235 8.04792C 23.9694 6.01286 23.5698 5.05845 23.2288 4.5812C 22.984 4.23861 22.6225 3.92264 21.6303 3.67563ZM 27.8536 14.1921C 27.6913 1.47365 25.9024 -2.58469e-05 16.3922 3.39994e-10C 6.88196 2.58476e-05 5.09303 1.47363 4.93073 14.1921C 0.662009 15.6464 8.44256e-05 18.973 0 26.2792C 1.82014e-05 37.7764 1.63931 39.4188 16.3921 39.4188C 31.1451 39.4189 32.7843 37.7764 32.7843 26.2792C 32.7842 18.973 32.1222 15.6464 27.8536 14.1921ZM 18.0314 27.4823C 19.0114 26.9143 19.6706 25.8527 19.6706 24.6368C 19.6706 22.8226 18.2028 21.3519 16.3923 21.3519C 14.5816 21.3519 13.1138 22.8226 13.1138 24.6368C 13.1138 25.8526 13.773 26.9142 14.7529 27.4822L 14.7529 30.2065C 14.7529 30.7588 15.2006 31.2065 15.753 31.2066L 17.0313 31.2065C 17.5837 31.2066 18.0313 30.7588 18.0313 30.2065L 18.0314 27.4823Z"/>
<path id="path17_fill" fill-rule="evenodd" d="M 7.02889 1.21258C 6.62648 1.10576 6.11476 1.08332 5.3267 1.08372C 4.53874 1.0833 4.02701 1.10572 3.62452 1.21259C 3.30213 1.29405 3.18465 1.39831 3.10513 1.51132C 2.99432 1.66873 2.86444 1.98366 2.77817 2.65501C 2.71489 3.14015 2.68343 3.72348 2.67065 4.45114C 3.36445 4.36291 4.23512 4.33486 5.3268 4.33483C 6.41834 4.33485 7.289 4.36297 7.98275 4.45109C 7.96994 3.72341 7.93857 3.14024 7.8753 2.65507C 7.78905 1.98363 7.65913 1.6688 7.54833 1.5114C 7.46881 1.39833 7.35132 1.29412 7.02889 1.21258ZM 9.05124 4.68202C 8.99848 0.486145 8.41721 -7.82744e-05 5.32671 9.44981e-09C 2.23626 -3.86905e-05 1.65496 0.486143 1.60223 4.68207C 0.2151 5.1619 -3.56626e-06 6.25934 5.27315e-10 8.66976C -1.93528e-05 12.4629 0.532663 13.0047 5.32682 13.0047C 10.121 13.0047 10.6536 12.4628 10.6536 8.66975C 10.6536 6.25932 10.4385 5.16186 9.05124 4.68202ZM 5.85945 9.06662C 6.17785 8.87927 6.3921 8.52904 6.39209 8.12793C 6.3921 7.52936 5.91511 7.04418 5.32675 7.04419C 4.73836 7.04418 4.26141 7.52933 4.2614 8.1279C 4.26141 8.52901 4.47558 8.87928 4.79399 9.06668L 4.79409 9.76262C 4.79402 10.0569 5.03257 10.2953 5.32671 10.2953C 5.62094 10.2953 5.85945 10.0568 5.85942 9.76263L 5.85945 9.06662Z"/>
<path id="path18_fill" fill-rule="evenodd" d="M 20.7102 3.57742C 19.5245 3.26225 18.0168 3.19609 15.6949 3.19714C 13.373 3.19607 11.8653 3.26223 10.6795 3.57739C 9.72953 3.8178 9.38339 4.12534 9.14908 4.45873C 8.82257 4.92324 8.43995 5.85212 8.18567 7.83287C 7.99925 9.26411 7.90685 10.9847 7.86903 13.1315C 9.91314 12.8714 12.4786 12.7885 15.6951 12.7885C 18.9114 12.7885 21.4767 12.8714 23.5208 13.1316C 23.483 10.9847 23.3907 9.26414 23.2041 7.83288C 22.9499 5.85217 22.5672 4.92327 22.2408 4.45875C 22.0064 4.1253 21.6603 3.81775 20.7102 3.57742ZM 26.6689 13.8129C 26.5135 1.43431 24.8008 -8.45146e-05 15.6949 3.73456e-09C 6.5891 -1.96581e-06 4.87637 1.43422 4.72087 13.8129C 0.633863 15.2284 2.64619e-05 18.4661 1.3425e-10 25.5771C -1.67613e-05 36.7671 1.56948 38.3656 15.695 38.3656C 29.8206 38.3657 31.3901 36.7671 31.3901 25.5771C 31.3901 18.4659 30.7562 15.2284 26.6689 13.8129ZM 17.2645 26.748C 18.2028 26.1952 18.834 25.1619 18.834 23.9785C 18.834 22.2128 17.4286 20.7815 15.695 20.7814C 13.9614 20.7814 12.556 22.2128 12.556 23.9785C 12.5561 25.1619 13.1872 26.1952 14.1255 26.748L 14.1256 29.3727C 14.1255 29.925 14.5732 30.3727 15.1255 30.3727L 16.2646 30.3727C 16.8168 30.3728 17.2645 29.925 17.2646 29.3727L 17.2645 26.748Z"/>
<path id="path19_fill" fill-rule="evenodd" d="M 3.50549 0.60788C 3.30481 0.554352 3.04956 0.543091 2.65662 0.543274C 2.26355 0.543091 2.00842 0.554352 1.80774 0.60788C 1.70715 0.633423 1.64661 0.663452 1.60559 0.696198C 1.58105 0.71582 1.5636 0.73642 1.54871 0.75766C 1.49341 0.836578 1.42859 0.994415 1.38562 1.33099C 1.35413 1.57422 1.33838 1.86658 1.33203 2.23138C 1.67798 2.18719 2.11218 2.1731 2.65649 2.1731C 3.20093 2.1731 3.63525 2.18719 3.9812 2.23141C 3.97485 1.86661 3.95911 1.57422 3.92761 1.33099C 3.88452 0.994446 3.81982 0.836578 3.76453 0.75766C 3.7522 0.740051 3.73804 0.72287 3.7196 0.706299C 3.67859 0.669617 3.61633 0.636047 3.50549 0.60788ZM 4.51404 2.3472C 4.48779 0.243713 4.19788 -8.58959e-17 2.65662 0C 1.11548 8.58891e-17 0.825562 0.243713 0.799194 2.34711C 0.1073 2.58762 -6.6817e-17 3.13776 0 4.34619C 1.05136e-16 6.24765 0.265625 6.51929 2.65649 6.51929C 5.04724 6.51932 5.31299 6.24765 5.31299 4.34619C 5.31299 3.13794 5.20569 2.58777 4.51404 2.3472ZM 2.92212 4.54523C 3.08093 4.45129 3.18787 4.2757 3.18787 4.07458C 3.18787 3.77454 2.94995 3.53131 2.65649 3.53131C 2.36316 3.53131 2.12524 3.77454 2.12524 4.07458C 2.12524 4.27567 2.23206 4.45123 2.39087 4.54517L 2.39087 4.89545C 2.39087 5.04218 2.50977 5.1611 2.65649 5.1611C 2.80322 5.1611 2.92212 5.04218 2.92212 4.89545L 2.92212 4.54523Z"/>
<path id="path20_fill" fill-rule="evenodd" d="M 3.50893 0.607313C 3.30809 0.553817 3.05258 0.542576 2.65919 0.542798C 2.26584 0.542581 2.01033 0.55387 1.80946 0.607337C 1.64855 0.648112 1.5899 0.700347 1.55015 0.756992C 1.49483 0.835817 1.43005 0.993479 1.38693 1.32977C 1.35534 1.57271 1.33978 1.86476 1.33336 2.22924C 1.67968 2.18506 2.11418 2.17098 2.65909 2.17097C 3.20413 2.17096 3.63879 2.18508 3.9851 2.22927C 3.98219 2.06212 3.97732 1.91018 3.96983 1.77131C 3.96094 1.60726 3.94852 1.4613 3.93141 1.32975C 3.90355 1.11268 3.86668 0.970097 3.82925 0.875015C 3.80873 0.822746 3.78789 0.784878 3.76827 0.756943C 3.72849 0.700394 3.66987 0.648125 3.50893 0.607313ZM 4.51848 2.34493C 4.49211 0.243507 4.20198 2.66007e-05 2.65923 0C 1.11642 8.74217e-05 0.826236 0.243573 0.799931 2.34491C 0.107469 2.58517 -1.05179e-05 3.13471 2.25822e-09 4.34192C -2.83e-05 6.24154 0.265945 6.51287 2.65906 6.5129C 5.05229 6.51287 5.31823 6.24152 5.31826 4.34189C 5.3182 3.13485 5.21089 2.58523 4.51848 2.34493ZM 2.92497 4.54065C 3.08394 4.44679 3.19098 4.27137 3.19094 4.07052C 3.1909 3.77074 2.95284 3.52776 2.6591 3.5278C 2.36543 3.52772 2.12732 3.77072 2.12736 4.0705C 2.12729 4.27141 2.23427 4.4468 2.3932 4.54067L 2.3932 4.8901C 2.39318 5.03698 2.51227 5.15601 2.65916 5.15602C 2.80601 5.15597 2.92498 5.03702 2.92501 4.89014L 2.92497 4.54065Z"/>
<path id="path21_fill" fill-rule="evenodd" d="M 10.9085 1.87844C 10.2839 1.71296 9.48976 1.6782 8.26684 1.67877C 7.04385 1.67819 6.24969 1.71296 5.62515 1.87843C 5.12474 2.00466 4.94244 2.16613 4.81908 2.34124C 4.64713 2.58513 4.44559 3.07289 4.3116 4.1129C 4.21343 4.86446 4.16469 5.76794 4.1448 6.89523C 5.2215 6.75866 6.57259 6.71503 8.26674 6.71504C 9.96088 6.71504 11.3121 6.75856 12.3888 6.89517C 12.3688 5.76789 12.3202 4.86448 12.222 4.11291C 12.0881 3.0729 11.8865 2.58512 11.7146 2.34124C 11.5911 2.16615 11.4088 2.00466 10.9085 1.87844ZM 14.047 7.25297C 13.9651 0.753125 13.063 2.48972e-06 8.26688 2.22852e-11C 3.47063 -4.73061e-06 2.56857 0.753139 2.48671 7.253C 0.333941 7.99624 -3.1444e-05 9.69616 2.22032e-09 13.4301C -1.06946e-05 19.3058 0.826697 20.1452 8.26681 20.1452C 15.7069 20.1453 16.5335 19.3058 16.5335 13.4301C 16.5336 9.6963 16.1997 7.99624 14.047 7.25297ZM 9.0936 14.0449C 9.58775 13.7547 9.92009 13.2121 9.92016 12.5908C 9.92011 11.6636 9.17994 10.912 8.26676 10.912C 7.35369 10.912 6.61347 11.6636 6.6134 12.5908C 6.61344 13.2122 6.94589 13.7547 7.44013 14.045L 7.44011 15.1215C 7.44018 15.5781 7.81032 15.9483 8.2668 15.9482C 8.72339 15.9482 9.09349 15.5781 9.09355 15.1216L 9.0936 14.0449Z"/>
<path id="path22_fill" fill-rule="evenodd" d="M 10.9085 1.87841C 10.2839 1.71296 9.48975 1.6782 8.26683 1.67877C 7.04384 1.67819 6.24969 1.71293 5.62514 1.87843C 5.12473 2.00466 4.94243 2.16613 4.81907 2.34124C 4.64712 2.58516 4.44558 3.07292 4.31159 4.1129C 4.2134 4.86452 4.16469 5.76791 4.14479 6.89523C 5.2215 6.75863 6.57259 6.71501 8.26675 6.71498C 9.96088 6.71501 11.3121 6.75859 12.3888 6.8952C 12.3688 5.76786 12.3202 4.86445 12.222 4.11288C 12.0881 3.0729 11.8865 2.58509 11.7146 2.34121C 11.5911 2.16612 11.4088 2.00466 10.9085 1.87841ZM 14.047 7.253C 13.9651 0.753095 13.063 2.4897e-06 8.26687 0C 3.47061 2.47393e-05 2.56856 0.753139 2.48671 7.25297C 0.333941 7.99621 -3.1444e-05 9.69613 2.22032e-09 13.4301C -1.8564e-05 19.3058 0.826689 20.1452 8.2668 20.1452C 15.7069 20.1453 16.5335 19.3058 16.5335 13.4301C 16.5336 9.6963 16.1997 7.99627 14.047 7.253ZM 9.09362 14.0448C 9.58766 13.7545 9.92011 13.212 9.92016 12.5908C 9.92011 11.6636 9.17993 10.912 8.26676 10.912C 7.3537 10.912 6.61347 11.6636 6.6134 12.5908C 6.61343 13.2122 6.94599 13.7548 7.44024 14.045L 7.44023 15.1216C 7.44028 15.5782 7.81044 15.9483 8.26691 15.9482C 8.7235 15.9483 9.0936 15.5782 9.09367 15.1216L 9.09362 14.0448Z"/>
<path id="path23_fill" fill-rule="evenodd" d="M 7.72703 1.32772C 7.28462 1.21075 6.72207 1.1862 5.85582 1.18662C 4.98957 1.18621 4.42692 1.21071 3.98455 1.32768C 3.63015 1.41692 3.50099 1.53105 3.41356 1.65482C 3.29172 1.82716 3.14899 2.17193 3.0541 2.90703C 2.98455 3.43824 2.95006 4.0768 2.93598 4.87358C 3.69861 4.77703 4.65577 4.74628 5.85579 4.74627C 7.05581 4.74627 8.01294 4.77703 8.77563 4.87361C 8.76152 4.07683 8.72699 3.43823 8.65741 2.90701C 8.56261 2.17197 8.41982 1.82719 8.29805 1.65483C 8.21059 1.53107 8.0815 1.41695 7.72703 1.32772ZM 9.95014 5.12647C 9.89218 0.5323 9.25309 -3.85319e-05 5.85578 2.09168e-09C 2.45847 3.85361e-05 1.81947 0.532343 1.76144 5.12639C 0.236501 5.65172 -5.84792e-05 6.85327 1.08417e-08 9.49253C 2.88073e-05 13.6455 0.585561 14.2388 5.85569 14.2388C 11.1259 14.2388 11.7115 13.6455 11.7115 9.49252C 11.7115 6.85339 11.475 5.65182 9.95014 5.12647ZM 6.44148 9.92687C 6.79143 9.72168 7.02684 9.33828 7.02694 8.89922C 7.02693 8.24389 6.50255 7.71262 5.85579 7.71265C 5.20891 7.71262 4.68463 8.2439 4.68453 8.89916C 4.68456 9.33846 4.92017 9.72198 5.27037 9.92713L 5.27039 10.6868C 5.27034 11.0101 5.53252 11.2723 5.85591 11.2723C 6.17928 11.2723 6.44154 11.0102 6.4415 10.6867L 6.44148 9.92687Z"/>
<path id="path24_fill" fill-rule="evenodd" d="M 6.14482 1.05806C 5.79297 0.964826 5.34561 0.945256 4.65674 0.945593C 3.9678 0.945276 3.52051 0.964852 3.1687 1.05806C 2.88679 1.12914 2.78415 1.22013 2.71454 1.31871C 2.61774 1.45609 2.50421 1.73083 2.42878 2.31665C 2.37341 2.73994 2.34595 3.24883 2.33476 3.88379C 2.94126 3.80686 3.70245 3.78226 4.65681 3.78225C 5.61105 3.78223 6.37228 3.80685 6.97872 3.88377C 6.96751 3.24882 6.94009 2.73994 6.88471 2.31661C 6.80925 1.73081 6.69577 1.4561 6.59893 1.31874C 6.52939 1.22012 6.42667 1.12914 6.14482 1.05806ZM 7.91276 4.08529C 7.86656 0.424204 7.35856 4.40717e-05 4.65668 1.56024e-10C 1.95493 -9.39444e-06 1.4468 0.424226 1.4007 4.08531C 0.188009 4.50393 -3.45508e-05 5.46139 4.76103e-09 7.5645C 2.03481e-05 10.874 0.465712 11.3468 4.6568 11.3468C 8.84789 11.3468 9.31352 10.874 9.31349 7.56452C 9.31347 5.46138 9.12541 4.50396 7.91276 4.08529ZM 5.12255 7.91071C 5.40083 7.74719 5.58809 7.44168 5.58803 7.09173C 5.58809 6.56951 5.17101 6.14616 4.65665 6.14616C 4.1423 6.14617 3.72534 6.5695 3.7254 7.09175C 3.72532 7.44175 3.91271 7.74741 4.19119 7.91088L 4.19111 8.51716C 4.19109 8.77433 4.39966 8.98285 4.65684 8.98285C 4.91402 8.98285 5.12252 8.77437 5.12254 8.51717L 5.12255 7.91071Z"/>
<path id="path25_fill" fill-rule="evenodd" d="M 6.14482 1.05806C 5.79297 0.964826 5.34561 0.945256 4.65674 0.945593C 3.9678 0.945276 3.52051 0.964852 3.1687 1.05806C 2.88679 1.12914 2.78415 1.22013 2.71454 1.31871C 2.61774 1.45609 2.50421 1.73083 2.42878 2.31665C 2.37341 2.73994 2.34595 3.24883 2.33476 3.88379C 2.94126 3.80686 3.70245 3.78226 4.65681 3.78225C 5.61105 3.78223 6.37228 3.80685 6.97872 3.88377C 6.96751 3.24882 6.94009 2.73994 6.88471 2.31661C 6.80925 1.73081 6.69577 1.4561 6.59893 1.31874C 6.55401 1.25502 6.49529 1.19453 6.38323 1.14049C 6.32192 1.11088 6.24462 1.08322 6.14482 1.05806ZM 7.91276 4.08529C 7.86656 0.424204 7.35856 4.40717e-05 4.65668 1.56024e-10C 1.95493 -9.39444e-06 1.4468 0.424226 1.4007 4.08531C 0.188009 4.50393 -3.45508e-05 5.46139 4.76103e-09 7.5645C 2.03481e-05 10.874 0.465712 11.3468 4.6568 11.3468C 8.84789 11.3468 9.31352 10.874 9.31349 7.56452C 9.31347 5.46138 9.12541 4.50396 7.91276 4.08529ZM 5.12255 7.91071C 5.40083 7.74719 5.58809 7.44168 5.58803 7.09173C 5.58809 6.56951 5.17101 6.14616 4.65665 6.14616C 4.1423 6.14617 3.72534 6.5695 3.7254 7.09175C 3.72532 7.44175 3.91271 7.74741 4.19119 7.91088L 4.19111 8.51716C 4.19109 8.77433 4.39966 8.98285 4.65684 8.98285C 4.91402 8.98285 5.12252 8.77437 5.12254 8.51717L 5.12255 7.91071Z"/>
<path id="path26_fill" fill-rule="evenodd" d="M 8.6535 1.48798C 8.15807 1.35689 7.52802 1.32936 6.55796 1.32978C 5.5877 1.32938 4.95775 1.35687 4.4623 1.48799C 4.06531 1.58799 3.92073 1.71588 3.82286 1.85456C 3.68642 2.04776 3.52654 2.43413 3.42026 3.25802C 3.3424 3.85334 3.3038 4.56894 3.28797 5.46193C 4.14205 5.35375 5.21397 5.31927 6.55789 5.31927C 7.90181 5.31927 8.97371 5.3538 9.82785 5.46195C 9.81208 4.56898 9.77349 3.85335 9.69556 3.25801C 9.58927 2.43419 9.4294 2.04779 9.29297 1.85459C 9.19512 1.71588 9.05044 1.58796 8.6535 1.48798ZM 11.1433 5.74536C 11.0784 0.596524 10.3626 1.65662e-06 6.55787 4.96756e-09C 2.75322 -6.28632e-05 2.03751 0.596538 1.97259 5.74532C 0.264839 6.33407 -4.28348e-05 7.68075 1.21398e-08 10.6386C -0.000103038 15.293 0.655732 15.9579 6.55788 15.9579C 12.4601 15.9579 13.1159 15.293 13.1159 10.6386C 13.1159 7.68084 12.8511 6.33413 11.1433 5.74536ZM 7.21384 11.1255C 7.60579 10.8956 7.86951 10.4659 7.8695 9.97368C 7.86946 9.23925 7.28228 8.64384 6.55791 8.64385C 5.83354 8.64386 5.24636 9.23923 5.24628 9.9737C 5.24633 10.466 5.51008 10.8958 5.90217 11.1257L 5.90214 11.9775C 5.90215 12.3397 6.19577 12.6333 6.55797 12.6333C 6.92015 12.6333 7.21376 12.3397 7.21375 11.9775L 7.21384 11.1255Z"/>
<path id="path27_fill" fill-rule="evenodd" d="M 6.92782 1.19314C 6.53111 1.08804 6.02673 1.06597 5.25006 1.06634C 4.47346 1.06596 3.96899 1.08804 3.5724 1.19315C 3.25464 1.2733 3.13883 1.3759 3.06046 1.48709C 2.95119 1.64201 2.82327 1.95181 2.73817 2.61242C 2.67572 3.08981 2.64492 3.66361 2.63226 4.37964C 3.31606 4.29287 4.17417 4.26523 5.2502 4.26523C 6.32611 4.26522 7.1842 4.29292 7.86792 4.37967C 7.85527 3.66363 7.82441 3.08982 7.76203 2.61242C 7.67694 1.95183 7.54895 1.64201 7.43978 1.4871C 7.36136 1.37588 7.24559 1.27331 6.92782 1.19314ZM 8.92106 4.60691C 8.86913 0.478365 8.29608 6.38349e-06 5.25008 6.38857e-11C 2.20408 -6.38336e-06 1.63116 0.478351 1.57908 4.60691C 0.212046 5.07903 7.85443e-05 6.15887 3.31664e-09 8.53048C -4.81861e-05 12.2626 0.524977 12.7957 5.2502 12.7957C 9.97529 12.7957 10.5003 12.2626 10.5004 8.53045C 10.5003 6.15876 10.2883 5.07898 8.92106 4.60691ZM 5.77515 8.92098C 6.08892 8.73662 6.30018 8.39202 6.30012 7.99736C 6.30012 7.40845 5.83006 6.93103 5.25019 6.93102C 4.67019 6.93104 4.20007 7.40847 4.20007 7.99735C 4.20002 8.3921 4.41135 8.73667 4.7252 8.92104L 4.72518 9.60491C 4.72515 9.89489 4.96021 10.1299 5.25021 10.1299C 5.54009 10.13 5.77523 9.89487 5.77514 9.60492L 5.77515 8.92098Z"/>
<path id="path28_fill" d="M 0 0L 320 0L 320 160L 0 160L 0 0Z"/>
</defs>
</svg>
