<svg width="320" height="320" viewBox="0 0 320 320" version="1.1" xmlns="http://www.w3.org/2000/svg" xmlns:xlink="http://www.w3.org/1999/xlink">
<title>pro</title>
<desc>Created using Figma</desc>
<g id="Canvas" transform="translate(-117 136)">
<clipPath id="clip-0" clip-rule="evenodd">
<path d="M 117 -136L 437 -136L 437 184L 117 184L 117 -136Z" fill="#FFFFFF"/>
</clipPath>
<g id="pro" clip-path="url(#clip-0)">
<mask id="mask0_alpha" mask-type="alpha">
<g id="Group">
<g id="Group">
<g id="Subtract" style="mix-blend-mode:multiply">
<use xlink:href="#path0_fill" transform="matrix(0.965926 -0.258819 0.258819 0.965926 124 -72.0509)" fill="#171A21"/>
</g>
<g id="Subtract" style="mix-blend-mode:multiply">
<use xlink:href="#path0_fill" transform="matrix(0.804069 0.594536 -0.594536 0.804069 178.73 -129)" fill="#171A21"/>
</g>
<g id="Subtract" style="mix-blend-mode:multiply">
<use xlink:href="#path1_fill" transform="matrix(-0.991083 -0.133247 0.133247 -0.991083 133.432 101.228)" fill="#171A21"/>
</g>
<g id="Subtract" style="mix-blend-mode:multiply">
<use xlink:href="#path2_fill" transform="matrix(0.765498 0.643438 -0.643438 0.765498 163.04 103.737)" fill="#171A21"/>
</g>
<g id="Subtract" style="mix-blend-mode:multiply">
<use xlink:href="#path3_fill" transform="matrix(0.965926 -0.258819 0.258819 0.965926 127 140.312)" fill="#171A21"/>
</g>
<g id="Union" style="mix-blend-mode:multiply">
<use xlink:href="#path4_fill" transform="matrix(0.965926 -0.258819 0.258819 0.965926 125.243 -124.545)" fill="#171A21"/>
<use xlink:href="#path5_fill" transform="matrix(0.965926 -0.258819 0.258819 0.965926 125.243 -124.545)" fill="#171A21"/>
<use xlink:href="#path6_fill" transform="matrix(0.965926 -0.258819 0.258819 0.965926 125.243 -124.545)" fill="#171A21"/>
<use xlink:href="#path7_fill" transform="matrix(0.965926 -0.258819 0.258819 0.965926 125.243 -124.545)" fill="#171A21"/>
</g>
<g id="Union" style="mix-blend-mode:multiply">
<use xlink:href="#path8_fill" transform="matrix(0.965926 -0.258819 0.258819 0.965926 120 -14.9338)" fill="#171A21"/>
<use xlink:href="#path9_fill" transform="matrix(0.965926 -0.258819 0.258819 0.965926 120 -14.9338)" fill="#171A21"/>
<use xlink:href="#path10_fill" transform="matrix(0.965926 -0.258819 0.258819 0.965926 120 -14.9338)" fill="#171A21"/>
<use xlink:href="#path11_fill" transform="matrix(0.965926 -0.258819 0.258819 0.965926 120 -14.9338)" fill="#171A21"/>
</g>
<g id="Union" style="mix-blend-mode:multiply">
<use xlink:href="#path12_fill" transform="matrix(0.965926 -0.258819 0.258819 0.965926 125 59.435)" fill="#171A21"/>
<use xlink:href="#path13_fill" transform="matrix(0.965926 -0.258819 0.258819 0.965926 125 59.435)" fill="#171A21"/>
<use xlink:href="#path14_fill" transform="matrix(0.965926 -0.258819 0.258819 0.965926 125 59.435)" fill="#171A21"/>
<use xlink:href="#path15_fill" transform="matrix(0.965926 -0.258819 0.258819 0.965926 125 59.435)" fill="#171A21"/>
</g>
<g id="Union" style="mix-blend-mode:multiply">
<use xlink:href="#path16_fill" transform="matrix(0.965926 -0.258819 0.258819 0.965926 124 110.451)" fill="#171A21"/>
<use xlink:href="#path17_fill" transform="matrix(0.965926 -0.258819 0.258819 0.965926 124 110.451)" fill="#171A21"/>
<use xlink:href="#path18_fill" transform="matrix(0.965926 -0.258819 0.258819 0.965926 124 110.451)" fill="#171A21"/>
<use xlink:href="#path19_fill" transform="matrix(0.965926 -0.258819 0.258819 0.965926 124 110.451)" fill="#171A21"/>
</g>
<g id="Union" style="mix-blend-mode:multiply">
<use xlink:href="#path20_fill" transform="matrix(0.965926 -0.258819 0.258819 0.965926 152 -80.8586)" fill="#171A21"/>
<use xlink:href="#path21_fill" transform="matrix(0.965926 -0.258819 0.258819 0.965926 152 -80.8586)" fill="#171A21"/>
<use xlink:href="#path22_fill" transform="matrix(0.965926 -0.258819 0.258819 0.965926 152 -80.8586)" fill="#171A21"/>
<use xlink:href="#path23_fill" transform="matrix(0.965926 -0.258819 0.258819 0.965926 152 -80.8586)" fill="#171A21"/>
</g>
<g id="Union" style="mix-blend-mode:multiply">
<use xlink:href="#path24_fill" transform="matrix(0.975921 0.218123 -0.218123 0.975921 177.412 155)" fill="#171A21"/>
<use xlink:href="#path25_fill" transform="matrix(0.975921 0.218123 -0.218123 0.975921 177.412 155)" fill="#171A21"/>
<use xlink:href="#path26_fill" transform="matrix(0.975921 0.218123 -0.218123 0.975921 177.412 155)" fill="#171A21"/>
<use xlink:href="#path27_fill" transform="matrix(0.975921 0.218123 -0.218123 0.975921 177.412 155)" fill="#171A21"/>
</g>
<g id="Union" style="mix-blend-mode:multiply">
<use xlink:href="#path28_fill" transform="matrix(0.965449 0.260594 -0.260594 0.965449 125.564 -100)" fill="#171A21"/>
</g>
<g id="Union" style="mix-blend-mode:multiply">
<use xlink:href="#path29_fill" transform="matrix(0.965449 0.260594 -0.260594 0.965449 128.571 -39.3475)" fill="#171A21"/>
</g>
<g id="Union" style="mix-blend-mode:multiply">
<use xlink:href="#path30_fill" transform="matrix(0.965449 0.260594 -0.260594 0.965449 155.245 -38.5225)" fill="#171A21"/>
</g>
<g id="Union" style="mix-blend-mode:multiply">
<use xlink:href="#path28_fill" transform="matrix(0.965449 0.260594 -0.260594 0.965449 144.564 84)" fill="#171A21"/>
</g>
<g id="Union" style="mix-blend-mode:multiply">
<use xlink:href="#path31_fill" transform="matrix(0.999864 -0.0164813 0.0164813 0.999864 169.531 137.607)" fill="#171A21"/>
</g>
<g id="Union" style="mix-blend-mode:multiply">
<use xlink:href="#path32_fill" transform="matrix(0.999864 -0.0164813 0.0164813 0.999864 150.861 60.0023)" fill="#171A21"/>
</g>
<g id="Union" style="mix-blend-mode:multiply">
<use xlink:href="#path33_fill" transform="matrix(0.965449 0.260594 -0.260594 0.965449 125.035 162.93)" fill="#171A21"/>
</g>
<g id="Union" style="mix-blend-mode:multiply">
<use xlink:href="#path34_fill" transform="matrix(0.995141 0.0984605 -0.0984605 0.995141 159.851 -108)" fill="#171A21"/>
</g>
<g id="Union" style="mix-blend-mode:multiply">
<use xlink:href="#path34_fill" transform="matrix(0.965926 -0.258819 0.258819 0.965926 138.476 -89.8161)" fill="#171A21"/>
</g>
<g id="Union" style="mix-blend-mode:multiply">
<use xlink:href="#path34_fill" transform="matrix(0.909821 -0.415001 0.415001 0.909821 122.124 39.3257)" fill="#171A21"/>
</g>
<g id="Union" style="mix-blend-mode:multiply">
<use xlink:href="#path35_fill" transform="matrix(0.965926 0.258819 -0.258819 0.965926 148.174 26)" fill="#171A21"/>
</g>
<g id="Union" style="mix-blend-mode:multiply">
<use xlink:href="#path36_fill" transform="matrix(0.965926 0.258819 -0.258819 0.965926 196.058 -126)" fill="#171A21"/>
</g>
<g id="Union" style="mix-blend-mode:multiply">
<use xlink:href="#path37_fill" transform="matrix(0.904772 0.425896 -0.425896 0.904772 203.613 159.882)" fill="#171A21"/>
</g>
<g id="Union" style="mix-blend-mode:multiply">
<use xlink:href="#path38_fill" transform="matrix(0.897152 -0.441722 0.441722 0.897152 159 -124.113)" fill="#171A21"/>
</g>
<g id="Union" style="mix-blend-mode:multiply">
<use xlink:href="#path38_fill" transform="matrix(0.897152 -0.441722 0.441722 0.897152 123 -51.8395)" fill="#171A21"/>
</g>
<g id="Union" style="mix-blend-mode:multiply">
<use xlink:href="#path38_fill" transform="matrix(0.897152 -0.441722 0.441722 0.897152 159 175.887)" fill="#171A21"/>
</g>
</g>
<g id="Group">
<g id="Subtract" style="mix-blend-mode:multiply">
<use xlink:href="#path0_fill" transform="matrix(0.965926 -0.258819 0.258819 0.965926 408.336 112.013)" fill="#171A21"/>
</g>
<g id="Subtract" style="mix-blend-mode:multiply">
<use xlink:href="#path0_fill" transform="matrix(0.965926 0.258819 -0.258819 0.965926 364.906 159.691)" fill="#171A21"/>
</g>
<g id="Subtract" style="mix-blend-mode:multiply">
<use xlink:href="#path1_fill" transform="matrix(0.991083 0.133247 -0.133247 0.991083 417.443 -51.0326)" fill="#171A21"/>
</g>
<g id="Subtract" style="mix-blend-mode:multiply">
<use xlink:href="#path2_fill" transform="matrix(0.765498 0.643438 -0.643438 0.765498 385.906 -71.7251)" fill="#171A21"/>
</g>
<g id="Subtract" style="mix-blend-mode:multiply">
<use xlink:href="#path39_fill" transform="matrix(-0.965926 -0.258819 -0.258819 0.965926 422.311 -108.414)" fill="#171A21"/>
</g>
<g id="Union" style="mix-blend-mode:multiply">
<use xlink:href="#path4_fill" transform="matrix(-0.965926 -0.258819 -0.258819 0.965926 425.631 157.77)" fill="#171A21"/>
<use xlink:href="#path5_fill" transform="matrix(-0.965926 -0.258819 -0.258819 0.965926 425.631 157.77)" fill="#171A21"/>
<use xlink:href="#path6_fill" transform="matrix(-0.965926 -0.258819 -0.258819 0.965926 425.631 157.77)" fill="#171A21"/>
<use xlink:href="#path7_fill" transform="matrix(-0.965926 -0.258819 -0.258819 0.965926 425.631 157.77)" fill="#171A21"/>
</g>
<g id="Union" style="mix-blend-mode:multiply">
<use xlink:href="#path8_fill" transform="matrix(-0.965926 -0.258819 -0.258819 0.965926 430.874 37.6279)" fill="#171A21"/>
<use xlink:href="#path9_fill" transform="matrix(-0.965926 -0.258819 -0.258819 0.965926 430.874 37.6279)" fill="#171A21"/>
<use xlink:href="#path10_fill" transform="matrix(-0.965926 -0.258819 -0.258819 0.965926 430.874 37.6279)" fill="#171A21"/>
<use xlink:href="#path11_fill" transform="matrix(-0.965926 -0.258819 -0.258819 0.965926 430.874 37.6279)" fill="#171A21"/>
</g>
<g id="Union" style="mix-blend-mode:multiply">
<use xlink:href="#path12_fill" transform="matrix(-0.965926 -0.258819 -0.258819 0.965926 425.874 -21.3562)" fill="#171A21"/>
<use xlink:href="#path13_fill" transform="matrix(-0.965926 -0.258819 -0.258819 0.965926 425.874 -21.3562)" fill="#171A21"/>
<use xlink:href="#path14_fill" transform="matrix(-0.965926 -0.258819 -0.258819 0.965926 425.874 -21.3562)" fill="#171A21"/>
<use xlink:href="#path15_fill" transform="matrix(-0.965926 -0.258819 -0.258819 0.965926 425.874 -21.3562)" fill="#171A21"/>
</g>
<g id="Union" style="mix-blend-mode:multiply">
<use xlink:href="#path16_fill" transform="matrix(-0.965926 -0.258819 -0.258819 0.965926 426.874 -72.4147)" fill="#171A21"/>
<use xlink:href="#path17_fill" transform="matrix(-0.965926 -0.258819 -0.258819 0.965926 426.874 -72.4147)" fill="#171A21"/>
<use xlink:href="#path18_fill" transform="matrix(-0.965926 -0.258819 -0.258819 0.965926 426.874 -72.4147)" fill="#171A21"/>
<use xlink:href="#path19_fill" transform="matrix(-0.965926 -0.258819 -0.258819 0.965926 426.874 -72.4147)" fill="#171A21"/>
</g>
<g id="Union" style="mix-blend-mode:multiply">
<use xlink:href="#path20_fill" transform="matrix(-0.965926 -0.258819 -0.258819 0.965926 398.874 111.543)" fill="#171A21"/>
<use xlink:href="#path21_fill" transform="matrix(-0.965926 -0.258819 -0.258819 0.965926 398.874 111.543)" fill="#171A21"/>
<use xlink:href="#path22_fill" transform="matrix(-0.965926 -0.258819 -0.258819 0.965926 398.874 111.543)" fill="#171A21"/>
<use xlink:href="#path23_fill" transform="matrix(-0.965926 -0.258819 -0.258819 0.965926 398.874 111.543)" fill="#171A21"/>
</g>
<g id="Union" style="mix-blend-mode:multiply">
<use xlink:href="#path24_fill" transform="matrix(-0.975921 0.218123 0.218123 0.975921 373.462 -123.483)" fill="#171A21"/>
<use xlink:href="#path25_fill" transform="matrix(-0.975921 0.218123 0.218123 0.975921 373.462 -123.483)" fill="#171A21"/>
<use xlink:href="#path26_fill" transform="matrix(-0.975921 0.218123 0.218123 0.975921 373.462 -123.483)" fill="#171A21"/>
<use xlink:href="#path27_fill" transform="matrix(-0.975921 0.218123 0.218123 0.975921 373.462 -123.483)" fill="#171A21"/>
</g>
<g id="Union" style="mix-blend-mode:multiply">
<use xlink:href="#path28_fill" transform="matrix(-0.965449 0.260594 0.260594 0.965449 425.311 142.318)" fill="#171A21"/>
</g>
<g id="Union" style="mix-blend-mode:multiply">
<use xlink:href="#path29_fill" transform="matrix(-0.965449 0.260594 0.260594 0.965449 422.303 76.5738)" fill="#171A21"/>
</g>
<g id="Union" style="mix-blend-mode:multiply">
<use xlink:href="#path30_fill" transform="matrix(-0.965449 0.260594 0.260594 0.965449 395.629 69.7956)" fill="#171A21"/>
</g>
<g id="Union" style="mix-blend-mode:multiply">
<use xlink:href="#path28_fill" transform="matrix(-0.965449 0.260594 0.260594 0.965449 406.311 -41.6819)" fill="#171A21"/>
</g>
<g id="Union" style="mix-blend-mode:multiply">
<use xlink:href="#path31_fill" transform="matrix(-0.999864 -0.0164813 -0.0164813 0.999864 381.343 -96.5262)" fill="#171A21"/>
</g>
<g id="Union" style="mix-blend-mode:multiply">
<use xlink:href="#path32_fill" transform="matrix(-0.999864 -0.0164813 -0.0164813 0.999864 400.013 -16.124)" fill="#171A21"/>
</g>
<g id="Union" style="mix-blend-mode:multiply">
<use xlink:href="#path33_fill" transform="matrix(-0.965449 0.260594 0.260594 0.965449 425.839 -127.682)" fill="#171A21"/>
</g>
<g id="Union" style="mix-blend-mode:multiply">
<use xlink:href="#path34_fill" transform="matrix(-0.995141 0.0984605 0.0984605 0.995141 391.023 148.464)" fill="#171A21"/>
</g>
<g id="Union" style="mix-blend-mode:multiply">
<use xlink:href="#path34_fill" transform="matrix(-0.965926 -0.258819 -0.258819 0.965926 412.398 134.648)" fill="#171A21"/>
</g>
<g id="Union" style="mix-blend-mode:multiply">
<use xlink:href="#path34_fill" transform="matrix(-0.909821 -0.415001 -0.415001 0.909821 428.75 7.79005)" fill="#171A21"/>
</g>
<g id="Union" style="mix-blend-mode:multiply">
<use xlink:href="#path35_fill" transform="matrix(-0.965926 0.258819 0.258819 0.965926 402.7 3.05392)" fill="#171A21"/>
</g>
<g id="Union" style="mix-blend-mode:multiply">
<use xlink:href="#path36_fill" transform="matrix(-0.965926 0.258819 0.258819 0.965926 354.816 170.838)" fill="#171A21"/>
</g>
<g id="Union" style="mix-blend-mode:multiply">
<use xlink:href="#path37_fill" transform="matrix(-0.904772 0.425896 0.425896 0.904772 347.261 -130.757)" fill="#171A21"/>
</g>
<g id="Union" style="mix-blend-mode:multiply">
<use xlink:href="#path38_fill" transform="matrix(-0.897152 -0.441722 -0.441722 0.897152 391.874 173.178)" fill="#171A21"/>
</g>
<g id="Union" style="mix-blend-mode:multiply">
<use xlink:href="#path38_fill" transform="matrix(-0.897152 -0.441722 -0.441722 0.897152 427.874 100.904)" fill="#171A21"/>
</g>
<g id="Union" style="mix-blend-mode:multiply">
<use xlink:href="#path38_fill" transform="matrix(-0.897152 -0.441722 -0.441722 0.897152 391.874 -126.822)" fill="#171A21"/>
</g>
</g>
</g>
</mask>
<g id="Rectangle" mask="url(#mask0_alpha)">
<use xlink:href="#path40_fill" transform="translate(117 -136)" fill="url(#paint90_radial)" fill-opacity="0.3" style="mix-blend-mode:hard-light"/>
</g>
</g>
</g>
<defs>
<radialGradient id="paint90_radial" cx="0.5" cy="0.5" r="0.5" gradientUnits="userSpaceOnUse" gradientTransform="matrix(-544 540 -540 -544 702 162)">
<stop offset="0" stop-color="#1CD2F2"/>
<stop offset="1" stop-color="#00C383"/>
</radialGradient>
<path id="path0_fill" d="M 2.20663 0.00373723L 2.20663 0.00373723L 1.08828 0.0305549C 0.470624 0.0453658 -0.016424 0.555381 0.000424266 1.16971L 0.142788 6.36059C 0.159636 6.97491 0.674 7.46091 1.29165 7.4461L 2.41001 7.41928L 2.41001 7.41928C 5.29238 7.35016 7.69275 9.61817 7.77138 12.485L 7.77138 12.485L 7.80188 13.5974C 7.81873 14.2117 8.3331 14.6977 8.95075 14.6829L 14.1698 14.5577C 14.7874 14.5429 15.2745 14.0329 15.2576 13.4186L 15.2271 12.3062L 15.2271 12.3062C 15.0361 5.34389 9.20668 -0.164128 2.20663 0.00373723Z"/>
<path id="path1_fill" d="M 1.24617 0.00211055L 1.24617 0.00211055L 0.61459 0.0172555C 0.265779 0.0256198 -0.00927526 0.313644 0.000239599 0.660576L 0.0806378 3.59206C 0.0901526 3.93899 0.380633 4.21346 0.729444 4.20509L 1.36102 4.18995L 1.36102 4.18995C 2.98881 4.15091 4.34439 5.43174 4.38879 7.05075L 4.38879 7.05075L 4.40602 7.67893C 4.41553 8.02586 4.70601 8.30032 5.05482 8.29196L 8.00219 8.22128C 8.351 8.21292 8.62605 7.92489 8.61654 7.57796L 8.59931 6.94979L 8.59931 6.94979C 8.49147 3.01789 5.19936 -0.0926889 1.24617 0.00211055Z"/>
<path id="path2_fill" d="M 1.90549 0.0032272L 1.90549 0.0032272L 0.939757 0.026385C 0.406397 0.0391747 -0.0141826 0.479587 0.000366366 1.01007L 0.123302 5.49255C 0.137851 6.02304 0.582018 6.44271 1.11538 6.42992L 2.08111 6.40676L 2.08111 6.40676C 4.57012 6.34708 6.64291 8.30556 6.71081 10.7812L 6.71081 10.7812L 6.73715 11.7417C 6.7517 12.2722 7.19587 12.6919 7.72923 12.6791L 12.236 12.571C 12.7693 12.5582 13.1899 12.1178 13.1754 11.5873L 13.149 10.6268L 13.149 10.6268C 12.9841 4.6146 7.95023 -0.141729 1.90549 0.0032272Z"/>
<path id="path3_fill" d="M 5.2034 0.00881266L 5.2034 0.00881266L 2.56623 0.0720506C 1.10976 0.106976 -0.038729 1.30963 0.00100045 2.75825L 0.336705 14.9987C 0.376434 16.4473 1.58934 17.5934 3.04581 17.5584L 5.68298 17.4952L 5.68298 17.4952C 12.4798 17.3322 18.1401 22.6803 18.3255 29.4406L 18.3255 29.4406L 18.3974 32.0635C 18.4371 33.5122 19.65 34.6582 21.1065 34.6232L 33.4133 34.3281C 34.8698 34.2932 36.0183 33.0905 35.9785 31.6419L 35.9066 29.019L 35.9066 29.019C 35.4563 12.6013 21.71 -0.387025 5.2034 0.00881266Z"/>
<path id="path4_fill" d="M 6.5 12C 7.32843 12 7.99999 11.3284 8 10.5C 8 9.67157 7.32843 9 6.5 9C 5.67157 9 4.99999 9.67157 5 10.5C 5 11.3284 5.67157 12 6.5 12Z"/>
<path id="path5_fill" d="M 19 10.5C 19 11.3284 18.3284 12 17.5 12C 16.6716 12 16 11.3284 16 10.5C 16 9.67156 16.6716 8.99999 17.5 9C 18.3284 8.99999 19 9.67157 19 10.5Z"/>
<path id="path6_fill" fill-rule="evenodd" d="M 11.9998 18.5C 14.45 18.5 16.5338 16.7855 17 14.4999C 17.2325 13.3603 14.0003 13 12.0002 13C 10.0002 13 6.74159 13.2307 7.00022 14.4999C 7.46642 16.7855 9.54958 18.5 11.9998 18.5ZM 13.9999 16.5C 13.9999 16.5 13.1044 17 11.9999 17C 10.8953 17 9.99986 16.5 9.99986 16.5C 9.99986 16.5 10.8953 15.5 11.9999 15.5C 13.1044 15.5 13.9999 16.5 13.9999 16.5Z"/>
<path id="path7_fill" fill-rule="evenodd" d="M 24 12C 24 18.6274 18.6274 24 12 24C 5.37257 24 3.32272e-06 18.6274 5.40012e-13 12C -1.96795e-06 5.37258 5.37258 -5.54019e-06 12 4.29168e-12C 18.6274 -1.96795e-06 24 5.37258 24 12ZM 22 12C 22 17.5228 17.5228 22 12 22C 6.47715 22 1.99999 17.5228 2 12C 1.99999 6.47715 6.47714 2 12 2C 17.5228 1.99999 22 6.47715 22 12Z"/>
<path id="path8_fill" d="M 10.5335 19.4464C 11.876 19.4464 12.9643 18.3581 12.9643 17.0156C 12.9643 15.6731 11.876 14.5848 10.5335 14.5848C 9.19097 14.5848 8.10265 15.6731 8.10266 17.0156C 8.10267 18.3581 9.19097 19.4464 10.5335 19.4464Z"/>
<path id="path9_fill" d="M 30.7901 17.0156C 30.7901 18.3581 29.7018 19.4464 28.3593 19.4464C 27.0168 19.4464 25.9285 18.3581 25.9285 17.0156C 25.9285 15.6731 27.0168 14.5848 28.3593 14.5848C 29.7018 14.5848 30.7901 15.6731 30.7901 17.0156Z"/>
<path id="path10_fill" fill-rule="evenodd" d="M 19.446 29.9799C 23.4167 29.9799 26.7936 27.2014 27.5491 23.4976C 27.9258 21.6508 22.688 21.0669 19.4468 21.0669C 16.2056 21.0669 10.925 21.4409 11.3441 23.4976C 12.0996 27.2014 15.4754 29.9799 19.446 29.9799ZM 22.6872 26.7388C 22.6872 26.7388 21.2362 27.5491 19.4462 27.5491C 17.6562 27.5491 16.2051 26.7388 16.2051 26.7388C 16.2051 26.7388 17.6562 25.1183 19.4462 25.1183C 21.2362 25.1183 22.6872 26.7388 22.6872 26.7388Z"/>
<path id="path11_fill" fill-rule="evenodd" d="M 38.8928 19.4464C 38.8928 30.1863 30.1863 38.8928 19.4464 38.8928C 8.70643 38.8928 5.38458e-06 30.1863 8.75108e-13 19.4464C -3.18913e-06 8.70644 8.70644 -8.97806e-06 19.4464 6.95481e-12C 30.1863 -3.18912e-06 38.8928 8.70644 38.8928 19.4464ZM 35.6517 19.4464C 35.6517 28.3964 28.3964 35.6517 19.4464 35.6517C 10.4964 35.6517 3.24105 28.3964 3.24107 19.4464C 3.24106 10.4964 10.4964 3.24106 19.4464 3.24107C 28.3964 3.24106 35.6517 10.4964 35.6517 19.4464Z"/>
<path id="path12_fill" d="M 4.64089 8.5678C 5.23237 8.5678 5.71186 8.08831 5.71187 7.49683C 5.71187 6.90534 5.23238 6.42585 4.64089 6.42585C 4.04941 6.42585 3.56991 6.90534 3.56991 7.49682C 3.56992 8.08831 4.04941 8.5678 4.64089 8.5678Z"/>
<path id="path13_fill" d="M 13.5657 7.49682C 13.5657 8.0883 13.0862 8.5678 12.4947 8.5678C 11.9032 8.5678 11.4237 8.0883 11.4237 7.49682C 11.4237 6.90534 11.9032 6.42585 12.4947 6.42585C 13.0862 6.42585 13.5657 6.90534 13.5657 7.49682Z"/>
<path id="path14_fill" fill-rule="evenodd" d="M 8.56765 13.2087C 10.3171 13.2087 11.8049 11.9845 12.1377 10.3527C 12.3037 9.53904 9.99599 9.28179 8.56797 9.28178C 7.13994 9.28178 4.81338 9.44654 4.99804 10.3527C 5.3309 11.9845 6.81824 13.2087 8.56765 13.2087ZM 9.99567 11.7807C 9.99567 11.7807 9.35635 12.1377 8.56771 12.1377C 7.77906 12.1377 7.13973 11.7807 7.13973 11.7807C 7.13973 11.7807 7.77906 11.0667 8.56771 11.0667C 9.35635 11.0667 9.99567 11.7807 9.99567 11.7807Z"/>
<path id="path15_fill" fill-rule="evenodd" d="M 17.1356 8.5678C 17.1356 13.2997 13.2997 17.1356 8.5678 17.1356C 3.83593 17.1356 2.37237e-06 13.2997 3.8556e-13 8.5678C -1.40508e-06 3.83593 3.83593 -3.95561e-06 8.5678 3.06419e-12C 13.2997 -1.40508e-06 17.1356 3.83593 17.1356 8.5678ZM 15.7076 8.5678C 15.7076 12.511 12.511 15.7076 8.56779 15.7076C 4.62457 15.7076 1.42796 12.511 1.42797 8.5678C 1.42796 4.62458 4.62457 1.42797 8.5678 1.42797C 12.511 1.42796 15.7076 4.62458 15.7076 8.5678Z"/>
<path id="path16_fill" d="M 4.65728 8.59805C 5.25085 8.59805 5.73203 8.11686 5.73204 7.52329C 5.73203 6.92972 5.25085 6.44854 4.65728 6.44854C 4.06371 6.44854 3.58251 6.92972 3.58252 7.52329C 3.58252 8.11686 4.0637 8.59805 4.65728 8.59805Z"/>
<path id="path17_fill" d="M 13.6136 7.52329C 13.6136 8.11686 13.1324 8.59804 12.5388 8.59805C 11.9452 8.59805 11.4641 8.11686 11.4641 7.52329C 11.4641 6.92972 11.9452 6.44853 12.5388 6.44854C 13.1324 6.44853 13.6136 6.92972 13.6136 7.52329Z"/>
<path id="path18_fill" fill-rule="evenodd" d="M 8.5979 13.2553C 10.3535 13.2553 11.8465 12.0268 12.1806 10.3893C 12.3472 9.57272 10.0313 9.31456 8.59821 9.31455C 7.16515 9.31455 4.83038 9.47989 5.01568 10.3893C 5.34972 12.0268 6.84231 13.2553 8.5979 13.2553ZM 10.031 11.8223C 10.031 11.8223 9.38939 12.1806 8.59795 12.1806C 7.80652 12.1806 7.16494 11.8223 7.16494 11.8223C 7.16494 11.8223 7.80652 11.1058 8.59795 11.1058C 9.38939 11.1058 10.031 11.8223 10.031 11.8223Z"/>
<path id="path19_fill" fill-rule="evenodd" d="M 17.1961 8.59805C 17.1961 13.3466 13.3466 17.1961 8.59804 17.1961C 3.84947 17.1961 2.38074e-06 13.3466 3.86921e-13 8.59805C -1.41004e-06 3.84948 3.84948 -3.96957e-06 8.59805 3.07501e-12C 13.3466 -1.41004e-06 17.1961 3.84947 17.1961 8.59805ZM 15.7631 8.59805C 15.7631 12.5552 12.5552 15.7631 8.59804 15.7631C 4.6409 15.7631 1.433 12.5552 1.43301 8.59805C 1.433 4.64091 4.6409 1.43301 8.59805 1.43301C 12.5552 1.433 15.7631 4.6409 15.7631 8.59805Z"/>
<path id="path20_fill" d="M 7.47291 13.7961C 8.42533 13.7961 9.19742 13.024 9.19743 12.0716C 9.19743 11.1192 8.42534 10.3471 7.47291 10.3471C 6.52049 10.3471 5.74838 11.1192 5.74839 12.0716C 5.74839 13.024 6.52048 13.7961 7.47291 13.7961Z"/>
<path id="path21_fill" d="M 21.8439 12.0716C 21.8439 13.024 21.0718 13.7961 20.1194 13.7961C 19.1669 13.7961 18.3948 13.024 18.3948 12.0716C 18.3948 11.1192 19.1669 10.3471 20.1194 10.3471C 21.0718 10.3471 21.8439 11.1192 21.8439 12.0716Z"/>
<path id="path22_fill" fill-rule="evenodd" d="M 13.7959 21.2691C 16.6129 21.269 19.0086 19.2979 19.5446 16.6703C 19.8118 15.3601 16.0959 14.9458 13.7964 14.9458C 11.497 14.9458 7.75066 15.2111 8.048 16.6703C 8.58398 19.2979 10.9789 21.2691 13.7959 21.2691ZM 16.0953 18.9697C 16.0953 18.9697 15.0659 19.5445 13.796 19.5445C 12.5261 19.5445 11.4966 18.9697 11.4966 18.9697C 11.4966 18.9697 12.5261 17.82 13.796 17.82C 15.0659 17.82 16.0953 18.9697 16.0953 18.9697Z"/>
<path id="path23_fill" fill-rule="evenodd" d="M 27.5923 13.7961C 27.5923 21.4155 21.4155 27.5923 13.7961 27.5923C 6.17673 27.5923 3.82006e-06 21.4155 6.20841e-13 13.7961C -2.26251e-06 6.17674 6.17674 -6.36944e-06 13.7961 4.93405e-12C 21.4155 -2.2625e-06 27.5923 6.17674 27.5923 13.7961ZM 25.2929 13.7961C 25.2929 20.1456 20.1456 25.2929 13.7961 25.2929C 7.44663 25.2929 2.29935 20.1456 2.29936 13.7961C 2.29935 7.44664 7.44663 2.29935 13.7961 2.29936C 20.1456 2.29935 25.2929 7.44664 25.2929 13.7961Z"/>
<path id="path24_fill" d="M 4.23669 7.82159C 4.77666 7.82159 5.21439 7.38386 5.2144 6.84389C 5.21439 6.30392 4.77666 5.86619 4.23669 5.86619C 3.69673 5.86619 3.25899 6.30392 3.25899 6.84389C 3.259 7.38386 3.69672 7.82159 4.23669 7.82159Z"/>
<path id="path25_fill" d="M 12.3842 6.84389C 12.3842 7.38385 11.9464 7.82158 11.4065 7.82159C 10.8665 7.82158 10.4288 7.38385 10.4288 6.84388C 10.4288 6.30392 10.8665 5.86619 11.4065 5.86619C 11.9465 5.86619 12.3842 6.30392 12.3842 6.84389Z"/>
<path id="path26_fill" fill-rule="evenodd" d="M 7.82145 12.0583C 9.4185 12.0583 10.7767 10.9407 11.0806 9.45104C 11.2321 8.70824 9.12539 8.47339 7.82174 8.47339C 6.51809 8.47338 4.39416 8.62379 4.56274 9.45104C 4.86661 10.9407 6.2244 12.0583 7.82145 12.0583ZM 9.1251 10.7547C 9.1251 10.7547 8.54146 11.0806 7.8215 11.0806C 7.10154 11.0806 6.5179 10.7547 6.5179 10.7547C 6.5179 10.7547 7.10154 10.1029 7.8215 10.1029C 8.54146 10.1029 9.1251 10.7547 9.1251 10.7547Z"/>
<path id="path27_fill" fill-rule="evenodd" d="M 15.6432 7.82159C 15.6432 12.1413 12.1413 15.6432 7.82158 15.6432C 3.50184 15.6432 2.16575e-06 12.1413 3.5198e-13 7.82159C -1.28271e-06 3.50184 3.50184 -3.61109e-06 7.82159 2.79731e-12C 12.1413 -1.28271e-06 15.6432 3.50184 15.6432 7.82159ZM 14.3396 7.82158C 14.3396 11.4214 11.4214 14.3396 7.82158 14.3396C 4.2218 14.3396 1.30359 11.4214 1.3036 7.82159C 1.30359 4.2218 4.22179 1.3036 7.82159 1.3036C 11.4214 1.30359 14.3396 4.2218 14.3396 7.82158Z"/>
<path id="path28_fill" d="M 7.24626 0.56C 6.59701 -0.08 5.2985 -0.4 4 0.88C 2.7015 -0.4 1.40299 -0.0800001 0.753743 0.56C -1.84326 3.12 3.02612 6 4 6C 4.97388 6 9.84326 3.12 7.24626 0.56Z"/>
<path id="path29_fill" d="M 11.9301 0.921973C 10.8612 -0.13171 8.72335 -0.658552 6.58552 1.44881C 4.44769 -0.658552 2.30986 -0.131711 1.24095 0.921973C -3.03471 5.13671 4.98215 9.87828 6.58552 9.87828C 8.18889 9.87828 16.2058 5.13671 11.9301 0.921973Z"/>
<path id="path30_fill" d="M 17.4062 1.34518C 15.8467 -0.192168 12.7275 -0.96084 9.6084 2.11385C 6.48927 -0.96084 3.37013 -0.192168 1.81057 1.34518C -4.4277 7.49456 7.26905 14.4126 9.6084 14.4126C 11.9478 14.4126 23.6445 7.49455 17.4062 1.34518Z"/>
<path id="path31_fill" d="M 11.2568 0.869938C 10.2482 -0.124277 8.23102 -0.621384 6.21384 1.36705C 4.19667 -0.621384 2.1795 -0.124277 1.17091 0.869938C -2.86344 4.8468 4.70096 9.32077 6.21384 9.32077C 7.72673 9.32077 15.2911 4.8468 11.2568 0.869938Z"/>
<path id="path32_fill" d="M 7.80183 0.602936C 7.1028 -0.0861336 5.70474 -0.430668 4.30668 0.94747C 2.90862 -0.430668 1.51056 -0.0861338 0.811533 0.602936C -1.98459 3.35921 3.25814 6.46003 4.30668 6.46003C 5.35523 6.46003 10.598 3.35921 7.80183 0.602936Z"/>
<path id="path33_fill" d="M 13.7501 1.06262C 12.5181 -0.151803 10.0541 -0.759015 7.59016 1.66983C 5.1262 -0.759015 2.66224 -0.151803 1.43026 1.06262C -3.49766 5.92032 5.74218 11.3852 7.59016 11.3852C 9.43813 11.3852 18.678 5.92032 13.7501 1.06262Z"/>
<path id="path34_fill" d="M 10.4334 0.80631C 9.49863 -0.115187 7.62899 -0.575936 5.75936 1.26706C 3.88972 -0.575936 2.02009 -0.115187 1.08527 0.80631C -2.654 4.4923 4.35713 8.63904 5.75936 8.63904C 7.16159 8.63904 14.1727 4.4923 10.4334 0.80631Z"/>
<path id="path35_fill" d="M 19.4756 1.5051C 17.7306 -0.215014 14.2407 -1.07507 10.7507 2.36516C 7.26076 -1.07507 3.7708 -0.215015 2.02582 1.5051C -4.9541 8.38556 8.13325 16.1261 10.7507 16.1261C 13.3682 16.1261 26.4555 8.38556 19.4756 1.5051Z"/>
<path id="path36_fill" d="M 4.93512 0.381392C 4.49294 -0.0544846 3.60859 -0.272423 2.72423 0.599331C 1.83988 -0.272423 0.95552 -0.0544847 0.513343 0.381392C -1.25537 2.1249 2.06096 4.08635 2.72423 4.08635C 3.3875 4.08635 6.70383 2.1249 4.93512 0.381392Z"/>
<path id="path37_fill" d="M 17.2801 1.33543C 15.7318 -0.190775 12.6353 -0.953876 9.53876 2.09853C 6.44223 -0.953876 3.34571 -0.190775 1.79744 1.33543C -4.39561 7.44024 7.21636 14.3081 9.53876 14.3081C 11.8612 14.3081 23.4731 7.44023 17.2801 1.33543Z"/>
<path id="path38_fill" d="M 4.43032 0.342381C 4.03337 -0.0489115 3.23947 -0.244558 2.44558 0.538027C 1.65168 -0.244558 0.857783 -0.0489116 0.460834 0.342381C -1.12696 1.90755 1.85015 3.66837 2.44558 3.66837C 3.041 3.66837 6.01811 1.90755 4.43032 0.342381Z"/>
<path id="path39_fill" d="M 4.29563 0.00727523L 4.29563 0.00727523L 2.11854 0.0594809C 0.916159 0.0883132 -0.0319725 1.08115 0.000825914 2.27705L 0.277964 12.3821C 0.310763 13.578 1.31207 14.5241 2.51445 14.4953L 4.69154 14.443L 4.69154 14.443C 10.3026 14.3085 14.9754 18.7236 15.1285 24.3044L 15.1285 24.3044L 15.1878 26.4698C 15.2206 27.6657 16.222 28.6118 17.4243 28.583L 27.5841 28.3393C 28.7865 28.3105 29.7346 27.3177 29.7018 26.1218L 29.6424 23.9564L 29.6424 23.9564C 29.2707 10.4029 17.9226 -0.319505 4.29563 0.00727523Z"/>
<path id="path40_fill" d="M 0 0L 320 0L 320 320L 0 320L 0 0Z"/>
</defs>
</svg>
