<svg width="320" height="160" viewBox="0 0 320 160" version="1.1" xmlns="http://www.w3.org/2000/svg" xmlns:xlink="http://www.w3.org/1999/xlink">
<title>user</title>
<desc>Created using Figma</desc>
<g id="Canvas" transform="translate(603 136)">
 clip-path="url(#clip-0)"<g id="user">
<mask id="mask0_alpha" mask-type="alpha">
<g id="Group">
<g id="Group">
<g id="Union">
<use xlink:href="#path0_fill" transform="matrix(0.866025 -0.5 0.5 0.866025 -597 -114.562)" fill="#171A21"/>
</g>
<g id="Union">
<use xlink:href="#path1_fill" transform="matrix(0.987113 -0.160022 0.160022 0.987113 -531.677 -18.5985)" fill="#171A21"/>
</g>
<g id="Union">
<use xlink:href="#path2_fill" transform="matrix(0.866025 0.5 -0.5 0.866025 -537.551 -72)" fill="#171A21"/>
</g>
<g id="Union">
<use xlink:href="#path3_fill" transform="translate(-594 -74)" fill="#171A21"/>
</g>
<g id="Union">
<use xlink:href="#path4_fill" transform="translate(-519 -46)" fill="#171A21"/>
</g>
<g id="Union">
<use xlink:href="#path5_fill" transform="translate(-597 -13)" fill="#171A21"/>
</g>
<g id="Union">
<use xlink:href="#path6_fill" transform="translate(-486 -2)" fill="#171A21"/>
<use xlink:href="#path7_fill" transform="translate(-486 -2)" fill="#171A21"/>
</g>
<g id="Union">
<use xlink:href="#path6_fill" transform="matrix(0.875289 -0.4836 0.4836 0.875289 -601.651 -38.279)" fill="#171A21"/>
<use xlink:href="#path7_fill" transform="matrix(0.875289 -0.4836 0.4836 0.875289 -601.651 -38.279)" fill="#171A21"/>
</g>
<g id="Union">
<use xlink:href="#path8_fill" transform="matrix(0.986588 -0.163228 0.163228 0.986588 -570.283 -40.1408)" fill="#171A21"/>
<use xlink:href="#path9_fill" transform="matrix(0.986588 -0.163228 0.163228 0.986588 -570.283 -40.1408)" fill="#171A21"/>
</g>
<g id="Union">
<use xlink:href="#path10_fill" transform="matrix(0.866025 0.5 -0.5 0.866025 -531.544 -111.557)" fill="#171A21"/>
<use xlink:href="#path11_fill" transform="matrix(0.866025 0.5 -0.5 0.866025 -531.544 -111.557)" fill="#171A21"/>
</g>
</g>
<g id="Group">
<g id="Union">
<use xlink:href="#path0_fill" transform="matrix(0.866025 -0.5 0.5 0.866025 -339.587 -9.80975)" fill="#171A21"/>
</g>
<g id="Union">
<use xlink:href="#path1_fill" transform="matrix(-0.987113 -0.160022 -0.160022 0.987113 -358.073 -117.846)" fill="#171A21"/>
</g>
<g id="Union">
<use xlink:href="#path2_fill" transform="matrix(-0.866025 0.5 0.5 0.866025 -352.199 -64.4912)" fill="#171A21"/>
</g>
<g id="Union">
<use xlink:href="#path3_fill" transform="matrix(-0.175996 0.984391 0.984391 0.175996 -315.642 -62.7643)" fill="#171A21"/>
</g>
<g id="Union">
<use xlink:href="#path4_fill" transform="matrix(-1 0 0 1 -370.75 -77)" fill="#171A21"/>
</g>
<g id="Union">
<use xlink:href="#path5_fill" transform="matrix(-1 0 0 1 -292.75 -132)" fill="#171A21"/>
</g>
<g id="Union">
<use xlink:href="#path6_fill" transform="translate(-411.651 -124)" fill="#171A21"/>
<use xlink:href="#path7_fill" transform="translate(-411.651 -124)" fill="#171A21"/>
</g>
<g id="Union">
<use xlink:href="#path6_fill" transform="matrix(0.875289 -0.4836 0.4836 0.875289 -301.301 -82.279)" fill="#171A21"/>
<use xlink:href="#path7_fill" transform="matrix(0.875289 -0.4836 0.4836 0.875289 -301.301 -82.279)" fill="#171A21"/>
</g>
<g id="Union">
<use xlink:href="#path8_fill" transform="matrix(0.986588 -0.163228 0.163228 0.986588 -351.72 -106.89)" fill="#171A21"/>
<use xlink:href="#path9_fill" transform="matrix(0.986588 -0.163228 0.163228 0.986588 -351.72 -106.89)" fill="#171A21"/>
</g>
<g id="Union">
<use xlink:href="#path10_fill" transform="matrix(0.866025 0.5 -0.5 0.866025 -359.294 -35.5574)" fill="#171A21"/>
<use xlink:href="#path11_fill" transform="matrix(0.866025 0.5 -0.5 0.866025 -359.294 -35.5574)" fill="#171A21"/>
</g>
</g>
</g>
</mask>
<g id="Rectangle" mask="url(#mask0_alpha)">
<use xlink:href="#path12_fill" transform="translate(-603 -136)" fill="url(#paint28_radial)" fill-opacity="0.48" style="mix-blend-mode:hard-light"/>
</g>
</g>
</g>
<defs>
<radialGradient id="paint28_radial" cx="0.5" cy="0.5" r="0.5" gradientUnits="userSpaceOnUse" gradientTransform="matrix(-399 160 -198.296 -318.07 498.148 159.035)">
<stop offset="0" stop-color="#FFFFFF"/>
<stop offset="1" stop-color="#D6E0EE"/>
</radialGradient>
<path id="path0_fill" fill-rule="evenodd" d="M 8.61804 20.649C 6.596 18.7993 5.93736 15.8087 5.93734 11.5008C 5.93745 5.14911 11.0865 -5.51998e-06 17.4383 2.80131e-11C 23.79 -1.38649e-05 28.9391 5.14909 28.9391 11.5008C 28.939 15.8087 28.2804 18.7993 26.2584 20.649C 30.0868 22.7438 33.089 26.16 34.6516 30.2841C 34.9373 31.0381 35.0043 31.9137 34.5331 32.5679C 33.2258 34.3826 30.6837 32.3128 29.6345 30.3377C 27.3206 25.9816 22.741 23.0125 17.4672 23.0017C 17.4576 23.0017 17.4479 23.0017 17.4383 23.0017C 17.4286 23.0017 17.419 23.0017 17.4092 23.0017C 12.1353 23.0125 7.55587 25.9816 5.24187 30.3378C 4.1929 32.3129 1.65075 34.3825 0.343565 32.568C -0.127763 31.9138 -0.0608423 31.038 0.224914 30.284C 1.78751 26.1599 4.7897 22.7438 8.61804 20.649ZM 24.3387 11.5008C 24.3387 15.3711 23.7147 16.6557 23.2586 17.1499C 22.8853 17.5542 21.7005 18.3976 17.4665 18.4014C 17.4571 18.4014 17.4477 18.4014 17.4383 18.4014C 17.4289 18.4014 17.4194 18.4014 17.41 18.4013C 13.176 18.3976 11.9912 17.5543 11.6179 17.1499C 11.1618 16.6558 10.5377 15.3711 10.5378 11.5008C 10.5377 7.68979 13.6272 4.60034 17.4383 4.60034C 21.2493 4.60035 24.3387 7.68977 24.3387 11.5008Z"/>
<path id="path1_fill" fill-rule="evenodd" d="M 7.41278 17.7611C 5.67353 16.1702 5.10701 13.5978 5.10698 9.89239C 5.10707 4.42899 9.53601 -4.74799e-06 14.9995 2.40954e-11C 20.4629 -1.19259e-05 24.8919 4.42897 24.8919 9.89242C 24.8918 13.5978 24.3253 16.1702 22.5861 17.7612C 25.879 19.563 28.4614 22.5014 29.8054 26.0488C 30.0512 26.6973 30.1088 27.4505 29.7035 28.0132C 28.5791 29.5741 26.3925 27.7938 25.49 26.0949C 23.4997 22.348 19.5606 19.7942 15.0244 19.7848C 15.0161 19.7848 15.0078 19.7848 14.9995 19.7848C 14.9911 19.7848 14.9829 19.7848 14.9745 19.7848C 10.4382 19.7941 6.49915 22.348 4.50878 26.095C 3.60651 27.7938 1.41989 29.574 0.295516 28.0133C -0.109895 27.4505 -0.0523333 26.6973 0.193459 26.0487C 1.53752 22.5014 4.11984 19.563 7.41278 17.7611ZM 20.9349 9.89241C 20.9349 13.2214 20.3981 14.3264 20.0058 14.7515C 19.6847 15.0992 18.6656 15.8246 15.0238 15.8279C 15.0156 15.8279 15.0076 15.8279 14.9995 15.8279C 14.9914 15.8279 14.9832 15.8279 14.9751 15.8279C 11.3333 15.8246 10.3142 15.0992 9.99309 14.7514C 9.60078 14.3264 9.064 13.2214 9.06401 9.89241C 9.064 6.61435 11.7214 3.95697 14.9995 3.95697C 18.2776 3.95697 20.9349 6.61433 20.9349 9.89241Z"/>
<path id="path2_fill" fill-rule="evenodd" d="M 4.37744 10.4884C 3.35037 9.54892 3.01582 8.02986 3.01581 5.84171C 3.01586 2.61543 5.63126 -2.80381e-06 8.85759 1.42289e-11C 12.0838 -7.04255e-06 14.6993 2.61542 14.6993 5.84173C 14.6993 8.02985 14.3647 9.54892 13.3377 10.4884C 15.2822 11.5525 16.8072 13.2877 17.6009 15.3825C 17.746 15.7655 17.78 16.2102 17.5407 16.5425C 16.8767 17.4642 15.5854 16.4129 15.0525 15.4097C 13.8772 13.1971 11.5511 11.689 8.87229 11.6835C 8.86741 11.6835 8.86247 11.6835 8.8576 11.6835C 8.85265 11.6835 8.84778 11.6835 8.84283 11.6834C 6.164 11.6889 3.83792 13.1971 2.66255 15.4097C 2.12974 16.413 0.838483 17.4642 0.17451 16.5426C -0.0648956 16.2102 -0.0309042 15.7654 0.114242 15.3824C 0.907945 13.2876 2.43288 11.5525 4.37744 10.4884ZM 12.3626 5.84172C 12.3626 7.80759 12.0456 8.4601 11.814 8.71112C 11.6243 8.91648 11.0225 9.34487 8.87192 9.34677C 8.86712 9.34677 8.86239 9.34677 8.85759 9.34677C 8.8528 9.34677 8.848 9.34677 8.8432 9.34676C 6.69258 9.34485 6.09081 8.91649 5.90118 8.71111C 5.66951 8.46012 5.35253 7.80759 5.35254 5.84172C 5.35253 3.90595 6.92181 2.33669 8.85759 2.33669C 10.7934 2.3367 12.3626 3.90594 12.3626 5.84172Z"/>
<path id="path3_fill" fill-rule="evenodd" d="M 14.2243 16.3471C 12.7521 17.3955 10.9511 18.0121 9.00602 18.0121C 4.03211 18.0121 0 13.9799 0 9.00603C 0 4.03213 4.03211 0 9.00602 0C 13.9799 0 18.012 4.03213 18.012 9.00603C 18.012 10.9511 17.3954 12.7521 16.3471 14.2243L 21.2929 19.1702C 21.6834 19.5607 21.6834 20.1938 21.2929 20.5844L 20.5844 21.2929C 20.1938 21.6834 19.5607 21.6834 19.1702 21.2929L 14.2243 16.3471ZM 15.01 9.00603C 15.01 12.322 12.3219 15.01 9.00602 15.01C 5.6901 15.01 3.00201 12.322 3.00201 9.00603C 3.00201 5.6901 5.6901 3.00201 9.00602 3.00201C 12.3219 3.00201 15.01 5.6901 15.01 9.00603Z"/>
<path id="path4_fill" fill-rule="evenodd" d="M 6.46559 7.43048C 5.79642 7.90703 4.97776 8.1873 4.09365 8.1873C 1.83278 8.1873 0 6.35451 0 4.09365C 0 1.83279 1.83278 0 4.09365 0C 6.35451 0 8.18729 1.83279 8.18729 4.09365C 8.18729 4.97776 7.90702 5.79641 7.43048 6.4656L 9.51756 8.55268C 9.784 8.81912 9.784 9.25112 9.51756 9.51756L 9.51756 9.51756C 9.25111 9.784 8.81912 9.784 8.55268 9.51756L 6.46559 7.43048ZM 6.82274 4.09365C 6.82274 5.60089 5.60088 6.82275 4.09365 6.82275C 2.58641 6.82275 1.36455 5.60089 1.36455 4.09365C 1.36455 2.58641 2.58641 1.36455 4.09365 1.36455C 5.60088 1.36455 6.82274 2.58641 6.82274 4.09365Z"/>
<path id="path5_fill" fill-rule="evenodd" d="M 20.6899 23.7775C 18.5485 25.3025 15.9288 26.1993 13.0997 26.1993C 5.86489 26.1993 0 20.3344 0 13.0997C 0 5.86492 5.86489 0 13.0997 0C 20.3344 0 26.1993 5.86492 26.1993 13.0997C 26.1993 15.9288 25.3024 18.5485 23.7775 20.6899L 31.2929 28.2053C 31.6834 28.5958 31.6834 29.229 31.2929 29.6195L 29.6195 31.2929C 29.229 31.6834 28.5958 31.6834 28.2053 31.2929L 20.6899 23.7775ZM 21.8328 13.0997C 21.8328 17.9228 17.9228 21.8328 13.0997 21.8328C 8.27651 21.8328 4.36656 17.9228 4.36656 13.0997C 4.36656 8.2765 8.27651 4.36656 13.0997 4.36656C 17.9228 4.36656 21.8328 8.2765 21.8328 13.0997Z"/>
<path id="path6_fill" d="M 7.90072 4C 7.90072 5.72784 6.80519 7.1998 5.27087 7.75917C 5.05653 7.83732 4.90072 8.03344 4.90072 8.26159L 4.90072 9C 4.90072 9.55229 4.453 10 3.90072 10C 3.34843 10 2.90072 9.55229 2.90072 9L 2.90072 7.5C 2.90072 6.67157 3.79146 6.30462 4.40072 6C 5.14975 5.62549 5.90072 5 5.90072 4C 5.90072 2.89543 5.0053 2 3.90072 2C 3.14361 2 2.48478 2.42067 2.14518 3.04103C 1.87999 3.52548 1.453 4 0.900715 4C 0.348431 4 -0.112111 3.54533 0.0241427 3.01012C 0.464657 1.27976 2.03324 0 3.90072 0C 6.10985 0 7.90072 1.79086 7.90072 4Z"/>
<path id="path7_fill" d="M 3.90072 13C 4.45299 13 4.90072 12.5523 4.90072 12C 4.90072 11.4477 4.45299 11 3.90072 11C 3.34844 11 2.90072 11.4477 2.90072 12C 2.90072 12.5523 3.34844 13 3.90072 13Z"/>
<path id="path8_fill" d="M 23.3067 11.7998C 23.3067 16.8969 20.075 21.2391 15.5488 22.8892C 14.9165 23.1197 14.4569 23.6983 14.4569 24.3713L 14.4569 26.5496C 14.4569 28.1788 13.1361 29.4995 11.5069 29.4995C 9.87771 29.4995 8.55698 28.1788 8.55698 26.5496L 8.55698 22.1247C 8.55698 19.6808 11.1846 18.5983 12.9819 17.6997C 15.1915 16.5949 17.4068 14.7498 17.4068 11.7998C 17.4068 8.54139 14.7654 5.89991 11.5069 5.89991C 9.27351 5.89991 7.32997 7.14088 6.3282 8.97089C 5.54589 10.4 4.28628 11.7998 2.65707 11.7998C 1.02785 11.7998 -0.330723 10.4586 0.07122 8.87971C 1.37072 3.77523 5.99795 0 11.5069 0C 18.0238 0 23.3067 5.28295 23.3067 11.7998Z"/>
<path id="path9_fill" d="M 11.5069 38.3494C 13.1361 38.3494 14.4569 37.0287 14.4569 35.3994C 14.4569 33.7702 13.1361 32.4495 11.5069 32.4495C 9.87774 32.4495 8.55698 33.7702 8.55698 35.3994C 8.55698 37.0287 9.87774 38.3494 11.5069 38.3494Z"/>
<path id="path10_fill" d="M 18 8.92308C 18 12.7775 15.5041 16.0611 12.0085 17.3089C 11.5202 17.4832 11.1652 17.9208 11.1652 18.4297L 11.1652 20.0769C 11.1652 21.3089 10.1452 22.3077 8.8869 22.3077C 7.62865 22.3077 6.60863 21.3089 6.60863 20.0769L 6.60863 16.7308C 6.60863 14.8827 8.63798 14.0642 10.026 13.3846C 11.7325 12.5492 13.4435 11.1538 13.4435 8.92308C 13.4435 6.45904 11.4034 4.46154 8.8869 4.46154C 7.16201 4.46154 5.661 5.39997 4.88732 6.78383C 4.28314 7.86452 3.31033 8.92308 2.05208 8.92308C 0.793821 8.92308 -0.255421 7.90882 0.0550038 6.71488C 1.05862 2.85485 4.63227 0 8.8869 0C 13.9199 0 18 3.99499 18 8.92308Z"/>
<path id="path11_fill" d="M 8.8869 29C 10.1451 29 11.1652 28.0012 11.1652 26.7692C 11.1652 25.5372 10.1451 24.5385 8.8869 24.5385C 7.62866 24.5385 6.60863 25.5372 6.60863 26.7692C 6.60863 28.0012 7.62866 29 8.8869 29Z"/>
<path id="path12_fill" d="M 0 0L 399 0L 399 160L 0 160L 0 0Z"/>
</defs>
</svg>
