<?xml version="1.0" encoding="UTF-8" standalone="no"?><!DOCTYPE svg PUBLIC "-//W3C//DTD SVG 1.1//EN" "http://www.w3.org/Graphics/SVG/1.1/DTD/svg11.dtd"><svg width="100%" height="100%" viewBox="0 0 125 176" version="1.1" xmlns="http://www.w3.org/2000/svg" xmlns:xlink="http://www.w3.org/1999/xlink" xml:space="preserve" style="fill-rule:evenodd;clip-rule:evenodd;stroke-linejoin:round;stroke-miterlimit:1.41421;"><g id="cluster.-3"><path d="M20.706,42.861l-2.6,-0.5c-1.6,-0.3 -2.6,-1.9 -2.2,-3.4l0.5,-2.6c0.3,-1.6 -0.7,-3.2 -2.3,-3.5c-1.6,-0.4 -3.2,0.7 -3.6,2.3l-0.5,2.6c-0.3,1.6 -1.9,2.6 -3.4,2.2l-2.4,-0.5c-1.6,-0.3 -3.3,0.6 -3.7,2.1c-0.4,1.7 0.6,3.3 2.3,3.7l2.6,0.5c1.6,0.3 2.6,1.9 2.2,3.4l-0.5,2.6c-0.3,1.6 0.7,3.2 2.3,3.5c1.6,0.4 3.2,-0.7 3.5,-2.3l0.5,-2.6c0.3,-1.6 1.9,-2.6 3.4,-2.2l2.6,0.5c2,0.4 3.9,-1.2 3.6,-3.4c-0.1,-1.2 -1.1,-2.2 -2.3,-2.4Z" style="fill:#171a21;fill-rule:nonzero;"/><path d="M121.406,155.161c3.3,-2.5 4.8,-45 2,-50.5c-3.1,-6.1 -106.6,-5.9 -109.9,0c-2.8,5.2 -2.5,47.4 2,50.5c4.8,3.3 103.5,1.8 105.9,0Z" style="fill:#1cd2f2;fill-rule:nonzero;"/><g><circle cx="39.506" cy="129.361" r="5.1" style="fill:#fff;"/><circle cx="68.306" cy="129.361" r="5.1" style="fill:#fff;"/><circle cx="97.106" cy="129.361" r="5.1" style="fill:#fff;"/></g><circle cx="68.306" cy="12.061" r="5.1" style="fill:#171a21;"/><path d="M63.206,157.161c-10.3,0 -14.1,18.4 -16.9,18.4c-2.9,0 -7,-18.9 -14.3,-18.9c-3.2,0 9.2,-7.5 9.2,-7.5" style="fill:#1cd2f2;fill-rule:nonzero;"/><path d="M23.402,59.183l0.205,0.042l0.2,0.063l0.192,0.083l0.182,0.104l0.17,0.121l0.157,0.139l0.141,0.154l0.125,0.169l37.1,56.1l0.106,0.18l0.087,0.191l0.066,0.198l0.045,0.205l0.024,0.208l0.002,0.209l-0.02,0.208l-0.042,0.205l-0.063,0.2l-0.084,0.192l-0.103,0.182l-0.122,0.171l-0.138,0.156l-0.155,0.142l-0.168,0.124l-0.181,0.106l-0.19,0.087l-0.199,0.066l-0.204,0.046l-0.208,0.023l-0.209,0.002l-0.209,-0.02l-0.205,-0.042l-0.199,-0.063l-0.192,-0.084l-0.183,-0.103l-0.17,-0.121l-0.157,-0.139l-0.141,-0.155l-0.125,-0.168l-37.1,-56.1l-0.106,-0.18l-0.086,-0.191l-0.067,-0.198l-0.045,-0.205l-0.024,-0.208l-0.001,-0.209l0.02,-0.208l0.042,-0.206l0.063,-0.199l0.083,-0.192l0.103,-0.182l0.122,-0.171l0.139,-0.156l0.154,-0.142l0.168,-0.124l0.181,-0.106l0.19,-0.087l0.199,-0.067l0.204,-0.045l0.208,-0.023l0.21,-0.002l0.208,0.02Z" style="fill:#333;"/><path d="M50.354,18.566l0.136,0.015l0.134,0.024l0.133,0.033l0.13,0.042l0.126,0.051l0.123,0.06l0.119,0.067l0.114,0.076l0.108,0.083l0.103,0.091l0.095,0.097l0.09,0.103l0.081,0.109l0.075,0.115l0.066,0.12l0.058,0.123l0.049,0.128l0.041,0.13l0.031,0.133l0.023,0.135l0.013,0.135l0.004,0.137l-0.006,0.136l-0.015,0.136l-0.024,0.135l-0.033,0.132l-0.042,0.13l-0.051,0.127l-0.059,0.123l-0.068,0.118l-0.075,0.114l-0.084,0.108l-0.09,0.103l-0.097,0.096l-0.104,0.089l-0.109,0.082l-0.114,0.074l-0.12,0.066l-23.7,12.1l-0.124,0.058l-0.127,0.049l-0.13,0.041l-0.133,0.032l-0.135,0.022l-0.136,0.013l-0.136,0.004l-0.137,-0.006l-0.136,-0.014l-0.134,-0.024l-0.133,-0.034l-0.129,-0.042l-0.127,-0.05l-0.123,-0.06l-0.119,-0.067l-0.114,-0.076l-0.108,-0.083l-0.102,-0.091l-0.096,-0.097l-0.089,-0.103l-0.082,-0.11l-0.074,-0.114l-0.067,-0.12l-0.058,-0.123l-0.049,-0.128l-0.04,-0.13l-0.032,-0.133l-0.022,-0.135l-0.013,-0.136l-0.004,-0.136l0.005,-0.137l0.015,-0.135l0.024,-0.135l0.033,-0.132l0.042,-0.13l0.051,-0.127l0.059,-0.123l0.068,-0.118l0.076,-0.114l0.083,-0.109l0.09,-0.102l0.097,-0.096l0.104,-0.089l0.109,-0.082l0.115,-0.074l0.119,-0.066l23.7,-12.1l0.124,-0.058l0.127,-0.05l0.131,-0.04l0.133,-0.032l0.134,-0.022l0.136,-0.013l0.137,-0.004l0.136,0.005Z" style="fill:#333;"/></g></svg>