<?xml version="1.0" encoding="UTF-8" standalone="no"?><!DOCTYPE svg PUBLIC "-//W3C//DTD SVG 1.1//EN" "http://www.w3.org/Graphics/SVG/1.1/DTD/svg11.dtd"><svg width="100%" height="100%" viewBox="0 0 116 123" version="1.1" xmlns="http://www.w3.org/2000/svg" xmlns:xlink="http://www.w3.org/1999/xlink" xml:space="preserve" style="fill-rule:evenodd;clip-rule:evenodd;stroke-linejoin:round;stroke-miterlimit:1.41421;">
  <g id="cluster-5">
    <path d="M36.8,108.4l-2.7,0c-1.6,0 -2.9,-1.3 -2.9,-2.9l0,-2.6c0,-1.6 -1.4,-3 -3,-3c-1.7,0 -3,1.4 -3,3l0,2.6c0,1.6 -1.3,2.9 -2.9,2.9l-2.5,0c-1.6,0 -3.1,1.2 -3.1,2.9c-0.1,1.7 1.3,3.1 3,3.1l2.6,0c1.6,0 2.9,1.3 2.9,2.9l0.1,2.6c0,1.6 1.4,3 3,3c1.7,0 3,-1.4 3,-3l-0.1,-2.7c0,-1.6 1.3,-2.9 2.9,-2.9l2.6,0c2,0 3.5,-2 2.8,-4.1c-0.3,-1.1 -1.5,-1.8 -2.7,-1.8Z" style="fill:#3818e5;fill-rule:nonzero;"/>
    <path d="M0.457,92.031c0.125,-2.702 2.42,-4.793 5.121,-4.668c2.702,0.125 4.793,2.42 4.668,5.121c-0.125,2.702 -2.42,4.793 -5.121,4.668c-2.701,-0.125 -4.793,-2.42 -4.668,-5.121Z" style="fill:#3818e5;"/>
    <path d="M96.047,18.63l0.244,0.059l0.235,0.089l0.221,0.118l0.206,0.145l0.185,0.169l0.163,0.191l0.138,0.211l0.11,0.225l0.081,0.238l0.05,0.246l0.02,0.25l-0.012,0.251l-0.044,0.248l-0.074,0.24l-0.104,0.228l-0.131,0.214l-55.9,79.3l-0.158,0.196l-0.18,0.175l-0.201,0.15l-0.219,0.124l-0.232,0.096l-0.242,0.066l-0.249,0.035l-0.251,0.004l-0.25,-0.028l-0.244,-0.059l-0.235,-0.089l-0.221,-0.118l-0.206,-0.145l-0.185,-0.169l-0.163,-0.191l-0.138,-0.211l-0.11,-0.225l-0.081,-0.238l-0.05,-0.246l-0.02,-0.25l0.012,-0.251l0.044,-0.248l0.074,-0.24l0.104,-0.228l0.131,-0.214l55.9,-79.3l0.158,-0.196l0.18,-0.175l0.201,-0.15l0.219,-0.124l0.232,-0.096l0.242,-0.066l0.249,-0.035l0.251,-0.004l0.25,0.028Z" style="fill:#3818e5;"/>
  </g>
</svg>
