<?xml version="1.0" encoding="UTF-8" standalone="no"?><!DOCTYPE svg PUBLIC "-//W3C//DTD SVG 1.1//EN" "http://www.w3.org/Graphics/SVG/1.1/DTD/svg11.dtd"><svg width="100%" height="100%" viewBox="0 0 157 175" version="1.1" xmlns="http://www.w3.org/2000/svg" xmlns:xlink="http://www.w3.org/1999/xlink" xml:space="preserve" style="fill-rule:evenodd;clip-rule:evenodd;stroke-linejoin:round;stroke-miterlimit:1.41421;"><g id="cluster.-1"><g><path d="M137.65,172.115c4.2,-3.2 6,-56.1 2.5,-63c-3.8,-7.6 -133,-7.4 -137,0c-3.5,6.4 -3.1,59.2 2.5,63c5.9,4.1 129.1,2.3 132,0Z" style="fill:#1cd2f2;fill-rule:nonzero;"/><path d="M72.75,174.515c60.6,-0.9 83.7,-1.3 83.7,-3.5c0,-2.1 -16.4,-7.8 -14.7,-28.3l-69,31.8Z" style="fill:#1cd2f2;fill-rule:nonzero;"/></g><g><circle cx="35.55" cy="140.015" r="6.3" style="fill:#fff;"/><circle cx="71.45" cy="140.015" r="6.3" style="fill:#fff;"/><circle cx="107.35" cy="140.015" r="6.3" style="fill:#fff;"/></g><path d="M65.405,22.532l0.268,0.053l0.258,0.089l0.243,0.124l0.225,0.155l0.201,0.185l0.174,0.21l0.144,0.232l0.111,0.25l35.8,98.1l0.075,0.262l0.04,0.27l0.002,0.273l-0.035,0.271l-0.071,0.263l-0.107,0.251l-0.14,0.235l-0.17,0.213l-0.198,0.188l-0.222,0.159l-0.241,0.128l-0.256,0.093l-0.267,0.058l-0.272,0.021l-0.273,-0.016l-0.267,-0.053l-0.258,-0.09l-0.244,-0.123l-0.224,-0.156l-0.201,-0.184l-0.174,-0.211l-0.144,-0.232l-0.111,-0.249l-35.8,-98.1l-0.076,-0.262l-0.039,-0.27l-0.003,-0.273l0.035,-0.271l0.072,-0.264l0.106,-0.251l0.14,-0.234l0.171,-0.214l0.198,-0.188l0.221,-0.159l0.242,-0.127l0.256,-0.094l0.267,-0.058l0.272,-0.021l0.272,0.017Z" style="fill:#333;"/><path d="M61.65,8.715l-2.7,0c-1.6,0 -2.9,-1.3 -2.9,-2.9l0,-2.6c0,-1.6 -1.4,-3 -3,-3c-1.7,0 -3,1.4 -3,3l0,2.6c0,1.6 -1.3,2.9 -2.9,2.9l-2.5,0c-1.6,0 -3.1,1.2 -3.1,2.9c-0.1,1.7 1.3,3.1 3,3.1l2.6,0c1.6,0 2.9,1.3 2.9,2.9l0.1,8.2c0,1.6 1.4,3 3,3c1.7,0 3,-1.4 3,-3l-0.1,-8.3c0,-1.6 1.3,-2.9 2.9,-2.9l2.6,0c2,0 3.5,-2 2.8,-4.1c-0.3,-1.1 -1.5,-1.8 -2.7,-1.8Z" style="fill:#171a21;fill-rule:nonzero;"/><circle cx="77.75" cy="13.615" r="4.9" style="fill:#171a21;"/></g></svg>