<?xml version="1.0" encoding="UTF-8" standalone="no"?><!DOCTYPE svg PUBLIC "-//W3C//DTD SVG 1.1//EN" "http://www.w3.org/Graphics/SVG/1.1/DTD/svg11.dtd"><svg width="100%" height="100%" viewBox="0 0 128 175" version="1.1" xmlns="http://www.w3.org/2000/svg" xmlns:xlink="http://www.w3.org/1999/xlink" xml:space="preserve" style="fill-rule:evenodd;clip-rule:evenodd;stroke-linejoin:round;stroke-miterlimit:1.41421;"><g id="cluster.-4"><path d="M69.3,8.634l-2.7,0c-1.6,0 -2.9,-1.3 -2.9,-2.9l0,-2.6c0,-1.6 -1.4,-3 -3,-3c-1.7,0 -3,1.4 -3,3l0,2.6c0,1.6 -1.3,2.9 -2.9,2.9l-2.5,0c-1.6,0 -3.1,1.2 -3.1,2.9c-0.1,1.7 1.3,3.1 3,3.1l2.6,0c1.6,0 2.9,1.3 2.9,2.9l0.1,2.6c0,1.6 1.4,3 3,3c1.7,0 3,-1.4 3,-3l-0.1,-2.7c0,-1.6 1.3,-2.9 2.9,-2.9l2.6,0c2,0 3.5,-2 2.8,-4.1c-0.3,-1.1 -1.5,-1.8 -2.7,-1.8Z" style="fill:#171a21;fill-rule:nonzero;"/><path d="M37.888,31.64c0.125,-2.702 2.42,-4.793 5.121,-4.668c2.702,0.125 4.793,2.42 4.668,5.121c-0.125,2.702 -2.42,4.793 -5.121,4.668c-2.701,-0.125 -4.793,-2.42 -4.668,-5.121Z" style="fill:#171a21;"/><path d="M9.89,133.18c0.125,-2.701 2.42,-4.793 5.121,-4.668c2.701,0.125 4.793,2.42 4.668,5.122c-0.125,2.701 -2.42,4.793 -5.121,4.668c-2.702,-0.126 -4.793,-2.42 -4.668,-5.122Z" style="fill:#171a21;"/><path d="M125,154.234l-2.7,0c-1.6,0 -2.9,-1.3 -2.9,-2.9l0,-2.6c0,-1.6 -1.4,-3 -3,-3c-1.7,0 -3,1.4 -3,3l0,2.6c0,1.6 -1.3,2.9 -2.9,2.9l-2.5,0c-1.6,0 -3.1,1.2 -3.1,2.9c-0.1,1.7 1.3,3.1 3,3.1l2.6,0c1.6,0 2.9,1.3 2.9,2.9l0.1,8.2c0,1.6 1.4,3 3,3c1.7,0 3,-1.4 3,-3l-0.1,-8.3c0,-1.6 1.3,-2.9 2.9,-2.9l2.6,0c2,0 3.5,-2 2.8,-4.1c-0.3,-1 -1.4,-1.8 -2.7,-1.8Z" style="fill:#171a21;fill-rule:nonzero;"/><path d="M56.122,45.06l0.266,0.062l0.255,0.098l0.239,0.132l0.219,0.163l0.195,0.191l0.166,0.216l0.136,0.237l45.7,93.9l0.103,0.253l0.067,0.264l0.03,0.272l-0.007,0.272l-0.044,0.27l-0.08,0.261l-0.115,0.247l-0.148,0.23l-0.177,0.207l-0.204,0.181l-0.227,0.152l-0.246,0.12l-0.259,0.085l-0.269,0.048l-0.272,0.012l-0.272,-0.025l-0.266,-0.063l-0.255,-0.097l-0.239,-0.132l-0.219,-0.163l-0.195,-0.191l-0.166,-0.216l-0.136,-0.237l-45.7,-93.9l-0.103,-0.253l-0.067,-0.265l-0.03,-0.271l0.007,-0.273l0.044,-0.269l0.08,-0.261l0.115,-0.248l0.148,-0.229l0.177,-0.208l0.204,-0.181l0.227,-0.152l0.246,-0.119l0.259,-0.085l0.269,-0.049l0.272,-0.012l0.272,0.026Z" style="fill:#333;"/><path d="M38.221,49.746l0.214,0.036l0.209,0.058l0.2,0.081l0.192,0.102l0.178,0.122l0.165,0.14l0.149,0.158l0.13,0.173l0.111,0.185l0.091,0.197l0.069,0.206l0.046,0.211l0.022,0.216l0,0.216l-0.024,0.215l-0.047,0.212l-17.3,61.7l-0.07,0.205l-0.091,0.196l-0.113,0.185l-0.131,0.172l-0.149,0.157l-0.166,0.14l-0.179,0.121l-0.192,0.101l-0.201,0.08l-0.209,0.057l-0.214,0.035l-0.216,0.011l-0.216,-0.012l-0.214,-0.036l-0.208,-0.059l-0.201,-0.08l-0.191,-0.102l-0.179,-0.122l-0.165,-0.141l-0.149,-0.157l-0.13,-0.173l-0.111,-0.186l-0.091,-0.197l-0.068,-0.205l-0.046,-0.212l-0.023,-0.215l0,-0.217l0.024,-0.215l0.047,-0.211l17.3,-61.7l0.07,-0.205l0.091,-0.196l0.113,-0.186l0.131,-0.172l0.149,-0.157l0.166,-0.139l0.179,-0.122l0.192,-0.1l0.201,-0.08l0.209,-0.058l0.214,-0.034l0.216,-0.011l0.216,0.012Z" style="fill:#333;"/></g></svg>