<?xml version="1.0" encoding="UTF-8" standalone="no"?><!DOCTYPE svg PUBLIC "-//W3C//DTD SVG 1.1//EN" "http://www.w3.org/Graphics/SVG/1.1/DTD/svg11.dtd"><svg width="100%" height="100%" viewBox="0 0 670 480" version="1.1" xmlns="http://www.w3.org/2000/svg" xmlns:xlink="http://www.w3.org/1999/xlink" xml:space="preserve" style="fill-rule:evenodd; clip-rule:evenodd; stroke-linecap:round; stroke-miterlimit:10;">
	<g id="connect">
		<g id="Satellite">
			<path d="M231.465,0.035c-1.5,0.7 -10,12.9 -20.1,28c-6.5,9.7 -13.5,20.6 -19.7,30.5c-9.5,15.2 -16.9,28.1 -17,30.8c0,1.3 13.7,10.5 32.6,22.5c9.1,-15.6 43.1,-72 56.9,-94.9c-18.1,-10.4 -31.5,-17.5 -32.7,-16.9Z" style="fill:#747e8d; fill-rule:nonzero;"/>
			<path d="M266.865,18.435c-0.9,-0.5 -1.8,-1.1 -2.8,-1.6c-13.9,22.9 -47.9,79.3 -56.9,94.9c0.7,0.5 1.4,0.9 2.2,1.4c10.6,6.7 22.6,14.2 34.8,21.6c11,-18.7 45.4,-75.8 57.5,-95.7c-12.1,-7.3 -24.2,-14.4 -34.8,-20.6Z" style="fill:#1cd2f2; fill-rule:nonzero;"/>
			<path d="M305.065,41.135c-1.1,-0.7 -2.3,-1.4 -3.4,-2.1c-12.1,20 -46.5,77 -57.5,95.7c1,0.6 2,1.2 2.9,1.8c11.4,6.9 22.6,13.7 32.7,19.7c13.1,-21.9 44.3,-72.5 58,-94.8c-10,-6.4 -21.3,-13.4 -32.7,-20.3Z" style="fill:#747e8d; fill-rule:nonzero;"/>
			<path d="M372.265,86.735c-0.5,-2.3 -12.6,-11 -29.6,-22.1c-1.6,-1 -3.2,-2.1 -4.9,-3.1c-13.7,22.3 -44.8,72.9 -58,94.8c1.8,1.1 3.6,2.1 5.3,3.1c17.7,10.4 30.5,17.7 31.3,17.4c1,-0.3 10.3,-13.4 21.1,-29.6c6.5,-9.8 13.6,-20.7 19.6,-30.6c9,-14.8 15.8,-27.1 15.2,-29.9Z" style="fill:#1cd2f2; fill-rule:nonzero;"/>
			<path d="M180.965,58.235l133.4,80.2" style="fill:none; stroke:#f6f7f8; stroke-width:2px;"/>
			<path d="M269.665,63.035l34,20.4" style="fill:none; stroke:#f6f7f8; stroke-width:2px;"/>
			<path d="M211.365,27.935l46.4,28" style="fill:none; stroke:#f6f7f8; stroke-width:2px;"/>
			<path d="M669.965,267.635c0,1.6 -6.9,14.8 -15.8,30.6c-5.7,10.2 -12.2,21.4 -18.2,31.5c-9.2,15.4 -17.3,27.9 -19.7,29.2c-1.1,0.6 -15.6,-7.4 -34.9,-18.8c9.7,-15.1 44.5,-71.1 58.6,-93.9c17.6,11.4 30,20.1 30,21.4Z" style="fill:#747e8d; fill-rule:nonzero;"/>
			<path d="M637.465,244.435c0.9,0.6 1.8,1.2 2.7,1.7c-14.1,22.8 -48.9,78.7 -58.6,93.9c-0.7,-0.4 -1.5,-0.9 -2.2,-1.3c-10.8,-6.4 -22.9,-13.7 -35,-21.1c11.7,-18.3 46.8,-74.9 59.1,-94.7c11.9,7.4 23.7,14.9 34,21.5Z" style="fill:#1cd2f2; fill-rule:nonzero;"/>
			<path d="M599.965,220.835c1.1,0.7 2.3,1.4 3.4,2.1c-12.3,19.8 -47.4,76.4 -59.1,94.7c-1,-0.6 -2,-1.2 -2.9,-1.8c-11.3,-7 -22.5,-13.9 -32.5,-20.2c13.5,-21.7 44.4,-72.4 58,-94.8c10.3,6.1 21.7,12.9 33.1,20Z" style="fill:#747e8d; fill-rule:nonzero;"/>
			<path d="M528.765,181.635c2.3,-0.6 15.6,6.2 33.1,16.4c1.6,0.9 3.3,1.9 5,2.9c-13.6,22.4 -44.5,73.1 -58,94.8c-1.8,-1.1 -3.5,-2.2 -5.2,-3.3c-17.3,-11 -29.6,-19.1 -29.8,-20c-0.2,-1.1 7.3,-15.3 16.8,-32.2c5.8,-10.3 12.3,-21.5 18.3,-31.4c9.1,-14.7 17,-26.4 19.8,-27.2Z" style="fill:#1cd2f2; fill-rule:nonzero;"/>
			<path d="M613.165,321.635l-66.8,-41.6" style="fill:none; stroke:#f6f7f8; stroke-width:2px;"/>
			<path d="M641.065,339.035l-18.3,-11.4" style="fill:none; stroke:#f6f7f8; stroke-width:2px;"/>
			<path d="M596.465,262.235l-60,-37.4" style="fill:none; stroke:#f6f7f8; stroke-width:2px;"/>
			<path d="M654.265,298.235l-46,-28.7" style="fill:none; stroke:#f6f7f8; stroke-width:2px;"/>
			<path d="M479.665,173.735c-1,-10.2 -4.6,-19.5 -10.1,-27.3c-5.2,-7.3 -12,-13.3 -19.9,-17.5c-9.3,-4.9 -20.1,-7.3 -31.3,-6.4c-0.2,0 -0.4,0 -0.5,0c-18.6,1.8 -34.2,12.3 -43.2,27c-6.1,10.1 -9.2,22.1 -8,34.8c0,0.3 0.1,0.5 0.1,0.8c1.4,13 7.2,24.6 15.7,33.4c9.9,10.2 23.6,16.6 38.5,17.2c2.5,0.1 5,0 7.6,-0.2c18.6,-1.8 34.2,-12.3 43.2,-27c6,-10.1 9.1,-22.2 7.9,-34.8Z" style="fill:#1cd2f2; fill-rule:nonzero;"/>
			<path d="M490.682,217.939l0.139,0.013l0.138,0.023l0.136,0.032l0.133,0.041l0.13,0.051l0.126,0.06l0.122,0.069l25.1,15.3l0.116,0.076l0.111,0.085l0.105,0.092l0.098,0.1l0.091,0.106l0.083,0.112l0.076,0.117l0.067,0.123l0.058,0.127l0.049,0.13l0.04,0.134l0.03,0.136l0.021,0.138l0.012,0.139l0.001,0.14l-0.008,0.139l-0.018,0.139l-0.027,0.137l-0.037,0.134l-0.047,0.132l-0.055,0.128l-0.064,0.124l-0.073,0.119l-0.081,0.114l-0.088,0.108l-0.096,0.102l-0.103,0.094l-0.109,0.087l-0.115,0.08l-0.12,0.071l-0.125,0.062l-0.128,0.054l-0.133,0.045l-0.135,0.035l-0.137,0.026l-0.139,0.016l-0.139,0.006l-0.14,-0.003l-0.139,-0.013l-0.137,-0.023l-0.136,-0.032l-0.133,-0.042l-0.13,-0.051l-0.127,-0.059l-0.121,-0.069l-25.1,-15.3l-0.117,-0.077l-0.111,-0.084l-0.104,-0.093l-0.099,-0.099l-0.09,-0.106l-0.084,-0.112l-0.075,-0.118l-0.067,-0.122l-0.058,-0.127l-0.049,-0.131l-0.04,-0.133l-0.031,-0.137l-0.021,-0.138l-0.011,-0.139l-0.002,-0.139l0.009,-0.14l0.017,-0.138l0.028,-0.137l0.037,-0.135l0.046,-0.131l0.056,-0.128l0.064,-0.124l0.072,-0.12l0.081,-0.113l0.089,-0.108l0.096,-0.102l0.102,-0.094l0.109,-0.088l0.115,-0.079l0.12,-0.071l0.125,-0.063l0.129,-0.053l0.132,-0.045l0.135,-0.035l0.138,-0.026l0.138,-0.016l0.14,-0.007l0.139,0.004Z" style="fill:#333;"/>
			<path d="M338.392,125.282l0.316,0.096l0.295,0.148l145,88.1l0.267,0.194l0.232,0.236l0.19,0.27l0.142,0.298l0.092,0.318l0.038,0.328l-0.017,0.33l-0.07,0.322l-0.123,0.307l-0.172,0.282l-0.215,0.251l-0.254,0.211l-0.285,0.167l-0.309,0.117l-0.324,0.065l-0.33,0.011l-0.327,-0.044l-0.316,-0.097l-0.296,-0.147l-145,-88.1l-0.267,-0.195l-0.231,-0.235l-0.19,-0.271l-0.143,-0.298l-0.091,-0.317l-0.038,-0.328l0.016,-0.33l0.071,-0.323l0.123,-0.306l0.171,-0.283l0.216,-0.25l0.254,-0.211l0.285,-0.167l0.309,-0.117l0.323,-0.065l0.331,-0.011l0.327,0.044Z" style="fill:#333;"/>
			<path d="M412.86,117.857l0.219,0.046l0.214,0.069l0.204,0.094l0.192,0.115l0.178,0.136l0.162,0.156l0.143,0.172l0.123,0.188l0.102,0.2l0.078,0.21l0.054,0.217l0.03,0.223l0.005,0.224l-0.013,0.359l-0.015,0.367l-0.018,0.372l-0.019,0.376l-0.021,0.379l-0.024,0.383l-0.026,0.388l-0.028,0.391l-0.03,0.395l-0.033,0.399l-0.036,0.402l-0.038,0.406l-0.04,0.41l-0.043,0.413l-0.046,0.417l-0.048,0.421l-0.052,0.424l-0.054,0.428l-0.057,0.431l-0.06,0.435l-0.063,0.438l-0.065,0.442l-0.069,0.445l-0.073,0.448l-0.075,0.451l-0.078,0.455l-0.082,0.458l-0.085,0.462l-0.089,0.464l-0.092,0.468l-0.095,0.47l-0.099,0.474l-0.103,0.477l-0.106,0.48l-0.11,0.483l-0.113,0.486l-0.118,0.488l-0.121,0.491l-0.062,0.248l-0.063,0.248l-0.064,0.248l-0.065,0.249l-0.066,0.25l-0.067,0.25l-0.068,0.251l-0.069,0.252l-0.07,0.253l-0.071,0.253l-0.073,0.254l-0.073,0.254l-0.074,0.255l-0.075,0.256l-0.077,0.257l-0.077,0.257l-0.079,0.258l-0.079,0.258l-0.081,0.259l-0.081,0.26l-0.083,0.261l-0.084,0.261l-0.085,0.261l-0.087,0.262l-0.087,0.263l-0.088,0.264l-0.09,0.264l-0.091,0.265l-0.091,0.265l-0.093,0.266l-0.095,0.267l-0.095,0.267l-0.096,0.268l-0.098,0.268l-0.099,0.269l-0.1,0.269l-0.101,0.27l-0.103,0.271l-0.104,0.271l-0.104,0.272l-0.107,0.272l-0.107,0.273l-0.109,0.274l-0.109,0.274l-0.111,0.274l-0.113,0.275l-0.113,0.276l-0.115,0.276l-0.116,0.277l-0.118,0.277l-0.119,0.277l-0.12,0.279l-0.121,0.278l-0.122,0.279l-0.124,0.28l-0.126,0.28l-0.126,0.281l-0.128,0.281l-0.129,0.282l-0.131,0.282l-0.132,0.283l-0.133,0.283l-0.135,0.283l-0.136,0.284l-0.137,0.285l-0.139,0.285l-0.14,0.285l-0.142,0.286l-0.143,0.286l-0.144,0.287l-0.146,0.287l-0.147,0.288l-0.148,0.288l-0.151,0.289l-0.151,0.288l-0.153,0.29l-0.154,0.29l-0.156,0.29l-0.157,0.29l-0.159,0.291l-0.16,0.291l-0.162,0.292l-0.163,0.292l-0.165,0.293l-0.166,0.293l-0.168,0.293l-0.169,0.294l-0.17,0.294l-0.173,0.294l-0.173,0.295l-0.176,0.295l-0.176,0.295l-0.179,0.296l-0.18,0.296l-0.181,0.297l-0.183,0.297l-0.185,0.297l-0.186,0.297l-0.188,0.298l-0.189,0.298l-0.191,0.299l-0.193,0.298l-0.194,0.3l-0.195,0.299l-0.198,0.3l-0.199,0.3l-0.201,0.3l-0.202,0.301l-0.204,0.3l-0.205,0.302l-0.208,0.301l-0.208,0.302l-0.211,0.302l-0.212,0.302l-0.214,0.302l-0.216,0.303l-0.217,0.303l-0.219,0.303l-0.221,0.304l-0.222,0.304l-0.224,0.304l-0.226,0.304l-0.228,0.304l-0.229,0.305l-0.231,0.305l-0.233,0.305l-0.235,0.305l-0.236,0.306l-0.238,0.306l-0.24,0.306l-0.242,0.306l-0.243,0.306l-0.245,0.307l-0.247,0.306l-0.249,0.307l-0.251,0.307l-0.252,0.308l-0.255,0.307l-0.256,0.308l-0.258,0.308l-0.26,0.308l-0.261,0.308l-0.264,0.308l-0.265,0.308l-0.267,0.309l-0.269,0.309l-0.271,0.308l-0.273,0.309l-0.275,0.309l-0.276,0.31l-0.279,0.309l-0.28,0.309l-0.283,0.31l-0.284,0.31l-0.286,0.309l-0.288,0.31l-0.29,0.31l-0.292,0.31l-0.294,0.311l-0.296,0.31l-0.298,0.31l-0.3,0.311l-0.302,0.31l-0.303,0.311l-0.306,0.31l-0.308,0.311l-0.31,0.311l-0.311,0.311l-0.314,0.31l-0.316,0.311l-0.318,0.311l-0.32,0.311l-0.322,0.311l-0.323,0.311l-0.326,0.312l-0.328,0.311l-0.33,0.311l-0.333,0.311l-0.334,0.311l-0.334,0.309l-0.173,0.143l-0.188,0.123l-0.2,0.101l-0.21,0.077l-0.218,0.054l-0.222,0.029l-0.225,0.004l-0.223,-0.021l-0.219,-0.047l-0.213,-0.07l-0.204,-0.094l-0.192,-0.116l-0.178,-0.136l-0.161,-0.156l-0.143,-0.173l-0.123,-0.188l-0.1,-0.2l-0.078,-0.211l-0.054,-0.217l-0.029,-0.223l-0.004,-0.224l0.022,-0.223l0.046,-0.22l0.07,-0.213l0.094,-0.204l0.116,-0.192l0.137,-0.177l0.155,-0.162l0.33,-0.305l0.325,-0.302l0.323,-0.303l0.321,-0.303l0.319,-0.302l0.317,-0.303l0.315,-0.302l0.313,-0.303l0.311,-0.302l0.309,-0.302l0.307,-0.303l0.305,-0.302l0.303,-0.301l0.301,-0.302l0.299,-0.302l0.296,-0.302l0.295,-0.301l0.293,-0.302l0.292,-0.301l0.289,-0.301l0.287,-0.301l0.285,-0.301l0.283,-0.301l0.282,-0.301l0.279,-0.3l0.278,-0.301l0.275,-0.3l0.274,-0.3l0.272,-0.3l0.27,-0.3l0.268,-0.3l0.266,-0.299l0.264,-0.299l0.263,-0.3l0.26,-0.299l0.259,-0.298l0.257,-0.299l0.255,-0.298l0.253,-0.299l0.252,-0.298l0.249,-0.297l0.248,-0.298l0.246,-0.298l0.244,-0.297l0.243,-0.297l0.24,-0.297l0.239,-0.296l0.237,-0.296l0.236,-0.297l0.233,-0.295l0.232,-0.296l0.23,-0.296l0.228,-0.295l0.227,-0.295l0.225,-0.294l0.223,-0.295l0.221,-0.294l0.22,-0.294l0.218,-0.294l0.216,-0.293l0.215,-0.293l0.213,-0.293l0.211,-0.292l0.21,-0.293l0.208,-0.292l0.206,-0.291l0.205,-0.292l0.203,-0.291l0.201,-0.291l0.2,-0.29l0.198,-0.29l0.196,-0.29l0.195,-0.29l0.194,-0.289l0.191,-0.289l0.19,-0.289l0.189,-0.288l0.187,-0.288l0.185,-0.288l0.184,-0.287l0.182,-0.287l0.181,-0.286l0.179,-0.287l0.178,-0.286l0.176,-0.285l0.174,-0.285l0.173,-0.285l0.172,-0.284l0.17,-0.284l0.168,-0.284l0.167,-0.283l0.166,-0.283l0.164,-0.283l0.162,-0.282l0.161,-0.282l0.16,-0.281l0.158,-0.281l0.157,-0.281l0.155,-0.28l0.154,-0.279l0.152,-0.28l0.151,-0.279l0.15,-0.278l0.148,-0.278l0.146,-0.278l0.146,-0.277l0.144,-0.277l0.142,-0.276l0.141,-0.276l0.14,-0.275l0.139,-0.275l0.137,-0.275l0.135,-0.274l0.135,-0.273l0.133,-0.273l0.131,-0.273l0.131,-0.272l0.129,-0.272l0.127,-0.271l0.127,-0.271l0.125,-0.27l0.123,-0.27l0.123,-0.269l0.121,-0.269l0.12,-0.268l0.119,-0.268l0.117,-0.267l0.116,-0.267l0.115,-0.266l0.114,-0.266l0.112,-0.265l0.111,-0.265l0.11,-0.264l0.109,-0.263l0.107,-0.263l0.106,-0.263l0.105,-0.262l0.104,-0.261l0.103,-0.261l0.101,-0.26l0.101,-0.26l0.099,-0.259l0.098,-0.259l0.096,-0.258l0.096,-0.258l0.094,-0.256l0.094,-0.257l0.092,-0.256l0.091,-0.255l0.09,-0.254l0.089,-0.254l0.087,-0.254l0.087,-0.252l0.086,-0.253l0.084,-0.251l0.083,-0.251l0.083,-0.25l0.081,-0.25l0.08,-0.249l0.079,-0.249l0.078,-0.247l0.077,-0.247l0.076,-0.247l0.075,-0.246l0.073,-0.245l0.073,-0.245l0.072,-0.244l0.071,-0.243l0.069,-0.243l0.069,-0.242l0.068,-0.241l0.067,-0.241l0.066,-0.24l0.064,-0.239l0.064,-0.239l0.063,-0.237l0.062,-0.238l0.061,-0.236l0.06,-0.236l0.059,-0.234l0.116,-0.47l0.112,-0.465l0.108,-0.462l0.104,-0.46l0.101,-0.457l0.098,-0.453l0.094,-0.451l0.091,-0.448l0.087,-0.444l0.084,-0.442l0.081,-0.438l0.078,-0.436l0.075,-0.432l0.071,-0.429l0.069,-0.426l0.065,-0.422l0.063,-0.419l0.059,-0.416l0.057,-0.413l0.054,-0.409l0.052,-0.406l0.048,-0.402l0.046,-0.399l0.044,-0.395l0.04,-0.392l0.039,-0.389l0.036,-0.384l0.033,-0.382l0.031,-0.377l0.029,-0.374l0.027,-0.37l0.024,-0.367l0.023,-0.362l0.02,-0.359l0.018,-0.355l0.016,-0.351l0.015,-0.348l0.012,-0.348l0.021,-0.224l0.045,-0.219l0.07,-0.213l0.093,-0.204l0.116,-0.193l0.136,-0.178l0.155,-0.162l0.173,-0.143l0.187,-0.123l0.2,-0.102l0.21,-0.078l0.218,-0.054l0.222,-0.03l0.225,-0.004l0.223,0.02Z" style="fill:#333;"/>
			<path d="M442.198,161.749l0.229,0.041l0.223,0.066l0.214,0.093l0.201,0.116l0.186,0.139l0.169,0.16l0.15,0.178l0.128,0.195l0.104,0.207l0.079,0.219l0.054,0.226l0.026,0.231l0,0.233l-0.027,0.231l-0.054,0.226l-0.079,0.219l-0.105,0.208l-0.128,0.194l-0.304,0.408l-0.302,0.408l-0.3,0.41l-0.301,0.413l-0.299,0.415l-0.299,0.418l-0.298,0.42l-0.297,0.423l-0.296,0.425l-0.296,0.428l-0.294,0.43l-0.294,0.433l-0.292,0.435l-0.292,0.438l-0.29,0.44l-0.289,0.443l-0.288,0.445l-0.287,0.447l-0.286,0.45l-0.285,0.453l-0.283,0.455l-0.281,0.457l-0.281,0.46l-0.279,0.462l-0.278,0.464l-0.276,0.467l-0.274,0.469l-0.273,0.472l-0.272,0.474l-0.27,0.477l-0.268,0.478l-0.266,0.482l-0.265,0.483l-0.263,0.486l-0.261,0.488l-0.259,0.491l-0.258,0.493l-0.255,0.495l-0.254,0.498l-0.251,0.5l-0.25,0.502l-0.247,0.505l-0.246,0.508l-0.121,0.253l-0.122,0.255l-0.12,0.256l-0.121,0.256l-0.119,0.256l-0.12,0.258l-0.118,0.257l-0.118,0.259l-0.117,0.259l-0.117,0.259l-0.117,0.26l-0.115,0.261l-0.115,0.261l-0.115,0.262l-0.114,0.262l-0.113,0.263l-0.113,0.264l-0.112,0.264l-0.111,0.264l-0.111,0.265l-0.11,0.266l-0.11,0.266l-0.109,0.267l-0.108,0.268l-0.108,0.268l-0.107,0.268l-0.106,0.269l-0.106,0.27l-0.105,0.27l-0.104,0.271l-0.104,0.272l-0.103,0.271l-0.102,0.273l-0.102,0.273l-0.101,0.273l-0.1,0.275l-0.1,0.274l-0.098,0.275l-0.099,0.276l-0.097,0.277l-0.097,0.277l-0.096,0.277l-0.095,0.278l-0.094,0.279l-0.094,0.279l-0.093,0.279l-0.093,0.281l-0.091,0.28l-0.091,0.282l-0.09,0.281l-0.089,0.283l-0.089,0.283l-0.088,0.283l-0.087,0.284l-0.086,0.285l-0.085,0.285l-0.085,0.286l-0.084,0.286l-0.083,0.287l-0.082,0.287l-0.082,0.288l-0.08,0.288l-0.08,0.289l-0.079,0.289l-0.078,0.29l-0.078,0.291l-0.076,0.291l-0.076,0.291l-0.075,0.293l-0.074,0.292l-0.073,0.294l-0.072,0.293l-0.071,0.295l-0.071,0.294l-0.069,0.296l-0.069,0.296l-0.068,0.296l-0.067,0.297l-0.066,0.297l-0.066,0.298l-0.064,0.299l-0.063,0.299l-0.063,0.3l-0.062,0.3l-0.06,0.3l-0.06,0.302l-0.059,0.301l-0.058,0.302l-0.057,0.303l-0.056,0.303l-0.055,0.304l-0.054,0.305l-0.053,0.305l-0.053,0.305l-0.051,0.306l-0.05,0.306l-0.05,0.307l-0.048,0.308l-0.047,0.308l-0.047,0.308l-0.045,0.309l-0.045,0.31l-0.043,0.31l-0.043,0.311l-0.041,0.311l-0.041,0.311l-0.039,0.313l-0.038,0.312l-0.038,0.313l-0.036,0.314l-0.035,0.314l-0.035,0.315l-0.033,0.315l-0.032,0.316l-0.031,0.316l-0.03,0.317l-0.029,0.318l-0.028,0.317l-0.027,0.319l-0.026,0.319l-0.025,0.319l-0.023,0.32l-0.023,0.32l-0.021,0.321l-0.021,0.322l-0.019,0.322l-0.018,0.322l-0.017,0.323l-0.016,0.324l-0.015,0.324l-0.014,0.324l-0.012,0.325l-0.012,0.326l-0.01,0.326l-0.009,0.326l-0.008,0.327l-0.007,0.328l-0.006,0.328l-0.004,0.328l-0.004,0.33l-0.002,0.329l-0.001,0.33l0,0.331l0.002,0.331l0.002,0.331l0.004,0.333l0.005,0.332l0.006,0.333l0.007,0.334l0.009,0.334l0.01,0.335l0.011,0.335l0.012,0.335l0.013,0.337l0.015,0.336l0.016,0.337l0.017,0.338l0.019,0.338l0.019,0.339l0.021,0.339l0.022,0.339l0.024,0.34l0.025,0.341l0.026,0.341l0.027,0.342l0.029,0.342l0.029,0.343l0.032,0.343l0.032,0.343l0.034,0.348l0.009,0.232l-0.017,0.232l-0.045,0.229l-0.071,0.221l-0.096,0.212l-0.12,0.199l-0.142,0.184l-0.163,0.166l-0.181,0.146l-0.197,0.125l-0.209,0.1l-0.22,0.076l-0.228,0.049l-0.231,0.023l-0.233,-0.005l-0.23,-0.031l-0.225,-0.058l-0.217,-0.083l-0.206,-0.108l-0.192,-0.132l-0.175,-0.153l-0.157,-0.172l-0.135,-0.189l-0.113,-0.203l-0.088,-0.216l-0.063,-0.224l-0.036,-0.229l-0.034,-0.355l-0.034,-0.358l-0.033,-0.358l-0.031,-0.357l-0.03,-0.356l-0.028,-0.356l-0.027,-0.356l-0.026,-0.355l-0.025,-0.355l-0.023,-0.354l-0.022,-0.353l-0.02,-0.353l-0.019,-0.353l-0.018,-0.352l-0.017,-0.351l-0.015,-0.351l-0.014,-0.351l-0.013,-0.35l-0.011,-0.349l-0.011,-0.349l-0.008,-0.349l-0.008,-0.348l-0.006,-0.347l-0.006,-0.347l-0.004,-0.347l-0.002,-0.346l-0.002,-0.345l0,-0.345l0.001,-0.344l0.003,-0.344l0.003,-0.344l0.005,-0.342l0.006,-0.343l0.007,-0.341l0.008,-0.342l0.01,-0.34l0.011,-0.341l0.011,-0.339l0.014,-0.339l0.014,-0.339l0.015,-0.338l0.017,-0.338l0.018,-0.337l0.019,-0.336l0.02,-0.336l0.021,-0.336l0.022,-0.334l0.024,-0.335l0.025,-0.334l0.025,-0.333l0.027,-0.333l0.028,-0.332l0.03,-0.332l0.03,-0.331l0.031,-0.33l0.033,-0.331l0.033,-0.329l0.035,-0.329l0.036,-0.329l0.037,-0.327l0.038,-0.328l0.039,-0.327l0.04,-0.326l0.041,-0.326l0.042,-0.325l0.043,-0.324l0.045,-0.324l0.045,-0.324l0.046,-0.323l0.048,-0.322l0.048,-0.322l0.05,-0.321l0.05,-0.321l0.052,-0.321l0.052,-0.319l0.054,-0.319l0.054,-0.319l0.056,-0.318l0.056,-0.317l0.058,-0.317l0.058,-0.316l0.059,-0.316l0.061,-0.315l0.061,-0.315l0.063,-0.314l0.063,-0.313l0.064,-0.313l0.065,-0.313l0.067,-0.312l0.067,-0.311l0.068,-0.31l0.069,-0.31l0.069,-0.31l0.071,-0.309l0.072,-0.308l0.073,-0.308l0.073,-0.307l0.074,-0.307l0.076,-0.306l0.076,-0.306l0.077,-0.305l0.078,-0.304l0.079,-0.304l0.079,-0.303l0.081,-0.303l0.081,-0.302l0.083,-0.301l0.083,-0.301l0.084,-0.3l0.085,-0.3l0.085,-0.299l0.087,-0.299l0.087,-0.298l0.088,-0.297l0.089,-0.297l0.09,-0.296l0.09,-0.296l0.092,-0.295l0.092,-0.295l0.093,-0.293l0.094,-0.294l0.094,-0.292l0.095,-0.293l0.096,-0.291l0.097,-0.291l0.098,-0.29l0.098,-0.29l0.099,-0.289l0.1,-0.289l0.101,-0.288l0.101,-0.287l0.102,-0.287l0.103,-0.286l0.103,-0.286l0.105,-0.285l0.105,-0.284l0.105,-0.284l0.107,-0.283l0.107,-0.283l0.107,-0.282l0.109,-0.281l0.109,-0.281l0.11,-0.28l0.11,-0.28l0.112,-0.279l0.111,-0.278l0.113,-0.278l0.113,-0.277l0.114,-0.277l0.114,-0.276l0.115,-0.275l0.116,-0.275l0.116,-0.274l0.117,-0.274l0.118,-0.273l0.118,-0.272l0.119,-0.272l0.119,-0.271l0.121,-0.27l0.12,-0.27l0.121,-0.269l0.122,-0.269l0.123,-0.268l0.123,-0.268l0.123,-0.266l0.124,-0.267l0.125,-0.265l0.125,-0.265l0.126,-0.264l0.127,-0.265l0.254,-0.525l0.256,-0.523l0.259,-0.52l0.26,-0.519l0.263,-0.515l0.265,-0.513l0.266,-0.511l0.269,-0.508l0.27,-0.506l0.273,-0.503l0.274,-0.501l0.276,-0.498l0.277,-0.495l0.279,-0.493l0.281,-0.491l0.283,-0.488l0.284,-0.485l0.285,-0.483l0.287,-0.48l0.289,-0.478l0.29,-0.475l0.291,-0.473l0.292,-0.47l0.294,-0.467l0.296,-0.465l0.296,-0.462l0.298,-0.46l0.298,-0.457l0.3,-0.455l0.301,-0.452l0.302,-0.449l0.303,-0.447l0.304,-0.444l0.305,-0.441l0.306,-0.439l0.306,-0.436l0.308,-0.434l0.308,-0.431l0.309,-0.428l0.309,-0.426l0.31,-0.423l0.311,-0.42l0.309,-0.415l0.15,-0.178l0.169,-0.16l0.187,-0.138l0.201,-0.117l0.214,-0.092l0.223,-0.066l0.229,-0.04l0.232,-0.014l0.232,0.014Z" style="fill:#333;"/>
			<path d="M466.423,136.436l0.091,0.005l0.09,0.009l0.09,0.013l0.09,0.017l0.088,0.021l0.088,0.025l0.086,0.029l0.085,0.033l0.083,0.037l0.082,0.04l0.079,0.044l0.078,0.048l0.075,0.052l0.073,0.054l0.07,0.058l0.068,0.061l0.065,0.064l0.061,0.067l0.059,0.07l0.055,0.072l0.052,0.075l0.049,0.077l0.045,0.079l0.041,0.081l0.038,0.083l0.034,0.084l0.03,0.086l0.026,0.088l0.022,0.088l0.018,0.089l0.014,0.09l0.01,0.091l0.005,0.091l0.002,0.091l-0.003,0.091l-0.007,0.091l-0.011,0.09l-0.015,0.09l-0.019,0.089l-0.023,0.088l-0.027,0.087l-0.031,0.085l-0.035,0.084l-0.038,0.083l-0.043,0.08l-0.046,0.079l-0.049,0.076l-0.053,0.075l-0.057,0.071l-0.059,0.069l-0.063,0.066l-0.065,0.063l-0.068,0.061l-0.29,0.243l-0.29,0.246l-0.293,0.25l-0.295,0.253l-0.299,0.258l-0.301,0.262l-0.304,0.266l-0.306,0.27l-0.309,0.273l-0.311,0.278l-0.314,0.282l-0.316,0.285l-0.318,0.29l-0.321,0.293l-0.323,0.297l-0.324,0.301l-0.327,0.305l-0.329,0.308l-0.331,0.313l-0.333,0.316l-0.335,0.319l-0.336,0.324l-0.338,0.327l-0.34,0.331l-0.342,0.334l-0.343,0.338l-0.344,0.342l-0.346,0.345l-0.348,0.349l-0.348,0.352l-0.351,0.356l-0.353,0.361l-0.065,0.064l-0.068,0.061l-0.071,0.057l-0.073,0.054l-0.075,0.051l-0.078,0.047l-0.08,0.044l-0.082,0.04l-0.083,0.036l-0.085,0.033l-0.087,0.028l-0.088,0.025l-0.088,0.02l-0.09,0.017l-0.09,0.012l-0.091,0.009l-0.091,0.004l-0.091,0l-0.091,-0.004l-0.09,-0.009l-0.091,-0.012l-0.089,-0.016l-0.089,-0.021l-0.087,-0.025l-0.087,-0.028l-0.085,-0.033l-0.084,-0.036l-0.081,-0.04l-0.08,-0.044l-0.078,-0.047l-0.076,-0.051l-0.073,-0.054l-0.07,-0.057l-0.068,-0.061l-0.065,-0.064l-0.063,-0.066l-0.059,-0.069l-0.055,-0.072l-0.053,-0.075l-0.049,-0.076l-0.046,-0.079l-0.041,-0.081l-0.039,-0.083l-0.034,-0.084l-0.03,-0.086l-0.027,-0.087l-0.023,-0.088l-0.018,-0.089l-0.015,-0.09l-0.01,-0.091l-0.006,-0.091l-0.002,-0.091l0.002,-0.091l0.006,-0.091l0.01,-0.09l0.015,-0.09l0.018,-0.089l0.023,-0.088l0.026,-0.087l0.031,-0.086l0.034,-0.084l0.039,-0.083l0.041,-0.081l0.046,-0.079l0.049,-0.077l0.053,-0.074l0.055,-0.072l0.059,-0.069l0.063,-0.067l0.357,-0.366l0.359,-0.365l0.358,-0.361l0.356,-0.357l0.355,-0.355l0.353,-0.35l0.352,-0.347l0.35,-0.343l0.349,-0.339l0.347,-0.336l0.346,-0.332l0.343,-0.328l0.342,-0.325l0.34,-0.32l0.338,-0.317l0.336,-0.313l0.334,-0.31l0.332,-0.305l0.33,-0.302l0.327,-0.298l0.325,-0.293l0.323,-0.29l0.321,-0.287l0.318,-0.282l0.316,-0.278l0.313,-0.274l0.311,-0.27l0.308,-0.267l0.306,-0.262l0.302,-0.258l0.3,-0.254l0.295,-0.248l0.071,-0.057l0.074,-0.054l0.075,-0.05l0.079,-0.047l0.08,-0.043l0.082,-0.04l0.083,-0.035l0.086,-0.032l0.086,-0.028l0.088,-0.024l0.089,-0.02l0.09,-0.016l0.09,-0.012l0.091,-0.008l0.091,-0.003l0.091,0Z" style="fill:#333;"/>
			<path d="M441.088,121.639l0.239,0.03l0.235,0.058l0.226,0.085l0.213,0.113l0.199,0.137l0.181,0.161l0.16,0.181l0.136,0.199l0.112,0.214l0.086,0.225l0.057,0.235l0.029,0.24l0,0.241l-0.029,0.24l-0.058,0.234l-0.086,0.226l-0.113,0.214l-46,75.9l-0.137,0.199l-0.161,0.18l-0.181,0.16l-0.198,0.137l-0.214,0.112l-0.226,0.085l-0.235,0.058l-0.24,0.029l-0.241,0l-0.24,-0.03l-0.234,-0.058l-0.226,-0.086l-0.214,-0.112l-0.198,-0.138l-0.181,-0.16l-0.16,-0.181l-0.137,-0.199l-0.112,-0.214l-0.085,-0.226l-0.058,-0.234l-0.029,-0.24l0.001,-0.242l0.029,-0.239l0.058,-0.235l0.086,-0.226l0.112,-0.213l46,-75.9l0.138,-0.199l0.16,-0.18l0.181,-0.16l0.199,-0.137l0.214,-0.112l0.226,-0.086l0.234,-0.057l0.24,-0.029l0.242,0Z" style="fill:#333;"/>
		</g>
		<g id="Alien">
			<path d="M111.165,446.611c-5.2,4.5 -5.7,12.4 -1.1,17.6c1.1,1.3 2.3,2.2 3.5,2.7c3.6,-7.4 8.4,-16.3 11.7,-21.9c-4.5,-2.4 -10.1,-2 -14.1,1.6Z" style="fill:#1cd2f2; fill-rule:nonzero;"/>
			<path d="M95.105,438.953c2.15,-2.803 6.17,-3.334 8.973,-1.184c2.803,2.149 3.333,6.17 1.184,8.973c-2.149,2.802 -6.17,3.333 -8.973,1.184c-2.803,-2.15 -3.333,-6.17 -1.184,-8.973Z" style="fill:#1cd2f2;"/>
			<path d="M124.765,463.211c5.2,-4.5 8.5,-10.3 4,-15.5c-1,-1.2 -2.2,-2.1 -3.5,-2.8c-3.4,5.6 -8.1,14.5 -11.7,21.9c3.5,1.6 7.3,-0.2 11.2,-3.6Z" style="fill:#4d4d4d; fill-rule:nonzero;"/>
			<g>
				<path d="M291.114,198.817l0.149,0.016l0.147,0.028l0.144,0.039l0.141,0.049l0.138,0.06l0.132,0.07l0.126,0.08l0.121,0.088l0.113,0.098l0.106,0.106l0.097,0.113l0.089,0.12l0.08,0.127l0.07,0.132l0.06,0.137l0.049,0.141l0.039,0.145l0.027,0.147l0.017,0.149l0.006,0.149l0,28.5l-0.006,0.149l-0.017,0.149l-0.027,0.147l-0.039,0.144l-0.049,0.142l-0.06,0.137l-0.07,0.132l-0.08,0.127l-0.089,0.12l-0.097,0.113l-0.106,0.106l-0.113,0.098l-0.121,0.088l-0.126,0.08l-0.132,0.07l-0.138,0.06l-0.141,0.049l-0.144,0.039l-0.147,0.028l-0.149,0.016l-0.149,0.006l-0.15,-0.006l-0.148,-0.016l-0.147,-0.028l-0.145,-0.039l-0.141,-0.049l-0.137,-0.06l-0.132,-0.07l-0.127,-0.08l-0.12,-0.088l-0.114,-0.098l-0.105,-0.106l-0.098,-0.113l-0.089,-0.12l-0.079,-0.127l-0.07,-0.132l-0.06,-0.137l-0.049,-0.142l-0.039,-0.144l-0.028,-0.147l-0.017,-0.149l-0.005,-0.149l0,-28.5l0.005,-0.149l0.017,-0.149l0.028,-0.147l0.039,-0.145l0.049,-0.141l0.06,-0.137l0.07,-0.132l0.079,-0.127l0.089,-0.12l0.098,-0.113l0.105,-0.106l0.114,-0.098l0.12,-0.088l0.127,-0.08l0.132,-0.07l0.137,-0.06l0.141,-0.049l0.145,-0.039l0.147,-0.028l0.148,-0.016l0.15,-0.006l0.149,0.006Z" style="fill:#1cd2f2;"/>
				<path d="M317.976,202.114l0.083,0.006l0.082,0.01l0.081,0.013l0.082,0.017l0.08,0.019l0.079,0.024l0.079,0.026l0.077,0.03l0.076,0.032l0.074,0.036l0.073,0.039l0.071,0.042l0.07,0.045l0.067,0.047l0.066,0.051l0.063,0.053l0.062,0.055l0.058,0.058l0.057,0.061l0.054,0.063l0.051,0.065l0.048,0.067l0.046,0.068l0.043,0.071l0.039,0.073l0.037,0.074l0.034,0.075l0.03,0.077l0.028,0.078l0.024,0.079l0.02,0.08l0.018,0.081l0.014,0.081l0.011,0.082l0.007,0.083l0.004,0.082l0.001,0.083l-0.003,0.083l-0.007,0.082l-0.009,0.082l-0.013,0.082l-0.017,0.081l-0.02,0.08l-0.023,0.079l-0.026,0.079l-0.03,0.077l-3.5,8.6l-0.032,0.076l-0.036,0.074l-0.039,0.073l-0.042,0.072l-0.045,0.069l-0.048,0.068l-0.05,0.065l-0.053,0.064l-0.056,0.061l-0.058,0.059l-0.06,0.056l-0.063,0.054l-0.065,0.051l-0.067,0.048l-0.069,0.046l-0.07,0.043l-0.073,0.04l-0.074,0.036l-0.075,0.034l-0.077,0.03l-0.078,0.028l-0.079,0.024l-0.08,0.021l-0.081,0.017l-0.082,0.014l-0.082,0.011l-0.082,0.007l-0.083,0.004l-0.082,0.001l-0.083,-0.003l-0.082,-0.006l-0.082,-0.01l-0.082,-0.013l-0.081,-0.017l-0.08,-0.02l-0.08,-0.023l-0.078,-0.026l-0.077,-0.03l-0.076,-0.032l-0.075,-0.036l-0.072,-0.039l-0.072,-0.042l-0.069,-0.045l-0.068,-0.047l-0.065,-0.051l-0.064,-0.053l-0.061,-0.055l-0.059,-0.058l-0.056,-0.061l-0.054,-0.063l-0.051,-0.065l-0.049,-0.067l-0.045,-0.068l-0.043,-0.071l-0.04,-0.073l-0.037,-0.074l-0.033,-0.075l-0.031,-0.077l-0.027,-0.078l-0.024,-0.079l-0.021,-0.08l-0.017,-0.081l-0.015,-0.081l-0.01,-0.082l-0.008,-0.083l-0.004,-0.082l0,-0.083l0.003,-0.083l0.006,-0.082l0.01,-0.082l0.013,-0.082l0.016,-0.081l0.02,-0.08l0.023,-0.079l0.027,-0.079l0.029,-0.077l3.5,-8.6l0.033,-0.076l0.036,-0.074l0.039,-0.073l0.042,-0.072l0.044,-0.069l0.048,-0.068l0.05,-0.065l0.053,-0.064l0.056,-0.061l0.058,-0.059l0.061,-0.056l0.062,-0.054l0.065,-0.051l0.067,-0.048l0.069,-0.046l0.071,-0.043l0.072,-0.04l0.074,-0.036l0.076,-0.034l0.077,-0.031l0.078,-0.027l0.079,-0.024l0.08,-0.021l0.081,-0.017l0.081,-0.014l0.082,-0.011l0.082,-0.007l0.083,-0.004l0.083,-0.001l0.082,0.003Z" style="fill:#1cd2f2;"/>
				<path d="M310.026,221.112l0.08,0.004l0.081,0.007l0.079,0.011l0.08,0.014l0.079,0.017l0.078,0.02l0.077,0.023l0.076,0.026l0.075,0.029l0.074,0.033l0.072,0.035l0.071,0.038l0.069,0.041l0.068,0.044l0.066,0.047l0.064,0.049l0.061,0.051l0.06,0.054l0.058,0.057l0.055,0.058l0.053,0.061l0.05,0.063l0.048,0.065l0.045,0.067l0.042,0.068l0.04,0.07l0.036,0.072l0.034,0.073l0.031,0.075l0.028,0.075l0.024,0.077l0.022,0.078l0.018,0.078l0.016,0.079l0.012,0.08l0.009,0.08l0.005,0.08l0.003,0.081l-0.001,0.08l-0.004,0.081l-0.008,0.08l-0.01,0.08l-0.014,0.079l-0.017,0.079l-0.02,0.078l-0.023,0.077l-0.026,0.076l-0.03,0.075l-3.4,8.2l-0.032,0.074l-0.035,0.072l-0.039,0.071l-0.041,0.069l-0.043,0.068l-0.047,0.066l-0.049,0.064l-0.051,0.062l-0.054,0.059l-0.057,0.058l-0.058,0.055l-0.061,0.053l-0.063,0.05l-0.065,0.048l-0.067,0.045l-0.068,0.042l-0.071,0.04l-0.071,0.036l-0.073,0.034l-0.075,0.031l-0.075,0.028l-0.077,0.025l-0.078,0.021l-0.078,0.019l-0.079,0.015l-0.08,0.012l-0.08,0.009l-0.08,0.005l-0.081,0.003l-0.08,-0.001l-0.081,-0.004l-0.08,-0.007l-0.08,-0.011l-0.079,-0.014l-0.079,-0.017l-0.078,-0.02l-0.077,-0.023l-0.076,-0.026l-0.075,-0.03l-0.074,-0.032l-0.072,-0.035l-0.071,-0.038l-0.07,-0.041l-0.067,-0.044l-0.066,-0.047l-0.064,-0.049l-0.062,-0.051l-0.06,-0.054l-0.057,-0.057l-0.055,-0.058l-0.053,-0.061l-0.05,-0.063l-0.048,-0.065l-0.045,-0.067l-0.042,-0.068l-0.04,-0.07l-0.037,-0.072l-0.033,-0.073l-0.031,-0.075l-0.028,-0.075l-0.025,-0.077l-0.021,-0.078l-0.019,-0.078l-0.015,-0.079l-0.012,-0.08l-0.009,-0.08l-0.006,-0.08l-0.002,-0.081l0.001,-0.08l0.004,-0.081l0.007,-0.08l0.011,-0.08l0.013,-0.079l0.017,-0.079l0.02,-0.078l0.024,-0.077l0.026,-0.076l0.029,-0.075l3.4,-8.2l0.033,-0.074l0.035,-0.072l0.038,-0.071l0.041,-0.069l0.044,-0.068l0.046,-0.066l0.049,-0.064l0.052,-0.062l0.054,-0.059l0.056,-0.058l0.059,-0.055l0.061,-0.053l0.063,-0.05l0.065,-0.048l0.066,-0.045l0.069,-0.042l0.07,-0.04l0.072,-0.037l0.073,-0.033l0.074,-0.031l0.076,-0.028l0.077,-0.025l0.077,-0.021l0.079,-0.019l0.079,-0.015l0.079,-0.012l0.081,-0.009l0.08,-0.006l0.08,-0.002l0.081,0.001Z" style="fill:#1cd2f2;"/>
				<path d="M333.484,224.315l0.106,0.009l0.105,0.015l0.105,0.02l0.103,0.026l0.102,0.031l0.1,0.037l0.098,0.042l0.095,0.047l0.093,0.052l0.09,0.057l0.087,0.062l0.083,0.066l0.08,0.071l0.076,0.075l0.071,0.079l0.068,0.082l0.063,0.086l0.058,0.089l0.053,0.092l0.049,0.095l0.043,0.097l0.038,0.1l0.033,0.101l0.028,0.103l0.021,0.104l0.017,0.105l0.01,0.106l0.005,0.106l0,0.107l-0.007,0.106l-0.012,0.106l-0.017,0.105l-0.023,0.104l-0.029,0.103l-0.034,0.1l-0.04,0.099l-0.044,0.097l-0.05,0.094l-0.055,0.092l-0.059,0.088l-0.064,0.085l-0.068,0.082l-0.073,0.077l-14.3,14.5l-0.077,0.074l-0.081,0.07l-0.084,0.065l-0.087,0.061l-0.091,0.056l-0.093,0.051l-0.096,0.045l-0.099,0.041l-0.1,0.036l-0.102,0.03l-0.104,0.024l-0.105,0.02l-0.105,0.013l-0.106,0.008l-0.107,0.002l-0.106,-0.004l-0.106,-0.009l-0.106,-0.015l-0.104,-0.02l-0.104,-0.026l-0.101,-0.031l-0.1,-0.037l-0.098,-0.042l-0.096,-0.047l-0.092,-0.052l-0.09,-0.057l-0.087,-0.062l-0.083,-0.067l-0.08,-0.07l-0.076,-0.075l-0.072,-0.079l-0.067,-0.082l-0.063,-0.086l-0.058,-0.089l-0.054,-0.092l-0.048,-0.095l-0.044,-0.097l-0.038,-0.1l-0.033,-0.101l-0.027,-0.103l-0.022,-0.104l-0.016,-0.105l-0.011,-0.106l-0.005,-0.107l0.001,-0.106l0.006,-0.106l0.012,-0.106l0.018,-0.105l0.023,-0.104l0.029,-0.103l0.034,-0.1l0.039,-0.099l0.045,-0.097l0.049,-0.094l0.055,-0.092l0.06,-0.088l0.064,-0.085l0.068,-0.082l0.073,-0.077l14.3,-14.5l0.077,-0.074l0.08,-0.07l0.084,-0.065l0.088,-0.061l0.09,-0.056l0.094,-0.051l0.096,-0.046l0.098,-0.04l0.101,-0.036l0.102,-0.03l0.103,-0.024l0.105,-0.02l0.106,-0.013l0.106,-0.008l0.107,-0.002l0.106,0.004Z" style="fill:#1cd2f2;"/>
				<path d="M268.564,212.213l0.118,0.01l0.118,0.016l0.116,0.024l0.115,0.03l0.112,0.037l0.111,0.043l0.107,0.05l0.104,0.056l0.101,0.063l0.097,0.068l0.093,0.074l0.088,0.079l0.084,0.084l0.078,0.089l0.073,0.094l0.067,0.097l0.061,0.102l0.055,0.105l0.049,0.108l7.5,18l0.042,0.11l0.036,0.113l0.029,0.115l0.022,0.117l0.015,0.117l0.008,0.119l0.001,0.118l-0.006,0.119l-0.012,0.117l-0.02,0.117l-0.027,0.116l-0.034,0.113l-0.04,0.112l-0.047,0.109l-0.053,0.106l-0.059,0.103l-0.065,0.098l-0.071,0.095l-0.077,0.091l-0.082,0.086l-0.086,0.081l-0.092,0.075l-0.095,0.07l-0.1,0.064l-0.103,0.059l-0.107,0.052l-0.109,0.045l-0.112,0.039l-0.114,0.032l-0.116,0.026l-0.117,0.019l-0.118,0.011l-0.118,0.005l-0.119,-0.002l-0.118,-0.01l-0.117,-0.016l-0.116,-0.024l-0.115,-0.03l-0.113,-0.037l-0.11,-0.043l-0.108,-0.05l-0.104,-0.056l-0.101,-0.063l-0.097,-0.068l-0.092,-0.074l-0.089,-0.079l-0.083,-0.084l-0.078,-0.089l-0.073,-0.094l-0.067,-0.097l-0.061,-0.102l-0.056,-0.105l-0.048,-0.108l-7.5,-18l-0.043,-0.111l-0.035,-0.113l-0.029,-0.114l-0.022,-0.117l-0.016,-0.118l-0.008,-0.118l-0.001,-0.118l0.006,-0.119l0.013,-0.118l0.02,-0.116l0.027,-0.116l0.033,-0.114l0.04,-0.111l0.047,-0.109l0.053,-0.106l0.06,-0.103l0.065,-0.098l0.071,-0.095l0.076,-0.091l0.082,-0.086l0.087,-0.081l0.091,-0.075l0.096,-0.07l0.099,-0.064l0.104,-0.059l0.106,-0.052l0.11,-0.045l0.112,-0.039l0.114,-0.033l0.115,-0.025l0.117,-0.019l0.118,-0.011l0.119,-0.005l0.118,0.002Z" style="fill:#1cd2f2;"/>
			</g>
			<g>
				<path d="M459.265,392.411c-7.3,28.2 -23.2,51.5 -54.9,54.3c-48.3,4.4 -102.2,-67.2 -122.4,-92.3l15.3,-25.2c19,20.1 58.6,66.3 84.1,56.9c7.5,-2.8 7.2,-18.8 -11.6,-30.9c-18.8,-12.1 -28.8,-27.6 -25.6,-51c3.2,-23.4 12.7,-27.5 14.2,-5c1.6,24.1 10.1,27.6 13.8,26c3.7,-1.6 -6.6,-32.7 6.1,-65.5c11.1,-28.8 25.7,-30.3 17.9,-2c-8.2,30.1 -1.9,37.5 3.3,39.2c2,0.7 9.2,-9.3 17,-9.6c9.2,-0.3 6.2,9.1 11.4,8.8c5.1,-0.3 5.5,-5.2 11.6,-4.1c6.8,1.3 4.1,7.5 9.5,7.3c5.4,-0.2 6.2,-5 12.5,-3.5c7.2,2 9.9,50 -2.2,96.6Z" style="fill:#5f45fc; fill-rule:nonzero;"/>
				<path d="M461.465,322.411c0.3,-2.4 0.5,-4.9 0.7,-7.7" style="fill:none; stroke:#fff; stroke-width:2px;"/>
				<path d="M414.765,342.711c6.4,2 7.9,-23 10.4,-22.8c3.4,0.3 6.8,32.4 10.8,32.6c8,0.3 5.6,-31.8 9.7,-30.6c3.7,1.1 -0.1,22 3.6,27.1c1.6,2.2 4.9,1.8 11.2,-19.5" style="fill:none; stroke:#fff; stroke-width:2px;"/>
				<path d="M409.065,324.711c0.8,4.6 1.2,8.6 1.8,11.7" style="fill:none; stroke:#fff; stroke-width:2px;"/>
				<path d="M406.065,312.311c0.8,2.5 1.5,4.9 2,7.2" style="fill:none; stroke:#fff; stroke-width:2px;"/>
			</g>
			<path d="M232.265,264.811c-64.5,-65.6 -80.8,-108.1 -113.8,-111.4c-33,-3.3 -47.1,14.2 -57.9,19.4c-6,2.9 -15.8,2.4 -26.7,-5.2c-22.2,-15.5 -17.7,1.3 -10.7,9.9c10,12.4 30.1,9.3 27.2,13.1c-2.9,3.8 -22.7,-1.1 -41,14.4c-13.2,11.2 -13.3,25.9 5.2,13.2c18.5,-12.7 36.2,-11.7 36.9,-11c0.7,0.7 -17.1,7.8 -28.2,22.8c-9.5,12.8 -10.8,26.1 -6.2,28.4c3.9,2 11.8,-12.9 20.8,-21.6c12.4,-12.1 22.5,-17.6 23.8,-16.1c1.3,1.5 -12.5,15 -18.6,28.7c-5.1,11.6 -6.2,24.4 -1.4,28.7c4.7,4.3 11.5,-16.3 16.6,-24.8c5.7,-9.6 23.1,-37 34.9,-29.8c11.5,7.1 0.5,14.9 -4.8,22.7c-5.3,7.7 -4,19.3 3.4,21.9c7.1,2.5 29.2,-73.2 58.2,-45.4c33.8,32.4 56.5,55 64.7,63.2c12.8,-17.6 16.9,-22.2 16.9,-22.2l0.7,1.1Z" style="fill:#5f45fc; fill-rule:nonzero;"/>
			<path d="M97.015,423.212c1.579,-2.058 4.532,-2.448 6.59,-0.869c2.058,1.578 2.448,4.531 0.869,6.589c-1.578,2.058 -4.531,2.448 -6.589,0.87c-2.058,-1.579 -2.448,-4.531 -0.87,-6.59Z" style="fill:#1cd2f2;"/>
			<path d="M114.165,325.911c-3.2,-6.1 -10.8,-8.4 -16.9,-5.1c-5.3,2.8 -7.7,9 -6.1,14.5c8,-2.6 17,-5.2 23.9,-6.9c-0.1,-0.8 -0.5,-1.7 -0.9,-2.5Z" style="fill:#1cd2f2; fill-rule:nonzero;"/>
			<path d="M101.635,302.109c3.163,-1.571 7.008,-0.279 8.579,2.885c1.572,3.163 0.279,7.007 -2.884,8.579c-3.164,1.571 -7.008,0.279 -8.58,-2.885c-1.571,-3.163 -0.279,-7.007 2.885,-8.579Z" style="fill:#1cd2f2;"/>
			<path d="M110.375,288.694c2.324,-1.154 5.147,-0.205 6.301,2.118c1.154,2.323 0.205,5.146 -2.118,6.3c-2.324,1.154 -5.147,0.205 -6.301,-2.118c-1.154,-2.323 -0.205,-5.146 2.118,-6.3Z" style="fill:#1cd2f2;"/>
			<path d="M162.965,360.211c-7.2,9.6 -13.2,14.3 -18.5,7.8c-9.1,-11.2 -14.2,-39.2 -18.9,-41c-1.2,-0.5 -5.2,0.2 -10.5,1.4c1.2,4.9 -1.8,9 -7,11.8c-6.1,3.2 -12.7,3.5 -15.9,-2.6c-0.4,-0.8 -0.7,-1.5 -1,-2.3c-9.5,3.1 -17.4,5.9 -17.9,6.7c-1.4,2 39.2,3.1 41.7,6.6c2.5,3.6 9.2,58.7 23.4,65.6c8.4,4.1 31.2,-12.6 48.5,-28.6c-3.7,-15.3 -17.1,-22.6 -23.9,-25.4Z" style="fill:#4d4d4d; fill-rule:nonzero;"/>
			<path d="M108.065,340.211c5.2,-2.8 8.3,-6.8 7,-11.8c-6.9,1.6 -16,4.3 -23.9,6.9c0.2,0.8 0.6,1.6 1,2.3c3.2,6.1 9.9,5.8 15.9,2.6Z" style="fill:#4d4d4d;fill-rule:nonzero;"/>
			<path d="M202.865,406.211c-9,11.5 -19.3,23.8 -22.9,25.1c-12.4,4.5 -48.5,6.7 -50.9,7.9c-0.5,0.3 -2,2.5 -3.9,5.7c1.3,0.7 2.5,1.6 3.5,2.8c4.5,5.2 1.2,11 -4,15.5c-3.9,3.4 -7.7,5.2 -11.3,3.6c-3.3,6.7 -5.6,12.065 -5.1,12.965c1.3,2.4 28.3,-24.265 32.4,-24.565c4.1,-0.4 51.5,17.9 60.6,13c3.1,-1.7 15.8,-18.1 30.9,-39.1c-6.5,-13.3 -21.8,-20.2 -29.3,-22.9Z" style="fill:#4d4d4d;fill-rule:nonzero;"/>
			<path d="M279.165,311.311c-11.6,19.1 -2.1,37.2 2.8,43.1c9.1,-14.2 15.6,-24.7 15.3,-25.2l-18.1,-17.9Z" style="fill:#4d4d4d; fill-rule:nonzero;"/>
			<path d="M232.265,264.811l-1,-0.9c0,0 -4.1,4.6 -16.9,22.2c2.2,2.2 3.4,3.4 3.4,3.4l14.5,-24.7Z" style="fill:#c5d3e7; fill-rule:nonzero;"/>
			<path d="M249.865,299.511c-4.4,-4.2 -8.9,-8.3 -13.3,-11.9c-0.6,-0.5 -1.4,-0.4 -1.8,0.2c-7.4,9.9 -17.6,24.2 -36,50.9c-0.4,0.5 -0.3,1.2 0.2,1.7l13.4,12.2c0.6,0.5 1.4,0.4 1.9,-0.2l35.8,-51.1c0.3,-0.7 0.2,-1.4 -0.2,-1.8Z" style="fill:#5f45fc; fill-rule:nonzero;"/>
			<path d="M244.665,332.611c-0.8,-0.8 -2.1,-0.7 -2.7,0.3l-19,27.1c-0.5,0.7 -0.4,1.8 0.3,2.4l23.3,21.2c0.8,0.7 2.1,0.6 2.7,-0.3c6.8,-9.9 12.6,-18.6 17.5,-26.1c0.5,-0.7 0.4,-1.6 -0.2,-2.2c-7.1,-7.8 -16,-16.7 -21.9,-22.4Z" style="fill:#1cd2f2; fill-rule:nonzero;"/>
			<path d="M279.165,311.311l-47,-46.6l-14.3,24.8c0,0 -1.2,-1.2 -3.4,-3.4c-7.7,10.6 -18.6,25.9 -33.6,47.8c-6.7,9.8 -12.6,19.4 -17.9,26.3c6.8,2.8 20.2,10.1 24,25.4c5.9,-5.4 11.1,-10.7 15,-15.1l16.5,15.1c0,0 -7.2,9.9 -15.5,20.5c7.5,2.7 22.7,9.6 29.3,23c11.1,-15.4 34.3,-50.5 49.8,-74.7c-4.9,-5.9 -14.4,-24 -2.9,-43.1Zm-65,41c-0.4,0.6 -1.3,0.7 -1.9,0.2l-13.4,-12.2c-0.5,-0.4 -0.5,-1.1 -0.2,-1.7c18.4,-26.7 28.7,-41 36,-50.9c0.4,-0.6 1.3,-0.7 1.8,-0.2c4.4,3.6 8.8,7.7 13.3,11.9c0.5,0.4 0.5,1.1 0.2,1.6l-35.8,51.3Zm52.5,4.7c-4.9,7.5 -10.7,16.2 -17.5,26.1c-0.6,0.9 -1.9,1.1 -2.7,0.3l-23.3,-21.2c-0.7,-0.6 -0.8,-1.6 -0.3,-2.4l19,-27.1c0.6,-0.9 1.9,-1 2.7,-0.3c5.9,5.8 14.8,14.6 21.9,22.3c0.6,0.8 0.7,1.6 0.2,2.3Z" style="fill:#c5d3e7; fill-rule:nonzero;"/>
			<path d="M310.365,254.411c-6.3,-11.8 -21,-16.3 -32.8,-10c-11.8,6.3 -16.3,21 -10,32.8c1.6,2.9 3.7,5.4 6.1,7.4c-5.2,7.4 -9.6,12.6 -9.6,12.7c-1.4,1.7 -1.2,4.2 0.5,5.6c0.8,0.6 1.7,0.9 2.6,0.9c1.1,0 2.3,-0.5 3.1,-1.4c0.3,-0.4 5.1,-6 10.5,-13.9c6.2,2.3 13.4,2 19.7,-1.4c11.7,-6.2 16.2,-20.9 9.9,-32.7Z" style="fill:#4d4d4d; fill-rule:nonzero;"/>
			<path d="M278.465,266.611c0.2,-5.7 5.1,-10.2 10.8,-10c5.7,0.2 10.2,5.1 10,10.8" style="fill:none; stroke:#f6f7f8; stroke-width:2px;"/>
		</g>
	</g>
</svg>