<?xml version="1.0" encoding="UTF-8" standalone="no"?><!DOCTYPE svg PUBLIC "-//W3C//DTD SVG 1.1//EN" "http://www.w3.org/Graphics/SVG/1.1/DTD/svg11.dtd"><svg width="100%" height="100%" viewBox="0 0 715 515" version="1.1" xmlns="http://www.w3.org/2000/svg" xmlns:xlink="http://www.w3.org/1999/xlink" xml:space="preserve" style="fill-rule:evenodd;clip-rule:evenodd;stroke-linecap:round;stroke-miterlimit:10;"><g id="create"><g id="Light-Bulb"><path d="M183.919,294.3c6.8,-8 10.3,-15.1 12.4,-22.8c1.8,-5.8 2.8,-12 3,-18.5c0.6,-36.5 -28.5,-66.6 -64.999,-67.2c-36.5,-0.6 -66.6,28.5 -67.2,65c-0.3,19.2 3.6,33.1 30,61.2c17.1,18.2 9.5,28.9 9.8,50c0.1,4.6 34.2,7 35,2.7c3.8,-20.8 -2.2,-32.6 17.399,-47.9c10.5,-8.2 18.1,-15.2 23.7,-21.5c0.3,-0.3 0.6,-0.6 0.9,-1Z" style="fill:#ffffff;fill-rule:nonzero;"/><path d="M136.203,209.851l0.137,0.004l0.137,0.007l0.138,0.009l0.137,0.011l0.136,0.014l0.136,0.016l0.135,0.018l0.135,0.021l0.135,0.023l0.133,0.025l0.133,0.027l0.132,0.03l0.132,0.031l0.131,0.035l0.131,0.036l0.129,0.038l0.128,0.04l0.129,0.043l0.128,0.045l0.127,0.047l0.124,0.048l0.125,0.051l0.125,0.053l0.122,0.055l0.123,0.057l0.121,0.058l0.12,0.061l0.12,0.063l0.118,0.063l0.118,0.066l0.117,0.068l0.115,0.069l0.115,0.072l0.114,0.073l0.113,0.074l0.112,0.077l0.111,0.077l0.11,0.08l0.109,0.081l0.108,0.082l0.107,0.085l0.107,0.085l0.105,0.087l0.104,0.089l0.104,0.09l0.103,0.092l0.101,0.092l0.101,0.094l0.1,0.096l0.1,0.098l0.098,0.098l0.097,0.1l0.097,0.101l0.095,0.102l0.095,0.104l0.094,0.105l0.094,0.106l0.092,0.108l0.092,0.109l0.091,0.11l0.09,0.111l0.089,0.112l0.089,0.114l0.088,0.115l0.087,0.116l0.086,0.118l0.086,0.118l0.085,0.119l0.084,0.122l0.084,0.121l0.082,0.123l0.082,0.124l0.082,0.126l0.081,0.126l0.079,0.128l0.08,0.129l0.079,0.13l0.078,0.13l0.077,0.132l0.077,0.133l0.076,0.134l0.076,0.136l0.075,0.136l0.074,0.137l0.073,0.139l0.073,0.139l0.073,0.14l0.071,0.142l0.072,0.143l0.07,0.143l0.07,0.145l0.07,0.146l0.068,0.146l0.069,0.148l0.067,0.148l0.067,0.15l0.067,0.15l0.066,0.152l0.065,0.153l0.065,0.153l0.064,0.155l0.064,0.155l0.063,0.157l0.062,0.157l0.062,0.158l0.062,0.159l0.061,0.161l0.06,0.161l0.06,0.162l0.059,0.163l0.059,0.164l0.058,0.165l0.057,0.165l0.058,0.169l0.112,0.333l0.111,0.34l0.108,0.343l0.106,0.346l0.104,0.349l0.102,0.353l0.1,0.357l0.098,0.359l0.096,0.363l0.094,0.366l0.092,0.369l0.089,0.372l0.088,0.375l0.085,0.378l0.084,0.381l0.082,0.384l0.079,0.386l0.078,0.39l0.075,0.392l0.073,0.395l0.072,0.397l0.069,0.4l0.067,0.403l0.066,0.405l0.063,0.408l0.061,0.41l0.06,0.412l0.057,0.415l0.055,0.417l0.053,0.419l0.052,0.421l0.049,0.423l0.047,0.426l0.045,0.427l0.043,0.429l0.041,0.431l0.039,0.433l0.037,0.435l0.035,0.437l0.033,0.438l0.031,0.44l0.029,0.441l0.027,0.443l0.025,0.445l0.022,0.446l0.021,0.447l0.019,0.448l0.016,0.45l0.015,0.451l0.013,0.453l0.01,0.453l0.008,0.454l0.007,0.456l0.004,0.456l0.002,0.458l0,0.458l-0.002,0.459l-0.004,0.46l-0.006,0.46l-0.008,0.461l-0.01,0.462l-0.013,0.462l-0.014,0.463l-0.017,0.463l-0.019,0.464l-0.02,0.464l-0.023,0.464l-0.025,0.464l-0.028,0.465l-0.029,0.464l-0.031,0.465l-0.034,0.465l-0.035,0.465l-0.038,0.465l-0.04,0.464l-0.042,0.465l-0.044,0.464l-0.047,0.464l-0.048,0.463l-0.051,0.463l-0.053,0.463l-0.055,0.462l-0.057,0.462l-0.059,0.461l-0.062,0.46l-0.064,0.459l-0.066,0.459l-0.068,0.458l-0.06,0.393l0.004,0.003l0.201,0.128l0.201,0.126l0.203,0.126l0.204,0.124l0.205,0.123l0.206,0.122l0.208,0.12l0.209,0.12l0.21,0.118l0.211,0.117l0.212,0.116l0.214,0.114l0.215,0.114l0.216,0.112l0.218,0.111l0.218,0.109l0.22,0.109l0.222,0.107l0.222,0.105l0.224,0.105l0.225,0.103l0.226,0.102l0.227,0.101l0.229,0.099l0.231,0.098l0.231,0.096l0.232,0.095l0.234,0.094l0.236,0.093l0.236,0.091l0.238,0.089l0.239,0.088l0.24,0.087l0.242,0.086l0.243,0.084l0.245,0.082l0.245,0.081l0.247,0.08l0.249,0.078l0.249,0.076l0.251,0.075l0.253,0.074l0.253,0.072l0.256,0.071l0.256,0.069l0.257,0.067l0.26,0.066l0.26,0.065l0.262,0.062l0.263,0.062l0.265,0.059l0.265,0.058l0.268,0.057l0.268,0.055l0.271,0.053l0.271,0.051l0.273,0.05l0.274,0.048l0.275,0.047l0.278,0.045l0.278,0.043l0.28,0.041l0.281,0.04l0.283,0.038l0.284,0.036l0.286,0.035l0.286,0.032l0.289,0.031l0.29,0.03l0.291,0.027l0.293,0.026l0.294,0.023l0.296,0.022l0.297,0.02l0.298,0.019l0.3,0.016l0.302,0.015l0.303,0.013l0.304,0.01l0.306,0.009l0.307,0.007l0.308,0.005l0.311,0.003l0.312,0.002l0.313,-0.001l0.315,-0.003l0.315,-0.005l0.318,-0.006l0.32,-0.009l0.32,-0.011l0.322,-0.012l0.324,-0.015l0.325,-0.017l0.327,-0.019l0.328,-0.021l0.33,-0.023l0.331,-0.025l0.333,-0.027l0.334,-0.029l0.336,-0.031l0.337,-0.034l0.339,-0.036l0.341,-0.037l0.342,-0.04l0.343,-0.043l0.345,-0.044l0.347,-0.046l0.348,-0.049l0.35,-0.051l0.351,-0.053l0.353,-0.056l0.354,-0.057l0.356,-0.06l0.357,-0.063l0.359,-0.064l0.361,-0.067l0.362,-0.069l0.364,-0.071l0.365,-0.074l0.367,-0.076l0.368,-0.079l0.37,-0.081l0.372,-0.083l0.373,-0.085l0.374,-0.088l0.377,-0.091l0.378,-0.093l0.379,-0.095l0.381,-0.097l0.383,-0.101l0.384,-0.102l0.386,-0.105l0.387,-0.108l0.389,-0.11l0.391,-0.112l0.392,-0.115l0.394,-0.118l0.395,-0.12l0.397,-0.123l0.4,-0.125l0.4,-0.128l0.401,-0.13l0.404,-0.133l0.405,-0.136l0.407,-0.138l0.408,-0.141l0.41,-0.143l0.412,-0.146l0.413,-0.149l0.415,-0.152l0.416,-0.154l0.418,-0.156l0.42,-0.16l0.421,-0.162l0.423,-0.165l0.425,-0.168l0.426,-0.17l0.428,-0.173l0.429,-0.176l0.432,-0.179l0.433,-0.181l0.434,-0.185l0.436,-0.187l0.438,-0.19l0.439,-0.192l0.441,-0.196l0.443,-0.198l0.444,-0.201l0.446,-0.205l0.448,-0.207l0.449,-0.21l0.451,-0.212l0.453,-0.216l0.454,-0.219l0.456,-0.221l0.458,-0.225l0.459,-0.227l0.461,-0.231l0.463,-0.233l0.464,-0.237l0.466,-0.239l0.468,-0.243l0.469,-0.245l0.471,-0.248l0.472,-0.252l0.475,-0.254l0.476,-0.258l0.478,-0.261l0.479,-0.263l0.481,-0.267l0.483,-0.27l0.484,-0.273l0.486,-0.276l0.488,-0.28l0.49,-0.282l0.491,-0.286l0.493,-0.289l0.495,-0.291l0.496,-0.296l0.498,-0.298l0.5,-0.301l0.501,-0.305l0.504,-0.308l0.504,-0.311l0.509,-0.316l0.294,-0.151l0.315,-0.1l0.327,-0.046l0.33,0.007l0.325,0.062l0.31,0.114l0.286,0.164l0.256,0.209l0.218,0.248l0.175,0.281l0.125,0.305l0.074,0.322l0.02,0.33l-0.035,0.329l-0.089,0.318l-0.139,0.299l-0.187,0.272l-0.23,0.238l-0.265,0.197l-0.514,0.32l-0.516,0.317l-0.514,0.315l-0.512,0.311l-0.511,0.308l-0.509,0.305l-0.507,0.302l-0.506,0.299l-0.505,0.295l-0.502,0.292l-0.501,0.289l-0.5,0.286l-0.498,0.283l-0.496,0.28l-0.495,0.276l-0.493,0.274l-0.491,0.27l-0.49,0.268l-0.489,0.264l-0.486,0.261l-0.486,0.258l-0.483,0.255l-0.482,0.252l-0.481,0.249l-0.478,0.247l-0.478,0.243l-0.476,0.24l-0.474,0.237l-0.473,0.234l-0.471,0.231l-0.469,0.228l-0.468,0.225l-0.467,0.223l-0.465,0.219l-0.463,0.217l-0.462,0.213l-0.46,0.211l-0.459,0.208l-0.457,0.205l-0.456,0.202l-0.454,0.199l-0.453,0.196l-0.451,0.194l-0.449,0.19l-0.448,0.188l-0.447,0.185l-0.445,0.183l-0.443,0.179l-0.442,0.177l-0.441,0.174l-0.439,0.171l-0.437,0.168l-0.436,0.166l-0.435,0.163l-0.433,0.16l-0.431,0.157l-0.43,0.155l-0.428,0.152l-0.427,0.15l-0.426,0.147l-0.424,0.144l-0.422,0.141l-0.421,0.139l-0.42,0.136l-0.418,0.133l-0.416,0.131l-0.416,0.129l-0.414,0.125l-0.412,0.123l-0.41,0.121l-0.409,0.118l-0.408,0.115l-0.407,0.113l-0.405,0.11l-0.403,0.108l-0.402,0.105l-0.401,0.103l-0.399,0.1l-0.397,0.097l-0.396,0.095l-0.395,0.093l-0.393,0.09l-0.392,0.088l-0.391,0.085l-0.388,0.083l-0.388,0.08l-0.386,0.078l-0.385,0.076l-0.383,0.073l-0.382,0.071l-0.38,0.068l-0.379,0.066l-0.377,0.064l-0.377,0.061l-0.374,0.059l-0.373,0.056l-0.372,0.055l-0.371,0.051l-0.369,0.05l-0.367,0.047l-0.366,0.045l-0.365,0.043l-0.363,0.04l-0.362,0.038l-0.361,0.036l-0.359,0.034l-0.358,0.031l-0.356,0.029l-0.355,0.027l-0.354,0.025l-0.352,0.022l-0.351,0.02l-0.349,0.018l-0.347,0.016l-0.347,0.014l-0.346,0.011l-0.343,0.01l-0.342,0.007l-0.342,0.005l-0.339,0.003l-0.339,0.001l-0.336,-0.002l-0.335,-0.003l-0.334,-0.006l-0.333,-0.007l-0.331,-0.01l-0.331,-0.011l-0.328,-0.014l-0.327,-0.016l-0.326,-0.018l-0.324,-0.02l-0.323,-0.022l-0.321,-0.024l-0.32,-0.025l-0.32,-0.028l-0.317,-0.03l-0.316,-0.032l-0.315,-0.034l-0.313,-0.036l-0.312,-0.037l-0.311,-0.04l-0.309,-0.042l-0.307,-0.043l-0.307,-0.045l-0.305,-0.048l-0.303,-0.049l-0.303,-0.051l-0.301,-0.053l-0.3,-0.054l-0.298,-0.057l-0.297,-0.058l-0.295,-0.061l-0.294,-0.062l-0.293,-0.064l-0.291,-0.065l-0.29,-0.068l-0.289,-0.069l-0.287,-0.071l-0.285,-0.073l-0.285,-0.074l-0.283,-0.077l-0.282,-0.077l-0.28,-0.08l-0.279,-0.081l-0.278,-0.084l-0.276,-0.084l-0.275,-0.087l-0.273,-0.088l-0.273,-0.09l-0.27,-0.091l-0.27,-0.093l-0.268,-0.095l-0.266,-0.096l-0.266,-0.098l-0.263,-0.099l-0.263,-0.101l-0.261,-0.103l-0.26,-0.104l-0.258,-0.106l-0.258,-0.107l-0.255,-0.109l-0.254,-0.11l-0.254,-0.112l-0.251,-0.113l-0.25,-0.115l-0.249,-0.116l-0.248,-0.118l-0.246,-0.119l-0.244,-0.12l-0.244,-0.123l-0.242,-0.123l-0.241,-0.125l-0.239,-0.126l-0.238,-0.127l-0.237,-0.13l-0.235,-0.13l-0.233,-0.131l-0.233,-0.133l-0.196,-0.114l-0.074,0.353l-0.095,0.444l-0.097,0.443l-0.099,0.441l-0.102,0.44l-0.104,0.438l-0.106,0.436l-0.109,0.434l-0.111,0.433l-0.113,0.431l-0.116,0.429l-0.118,0.427l-0.12,0.424l-0.123,0.423l-0.124,0.421l-0.128,0.419l-0.129,0.416l-0.133,0.414l-0.134,0.412l-0.137,0.41l-0.138,0.405l-0.072,0.204l-0.071,0.202l-0.071,0.202l-0.073,0.2l-0.073,0.2l-0.073,0.2l-0.074,0.199l-0.075,0.198l-0.076,0.197l-0.076,0.197l-0.076,0.196l-0.078,0.195l-0.077,0.195l-0.079,0.194l-0.079,0.193l-0.08,0.193l-0.08,0.192l-0.081,0.191l-0.082,0.19l-0.082,0.19l-0.083,0.189l-0.083,0.188l-0.085,0.188l-0.085,0.186l-0.085,0.186l-0.086,0.185l-0.087,0.185l-0.087,0.183l-0.088,0.183l-0.089,0.182l-0.089,0.181l-0.09,0.18l-0.091,0.18l-0.091,0.178l-0.092,0.178l-0.093,0.177l-0.093,0.176l-0.094,0.175l-0.094,0.175l-0.096,0.174l-0.096,0.173l-0.096,0.171l-0.097,0.171l-0.098,0.17l-0.099,0.169l-0.099,0.168l-0.1,0.167l-0.101,0.167l-0.101,0.165l-0.102,0.165l-0.103,0.163l-0.104,0.163l-0.104,0.162l-0.105,0.16l-0.105,0.16l-0.107,0.159l-0.107,0.157l-0.107,0.157l-0.109,0.156l-0.109,0.155l-0.11,0.153l-0.11,0.153l-0.112,0.152l-0.112,0.15l-0.112,0.149l-0.114,0.149l-0.114,0.147l-0.115,0.147l-0.116,0.145l-0.117,0.144l-0.117,0.143l-0.117,0.142l-0.119,0.141l-0.12,0.14l-0.12,0.139l-0.121,0.137l-0.122,0.136l-0.123,0.136l-0.123,0.134l-0.124,0.132l-0.125,0.132l-0.126,0.13l-0.126,0.13l-0.127,0.128l-0.128,0.126l-0.129,0.126l-0.13,0.125l-0.13,0.123l-0.131,0.121l-0.132,0.121l-0.133,0.119l-0.134,0.118l-0.134,0.117l-0.135,0.115l-0.137,0.114l-0.137,0.113l-0.137,0.111l-0.139,0.11l-0.139,0.109l-0.141,0.108l-0.141,0.105l-0.141,0.104l-0.143,0.104l-0.143,0.101l-0.145,0.101l-0.145,0.098l-0.145,0.097l-0.147,0.096l-0.148,0.095l-0.148,0.092l-0.149,0.092l-0.15,0.089l-0.151,0.089l-0.152,0.087l-0.153,0.085l-0.153,0.083l-0.155,0.082l-0.154,0.08l-0.155,0.079l-0.158,0.078l-0.157,0.075l-0.158,0.074l-0.16,0.072l-0.159,0.07l-0.16,0.069l-0.162,0.068l-0.162,0.065l-0.163,0.064l-0.164,0.062l-0.165,0.06l-0.164,0.058l-0.166,0.057l-0.168,0.055l-0.167,0.053l-0.168,0.052l-0.169,0.049l-0.169,0.048l-0.171,0.046l-0.172,0.044l-0.171,0.042l-0.172,0.04l-0.177,0.04l-0.156,0.032l-0.153,0.03l-0.153,0.028l-0.153,0.027l-0.153,0.025l-0.152,0.024l-0.154,0.022l-0.154,0.021l-0.152,0.019l-0.155,0.017l-0.152,0.016l-0.154,0.014l-0.154,0.013l-0.154,0.011l-0.153,0.01l-0.153,0.008l-0.154,0.007l-0.154,0.005l-0.153,0.004l-0.154,0.002l-0.155,0.001l-0.153,-0.001l-0.153,-0.002l-0.154,-0.003l-0.153,-0.005l-0.154,-0.007l-0.154,-0.008l-0.153,-0.009l-0.153,-0.011l-0.154,-0.012l-0.153,-0.013l-0.153,-0.015l-0.153,-0.017l-0.153,-0.017l-0.153,-0.019l-0.153,-0.021l-0.152,-0.021l-0.153,-0.023l-0.152,-0.025l-0.153,-0.025l-0.153,-0.028l-0.152,-0.028l-0.151,-0.029l-0.152,-0.031l-0.152,-0.032l-0.152,-0.034l-0.151,-0.035l-0.151,-0.036l-0.152,-0.037l-0.151,-0.038l-0.151,-0.04l-0.151,-0.041l-0.151,-0.042l-0.15,-0.043l-0.15,-0.045l-0.15,-0.045l-0.15,-0.047l-0.151,-0.048l-0.006,-0.002l0.056,0.606l0.064,0.705l0.063,0.706l0.062,0.705l0.061,0.705l0.06,0.704l0.059,0.704l0.058,0.704l0.057,0.702l0.056,0.702l0.055,0.701l0.054,0.7l0.053,0.699l0.052,0.699l0.051,0.696l0.051,0.696l0.049,0.694l0.049,0.693l0.048,0.691l0.046,0.69l0.091,1.373l0.088,1.366l0.084,1.357l0.081,1.349l0.077,1.339l0.075,1.328l0.071,1.317l0.069,1.305l0.065,1.292l0.062,1.279l0.06,1.264l0.057,1.25l0.054,1.235l0.051,1.218l0.049,1.201l0.047,1.183l0.044,1.165l0.041,1.146l0.039,1.126l0.037,1.106l0.035,1.084l0.033,1.062l0.031,1.039l0.028,1.016l0.027,0.992l0.025,0.967l0.023,0.942l0.022,0.915l0.02,0.888l0.018,0.86l0.016,0.832l0.016,0.803l0.014,0.772l0.012,0.743l0.011,0.711l0.02,1.324l0.014,1.191l0.012,1.051l0.008,0.905l0.005,0.755l0.003,0.597l0.002,0.435l0.001,0.354l-0.027,0.329l-0.08,0.321l-0.133,0.302l-0.18,0.277l-0.223,0.244l-0.26,0.203l-0.29,0.158l-0.313,0.108l-0.325,0.055l-0.331,0l-0.325,-0.053l-0.313,-0.107l-0.291,-0.157l-0.261,-0.202l-0.224,-0.242l-0.181,-0.277l-0.134,-0.302l-0.081,-0.32l-0.028,-0.329l-0.001,-0.35l-0.002,-0.428l-0.003,-0.591l-0.005,-0.748l-0.008,-0.898l-0.011,-1.044l-0.015,-1.183l-0.019,-1.318l-0.011,-0.706l-0.013,-0.738l-0.014,-0.768l-0.015,-0.799l-0.016,-0.827l-0.019,-0.856l-0.019,-0.884l-0.022,-0.91l-0.023,-0.937l-0.024,-0.962l-0.027,-0.987l-0.029,-1.011l-0.03,-1.034l-0.033,-1.057l-0.034,-1.079l-0.037,-1.1l-0.039,-1.121l-0.042,-1.14l-0.043,-1.159l-0.047,-1.177l-0.048,-1.196l-0.051,-1.211l-0.054,-1.228l-0.057,-1.244l-0.059,-1.258l-0.062,-1.272l-0.065,-1.285l-0.068,-1.298l-0.071,-1.309l-0.074,-1.321l-0.077,-1.331l-0.081,-1.34l-0.083,-1.349l-0.087,-1.358l-0.091,-1.366l-0.046,-0.684l-0.048,-0.687l-0.048,-0.688l-0.049,-0.689l-0.05,-0.691l-0.051,-0.692l-0.052,-0.694l-0.053,-0.694l-0.053,-0.695l-0.055,-0.696l-0.056,-0.697l-0.056,-0.698l-0.058,-0.698l-0.058,-0.698l-0.06,-0.699l-0.06,-0.7l-0.062,-0.699l-0.062,-0.7l-0.064,-0.7l-0.064,-0.7l-0.066,-0.699l-0.066,-0.699l-0.068,-0.699l0,-0.003l-0.071,-0.038l-0.144,-0.08l-0.144,-0.081l-0.145,-0.082l-0.143,-0.082l-0.144,-0.084l-0.143,-0.084l-0.143,-0.086l-0.143,-0.087l-0.143,-0.087l-0.142,-0.088l-0.143,-0.09l-0.142,-0.089l-0.142,-0.091l-0.141,-0.092l-0.142,-0.093l-0.141,-0.094l-0.141,-0.094l-0.141,-0.096l-0.14,-0.096l-0.141,-0.097l-0.14,-0.098l-0.14,-0.098l-0.14,-0.1l-0.139,-0.101l-0.139,-0.101l-0.139,-0.102l-0.141,-0.104l-0.275,-0.207l-0.276,-0.212l-0.275,-0.214l-0.274,-0.218l-0.273,-0.22l-0.272,-0.224l-0.272,-0.227l-0.27,-0.23l-0.269,-0.233l-0.268,-0.235l-0.267,-0.239l-0.266,-0.241l-0.265,-0.244l-0.264,-0.246l-0.263,-0.25l-0.262,-0.252l-0.261,-0.254l-0.259,-0.257l-0.259,-0.26l-0.257,-0.262l-0.256,-0.264l-0.255,-0.267l-0.254,-0.269l-0.253,-0.272l-0.251,-0.274l-0.251,-0.276l-0.249,-0.278l-0.247,-0.281l-0.247,-0.282l-0.245,-0.285l-0.244,-0.287l-0.242,-0.288l-0.241,-0.291l-0.24,-0.293l-0.239,-0.294l-0.237,-0.297l-0.236,-0.298l-0.234,-0.3l-0.233,-0.301l-0.232,-0.304l-0.23,-0.305l-0.228,-0.306l-0.227,-0.309l-0.226,-0.31l-0.224,-0.311l-0.222,-0.313l-0.221,-0.314l-0.22,-0.316l-0.217,-0.317l-0.216,-0.318l-0.215,-0.32l-0.213,-0.321l-0.211,-0.322l-0.21,-0.323l-0.208,-0.324l-0.206,-0.326l-0.204,-0.326l-0.203,-0.328l-0.201,-0.329l-0.199,-0.329l-0.197,-0.33l-0.196,-0.332l-0.194,-0.332l-0.192,-0.333l-0.189,-0.333l-0.189,-0.335l-0.186,-0.335l-0.184,-0.336l-0.182,-0.336l-0.181,-0.337l-0.178,-0.337l-0.177,-0.338l-0.174,-0.339l-0.172,-0.338l-0.171,-0.34l-0.168,-0.339l-0.166,-0.34l-0.164,-0.34l-0.162,-0.34l-0.16,-0.341l-0.158,-0.341l-0.155,-0.341l-0.154,-0.341l-0.151,-0.34l-0.149,-0.342l-0.146,-0.341l-0.144,-0.341l-0.142,-0.34l-0.14,-0.341l-0.137,-0.341l-0.136,-0.34l-0.132,-0.341l-0.13,-0.339l-0.128,-0.34l-0.126,-0.339l-0.123,-0.339l-0.12,-0.339l-0.118,-0.338l-0.116,-0.337l-0.113,-0.337l-0.11,-0.337l-0.108,-0.336l-0.106,-0.335l-0.102,-0.335l-0.1,-0.334l-0.098,-0.333l-0.095,-0.333l-0.092,-0.331l-0.089,-0.331l-0.087,-0.33l-0.084,-0.33l-0.081,-0.328l-0.078,-0.327l-0.076,-0.327l-0.072,-0.325l-0.07,-0.325l-0.067,-0.323l-0.064,-0.322l-0.061,-0.321l-0.058,-0.32l-0.055,-0.319l-0.052,-0.318l-0.049,-0.316l-0.046,-0.315l-0.043,-0.314l-0.04,-0.312l-0.036,-0.311l-0.034,-0.31l-0.03,-0.308l-0.027,-0.307l-0.024,-0.305l-0.02,-0.301l-0.009,-0.154l-0.008,-0.151l-0.008,-0.151l-0.006,-0.15l-0.006,-0.15l-0.004,-0.149l-0.004,-0.149l-0.003,-0.149l-0.002,-0.148l-0.002,-0.148l0,-0.147l0,-0.147l0.002,-0.147l0.002,-0.146l0.003,-0.146l0.004,-0.145l0.005,-0.145l0.006,-0.144l0.007,-0.144l0.007,-0.143l0.009,-0.144l0.01,-0.142l0.01,-0.142l0.011,-0.142l0.013,-0.141l0.013,-0.141l0.014,-0.14l0.016,-0.14l0.016,-0.139l0.017,-0.139l0.018,-0.139l0.02,-0.138l0.02,-0.137l0.021,-0.137l0.022,-0.136l0.024,-0.136l0.024,-0.136l0.025,-0.134l0.026,-0.135l0.028,-0.134l0.028,-0.133l0.03,-0.133l0.03,-0.132l0.032,-0.131l0.033,-0.132l0.034,-0.13l0.035,-0.13l0.036,-0.13l0.037,-0.129l0.038,-0.128l0.04,-0.127l0.04,-0.127l0.042,-0.127l0.043,-0.126l0.044,-0.125l0.045,-0.124l0.047,-0.124l0.047,-0.124l0.049,-0.122l0.05,-0.122l0.051,-0.122l0.053,-0.12l0.054,-0.12l0.054,-0.119l0.056,-0.118l0.058,-0.119l0.059,-0.117l0.06,-0.116l0.061,-0.115l0.062,-0.115l0.064,-0.114l0.065,-0.113l0.066,-0.112l0.068,-0.112l0.069,-0.11l0.07,-0.11l0.072,-0.109l0.073,-0.108l0.074,-0.107l0.075,-0.106l0.077,-0.105l0.078,-0.104l0.08,-0.103l0.081,-0.103l0.082,-0.101l0.083,-0.1l0.085,-0.099l0.086,-0.098l0.088,-0.097l0.088,-0.096l0.091,-0.095l0.091,-0.094l0.093,-0.093l0.094,-0.091l0.095,-0.09l0.096,-0.089l0.099,-0.088l0.1,-0.087l0.099,-0.085l0.102,-0.084l0.104,-0.083l0.104,-0.082l0.106,-0.081l0.106,-0.078l0.108,-0.078l0.109,-0.076l0.112,-0.076l0.111,-0.074l0.112,-0.071l0.114,-0.071l0.116,-0.07l0.117,-0.069l0.117,-0.066l0.118,-0.065l0.121,-0.065l0.121,-0.062l0.122,-0.061l0.122,-0.06l0.125,-0.058l0.126,-0.057l0.125,-0.055l0.128,-0.054l0.129,-0.053l0.13,-0.051l0.13,-0.049l0.132,-0.048l0.132,-0.047l0.134,-0.045l0.135,-0.044l0.135,-0.041l0.136,-0.041l0.138,-0.04l0.14,-0.037l0.14,-0.037l0.166,-0.041l0.174,-0.039l0.173,-0.035l0.173,-0.032l0.173,-0.028l0.173,-0.024l0.173,-0.021l0.174,-0.017l0.172,-0.013l0.174,-0.01l0.173,-0.005l0.172,-0.002l0.172,0.002l0.171,0.005l0.172,0.01l0.171,0.013l0.17,0.017l0.169,0.02l0.169,0.025l0.168,0.027l0.167,0.032l0.167,0.035l0.164,0.039l0.164,0.042l0.164,0.046l0.162,0.049l0.161,0.053l0.16,0.056l0.158,0.059l0.158,0.062l0.156,0.066l0.155,0.068l0.153,0.072l0.153,0.075l0.151,0.078l0.149,0.08l0.149,0.084l0.146,0.086l0.146,0.089l0.145,0.092l0.142,0.094l0.142,0.097l0.14,0.1l0.138,0.101l0.138,0.105l0.137,0.108l0.135,0.109l0.133,0.111l0.133,0.114l0.132,0.117l0.13,0.119l0.129,0.121l0.128,0.123l0.126,0.125l0.126,0.128l0.124,0.13l0.124,0.132l0.123,0.134l0.121,0.136l0.12,0.138l0.12,0.14l0.118,0.142l0.118,0.145l0.116,0.146l0.116,0.148l0.115,0.151l0.113,0.152l0.114,0.154l0.112,0.157l0.111,0.158l0.11,0.16l0.11,0.162l0.109,0.164l0.108,0.165l0.108,0.168l0.106,0.17l0.106,0.171l0.105,0.173l0.105,0.176l0.103,0.176l0.103,0.179l0.103,0.181l0.101,0.182l0.101,0.185l0.101,0.186l0.099,0.187l0.1,0.19l0.098,0.192l0.098,0.193l0.097,0.195l0.097,0.196l0.096,0.199l0.095,0.2l0.095,0.202l0.094,0.204l0.094,0.205l0.093,0.207l0.093,0.209l0.091,0.21l0.092,0.212l0.091,0.214l0.09,0.216l0.09,0.217l0.09,0.219l0.088,0.22l0.089,0.222l0.087,0.224l0.088,0.225l0.086,0.227l0.087,0.228l0.085,0.23l0.086,0.232l0.084,0.233l0.085,0.235l0.084,0.236l0.083,0.238l0.083,0.239l0.082,0.241l0.082,0.243l0.081,0.244l0.082,0.245l0.08,0.247l0.08,0.248l0.08,0.25l0.079,0.251l0.079,0.253l0.078,0.254l0.078,0.256l0.077,0.257l0.077,0.259l0.077,0.259l0.076,0.262l0.075,0.262l0.076,0.264l0.074,0.266l0.075,0.268l0.147,0.536l0.146,0.543l0.144,0.547l0.143,0.554l0.14,0.558l0.14,0.563l0.137,0.568l0.136,0.573l0.135,0.577l0.133,0.582l0.131,0.587l0.13,0.592l0.128,0.595l0.127,0.6l0.126,0.604l0.123,0.609l0.123,0.612l0.121,0.616l0.119,0.621l0.118,0.624l0.117,0.628l0.115,0.631l0.114,0.635l0.112,0.638l0.111,0.642l0.109,0.645l0.109,0.649l0.106,0.651l0.106,0.655l0.104,0.657l0.103,0.66l0.101,0.663l0.101,0.666l0.099,0.669l0.097,0.67l0.096,0.674l0.095,0.675l0.094,0.678l0.093,0.68l0.091,0.682l0.09,0.685l0.089,0.686l0.087,0.687l0.087,0.69l0.085,0.691l0.084,0.693l0.083,0.694l0.081,0.696l0.081,0.697l0.079,0.698l0.078,0.699l0.077,0.7l0.076,0.701l0.075,0.702l0.074,0.703l0.061,0.594l0.08,0.035l0.123,0.052l0.123,0.051l0.124,0.05l0.123,0.05l0.123,0.048l0.122,0.047l0.123,0.046l0.123,0.046l0.122,0.044l0.122,0.043l0.122,0.042l0.123,0.041l0.122,0.04l0.12,0.039l0.122,0.038l0.122,0.037l0.121,0.036l0.122,0.035l0.121,0.034l0.121,0.032l0.12,0.032l0.12,0.031l0.121,0.029l0.12,0.029l0.12,0.027l0.12,0.027l0.119,0.025l0.12,0.024l0.12,0.024l0.119,0.022l0.118,0.021l0.119,0.02l0.119,0.019l0.119,0.018l0.118,0.017l0.119,0.015l0.117,0.015l0.117,0.014l0.119,0.012l0.117,0.012l0.117,0.01l0.117,0.009l0.117,0.008l0.116,0.007l0.116,0.006l0.117,0.005l0.116,0.004l0.116,0.003l0.116,0.001l0.116,0.001l0.115,-0.001l0.115,-0.001l0.116,-0.003l0.114,-0.004l0.115,-0.005l0.114,-0.006l0.115,-0.008l0.115,-0.008l0.112,-0.009l0.115,-0.011l0.114,-0.012l0.113,-0.013l0.114,-0.014l0.113,-0.015l0.113,-0.016l0.114,-0.018l0.112,-0.018l0.113,-0.02l0.113,-0.021l0.113,-0.022l0.108,-0.023l0.126,-0.028l0.129,-0.03l0.13,-0.032l0.128,-0.032l0.126,-0.035l0.128,-0.035l0.126,-0.038l0.127,-0.038l0.125,-0.04l0.125,-0.041l0.124,-0.043l0.125,-0.044l0.123,-0.045l0.123,-0.046l0.123,-0.048l0.122,-0.05l0.122,-0.05l0.121,-0.052l0.122,-0.054l0.119,-0.054l0.121,-0.057l0.12,-0.057l0.118,-0.058l0.119,-0.061l0.119,-0.061l0.118,-0.063l0.118,-0.064l0.117,-0.065l0.116,-0.067l0.116,-0.068l0.117,-0.07l0.115,-0.07l0.116,-0.073l0.115,-0.073l0.113,-0.074l0.115,-0.077l0.114,-0.077l0.113,-0.079l0.113,-0.079l0.112,-0.082l0.113,-0.083l0.112,-0.084l0.111,-0.084l0.11,-0.087l0.111,-0.088l0.111,-0.089l0.109,-0.09l0.109,-0.092l0.11,-0.093l0.109,-0.095l0.108,-0.095l0.108,-0.097l0.107,-0.098l0.107,-0.1l0.107,-0.101l0.106,-0.102l0.106,-0.102l0.106,-0.105l0.105,-0.106l0.105,-0.107l0.104,-0.108l0.104,-0.11l0.103,-0.111l0.103,-0.112l0.103,-0.113l0.102,-0.114l0.102,-0.116l0.101,-0.117l0.101,-0.118l0.101,-0.119l0.1,-0.12l0.1,-0.122l0.099,-0.123l0.099,-0.124l0.098,-0.125l0.098,-0.127l0.098,-0.127l0.097,-0.129l0.097,-0.13l0.096,-0.131l0.095,-0.132l0.096,-0.134l0.095,-0.134l0.094,-0.136l0.094,-0.136l0.094,-0.138l0.092,-0.139l0.093,-0.14l0.092,-0.141l0.092,-0.143l0.091,-0.143l0.091,-0.144l0.09,-0.146l0.09,-0.146l0.089,-0.147l0.089,-0.149l0.088,-0.15l0.088,-0.15l0.088,-0.152l0.087,-0.153l0.086,-0.154l0.086,-0.154l0.085,-0.156l0.085,-0.156l0.085,-0.158l0.084,-0.159l0.083,-0.159l0.083,-0.161l0.083,-0.162l0.082,-0.162l0.082,-0.163l0.081,-0.165l0.08,-0.165l0.08,-0.166l0.08,-0.168l0.079,-0.167l0.078,-0.169l0.078,-0.17l0.078,-0.171l0.077,-0.171l0.077,-0.173l0.076,-0.173l0.075,-0.174l0.075,-0.175l0.075,-0.176l0.074,-0.177l0.073,-0.177l0.073,-0.179l0.073,-0.179l0.072,-0.18l0.071,-0.18l0.071,-0.182l0.07,-0.182l0.07,-0.183l0.07,-0.184l0.069,-0.185l0.068,-0.185l0.068,-0.186l0.067,-0.187l0.067,-0.187l0.066,-0.188l0.065,-0.188l0.131,-0.382l0.128,-0.382l0.126,-0.386l0.123,-0.388l0.122,-0.391l0.12,-0.393l0.117,-0.396l0.116,-0.398l0.113,-0.4l0.111,-0.403l0.109,-0.405l0.107,-0.407l0.105,-0.409l0.103,-0.412l0.101,-0.413l0.099,-0.416l0.096,-0.417l0.095,-0.419l0.092,-0.421l0.09,-0.422l0.088,-0.424l0.087,-0.426l0.084,-0.427l0.081,-0.429l0.039,-0.207l-0.149,-0.111l-0.207,-0.156l-0.206,-0.158l-0.204,-0.159l-0.203,-0.159l-0.201,-0.16l-0.201,-0.162l-0.199,-0.163l-0.197,-0.164l-0.197,-0.165l-0.195,-0.166l-0.193,-0.166l-0.192,-0.168l-0.191,-0.169l-0.19,-0.17l-0.189,-0.171l-0.187,-0.172l-0.185,-0.172l-0.185,-0.174l-0.183,-0.174l-0.182,-0.176l-0.18,-0.176l-0.18,-0.177l-0.177,-0.178l-0.177,-0.179l-0.176,-0.18l-0.173,-0.181l-0.173,-0.181l-0.172,-0.183l-0.17,-0.183l-0.169,-0.184l-0.167,-0.184l-0.167,-0.186l-0.165,-0.186l-0.164,-0.187l-0.162,-0.188l-0.161,-0.188l-0.161,-0.19l-0.158,-0.19l-0.158,-0.19l-0.156,-0.192l-0.155,-0.192l-0.153,-0.192l-0.153,-0.193l-0.151,-0.194l-0.15,-0.195l-0.149,-0.195l-0.147,-0.196l-0.146,-0.196l-0.145,-0.198l-0.144,-0.197l-0.142,-0.198l-0.142,-0.199l-0.14,-0.2l-0.138,-0.199l-0.138,-0.201l-0.136,-0.201l-0.135,-0.201l-0.134,-0.202l-0.133,-0.202l-0.131,-0.203l-0.131,-0.203l-0.129,-0.204l-0.128,-0.205l-0.126,-0.204l-0.126,-0.205l-0.124,-0.206l-0.123,-0.206l-0.122,-0.206l-0.121,-0.207l-0.119,-0.207l-0.118,-0.207l-0.118,-0.208l-0.115,-0.208l-0.115,-0.209l-0.114,-0.208l-0.112,-0.209l-0.111,-0.21l-0.11,-0.21l-0.109,-0.209l-0.108,-0.211l-0.107,-0.21l-0.105,-0.211l-0.104,-0.211l-0.103,-0.211l-0.102,-0.212l-0.101,-0.211l-0.1,-0.212l-0.098,-0.213l-0.098,-0.212l-0.096,-0.212l-0.095,-0.213l-0.094,-0.212l-0.093,-0.213l-0.091,-0.213l-0.091,-0.213l-0.089,-0.214l-0.089,-0.213l-0.087,-0.214l-0.086,-0.213l-0.085,-0.214l-0.084,-0.213l-0.083,-0.214l-0.081,-0.214l-0.081,-0.214l-0.079,-0.213l-0.078,-0.214l-0.078,-0.214l-0.076,-0.214l-0.075,-0.214l-0.074,-0.214l-0.073,-0.213l-0.071,-0.214l-0.071,-0.214l-0.07,-0.214l-0.068,-0.213l-0.067,-0.213l-0.067,-0.214l-0.065,-0.213l-0.064,-0.213l-0.063,-0.213l-0.062,-0.213l-0.061,-0.213l-0.06,-0.213l-0.059,-0.212l-0.058,-0.212l-0.057,-0.213l-0.055,-0.211l-0.055,-0.212l-0.054,-0.212l-0.052,-0.211l-0.052,-0.211l-0.05,-0.211l-0.05,-0.211l-0.048,-0.21l-0.047,-0.21l-0.046,-0.21l-0.046,-0.209l-0.044,-0.21l-0.043,-0.209l-0.042,-0.208l-0.041,-0.209l-0.04,-0.208l-0.04,-0.207l-0.038,-0.207l-0.037,-0.207l-0.036,-0.207l-0.035,-0.206l-0.034,-0.206l-0.033,-0.206l-0.032,-0.205l-0.031,-0.204l-0.03,-0.204l-0.029,-0.204l-0.027,-0.204l-0.027,-0.202l-0.026,-0.203l-0.025,-0.202l-0.024,-0.201l-0.023,-0.201l-0.022,-0.201l-0.021,-0.2l-0.02,-0.2l-0.019,-0.198l-0.018,-0.199l-0.017,-0.198l-0.016,-0.197l-0.015,-0.197l-0.014,-0.196l-0.013,-0.196l-0.013,-0.195l-0.011,-0.195l-0.01,-0.194l-0.009,-0.193l-0.008,-0.193l-0.008,-0.192l-0.006,-0.191l-0.005,-0.191l-0.004,-0.19l-0.004,-0.19l-0.002,-0.189l-0.002,-0.188l0,-0.187l0,-0.187l0.002,-0.186l0.002,-0.186l0.004,-0.184l0.004,-0.184l0.005,-0.184l0.006,-0.182l0.008,-0.182l0.008,-0.181l0.009,-0.18l0.01,-0.18l0.011,-0.178l0.012,-0.178l0.013,-0.177l0.014,-0.177l0.015,-0.175l0.015,-0.175l0.017,-0.174l0.018,-0.173l0.019,-0.172l0.019,-0.171l0.021,-0.171l0.021,-0.169l0.023,-0.169l0.023,-0.168l0.025,-0.167l0.025,-0.166l0.027,-0.165l0.027,-0.165l0.028,-0.163l0.03,-0.162l0.03,-0.162l0.031,-0.16l0.032,-0.16l0.034,-0.159l0.034,-0.158l0.035,-0.156l0.036,-0.156l0.037,-0.155l0.038,-0.154l0.039,-0.153l0.04,-0.152l0.042,-0.15l0.042,-0.15l0.043,-0.149l0.044,-0.148l0.045,-0.147l0.046,-0.146l0.048,-0.144l0.048,-0.144l0.049,-0.143l0.051,-0.141l0.051,-0.141l0.053,-0.139l0.053,-0.138l0.055,-0.137l0.056,-0.137l0.057,-0.135l0.058,-0.134l0.059,-0.132l0.06,-0.132l0.061,-0.13l0.063,-0.13l0.064,-0.128l0.065,-0.127l0.066,-0.126l0.067,-0.124l0.068,-0.123l0.07,-0.123l0.071,-0.121l0.072,-0.119l0.074,-0.119l0.075,-0.117l0.076,-0.115l0.077,-0.115l0.079,-0.114l0.08,-0.111l0.081,-0.111l0.083,-0.109l0.084,-0.107l0.086,-0.107l0.087,-0.105l0.088,-0.103l0.09,-0.102l0.091,-0.1l0.093,-0.098l0.094,-0.098l0.096,-0.095l0.097,-0.094l0.099,-0.092l0.1,-0.09l0.102,-0.089l0.103,-0.086l0.105,-0.085l0.106,-0.083l0.108,-0.081l0.109,-0.079l0.111,-0.077l0.113,-0.075l0.114,-0.072l0.115,-0.071l0.117,-0.068l0.119,-0.066l0.119,-0.063l0.121,-0.061l0.123,-0.059l0.124,-0.057l0.125,-0.053l0.126,-0.052l0.127,-0.048l0.128,-0.046l0.131,-0.044l0.132,-0.041l0.13,-0.037l0.145,-0.038l0.139,-0.035l0.141,-0.033l0.14,-0.03l0.139,-0.028l0.141,-0.027l0.14,-0.023l0.139,-0.021l0.141,-0.02l0.139,-0.016l0.139,-0.015l0.14,-0.012l0.139,-0.01l0.14,-0.007l0.139,-0.005l0.138,-0.003l0.138,0l0.139,0.002Zm-36.889,25.444l-0.085,0.003l-0.086,0.005l-0.089,0.006l-0.088,0.009l-0.09,0.011l-0.09,0.012l-0.091,0.015l-0.094,0.017l-0.093,0.019l-0.095,0.022l-0.103,0.025l-0.094,0.024l-0.093,0.026l-0.092,0.026l-0.091,0.027l-0.091,0.028l-0.088,0.029l-0.088,0.03l-0.086,0.03l-0.085,0.031l-0.085,0.032l-0.083,0.032l-0.081,0.034l-0.081,0.034l-0.081,0.035l-0.078,0.036l-0.077,0.036l-0.077,0.037l-0.076,0.038l-0.074,0.039l-0.073,0.038l-0.073,0.041l-0.072,0.04l-0.07,0.042l-0.069,0.041l-0.069,0.043l-0.069,0.044l-0.067,0.044l-0.065,0.045l-0.065,0.045l-0.065,0.047l-0.064,0.047l-0.063,0.048l-0.061,0.048l-0.061,0.049l-0.06,0.05l-0.061,0.051l-0.058,0.051l-0.058,0.052l-0.057,0.053l-0.057,0.054l-0.056,0.054l-0.055,0.055l-0.054,0.056l-0.054,0.056l-0.053,0.058l-0.053,0.058l-0.052,0.059l-0.051,0.06l-0.051,0.061l-0.049,0.061l-0.049,0.062l-0.049,0.063l-0.048,0.064l-0.047,0.065l-0.047,0.066l-0.046,0.066l-0.045,0.067l-0.045,0.069l-0.044,0.068l-0.044,0.071l-0.043,0.07l-0.042,0.072l-0.042,0.072l-0.041,0.074l-0.041,0.074l-0.04,0.076l-0.039,0.076l-0.038,0.076l-0.038,0.078l-0.038,0.079l-0.037,0.08l-0.036,0.081l-0.035,0.081l-0.035,0.083l-0.034,0.083l-0.034,0.085l-0.032,0.084l-0.033,0.087l-0.031,0.087l-0.031,0.088l-0.031,0.088l-0.029,0.09l-0.029,0.091l-0.028,0.091l-0.028,0.093l-0.027,0.093l-0.026,0.094l-0.026,0.095l-0.025,0.096l-0.024,0.097l-0.023,0.098l-0.023,0.098l-0.022,0.1l-0.022,0.1l-0.02,0.101l-0.021,0.103l-0.019,0.103l-0.018,0.103l-0.018,0.105l-0.018,0.105l-0.016,0.106l-0.016,0.107l-0.015,0.108l-0.014,0.109l-0.014,0.109l-0.012,0.111l-0.013,0.111l-0.011,0.112l-0.011,0.112l-0.01,0.114l-0.009,0.114l-0.008,0.115l-0.008,0.116l-0.007,0.116l-0.006,0.117l-0.006,0.118l-0.005,0.119l-0.004,0.119l-0.003,0.12l-0.003,0.121l-0.002,0.121l-0.001,0.123l0,0.122l0,0.124l0.001,0.124l0.002,0.125l0.003,0.126l0.003,0.126l0.004,0.127l0.005,0.127l0.005,0.128l0.006,0.129l0.007,0.13l0.008,0.127l0.018,0.265l0.02,0.264l0.024,0.266l0.026,0.269l0.029,0.271l0.033,0.274l0.035,0.275l0.038,0.278l0.04,0.279l0.044,0.281l0.046,0.284l0.05,0.285l0.052,0.287l0.055,0.289l0.057,0.29l0.061,0.293l0.063,0.293l0.066,0.296l0.069,0.297l0.071,0.298l0.074,0.3l0.077,0.301l0.079,0.303l0.082,0.303l0.085,0.305l0.087,0.307l0.09,0.307l0.092,0.308l0.095,0.31l0.098,0.31l0.1,0.312l0.103,0.312l0.105,0.313l0.107,0.314l0.11,0.315l0.112,0.316l0.115,0.316l0.117,0.317l0.12,0.317l0.122,0.318l0.124,0.319l0.126,0.318l0.129,0.32l0.131,0.32l0.134,0.32l0.135,0.32l0.138,0.321l0.14,0.32l0.142,0.321l0.145,0.321l0.146,0.321l0.148,0.321l0.151,0.321l0.153,0.322l0.155,0.321l0.157,0.32l0.158,0.321l0.161,0.32l0.163,0.32l0.165,0.32l0.167,0.319l0.168,0.319l0.171,0.319l0.172,0.318l0.175,0.317l0.176,0.317l0.178,0.316l0.179,0.316l0.182,0.315l0.183,0.314l0.185,0.313l0.187,0.313l0.188,0.311l0.19,0.311l0.192,0.31l0.193,0.308l0.195,0.308l0.196,0.307l0.198,0.305l0.2,0.305l0.201,0.303l0.203,0.302l0.204,0.3l0.205,0.3l0.207,0.297l0.209,0.297l0.21,0.295l0.211,0.293l0.212,0.292l0.214,0.29l0.215,0.289l0.216,0.287l0.218,0.285l0.219,0.284l0.22,0.282l0.222,0.28l0.222,0.278l0.224,0.276l0.224,0.274l0.226,0.272l0.227,0.27l0.228,0.268l0.229,0.266l0.23,0.264l0.231,0.261l0.232,0.26l0.233,0.256l0.234,0.255l0.234,0.252l0.236,0.25l0.236,0.247l0.237,0.245l0.238,0.243l0.239,0.24l0.239,0.237l0.241,0.234l0.241,0.232l0.241,0.229l0.242,0.226l0.243,0.224l0.244,0.22l0.243,0.218l0.245,0.214l0.245,0.212l0.245,0.209l0.246,0.206l0.246,0.202l0.247,0.2l0.247,0.196l0.248,0.193l0.247,0.19l0.25,0.188l0.122,0.09l0.124,0.091l0.125,0.091l0.124,0.089l0.124,0.089l0.125,0.088l0.124,0.087l0.118,0.081l-0.061,-0.553l-0.078,-0.693l-0.078,-0.69l-0.08,-0.69l-0.08,-0.688l-0.082,-0.687l-0.083,-0.685l-0.085,-0.683l-0.085,-0.681l-0.087,-0.68l-0.087,-0.678l-0.089,-0.675l-0.09,-0.674l-0.092,-0.671l-0.092,-0.669l-0.094,-0.666l-0.095,-0.664l-0.096,-0.662l-0.098,-0.658l-0.098,-0.656l-0.1,-0.653l-0.101,-0.65l-0.103,-0.647l-0.104,-0.644l-0.105,-0.64l-0.106,-0.638l-0.108,-0.633l-0.109,-0.63l-0.11,-0.627l-0.111,-0.623l-0.113,-0.619l-0.114,-0.615l-0.116,-0.611l-0.117,-0.606l-0.118,-0.603l-0.12,-0.598l-0.121,-0.594l-0.122,-0.59l-0.124,-0.585l-0.125,-0.58l-0.126,-0.576l-0.128,-0.57l-0.129,-0.566l-0.13,-0.56l-0.132,-0.556l-0.134,-0.55l-0.134,-0.545l-0.136,-0.539l-0.138,-0.534l-0.139,-0.528l-0.14,-0.522l-0.142,-0.518l-0.071,-0.255l-0.072,-0.254l-0.072,-0.253l-0.072,-0.251l-0.073,-0.251l-0.073,-0.248l-0.074,-0.247l-0.074,-0.245l-0.074,-0.243l-0.074,-0.242l-0.075,-0.241l-0.075,-0.239l-0.076,-0.237l-0.076,-0.235l-0.076,-0.234l-0.077,-0.232l-0.077,-0.231l-0.077,-0.228l-0.078,-0.227l-0.078,-0.225l-0.078,-0.224l-0.079,-0.222l-0.079,-0.22l-0.079,-0.218l-0.08,-0.216l-0.079,-0.215l-0.081,-0.212l-0.08,-0.211l-0.081,-0.209l-0.082,-0.207l-0.081,-0.206l-0.082,-0.203l-0.082,-0.201l-0.083,-0.2l-0.083,-0.197l-0.083,-0.196l-0.084,-0.193l-0.083,-0.192l-0.085,-0.19l-0.084,-0.188l-0.084,-0.185l-0.085,-0.184l-0.086,-0.181l-0.085,-0.18l-0.086,-0.177l-0.086,-0.175l-0.086,-0.173l-0.087,-0.171l-0.087,-0.169l-0.087,-0.167l-0.087,-0.164l-0.088,-0.163l-0.088,-0.16l-0.088,-0.158l-0.088,-0.155l-0.088,-0.154l-0.089,-0.151l-0.089,-0.149l-0.088,-0.147l-0.09,-0.144l-0.089,-0.142l-0.089,-0.14l-0.09,-0.137l-0.09,-0.135l-0.09,-0.133l-0.089,-0.13l-0.091,-0.128l-0.09,-0.125l-0.09,-0.123l-0.09,-0.121l-0.09,-0.118l-0.091,-0.116l-0.09,-0.113l-0.09,-0.111l-0.09,-0.109l-0.09,-0.105l-0.09,-0.104l-0.091,-0.101l-0.089,-0.098l-0.09,-0.096l-0.09,-0.094l-0.089,-0.09l-0.09,-0.089l-0.089,-0.086l-0.089,-0.083l-0.089,-0.081l-0.088,-0.078l-0.088,-0.077l-0.089,-0.073l-0.088,-0.072l-0.087,-0.068l-0.086,-0.066l-0.088,-0.064l-0.086,-0.061l-0.086,-0.059l-0.086,-0.057l-0.085,-0.054l-0.085,-0.052l-0.085,-0.05l-0.084,-0.047l-0.084,-0.046l-0.084,-0.043l-0.083,-0.04l-0.082,-0.039l-0.083,-0.037l-0.083,-0.034l-0.081,-0.033l-0.082,-0.03l-0.081,-0.029l-0.082,-0.026l-0.081,-0.025l-0.081,-0.022l-0.081,-0.021l-0.082,-0.02l-0.08,-0.017l-0.081,-0.015l-0.082,-0.013l-0.081,-0.012l-0.083,-0.01l-0.082,-0.008l-0.083,-0.007l-0.082,-0.004l-0.085,-0.003l-0.085,-0.001l-0.085,0.001Zm36.657,-21.446l-0.072,0.002l-0.072,0.002l-0.071,0.004l-0.074,0.005l-0.073,0.006l-0.075,0.008l-0.076,0.009l-0.074,0.01l-0.078,0.012l-0.077,0.013l-0.078,0.015l-0.08,0.016l-0.079,0.017l-0.08,0.019l-0.082,0.02l-0.078,0.021l-0.052,0.015l-0.048,0.015l-0.05,0.016l-0.049,0.018l-0.05,0.019l-0.049,0.02l-0.048,0.021l-0.048,0.022l-0.048,0.023l-0.049,0.024l-0.049,0.026l-0.048,0.027l-0.048,0.028l-0.048,0.03l-0.049,0.031l-0.048,0.031l-0.049,0.034l-0.048,0.035l-0.048,0.036l-0.05,0.039l-0.049,0.039l-0.049,0.041l-0.048,0.042l-0.049,0.045l-0.049,0.045l-0.049,0.047l-0.049,0.05l-0.049,0.05l-0.049,0.052l-0.049,0.054l-0.049,0.055l-0.049,0.057l-0.049,0.059l-0.048,0.06l-0.049,0.063l-0.048,0.064l-0.048,0.065l-0.048,0.067l-0.048,0.069l-0.048,0.07l-0.048,0.073l-0.047,0.074l-0.046,0.075l-0.047,0.078l-0.047,0.079l-0.046,0.08l-0.045,0.083l-0.046,0.084l-0.045,0.086l-0.044,0.087l-0.045,0.089l-0.043,0.09l-0.044,0.092l-0.043,0.094l-0.042,0.095l-0.042,0.097l-0.041,0.098l-0.041,0.1l-0.041,0.102l-0.04,0.103l-0.039,0.105l-0.039,0.106l-0.038,0.107l-0.038,0.109l-0.037,0.111l-0.037,0.112l-0.036,0.113l-0.035,0.115l-0.035,0.116l-0.034,0.118l-0.033,0.119l-0.033,0.12l-0.032,0.122l-0.032,0.123l-0.031,0.124l-0.03,0.126l-0.029,0.127l-0.029,0.128l-0.028,0.13l-0.027,0.131l-0.027,0.132l-0.026,0.133l-0.025,0.135l-0.025,0.135l-0.023,0.137l-0.023,0.138l-0.023,0.14l-0.021,0.14l-0.021,0.142l-0.02,0.143l-0.019,0.144l-0.018,0.144l-0.018,0.147l-0.017,0.147l-0.016,0.148l-0.015,0.149l-0.015,0.151l-0.014,0.151l-0.012,0.152l-0.013,0.154l-0.011,0.154l-0.01,0.155l-0.01,0.157l-0.009,0.157l-0.008,0.158l-0.007,0.159l-0.006,0.16l-0.006,0.161l-0.005,0.162l-0.003,0.163l-0.003,0.164l-0.002,0.164l-0.002,0.165l0,0.167l0,0.167l0.002,0.167l0.002,0.169l0.003,0.169l0.004,0.17l0.004,0.171l0.006,0.172l0.007,0.172l0.007,0.174l0.008,0.174l0.009,0.174l0.01,0.175l0.011,0.176l0.012,0.177l0.013,0.177l0.013,0.178l0.015,0.179l0.015,0.179l0.017,0.18l0.017,0.18l0.018,0.181l0.019,0.182l0.02,0.182l0.021,0.183l0.022,0.183l0.022,0.184l0.024,0.184l0.025,0.185l0.025,0.185l0.026,0.186l0.028,0.186l0.028,0.187l0.029,0.187l0.03,0.188l0.031,0.188l0.032,0.189l0.033,0.189l0.034,0.189l0.035,0.19l0.036,0.19l0.037,0.191l0.037,0.19l0.039,0.191l0.039,0.192l0.041,0.192l0.042,0.192l0.042,0.193l0.043,0.193l0.045,0.193l0.045,0.193l0.046,0.194l0.048,0.193l0.048,0.195l0.049,0.194l0.05,0.195l0.052,0.194l0.052,0.195l0.053,0.195l0.054,0.196l0.055,0.195l0.056,0.196l0.057,0.196l0.058,0.196l0.059,0.196l0.061,0.196l0.06,0.196l0.063,0.197l0.063,0.196l0.064,0.197l0.065,0.196l0.066,0.197l0.067,0.197l0.068,0.196l0.069,0.197l0.07,0.197l0.071,0.197l0.072,0.196l0.073,0.197l0.074,0.197l0.075,0.196l0.076,0.197l0.077,0.197l0.078,0.196l0.08,0.196l0.08,0.197l0.081,0.196l0.082,0.196l0.083,0.196l0.085,0.196l0.085,0.195l0.086,0.196l0.088,0.195l0.088,0.195l0.09,0.195l0.09,0.195l0.091,0.194l0.093,0.195l0.094,0.194l0.094,0.194l0.096,0.193l0.097,0.194l0.097,0.193l0.099,0.193l0.1,0.192l0.101,0.192l0.102,0.192l0.103,0.192l0.104,0.191l0.105,0.191l0.106,0.191l0.107,0.19l0.109,0.19l0.109,0.189l0.11,0.19l0.112,0.188l0.112,0.189l0.114,0.187l0.115,0.188l0.115,0.187l0.117,0.186l0.118,0.187l0.119,0.185l0.12,0.185l0.121,0.185l0.122,0.184l0.123,0.184l0.125,0.183l0.125,0.183l0.127,0.182l0.127,0.182l0.129,0.181l0.13,0.18l0.13,0.18l0.132,0.179l0.133,0.179l0.134,0.178l0.136,0.178l0.136,0.176l0.137,0.177l0.139,0.175l0.139,0.175l0.141,0.175l0.142,0.173l0.143,0.173l0.144,0.173l0.144,0.171l0.147,0.171l0.147,0.17l0.149,0.17l0.149,0.168l0.151,0.168l0.151,0.167l0.153,0.167l0.154,0.166l0.155,0.164l0.156,0.164l0.158,0.164l0.158,0.162l0.16,0.162l0.161,0.161l0.161,0.16l0.163,0.159l0.165,0.159l0.165,0.157l0.166,0.157l0.168,0.155l0.168,0.155l0.17,0.154l0.171,0.153l0.172,0.152l0.174,0.152l0.174,0.15l0.176,0.149l0.098,0.083l0.008,-0.06l0.057,-0.442l0.054,-0.442l0.053,-0.444l0.051,-0.443l0.049,-0.445l0.046,-0.445l0.045,-0.445l0.042,-0.446l0.04,-0.446l0.039,-0.446l0.036,-0.446l0.034,-0.447l0.033,-0.446l0.03,-0.447l0.028,-0.447l0.026,-0.446l0.024,-0.446l0.022,-0.447l0.02,-0.446l0.018,-0.445l0.016,-0.445l0.014,-0.445l0.012,-0.444l0.01,-0.444l0.008,-0.443l0.005,-0.443l0.004,-0.441l0.002,-0.441l0,-0.44l-0.002,-0.439l-0.004,-0.439l-0.006,-0.437l-0.008,-0.436l-0.01,-0.435l-0.012,-0.434l-0.014,-0.432l-0.016,-0.432l-0.018,-0.429l-0.02,-0.429l-0.022,-0.427l-0.023,-0.425l-0.026,-0.424l-0.028,-0.422l-0.029,-0.421l-0.032,-0.419l-0.033,-0.416l-0.035,-0.415l-0.038,-0.413l-0.039,-0.411l-0.041,-0.409l-0.043,-0.407l-0.045,-0.405l-0.046,-0.402l-0.049,-0.4l-0.051,-0.398l-0.052,-0.395l-0.054,-0.393l-0.056,-0.39l-0.058,-0.387l-0.06,-0.385l-0.062,-0.382l-0.063,-0.38l-0.065,-0.376l-0.067,-0.374l-0.069,-0.371l-0.071,-0.367l-0.073,-0.365l-0.074,-0.361l-0.076,-0.358l-0.078,-0.355l-0.079,-0.351l-0.082,-0.349l-0.083,-0.344l-0.085,-0.341l-0.086,-0.338l-0.088,-0.333l-0.09,-0.33l-0.092,-0.327l-0.093,-0.322l-0.095,-0.319l-0.096,-0.314l-0.098,-0.311l-0.1,-0.306l-0.102,-0.304l-0.051,-0.147l-0.051,-0.149l-0.052,-0.147l-0.052,-0.146l-0.053,-0.145l-0.053,-0.144l-0.054,-0.143l-0.054,-0.142l-0.054,-0.141l-0.055,-0.139l-0.055,-0.139l-0.055,-0.137l-0.056,-0.136l-0.056,-0.135l-0.056,-0.133l-0.057,-0.133l-0.057,-0.131l-0.057,-0.13l-0.058,-0.129l-0.058,-0.128l-0.059,-0.126l-0.059,-0.126l-0.059,-0.124l-0.059,-0.122l-0.06,-0.122l-0.06,-0.12l-0.06,-0.118l-0.061,-0.118l-0.06,-0.117l-0.061,-0.114l-0.062,-0.114l-0.062,-0.113l-0.061,-0.11l-0.063,-0.11l-0.062,-0.108l-0.063,-0.107l-0.063,-0.106l-0.063,-0.104l-0.064,-0.103l-0.063,-0.102l-0.064,-0.1l-0.064,-0.098l-0.065,-0.097l-0.064,-0.096l-0.065,-0.095l-0.065,-0.093l-0.065,-0.091l-0.065,-0.091l-0.065,-0.088l-0.066,-0.088l-0.066,-0.086l-0.065,-0.084l-0.066,-0.083l-0.066,-0.082l-0.066,-0.079l-0.066,-0.079l-0.067,-0.077l-0.066,-0.076l-0.066,-0.074l-0.067,-0.072l-0.066,-0.071l-0.067,-0.07l-0.067,-0.069l-0.066,-0.066l-0.067,-0.065l-0.066,-0.064l-0.067,-0.062l-0.067,-0.061l-0.066,-0.059l-0.067,-0.058l-0.066,-0.057l-0.067,-0.055l-0.066,-0.053l-0.066,-0.052l-0.067,-0.051l-0.066,-0.049l-0.066,-0.048l-0.066,-0.046l-0.066,-0.045l-0.066,-0.043l-0.066,-0.043l-0.065,-0.04l-0.066,-0.04l-0.065,-0.038l-0.066,-0.036l-0.066,-0.036l-0.064,-0.034l-0.066,-0.033l-0.065,-0.031l-0.065,-0.03l-0.065,-0.03l-0.065,-0.027l-0.065,-0.027l-0.066,-0.025l-0.065,-0.024l-0.064,-0.023l-0.064,-0.021l-0.066,-0.021l-0.066,-0.019l-0.065,-0.018l-0.065,-0.017l-0.066,-0.016l-0.066,-0.015l-0.066,-0.014l-0.067,-0.012l-0.066,-0.011l-0.066,-0.011l-0.068,-0.009l-0.067,-0.008l-0.068,-0.006l-0.068,-0.006l-0.068,-0.004l-0.07,-0.004l-0.07,-0.002l-0.07,-0.001l-0.07,0Z" style="fill:#333;"/><path d="M139.52,373.4c0.1,-2 -1.7,-3.6 -3.6,-3.3c-9.8,1.3 -19.3,-0.4 -23.1,-1.3c-1.7,-0.4 -3.4,0.5 -3.9,2.1c-0.5,1.8 0.5,3.6 2.3,4c2.5,0.5 2.4,4.2 2.5,5.7c0.3,5 4.9,8.9 10.1,9c4.7,0.1 8.7,-2.9 10,-7.1c0.2,-0.9 0.8,-3.2 1.2,-4.7c0.2,-0.7 0.7,-1.2 1.4,-1.2c1.7,-0.4 3,-1.6 3.1,-3.2Z" style="fill:#171a21;fill-rule:nonzero;"/></g><g id="Shuttle"><path d="M461.618,171.1c0,0 31.1,-24.2 39,-45.6l-26.8,-38.8l-51.8,35.8l39.6,48.6Z" style="fill:#4d4d4d;fill-rule:nonzero;"/><path d="M383.219,57.4c0,0 33.7,-20.5 56.499,-20.3l26.8,38.8l-51.799,35.8l-31.5,-54.3Z" style="fill:#4d4d4d;fill-rule:nonzero;"/><path d="M452.618,138.7l-13.1,9l-86.799,59.9l5.8,8.4c44.5,-24.3 59.8,-3.2 89.199,12c20.3,10.5 26.5,10.3 45.7,-2.3c3.8,-2.5 8.1,-5.5 13.1,-9l-53.9,-78Z" style="fill:#c5d3e7;fill-rule:nonzero;"/><path d="M356.819,0c-5,3.5 -9.4,6.4 -13,9.1c-18.6,13.5 -21,19.2 -18.4,41.9c3.8,32.9 18.1,54.7 -20.4,87.7l5.8,8.4l86.8,-59.9l13.1,-9l-53.9,-78.2Z" style="fill:#c5d3e7;fill-rule:nonzero;"/><path d="M289.619,229.1c-4.9,-0.8 -13.1,-3.7 -17.8,-10.4c-4.5,-6.6 -4.3,-15.1 -3.5,-20c-4.8,-0.9 -13.6,-3.1 -18.1,-9.5l-7.3,27.1c5.3,2.7 10.3,7 14.2,12.6c3.9,5.6 6.1,11.8 6.7,17.7l28,2.7c-4.3,-6.6 -3.2,-15.5 -2.2,-20.2Z" style="fill:#747e8d;fill-rule:nonzero;"/><path d="M268.319,198.7c-0.8,4.8 -1,13.4 3.5,20c4.6,6.7 12.9,9.6 17.8,10.4c-1,4.7 -2,13.6 2.1,20.3l0.4,0l119.6,-82.5l-41.9,-60.6l-119.6,82.5l-0.1,0.5c4.6,6.3 13.4,8.5 18.2,9.4Z" style="fill:#171a21;fill-rule:nonzero;"/><path d="M456.918,135.7c2.8,-2 4.8,-4.9 5.4,-8.3c1.1,-6.2 -1.2,-16.2 -12,-31.8c-10.6,-15.4 -19.2,-21.1 -25.5,-22.4c-3.4,-0.7 -6.999,0.1 -9.899,2.1l-18,12.4l41.799,60.6l18.2,-12.6Z" style="fill:#171a21;fill-rule:nonzero;"/><path d="M396.915,87.642l-27.077,18.691l41.869,60.655l27.077,-18.69l-41.869,-60.656Z" style="fill:#5f45fc;"/><path d="M242.819,216.4l-6.7,24.9c-0.4,1.4 0.6,2.7 2,2.8l25.7,2.5c-0.6,-5.9 -2.9,-12.1 -6.7,-17.7c-4,-5.6 -9,-9.8 -14.3,-12.5Z" style="fill:#171a21;fill-rule:nonzero;"/><path d="M285.019,232.4l62.4,-43.1" style="fill:none;stroke:#f6f7f8;stroke-width:2px;"/><path d="M293.619,181.2l56.4,-39" style="fill:none;stroke:#f6f7f8;stroke-width:2px;"/><path d="M263.919,201.7l19.8,-13.7" style="fill:none;stroke:#f6f7f8;stroke-width:2px;"/></g><g id="Robot"><path d="M356.119,459.3l-29.7,-46l40.4,-26.1l-23,-35.6l-54.7,35.3l61.9,96l54.8,-35.3l-9.3,-14.3l-40.4,26Z" style="fill:#474a55;fill-rule:nonzero;"/><path d="M398.619,316.3l-54.8,35.3l23,35.6l40.5,-26l29.599,46l-40.399,26.1l9.3,14.3l54.699,-35.3l-61.899,-96Z" style="fill:#474a55;fill-rule:nonzero;"/><path d="M407.226,361.255l-40.423,26.071l29.702,46.053l40.423,-26.07l-29.702,-46.054Z" style="fill:#7a16ff;"/><path d="M220.219,482.3c6,-3.9 12.1,-8 18.3,-12.6l72.3,-49.5l-21.5,-33.4c0,0 -38.9,29.1 -64.7,37.7c-20.3,5.5 -42.4,2.4 -47.8,-15.1c-5.6,-17.9 3.4,-38 0.3,-46.3c-3.1,-8.4 -7.2,-8.4 -14.6,-14.1c-7,-5.3 -7.6,-11.5 -12.2,-9.7c-3.899,1.5 -11.099,10.1 -3.499,25.1c6.699,13.2 12.699,43 -28.1,42c-16,-0.4 -37.7,-17.3 -36.5,-31.1c1.2,-13.8 19.5,-18.4 24.8,-32c4.1,-10.5 -1.5,-21.7 -6.1,-22.1c-4.6,-0.4 -11.3,9.5 -26.7,19.1c-12.8,7.9 -22.6,14.8 -22.1,26c1.2,22.8 36.6,46 35,49.8c-2.1,4.9 -24.3,-12.9 -39.1,-36.3c-10.9,-17.2 -20.7,-28.4 -24.9,-28.8c-4.2,-0.4 -9.4,11.7 -0.1,30.7c14.4,29.4 43.7,48.4 40.5,54c-3.2,5.6 -24.3,-14.5 -38.3,-31.7c-12.5,-15.4 -20.2,-24.5 -24,-19.1c-2.3,3.3 -2.3,15.2 8.6,29.8c10.9,14.7 43.4,36.3 39.6,39.8c-3.8,3.5 -27.6,-18.9 -33.6,-19.8c-5.3,-0.8 -11.6,3.4 0.9,19.3c10.9,13.8 41.4,49.5 90.4,57.8c39.2,6.7 73.599,-4.1 113.099,-29.5l0,0Z" style="fill:#7a16ff;fill-rule:nonzero;"/><path d="M318.536,385.37c3.989,-2.573 9.316,-1.423 11.889,2.566c2.572,3.989 1.422,9.316 -2.566,11.888c-3.989,2.573 -9.317,1.423 -11.889,-2.566c-2.573,-3.989 -1.423,-9.316 2.566,-11.888Z" style="fill:#acc7ff;"/><path d="M304.619,376.9l78.6,-50.7l-5.5,-8.5c-14,-21.7 -42.9,-27.9 -64.6,-13.9c-21.7,14 -27.9,42.9 -13.9,64.6l5.4,8.5Z" style="fill:#acc7ff;fill-rule:nonzero;"/><path d="M321.219,366.2l45.3,-29.2l-4.9,-7.6c-8.1,-12.5 -24.8,-16.1 -37.3,-8c-12.5,8.1 -16.1,24.8 -8,37.3l4.9,7.5Z" style="fill:#171a21;fill-rule:nonzero;"/><path d="M298.371,281.057l0.143,0.018l0.142,0.03l0.138,0.042l0.135,0.053l0.129,0.065l0.124,0.074l0.118,0.085l0.11,0.094l0.102,0.102l0.093,0.111l0.083,0.118l20,30.9l0.074,0.125l0.062,0.13l0.052,0.135l0.041,0.139l0.029,0.141l0.018,0.144l0.005,0.145l-0.007,0.144l-0.018,0.143l-0.031,0.142l-0.041,0.138l-0.054,0.135l-0.064,0.13l-0.074,0.123l-0.085,0.118l-0.094,0.11l-0.102,0.102l-0.111,0.093l-0.118,0.083l-0.125,0.074l-0.13,0.063l-0.135,0.052l-0.139,0.04l-0.141,0.029l-0.144,0.018l-0.145,0.005l-0.144,-0.007l-0.144,-0.018l-0.141,-0.03l-0.138,-0.042l-0.135,-0.053l-0.13,-0.064l-0.124,-0.075l-0.117,-0.085l-0.11,-0.093l-0.102,-0.103l-0.093,-0.111l-0.083,-0.118l-20,-30.9l-0.074,-0.125l-0.063,-0.13l-0.052,-0.135l-0.04,-0.139l-0.029,-0.141l-0.018,-0.144l-0.005,-0.144l0.007,-0.145l0.018,-0.143l0.03,-0.142l0.042,-0.138l0.053,-0.135l0.064,-0.129l0.075,-0.124l0.085,-0.118l0.094,-0.11l0.102,-0.102l0.111,-0.093l0.118,-0.083l0.125,-0.074l0.13,-0.063l0.135,-0.052l0.139,-0.04l0.141,-0.029l0.144,-0.018l0.144,-0.005l0.145,0.007Z" style="fill:#333;"/><path d="M298.345,271.04l0.142,0.002l0.143,0.004l0.143,0.006l0.142,0.007l0.142,0.009l0.142,0.011l0.142,0.012l0.141,0.014l0.141,0.016l0.142,0.017l0.141,0.02l0.14,0.021l0.14,0.022l0.14,0.024l0.14,0.026l0.14,0.027l0.138,0.03l0.14,0.03l0.138,0.033l0.137,0.034l0.138,0.036l0.137,0.037l0.137,0.039l0.135,0.041l0.136,0.042l0.136,0.044l0.134,0.045l0.135,0.047l0.133,0.049l0.134,0.051l0.133,0.052l0.131,0.053l0.131,0.055l0.131,0.057l0.131,0.059l0.129,0.06l0.129,0.062l0.128,0.063l0.128,0.065l0.127,0.066l0.126,0.068l0.125,0.069l0.125,0.071l0.125,0.073l0.123,0.075l0.122,0.075l0.121,0.077l0.121,0.079l0.12,0.081l0.119,0.082l0.118,0.084l0.117,0.085l0.117,0.087l0.114,0.088l0.115,0.089l0.113,0.092l0.113,0.093l0.111,0.094l0.11,0.095l0.11,0.098l0.108,0.099l0.107,0.1l0.107,0.102l0.105,0.103l0.104,0.105l0.102,0.106l0.102,0.108l0.101,0.109l0.099,0.111l0.098,0.112l0.096,0.114l0.096,0.115l0.095,0.117l0.093,0.117l0.091,0.119l0.09,0.121l0.09,0.123l0.087,0.123l0.087,0.125l0.085,0.127l0.083,0.127l0.082,0.13l0.08,0.129l0.078,0.13l0.077,0.131l0.075,0.132l0.072,0.132l0.071,0.132l0.069,0.133l0.067,0.135l0.066,0.134l0.063,0.136l0.062,0.135l0.06,0.136l0.058,0.136l0.056,0.138l0.055,0.137l0.052,0.138l0.051,0.138l0.049,0.139l0.047,0.139l0.046,0.139l0.043,0.14l0.042,0.14l0.04,0.141l0.038,0.14l0.036,0.141l0.035,0.141l0.033,0.142l0.031,0.142l0.029,0.142l0.027,0.141l0.026,0.143l0.024,0.142l0.022,0.143l0.02,0.142l0.019,0.143l0.017,0.143l0.015,0.143l0.013,0.143l0.012,0.143l0.01,0.142l0.008,0.143l0.006,0.143l0.005,0.143l0.003,0.143l0.001,0.143l0,0.143l-0.003,0.142l-0.003,0.143l-0.006,0.143l-0.007,0.142l-0.009,0.141l-0.011,0.143l-0.013,0.141l-0.014,0.142l-0.016,0.141l-0.017,0.141l-0.019,0.141l-0.021,0.141l-0.022,0.14l-0.025,0.14l-0.025,0.14l-0.028,0.139l-0.029,0.139l-0.031,0.139l-0.032,0.138l-0.034,0.138l-0.036,0.137l-0.038,0.137l-0.039,0.137l-0.04,0.137l-0.042,0.135l-0.044,0.135l-0.046,0.135l-0.047,0.135l-0.049,0.133l-0.05,0.133l-0.052,0.133l-0.054,0.132l-0.055,0.132l-0.057,0.13l-0.058,0.13l-0.06,0.13l-0.062,0.129l-0.063,0.128l-0.065,0.128l-0.066,0.127l-0.068,0.126l-0.07,0.125l-0.071,0.125l-0.073,0.124l-0.074,0.123l-0.076,0.123l-0.077,0.121l-0.079,0.12l-0.08,0.12l-0.083,0.119l-0.083,0.118l-0.085,0.118l-0.087,0.116l-0.088,0.115l-0.09,0.115l-0.091,0.113l-0.093,0.113l-0.094,0.111l-0.096,0.11l-0.097,0.11l-0.099,0.108l-0.101,0.107l-0.102,0.107l-0.103,0.105l-0.105,0.103l-0.106,0.103l-0.107,0.101l-0.11,0.101l-0.111,0.099l-0.112,0.099l-0.114,0.097l-0.114,0.095l-0.117,0.094l-0.118,0.093l-0.119,0.092l-0.121,0.09l-0.122,0.089l-0.124,0.088l-0.125,0.086l-0.126,0.086l-0.128,0.083l-0.128,0.082l-0.13,0.08l-0.13,0.078l-0.131,0.077l-0.132,0.074l-0.132,0.073l-0.132,0.071l-0.134,0.069l-0.134,0.067l-0.135,0.066l-0.134,0.063l-0.136,0.062l-0.136,0.06l-0.137,0.058l-0.137,0.056l-0.137,0.054l-0.138,0.053l-0.138,0.051l-0.14,0.049l-0.138,0.047l-0.139,0.045l-0.141,0.044l-0.14,0.042l-0.14,0.04l-0.141,0.038l-0.141,0.036l-0.141,0.035l-0.141,0.032l-0.142,0.031l-0.142,0.03l-0.141,0.027l-0.143,0.026l-0.143,0.024l-0.143,0.022l-0.142,0.02l-0.142,0.019l-0.144,0.017l-0.142,0.015l-0.142,0.013l-0.145,0.012l-0.142,0.009l-0.142,0.009l-0.144,0.006l-0.143,0.005l-0.143,0.003l-0.142,0.001l-0.143,-0.001l-0.143,-0.002l-0.143,-0.004l-0.141,-0.005l-0.143,-0.008l-0.143,-0.009l-0.142,-0.011l-0.141,-0.012l-0.141,-0.014l-0.142,-0.016l-0.14,-0.017l-0.141,-0.019l-0.141,-0.021l-0.14,-0.023l-0.141,-0.024l-0.139,-0.026l-0.139,-0.027l-0.14,-0.029l-0.139,-0.031l-0.137,-0.032l-0.138,-0.035l-0.138,-0.035l-0.137,-0.038l-0.137,-0.039l-0.136,-0.041l-0.135,-0.042l-0.135,-0.044l-0.136,-0.045l-0.134,-0.047l-0.133,-0.049l-0.134,-0.051l-0.133,-0.052l-0.131,-0.053l-0.132,-0.056l-0.13,-0.056l-0.13,-0.058l-0.131,-0.061l-0.129,-0.061l-0.128,-0.063l-0.128,-0.065l-0.126,-0.066l-0.126,-0.069l-0.126,-0.069l-0.124,-0.071l-0.124,-0.073l-0.124,-0.074l-0.122,-0.076l-0.121,-0.077l-0.121,-0.079l-0.12,-0.081l-0.119,-0.082l-0.118,-0.083l-0.117,-0.086l-0.116,-0.086l-0.116,-0.089l-0.114,-0.089l-0.113,-0.091l-0.113,-0.093l-0.111,-0.095l-0.111,-0.096l-0.109,-0.097l-0.108,-0.099l-0.107,-0.1l-0.107,-0.101l-0.105,-0.104l-0.104,-0.105l-0.103,-0.106l-0.101,-0.108l-0.101,-0.109l-0.099,-0.111l-0.098,-0.112l-0.097,-0.114l-0.095,-0.115l-0.095,-0.116l-0.093,-0.118l-0.091,-0.119l-0.091,-0.121l-0.089,-0.122l-0.087,-0.124l-0.087,-0.125l-0.085,-0.127l-0.083,-0.127l-0.082,-0.129l-0.081,-0.13l-0.078,-0.13l-0.076,-0.131l-0.075,-0.131l-0.072,-0.132l-0.071,-0.133l-0.069,-0.133l-0.067,-0.134l-0.066,-0.135l-0.064,-0.135l-0.061,-0.136l-0.06,-0.135l-0.058,-0.137l-0.056,-0.137l-0.055,-0.137l-0.052,-0.139l-0.051,-0.138l-0.049,-0.139l-0.047,-0.139l-0.046,-0.139l-0.043,-0.14l-0.042,-0.14l-0.04,-0.14l-0.038,-0.141l-0.037,-0.141l-0.034,-0.141l-0.033,-0.142l-0.031,-0.141l-0.029,-0.142l-0.028,-0.142l-0.025,-0.143l-0.024,-0.142l-0.022,-0.142l-0.021,-0.143l-0.018,-0.143l-0.017,-0.143l-0.015,-0.143l-0.013,-0.142l-0.012,-0.143l-0.01,-0.143l-0.008,-0.143l-0.006,-0.143l-0.005,-0.143l-0.003,-0.143l-0.001,-0.143l0,-0.143l0.002,-0.142l0.004,-0.143l0.006,-0.142l0.007,-0.142l0.009,-0.142l0.011,-0.142l0.012,-0.142l0.015,-0.142l0.015,-0.141l0.018,-0.141l0.019,-0.141l0.021,-0.141l0.022,-0.14l0.025,-0.14l0.025,-0.14l0.028,-0.138l0.029,-0.14l0.031,-0.139l0.032,-0.138l0.034,-0.138l0.036,-0.137l0.037,-0.137l0.039,-0.137l0.041,-0.136l0.042,-0.136l0.044,-0.135l0.046,-0.135l0.047,-0.134l0.049,-0.134l0.05,-0.133l0.052,-0.132l0.054,-0.133l0.055,-0.131l0.057,-0.131l0.058,-0.131l0.06,-0.129l0.062,-0.129l0.063,-0.128l0.065,-0.128l0.066,-0.127l0.068,-0.126l0.07,-0.125l0.071,-0.124l0.072,-0.125l0.075,-0.123l0.075,-0.122l0.078,-0.122l0.079,-0.121l0.081,-0.119l0.081,-0.119l0.084,-0.118l0.085,-0.118l0.087,-0.116l0.088,-0.115l0.09,-0.114l0.091,-0.114l0.093,-0.112l0.094,-0.112l0.096,-0.11l0.097,-0.11l0.099,-0.108l0.1,-0.107l0.102,-0.106l0.104,-0.105l0.104,-0.104l0.107,-0.103l0.108,-0.102l0.109,-0.1l0.111,-0.099l0.112,-0.098l0.113,-0.097l0.115,-0.096l0.117,-0.094l0.118,-0.093l0.119,-0.092l0.121,-0.09l0.122,-0.089l0.124,-0.088l0.124,-0.086l0.127,-0.085l0.128,-0.084l0.128,-0.081l0.13,-0.081l0.13,-0.078l0.131,-0.076l0.132,-0.075l0.132,-0.073l0.132,-0.07l0.134,-0.069l0.134,-0.068l0.135,-0.065l0.134,-0.064l0.136,-0.061l0.136,-0.06l0.136,-0.058l0.137,-0.057l0.138,-0.054l0.138,-0.053l0.139,-0.051l0.138,-0.048l0.139,-0.048l0.14,-0.045l0.139,-0.043l0.14,-0.042l0.141,-0.041l0.141,-0.038l0.14,-0.036l0.141,-0.034l0.142,-0.033l0.142,-0.031l0.142,-0.029l0.142,-0.028l0.142,-0.026l0.143,-0.023l0.142,-0.022l0.142,-0.021l0.143,-0.019l0.143,-0.016l0.143,-0.016l0.143,-0.013l0.143,-0.011l0.142,-0.01l0.144,-0.008l0.143,-0.007l0.143,-0.004l0.143,-0.003l0.142,-0.002l0.143,0.001Zm-0.235,3.5l-0.101,0.002l-0.101,0.004l-0.1,0.004l-0.1,0.006l-0.101,0.007l-0.101,0.008l-0.1,0.009l-0.101,0.011l-0.101,0.012l-0.1,0.013l-0.1,0.014l-0.101,0.016l-0.1,0.017l-0.1,0.018l-0.099,0.019l-0.1,0.021l-0.1,0.021l-0.098,0.023l-0.1,0.025l-0.1,0.025l-0.099,0.027l-0.098,0.028l-0.098,0.029l-0.099,0.031l-0.097,0.032l-0.098,0.033l-0.098,0.035l-0.097,0.035l-0.097,0.037l-0.096,0.038l-0.096,0.04l-0.097,0.041l-0.095,0.042l-0.096,0.043l-0.095,0.045l-0.095,0.046l-0.094,0.047l-0.094,0.049l-0.094,0.051l-0.094,0.051l-0.092,0.052l-0.093,0.055l-0.092,0.055l-0.092,0.056l-0.091,0.059l-0.091,0.059l-0.089,0.06l-0.089,0.061l-0.087,0.062l-0.087,0.063l-0.085,0.064l-0.084,0.065l-0.083,0.066l-0.082,0.066l-0.081,0.067l-0.081,0.069l-0.079,0.069l-0.078,0.069l-0.076,0.071l-0.076,0.071l-0.074,0.072l-0.075,0.074l-0.072,0.074l-0.072,0.074l-0.07,0.076l-0.07,0.076l-0.068,0.077l-0.067,0.077l-0.066,0.078l-0.066,0.079l-0.064,0.08l-0.063,0.08l-0.062,0.081l-0.061,0.082l-0.06,0.082l-0.058,0.083l-0.058,0.084l-0.057,0.085l-0.055,0.084l-0.055,0.086l-0.053,0.086l-0.052,0.086l-0.051,0.088l-0.05,0.087l-0.049,0.089l-0.048,0.089l-0.047,0.089l-0.046,0.09l-0.044,0.09l-0.044,0.091l-0.042,0.092l-0.041,0.091l-0.04,0.093l-0.039,0.092l-0.038,0.093l-0.037,0.094l-0.035,0.094l-0.035,0.095l-0.033,0.094l-0.032,0.095l-0.031,0.096l-0.03,0.096l-0.029,0.096l-0.027,0.097l-0.027,0.096l-0.025,0.098l-0.024,0.097l-0.023,0.098l-0.022,0.098l-0.02,0.098l-0.02,0.099l-0.018,0.098l-0.017,0.099l-0.016,0.099l-0.015,0.099l-0.013,0.1l-0.013,0.099l-0.011,0.1l-0.01,0.1l-0.008,0.1l-0.008,0.1l-0.006,0.101l-0.006,0.1l-0.004,0.101l-0.002,0.1l-0.002,0.101l0,0.1l0.001,0.101l0.002,0.101l0.003,0.101l0.005,0.1l0.005,0.101l0.007,0.101l0.008,0.1l0.01,0.101l0.01,0.1l0.012,0.101l0.013,0.1l0.015,0.1l0.015,0.101l0.017,0.1l0.018,0.1l0.019,0.1l0.021,0.1l0.022,0.099l0.023,0.099l0.024,0.1l0.026,0.099l0.026,0.099l0.028,0.098l0.03,0.099l0.03,0.098l0.032,0.098l0.033,0.098l0.035,0.097l0.035,0.097l0.037,0.097l0.039,0.097l0.039,0.096l0.041,0.096l0.042,0.096l0.044,0.096l0.045,0.095l0.046,0.094l0.047,0.095l0.049,0.094l0.05,0.094l0.051,0.093l0.053,0.093l0.054,0.092l0.056,0.093l0.056,0.092l0.058,0.09l0.059,0.091l0.061,0.09l0.061,0.088l0.062,0.088l0.063,0.086l0.063,0.085l0.065,0.085l0.066,0.083l0.066,0.082l0.068,0.081l0.068,0.08l0.069,0.079l0.07,0.078l0.07,0.077l0.072,0.076l0.072,0.074l0.073,0.074l0.074,0.072l0.074,0.072l0.076,0.071l0.076,0.069l0.077,0.069l0.077,0.067l0.079,0.066l0.079,0.065l0.079,0.064l0.081,0.064l0.081,0.061l0.082,0.061l0.082,0.06l0.083,0.059l0.084,0.058l0.083,0.056l0.085,0.056l0.086,0.054l0.086,0.054l0.087,0.052l0.087,0.051l0.088,0.05l0.088,0.049l0.089,0.048l0.09,0.047l0.089,0.045l0.091,0.045l0.091,0.044l0.09,0.041l0.093,0.042l0.092,0.04l0.093,0.039l0.093,0.038l0.094,0.036l0.093,0.036l0.095,0.034l0.095,0.034l0.095,0.032l0.095,0.031l0.097,0.03l0.096,0.028l0.096,0.028l0.097,0.026l0.097,0.026l0.097,0.023l0.099,0.024l0.098,0.022l0.097,0.02l0.098,0.019l0.1,0.019l0.098,0.017l0.1,0.016l0.099,0.014l0.099,0.014l0.1,0.012l0.1,0.011l0.099,0.01l0.101,0.009l0.1,0.008l0.1,0.006l0.1,0.005l0.101,0.004l0.101,0.003l0.1,0.001l0.101,0.001l0.1,-0.001l0.101,-0.002l0.101,-0.003l0.1,-0.005l0.102,-0.006l0.101,-0.007l0.099,-0.008l0.101,-0.009l0.101,-0.011l0.1,-0.012l0.101,-0.013l0.101,-0.014l0.1,-0.016l0.099,-0.016l0.1,-0.018l0.1,-0.02l0.1,-0.02l0.1,-0.022l0.099,-0.023l0.099,-0.025l0.099,-0.025l0.099,-0.027l0.098,-0.028l0.099,-0.029l0.098,-0.031l0.098,-0.032l0.098,-0.033l0.097,-0.034l0.097,-0.036l0.098,-0.037l0.097,-0.038l0.096,-0.04l0.096,-0.041l0.095,-0.042l0.096,-0.043l0.095,-0.045l0.095,-0.046l0.094,-0.047l0.094,-0.049l0.094,-0.05l0.094,-0.052l0.092,-0.052l0.093,-0.054l0.092,-0.056l0.091,-0.056l0.092,-0.059l0.091,-0.059l0.089,-0.06l0.089,-0.061l0.087,-0.062l0.086,-0.063l0.085,-0.064l0.085,-0.065l0.083,-0.065l0.082,-0.067l0.082,-0.067l0.079,-0.068l0.079,-0.069l0.078,-0.07l0.077,-0.07l0.076,-0.072l0.075,-0.073l0.073,-0.073l0.073,-0.073l0.072,-0.075l0.07,-0.075l0.069,-0.076l0.069,-0.077l0.067,-0.078l0.067,-0.078l0.065,-0.079l0.064,-0.08l0.063,-0.08l0.062,-0.081l0.061,-0.082l0.059,-0.082l0.059,-0.083l0.058,-0.084l0.056,-0.084l0.056,-0.086l0.055,-0.085l0.053,-0.085l0.052,-0.087l0.051,-0.088l0.05,-0.087l0.049,-0.088l0.048,-0.09l0.047,-0.089l0.046,-0.09l0.044,-0.09l0.044,-0.091l0.042,-0.091l0.041,-0.092l0.04,-0.093l0.039,-0.092l0.038,-0.093l0.037,-0.094l0.035,-0.094l0.035,-0.095l0.033,-0.094l0.032,-0.095l0.031,-0.096l0.03,-0.096l0.029,-0.096l0.027,-0.096l0.027,-0.097l0.025,-0.097l0.024,-0.098l0.023,-0.098l0.022,-0.097l0.02,-0.099l0.02,-0.098l0.018,-0.099l0.017,-0.099l0.016,-0.099l0.015,-0.099l0.013,-0.1l0.012,-0.099l0.012,-0.1l0.009,-0.1l0.009,-0.1l0.008,-0.1l0.006,-0.101l0.005,-0.1l0.004,-0.1l0.003,-0.101l0.002,-0.1l0,-0.101l-0.001,-0.101l-0.002,-0.101l-0.003,-0.1l-0.005,-0.101l-0.005,-0.101l-0.007,-0.101l-0.009,-0.1l-0.009,-0.101l-0.011,-0.1l-0.011,-0.101l-0.014,-0.1l-0.014,-0.1l-0.015,-0.101l-0.017,-0.1l-0.018,-0.1l-0.02,-0.1l-0.02,-0.1l-0.022,-0.099l-0.023,-0.099l-0.024,-0.1l-0.026,-0.098l-0.027,-0.099l-0.028,-0.099l-0.029,-0.098l-0.031,-0.099l-0.031,-0.098l-0.033,-0.097l-0.035,-0.098l-0.036,-0.097l-0.037,-0.097l-0.038,-0.097l-0.039,-0.096l-0.041,-0.096l-0.043,-0.096l-0.043,-0.096l-0.045,-0.095l-0.046,-0.094l-0.047,-0.094l-0.049,-0.094l-0.05,-0.095l-0.052,-0.093l-0.052,-0.093l-0.054,-0.092l-0.055,-0.092l-0.057,-0.093l-0.058,-0.091l-0.06,-0.09l-0.06,-0.09l-0.061,-0.088l-0.062,-0.088l-0.063,-0.086l-0.064,-0.085l-0.064,-0.085l-0.066,-0.083l-0.066,-0.082l-0.068,-0.081l-0.068,-0.08l-0.069,-0.079l-0.07,-0.078l-0.07,-0.077l-0.072,-0.075l-0.072,-0.075l-0.073,-0.074l-0.074,-0.073l-0.075,-0.071l-0.075,-0.07l-0.076,-0.07l-0.077,-0.068l-0.078,-0.068l-0.078,-0.066l-0.079,-0.065l-0.079,-0.064l-0.081,-0.063l-0.081,-0.063l-0.082,-0.06l-0.082,-0.06l-0.083,-0.059l-0.083,-0.057l-0.085,-0.057l-0.084,-0.055l-0.087,-0.055l-0.086,-0.054l-0.086,-0.052l-0.087,-0.051l-0.088,-0.05l-0.088,-0.049l-0.089,-0.048l-0.09,-0.047l-0.089,-0.045l-0.091,-0.045l-0.09,-0.043l-0.092,-0.042l-0.092,-0.041l-0.092,-0.04l-0.093,-0.04l-0.094,-0.038l-0.093,-0.036l-0.094,-0.036l-0.094,-0.034l-0.095,-0.033l-0.096,-0.033l-0.094,-0.03l-0.096,-0.03l-0.097,-0.029l-0.096,-0.028l-0.097,-0.026l-0.097,-0.025l-0.098,-0.024l-0.098,-0.023l-0.097,-0.022l-0.099,-0.021l-0.098,-0.019l-0.098,-0.018l-0.099,-0.017l-0.1,-0.016l-0.1,-0.015l-0.099,-0.014l-0.098,-0.012l-0.101,-0.011l-0.1,-0.01l-0.099,-0.009l-0.1,-0.007l-0.102,-0.007l-0.1,-0.005l-0.1,-0.004l-0.1,-0.003l-0.101,-0.001l-0.101,0l-0.101,0Z" style="fill:#333;"/><path d="M310.649,342.012c4.685,-3.021 10.941,-1.671 13.963,3.014c3.021,4.685 1.67,10.941 -3.014,13.962c-4.685,3.021 -10.941,1.671 -13.962,-3.014c-3.022,-4.684 -1.671,-10.941 3.013,-13.962Z" style="fill:#fff;"/><path d="M332.857,327.705c4.685,-3.021 10.941,-1.67 13.962,3.014c3.022,4.685 1.671,10.941 -3.014,13.962c-4.684,3.022 -10.94,1.671 -13.962,-3.013c-3.021,-4.685 -1.671,-10.941 3.014,-13.963Z" style="fill:#fff;"/><path d="M333.585,341.682l-0.209,0.028l-0.195,0.028l-0.191,0.029l-0.19,0.031l-0.186,0.032l-0.184,0.034l-0.181,0.035l-0.177,0.035l-0.175,0.038l-0.173,0.038l-0.169,0.04l-0.167,0.041l-0.164,0.041l-0.161,0.043l-0.159,0.044l-0.156,0.045l-0.153,0.046l-0.151,0.047l-0.148,0.048l-0.146,0.049l-0.143,0.049l-0.141,0.05l-0.138,0.051l-0.136,0.052l-0.133,0.053l-0.131,0.053l-0.129,0.054l-0.126,0.054l-0.124,0.056l-0.122,0.055l-0.119,0.057l-0.118,0.057l-0.114,0.057l-0.113,0.058l-0.111,0.058l-0.108,0.059l-0.107,0.059l-0.104,0.059l-0.102,0.06l-0.1,0.06l-0.099,0.06l-0.096,0.061l-0.093,0.06l-0.093,0.062l-0.091,0.061l-0.088,0.062l-0.087,0.061l-0.084,0.062l-0.084,0.062l-0.081,0.061l-0.079,0.062l-0.078,0.062l-0.076,0.062l-0.075,0.062l-0.072,0.061l-0.071,0.062l-0.069,0.061l-0.068,0.062l-0.067,0.062l-0.064,0.061l-0.063,0.06l-0.061,0.061l-0.06,0.061l-0.059,0.06l-0.056,0.06l-0.056,0.059l-0.054,0.06l-0.053,0.059l-0.051,0.058l-0.05,0.058l-0.049,0.058l-0.047,0.057l-0.046,0.057l-0.045,0.057l-0.043,0.056l-0.042,0.055l-0.041,0.054l-0.039,0.054l-0.039,0.054l-0.037,0.053l-0.036,0.052l-0.032,0.048l-0.069,0.104l-0.062,0.098l-0.057,0.094l-0.053,0.091l-0.049,0.087l-0.045,0.084l-0.041,0.079l-0.037,0.074l-0.033,0.07l-0.031,0.066l-0.026,0.06l-0.024,0.056l-0.02,0.05l-0.017,0.042l-0.014,0.039l-0.012,0.032l-0.007,0.02l-0.012,0.038l-0.002,0.006l0.001,-0.002l-3.856,-1.066l0.01,-0.035l0.027,-0.092l0.039,-0.12l0.028,-0.08l0.029,-0.082l0.034,-0.089l0.038,-0.097l0.042,-0.102l0.045,-0.108l0.051,-0.115l0.056,-0.121l0.06,-0.126l0.066,-0.132l0.071,-0.136l0.076,-0.141l0.081,-0.145l0.088,-0.151l0.093,-0.154l0.1,-0.157l0.103,-0.158l0.058,-0.085l0.057,-0.083l0.058,-0.083l0.06,-0.083l0.062,-0.085l0.064,-0.086l0.065,-0.085l0.067,-0.087l0.069,-0.086l0.071,-0.087l0.072,-0.088l0.074,-0.088l0.076,-0.089l0.078,-0.089l0.08,-0.089l0.081,-0.089l0.084,-0.09l0.085,-0.09l0.088,-0.09l0.089,-0.09l0.091,-0.09l0.094,-0.091l0.095,-0.09l0.097,-0.089l0.099,-0.091l0.102,-0.09l0.103,-0.09l0.106,-0.09l0.107,-0.089l0.11,-0.089l0.112,-0.089l0.114,-0.089l0.116,-0.088l0.118,-0.088l0.12,-0.088l0.123,-0.087l0.125,-0.087l0.127,-0.085l0.129,-0.085l0.132,-0.086l0.133,-0.084l0.136,-0.084l0.138,-0.082l0.141,-0.082l0.143,-0.082l0.145,-0.08l0.147,-0.08l0.149,-0.079l0.153,-0.078l0.154,-0.077l0.156,-0.075l0.16,-0.076l0.161,-0.074l0.164,-0.073l0.167,-0.072l0.168,-0.07l0.171,-0.07l0.173,-0.068l0.176,-0.067l0.178,-0.066l0.181,-0.065l0.184,-0.063l0.185,-0.062l0.188,-0.061l0.191,-0.059l0.193,-0.058l0.196,-0.056l0.198,-0.055l0.201,-0.053l0.203,-0.052l0.206,-0.051l0.209,-0.048l0.21,-0.047l0.214,-0.046l0.217,-0.044l0.219,-0.042l0.221,-0.04l0.224,-0.039l0.227,-0.037l0.23,-0.035l0.232,-0.033l0.225,-0.03l0.532,3.964Z" style="fill:#fff;"/><path d="M422.318,443.9c7.3,11.4 7.3,24.4 0,29.1c-7.299,4.7 -19.199,-0.6 -26.599,-12l26.599,-17.1Z" style="fill:#171a21;fill-rule:nonzero;"/><path d="M613.118,235.6c-56.2,-8.5 -106.3,7.9 -151.8,36.9c-0.5,0.2 -0.9,0.4 -1.4,0.7c-1,0.7 -1.9,1.3 -2.9,2c-5.9,3.9 -11.8,8 -17.6,12.3c-21.499,15.2 -40.799,28.8 -40.799,28.8l21.399,33.5l42.5,-25.5c14,-8.4 51.8,-29.3 86.3,-28.8c37.1,0.5 73.9,25.5 60.9,61.9c-8.8,24.5 -45.1,44.5 -71,37.5c-26.2,-7.1 -44.9,-20.7 -45,-10.4c-0.1,9.1 16.9,21.2 26.6,25.1c12.2,4.9 14.5,6.6 -4.7,11.1c-34.4,8.1 -59.2,24.5 -59.7,32.9c-0.5,8.4 30.7,-10.7 46.6,-10.7c7.6,0 -14.2,4.3 -34.2,34.8c-8.9,13.7 -2.7,15.4 12,3.5c20.8,-17 34.5,-28.2 38.5,-26c4,2.2 -2.9,5.6 -9.9,24.3c-11.7,31.6 0,34.6 10.9,15.5c10.9,-19.2 26.3,-37.7 30.7,-35.5c4.4,2.2 -4.1,13.2 -8.4,37.7c-2.1,12.3 1.8,30.8 12.6,1.4c10.3,-27.9 25.7,-39.5 45.8,-45c76.5,-21 95.599,-51.4 106.399,-80.8c27.5,-74.1 -28.299,-127.3 -93.799,-137.2Z" style="fill:#7a16ff;fill-rule:nonzero;"/><path d="M519.518,418.2c0.2,-0.2 18.4,-3.5 28.6,-4.8" style="fill:none;stroke:#f6f7f8;stroke-width:2px;"/><path d="M320.019,348.4c1.1,2.1 0.3,4.8 -1.9,5.9c-2.1,1.1 -4.8,0.3 -5.9,-1.9" style="fill:none;stroke:#7415fc;stroke-width:2px;"/><path d="M342.219,334.1c1.1,2.1 0.3,4.8 -1.9,5.9c-2.1,1.1 -4.8,0.3 -5.9,-1.9" style="fill:none;stroke:#7415fc;stroke-width:2px;"/><path d="M384.919,440.8l11.7,-7.5l-29.7,-46l-28.8,18.6c4.4,6.3 19.7,25.5 46.8,34.9Z" style="fill:#fff;fill-rule:nonzero;"/><path d="M338.019,405.8l-11.6,7.5l29.7,46l28.8,-18.5c-27.1,-9.4 -42.4,-28.6 -46.9,-35Z" style="fill:#acc7ff;fill-rule:nonzero;"/></g></g></svg>