<svg width="48" height="48" viewBox="0 0 48 48" version="1.1" xmlns="http://www.w3.org/2000/svg" xmlns:xlink="http://www.w3.org/1999/xlink">
<title>default_avatar</title>
<desc>Created using Figma</desc>
<g id="Canvas" transform="translate(213 778)">
<g id="default_avatar">
<g id="Rectangle 27">
<use xlink:href="#path0_fill" transform="translate(-213 -778)" fill="url(#paint0_radial)"/>
</g>
<g id="Group">
<g id="Subtract">
<use xlink:href="#path1_fill" transform="translate(-200.759 -749.577)" fill="#B9C5DC"/>
</g>
<g id="Intersect">
<use xlink:href="#path2_fill" transform="translate(-194 -748.257)" fill="#B9C5DC"/>
</g>
<g id="Union">
<use xlink:href="#path3_fill" transform="translate(-197 -765)" fill="#B9C5DC"/>
</g>
</g>
</g>
</g>
<defs>
<radialGradient id="paint0_radial" cx="0.5" cy="0.5" r="0.5" gradientUnits="userSpaceOnUse" gradientTransform="matrix(96 96 -96 96 0 -96)">
<stop offset="0" stop-color="#F6FBFF"/>
<stop offset="1" stop-color="#E6ECF7"/>
</radialGradient>
<path id="path0_fill" d="M 0 0L 48 0L 48 48L 0 48L 0 0Z"/>
<path id="path1_fill" fill-rule="evenodd" d="M 4.88844 1.41515C 5.26366 1.28711 5.28904 0.642277 4.92656 0.4817L 4.92656 0.4817C 4.92656 0.4817 4.92656 0.481699 4.92656 0.481699C 4.92656 0.481699 4.92656 0.481699 4.92656 0.481698C 4.24659 0.180474 3.4653 -0.214356 2.81138 0.139872C 1.31657 0.949612 0.440081 2.06362 0.0345101 3.45736C -0.135645 4.04209 0.347424 4.5774 0.956412 4.5774L 0.956412 4.5774C 1.45915 4.5774 1.86863 4.20265 2.04855 3.73321C 2.31664 3.0337 2.77709 2.50863 3.45447 2.07961C 3.45448 2.0796 3.45449 2.0796 3.45449 2.07959C 3.83867 1.83629 4.31137 1.61207 4.88844 1.41515ZM 18.5921 0.481703C 18.1812 0.663761 18.1955 1.40512 18.6142 1.56829C 19.1733 1.78612 19.6357 2.02887 20.0147 2.28491C 20.0147 2.28492 20.0148 2.28493 20.0148 2.28493C 20.6666 2.72531 21.1086 3.22853 21.3846 3.79436C 21.5975 4.23068 22.0015 4.5774 22.487 4.5774L 22.487 4.5774C 23.1197 4.5774 23.6129 4.00883 23.3941 3.41509C 22.932 2.16093 22.0065 1.06196 20.4782 0.229787C 19.8971 -0.0866834 19.1972 0.213628 18.5922 0.481689C 18.5922 0.481691 18.5922 0.481694 18.5922 0.481696C 18.5921 0.481698 18.5921 0.481701 18.5921 0.481703L 18.5921 0.481703ZM 23.7594 5.57746C 23.7594 5.57746 23.7594 5.57746 23.7594 5.57746L 23.7594 5.57746C 23.7594 5.57748 23.7594 5.57748 23.7594 5.57746L 23.7594 5.57746C 23.7594 5.57744 23.7594 5.57744 23.7594 5.57746L 23.7594 5.57746Z"/>
<path id="path2_fill" fill-rule="evenodd" d="M 10 1.0117C 10 1.47244 9.67711 1.87244 9.22244 1.94694C 7.79322 2.18114 6.34036 2.25567 5.00065 2.25652C 5.00023 2.25652 4.99983 2.25652 4.99942 2.25652C 3.65967 2.25567 2.2068 2.18114 0.777567 1.94694C 0.322892 1.87244 0 1.47243 0 1.01169L 0 1.01169C 0 0.381478 0.591055 -0.0833936 1.21392 0.0125762C 2.44653 0.202494 3.72953 0.256522 5.00003 0.256522L 5.00003 0.256522C 6.27051 0.256522 7.5535 0.202494 8.78608 0.0125797C 9.40894 -0.0833907 10 0.381482 10 1.0117L 10 1.0117Z"/>
<path id="path3_fill" fill-rule="evenodd" d="M 13.1384 12.912C 13.6794 12.311 14 11.1043 14 8C 14 4.68628 11.3137 2 8 2C 4.68628 2 2 4.68628 2 8C 2 11.1043 2.32059 12.311 2.8616 12.912C 3.34753 13.452 4.50317 14 8 14C 11.4968 14 12.6525 13.452 13.1384 12.912ZM 8 16C 15 16 16 14 16 8C 16 3.58173 12.4183 0 8 0C 3.58173 0 0 3.58173 0 8C 0 14 1 16 8 16ZM 11 8C 11 8.54773 11.4396 9 11.9873 9L 12.0153 9C 12.5562 9 12.9996 8.56976 13 8.02893L 13 8C 13 6.01105 11.8387 4.29333 10.1572 3.48798C 9.58696 3.2149 9 3.69116 9 4.32343L 9 4.4635C 9 4.88733 9.27745 5.25189 9.63281 5.48285C 10.4558 6.01776 11 6.94531 11 8ZM 17 0C 16.4477 0 16 0.447693 16 1L 16 4C 16 4.55231 16.4477 5 17 5C 17.5523 5 18 4.55231 18 4L 18 1C 18 0.447693 17.5523 0 17 0Z"/>
</defs>
</svg>
