<svg width="96" height="96" viewBox="0 0 96 96" version="1.1" xmlns="http://www.w3.org/2000/svg" xmlns:xlink="http://www.w3.org/1999/xlink">
<title>default_avatar</title>
<desc>Created using Figma</desc>
<g id="Canvas" transform="matrix(2 0 0 2 1282 -690)">
<clipPath id="clip-0" clip-rule="evenodd">
<path d="M -641 345L -593 345L -593 393L -641 393L -641 345Z" fill="#FFFFFF"/>
</clipPath>
<g id="default_avatar" clip-path="url(#clip-0)">
<g id="default_avatar">
<g id="Rectangle 27">
<use xlink:href="#path0_fill" transform="translate(-641 345)" fill="url(#paint0_radial)"/>
</g>
</g>
<g id="Subtract">
<use xlink:href="#path1_fill" transform="translate(-604 355)" fill="#FFFFFF"/>
</g>
<g id="Subtract">
<use xlink:href="#path2_fill" transform="translate(-615 362.626)" fill="#FFFFFF"/>
</g>
<g id="Ellipse 21">
<use xlink:href="#path3_fill" transform="translate(-633 357)" fill="#FFFFFF" fill-opacity="0.6" style="mix-blend-mode:overlay"/>
</g>
<g id="Ellipse 21">
<use xlink:href="#path3_fill" transform="translate(-637 365)" fill="#FFFFFF" fill-opacity="0.6" style="mix-blend-mode:overlay"/>
</g>
<g id="Ellipse 21">
<use xlink:href="#path3_fill" transform="translate(-637 378)" fill="#FFFFFF" fill-opacity="0.6" style="mix-blend-mode:overlay"/>
</g>
<g id="Ellipse 21">
<use xlink:href="#path3_fill" transform="translate(-625 349)" fill="#FFFFFF" fill-opacity="0.6" style="mix-blend-mode:overlay"/>
</g>
<g id="Ellipse 21" opacity="0.4">
<use xlink:href="#path3_fill" transform="translate(-619 351)" fill="#FFFFFF"/>
</g>
<g id="Ellipse 21">
<use xlink:href="#path3_fill" transform="translate(-611 353)" fill="#FFFFFF" fill-opacity="0.6"/>
</g>
<g id="Ellipse 21">
<use xlink:href="#path3_fill" transform="translate(-606 351)" fill="#FFFFFF" fill-opacity="0.6" style="mix-blend-mode:overlay"/>
</g>
<g id="Ellipse 21">
<use xlink:href="#path3_fill" transform="translate(-598 366)" fill="#FFFFFF" fill-opacity="0.4"/>
</g>
<g id="Ellipse 21" opacity="0.4">
<use xlink:href="#path3_fill" transform="translate(-596 370)" fill="#FFFFFF" fill-opacity="0.7"/>
</g>
<g id="Ellipse 22">
<mask id="mask0_outline_ins">
<use xlink:href="#path4_fill" fill="white" transform="translate(-641 345)"/>
</mask>
<g mask="url(#mask0_outline_ins)">
<use xlink:href="#path5_stroke_2x" transform="translate(-641 345)" fill="#0F015E" fill-opacity="0.5" style="mix-blend-mode:soft-light"/>
</g>
</g>
<g id="Subtract">
<use xlink:href="#path6_fill" transform="translate(-635 355)" fill="#FFFFFF"/>
</g>
</g>
</g>
<defs>
<radialGradient id="paint0_radial" cx="0.5" cy="0.5" r="0.5" gradientUnits="userSpaceOnUse" gradientTransform="matrix(96 96 -96 96 0 -96)">
<stop offset="0" stop-color="#03AAFB"/>
<stop offset="1" stop-color="#0F015E"/>
</radialGradient>
<path id="path0_fill" d="M 0 24C 0 10.7452 10.7452 0 24 0C 37.2548 0 48 10.7452 48 24C 48 37.2548 37.2548 48 24 48C 10.7452 48 0 37.2548 0 24Z"/>
<path id="path1_fill" fill-rule="evenodd" d="M 1 1.15991e-34L 1 0C 0.447693 0 8.32108e-18 0.447723 1.15995e-34 1L 0 1L 0 6.33102C 0 6.41461 0.0417715 6.49266 0.111316 6.53903L 0.32818 6.68362C 0.328184 6.68362 0.328188 6.68363 0.328192 6.68363C 0.764928 6.97478 1.15601 7.318 1.49545 7.70204C 1.65947 7.8876 2 7.77771 2 7.53005L 2 1L 2 1C 2 0.447723 1.55231 8.32121e-18 1 1.15991e-34ZM 0.153871 9.53318C 0.0579723 9.38129 0.224717 9.30235 0.324588 9.45165L 0.324588 9.45165C 0.4245 9.60102 0.288033 9.72473 0.184021 9.57819C 0.173578 9.56347 0.163523 9.54847 0.153871 9.53318Z"/>
<path id="path2_fill" fill-rule="evenodd" d="M 3.00006 5.29497L 3.00006 5.29497C 3.00006 5.66705 2.99622 6.00293 2.98889 6.30655C 2.97497 6.88392 3.43224 7.37422 4.00978 7.37422L 4.00978 7.37422C 4.53439 7.37422 4.96969 6.96679 4.98473 6.4424C 4.99466 6.09592 5.00006 5.71466 5.00006 5.29497L 5.00006 5.29497C 5.00006 2.71116 3.31727 0.551513 1.06991 0.0228151C 0.489723 -0.113674 0 0.382173 0 0.978194L 0 0.978194C 0 1.57422 0.50038 2.03888 1.0529 2.2624C 2.1904 2.72256 3.00006 3.90673 3.00006 5.29497Z"/>
<path id="path3_fill" d="M 1 0.5C 1 0.776142 0.776142 1 0.5 1C 0.223858 1 0 0.776142 0 0.5C 0 0.223858 0.223858 0 0.5 0C 0.776142 0 1 0.223858 1 0.5Z"/>
<path id="path4_fill" d="M 48 24C 48 37.2548 37.2548 48 24 48C 10.7452 48 0 37.2548 0 24C 0 10.7452 10.7452 0 24 0C 37.2548 0 48 10.7452 48 24Z"/>
<path id="path5_stroke_2x" d="M 46 24C 46 36.1503 36.1503 46 24 46L 24 50C 38.3594 50 50 38.3594 50 24L 46 24ZM 24 46C 11.8497 46 2 36.1503 2 24L -2 24C -2 38.3594 9.6406 50 24 50L 24 46ZM 2 24C 2 11.8497 11.8497 2 24 2L 24 -2C 9.6406 -2 -2 9.6406 -2 24L 2 24ZM 24 2C 36.1503 2 46 11.8497 46 24L 50 24C 50 9.6406 38.3594 -2 24 -2L 24 2Z"/>
<path id="path6_fill" fill-rule="evenodd" d="M 25.9208 34.531C 23.4631 35.4798 20.7923 36 18 36C 15.2077 36 12.5369 35.4798 10.0792 34.531C 10.1037 34.2871 10.1354 34.0649 10.176 33.8594C 10.2037 33.7191 10.2358 33.5794 10.2759 33.4421C 10.4095 32.9839 10.5659 32.8328 10.7086 32.7328L 10.7101 32.7317C 10.9697 32.5504 11.52 32.3261 12.7626 32.1824L 12.8278 32.175C 14.0985 32.0315 15.7473 31.9999 17.9984 32L 18.0016 32C 20.2527 31.9999 21.9015 32.0315 23.1722 32.175L 23.2374 32.1824C 24.48 32.3261 25.0303 32.5504 25.2899 32.7317L 25.2914 32.7328C 25.4341 32.8328 25.5905 32.9839 25.7241 33.4421C 25.7642 33.5794 25.7963 33.7191 25.824 33.8594C 25.8646 34.0649 25.8963 34.2871 25.9208 34.531ZM 27.822 33.6911C 27.2868 30.3648 25.2493 30 18 30C 10.7507 30 8.7132 30.3648 8.17804 33.6911C 5.37585 32.2907 2.91443 30.3097 0.951294 27.9058C 1.50409 26.8798 2.27386 25.9904 3.19635 25.2967C 3.4212 25.1277 3.72925 25.1528 3.96332 25.3089L 6.99182 27.3279L 6.9928 27.3285C 7.64978 27.7664 8.42157 28 9.21112 28L 18 28L 26.7889 28C 27.5784 28 28.3502 27.7664 29.0072 27.3285L 29.0082 27.3279L 32.0367 25.3089C 32.2708 25.1528 32.5788 25.1277 32.8036 25.2967C 33.7261 25.9904 34.4959 26.8798 35.0487 27.9058C 33.0856 30.3097 30.6241 32.2907 27.822 33.6911ZM 25.9994 36.6346C 23.4973 37.5189 20.8049 38 18 38C 15.1951 38 12.5027 37.5189 10.0006 36.6346C 10.0001 36.7495 10 36.8676 10 36.989L 10 37.011C 9.99976 38.4302 10.0286 39.3954 10.176 40.1406C 10.2037 40.2809 10.2358 40.4206 10.2759 40.5579C 10.4095 41.0161 10.5659 41.1672 10.7086 41.2672L 10.7101 41.2683C 10.9697 41.4496 11.52 41.6739 12.7626 41.8176L 12.8278 41.825C 14.0985 41.9685 15.7473 42.0001 17.9984 42L 18.0016 42C 20.2527 42.0001 21.9015 41.9685 23.1722 41.825L 23.2374 41.8176C 24.48 41.6739 25.0303 41.4496 25.2899 41.2683L 25.2914 41.2672C 25.4341 41.1672 25.5905 41.0161 25.7241 40.5579C 25.7642 40.4206 25.7963 40.2809 25.824 40.1406C 25.9714 39.3954 26.0002 38.4302 26 37.011L 26 36.989C 26 36.8676 25.9999 36.7495 25.9994 36.6346ZM 8.01239 35.8295C 5.01379 34.4554 2.34729 32.4815 0.166321 30.0614C 0.057373 30.5879 0 31.134 0 31.6944L 0 35C 0 39.4183 3.58173 43 8 43C 8.4906 43 8.80066 42.1856 8.59039 41.7423C 8.09723 40.7025 8 39.1915 8 37C 8 36.586 8.00342 36.1964 8.01239 35.8295ZM 27.9876 35.8295C 30.9862 34.4554 33.6527 32.4815 35.8337 30.0614C 35.9426 30.5879 36 31.134 36 31.6944L 36 35C 36 39.4183 32.4183 43 28 43C 27.5094 43 27.1993 42.1856 27.4096 41.7423C 27.9028 40.7025 28 39.1915 28 37C 28 36.586 27.9966 36.1964 27.9876 35.8295ZM 29 13C 29 16.4936 28.4916 19.1509 27.061 20.9459C 25.7104 22.6404 23.1696 24 18 24C 12.8304 24 10.2896 22.6404 8.93903 20.9459C 7.50842 19.1509 7 16.4936 7 13C 7 6.92487 11.9249 2 18 2C 24.0751 2 29 6.92487 29 13ZM 5.99493 8.00339L 4.78119 8.81253C 3.6684 9.55438 3 10.8033 3 12.1407L 3 20.0775C 3 21.2926 3.55237 22.4419 4.50122 23.201L 6.90436 25.1235C 7.61359 25.6909 8.49481 26 9.40314 26L 18 26L 26.5969 26C 27.5052 26 28.3864 25.6909 29.0956 25.1235L 31.4988 23.201C 32.4476 22.4419 33 21.2926 33 20.0775L 33 12.1407C 33 10.8033 32.3316 9.55438 31.2188 8.81253L 30.0051 8.00339C 28.0468 3.30368 23.4092 0 18 0C 12.5908 0 7.95325 3.30368 5.99493 8.00339Z"/>
</defs>
</svg>
