<svg width="1920" height="240" viewBox="0 0 1920 240" version="1.1" xmlns="http://www.w3.org/2000/svg" xmlns:xlink="http://www.w3.org/1999/xlink" xmlns:figma="http://www.figma.com/figma/ns">
<title>goopy-3</title>
<desc>Created using Figma</desc>
<g id="Canvas" transform="translate(961 -1689)" figma:type="canvas">
<mask id="mask0_alpha" mask-type="alpha">
<path d="M -961 1689L 959 1689L 959 1929L -961 1929L -961 1689Z" fill="#FFFFFF"/>
</mask>
<g id="goopy-3" mask="url(#mask0_alpha)" figma:type="frame">
<g id="Vector 3" figma:type="vector">
<use xlink:href="#path0_fill" transform="translate(-995 1833)" fill="#1CD2F2"/>
</g>
<g id="Ellipse 10" figma:type="vector">
<use xlink:href="#path1_fill" transform="matrix(0.991782 0.127935 -0.127935 0.991782 534.121 1800)" fill="#1CD2F2"/>
</g>
</g>
</g>
<defs>
<path id="path0_fill" d="M 826.5 52.5C 503 -19.5 182 0 0 69L 0 168.5L 2098 168.5C 2110 135.333 2129.6 62.9 2112 38.5C 2090 8.00008 2040 38.5 1868.5 69C 1697 99.5 1661.5 4.77135e-05 1526 0C 1390.5 -4.77135e-05 1150 124.5 826.5 52.5Z"/>
<path id="path1_fill" d="M 86.5 14C 86.5 19.799 64.7482 14 41 14C 17.2518 14 0 17.799 0 12C 0 6.20101 19.7518 0 43.5 0C 67.2482 0 86.5 8.20101 86.5 14Z"/>
</defs>
</svg>
