<?xml version="1.0" encoding="UTF-8" standalone="no"?><!DOCTYPE svg PUBLIC "-//W3C//DTD SVG 1.1//EN" "http://www.w3.org/Graphics/SVG/1.1/DTD/svg11.dtd"><svg width="100%" height="100%" viewBox="0 0 32 32" version="1.1" xmlns="http://www.w3.org/2000/svg" xmlns:xlink="http://www.w3.org/1999/xlink" xml:space="preserve" style="fill-rule:evenodd;clip-rule:evenodd;stroke-linejoin:round;stroke-miterlimit:1.41421;"><path id="pinned.-tab" d="M16,29c11,0 12,-1 12,-12c0,-11 -1,-12 -12,-12c-11,0 -12,1 -12,12c0,11 1,12 12,12Zm-4.5,-12c-0.276,0 -0.5,-0.224 -0.5,-0.5l0,-4c0,-0.276 0.224,-0.5 0.5,-0.5l1.5,0c4.418,0 8,3.582 8,8l0,1.5c0,0.276 -0.224,0.5 -0.5,0.5l-4,0c-0.276,0 -0.5,-0.224 -0.5,-0.5l0,-1.5c0,-1.657 -1.343,-3 -3,-3l-1.5,0Z"/></svg>