<?xml version="1.0" encoding="UTF-8" standalone="no"?><!DOCTYPE svg PUBLIC "-//W3C//DTD SVG 1.1//EN" "http://www.w3.org/Graphics/SVG/1.1/DTD/svg11.dtd"><svg width="100%" height="100%" viewBox="0 0 565 378" version="1.1" xmlns="http://www.w3.org/2000/svg" xmlns:xlink="http://www.w3.org/1999/xlink" xml:space="preserve" style="fill-rule:evenodd;clip-rule:evenodd;stroke-linejoin:round;stroke-miterlimit:1.41421;"><g id="planet.-1"><g><path d="M159.3,88.3c0.7,-0.3 0.4,-0.5 -2.3,0.3c0.1,0 0.3,0 0.4,0c0.7,-0.1 1.3,-0.2 1.9,-0.3Z" style="fill:#acc7ff;fill-rule:nonzero;"/><path d="M564.4,189.5c0,-85.1 -60.8,-162.3 -143.5,-181.7c-79.3,-18.6 -171.7,-4.7 -229.2,57.7c-5.2,5.6 -9.4,11.8 -15.7,16.3c-11.9,8.5 -28.3,9.4 -41.3,2.9c-15.7,-7.8 -26.7,-21.3 -44.1,-25.8c-41,-10.7 -77.2,12.9 -87.7,53c-8.7,33 6.9,65.9 35.1,83.9c29.4,18.7 64,18 92.9,-0.6c5.5,-3.6 11.1,-7.8 17.1,-10.3c19.1,-7.9 35.5,3.7 38.6,22.4c11.7,69.4 57.8,130.2 123.2,156.7c21.7,8.8 44.9,13.4 68.3,13.5c0.4,0 0.8,0 1.2,0c102.2,0 185.1,-82.9 185.1,-185.1l0,-2.9Zm-425.9,-102.8c-0.2,0.2 -1,-0.2 -2,-0.8c0.8,0.3 2.1,0.7 2,0.8Z" style="fill:#acc7ff;fill-rule:nonzero;"/></g><g><path d="M505.2,192.6c-0.8,-64.7 -49.1,-117.9 -111.7,-126.4c5.5,11.2 6,24.8 3.9,37c6.2,11.9 8.6,27.5 9.3,38.6c1.4,22 -3.1,44.8 -11.1,65.3c-12.8,33 -35.4,63.6 -67.8,79.6c-8.9,4.4 -20.3,8.3 -31.5,9.2c22,17.2 49.6,27.5 79.7,27.5c0.4,0 0.9,0 1.3,0c6,-29.9 23.8,-59.5 43.9,-80.7c22.4,-23.6 52.4,-40.9 84,-50.1Z" style="fill:#2b01b3;fill-rule:nonzero;"/><path d="M279.4,229.8c13.5,-10.6 30.8,-15.8 43.4,-27.6c3,-2.8 5.3,-6.6 5,-10.7c-0.3,-3.1 -2,-5.9 -4.1,-8.2c-7.5,-8.7 -16.1,-1.3 -24,2.8c-6.7,3.5 -13.2,7.4 -19.9,10.9c-9.3,4.8 -20.9,10.8 -31.8,8.5c-0.3,-0.1 -0.5,-0.1 -0.7,-0.2c1.4,16.8 6,32.6 13.2,47c4.1,-9.1 11.2,-16.5 18.9,-22.5Z" style="fill:#2b01b3;fill-rule:nonzero;"/><path d="M395.6,207.2c8,-20.5 12.4,-43.3 11.1,-65.3c-0.7,-11.1 -3.2,-26.7 -9.3,-38.6c2.1,-12.2 1.7,-25.8 -3.9,-37c-5.7,-0.8 -11.5,-1.2 -17.4,-1.2c-71.3,0 -129.2,57.8 -129.2,129.2c0,3.7 0.2,7.3 0.5,10.9c0.2,0.1 0.5,0.1 0.7,0.2c10.8,2.3 22.4,-3.7 31.8,-8.5c6.7,-3.5 13.2,-7.4 19.9,-10.9c7.9,-4.1 16.5,-11.5 24,-2.8c2,2.4 3.8,5.1 4.1,8.2c0.3,4.1 -2,7.9 -5,10.7c-12.6,11.8 -29.9,17 -43.4,27.6c-7.8,6.1 -14.8,13.4 -18.9,22.4c8.6,17.1 20.9,32 35.8,43.7c11.2,-0.9 22.6,-4.8 31.5,-9.2c32.3,-15.9 54.8,-46.5 67.7,-79.4Zm-40.4,-17.7c-0.3,0.4 -0.6,0.9 -0.9,1.3c0.3,-0.4 0.6,-0.8 0.9,-1.3Z" style="fill:#7a16ff;fill-rule:nonzero;"/><path d="M505.2,194.3c0,-0.5 0,-1.1 0,-1.6c-31.5,9.2 -61.6,26.5 -83.9,50.1c-20.1,21.2 -37.9,50.8 -43.9,80.7c70.6,-0.8 127.8,-58.3 127.8,-129.2Z" style="fill:#7a16ff;fill-rule:nonzero;"/></g></g></svg>