<?xml version="1.0" encoding="UTF-8" standalone="no"?><!DOCTYPE svg PUBLIC "-//W3C//DTD SVG 1.1//EN" "http://www.w3.org/Graphics/SVG/1.1/DTD/svg11.dtd"><svg width="100%" height="100%" viewBox="0 0 809 684" version="1.1" xmlns="http://www.w3.org/2000/svg" xmlns:xlink="http://www.w3.org/1999/xlink" xml:space="preserve" style="fill-rule:evenodd;clip-rule:evenodd;stroke-linecap:round;stroke-miterlimit:10;"><g id="share"><g id="Ice-Cream"><path d="M583.133,228.371l55.9,269.5c0.5,2.3 3.7,2.3 4.3,0.1l67.3,-287.7l-81.8,-17.7l-36.9,24.4l-8.8,11.4Z" style="fill:#b2b9c6;fill-rule:nonzero;"/><path d="M725.433,205.171c-1.2,-2.1 -2.8,-3.7 -4.6,-4.9c-0.2,-0.2 -0.4,-0.4 -0.8,-0.6c0,0 -0.1,0 -0.1,-0.1c-0.6,-0.4 -1.2,-0.7 -1.9,-1c-4.1,-2.5 -2,-4.1 0,-10.8c0.8,-2.5 1.5,-5.1 2.1,-7.8c9.1,-42.1 -17.6,-83.6 -59.7,-92.7c-42.1,-9.1 -83.6,17.6 -92.7,59.7c-3.2,14.9 -1.9,29.7 2.9,43c0.4,1.5 1,2.7 1.5,3.8l0,0.1c1.4,3 1.9,4.5 -4.2,8.4c-5.2,2.9 -10.2,7.4 -10,13.6c0.2,7.6 8.1,11.3 14.7,10c2.3,-0.4 4.2,-1.3 6.3,-2.3c0.1,-0.1 0.2,-0.1 0.4,-0.2c-1.4,0.7 0.1,6.7 0.5,7.9c2.4,7.3 10.9,8.5 16.6,4.2c5,-3.8 5.8,-10 9.7,-14.5c2.3,-2.7 4.5,-2.8 5.3,0.9c1.5,6.7 4.3,12.7 9.8,16.9c12.1,9.2 28,3.9 32.7,-10.3c0.3,-0.4 0.6,-0.8 0.9,-1.4c-0.5,1.2 1,3.1 1.4,4.2c0.8,2.1 1.7,4.1 2.9,6c4.6,6.8 13.6,7.4 19,1.1c1.9,-2.2 3,-4.9 3.7,-7.7c0.6,-2.4 0.7,-5.2 2.4,-7.1c2.9,-3.4 8.1,2.4 10.7,3.8c10.5,5.6 26.8,6.3 31.4,-7.1c0.2,-0.5 0.3,-1 0.5,-1.5c1.1,-4.4 1,-9.7 -1.4,-13.6Z" style="fill:#5f45fc;fill-rule:nonzero;"/><path d="M668.033,55.071c-5.1,6.9 -8.9,15.1 -15.4,20.8c-7.9,6.9 -20.6,9.4 -29.2,2.1c-9.6,-8.2 -6.8,-20.7 0.6,-29.4c4.7,-5.5 10.7,-9.8 15.7,-15c1.2,-1.2 2.4,-2.9 1.8,-4.5c-0.8,-2.1 -3.8,-2.1 -6,-1.3c-5.1,2 -9,6.2 -13.6,9.3c-4.5,3.1 -10.7,5.2 -15.5,2.5c-4.2,-2.4 -6,-7.9 -5.2,-12.7c1.3,-7.8 7.5,-12.4 11.4,-18.8c0.8,-1.4 1.4,-2.9 1.8,-4.5c-19.9,6.7 -34.5,24 -38,44.5c4,0.1 8.1,1.2 11.8,3.1c7.6,4 15.3,10.9 17.6,19.5c2.5,9.7 -1.3,19.8 1.5,29.6c0.4,1.5 1.1,3 1.9,4.4c8.7,1 18.6,0.1 29.1,-1.2c31.3,-3.8 56.3,-9.5 51.1,-52.7c-0.3,-2.6 -0.8,-5.2 -1.5,-7.7c-7.9,-0.3 -15.1,5.5 -19.9,12Z" style="fill:#acc7ff;fill-rule:nonzero;"/><path d="M684.333,33.271c-10.2,-21.6 -33.5,-35.3 -58.5,-32.2c-0.4,0.1 -0.9,0.1 -1.3,0.2c-3.5,0.5 -6.8,1.3 -10.1,2.4c-0.3,1.6 -0.9,3.1 -1.8,4.5c-3.9,6.4 -10.1,11 -11.4,18.8c-0.8,4.8 0.9,10.3 5.2,12.7c4.8,2.7 10.9,0.6 15.5,-2.5c4.5,-3.1 8.5,-7.3 13.6,-9.3c2.1,-0.8 5.2,-0.9 6,1.3c0.6,1.6 -0.6,3.3 -1.8,4.5c-5,5.2 -11,9.5 -15.7,15c-7.3,8.6 -10.2,21.2 -0.6,29.4c8.5,7.3 21.3,4.8 29.2,-2.1c6.5,-5.7 10.2,-13.8 15.4,-20.8c4.8,-6.5 12.1,-12.3 20,-12c-1,-3.5 -2.2,-6.8 -3.7,-9.9Z" style="fill:#171a21;fill-rule:nonzero;"/><path d="M607.433,100.271c-2.8,-9.8 1,-19.9 -1.5,-29.6c-2.2,-8.6 -9.9,-15.5 -17.6,-19.5c-3.8,-2 -7.8,-3 -11.8,-3.1c-0.6,3.3 -0.8,6.7 -0.8,10.1c0,2.1 0.2,4.3 0.4,6.4c2.6,21.6 10.4,32.2 21.3,37c3.6,1.6 7.6,2.5 11.8,3c-0.7,-1.4 -1.4,-2.8 -1.8,-4.3Z" style="fill:#171a21;fill-rule:nonzero;"/><g><path d="M553.267,162.075l0.208,0.025l0.204,0.047l0.198,0.067l0.19,0.088l0.18,0.108l0.167,0.125l0.154,0.143l0.138,0.157l0.12,0.171l0.102,0.183l0.083,0.193l0.061,0.2l0.041,0.205l0.019,0.208l-0.003,0.21l-0.025,0.208l-0.047,0.204l-0.068,0.198l-0.088,0.19l-0.107,0.18l-0.125,0.167l-0.143,0.154l-0.157,0.137l-0.171,0.121l-0.183,0.102l-0.857,0.421l-0.851,0.419l-0.845,0.417l-0.841,0.416l-0.835,0.414l-0.83,0.414l-0.825,0.411l-0.819,0.41l-0.814,0.408l-0.809,0.407l-0.803,0.406l-0.798,0.403l-0.792,0.403l-0.787,0.4l-0.782,0.399l-0.776,0.397l-0.77,0.396l-0.765,0.394l-0.759,0.392l-0.753,0.39l-0.748,0.389l-0.741,0.387l-0.737,0.385l-0.73,0.384l-0.724,0.381l-0.719,0.38l-0.713,0.378l-0.706,0.376l-0.701,0.374l-0.695,0.373l-0.689,0.37l-0.682,0.368l-0.677,0.367l-0.67,0.365l-0.664,0.362l-0.658,0.361l-0.652,0.358l-0.646,0.357l-0.639,0.355l-0.633,0.352l-0.626,0.35l-0.621,0.349l-0.613,0.346l-0.607,0.344l-0.601,0.342l-0.594,0.339l-0.588,0.338l-0.581,0.335l-0.574,0.333l-0.568,0.331l-0.561,0.329l-0.554,0.326l-0.548,0.324l-0.541,0.322l-0.533,0.319l-0.527,0.317l-0.52,0.315l-0.514,0.312l-0.506,0.31l-0.499,0.307l-0.492,0.305l-0.485,0.302l-0.477,0.3l-0.471,0.297l-0.464,0.295l-0.456,0.292l-0.449,0.29l-0.441,0.287l-0.434,0.285l-0.427,0.282l-0.42,0.279l-0.412,0.276l-0.404,0.274l-0.397,0.27l-0.389,0.269l-0.382,0.265l-0.374,0.262l-0.366,0.26l-0.359,0.257l-0.351,0.253l-0.342,0.251l-0.335,0.248l-0.327,0.245l-0.319,0.241l-0.311,0.239l-0.303,0.235l-0.295,0.233l-0.286,0.228l-0.278,0.226l-0.27,0.222l-0.262,0.219l-0.255,0.217l-0.122,0.105l-0.121,0.105l-0.119,0.105l-0.117,0.103l-0.115,0.103l-0.113,0.102l-0.11,0.101l-0.108,0.099l-0.107,0.1l-0.103,0.097l-0.102,0.097l-0.1,0.096l-0.097,0.095l-0.095,0.094l-0.093,0.092l-0.091,0.092l-0.088,0.091l-0.085,0.089l-0.084,0.088l-0.082,0.088l-0.079,0.086l-0.077,0.085l-0.074,0.083l-0.073,0.082l-0.07,0.081l-0.067,0.08l-0.065,0.078l-0.063,0.077l-0.06,0.076l-0.058,0.074l-0.056,0.073l-0.054,0.071l-0.05,0.069l-0.049,0.068l-0.046,0.066l-0.043,0.064l-0.042,0.063l-0.039,0.061l-0.036,0.058l-0.035,0.058l-0.031,0.055l-0.03,0.052l-0.027,0.051l-0.025,0.048l-0.022,0.045l-0.021,0.044l-0.018,0.04l-0.016,0.038l-0.001,0.002l0.031,0.013l0.029,0.012l0.03,0.011l0.03,0.011l0.032,0.012l0.035,0.012l0.037,0.012l0.032,0.01l0.086,0.025l0.086,0.024l0.093,0.023l0.098,0.022l0.104,0.022l0.111,0.021l0.115,0.019l0.121,0.019l0.127,0.018l0.132,0.016l0.138,0.016l0.142,0.014l0.148,0.012l0.153,0.011l0.158,0.01l0.162,0.008l0.168,0.006l0.172,0.005l0.177,0.004l0.182,0.002l0.186,0l0.191,-0.002l0.195,-0.003l0.201,-0.004l0.204,-0.007l0.209,-0.008l0.213,-0.009l0.217,-0.012l0.221,-0.013l0.226,-0.015l0.231,-0.016l0.234,-0.018l0.238,-0.02l0.243,-0.022l0.246,-0.023l0.251,-0.025l0.255,-0.026l0.258,-0.029l0.262,-0.03l0.267,-0.031l0.271,-0.034l0.274,-0.035l0.278,-0.036l0.282,-0.039l0.286,-0.04l0.29,-0.042l0.293,-0.043l0.298,-0.045l0.301,-0.047l0.305,-0.049l0.308,-0.05l0.313,-0.052l0.316,-0.053l0.319,-0.055l0.324,-0.057l0.327,-0.058l0.33,-0.06l0.334,-0.062l0.338,-0.063l0.341,-0.065l0.345,-0.067l0.348,-0.068l0.352,-0.069l0.355,-0.072l0.359,-0.073l0.363,-0.075l0.365,-0.076l0.37,-0.078l0.372,-0.079l0.376,-0.081l0.38,-0.083l0.383,-0.084l0.386,-0.085l0.39,-0.088l0.393,-0.089l0.396,-0.09l0.399,-0.092l0.403,-0.094l0.407,-0.095l0.409,-0.096l0.412,-0.098l0.836,-0.202l0.848,-0.207l0.861,-0.213l0.874,-0.219l0.886,-0.226l0.899,-0.231l0.911,-0.238l0.924,-0.243l0.935,-0.249l0.948,-0.255l0.96,-0.261l0.971,-0.267l0.986,-0.273l0.204,-0.045l0.208,-0.023l0.21,-0.002l0.208,0.02l0.205,0.042l0.2,0.063l0.192,0.083l0.182,0.103l0.171,0.122l0.156,0.139l0.142,0.154l0.124,0.168l0.106,0.181l0.087,0.19l0.066,0.199l0.046,0.204l0.023,0.208l0.002,0.21l-0.02,0.208l-0.042,0.205l-0.063,0.2l-0.083,0.192l-0.103,0.182l-0.122,0.17l-0.139,0.157l-0.154,0.141l-0.169,0.125l-0.18,0.106l-0.19,0.087l-0.199,0.066l-0.99,0.275l-0.981,0.269l-0.97,0.263l-0.957,0.258l-0.946,0.252l-0.934,0.246l-0.922,0.24l-0.91,0.234l-0.898,0.229l-0.886,0.222l-0.873,0.216l-0.861,0.211l-0.848,0.204l-0.42,0.1l-0.417,0.098l-0.413,0.097l-0.41,0.095l-0.407,0.094l-0.404,0.092l-0.401,0.091l-0.397,0.089l-0.394,0.087l-0.391,0.086l-0.388,0.084l-0.385,0.083l-0.381,0.082l-0.378,0.079l-0.375,0.078l-0.372,0.077l-0.368,0.075l-0.365,0.073l-0.362,0.072l-0.358,0.07l-0.355,0.069l-0.352,0.066l-0.349,0.066l-0.345,0.063l-0.342,0.063l-0.338,0.06l-0.335,0.059l-0.332,0.057l-0.329,0.056l-0.325,0.053l-0.322,0.053l-0.318,0.05l-0.315,0.049l-0.311,0.048l-0.309,0.045l-0.305,0.044l-0.301,0.042l-0.298,0.041l-0.295,0.039l-0.291,0.037l-0.288,0.036l-0.284,0.034l-0.282,0.032l-0.278,0.03l-0.274,0.029l-0.271,0.027l-0.267,0.025l-0.264,0.023l-0.261,0.022l-0.258,0.02l-0.254,0.018l-0.25,0.016l-0.248,0.015l-0.244,0.013l-0.241,0.011l-0.237,0.009l-0.234,0.007l-0.231,0.006l-0.228,0.003l-0.224,0.002l-0.222,0l-0.218,-0.003l-0.215,-0.004l-0.212,-0.006l-0.208,-0.008l-0.206,-0.01l-0.203,-0.013l-0.2,-0.014l-0.197,-0.017l-0.194,-0.019l-0.191,-0.021l-0.189,-0.023l-0.186,-0.026l-0.184,-0.029l-0.181,-0.031l-0.178,-0.034l-0.176,-0.036l-0.174,-0.04l-0.172,-0.043l-0.17,-0.046l-0.162,-0.048l-0.088,-0.027l-0.082,-0.027l-0.082,-0.028l-0.082,-0.029l-0.082,-0.031l-0.081,-0.031l-0.079,-0.032l-0.08,-0.033l-0.079,-0.034l-0.079,-0.036l-0.08,-0.038l-0.077,-0.038l-0.077,-0.04l-0.078,-0.041l-0.077,-0.043l-0.075,-0.044l-0.076,-0.046l-0.074,-0.046l-0.075,-0.049l-0.074,-0.052l-0.073,-0.052l-0.071,-0.053l-0.072,-0.057l-0.071,-0.058l-0.069,-0.059l-0.07,-0.063l-0.068,-0.064l-0.066,-0.065l-0.065,-0.067l-0.064,-0.07l-0.062,-0.072l-0.061,-0.073l-0.06,-0.077l-0.057,-0.078l-0.056,-0.079l-0.053,-0.081l-0.052,-0.083l-0.049,-0.084l-0.047,-0.087l-0.045,-0.088l-0.042,-0.088l-0.05,-0.112l-0.054,-0.142l-0.045,-0.134l-0.039,-0.135l-0.033,-0.136l-0.028,-0.137l-0.023,-0.136l-0.017,-0.136l-0.011,-0.136l-0.007,-0.135l-0.002,-0.135l0.003,-0.133l0.007,-0.131l0.011,-0.13l0.016,-0.13l0.019,-0.126l0.023,-0.126l0.027,-0.125l0.029,-0.122l0.033,-0.12l0.035,-0.12l0.038,-0.119l0.041,-0.117l0.044,-0.115l0.045,-0.114l0.049,-0.114l0.05,-0.113l0.053,-0.111l0.054,-0.11l0.057,-0.11l0.059,-0.109l0.061,-0.109l0.063,-0.108l0.064,-0.108l0.067,-0.107l0.068,-0.107l0.071,-0.107l0.072,-0.107l0.074,-0.106l0.076,-0.106l0.078,-0.107l0.08,-0.106l0.081,-0.105l0.083,-0.107l0.086,-0.106l0.087,-0.107l0.088,-0.107l0.091,-0.107l0.092,-0.107l0.095,-0.107l0.096,-0.108l0.098,-0.108l0.099,-0.108l0.102,-0.109l0.103,-0.109l0.106,-0.11l0.107,-0.11l0.109,-0.11l0.11,-0.11l0.113,-0.112l0.115,-0.111l0.115,-0.112l0.119,-0.113l0.12,-0.113l0.121,-0.113l0.124,-0.114l0.126,-0.115l0.127,-0.115l0.129,-0.115l0.132,-0.117l0.133,-0.116l0.134,-0.117l0.139,-0.12l0.277,-0.235l0.286,-0.24l0.294,-0.242l0.301,-0.244l0.308,-0.246l0.316,-0.249l0.323,-0.251l0.331,-0.254l0.338,-0.256l0.345,-0.258l0.353,-0.261l0.359,-0.263l0.367,-0.266l0.375,-0.268l0.382,-0.27l0.389,-0.273l0.396,-0.276l0.403,-0.278l0.411,-0.28l0.417,-0.282l0.425,-0.285l0.432,-0.288l0.439,-0.289l0.446,-0.293l0.453,-0.294l0.46,-0.297l0.467,-0.299l0.474,-0.302l0.481,-0.304l0.488,-0.306l0.495,-0.308l0.501,-0.311l0.509,-0.313l0.515,-0.316l0.522,-0.317l0.529,-0.32l0.535,-0.322l0.542,-0.324l0.549,-0.327l0.555,-0.329l0.563,-0.331l0.568,-0.333l0.575,-0.335l0.582,-0.337l0.588,-0.34l0.595,-0.341l0.601,-0.344l0.607,-0.345l0.614,-0.348l0.621,-0.35l0.626,-0.352l0.633,-0.354l0.639,-0.356l0.645,-0.358l0.652,-0.36l0.657,-0.361l0.664,-0.364l0.67,-0.366l0.676,-0.367l0.682,-0.37l0.688,-0.371l0.694,-0.374l0.7,-0.375l0.706,-0.377l0.712,-0.379l0.718,-0.38l0.723,-0.383l0.729,-0.384l0.736,-0.386l0.74,-0.387l0.747,-0.39l0.752,-0.391l0.758,-0.393l0.764,-0.394l0.769,-0.396l0.774,-0.398l0.781,-0.4l0.785,-0.401l0.791,-0.402l0.797,-0.405l0.802,-0.405l0.807,-0.408l0.813,-0.409l0.818,-0.41l0.824,-0.412l0.828,-0.414l0.834,-0.415l0.839,-0.416l0.844,-0.418l0.849,-0.419l0.855,-0.421l0.858,-0.421l0.193,-0.083l0.2,-0.061l0.205,-0.041l0.209,-0.019l0.209,0.003Z" style="fill:#333;"/><path d="M783.042,77.444l0.253,0.004l0.249,0.007l0.244,0.01l0.241,0.013l0.236,0.015l0.233,0.019l0.225,0.021l0.116,0.012l0.112,0.013l0.111,0.013l0.11,0.015l0.11,0.015l0.108,0.016l0.107,0.016l0.107,0.018l0.106,0.019l0.104,0.019l0.104,0.021l0.104,0.021l0.102,0.023l0.102,0.023l0.101,0.025l0.1,0.025l0.099,0.027l0.099,0.028l0.098,0.029l0.097,0.03l0.098,0.031l0.096,0.033l0.095,0.034l0.095,0.036l0.093,0.037l0.094,0.038l0.094,0.041l0.092,0.041l0.091,0.044l0.091,0.045l0.091,0.048l0.09,0.049l0.089,0.051l0.087,0.053l0.088,0.055l0.088,0.058l0.084,0.059l0.085,0.063l0.084,0.065l0.082,0.066l0.082,0.071l0.08,0.072l0.078,0.075l0.076,0.077l0.076,0.081l0.073,0.083l0.072,0.086l0.069,0.089l0.065,0.09l0.064,0.093l0.062,0.097l0.059,0.098l0.054,0.099l0.052,0.102l0.049,0.104l0.047,0.109l0.042,0.11l0.038,0.108l0.034,0.108l0.031,0.111l0.027,0.112l0.023,0.111l0.019,0.11l0.016,0.114l0.012,0.111l0.009,0.108l0.005,0.112l0.002,0.111l-0.001,0.106l-0.004,0.108l-0.007,0.109l-0.01,0.105l-0.012,0.105l-0.015,0.103l-0.018,0.103l-0.02,0.103l-0.022,0.1l-0.024,0.1l-0.026,0.099l-0.028,0.097l-0.03,0.097l-0.032,0.096l-0.034,0.095l-0.035,0.093l-0.037,0.094l-0.038,0.093l-0.04,0.092l-0.041,0.091l-0.043,0.09l-0.044,0.09l-0.046,0.09l-0.047,0.089l-0.049,0.089l-0.049,0.089l-0.051,0.087l-0.052,0.088l-0.054,0.087l-0.054,0.087l-0.057,0.088l-0.057,0.086l-0.058,0.086l-0.06,0.088l-0.061,0.086l-0.062,0.086l-0.064,0.087l-0.064,0.086l-0.066,0.087l-0.067,0.086l-0.069,0.087l-0.072,0.089l-0.139,0.17l-0.148,0.175l-0.152,0.175l-0.157,0.175l-0.162,0.176l-0.167,0.178l-0.172,0.178l-0.177,0.179l-0.181,0.181l-0.186,0.182l-0.192,0.183l-0.196,0.184l-0.201,0.186l-0.206,0.187l-0.211,0.188l-0.216,0.19l-0.221,0.192l-0.225,0.193l-0.231,0.194l-0.236,0.196l-0.24,0.198l-0.246,0.199l-0.25,0.2l-0.255,0.203l-0.26,0.203l-0.265,0.206l-0.27,0.207l-0.275,0.208l-0.279,0.211l-0.285,0.211l-0.289,0.214l-0.294,0.215l-0.299,0.216l-0.304,0.219l-0.309,0.22l-0.313,0.221l-0.319,0.223l-0.323,0.225l-0.327,0.226l-0.333,0.228l-0.337,0.23l-0.342,0.231l-0.347,0.233l-0.352,0.234l-0.356,0.236l-0.361,0.238l-0.366,0.239l-0.37,0.241l-0.375,0.242l-0.379,0.244l-0.384,0.245l-0.389,0.247l-0.394,0.248l-0.397,0.25l-0.403,0.252l-0.407,0.253l-0.412,0.255l-0.416,0.256l-0.42,0.257l-0.425,0.259l-0.43,0.261l-0.434,0.262l-0.438,0.264l-0.443,0.265l-0.448,0.266l-0.451,0.268l-0.457,0.27l-0.46,0.27l-0.465,0.273l-0.469,0.273l-0.473,0.275l-0.478,0.277l-0.482,0.278l-0.487,0.279l-0.49,0.281l-0.495,0.282l-0.499,0.283l-0.504,0.285l-0.507,0.286l-0.512,0.287l-0.516,0.289l-0.52,0.29l-0.524,0.292l-0.528,0.292l-0.532,0.294l-0.537,0.296l-0.54,0.296l-0.545,0.298l-0.548,0.299l-0.553,0.301l-0.556,0.301l-0.561,0.303l-0.565,0.304l-0.568,0.306l-0.573,0.306l-0.576,0.308l-0.58,0.309l-0.584,0.31l-0.588,0.311l-0.592,0.313l-0.596,0.313l-0.599,0.315l-0.604,0.316l-1.217,0.636l-1.233,0.639l-1.248,0.644l-1.263,0.649l-1.277,0.653l-1.292,0.657l-1.306,0.661l-1.32,0.665l-1.334,0.669l-1.348,0.673l-1.362,0.677l-1.376,0.68l-1.389,0.685l-1.403,0.687l-1.416,0.692l-1.429,0.695l-1.442,0.698l-1.454,0.702l-1.468,0.705l-1.48,0.708l-1.493,0.711l-1.505,0.714l-1.517,0.718l-1.529,0.72l-1.541,0.723l-1.553,0.725l-1.564,0.729l-1.576,0.731l-1.588,0.733l-1.598,0.736l-1.61,0.739l-1.62,0.74l-1.632,0.743l-1.642,0.746l-1.653,0.747l-1.663,0.749l-1.673,0.751l-1.683,0.753l-1.694,0.755l-1.703,0.757l-1.714,0.758l-1.722,0.76l-1.732,0.762l-1.742,0.763l-1.751,0.764l-1.759,0.766l-1.769,0.767l-1.777,0.768l-1.786,0.769l-1.795,0.77l-1.803,0.771l-1.811,0.772l-1.819,0.772l-1.827,0.774l-1.835,0.774l-1.843,0.775l-1.85,0.775l-1.858,0.775l-1.865,0.776l-1.872,0.777l-1.879,0.776l-1.886,0.777l-1.891,0.776l-1.672,0.687l-1.67,0.685l-1.666,0.68l-1.662,0.677l-1.658,0.673l-1.654,0.67l-1.649,0.665l-1.645,0.662l-1.641,0.657l-1.636,0.654l-1.631,0.65l-1.627,0.646l-1.622,0.641l-1.616,0.638l-1.612,0.634l-1.606,0.629l-1.601,0.626l-1.596,0.621l-1.59,0.617l-1.585,0.613l-1.578,0.608l-1.573,0.605l-1.568,0.599l-1.561,0.596l-1.555,0.591l-1.548,0.587l-1.543,0.583l-1.536,0.577l-1.529,0.574l-1.523,0.569l-1.516,0.564l-1.509,0.56l-1.502,0.555l-1.496,0.551l-1.488,0.545l-1.48,0.542l-1.474,0.536l-1.466,0.532l-1.458,0.526l-1.451,0.523l-1.443,0.517l-1.435,0.512l-1.428,0.507l-1.419,0.503l-1.411,0.497l-1.402,0.493l-1.395,0.487l-1.386,0.483l-1.377,0.477l-1.368,0.472l-1.36,0.468l-1.351,0.461l-1.342,0.457l-1.333,0.452l-1.324,0.446l-1.314,0.441l-1.305,0.435l-1.295,0.431l-1.286,0.425l-1.277,0.419l-1.266,0.414l-1.256,0.409l-1.247,0.403l-1.235,0.397l-0.409,0.085l-0.418,-0.001l-0.409,-0.088l-0.381,-0.171l-0.338,-0.247l-0.279,-0.312l-0.208,-0.362l-0.128,-0.398l-0.042,-0.416l0.045,-0.416l0.13,-0.397l0.211,-0.362l0.28,-0.31l0.339,-0.244l0.383,-0.169l1.232,-0.396l1.24,-0.401l1.25,-0.407l1.26,-0.412l1.271,-0.417l1.28,-0.423l1.289,-0.429l1.3,-0.433l1.308,-0.439l1.319,-0.445l1.327,-0.449l1.336,-0.455l1.346,-0.46l1.355,-0.466l1.363,-0.47l1.372,-0.476l1.381,-0.48l1.389,-0.486l1.398,-0.491l1.406,-0.496l1.414,-0.5l1.422,-0.506l1.431,-0.511l1.438,-0.515l1.446,-0.52l1.454,-0.526l1.461,-0.53l1.469,-0.534l1.476,-0.54l1.484,-0.544l1.49,-0.549l1.498,-0.553l1.505,-0.558l1.512,-0.563l1.518,-0.567l1.525,-0.572l1.532,-0.576l1.538,-0.581l1.544,-0.585l1.551,-0.59l1.556,-0.594l1.563,-0.598l1.569,-0.603l1.575,-0.607l1.58,-0.611l1.586,-0.615l1.591,-0.62l1.597,-0.624l1.603,-0.628l1.607,-0.632l1.613,-0.636l1.617,-0.64l1.623,-0.644l1.627,-0.648l1.632,-0.652l1.636,-0.656l1.641,-0.66l1.646,-0.664l1.649,-0.668l1.654,-0.671l1.658,-0.675l1.662,-0.679l1.666,-0.683l1.671,-0.687l1.89,-0.776l1.881,-0.775l1.875,-0.774l1.868,-0.775l1.86,-0.774l1.853,-0.773l1.846,-0.774l1.838,-0.772l1.831,-0.773l1.822,-0.771l1.815,-0.771l1.807,-0.77l1.798,-0.769l1.79,-0.768l1.781,-0.767l1.773,-0.766l1.764,-0.765l1.755,-0.764l1.746,-0.762l1.737,-0.761l1.728,-0.759l1.718,-0.758l1.708,-0.757l1.699,-0.754l1.688,-0.753l1.679,-0.751l1.669,-0.749l1.658,-0.747l1.648,-0.745l1.637,-0.743l1.626,-0.741l1.616,-0.738l1.605,-0.736l1.593,-0.734l1.582,-0.731l1.571,-0.729l1.559,-0.726l1.548,-0.723l1.536,-0.72l1.523,-0.718l1.512,-0.715l1.499,-0.711l1.487,-0.709l1.475,-0.705l1.462,-0.702l1.449,-0.699l1.436,-0.696l1.423,-0.692l1.41,-0.688l1.397,-0.685l1.383,-0.681l1.369,-0.678l1.356,-0.674l1.341,-0.669l1.328,-0.666l1.313,-0.662l1.3,-0.657l1.284,-0.654l1.27,-0.649l1.256,-0.645l1.24,-0.64l1.225,-0.636l1.211,-0.632l0.599,-0.313l0.596,-0.313l0.591,-0.311l0.588,-0.311l0.584,-0.309l0.58,-0.308l0.576,-0.307l0.572,-0.305l0.568,-0.304l0.565,-0.303l0.56,-0.302l0.556,-0.301l0.552,-0.299l0.548,-0.298l0.544,-0.296l0.54,-0.296l0.535,-0.294l0.532,-0.292l0.528,-0.292l0.523,-0.29l0.519,-0.288l0.515,-0.288l0.511,-0.285l0.506,-0.285l0.502,-0.283l0.498,-0.282l0.494,-0.28l0.489,-0.279l0.485,-0.277l0.481,-0.276l0.476,-0.275l0.472,-0.273l0.468,-0.272l0.463,-0.27l0.458,-0.268l0.454,-0.267l0.45,-0.266l0.445,-0.264l0.441,-0.263l0.436,-0.261l0.432,-0.259l0.427,-0.258l0.422,-0.256l0.418,-0.255l0.413,-0.253l0.409,-0.251l0.404,-0.25l0.399,-0.248l0.395,-0.247l0.389,-0.245l0.385,-0.243l0.381,-0.242l0.375,-0.239l0.371,-0.239l0.366,-0.236l0.361,-0.235l0.356,-0.233l0.351,-0.231l0.346,-0.229l0.342,-0.228l0.336,-0.225l0.331,-0.224l0.327,-0.223l0.321,-0.22l0.317,-0.218l0.311,-0.217l0.306,-0.215l0.301,-0.213l0.296,-0.21l0.291,-0.209l0.286,-0.207l0.28,-0.205l0.275,-0.203l0.271,-0.201l0.264,-0.199l0.259,-0.197l0.254,-0.195l0.249,-0.193l0.243,-0.19l0.238,-0.189l0.233,-0.186l0.226,-0.184l0.222,-0.182l0.216,-0.18l0.21,-0.177l0.204,-0.175l0.2,-0.172l0.193,-0.171l0.188,-0.167l0.182,-0.165l0.176,-0.163l0.17,-0.16l0.164,-0.157l0.159,-0.155l0.153,-0.152l0.146,-0.149l0.141,-0.146l0.134,-0.143l0.129,-0.139l0.122,-0.137l0.116,-0.133l0.11,-0.13l0.106,-0.129l0.047,-0.059l0.048,-0.06l0.047,-0.06l0.044,-0.059l0.043,-0.057l0.042,-0.057l0.04,-0.056l0.038,-0.054l0.036,-0.053l0.036,-0.052l0.034,-0.052l0.031,-0.048l0.031,-0.049l0.029,-0.048l0.027,-0.045l0.026,-0.045l0.024,-0.042l0.022,-0.042l0.022,-0.04l0.019,-0.038l0.018,-0.037l0.017,-0.035l0.015,-0.034l0.014,-0.032l0.011,-0.027l-0.014,-0.007l-0.029,-0.012l-0.032,-0.014l-0.035,-0.013l-0.037,-0.014l-0.04,-0.014l-0.04,-0.014l-0.043,-0.014l-0.046,-0.014l-0.047,-0.014l-0.05,-0.014l-0.051,-0.014l-0.054,-0.014l-0.056,-0.013l-0.057,-0.014l-0.06,-0.013l-0.062,-0.012l-0.063,-0.013l-0.066,-0.012l-0.067,-0.012l-0.07,-0.011l-0.072,-0.012l-0.073,-0.011l-0.074,-0.01l-0.077,-0.01l-0.079,-0.009l-0.08,-0.01l-0.079,-0.008l-0.173,-0.016l-0.177,-0.014l-0.183,-0.012l-0.19,-0.01l-0.197,-0.008l-0.203,-0.006l-0.209,-0.003l-0.216,-0.002l-0.222,0.001l-0.228,0.003l-0.234,0.005l-0.241,0.008l-0.246,0.009l-0.252,0.012l-0.258,0.015l-0.263,0.017l-0.269,0.018l-0.276,0.022l-0.28,0.023l-0.286,0.026l-0.292,0.029l-0.297,0.03l-0.303,0.033l-0.307,0.035l-0.314,0.038l-0.318,0.04l-0.324,0.042l-0.329,0.044l-0.335,0.047l-0.339,0.049l-0.345,0.051l-0.35,0.054l-0.355,0.055l-0.36,0.059l-0.364,0.06l-0.37,0.063l-0.375,0.065l-0.38,0.067l-0.385,0.069l-0.39,0.072l-0.394,0.074l-0.399,0.076l-0.405,0.078l-0.409,0.081l-0.413,0.083l-0.419,0.085l-0.423,0.087l-0.428,0.089l-0.433,0.092l-0.437,0.094l-0.441,0.096l-0.447,0.098l-0.451,0.1l-0.455,0.103l-0.461,0.104l-0.464,0.107l-0.469,0.109l-0.474,0.111l-0.478,0.113l-0.482,0.116l-0.487,0.117l-0.491,0.12l-0.496,0.121l-0.5,0.124l-0.504,0.126l-0.509,0.128l-0.513,0.13l-0.517,0.132l-0.521,0.134l-0.526,0.137l-0.529,0.138l-0.534,0.14l-0.538,0.143l-0.543,0.144l-0.546,0.147l-0.55,0.148l-0.555,0.151l-0.558,0.152l-0.563,0.155l-0.567,0.156l-0.57,0.159l-0.575,0.16l-0.579,0.163l-0.582,0.164l-0.586,0.167l-0.591,0.168l-0.594,0.171l-0.598,0.172l-0.602,0.174l-0.606,0.176l-0.609,0.179l-0.614,0.18l-0.617,0.182l-0.621,0.184l-0.624,0.186l-0.629,0.187l-0.632,0.19l-0.635,0.191l-1.285,0.39l-0.41,0.079l-0.418,-0.009l-0.408,-0.095l-0.378,-0.177l-0.333,-0.253l-0.274,-0.316l-0.202,-0.366l-0.121,-0.4l-0.036,-0.417l0.052,-0.415l0.137,-0.395l0.217,-0.358l0.286,-0.305l0.343,-0.239l0.385,-0.162l1.288,-0.391l0.641,-0.193l0.636,-0.191l0.633,-0.189l0.629,-0.187l0.625,-0.185l0.622,-0.184l0.618,-0.181l0.614,-0.18l0.611,-0.177l0.607,-0.176l0.603,-0.174l0.599,-0.172l0.596,-0.169l0.591,-0.168l0.588,-0.166l0.584,-0.164l0.58,-0.162l0.576,-0.161l0.573,-0.158l0.568,-0.156l0.564,-0.154l0.561,-0.152l0.556,-0.15l0.553,-0.148l0.548,-0.146l0.545,-0.144l0.54,-0.142l0.536,-0.141l0.533,-0.138l0.528,-0.135l0.524,-0.134l0.52,-0.132l0.515,-0.13l0.512,-0.128l0.507,-0.125l0.504,-0.124l0.499,-0.121l0.495,-0.12l0.49,-0.117l0.486,-0.115l0.483,-0.113l0.477,-0.111l0.474,-0.109l0.469,-0.107l0.465,-0.104l0.46,-0.103l0.456,-0.1l0.452,-0.098l0.448,-0.096l0.443,-0.094l0.438,-0.092l0.434,-0.089l0.43,-0.087l0.425,-0.086l0.421,-0.082l0.416,-0.081l0.412,-0.079l0.407,-0.076l0.403,-0.074l0.398,-0.072l0.394,-0.07l0.389,-0.067l0.385,-0.065l0.38,-0.063l0.376,-0.061l0.371,-0.058l0.366,-0.056l0.362,-0.054l0.357,-0.052l0.353,-0.049l0.348,-0.047l0.343,-0.044l0.339,-0.043l0.334,-0.04l0.33,-0.037l0.324,-0.036l0.321,-0.033l0.315,-0.03l0.312,-0.028l0.306,-0.026l0.302,-0.024l0.298,-0.021l0.293,-0.018l0.288,-0.016l0.284,-0.014l0.279,-0.011l0.275,-0.009l0.271,-0.006l0.266,-0.003l0.261,-0.001l0.258,0.002Z" style="fill:#333;"/><path d="M755.489,147.903l0.277,0.07l0.901,0.301l0.892,0.3l0.88,0.3l0.867,0.298l0.43,0.149l0.427,0.148l0.423,0.149l0.42,0.148l0.417,0.147l0.414,0.148l0.41,0.147l0.408,0.147l0.404,0.147l0.401,0.146l0.399,0.146l0.394,0.146l0.392,0.145l0.389,0.145l0.385,0.145l0.382,0.145l0.379,0.144l0.376,0.144l0.372,0.144l0.37,0.143l0.366,0.143l0.362,0.143l0.36,0.142l0.356,0.143l0.353,0.142l0.35,0.141l0.346,0.141l0.343,0.141l0.34,0.141l0.337,0.14l0.333,0.14l0.329,0.139l0.327,0.14l0.323,0.139l0.32,0.138l0.316,0.138l0.313,0.138l0.31,0.138l0.307,0.138l0.303,0.136l0.299,0.137l0.296,0.136l0.293,0.136l0.29,0.136l0.286,0.136l0.282,0.135l0.279,0.134l0.276,0.135l0.273,0.134l0.269,0.133l0.265,0.134l0.262,0.133l0.259,0.133l0.255,0.132l0.251,0.133l0.249,0.131l0.245,0.132l0.241,0.131l0.238,0.131l0.234,0.131l0.231,0.131l0.228,0.13l0.224,0.13l0.221,0.13l0.217,0.129l0.213,0.13l0.211,0.129l0.206,0.129l0.204,0.129l0.2,0.128l0.196,0.129l0.193,0.128l0.189,0.128l0.187,0.128l0.182,0.128l0.179,0.128l0.176,0.129l0.173,0.128l0.169,0.128l0.166,0.128l0.162,0.129l0.158,0.128l0.156,0.129l0.152,0.129l0.149,0.13l0.145,0.13l0.141,0.129l0.139,0.131l0.135,0.132l0.132,0.132l0.129,0.133l0.125,0.134l0.121,0.135l0.118,0.136l0.115,0.137l0.112,0.138l0.107,0.14l0.104,0.142l0.097,0.138l0.052,0.077l0.048,0.072l0.047,0.074l0.045,0.074l0.046,0.075l0.043,0.075l0.043,0.075l0.042,0.076l0.04,0.077l0.039,0.076l0.039,0.078l0.038,0.08l0.035,0.079l0.035,0.079l0.033,0.081l0.033,0.083l0.031,0.082l0.029,0.081l0.028,0.083l0.027,0.086l0.025,0.085l0.024,0.085l0.022,0.088l0.02,0.086l0.019,0.088l0.017,0.089l0.015,0.088l0.013,0.089l0.012,0.09l0.01,0.091l0.007,0.092l0.006,0.09l0.004,0.091l0.002,0.093l-0.001,0.093l-0.002,0.091l-0.005,0.093l-0.007,0.093l-0.009,0.093l-0.011,0.091l-0.013,0.091l-0.015,0.089l-0.015,0.084l-0.019,0.089l-0.021,0.088l-0.021,0.083l-0.025,0.087l-0.026,0.085l-0.027,0.082l-0.03,0.085l-0.032,0.084l-0.033,0.079l-0.035,0.082l-0.037,0.081l-0.037,0.076l-0.039,0.078l-0.042,0.078l-0.042,0.075l-0.044,0.075l-0.045,0.072l-0.046,0.073l-0.048,0.071l-0.048,0.069l-0.05,0.069l-0.051,0.068l-0.052,0.067l-0.053,0.064l-0.054,0.065l-0.056,0.065l-0.055,0.061l-0.056,0.061l-0.059,0.061l-0.058,0.06l-0.059,0.058l-0.06,0.057l-0.061,0.057l-0.062,0.055l-0.062,0.054l-0.063,0.054l-0.069,0.057l-0.125,0.099l-0.132,0.101l-0.135,0.097l-0.138,0.094l-0.14,0.092l-0.143,0.089l-0.145,0.087l-0.148,0.085l-0.151,0.082l-0.154,0.081l-0.155,0.078l-0.159,0.077l-0.161,0.075l-0.164,0.073l-0.166,0.071l-0.169,0.07l-0.172,0.069l-0.175,0.067l-0.178,0.066l-0.18,0.065l-0.183,0.063l-0.186,0.062l-0.189,0.061l-0.191,0.059l-0.195,0.058l-0.198,0.058l-0.2,0.056l-0.204,0.055l-0.206,0.054l-0.209,0.053l-0.213,0.053l-0.215,0.051l-0.218,0.05l-0.222,0.049l-0.224,0.048l-0.228,0.048l-0.23,0.046l-0.233,0.046l-0.237,0.044l-0.24,0.044l-0.242,0.043l-0.246,0.042l-0.249,0.041l-0.251,0.04l-0.255,0.04l-0.258,0.038l-0.261,0.038l-0.264,0.037l-0.267,0.036l-0.27,0.035l-0.274,0.035l-0.276,0.033l-0.279,0.033l-0.282,0.032l-0.286,0.031l-0.289,0.031l-0.291,0.03l-0.295,0.028l-0.297,0.028l-0.301,0.028l-0.303,0.026l-0.307,0.026l-0.31,0.025l-0.313,0.024l-0.315,0.024l-0.319,0.022l-0.322,0.022l-0.325,0.021l-0.327,0.021l-0.331,0.019l-0.334,0.019l-0.336,0.018l-0.34,0.018l-0.342,0.016l-0.346,0.016l-0.348,0.015l-0.352,0.015l-0.354,0.013l-0.357,0.013l-0.361,0.012l-0.363,0.011l-0.366,0.011l-0.369,0.01l-0.372,0.009l-0.374,0.008l-0.378,0.008l-0.38,0.007l-0.384,0.006l-0.386,0.006l-0.389,0.004l-0.393,0.004l-0.791,0.006l-0.804,0.003l-0.814,0l-0.826,-0.003l-0.837,-0.006l-0.848,-0.009l-0.859,-0.012l-0.87,-0.014l-0.881,-0.018l-0.891,-0.02l-0.902,-0.023l-0.913,-0.026l-0.923,-0.029l-0.934,-0.032l-0.944,-0.034l-0.955,-0.038l-0.964,-0.04l-0.975,-0.043l-0.985,-0.046l-0.996,-0.049l-1.005,-0.051l-1.015,-0.055l-1.025,-0.057l-1.035,-0.06l-1.045,-0.062l-1.054,-0.066l-1.064,-0.068l-1.073,-0.071l-1.083,-0.074l-1.092,-0.077l-1.101,-0.079l-1.111,-0.082l-1.12,-0.085l-1.129,-0.088l-1.138,-0.09l-1.146,-0.093l-1.156,-0.096l-1.165,-0.099l-1.173,-0.101l-1.182,-0.104l-1.19,-0.107l-1.199,-0.109l-1.207,-0.112l-1.216,-0.115l-1.224,-0.118l-1.232,-0.12l-1.241,-0.123l-1.248,-0.126l-1.257,-0.128l-1.264,-0.131l-1.273,-0.134l-1.28,-0.136l-1.287,-0.139l-1.296,-0.142l-1.303,-0.144l-1.31,-0.147l-1.318,-0.149l-1.325,-0.153l-1.333,-0.154l-1.339,-0.158l-1.347,-0.16l-1.354,-0.163l-1.361,-0.165l-1.367,-0.168l-1.375,-0.17l-1.381,-0.174l-1.388,-0.175l-1.395,-0.179l-1.401,-0.181l-1.408,-0.183l-1.414,-0.186l-1.42,-0.189l-1.426,-0.191l-0.279,-0.058l-0.268,-0.097l-0.252,-0.134l-0.23,-0.169l-0.204,-0.2l-0.173,-0.227l-0.139,-0.249l-0.103,-0.266l-0.063,-0.279l-0.023,-0.284l0.018,-0.285l0.058,-0.279l0.097,-0.269l0.134,-0.251l0.169,-0.23l0.2,-0.204l0.227,-0.173l0.249,-0.139l0.266,-0.103l0.278,-0.063l0.285,-0.023l0.285,0.018l1.423,0.19l1.415,0.188l1.41,0.186l1.402,0.183l1.397,0.18l1.39,0.178l1.383,0.175l1.376,0.172l1.37,0.17l1.362,0.168l1.356,0.164l1.349,0.162l1.341,0.16l1.335,0.157l1.327,0.154l1.32,0.151l1.312,0.149l1.305,0.147l1.298,0.143l1.29,0.141l1.282,0.139l1.274,0.136l1.267,0.133l1.258,0.13l1.251,0.128l1.243,0.125l1.234,0.122l1.226,0.12l1.218,0.117l1.21,0.114l1.201,0.112l1.192,0.108l1.184,0.107l1.176,0.103l1.166,0.101l1.158,0.098l1.149,0.095l1.14,0.093l1.131,0.089l1.121,0.088l1.113,0.084l1.103,0.081l1.094,0.079l1.084,0.076l1.075,0.074l1.066,0.07l1.055,0.068l1.046,0.065l1.036,0.062l1.027,0.06l1.016,0.056l1.006,0.054l0.996,0.051l0.986,0.049l0.976,0.045l0.965,0.043l0.955,0.039l0.945,0.038l0.933,0.034l0.924,0.031l0.912,0.029l0.901,0.025l0.891,0.023l0.88,0.02l0.868,0.017l0.858,0.015l0.846,0.011l0.835,0.009l0.823,0.006l0.812,0.003l0.801,0l0.788,-0.003l0.778,-0.006l0.383,-0.004l0.382,-0.004l0.378,-0.005l0.375,-0.006l0.372,-0.007l0.369,-0.008l0.366,-0.008l0.364,-0.009l0.36,-0.009l0.357,-0.011l0.354,-0.011l0.35,-0.012l0.348,-0.012l0.345,-0.013l0.341,-0.014l0.339,-0.015l0.335,-0.015l0.333,-0.016l0.328,-0.017l0.326,-0.018l0.323,-0.018l0.319,-0.019l0.317,-0.02l0.313,-0.02l0.309,-0.021l0.307,-0.022l0.303,-0.022l0.3,-0.024l0.297,-0.023l0.293,-0.025l0.29,-0.025l0.287,-0.026l0.283,-0.027l0.281,-0.028l0.276,-0.028l0.273,-0.029l0.27,-0.029l0.267,-0.03l0.263,-0.031l0.259,-0.032l0.256,-0.032l0.253,-0.033l0.249,-0.034l0.246,-0.034l0.241,-0.035l0.239,-0.036l0.235,-0.036l0.231,-0.037l0.228,-0.038l0.224,-0.038l0.221,-0.039l0.216,-0.04l0.213,-0.04l0.209,-0.041l0.206,-0.041l0.202,-0.042l0.198,-0.043l0.194,-0.043l0.19,-0.043l0.187,-0.045l0.182,-0.044l0.179,-0.046l0.175,-0.046l0.17,-0.046l0.167,-0.047l0.162,-0.047l0.159,-0.047l0.154,-0.048l0.151,-0.049l0.145,-0.048l0.142,-0.049l0.138,-0.05l0.133,-0.049l0.128,-0.049l0.125,-0.05l0.12,-0.05l0.116,-0.049l0.111,-0.05l0.106,-0.049l0.102,-0.05l0.097,-0.049l0.093,-0.048l0.087,-0.048l0.084,-0.048l0.078,-0.047l0.074,-0.046l0.068,-0.045l0.064,-0.043l0.06,-0.043l0.054,-0.041l0.055,-0.044l0.018,-0.015l0.022,-0.019l0.021,-0.018l0.02,-0.018l0.018,-0.017l0.018,-0.017l0.016,-0.016l0.016,-0.016l0.013,-0.013l0.013,-0.015l0.014,-0.015l0.01,-0.012l0.01,-0.012l0.01,-0.012l0.009,-0.011l0.007,-0.01l0.007,-0.009l0.006,-0.009l0.005,-0.008l0.005,-0.007l0.004,-0.008l0.004,-0.005l0.003,-0.005l0.001,-0.003l0.002,-0.004l0.003,-0.006l0,-0.001l0.001,-0.001l0.001,-0.002l0,-0.002l0,-0.001l0,-0.001l0,-0.002l0,-0.001l0,-0.001l0,-0.004l0,-0.004l0,-0.004l-0.001,-0.004l-0.001,-0.006l-0.001,-0.007l-0.001,-0.009l-0.001,-0.007l-0.003,-0.01l-0.002,-0.01l-0.003,-0.011l-0.003,-0.012l-0.004,-0.014l-0.004,-0.013l-0.006,-0.015l-0.006,-0.019l-0.006,-0.017l-0.007,-0.017l-0.008,-0.02l-0.01,-0.021l-0.009,-0.021l-0.011,-0.022l-0.011,-0.023l-0.013,-0.025l-0.013,-0.025l-0.015,-0.027l-0.015,-0.027l-0.016,-0.028l-0.017,-0.028l-0.019,-0.03l-0.019,-0.03l-0.021,-0.032l-0.019,-0.027l-0.05,-0.072l-0.051,-0.069l-0.055,-0.072l-0.06,-0.075l-0.065,-0.077l-0.069,-0.08l-0.074,-0.082l-0.078,-0.084l-0.083,-0.086l-0.088,-0.088l-0.092,-0.089l-0.097,-0.092l-0.102,-0.093l-0.106,-0.095l-0.11,-0.096l-0.115,-0.098l-0.119,-0.098l-0.125,-0.101l-0.128,-0.102l-0.132,-0.102l-0.137,-0.104l-0.142,-0.105l-0.146,-0.106l-0.15,-0.108l-0.154,-0.108l-0.158,-0.109l-0.163,-0.11l-0.167,-0.111l-0.171,-0.112l-0.176,-0.113l-0.179,-0.113l-0.183,-0.115l-0.188,-0.115l-0.192,-0.116l-0.195,-0.117l-0.2,-0.117l-0.203,-0.118l-0.208,-0.119l-0.212,-0.12l-0.216,-0.12l-0.219,-0.121l-0.224,-0.122l-0.227,-0.122l-0.231,-0.123l-0.235,-0.123l-0.239,-0.124l-0.243,-0.125l-0.246,-0.125l-0.25,-0.126l-0.254,-0.126l-0.258,-0.127l-0.262,-0.128l-0.265,-0.128l-0.269,-0.128l-0.273,-0.129l-0.276,-0.13l-0.28,-0.13l-0.284,-0.13l-0.287,-0.131l-0.291,-0.132l-0.295,-0.132l-0.298,-0.133l-0.302,-0.133l-0.305,-0.133l-0.309,-0.134l-0.313,-0.134l-0.316,-0.135l-0.319,-0.135l-0.323,-0.136l-0.327,-0.136l-0.33,-0.137l-0.333,-0.137l-0.338,-0.137l-0.34,-0.138l-0.344,-0.138l-0.347,-0.138l-0.351,-0.139l-0.354,-0.14l-0.357,-0.14l-0.361,-0.14l-0.365,-0.14l-0.367,-0.141l-0.371,-0.141l-0.375,-0.142l-0.377,-0.142l-0.381,-0.142l-0.384,-0.143l-0.388,-0.143l-0.391,-0.144l-0.394,-0.143l-0.397,-0.144l-0.401,-0.145l-0.404,-0.144l-0.407,-0.145l-0.41,-0.146l-0.413,-0.145l-0.417,-0.146l-0.42,-0.147l-0.422,-0.146l-0.856,-0.295l-0.868,-0.295l-0.881,-0.296l-0.895,-0.299l-0.264,-0.109l-0.245,-0.146l-0.222,-0.179l-0.195,-0.209l-0.162,-0.234l-0.128,-0.256l-0.09,-0.27l-0.051,-0.281l-0.01,-0.285l0.031,-0.284l0.071,-0.277l0.109,-0.263l0.146,-0.246l0.179,-0.222l0.209,-0.194l0.234,-0.163l0.256,-0.127l0.27,-0.09l0.281,-0.051l0.285,-0.01l0.284,0.031Z" style="fill:#333;"/><path d="M511.085,106.235l0.695,0.003l0.703,0.006l0.711,0.007l0.719,0.009l0.726,0.011l0.733,0.014l0.742,0.015l0.748,0.017l0.756,0.02l0.764,0.021l0.771,0.024l0.778,0.025l0.786,0.027l0.792,0.03l0.8,0.031l0.808,0.033l0.814,0.036l0.821,0.037l0.829,0.039l0.835,0.041l0.843,0.043l0.849,0.046l0.856,0.047l0.864,0.049l0.869,0.051l0.877,0.053l0.884,0.055l0.89,0.057l0.896,0.059l0.904,0.06l0.91,0.063l0.916,0.065l0.923,0.066l0.929,0.069l0.936,0.07l0.942,0.073l0.948,0.074l0.955,0.076l0.96,0.079l0.967,0.08l0.973,0.082l0.979,0.084l0.986,0.085l0.991,0.088l0.997,0.09l1.003,0.091l1.009,0.094l1.015,0.095l1.02,0.097l1.027,0.099l1.032,0.101l1.038,0.103l1.043,0.105l1.049,0.107l1.054,0.108l1.06,0.111l1.065,0.112l1.07,0.114l0.309,0.058l0.295,0.105l0.276,0.15l0.249,0.192l0.215,0.228l0.178,0.258l0.134,0.284l0.089,0.301l0.04,0.311l-0.008,0.314l-0.058,0.308l-0.105,0.296l-0.15,0.276l-0.192,0.248l-0.228,0.216l-0.259,0.177l-0.283,0.135l-0.301,0.089l-0.311,0.04l-0.314,-0.008l-1.067,-0.114l-1.061,-0.112l-1.055,-0.11l-1.049,-0.108l-1.044,-0.106l-1.039,-0.104l-1.032,-0.103l-1.027,-0.1l-1.021,-0.099l-1.016,-0.097l-1.009,-0.095l-1.004,-0.093l-0.998,-0.091l-0.991,-0.089l-0.986,-0.087l-0.98,-0.085l-0.973,-0.084l-0.968,-0.081l-0.961,-0.08l-0.955,-0.078l-0.949,-0.075l-0.942,-0.074l-0.936,-0.072l-0.929,-0.07l-0.923,-0.068l-0.917,-0.066l-0.91,-0.065l-0.903,-0.062l-0.897,-0.06l-0.89,-0.059l-0.883,-0.056l-0.877,-0.055l-0.869,-0.052l-0.863,-0.051l-0.856,-0.048l-0.849,-0.047l-0.842,-0.045l-0.835,-0.043l-0.827,-0.041l-0.821,-0.038l-0.813,-0.037l-0.806,-0.035l-0.799,-0.033l-0.792,-0.031l-0.784,-0.029l-0.777,-0.027l-0.769,-0.025l-0.762,-0.024l-0.754,-0.021l-0.746,-0.019l-0.739,-0.017l-0.731,-0.015l-0.724,-0.013l-0.715,-0.011l-0.708,-0.009l-0.7,-0.008l-0.692,-0.005l-0.684,-0.003l-0.676,-0.001l-0.668,0.001l-0.659,0.003l-0.652,0.004l-0.643,0.007l-0.635,0.009l-0.626,0.011l-0.618,0.013l-0.61,0.015l-0.601,0.017l-0.593,0.018l-0.584,0.021l-0.575,0.023l-0.567,0.025l-0.558,0.027l-0.549,0.029l-0.54,0.031l-0.531,0.033l-0.522,0.035l-0.513,0.037l-0.504,0.038l-0.495,0.041l-0.485,0.043l-0.476,0.045l-0.469,0.047l-0.228,0.024l-0.227,0.025l-0.225,0.025l-0.223,0.025l-0.22,0.026l-0.218,0.027l-0.215,0.027l-0.214,0.027l-0.21,0.028l-0.208,0.029l-0.206,0.029l-0.203,0.029l-0.201,0.03l-0.198,0.03l-0.195,0.031l-0.194,0.031l-0.19,0.032l-0.188,0.032l-0.186,0.033l-0.183,0.033l-0.18,0.033l-0.178,0.034l-0.175,0.034l-0.172,0.035l-0.17,0.035l-0.168,0.036l-0.164,0.036l-0.162,0.036l-0.159,0.037l-0.157,0.037l-0.154,0.038l-0.151,0.038l-0.148,0.038l-0.145,0.038l-0.143,0.039l-0.14,0.039l-0.137,0.04l-0.135,0.04l-0.131,0.04l-0.128,0.04l-0.126,0.041l-0.122,0.041l-0.12,0.041l-0.117,0.041l-0.113,0.041l-0.111,0.042l-0.107,0.042l-0.105,0.041l-0.102,0.042l-0.098,0.042l-0.095,0.042l-0.092,0.041l-0.088,0.042l-0.087,0.041l-0.082,0.042l-0.079,0.04l-0.076,0.041l-0.072,0.04l-0.069,0.04l-0.066,0.039l-0.063,0.039l-0.059,0.038l-0.056,0.038l-0.052,0.036l-0.049,0.036l-0.046,0.035l-0.042,0.033l-0.04,0.033l-0.036,0.031l-0.033,0.029l-0.029,0.028l-0.027,0.027l-0.024,0.026l-0.02,0.022l-0.018,0.021l-0.016,0.02l-0.014,0.018l-0.01,0.015l-0.009,0.013l-0.007,0.012l-0.006,0.009l-0.004,0.007l-0.002,0.006l-0.002,0.004l0,0.001l0.001,0.012l0.001,0.013l0.004,0.016l0.002,0.009l0.002,0.011l0.004,0.014l0.004,0.013l0.004,0.014l0.006,0.017l0.006,0.017l0.007,0.018l0.008,0.019l0.009,0.021l0.01,0.023l0.011,0.023l0.011,0.024l0.014,0.026l0.013,0.026l0.016,0.028l0.016,0.028l0.018,0.03l0.019,0.032l0.02,0.031l0.021,0.033l0.023,0.034l0.023,0.034l0.025,0.036l0.027,0.037l0.028,0.037l0.029,0.038l0.03,0.039l0.032,0.04l0.033,0.041l0.035,0.041l0.036,0.042l0.037,0.043l0.038,0.043l0.041,0.044l0.038,0.041l0.09,0.095l0.092,0.093l0.098,0.096l0.103,0.098l0.108,0.099l0.114,0.102l0.119,0.104l0.124,0.105l0.13,0.106l0.135,0.109l0.139,0.109l0.146,0.111l0.15,0.113l0.156,0.114l0.16,0.115l0.166,0.116l0.17,0.117l0.176,0.119l0.18,0.119l0.186,0.121l0.19,0.122l0.195,0.122l0.2,0.124l0.205,0.125l0.209,0.125l0.214,0.126l0.219,0.128l0.224,0.128l0.228,0.128l0.233,0.13l0.237,0.13l0.243,0.132l0.246,0.132l0.251,0.132l0.256,0.134l0.26,0.134l0.265,0.135l0.269,0.135l0.274,0.137l0.278,0.137l0.282,0.137l0.287,0.138l0.291,0.139l0.295,0.14l0.3,0.14l0.304,0.14l0.309,0.142l0.312,0.142l0.317,0.142l0.321,0.143l0.325,0.144l0.33,0.144l0.333,0.144l0.338,0.146l0.342,0.146l0.346,0.146l0.351,0.147l0.354,0.147l0.358,0.148l0.362,0.148l0.367,0.149l0.37,0.15l0.375,0.15l0.378,0.15l0.383,0.151l0.386,0.151l0.391,0.152l0.394,0.152l0.398,0.153l0.402,0.153l0.406,0.154l0.41,0.154l0.414,0.154l0.418,0.155l0.421,0.155l0.425,0.156l0.429,0.156l0.433,0.157l0.437,0.157l0.44,0.157l0.444,0.158l0.448,0.158l0.452,0.159l0.455,0.159l0.459,0.159l0.463,0.16l0.466,0.16l0.47,0.16l0.473,0.161l0.477,0.161l0.481,0.162l0.485,0.162l0.488,0.162l0.491,0.163l0.495,0.163l0.499,0.163l0.502,0.163l0.505,0.164l0.509,0.164l0.513,0.165l0.516,0.165l0.519,0.165l1.05,0.331l1.063,0.332l1.076,0.334l1.09,0.334l1.103,0.336l1.117,0.337l1.129,0.338l1.143,0.338l1.155,0.34l1.168,0.341l1.181,0.341l1.193,0.342l1.206,0.344l1.219,0.344l1.23,0.344l1.243,0.346l1.254,0.346l1.267,0.347l1.278,0.347l1.291,0.348l1.301,0.349l1.314,0.349l1.324,0.35l1.336,0.35l1.347,0.35l1.359,0.351l1.369,0.352l1.38,0.351l1.391,0.353l1.402,0.352l1.412,0.353l1.423,0.353l1.433,0.353l1.443,0.353l1.453,0.353l1.464,0.354l1.473,0.354l1.483,0.353l1.493,0.354l1.503,0.354l1.512,0.353l1.522,0.354l1.531,0.353l1.54,0.354l1.549,0.353l1.558,0.353l1.567,0.353l1.576,0.352l1.585,0.353l1.593,0.352l1.602,0.351l1.61,0.351l1.618,0.351l1.627,0.351l1.634,0.35l1.643,0.349l1.65,0.349l1.659,0.348l1.666,0.348l1.673,0.347l1.681,0.347l1.688,0.346l1.696,0.345l1.704,0.345l0.301,0.086l0.285,0.132l0.26,0.175l0.23,0.214l0.194,0.247l0.152,0.274l0.108,0.295l0.06,0.308l0.011,0.314l-0.038,0.311l-0.086,0.302l-0.132,0.285l-0.175,0.26l-0.214,0.23l-0.247,0.193l-0.275,0.153l-0.294,0.107l-0.308,0.061l-0.314,0.011l-0.311,-0.038l-1.707,-0.345l-1.7,-0.346l-1.693,-0.347l-1.686,-0.348l-1.678,-0.348l-1.671,-0.349l-1.663,-0.349l-1.656,-0.35l-1.647,-0.351l-1.64,-0.351l-1.632,-0.351l-1.623,-0.352l-1.615,-0.352l-1.607,-0.353l-1.599,-0.353l-1.589,-0.354l-1.582,-0.353l-1.572,-0.354l-1.564,-0.354l-1.554,-0.355l-1.546,-0.355l-1.536,-0.354l-1.527,-0.355l-1.518,-0.355l-1.508,-0.355l-1.499,-0.355l-1.489,-0.355l-1.479,-0.355l-1.469,-0.355l-1.459,-0.355l-1.449,-0.355l-1.44,-0.354l-1.428,-0.355l-1.418,-0.354l-1.408,-0.354l-1.398,-0.354l-1.386,-0.353l-1.376,-0.353l-1.365,-0.353l-1.353,-0.352l-1.343,-0.352l-1.332,-0.352l-1.32,-0.351l-1.309,-0.35l-1.297,-0.35l-1.286,-0.349l-1.274,-0.349l-1.262,-0.348l-1.25,-0.348l-1.238,-0.347l-1.226,-0.346l-1.214,-0.346l-1.202,-0.344l-1.189,-0.344l-1.177,-0.343l-1.164,-0.342l-1.151,-0.342l-1.139,-0.34l-1.125,-0.34l-1.113,-0.338l-1.1,-0.338l-1.086,-0.336l-1.073,-0.336l-1.059,-0.334l-0.525,-0.167l-0.522,-0.167l-0.518,-0.166l-0.514,-0.166l-0.511,-0.165l-0.508,-0.166l-0.504,-0.165l-0.501,-0.165l-0.497,-0.164l-0.494,-0.164l-0.491,-0.164l-0.486,-0.164l-0.484,-0.163l-0.48,-0.163l-0.476,-0.163l-0.473,-0.162l-0.469,-0.162l-0.465,-0.162l-0.462,-0.161l-0.459,-0.161l-0.454,-0.161l-0.451,-0.16l-0.448,-0.16l-0.444,-0.159l-0.44,-0.16l-0.437,-0.158l-0.432,-0.159l-0.43,-0.158l-0.425,-0.158l-0.422,-0.157l-0.418,-0.158l-0.414,-0.156l-0.411,-0.157l-0.406,-0.156l-0.403,-0.155l-0.4,-0.155l-0.395,-0.155l-0.392,-0.155l-0.388,-0.154l-0.384,-0.154l-0.38,-0.153l-0.376,-0.153l-0.373,-0.152l-0.368,-0.153l-0.365,-0.151l-0.361,-0.152l-0.357,-0.151l-0.353,-0.15l-0.349,-0.15l-0.346,-0.15l-0.341,-0.149l-0.338,-0.149l-0.333,-0.149l-0.329,-0.148l-0.326,-0.148l-0.322,-0.147l-0.317,-0.147l-0.314,-0.147l-0.31,-0.146l-0.306,-0.146l-0.301,-0.145l-0.298,-0.145l-0.293,-0.145l-0.29,-0.144l-0.286,-0.144l-0.281,-0.143l-0.278,-0.143l-0.273,-0.143l-0.27,-0.143l-0.265,-0.142l-0.262,-0.141l-0.257,-0.142l-0.253,-0.141l-0.249,-0.14l-0.246,-0.141l-0.241,-0.14l-0.236,-0.139l-0.234,-0.14l-0.229,-0.139l-0.224,-0.139l-0.221,-0.139l-0.217,-0.139l-0.212,-0.138l-0.209,-0.138l-0.205,-0.139l-0.2,-0.138l-0.197,-0.138l-0.193,-0.138l-0.188,-0.138l-0.185,-0.138l-0.18,-0.138l-0.177,-0.138l-0.172,-0.139l-0.169,-0.138l-0.165,-0.14l-0.16,-0.139l-0.157,-0.14l-0.153,-0.141l-0.148,-0.141l-0.145,-0.142l-0.141,-0.143l-0.134,-0.14l-0.07,-0.076l-0.066,-0.072l-0.065,-0.074l-0.064,-0.073l-0.063,-0.073l-0.062,-0.075l-0.061,-0.074l-0.059,-0.075l-0.059,-0.075l-0.058,-0.076l-0.057,-0.076l-0.055,-0.076l-0.055,-0.078l-0.054,-0.078l-0.052,-0.078l-0.051,-0.079l-0.05,-0.08l-0.049,-0.08l-0.047,-0.081l-0.047,-0.082l-0.045,-0.082l-0.044,-0.083l-0.043,-0.084l-0.041,-0.085l-0.04,-0.085l-0.038,-0.086l-0.037,-0.087l-0.036,-0.088l-0.034,-0.089l-0.032,-0.09l-0.03,-0.09l-0.029,-0.092l-0.028,-0.092l-0.025,-0.092l-0.023,-0.094l-0.022,-0.095l-0.019,-0.096l-0.017,-0.097l-0.015,-0.096l-0.013,-0.098l-0.011,-0.098l-0.009,-0.099l-0.006,-0.099l-0.004,-0.099l-0.001,-0.1l0.001,-0.1l0.004,-0.101l0.006,-0.101l0.009,-0.1l0.012,-0.1l0.014,-0.1l0.017,-0.105l0.027,-0.139l0.035,-0.145l0.039,-0.144l0.045,-0.141l0.05,-0.139l0.055,-0.138l0.059,-0.134l0.064,-0.131l0.068,-0.129l0.072,-0.126l0.076,-0.122l0.079,-0.119l0.082,-0.117l0.086,-0.112l0.088,-0.11l0.091,-0.108l0.094,-0.104l0.096,-0.101l0.099,-0.098l0.101,-0.096l0.103,-0.094l0.105,-0.09l0.106,-0.088l0.11,-0.087l0.11,-0.083l0.113,-0.082l0.115,-0.08l0.116,-0.078l0.119,-0.076l0.119,-0.075l0.122,-0.072l0.124,-0.072l0.125,-0.069l0.127,-0.068l0.13,-0.068l0.131,-0.065l0.132,-0.064l0.135,-0.063l0.137,-0.062l0.138,-0.061l0.14,-0.059l0.143,-0.059l0.143,-0.057l0.147,-0.057l0.148,-0.055l0.15,-0.055l0.152,-0.054l0.154,-0.053l0.156,-0.051l0.157,-0.051l0.16,-0.051l0.163,-0.049l0.163,-0.049l0.166,-0.048l0.168,-0.047l0.171,-0.046l0.172,-0.046l0.174,-0.045l0.177,-0.044l0.178,-0.044l0.181,-0.043l0.182,-0.042l0.185,-0.041l0.187,-0.041l0.189,-0.041l0.191,-0.039l0.194,-0.039l0.195,-0.038l0.197,-0.038l0.2,-0.037l0.202,-0.036l0.204,-0.036l0.206,-0.036l0.208,-0.034l0.211,-0.034l0.212,-0.034l0.215,-0.032l0.216,-0.033l0.219,-0.031l0.221,-0.031l0.224,-0.031l0.225,-0.03l0.227,-0.029l0.23,-0.029l0.232,-0.028l0.234,-0.028l0.236,-0.027l0.238,-0.027l0.24,-0.026l0.244,-0.025l0.49,-0.049l0.5,-0.047l0.508,-0.045l0.517,-0.043l0.525,-0.04l0.533,-0.039l0.542,-0.036l0.55,-0.034l0.559,-0.032l0.567,-0.03l0.575,-0.028l0.583,-0.025l0.592,-0.024l0.6,-0.021l0.608,-0.02l0.616,-0.017l0.624,-0.015l0.633,-0.013l0.64,-0.011l0.648,-0.01l0.656,-0.006l0.664,-0.005l0.672,-0.003l0.68,-0.001l0.688,0.001Z" style="fill:#333;"/></g><path d="M633.133,263.471l-51.7,33.7" style="fill:none;stroke:#f6f7f8;stroke-width:2px;"/><path d="M668.533,268.871l-57.6,37.4" style="fill:none;stroke:#f6f7f8;stroke-width:2px;"/><path d="M653.733,306.271l-51.7,33.6" style="fill:none;stroke:#f6f7f8;stroke-width:2px;"/><path d="M612.933,255.071l15.9,82.1" style="fill:none;stroke:#f6f7f8;stroke-width:2px;"/></g><g id="Girl"><path d="M275.275,22.779c8.373,-3.581 18.078,0.308 21.66,8.681c3.581,8.373 -0.308,18.078 -8.681,21.66c-8.372,3.581 -18.078,-0.308 -21.659,-8.681c-3.582,-8.373 0.308,-18.078 8.68,-21.66Z" style="fill:#7a16ff;"/><path d="M404.333,184.471c-5.8,-5.3 -15.3,-10.5 -17.9,-14.3c-2.8,-4.1 -0.3,-8.5 1.4,-12.7c2.5,-6.1 3.2,-13 0.1,-19c-3.8,-7.3 -12.1,-9.8 -19.8,-8.1c-5.9,1.3 -10.3,6.6 -16,7.4c-10.6,1.4 -15.9,-12 -15.8,-20.3c0.1,-14.8 8.6,-28.2 14.1,-41.5c5.6,-13.4 9,-29 3.8,-43.1c-2.9,-7.9 -9.1,-15.5 -17.7,-17.5c-10,-2.3 -18.9,3 -22,12.7c-4.8,14.9 -0.7,30.7 -2.6,45.9c-0.3,2.3 -0.8,4.8 -2.5,6.6c-1.1,1.1 -2.7,1.5 -3.3,-0.3c-2.2,-6.6 -3.8,-12.8 -12.1,-15.1c-9.4,-2.6 -18.5,2.6 -23.5,10.3c-4.7,7.1 -7.2,16.5 -8.2,24.8c-1.1,9 0.6,17.6 4.2,25.9c7.5,16.9 23,28 39.1,36c3.5,1.7 11,6 7.2,16.8c-0.3,0.9 -0.6,1.8 -0.9,2.6c-5.7,14.8 -9,31.4 -3.1,46.7c6.5,17.1 21.2,31.4 38.7,36.9c31.2,9.6 69.6,-14.8 69.6,-48.3c-0.1,-12.8 -4.3,-24.7 -12.8,-32.4Z" style="fill:#7a16ff;fill-rule:nonzero;"/><path d="M339.745,165.09l0.276,0.051l0.269,0.081l0.257,0.111l0.244,0.139l0.226,0.165l0.207,0.189l0.184,0.212l0.159,0.231l0.132,0.247l38.5,82.7l0.104,0.26l0.074,0.27l0.044,0.277l0.012,0.281l-0.02,0.279l-0.05,0.276l-0.081,0.268l-0.111,0.258l-0.139,0.244l-0.165,0.226l-0.19,0.207l-0.211,0.184l-0.231,0.159l-0.247,0.132l-0.26,0.104l-0.271,0.074l-0.277,0.044l-0.28,0.012l-0.279,-0.02l-0.276,-0.05l-0.268,-0.081l-0.258,-0.111l-0.244,-0.139l-0.226,-0.165l-0.207,-0.19l-0.184,-0.211l-0.159,-0.231l-0.132,-0.247l-38.5,-82.7l-0.104,-0.26l-0.074,-0.271l-0.044,-0.277l-0.012,-0.28l0.02,-0.28l0.05,-0.275l0.081,-0.269l0.111,-0.257l0.139,-0.244l0.165,-0.226l0.19,-0.207l0.211,-0.184l0.231,-0.159l0.247,-0.133l0.26,-0.103l0.271,-0.075l0.277,-0.043l0.28,-0.012l0.279,0.019Z" style="fill:#333;"/><path d="M351.633,180.871l-1.4,9.8l-8.4,-5.2c-2.9,-1.8 -5.2,-4.4 -6.7,-7.5l-3.9,-8.4c-1.9,-4.2 -0.1,-9.1 4,-11c4.2,-1.9 9.1,-0.1 11,4l3.9,8.4c1.5,3 2,6.5 1.5,9.9Z" style="fill:#333;fill-rule:nonzero;"/><path d="M362.903,189.277l0.139,0.013l0.139,0.021l0.137,0.029l0.136,0.037l0.133,0.044l0.13,0.052l0.127,0.058l0.124,0.066l0.12,0.073l0.116,0.079l0.111,0.086l0.106,0.092l0.101,0.097l0.095,0.103l0.089,0.108l0.083,0.113l0.076,0.118l0.07,0.122l0.063,0.125l0.056,0.129l0.048,0.131l0.041,0.134l0.034,0.137l0.026,0.137l0.017,0.139l0.011,0.14l0.002,0.141l-0.006,0.14l-0.013,0.139l-0.021,0.139l-0.029,0.137l-0.037,0.135l-0.044,0.134l-0.052,0.13l-0.059,0.127l-0.065,0.124l-0.073,0.12l-0.079,0.116l-0.086,0.111l-0.092,0.106l-0.097,0.1l-0.103,0.096l-0.109,0.089l-0.113,0.083l-0.117,0.076l-0.122,0.07l-0.125,0.063l-19.7,9.2l-0.129,0.056l-0.131,0.048l-0.135,0.041l-0.136,0.034l-0.138,0.025l-0.139,0.018l-0.139,0.01l-0.141,0.003l-0.14,-0.006l-0.139,-0.013l-0.139,-0.022l-0.137,-0.029l-0.136,-0.036l-0.133,-0.044l-0.13,-0.052l-0.127,-0.059l-0.124,-0.066l-0.12,-0.072l-0.116,-0.08l-0.111,-0.085l-0.106,-0.092l-0.101,-0.098l-0.095,-0.103l-0.089,-0.108l-0.083,-0.113l-0.076,-0.117l-0.07,-0.122l-0.063,-0.125l-0.056,-0.129l-0.048,-0.132l-0.041,-0.134l-0.034,-0.136l-0.025,-0.138l-0.018,-0.139l-0.011,-0.14l-0.002,-0.14l0.006,-0.14l0.013,-0.14l0.021,-0.138l0.029,-0.137l0.037,-0.136l0.044,-0.133l0.052,-0.13l0.059,-0.128l0.065,-0.123l0.073,-0.12l0.079,-0.116l0.086,-0.111l0.092,-0.106l0.097,-0.101l0.103,-0.095l0.109,-0.089l0.113,-0.083l0.117,-0.077l0.122,-0.069l0.125,-0.063l19.7,-9.2l0.129,-0.056l0.131,-0.049l0.135,-0.041l0.136,-0.033l0.138,-0.026l0.139,-0.018l0.14,-0.01l0.14,-0.002l0.14,0.006Z" style="fill:#333;"/><path d="M386.852,211.674l0.2,0.017l0.199,0.034l0.195,0.05l0.19,0.065l0.185,0.08l0.178,0.095l0.169,0.109l0.16,0.122l0.15,0.134l0.138,0.147l0.126,0.156l0.114,0.167l0.099,0.175l0.085,0.183l0.07,0.188l0.055,0.194l0.038,0.198l0.023,0.2l0.007,0.201l-0.01,0.201l-0.025,0.2l-0.042,0.197l-0.057,0.193l-0.073,0.187l-0.088,0.182l-0.102,0.173l-0.115,0.165l-0.129,0.155l-0.14,0.144l-0.152,0.133l-0.162,0.119l-0.171,0.107l-0.179,0.092l-40.8,19l-0.185,0.078l-0.192,0.062l-0.196,0.047l-0.199,0.031l-0.2,0.014l-0.202,-0.001l-0.2,-0.018l-0.199,-0.033l-0.195,-0.05l-0.19,-0.065l-0.185,-0.08l-0.178,-0.095l-0.169,-0.109l-0.16,-0.122l-0.15,-0.135l-0.138,-0.146l-0.126,-0.157l-0.114,-0.166l-0.099,-0.175l-0.085,-0.183l-0.07,-0.189l-0.055,-0.193l-0.038,-0.198l-0.023,-0.2l-0.007,-0.201l0.01,-0.201l0.025,-0.2l0.042,-0.197l0.057,-0.193l0.073,-0.188l0.088,-0.181l0.102,-0.174l0.115,-0.164l0.129,-0.155l0.14,-0.145l0.152,-0.132l0.162,-0.12l0.171,-0.106l0.179,-0.092l40.8,-19l0.185,-0.078l0.192,-0.062l0.196,-0.047l0.199,-0.031l0.2,-0.015l0.202,0.002Z" style="fill:#333;"/><path d="M448.233,203.871c8.6,18.6 -19.4,62.2 -56.7,79.6c-39.1,18.2 -86.1,9.5 -94.4,-9.3c-1.4,-3.1 149.8,-73.2 151.1,-70.3Z" style="fill:#4d4d4d;fill-rule:nonzero;"/><path d="M378.033,308.471c-8,-2.7 -12.5,-17 0,-28.2c10,-8.9 28.2,-8 35.6,0c6.1,6.6 5,16 0,21.5c-5,5.5 -35.6,6.7 -35.6,6.7Z" style="fill:#171a21;fill-rule:nonzero;"/><path d="M440.033,413.071c8.8,-4.9 16.2,-11.9 21.6,-20.3c-4,-0.8 -15.8,0.6 -21.6,20.3Z" style="fill:#171a21;fill-rule:nonzero;"/><path d="M432.233,324.371c-14.6,29.9 -48.5,30.1 -68.4,27.3l0,-0.4l-9,-1.3c-3.8,-0.8 -6.1,-1.5 -6.1,-1.6c0,0.2 -0.1,0.5 -0.1,0.7l-4,-0.6c-7.4,-1 -14.2,4.1 -15.2,11.5c-1,7.4 4.1,14.2 11.5,15.2l9.5,1.3c0.1,0.4 0.2,0.8 0.3,1.2c1.7,-0.2 3.6,-0.3 5.7,-0.3l3.8,0.5l0.1,-0.5c9.3,0.5 20.1,3.4 25.9,13.4c5.4,9.1 4.7,19.6 3.2,26.6c9.2,3.2 19.2,4.3 29.5,2.8c7.7,-1.1 14.8,-3.6 21.2,-7.2c5.9,-19.7 17.6,-21.1 21.6,-20.3c5.8,-8.9 9.4,-19.4 10,-30.4c-23.5,-7.1 -34.6,-25.5 -39.5,-37.9Z" style="fill:#1cd2f2;fill-rule:nonzero;"/><path d="M471.033,349.971c-3,-20.5 -15.8,-37.1 -32.8,-45.9c-11.2,-5.8 -24.2,-8.2 -37.5,-6.3c-27.1,4 -47.5,25.1 -51.9,50.7c0.5,0.1 62.3,19.3 83.5,-24.1c4.9,12.4 16,30.9 39.4,38.1c0.1,-4.1 -0.1,-8.3 -0.7,-12.5Z" style="fill:#4d4d4d;fill-rule:nonzero;"/><path d="M433.533,347.571c0,-3.3 0,-5.2 0,-6.8" style="fill:none;stroke:#fff;stroke-width:2px;"/><path d="M433.433,374.171c0,-0.7 0,-1.4 0,-2.1" style="fill:none;stroke:#fff;stroke-width:2px;"/><path d="M416.533,394.371c7,1.1 15.4,0.9 16.4,0.4c0.2,-0.1 0.3,-5.2 0.4,-14.4" style="fill:none;stroke:#fff;stroke-width:2px;"/><circle cx="407.333" cy="357.571" r="22.9" style="fill:#fff;"/><circle cx="407.533" cy="357.571" r="22.9" style="fill:#fff;"/><circle cx="461.633" cy="362.671" r="22.9" style="fill:#fff;"/><path d="M431.097,356.061l0.222,0.002l0.224,0.005l0.225,0.005l0.228,0.008l0.23,0.009l0.231,0.011l0.234,0.013l0.234,0.015l0.237,0.017l0.238,0.019l0.24,0.021l0.242,0.023l0.243,0.025l0.244,0.027l0.246,0.03l0.247,0.032l0.248,0.034l0.25,0.037l0.252,0.04l0.251,0.042l0.254,0.045l0.254,0.047l0.255,0.05l0.257,0.053l0.257,0.056l0.258,0.059l0.258,0.062l0.259,0.065l0.261,0.068l0.261,0.071l0.261,0.075l0.262,0.078l0.262,0.081l0.263,0.085l0.263,0.088l0.263,0.092l0.263,0.096l0.258,0.097l0.137,0.053l0.132,0.052l0.132,0.053l0.132,0.054l0.13,0.055l0.132,0.056l0.133,0.057l0.131,0.058l0.13,0.058l0.132,0.06l0.132,0.062l0.131,0.062l0.131,0.062l0.132,0.065l0.131,0.065l0.13,0.066l0.131,0.067l0.13,0.068l0.13,0.07l0.131,0.071l0.13,0.071l0.129,0.073l0.13,0.074l0.13,0.075l0.129,0.076l0.128,0.076l0.13,0.079l0.128,0.08l0.128,0.08l0.128,0.082l0.127,0.083l0.129,0.084l0.126,0.085l0.126,0.086l0.127,0.088l0.126,0.089l0.126,0.091l0.125,0.09l0.125,0.092l0.125,0.095l0.124,0.094l0.123,0.096l0.123,0.097l0.124,0.099l0.122,0.1l0.122,0.101l0.122,0.102l0.121,0.104l0.12,0.104l0.12,0.106l0.12,0.107l0.119,0.109l0.118,0.109l0.118,0.112l0.118,0.112l0.116,0.114l0.116,0.114l0.116,0.116l0.115,0.118l0.114,0.119l0.114,0.119l0.113,0.122l0.113,0.123l0.111,0.123l0.111,0.125l0.102,0.116l-5.272,4.606l-0.082,-0.094l-0.073,-0.083l-0.074,-0.082l-0.074,-0.08l-0.074,-0.079l-0.074,-0.079l-0.075,-0.078l-0.076,-0.077l-0.075,-0.076l-0.076,-0.075l-0.077,-0.074l-0.076,-0.073l-0.077,-0.072l-0.077,-0.072l-0.078,-0.071l-0.077,-0.069l-0.079,-0.07l-0.079,-0.068l-0.078,-0.068l-0.079,-0.066l-0.08,-0.066l-0.079,-0.065l-0.08,-0.064l-0.081,-0.063l-0.081,-0.063l-0.081,-0.062l-0.08,-0.06l-0.082,-0.061l-0.083,-0.06l-0.081,-0.059l-0.082,-0.057l-0.083,-0.058l-0.084,-0.057l-0.083,-0.056l-0.083,-0.054l-0.084,-0.055l-0.084,-0.054l-0.085,-0.053l-0.085,-0.053l-0.084,-0.051l-0.085,-0.051l-0.086,-0.051l-0.086,-0.049l-0.086,-0.049l-0.086,-0.048l-0.087,-0.048l-0.086,-0.047l-0.087,-0.046l-0.088,-0.046l-0.087,-0.045l-0.088,-0.045l-0.088,-0.043l-0.088,-0.043l-0.089,-0.043l-0.088,-0.042l-0.089,-0.041l-0.089,-0.04l-0.09,-0.041l-0.09,-0.039l-0.089,-0.039l-0.089,-0.038l-0.091,-0.038l-0.091,-0.037l-0.09,-0.036l-0.091,-0.036l-0.086,-0.033l-0.187,-0.071l-0.183,-0.066l-0.184,-0.065l-0.184,-0.061l-0.184,-0.06l-0.186,-0.058l-0.186,-0.055l-0.186,-0.053l-0.186,-0.051l-0.186,-0.049l-0.188,-0.047l-0.187,-0.045l-0.188,-0.042l-0.188,-0.041l-0.187,-0.039l-0.188,-0.037l-0.187,-0.035l-0.187,-0.033l-0.188,-0.031l-0.187,-0.03l-0.187,-0.027l-0.186,-0.026l-0.187,-0.024l-0.186,-0.023l-0.185,-0.02l-0.185,-0.02l-0.184,-0.017l-0.183,-0.016l-0.183,-0.014l-0.182,-0.013l-0.181,-0.012l-0.181,-0.01l-0.179,-0.008l-0.178,-0.008l-0.177,-0.006l-0.177,-0.004l-0.175,-0.004l-0.174,-0.002l-0.173,-0.001l-0.17,0.001l-0.17,0.001l-0.168,0.002l-0.167,0.004l-0.165,0.004l-0.164,0.006l-0.161,0.006l-0.16,0.007l-0.159,0.008l-0.156,0.009l-0.154,0.01l-0.152,0.01l-0.151,0.011l-0.148,0.012l-0.146,0.012l-0.143,0.013l-0.142,0.013l-0.14,0.014l-0.136,0.014l-0.13,0.014l-0.266,0.031l-0.25,0.032l-0.24,0.032l-0.228,0.033l-0.217,0.033l-0.203,0.033l-0.192,0.032l-0.18,0.032l-0.165,0.03l-0.152,0.028l-0.139,0.027l-0.122,0.025l-0.217,0.045l-0.166,0.035l-0.098,0.02l-0.072,0.014l-1.28,-6.882l0.003,-0.001l0.014,-0.003l0.165,-0.035l0.252,-0.052l0.162,-0.032l0.176,-0.035l0.196,-0.037l0.211,-0.038l0.227,-0.04l0.242,-0.041l0.259,-0.041l0.272,-0.042l0.286,-0.041l0.3,-0.04l0.314,-0.04l0.321,-0.037l0.172,-0.019l0.172,-0.018l0.173,-0.017l0.177,-0.017l0.18,-0.016l0.182,-0.015l0.186,-0.015l0.187,-0.014l0.191,-0.013l0.194,-0.012l0.196,-0.011l0.199,-0.01l0.201,-0.009l0.204,-0.008l0.206,-0.007l0.208,-0.005l0.211,-0.005l0.213,-0.003l0.216,-0.001l0.217,-0.001l0.219,0.002Z" style="fill:#fff;"/><path d="M293.733,173.871c-5.6,-13.1 -24.7,-23.2 -35.1,-13.4c-5.4,5.1 -4,13.8 -0.7,18.8c6.3,9.5 6.4,14.2 6.9,16.5c0.9,4.1 2.6,7.9 6,10.5c4.3,3.4 10.4,3.2 14.7,0.1c7.6,-5.6 11.2,-16.6 10.1,-25.7c-0.3,-2.2 -0.9,-4.5 -1.9,-6.8Z" style="fill:#7a16ff;fill-rule:nonzero;"/><path d="M723.733,261.771c-8.2,-3.1 -12.9,19.1 -52.5,55.6c-25.2,23.2 -61.6,37.5 -68.4,40.1c-12.7,4.9 -28.3,3.7 -15.7,-19c14.2,-25.3 12.4,-46.6 -24.7,-4.8c-37.1,41.8 -41.5,96.8 -34.4,136.1c7.6,41.4 33.1,77.3 30.9,88.1c-2.9,14.1 -25.2,8.3 -50.9,-23.5c-21.6,-26.8 -32.5,-61.6 -82,-82.9c-16.2,7.4 -38.5,23.3 -41.7,54.5c-3.5,34.3 22.6,52.3 38.1,59.9c26.2,-32.6 41.7,1.1 61.9,22.2c40.8,42.6 96.1,79.5 127.2,64.8c30,-14.2 29.3,-48.8 8.1,-116.8c-15,-48 -9.5,-67.5 8.3,-83.9c18.3,-16.9 67.9,-27.8 74.1,-39.2c6.2,-11.4 -7.2,-17.5 -7.2,-20.4c0,-3 11.3,-9.9 11.8,-15.2c0.5,-5.3 -7.7,-8.1 -7.7,-11.8c0,-3.7 13.9,-11.2 11.3,-19c-2.6,-7.7 -10.8,-4.1 -14.4,-7c-3.6,-2.9 5.4,-8.7 16.9,-27.6c15.5,-24.9 19.3,-47.1 11,-50.2Z" style="fill:#1cd2f2;fill-rule:nonzero;"/><path d="M384.533,505.971c3.2,-31.1 25.5,-47.1 41.7,-54.5c-6.7,-2.9 -14,-5.5 -22.2,-8c-21.4,-6.4 -102,-26.1 -169.3,20c-67.3,46.1 -113.6,132.5 -108.4,144.2c5.2,11.7 264.1,48.6 278.1,8.1c0,0 4.6,-25.3 18.2,-49.9c-15.5,-7.6 -41.6,-25.6 -38.1,-59.9Z" style="fill:#171a21;fill-rule:nonzero;"/><path d="M386.133,390.971c-8.1,-13.7 -25.5,-14.1 -35.4,-13.1c6,18.9 20.6,33.4 38.6,39.7c1.5,-7.1 2.2,-17.5 -3.2,-26.6Z" style="fill:#171a21;fill-rule:nonzero;"/><path d="M704.733,327.871c-4.9,5.4 -35.9,32.2 -51,38.2" style="fill:none;stroke:#f6f7f8;stroke-width:2px;"/><path d="M40.333,336.971Z" style="fill:#fff;"/><path d="M407.632,346.444l0.142,0.002l0.143,0.005l0.143,0.006l0.143,0.008l0.143,0.01l0.143,0.012l0.143,0.013l0.142,0.016l0.142,0.017l0.141,0.019l0.14,0.02l0.14,0.023l0.14,0.024l0.138,0.026l0.138,0.028l0.138,0.029l0.137,0.031l0.136,0.032l0.135,0.035l0.135,0.036l0.134,0.038l0.133,0.039l0.133,0.041l0.132,0.042l0.131,0.044l0.131,0.046l0.129,0.047l0.129,0.049l0.128,0.05l0.127,0.052l0.127,0.054l0.125,0.054l0.125,0.057l0.124,0.057l0.123,0.06l0.122,0.06l0.121,0.062l0.121,0.064l0.119,0.065l0.119,0.067l0.117,0.067l0.117,0.069l0.116,0.071l0.114,0.072l0.114,0.073l0.113,0.074l0.112,0.076l0.111,0.077l0.109,0.078l0.109,0.08l0.108,0.081l0.107,0.082l0.106,0.084l0.104,0.084l0.104,0.086l0.102,0.087l0.102,0.088l0.1,0.089l0.099,0.091l0.099,0.092l0.096,0.092l0.096,0.094l0.095,0.095l0.093,0.096l0.093,0.097l0.091,0.099l0.09,0.099l0.089,0.101l0.088,0.101l0.087,0.102l0.085,0.104l0.084,0.105l0.083,0.105l0.081,0.106l0.081,0.108l0.079,0.108l0.077,0.11l0.077,0.11l0.075,0.111l0.074,0.112l0.073,0.114l0.071,0.114l0.07,0.114l0.069,0.116l0.067,0.117l0.066,0.117l0.064,0.118l0.064,0.119l0.061,0.12l0.061,0.121l0.059,0.121l0.057,0.123l0.056,0.123l0.055,0.123l0.053,0.125l0.052,0.125l0.05,0.126l0.049,0.127l0.047,0.128l0.046,0.127l0.044,0.129l0.043,0.13l0.041,0.13l0.04,0.131l0.038,0.131l0.036,0.132l0.035,0.132l0.033,0.133l0.032,0.134l0.03,0.134l0.029,0.135l0.026,0.135l0.026,0.136l0.023,0.136l0.022,0.137l0.02,0.138l0.019,0.137l0.017,0.138l0.015,0.139l0.013,0.139l0.012,0.14l0.01,0.14l0.008,0.14l0.006,0.14l0.005,0.141l0.003,0.142l0.001,0.141l-0.001,0.142l-0.003,0.142l-0.004,0.143l-0.006,0.143l-0.008,0.143l-0.01,0.133l-0.011,0.107l-0.019,0.105l-0.026,0.104l-0.033,0.102l-0.041,0.099l-0.048,0.096l-0.054,0.092l-0.061,0.088l-0.067,0.083l-0.073,0.079l-0.078,0.073l-0.083,0.067l-0.088,0.062l-0.092,0.055l-0.096,0.048l-0.098,0.041l-0.102,0.034l-0.104,0.027l-0.105,0.019l-0.106,0.012l-0.107,0.004l-0.107,-0.004l-0.107,-0.011l-0.105,-0.019l-0.104,-0.026l-0.102,-0.033l-0.099,-0.041l-0.096,-0.048l-0.092,-0.054l-0.088,-0.061l-0.084,-0.067l-0.078,-0.073l-0.073,-0.078l-0.068,-0.083l-0.061,-0.088l-0.055,-0.092l-0.048,-0.096l-0.041,-0.099l-0.034,-0.101l-0.027,-0.104l-0.019,-0.105l-0.012,-0.107l-0.004,-0.107l0.004,-0.107l0.007,-0.114l0.006,-0.105l0.005,-0.104l0.003,-0.105l0.002,-0.104l0.001,-0.103l-0.001,-0.104l-0.002,-0.103l-0.004,-0.103l-0.004,-0.103l-0.006,-0.102l-0.008,-0.103l-0.008,-0.101l-0.01,-0.102l-0.011,-0.101l-0.012,-0.101l-0.014,-0.101l-0.014,-0.1l-0.016,-0.1l-0.017,-0.099l-0.019,-0.099l-0.019,-0.099l-0.021,-0.099l-0.022,-0.097l-0.023,-0.098l-0.025,-0.097l-0.025,-0.097l-0.027,-0.097l-0.028,-0.096l-0.029,-0.095l-0.03,-0.095l-0.031,-0.095l-0.032,-0.094l-0.034,-0.094l-0.035,-0.093l-0.035,-0.093l-0.037,-0.092l-0.038,-0.092l-0.039,-0.091l-0.04,-0.091l-0.041,-0.091l-0.042,-0.089l-0.044,-0.089l-0.044,-0.089l-0.045,-0.088l-0.047,-0.088l-0.047,-0.086l-0.048,-0.086l-0.05,-0.086l-0.05,-0.085l-0.052,-0.085l-0.052,-0.083l-0.053,-0.083l-0.055,-0.083l-0.055,-0.082l-0.056,-0.081l-0.058,-0.08l-0.058,-0.08l-0.059,-0.079l-0.06,-0.079l-0.061,-0.077l-0.062,-0.077l-0.062,-0.076l-0.064,-0.076l-0.064,-0.074l-0.066,-0.074l-0.066,-0.073l-0.067,-0.072l-0.068,-0.071l-0.069,-0.071l-0.07,-0.07l-0.07,-0.069l-0.071,-0.068l-0.072,-0.067l-0.073,-0.067l-0.074,-0.065l-0.074,-0.065l-0.075,-0.064l-0.077,-0.063l-0.076,-0.062l-0.078,-0.061l-0.078,-0.06l-0.079,-0.06l-0.08,-0.058l-0.08,-0.057l-0.081,-0.056l-0.082,-0.056l-0.083,-0.055l-0.083,-0.053l-0.084,-0.053l-0.084,-0.051l-0.085,-0.05l-0.086,-0.05l-0.087,-0.048l-0.087,-0.048l-0.087,-0.046l-0.089,-0.045l-0.089,-0.045l-0.09,-0.043l-0.09,-0.042l-0.091,-0.041l-0.091,-0.04l-0.092,-0.039l-0.093,-0.037l-0.093,-0.037l-0.094,-0.036l-0.094,-0.034l-0.094,-0.033l-0.096,-0.032l-0.096,-0.031l-0.096,-0.03l-0.097,-0.028l-0.098,-0.028l-0.098,-0.026l-0.098,-0.025l-0.099,-0.024l-0.1,-0.022l-0.099,-0.021l-0.101,-0.021l-0.101,-0.018l-0.102,-0.018l-0.101,-0.016l-0.103,-0.015l-0.103,-0.014l-0.103,-0.013l-0.104,-0.011l-0.104,-0.01l-0.105,-0.008l-0.105,-0.008l-0.105,-0.006l-0.104,-0.004l-0.104,-0.003l-0.104,-0.002l-0.104,-0.001l-0.104,0.001l-0.103,0.002l-0.103,0.003l-0.103,0.005l-0.102,0.006l-0.103,0.007l-0.101,0.009l-0.102,0.01l-0.101,0.011l-0.101,0.012l-0.1,0.013l-0.101,0.015l-0.099,0.016l-0.1,0.017l-0.099,0.019l-0.099,0.019l-0.098,0.021l-0.098,0.022l-0.098,0.023l-0.097,0.025l-0.097,0.025l-0.097,0.027l-0.096,0.028l-0.095,0.029l-0.095,0.03l-0.095,0.031l-0.094,0.032l-0.094,0.034l-0.093,0.034l-0.093,0.036l-0.092,0.037l-0.092,0.038l-0.091,0.039l-0.091,0.04l-0.09,0.041l-0.09,0.042l-0.089,0.043l-0.089,0.045l-0.088,0.045l-0.087,0.046l-0.087,0.048l-0.086,0.048l-0.086,0.05l-0.085,0.05l-0.084,0.052l-0.084,0.052l-0.083,0.053l-0.083,0.055l-0.081,0.055l-0.082,0.056l-0.08,0.058l-0.08,0.057l-0.079,0.06l-0.078,0.06l-0.078,0.061l-0.077,0.062l-0.076,0.062l-0.075,0.064l-0.075,0.064l-0.074,0.066l-0.073,0.066l-0.072,0.067l-0.071,0.068l-0.071,0.069l-0.07,0.069l-0.069,0.071l-0.068,0.071l-0.067,0.072l-0.067,0.073l-0.065,0.074l-0.065,0.074l-0.064,0.075l-0.063,0.076l-0.062,0.077l-0.061,0.078l-0.06,0.078l-0.059,0.079l-0.059,0.08l-0.057,0.08l-0.056,0.081l-0.056,0.082l-0.054,0.082l-0.054,0.084l-0.052,0.083l-0.052,0.085l-0.05,0.085l-0.05,0.086l-0.048,0.086l-0.047,0.088l-0.047,0.087l-0.045,0.089l-0.044,0.089l-0.044,0.089l-0.042,0.091l-0.041,0.091l-0.04,0.091l-0.038,0.092l-0.038,0.092l-0.037,0.094l-0.035,0.093l-0.035,0.095l-0.033,0.094l-0.032,0.096l-0.031,0.096l-0.03,0.096l-0.028,0.097l-0.027,0.097l-0.027,0.098l-0.025,0.099l-0.023,0.099l-0.023,0.1l-0.021,0.099l-0.02,0.101l-0.019,0.101l-0.018,0.101l-0.016,0.102l-0.015,0.103l-0.014,0.103l-0.013,0.103l-0.011,0.104l-0.01,0.104l-0.009,0.115l-0.013,0.106l-0.02,0.105l-0.027,0.104l-0.035,0.101l-0.042,0.098l-0.049,0.095l-0.056,0.092l-0.062,0.087l-0.068,0.083l-0.074,0.078l-0.079,0.072l-0.084,0.066l-0.088,0.06l-0.093,0.054l-0.096,0.047l-0.1,0.04l-0.102,0.032l-0.104,0.026l-0.105,0.018l-0.107,0.01l-0.107,0.003l-0.107,-0.005l-0.106,-0.013l-0.105,-0.02l-0.104,-0.027l-0.101,-0.035l-0.098,-0.042l-0.096,-0.049l-0.091,-0.056l-0.087,-0.062l-0.083,-0.068l-0.078,-0.074l-0.072,-0.079l-0.066,-0.084l-0.06,-0.088l-0.054,-0.093l-0.047,-0.096l-0.04,-0.1l-0.033,-0.102l-0.025,-0.104l-0.018,-0.105l-0.01,-0.107l-0.003,-0.107l0.005,-0.107l0.011,-0.133l0.014,-0.143l0.015,-0.142l0.017,-0.142l0.019,-0.141l0.021,-0.141l0.022,-0.14l0.024,-0.139l0.026,-0.138l0.028,-0.139l0.029,-0.137l0.031,-0.137l0.033,-0.136l0.034,-0.136l0.036,-0.134l0.038,-0.134l0.039,-0.134l0.041,-0.132l0.042,-0.132l0.045,-0.131l0.045,-0.131l0.047,-0.129l0.049,-0.129l0.05,-0.128l0.052,-0.127l0.054,-0.127l0.055,-0.126l0.056,-0.124l0.058,-0.124l0.059,-0.123l0.061,-0.122l0.062,-0.121l0.063,-0.121l0.065,-0.119l0.067,-0.119l0.068,-0.117l0.069,-0.117l0.07,-0.116l0.072,-0.114l0.073,-0.114l0.074,-0.113l0.076,-0.112l0.077,-0.111l0.079,-0.11l0.079,-0.108l0.081,-0.108l0.082,-0.107l0.084,-0.106l0.084,-0.104l0.086,-0.104l0.087,-0.102l0.088,-0.102l0.09,-0.1l0.09,-0.099l0.092,-0.099l0.092,-0.097l0.094,-0.095l0.095,-0.095l0.096,-0.094l0.098,-0.092l0.098,-0.092l0.099,-0.09l0.101,-0.089l0.101,-0.087l0.103,-0.087l0.103,-0.085l0.105,-0.084l0.105,-0.083l0.107,-0.081l0.107,-0.081l0.109,-0.079l0.109,-0.078l0.11,-0.076l0.112,-0.076l0.112,-0.073l0.113,-0.073l0.114,-0.071l0.115,-0.07l0.115,-0.069l0.117,-0.067l0.117,-0.066l0.119,-0.065l0.119,-0.063l0.12,-0.061l0.12,-0.061l0.122,-0.059l0.122,-0.057l0.123,-0.056l0.124,-0.055l0.124,-0.053l0.126,-0.052l0.126,-0.05l0.126,-0.049l0.128,-0.047l0.128,-0.046l0.128,-0.044l0.13,-0.043l0.13,-0.041l0.131,-0.04l0.131,-0.038l0.132,-0.036l0.133,-0.035l0.132,-0.033l0.134,-0.032l0.134,-0.03l0.135,-0.029l0.136,-0.027l0.135,-0.025l0.137,-0.023l0.137,-0.022l0.137,-0.02l0.137,-0.019l0.139,-0.017l0.138,-0.015l0.139,-0.013l0.14,-0.012l0.14,-0.01l0.14,-0.008l0.14,-0.006l0.142,-0.005l0.141,-0.003l0.142,-0.001l0.141,0.001Z" style="fill:#2b01b3;"/><path d="M463.338,350.344l0.148,0.003l0.149,0.004l0.15,0.007l0.149,0.008l0.15,0.01l0.149,0.013l0.149,0.014l0.149,0.016l0.148,0.018l0.148,0.02l0.146,0.021l0.147,0.024l0.145,0.025l0.145,0.027l0.145,0.029l0.143,0.031l0.143,0.032l0.143,0.034l0.141,0.036l0.141,0.038l0.14,0.039l0.14,0.041l0.139,0.043l0.138,0.044l0.137,0.046l0.136,0.048l0.135,0.049l0.135,0.051l0.134,0.053l0.133,0.054l0.132,0.056l0.131,0.057l0.131,0.059l0.129,0.061l0.129,0.062l0.127,0.063l0.127,0.065l0.126,0.067l0.125,0.067l0.123,0.07l0.123,0.07l0.122,0.073l0.121,0.073l0.12,0.076l0.119,0.076l0.118,0.078l0.117,0.079l0.116,0.08l0.114,0.082l0.114,0.083l0.112,0.085l0.112,0.086l0.11,0.087l0.11,0.088l0.108,0.09l0.107,0.091l0.106,0.091l0.105,0.094l0.104,0.095l0.102,0.095l0.101,0.097l0.1,0.098l0.099,0.099l0.098,0.101l0.097,0.101l0.095,0.103l0.094,0.103l0.093,0.105l0.091,0.106l0.09,0.107l0.09,0.108l0.087,0.109l0.087,0.111l0.085,0.111l0.084,0.112l0.082,0.113l0.082,0.114l0.08,0.116l0.078,0.116l0.077,0.117l0.076,0.118l0.075,0.119l0.073,0.12l0.071,0.121l0.071,0.121l0.068,0.123l0.068,0.123l0.066,0.125l0.064,0.125l0.063,0.126l0.062,0.127l0.06,0.128l0.058,0.128l0.057,0.129l0.056,0.131l0.054,0.13l0.053,0.132l0.05,0.132l0.05,0.133l0.048,0.134l0.046,0.135l0.045,0.135l0.042,0.136l0.042,0.136l0.04,0.138l0.038,0.137l0.036,0.139l0.035,0.139l0.033,0.14l0.032,0.14l0.029,0.14l0.029,0.142l0.026,0.142l0.024,0.142l0.023,0.143l0.021,0.144l0.02,0.144l0.017,0.144l0.016,0.145l0.014,0.146l0.012,0.145l0.011,0.146l0.008,0.147l0.007,0.147l0.005,0.147l0.003,0.148l0.001,0.148l-0.001,0.148l-0.003,0.149l-0.004,0.148l-0.007,0.149l-0.008,0.15l-0.01,0.137l-0.012,0.122l-0.02,0.122l-0.027,0.12l-0.035,0.118l-0.041,0.116l-0.049,0.113l-0.056,0.11l-0.062,0.106l-0.069,0.102l-0.075,0.098l-0.081,0.093l-0.086,0.088l-0.092,0.082l-0.097,0.077l-0.101,0.07l-0.105,0.064l-0.109,0.058l-0.112,0.05l-0.115,0.044l-0.118,0.036l-0.12,0.03l-0.121,0.021l-0.122,0.015l-0.123,0.006l-0.123,-0.001l-0.123,-0.008l-0.122,-0.016l-0.121,-0.024l-0.12,-0.031l-0.117,-0.038l-0.114,-0.045l-0.112,-0.053l-0.108,-0.059l-0.104,-0.065l-0.1,-0.072l-0.095,-0.078l-0.091,-0.084l-0.085,-0.089l-0.079,-0.094l-0.074,-0.099l-0.067,-0.103l-0.061,-0.107l-0.054,-0.111l-0.047,-0.114l-0.04,-0.116l-0.033,-0.119l-0.026,-0.12l-0.018,-0.122l-0.01,-0.123l-0.003,-0.123l0.005,-0.123l0.007,-0.111l0.006,-0.099l0.004,-0.098l0.003,-0.098l0.002,-0.098l0.001,-0.097l-0.001,-0.097l-0.002,-0.097l-0.003,-0.097l-0.005,-0.096l-0.005,-0.096l-0.007,-0.096l-0.008,-0.096l-0.009,-0.095l-0.011,-0.095l-0.011,-0.095l-0.013,-0.094l-0.014,-0.094l-0.015,-0.093l-0.016,-0.094l-0.017,-0.093l-0.018,-0.093l-0.02,-0.092l-0.02,-0.092l-0.022,-0.092l-0.023,-0.091l-0.024,-0.091l-0.025,-0.09l-0.026,-0.091l-0.027,-0.089l-0.029,-0.09l-0.029,-0.089l-0.03,-0.088l-0.032,-0.088l-0.032,-0.088l-0.034,-0.087l-0.034,-0.086l-0.036,-0.087l-0.037,-0.085l-0.037,-0.086l-0.039,-0.084l-0.039,-0.085l-0.041,-0.083l-0.042,-0.084l-0.042,-0.082l-0.044,-0.082l-0.044,-0.082l-0.046,-0.081l-0.046,-0.081l-0.048,-0.079l-0.048,-0.08l-0.049,-0.079l-0.051,-0.078l-0.051,-0.077l-0.052,-0.077l-0.053,-0.076l-0.053,-0.076l-0.055,-0.075l-0.056,-0.074l-0.056,-0.074l-0.057,-0.073l-0.058,-0.072l-0.059,-0.072l-0.06,-0.071l-0.061,-0.07l-0.061,-0.069l-0.063,-0.069l-0.063,-0.068l-0.063,-0.067l-0.065,-0.066l-0.066,-0.066l-0.065,-0.064l-0.068,-0.065l-0.068,-0.063l-0.068,-0.063l-0.069,-0.061l-0.07,-0.061l-0.071,-0.06l-0.071,-0.059l-0.072,-0.058l-0.073,-0.058l-0.073,-0.056l-0.075,-0.056l-0.075,-0.055l-0.075,-0.053l-0.076,-0.053l-0.077,-0.052l-0.078,-0.052l-0.078,-0.05l-0.078,-0.049l-0.08,-0.048l-0.079,-0.048l-0.081,-0.046l-0.081,-0.046l-0.082,-0.044l-0.082,-0.043l-0.083,-0.043l-0.084,-0.042l-0.084,-0.04l-0.084,-0.04l-0.086,-0.038l-0.086,-0.038l-0.085,-0.036l-0.087,-0.035l-0.088,-0.035l-0.087,-0.033l-0.089,-0.032l-0.089,-0.031l-0.089,-0.03l-0.09,-0.029l-0.09,-0.028l-0.091,-0.027l-0.092,-0.025l-0.092,-0.025l-0.092,-0.023l-0.093,-0.023l-0.093,-0.021l-0.094,-0.02l-0.094,-0.019l-0.095,-0.017l-0.095,-0.017l-0.095,-0.015l-0.097,-0.014l-0.096,-0.013l-0.097,-0.012l-0.097,-0.01l-0.098,-0.01l-0.098,-0.008l-0.099,-0.007l-0.099,-0.005l-0.097,-0.004l-0.098,-0.003l-0.099,-0.002l-0.097,-0.001l-0.097,0.001l-0.097,0.002l-0.096,0.003l-0.097,0.004l-0.096,0.006l-0.096,0.007l-0.096,0.008l-0.095,0.009l-0.095,0.01l-0.094,0.012l-0.095,0.013l-0.094,0.013l-0.094,0.015l-0.093,0.016l-0.093,0.018l-0.093,0.018l-0.091,0.02l-0.093,0.02l-0.092,0.022l-0.091,0.023l-0.091,0.024l-0.09,0.025l-0.09,0.026l-0.09,0.027l-0.09,0.029l-0.089,0.029l-0.088,0.03l-0.088,0.032l-0.087,0.032l-0.088,0.034l-0.087,0.034l-0.085,0.036l-0.086,0.036l-0.085,0.038l-0.085,0.039l-0.084,0.039l-0.084,0.041l-0.084,0.042l-0.082,0.042l-0.082,0.044l-0.082,0.044l-0.081,0.046l-0.081,0.046l-0.079,0.048l-0.08,0.048l-0.078,0.049l-0.079,0.05l-0.077,0.051l-0.077,0.053l-0.076,0.052l-0.076,0.054l-0.075,0.055l-0.074,0.055l-0.074,0.057l-0.073,0.057l-0.072,0.058l-0.072,0.059l-0.07,0.06l-0.071,0.061l-0.069,0.061l-0.068,0.062l-0.068,0.063l-0.068,0.064l-0.066,0.065l-0.066,0.065l-0.064,0.066l-0.065,0.067l-0.063,0.068l-0.062,0.069l-0.062,0.069l-0.061,0.07l-0.06,0.071l-0.059,0.071l-0.058,0.072l-0.057,0.073l-0.057,0.073l-0.056,0.075l-0.054,0.074l-0.054,0.076l-0.053,0.076l-0.052,0.077l-0.051,0.077l-0.051,0.078l-0.049,0.079l-0.048,0.079l-0.047,0.08l-0.047,0.081l-0.045,0.081l-0.045,0.082l-0.043,0.082l-0.043,0.083l-0.041,0.083l-0.041,0.085l-0.039,0.084l-0.039,0.085l-0.037,0.086l-0.037,0.087l-0.035,0.086l-0.034,0.088l-0.034,0.087l-0.032,0.089l-0.031,0.089l-0.03,0.089l-0.029,0.09l-0.028,0.09l-0.026,0.091l-0.026,0.092l-0.025,0.092l-0.023,0.092l-0.022,0.093l-0.022,0.093l-0.02,0.094l-0.018,0.094l-0.018,0.094l-0.017,0.096l-0.015,0.095l-0.014,0.096l-0.013,0.097l-0.012,0.097l-0.01,0.097l-0.01,0.098l-0.009,0.111l-0.014,0.123l-0.021,0.121l-0.029,0.12l-0.036,0.118l-0.043,0.115l-0.05,0.112l-0.058,0.11l-0.063,0.105l-0.07,0.101l-0.077,0.097l-0.082,0.092l-0.087,0.087l-0.093,0.081l-0.097,0.075l-0.102,0.069l-0.106,0.063l-0.11,0.056l-0.113,0.049l-0.116,0.042l-0.118,0.035l-0.12,0.028l-0.121,0.02l-0.123,0.013l-0.123,0.005l-0.123,-0.003l-0.123,-0.01l-0.122,-0.017l-0.12,-0.026l-0.119,-0.032l-0.117,-0.04l-0.114,-0.047l-0.111,-0.053l-0.107,-0.061l-0.103,-0.067l-0.099,-0.073l-0.095,-0.079l-0.089,-0.085l-0.084,-0.09l-0.078,-0.095l-0.072,-0.1l-0.066,-0.104l-0.06,-0.108l-0.053,-0.111l-0.045,-0.115l-0.039,-0.117l-0.031,-0.119l-0.024,-0.121l-0.016,-0.122l-0.009,-0.123l-0.002,-0.123l0.007,-0.123l0.011,-0.136l0.014,-0.15l0.016,-0.148l0.018,-0.148l0.02,-0.148l0.021,-0.147l0.024,-0.146l0.025,-0.145l0.027,-0.145l0.029,-0.145l0.031,-0.144l0.032,-0.143l0.034,-0.142l0.036,-0.142l0.038,-0.14l0.039,-0.14l0.041,-0.14l0.043,-0.139l0.044,-0.137l0.047,-0.138l0.047,-0.136l0.05,-0.135l0.051,-0.135l0.052,-0.134l0.055,-0.133l0.055,-0.132l0.058,-0.131l0.059,-0.131l0.06,-0.129l0.062,-0.129l0.063,-0.127l0.065,-0.127l0.067,-0.126l0.068,-0.125l0.069,-0.123l0.071,-0.123l0.072,-0.123l0.074,-0.121l0.075,-0.119l0.076,-0.119l0.078,-0.118l0.079,-0.117l0.081,-0.116l0.081,-0.115l0.084,-0.113l0.084,-0.112l0.086,-0.112l0.087,-0.111l0.088,-0.109l0.09,-0.108l0.091,-0.107l0.092,-0.106l0.093,-0.105l0.094,-0.103l0.096,-0.103l0.097,-0.101l0.098,-0.1l0.1,-0.099l0.1,-0.098l0.101,-0.096l0.103,-0.096l0.104,-0.094l0.105,-0.093l0.105,-0.091l0.107,-0.091l0.109,-0.089l0.109,-0.088l0.11,-0.086l0.111,-0.085l0.112,-0.084l0.113,-0.083l0.114,-0.081l0.116,-0.08l0.116,-0.078l0.117,-0.077l0.118,-0.076l0.119,-0.075l0.12,-0.073l0.121,-0.072l0.122,-0.07l0.122,-0.068l0.123,-0.068l0.125,-0.066l0.126,-0.064l0.125,-0.063l0.127,-0.062l0.128,-0.06l0.128,-0.059l0.13,-0.057l0.13,-0.055l0.131,-0.054l0.131,-0.053l0.132,-0.05l0.134,-0.05l0.134,-0.048l0.134,-0.046l0.135,-0.045l0.136,-0.043l0.136,-0.041l0.137,-0.04l0.139,-0.038l0.138,-0.037l0.139,-0.034l0.14,-0.033l0.14,-0.032l0.141,-0.03l0.141,-0.028l0.142,-0.026l0.143,-0.025l0.143,-0.022l0.143,-0.022l0.144,-0.019l0.144,-0.017l0.145,-0.016l0.146,-0.014l0.146,-0.012l0.145,-0.011l0.147,-0.008l0.147,-0.007l0.147,-0.005l0.148,-0.003l0.148,-0.001l0.148,0.001Z" style="fill:#7415fc;"/><g><path d="M468.933,341.071c0.9,2.9 1.6,5.9 2,9c0.6,4.2 0.8,8.4 0.6,12.5c-0.4,8 -2.4,15.6 -5.7,22.7c10.6,-2 18.6,-11.3 18.6,-22.5c0.1,-10.1 -6.4,-18.7 -15.5,-21.7Z" style="fill:#acc7ff;fill-rule:nonzero;"/><path d="M461.633,358.471c-6.4,-3.4 -11.7,-7.6 -15.9,-12.2c-4.3,4.2 -7,10 -7,16.5c0,10.9 7.6,19.9 17.7,22.3c6,-9.5 6.6,-18.8 5.2,-26.6Z" style="fill:#fff;fill-rule:nonzero;"/><path d="M461.633,358.471c1.4,7.8 0.8,17.1 -5.2,26.5c1.7,0.4 3.4,0.6 5.2,0.6c1.5,0 2.9,-0.1 4.3,-0.4c3.3,-7 5.2,-14.7 5.7,-22.7c-3.6,-1 -6.9,-2.4 -10,-4Z" style="fill:#acc7ff;fill-rule:nonzero;"/><path d="M471.633,362.571c0.2,-4.1 0,-8.3 -0.6,-12.5c-0.5,-3.1 -1.1,-6.1 -2,-9c-2.3,-0.8 -4.8,-1.2 -7.3,-1.2c-2.5,0 -4.8,0.4 -7.1,1.1c2.2,3.4 5.7,9.7 7.1,17.5c3,1.6 6.3,3 9.9,4.1Z" style="fill:#acc7ff;fill-rule:nonzero;"/><path d="M461.633,358.471c-1.4,-7.8 -4.9,-14.1 -7.1,-17.5c-3.3,1.1 -6.4,2.9 -8.8,5.3c4.3,4.6 9.5,8.9 15.9,12.2Z" style="fill:#fff;fill-rule:nonzero;"/></g><path d="M462.433,350.844l0.141,0.003l0.143,0.004l0.143,0.006l0.143,0.008l0.143,0.01l0.143,0.012l0.143,0.013l0.142,0.016l0.142,0.017l0.141,0.019l0.14,0.02l0.14,0.023l0.14,0.024l0.138,0.026l0.139,0.028l0.137,0.029l0.137,0.031l0.136,0.033l0.135,0.034l0.135,0.036l0.134,0.038l0.133,0.039l0.133,0.041l0.132,0.042l0.131,0.044l0.131,0.046l0.129,0.047l0.129,0.049l0.128,0.05l0.127,0.052l0.127,0.054l0.125,0.054l0.125,0.057l0.124,0.057l0.123,0.06l0.122,0.06l0.121,0.062l0.121,0.064l0.119,0.065l0.118,0.066l0.118,0.068l0.117,0.069l0.116,0.071l0.114,0.072l0.114,0.073l0.113,0.074l0.112,0.076l0.111,0.077l0.11,0.079l0.108,0.079l0.108,0.081l0.107,0.082l0.105,0.083l0.105,0.085l0.104,0.086l0.102,0.087l0.101,0.088l0.101,0.089l0.099,0.091l0.098,0.091l0.097,0.093l0.096,0.094l0.095,0.095l0.094,0.096l0.092,0.098l0.091,0.098l0.09,0.099l0.089,0.1l0.088,0.102l0.087,0.102l0.085,0.104l0.084,0.104l0.083,0.106l0.081,0.107l0.081,0.107l0.079,0.108l0.078,0.11l0.076,0.11l0.075,0.111l0.074,0.112l0.073,0.114l0.071,0.113l0.07,0.115l0.069,0.116l0.067,0.117l0.066,0.117l0.064,0.118l0.064,0.119l0.061,0.12l0.061,0.121l0.059,0.121l0.057,0.123l0.056,0.123l0.055,0.124l0.053,0.124l0.052,0.125l0.05,0.126l0.049,0.127l0.047,0.127l0.046,0.128l0.044,0.129l0.043,0.13l0.041,0.13l0.04,0.131l0.038,0.131l0.036,0.132l0.035,0.132l0.033,0.133l0.032,0.134l0.03,0.134l0.029,0.135l0.026,0.135l0.026,0.136l0.023,0.136l0.022,0.137l0.02,0.138l0.019,0.137l0.017,0.138l0.015,0.139l0.013,0.139l0.012,0.14l0.01,0.139l0.008,0.141l0.006,0.14l0.005,0.141l0.003,0.142l0.001,0.141l-0.001,0.142l-0.003,0.142l-0.004,0.143l-0.006,0.143l-0.008,0.143l-0.01,0.133l-0.011,0.107l-0.019,0.105l-0.026,0.104l-0.033,0.102l-0.041,0.099l-0.048,0.096l-0.054,0.092l-0.061,0.088l-0.067,0.083l-0.073,0.079l-0.078,0.073l-0.083,0.067l-0.088,0.062l-0.092,0.055l-0.096,0.048l-0.098,0.041l-0.102,0.034l-0.104,0.027l-0.105,0.019l-0.106,0.012l-0.107,0.004l-0.107,-0.004l-0.107,-0.011l-0.105,-0.019l-0.104,-0.026l-0.102,-0.034l-0.099,-0.04l-0.096,-0.048l-0.092,-0.054l-0.088,-0.061l-0.084,-0.067l-0.078,-0.073l-0.073,-0.078l-0.068,-0.083l-0.061,-0.088l-0.055,-0.092l-0.048,-0.096l-0.041,-0.099l-0.034,-0.101l-0.027,-0.104l-0.019,-0.105l-0.012,-0.107l-0.004,-0.107l0.004,-0.107l0.008,-0.114l0.005,-0.105l0.005,-0.104l0.003,-0.105l0.002,-0.104l0.001,-0.103l-0.001,-0.104l-0.002,-0.103l-0.004,-0.103l-0.004,-0.103l-0.006,-0.102l-0.008,-0.103l-0.008,-0.102l-0.01,-0.101l-0.011,-0.101l-0.012,-0.101l-0.014,-0.101l-0.014,-0.1l-0.016,-0.1l-0.018,-0.099l-0.018,-0.099l-0.019,-0.099l-0.021,-0.098l-0.022,-0.099l-0.023,-0.097l-0.025,-0.097l-0.025,-0.097l-0.027,-0.097l-0.028,-0.096l-0.029,-0.095l-0.03,-0.095l-0.031,-0.095l-0.032,-0.094l-0.034,-0.094l-0.035,-0.093l-0.035,-0.093l-0.037,-0.092l-0.038,-0.092l-0.039,-0.092l-0.04,-0.09l-0.041,-0.091l-0.042,-0.089l-0.044,-0.089l-0.044,-0.089l-0.045,-0.088l-0.047,-0.087l-0.047,-0.087l-0.048,-0.087l-0.05,-0.085l-0.05,-0.085l-0.052,-0.085l-0.052,-0.083l-0.053,-0.083l-0.055,-0.083l-0.055,-0.082l-0.056,-0.081l-0.058,-0.08l-0.058,-0.08l-0.059,-0.079l-0.06,-0.078l-0.061,-0.078l-0.062,-0.077l-0.062,-0.076l-0.064,-0.075l-0.064,-0.075l-0.066,-0.074l-0.066,-0.073l-0.067,-0.072l-0.068,-0.072l-0.069,-0.07l-0.07,-0.07l-0.07,-0.069l-0.071,-0.068l-0.072,-0.068l-0.073,-0.066l-0.074,-0.065l-0.074,-0.065l-0.076,-0.064l-0.075,-0.063l-0.077,-0.062l-0.078,-0.061l-0.078,-0.06l-0.079,-0.059l-0.08,-0.059l-0.08,-0.057l-0.081,-0.057l-0.082,-0.055l-0.083,-0.055l-0.083,-0.053l-0.084,-0.052l-0.084,-0.052l-0.085,-0.05l-0.086,-0.05l-0.087,-0.048l-0.087,-0.048l-0.087,-0.046l-0.089,-0.045l-0.089,-0.045l-0.09,-0.043l-0.09,-0.042l-0.091,-0.041l-0.091,-0.04l-0.092,-0.039l-0.093,-0.037l-0.093,-0.037l-0.093,-0.035l-0.095,-0.035l-0.095,-0.033l-0.095,-0.032l-0.096,-0.031l-0.096,-0.03l-0.097,-0.028l-0.098,-0.028l-0.098,-0.026l-0.098,-0.025l-0.099,-0.024l-0.1,-0.022l-0.1,-0.022l-0.1,-0.02l-0.101,-0.018l-0.102,-0.018l-0.101,-0.016l-0.103,-0.015l-0.103,-0.014l-0.103,-0.013l-0.104,-0.011l-0.104,-0.01l-0.105,-0.008l-0.105,-0.008l-0.105,-0.006l-0.104,-0.004l-0.104,-0.003l-0.105,-0.002l-0.103,-0.001l-0.104,0.001l-0.103,0.002l-0.103,0.003l-0.103,0.005l-0.102,0.006l-0.103,0.007l-0.101,0.009l-0.102,0.01l-0.101,0.011l-0.101,0.012l-0.1,0.013l-0.101,0.015l-0.1,0.016l-0.099,0.017l-0.099,0.019l-0.099,0.019l-0.098,0.021l-0.098,0.022l-0.098,0.023l-0.097,0.025l-0.097,0.025l-0.096,0.027l-0.096,0.028l-0.096,0.029l-0.095,0.03l-0.095,0.031l-0.094,0.032l-0.094,0.034l-0.093,0.034l-0.093,0.036l-0.093,0.037l-0.091,0.038l-0.091,0.039l-0.091,0.04l-0.09,0.041l-0.09,0.042l-0.089,0.044l-0.089,0.044l-0.088,0.045l-0.087,0.046l-0.087,0.048l-0.086,0.048l-0.086,0.05l-0.085,0.05l-0.084,0.051l-0.084,0.053l-0.083,0.053l-0.083,0.055l-0.081,0.055l-0.082,0.056l-0.08,0.057l-0.08,0.059l-0.079,0.059l-0.078,0.06l-0.078,0.061l-0.077,0.062l-0.076,0.062l-0.075,0.064l-0.075,0.064l-0.074,0.066l-0.072,0.066l-0.073,0.067l-0.071,0.068l-0.071,0.069l-0.07,0.069l-0.069,0.071l-0.068,0.071l-0.067,0.072l-0.067,0.073l-0.065,0.074l-0.065,0.074l-0.064,0.075l-0.063,0.076l-0.062,0.077l-0.061,0.078l-0.06,0.078l-0.059,0.079l-0.059,0.08l-0.057,0.08l-0.056,0.081l-0.056,0.082l-0.054,0.082l-0.054,0.084l-0.052,0.083l-0.052,0.085l-0.05,0.085l-0.05,0.086l-0.048,0.087l-0.048,0.087l-0.046,0.087l-0.045,0.089l-0.044,0.089l-0.044,0.089l-0.042,0.091l-0.041,0.09l-0.04,0.092l-0.039,0.092l-0.037,0.092l-0.037,0.094l-0.035,0.093l-0.035,0.095l-0.033,0.094l-0.032,0.096l-0.031,0.096l-0.03,0.096l-0.028,0.097l-0.027,0.097l-0.027,0.099l-0.025,0.098l-0.023,0.099l-0.023,0.1l-0.021,0.1l-0.02,0.1l-0.019,0.101l-0.018,0.101l-0.016,0.102l-0.015,0.103l-0.014,0.103l-0.012,0.103l-0.012,0.104l-0.01,0.104l-0.009,0.115l-0.013,0.106l-0.02,0.105l-0.027,0.103l-0.035,0.102l-0.042,0.098l-0.049,0.095l-0.056,0.092l-0.062,0.087l-0.068,0.083l-0.074,0.078l-0.079,0.072l-0.084,0.066l-0.088,0.06l-0.093,0.054l-0.096,0.047l-0.1,0.04l-0.102,0.032l-0.104,0.026l-0.105,0.018l-0.107,0.01l-0.107,0.003l-0.107,-0.005l-0.106,-0.013l-0.105,-0.02l-0.104,-0.027l-0.101,-0.035l-0.098,-0.042l-0.096,-0.049l-0.091,-0.056l-0.087,-0.062l-0.083,-0.068l-0.078,-0.074l-0.072,-0.079l-0.066,-0.084l-0.06,-0.089l-0.054,-0.092l-0.047,-0.096l-0.04,-0.1l-0.033,-0.102l-0.025,-0.104l-0.018,-0.105l-0.01,-0.107l-0.003,-0.107l0.005,-0.107l0.011,-0.133l0.014,-0.143l0.015,-0.142l0.017,-0.142l0.019,-0.141l0.021,-0.141l0.022,-0.139l0.024,-0.14l0.026,-0.139l0.028,-0.138l0.029,-0.137l0.031,-0.137l0.033,-0.136l0.034,-0.136l0.036,-0.134l0.038,-0.134l0.039,-0.134l0.041,-0.132l0.042,-0.132l0.045,-0.131l0.045,-0.131l0.047,-0.129l0.049,-0.129l0.05,-0.128l0.052,-0.128l0.054,-0.126l0.054,-0.125l0.057,-0.125l0.058,-0.124l0.059,-0.123l0.061,-0.122l0.062,-0.121l0.063,-0.121l0.065,-0.119l0.067,-0.119l0.067,-0.117l0.07,-0.117l0.07,-0.116l0.072,-0.114l0.073,-0.114l0.074,-0.113l0.076,-0.112l0.077,-0.111l0.079,-0.11l0.079,-0.108l0.081,-0.108l0.082,-0.107l0.084,-0.106l0.084,-0.104l0.086,-0.104l0.087,-0.102l0.088,-0.102l0.09,-0.1l0.09,-0.099l0.092,-0.099l0.092,-0.096l0.094,-0.096l0.095,-0.095l0.097,-0.094l0.097,-0.092l0.098,-0.091l0.099,-0.091l0.101,-0.089l0.101,-0.087l0.103,-0.087l0.103,-0.085l0.105,-0.084l0.105,-0.083l0.107,-0.081l0.107,-0.081l0.109,-0.079l0.109,-0.078l0.11,-0.076l0.111,-0.075l0.113,-0.074l0.113,-0.073l0.114,-0.071l0.115,-0.07l0.115,-0.069l0.117,-0.067l0.117,-0.066l0.118,-0.064l0.12,-0.064l0.12,-0.062l0.12,-0.06l0.122,-0.059l0.122,-0.057l0.123,-0.056l0.124,-0.055l0.124,-0.053l0.126,-0.052l0.126,-0.05l0.126,-0.049l0.128,-0.047l0.128,-0.046l0.129,-0.044l0.129,-0.043l0.13,-0.041l0.13,-0.04l0.132,-0.038l0.132,-0.036l0.133,-0.035l0.133,-0.034l0.133,-0.031l0.134,-0.03l0.135,-0.029l0.136,-0.027l0.135,-0.025l0.137,-0.023l0.137,-0.022l0.137,-0.02l0.137,-0.019l0.139,-0.017l0.138,-0.015l0.14,-0.013l0.139,-0.012l0.14,-0.01l0.14,-0.008l0.141,-0.006l0.141,-0.005l0.141,-0.003l0.142,-0.001l0.142,0.001Z" style="fill:#2b01b3;"/><path d="M699.633,514.871c0.2,-0.2 0.3,-0.4 0.5,-0.6c-0.5,0.4 -1.1,0.7 -1.6,0.9c-0.2,1.8 0.3,0.6 1.1,-0.3Z" style="fill:none;"/><path d="M309.333,421.971c-3.7,4.5 -7.5,9.1 -11.1,13.8c-11,-4.4 -22.6,-6 -34.6,-4.5l-12.6,28.6c3.8,-0.8 14.3,-2 26.7,4.2c-17.2,25.2 -29.2,46.6 -28.2,47.6c22.9,26.2 67.4,16.9 69.3,14.1c1.9,-2.8 43.9,-69.6 45.2,-87.8c2,-29 -40.3,-33.2 -54.7,-16Z" style="fill:#c5d3e7;fill-rule:nonzero;"/><path d="M350.933,568.871c-7.1,-6.7 -16.3,-8 -25.7,-6.8c-11.4,1.4 -22.7,4.4 -34.1,6.4c-4.4,0.8 -10.8,2 -14.5,-1.3c-5.9,-5.2 -1.6,-15.4 1.4,-20.9c4.2,-7.9 11.5,-13.6 16.6,-20.9c0.2,-0.3 0.4,-0.6 0.6,-1c4.1,-6.6 3.9,-15.5 -3.1,-20.9c-4.2,-3.3 -10.2,-4 -15.1,-1.7c-4.5,2.2 -6.2,6.1 -7.9,10.6c-3.8,9.7 -5.1,21.7 -12.3,29.7c-1.7,1.9 -3.6,3.7 -5.7,5.4c-4.6,3.7 -13.2,10.2 -18.6,4.3c-4.4,-4.8 0.3,-11.7 1.3,-16.9c1.1,-5.4 1.1,-11.9 -3.9,-15.5c-5.3,-3.7 -12.1,-1.3 -17,1.7c-5.3,3.2 -9.4,7.4 -12.9,12.4c-3.3,4.6 -8.4,7.1 -12.1,0.7c-1.8,-3.2 -1.2,-7.2 -0.2,-10.7c3.1,-11.2 10.3,-24.4 20.4,-30.3c4.4,-2.6 8.3,-5.2 4.6,-6c-0.5,-0.4 -1,-0.8 -1.7,-1c-5.2,-1.9 -9.7,-4.6 -13.9,-8.2c-1.6,-1.3 -3.2,-1.4 -4.6,-0.7c-1.1,0 -2.2,0.4 -3.2,1.4c0,0 -16.8,30.9 -34.4,29.6c-10.7,-0.8 -17.2,-24.5 -23.2,-32.5c-7.5,-9.8 -16.7,-18.5 -29,-21.6c-10.6,-2.7 -22.4,-0.4 -30.6,7.1c-9.4,8.8 -10.2,21.4 -6.1,33.1c2.1,6 5.8,11.4 7.6,17.5c1.3,4.4 1.2,12.2 -4.7,13.2c-7.1,1.2 -14.9,-5.4 -21.6,-7.3c-8.4,-2.4 -17.7,-1.7 -25.5,2.1c-18,8.7 -28.8,37.1 -16.7,54.4c13.8,19.8 57.2,9 62.4,33.7c2.5,11.8 2.6,23.5 8.1,34.5c5,10.1 13.7,18.9 24.8,21.9c11.9,3.3 24.6,-0.1 35.5,-5.1c11.8,-5.5 19.6,-14.3 28.8,-23.2c6,-5.8 18.8,-14.6 26.8,-6.4c3.9,4 3,11.2 3.1,16.4c0.1,6.1 0.1,12.2 2,18.1c3.3,10.6 12.6,18.7 23.9,19.3c13,0.6 21.9,-7.9 27.1,-18.9c2.8,-5.9 5.3,-11.5 12.2,-13c2.6,-0.6 5.4,-0.6 8.1,-0.3c31.7,11.4 68.6,-0.7 85.4,-31.4c8.5,-15.7 12.1,-37.5 -2.4,-51Z" style="fill:#acc7ff;fill-rule:nonzero;"/><path d="M168.633,484.071c-1.2,-1.5 27.2,-43 56.8,-73.8c13.5,-14 49.6,-7.9 46.1,17c-2.1,15.6 -42.2,70.5 -44,72.9c-1.8,2.4 -40.7,7.8 -58.9,-16.1Z" style="fill:#c5d3e7;fill-rule:nonzero;"/></g></g></svg>