<svg width="187" height="48" viewBox="0 0 187 48" version="1.1" xmlns="http://www.w3.org/2000/svg" xmlns:xlink="http://www.w3.org/1999/xlink">
<title>abstract</title>
<desc>Created using Figma</desc>
<g id="Canvas" transform="translate(100 23)">
<g id="abstract">
<use xlink:href="#path0_fill" transform="translate(-100 -23)" fill="#A3AFBF"/>
</g>
</g>
<defs>
<path id="path0_fill" fill-rule="evenodd" d="M 23.7578 48C 42.7641 48 47.5156 43.2 47.5156 24C 47.5156 4.8 42.7641 0 23.7578 0C 4.75156 0 0 4.8 0 24C 0 43.2 4.75156 48 23.7578 48ZM 11.1365 15.75L 31.9246 15.75L 31.9246 36.75L 36.3792 36.75L 36.3792 11.25L 11.1365 11.25L 11.1365 15.75ZM 15.2198 27.9375C 15.2198 25.3487 17.2973 23.25 19.86 23.25C 22.4228 23.25 24.5002 25.3487 24.5002 27.9375C 24.5002 30.5263 22.4228 32.625 19.86 32.625C 17.2973 32.625 15.2198 30.5263 15.2198 27.9375ZM 19.86 18.75C 14.8371 18.75 10.7653 22.8634 10.7653 27.9375C 10.7653 33.0116 14.8371 37.125 19.86 37.125C 24.883 37.125 28.9548 33.0116 28.9548 27.9375C 28.9548 22.8634 24.883 18.75 19.86 18.75ZM 92.0313 33.5843C 89.3951 33.5843 87.8632 31.389 87.8632 27.5743C 87.8632 24.1555 89.6445 21.9962 92.1738 21.9962C 94.5606 21.9962 96.0213 24.1915 96.0213 27.7902C 96.0213 31.605 94.4894 33.5843 92.0313 33.5843ZM 87.9782 21.2405L 87.9782 11.3438L 83.802 11.3438L 83.802 36.7512L 87.7926 36.7512L 87.7926 34.412C 89.0038 36.1754 90.6419 37.1111 93.0644 37.1111C 97.4463 37.1111 100.367 33.6563 100.367 27.7902C 100.367 21.9602 97.6957 18.4688 93.5275 18.4688C 90.9982 18.4694 89.1538 19.693 87.9782 21.2405ZM 66.2951 27.2143C 68.5035 20.9887 69.394 18.4696 70.2132 15.9146C 71.2081 19.0519 72.2285 22.0087 73.3824 25.3524L 73.3825 25.3525L 73.3834 25.3553L 73.3868 25.3652C 73.5948 25.9678 73.8071 26.5831 74.0244 27.2143L 66.2951 27.2143ZM 67.8267 11.3444L 58.2809 36.7506L 63.1607 36.7506L 65.191 30.8129L 75.1286 30.8129L 77.1233 36.7506L 82.0387 36.7506L 72.849 11.3444L 67.8267 11.3444ZM 113.087 24.0572C 112.196 22.4718 110.84 21.535 109.128 21.535C 107.345 21.535 106.489 22.2556 106.489 23.3005C 106.489 24.3815 107.06 24.8859 109.342 25.6066L 111.233 26.1831C 114.372 27.192 116.155 28.6693 116.155 31.5518C 116.155 34.8667 113.408 37.2808 108.986 37.2808C 105.347 37.2808 102.886 35.5153 101.388 33.2453L 104.634 31.0834C 105.561 32.921 107.202 34.002 109.164 34.002C 110.983 34.002 111.982 33.2092 111.982 32.1283C 111.982 30.9392 111.375 30.4348 108.7 29.5701L 106.81 28.9575C 104.063 28.0928 102.316 26.4713 102.316 23.7329C 102.316 20.9224 104.812 18.3281 109.2 18.3281C 112.017 18.3281 114.621 19.4091 116.191 21.9313L 113.087 24.0572ZM 124.636 22.2188L 128.069 22.2188L 128.069 18.8438L 124.636 18.8438L 124.636 12.9844L 120.485 12.9844L 120.413 18.8438L 117.629 18.8438L 117.629 22.2188L 120.413 22.2188L 120.413 32.0371C 120.413 33.697 120.664 34.9599 121.414 35.826C 122.128 36.692 123.306 37.125 125.056 37.125C 126.091 37.125 127.234 36.9807 128.162 36.7281L 128.162 33.3722C 127.591 33.5887 126.948 33.697 126.448 33.697C 125.163 33.697 124.636 33.0474 124.636 31.2071L 124.636 22.2188ZM 130.436 18.8438L 134.427 18.8438L 134.427 21.6094C 135.496 19.6586 136.886 18.6094 139.345 18.6094C 139.914 18.6094 140.342 18.6818 140.876 18.8438L 140.876 22.7812C 140.351 22.6317 139.873 22.5522 139.345 22.5469C 137.422 22.5275 136.315 23.2042 135.54 24.3281C 134.926 25.2664 134.605 26.5327 134.612 28.4531L 134.612 36.8438L 130.436 36.8438L 130.436 18.8438ZM 152.906 29.2171C 152.871 30.2267 152.692 31.2363 152.121 32.0657C 151.336 33.2556 150.016 33.9407 148.41 33.9407C 146.554 33.9407 145.698 32.9671 145.698 31.6691C 145.698 30.6594 146.126 29.9743 147.232 29.4695C 148.481 28.8565 150.872 28.496 152.906 28.3878L 152.906 29.2171ZM 156.885 25.431C 156.885 22.6185 156.511 21.1402 155.404 20.0945C 154.227 18.9407 152.514 18.3638 150.087 18.3638C 145.555 18.3638 142.693 20.5277 142.408 24.4219L 146.412 24.782C 146.626 22.7988 147.589 21.681 149.766 21.681C 150.872 21.681 151.729 21.9334 152.228 22.4382C 152.692 22.907 152.906 23.5921 152.906 24.6017L 152.906 25.5753C 150.087 25.7555 146.661 26.2603 144.913 27.0537C 142.807 28.0272 141.665 29.5416 141.665 31.8493C 141.665 35.0585 143.949 37.1138 147.197 37.1138C 149.729 37.1138 151.656 36.2129 153.012 34.5553C 153.398 36.3489 154.648 37.0123 156.881 37.0123C 157.791 37.0123 158.354 36.8681 158.788 36.7239L 158.788 33.9844C 157.177 34.278 156.896 33.3243 156.885 31.9214L 156.885 25.431ZM 168.228 21.8564C 165.803 21.8564 163.949 23.6926 163.949 27.6889C 163.949 31.6492 165.589 33.7373 168.335 33.7373C 170.225 33.7373 171.366 32.7293 171.794 30.8211L 175.539 32.1172C 174.504 35.1055 172.151 37.2656 168.121 37.2656C 162.95 37.2656 159.669 33.6653 159.669 27.7608C 159.669 21.8924 163.021 18.3281 168.335 18.3281C 172.186 18.3281 174.611 20.5243 175.432 23.7286L 171.687 25.0247C 171.188 22.6485 169.904 21.8564 168.228 21.8564ZM 183.473 22.2188L 186.907 22.2188L 186.907 18.8438L 183.473 18.8438L 183.473 12.9844L 179.323 12.9844L 179.251 18.8438L 176.467 18.8438L 176.467 22.2188L 179.251 22.2188L 179.251 32.0371C 179.251 33.697 179.502 34.9599 180.252 35.826C 180.966 36.692 182.144 37.125 183.894 37.125C 184.929 37.125 186.072 36.9807 187 36.7281L 187 33.3722C 186.429 33.5887 185.786 33.697 185.286 33.697C 184.001 33.697 183.473 33.0474 183.473 31.2071L 183.473 22.2188Z"/>
</defs>
</svg>
