<svg width="225" height="48" viewBox="0 0 225 48" version="1.1" xmlns="http://www.w3.org/2000/svg" xmlns:xlink="http://www.w3.org/1999/xlink">
<title>bootstrap</title>
<desc>Created using Figma</desc>
<g id="Canvas" transform="translate(-166 111)">
<g id="bootstrap">
<use xlink:href="#path0_fill" transform="translate(166 -111)" fill="#A3AFBF"/>
</g>
</g>
<defs>
<path id="path0_fill" fill-rule="evenodd" d="M 47.9139 40C 47.9139 44.4 44.3204 48 39.9283 48L 7.98566 48C 3.59357 48 0 44.4 0 40L 0 8C 0 3.6 3.59357 0 7.98566 0L 39.9283 0C 44.3204 0 47.9139 3.6 47.9139 8L 47.9139 40ZM 13.0198 10.4313L 26.6032 10.4313C 29.1085 10.4313 31.1206 11.0039 32.6316 12.1568C 34.1426 13.3098 34.902 15.0431 34.902 17.3725C 34.902 18.7843 34.5576 19.9921 33.8686 20.996C 33.1796 22 32.1932 22.7843 30.9092 23.3333L 30.9092 23.4117C 32.6316 23.7804 33.939 24.596 34.8237 25.8588C 35.7084 27.1294 36.1547 28.7137 36.1547 30.6274C 36.1547 31.7255 35.9589 32.7529 35.5675 33.7019C 35.176 34.6588 34.5654 35.4823 33.7277 36.1725C 32.89 36.8627 31.8252 37.4117 30.5178 37.8196C 29.2103 38.2274 27.6602 38.4313 25.8594 38.4313L 13.0198 38.4313L 13.0198 10.4313ZM 17.913 22.1568L 25.8986 22.1568C 27.0729 22.1568 28.0516 21.8274 28.8345 21.1529C 29.6174 20.4784 30.0089 19.5215 30.0089 18.2666C 30.0089 16.8549 29.6566 15.8588 28.9519 15.2862C 28.2473 14.7137 27.2296 14.4235 25.8986 14.4235L 17.913 14.4235L 17.913 22.1568ZM 17.913 34.4313L 26.5641 34.4313C 28.0516 34.4313 29.2103 34.047 30.0245 33.2706C 30.8466 32.5019 31.2615 31.4039 31.2615 29.9921C 31.2615 28.6039 30.8544 27.5451 30.0245 26.7921C 29.1946 26.0392 28.0516 25.6784 26.5641 25.6784L 17.913 25.6784L 17.913 34.4313ZM 82.4865 35.3652C 87.8909 35.3652 91.1721 32.623 91.1721 28.1582C 91.1721 24.8008 88.7682 22.3223 85.3291 21.9883L 85.3291 21.8477C 87.926 21.4258 89.9438 19.0527 89.9438 16.3281C 89.9438 12.4785 86.9785 10 82.3813 10L 71.8708 10L 71.8708 35.3652L 82.4865 35.3652ZM 76.3979 13.5332L 81.2407 13.5332C 83.9429 13.5332 85.4695 14.7812 85.4695 16.9961C 85.4695 19.3516 83.6973 20.6875 80.5389 20.6875L 76.3979 20.6875L 76.3979 13.5332ZM 76.3979 31.832L 76.3979 23.9043L 81.2583 23.9043C 84.7325 23.9043 86.5573 25.2578 86.5573 27.8418C 86.5573 30.4434 84.7852 31.832 81.4513 31.832L 76.3979 31.832ZM 102.191 35.7344C 107.648 35.7344 111.193 32.0957 111.193 26.0488C 111.193 20.0195 107.613 16.3457 102.191 16.3457C 96.7695 16.3457 93.19 20.0371 93.19 26.0488C 93.19 32.0957 96.7344 35.7344 102.191 35.7344ZM 102.191 32.2715C 99.419 32.2715 97.6292 30.0215 97.6292 26.0488C 97.6292 22.0938 99.4366 19.8262 102.191 19.8262C 104.964 19.8262 106.753 22.0938 106.753 26.0488C 106.753 30.0215 104.964 32.2715 102.191 32.2715ZM 131.231 26.0488C 131.231 32.0957 127.687 35.7344 122.23 35.7344C 116.773 35.7344 113.228 32.0957 113.228 26.0488C 113.228 20.0371 116.808 16.3457 122.23 16.3457C 127.651 16.3457 131.231 20.0195 131.231 26.0488ZM 117.667 26.0488C 117.667 30.0215 119.457 32.2715 122.23 32.2715C 125.002 32.2715 126.792 30.0215 126.792 26.0488C 126.792 22.0938 125.002 19.8262 122.23 19.8262C 119.475 19.8262 117.667 22.0938 117.667 26.0488ZM 135.249 12.373L 135.249 16.7324L 132.582 16.7324L 132.582 20.1074L 135.249 20.1074L 135.249 30.4082C 135.249 34.0293 136.828 35.4531 140.847 35.4531C 141.776 35.4531 142.636 35.3828 143.11 35.2773L 143.11 31.9375C 142.829 31.9902 142.268 32.0254 141.864 32.0254C 140.32 32.0254 139.618 31.3223 139.618 29.793L 139.618 20.1074L 143.128 20.1074L 143.128 16.7324L 139.618 16.7324L 139.618 12.373L 135.249 12.373ZM 150.953 27.3672C 147.514 26.5586 145.777 24.7656 145.777 22.0762C 145.777 18.666 148.778 16.3457 153.305 16.3457C 157.674 16.3457 160.639 18.7012 160.744 22.1465L 156.674 22.1465C 156.533 20.5469 155.252 19.5625 153.217 19.5625C 151.287 19.5625 150.023 20.4766 150.023 21.8301C 150.023 22.8848 150.866 23.5879 152.69 24.0273L 156.007 24.7656C 159.727 25.6445 161.183 27.0859 161.183 29.8457C 161.183 33.3613 157.937 35.7344 153.234 35.7344C 148.567 35.7344 145.602 33.4141 145.303 29.8809L 149.602 29.8809C 149.865 31.5859 151.181 32.5352 153.392 32.5352C 155.515 32.5352 156.831 31.6738 156.831 30.2852C 156.831 29.1953 156.147 28.6152 154.34 28.1582L 150.953 27.3672ZM 165.184 12.373L 165.184 16.7324L 162.517 16.7324L 162.517 20.1074L 165.184 20.1074L 165.184 30.4082C 165.184 34.0293 166.763 35.4531 170.781 35.4531C 171.711 35.4531 172.571 35.3828 173.045 35.2773L 173.045 31.9375C 172.764 31.9902 172.202 32.0254 171.799 32.0254C 170.255 32.0254 169.553 31.3223 169.553 29.793L 169.553 20.1074L 173.062 20.1074L 173.062 16.7324L 169.553 16.7324L 169.553 12.373L 165.184 12.373ZM 180.414 35.3652L 176.045 35.3652L 176.045 16.7324L 180.239 16.7324L 180.239 19.9844L 180.326 19.9844C 180.958 17.7168 182.59 16.416 184.783 16.416C 185.345 16.416 185.836 16.5215 186.152 16.5918L 186.152 20.5469C 185.783 20.4062 185.117 20.3008 184.38 20.3008C 181.906 20.3008 180.414 21.9004 180.414 24.5195L 180.414 35.3652ZM 194.767 32.3594C 192.872 32.3594 191.609 31.3926 191.609 29.8633C 191.609 28.3867 192.82 27.4375 194.925 27.2969L 199.224 27.0332L 199.224 28.457C 199.224 30.707 197.241 32.3594 194.767 32.3594ZM 193.451 35.6641C 195.838 35.6641 198.171 34.416 199.242 32.3945L 199.329 32.3945L 199.329 35.3652L 203.54 35.3652L 203.54 22.5332C 203.54 18.7891 200.54 16.3457 195.925 16.3457C 191.188 16.3457 188.222 18.8418 188.029 22.3223L 192.083 22.3223C 192.363 20.7754 193.679 19.7734 195.75 19.7734C 197.908 19.7734 199.224 20.8984 199.224 22.8496L 199.224 24.1855L 194.311 24.4668C 189.784 24.748 187.24 26.7344 187.24 30.0391C 187.24 33.3965 189.854 35.6641 193.451 35.6641ZM 211.419 19.9492C 212.472 17.7871 214.577 16.416 217.279 16.416C 222 16.416 225 20.0898 225 26.0488C 225 31.9902 222.017 35.6641 217.35 35.6641C 214.647 35.6641 212.542 34.3633 211.524 32.2715L 211.436 32.2715L 211.436 41.5L 207.067 41.5L 207.067 16.7324L 211.331 16.7324L 211.331 19.9492L 211.419 19.9492ZM 211.401 26.0488C 211.419 29.7051 213.226 32.0781 215.946 32.0781C 218.771 32.0781 220.526 29.7402 220.526 26.0488C 220.526 22.375 218.771 20.0195 215.946 20.0195C 213.226 20.0195 211.419 22.4277 211.401 26.0488Z"/>
</defs>
</svg>
