<svg width="167" height="48" viewBox="0 0 167 48" version="1.1" xmlns="http://www.w3.org/2000/svg" xmlns:xlink="http://www.w3.org/1999/xlink">
<title>expo</title>
<desc>Created using Figma</desc>
<g id="Canvas" transform="translate(-440 110)">
<g id="expo">
<use xlink:href="#path0_fill" transform="translate(440 -110)" fill="#A3AFBF"/>
</g>
</g>
<defs>
<path id="path0_fill" fill-rule="evenodd" d="M 1.60999 45.9094C 0.515198 44.3208 0.0974121 43.1376 0 41.9578L 0 41.2613C 0.738586 39.011 18.5356 6.20802 20.3616 3.42457C 22.1556 0.690575 22.7032 0.0959091 25.7368 0L 28.0508 0C 31.084 0.0959091 31.632 0.690575 33.4256 3.42457C 35.2907 6.26707 53.8109 40.4162 53.8109 41.3627C 53.8109 42.7522 53.456 44.0545 52.1776 45.9094C 50.8792 47.7933 48.6446 48.8286 47.0153 47.1676C 46.5812 46.7252 44.4656 43.2484 41.7112 38.7217C 37.4875 31.7803 31.7617 22.3702 28.2928 17.6464C 27.6044 16.683 26.1829 16.683 25.4948 17.6464C 22.026 22.3702 16.3001 31.7803 12.0764 38.7216C 9.32202 43.2484 7.20645 46.7252 6.77234 47.1676C 5.14264 48.8286 2.90845 47.7933 1.60999 45.9094ZM 71 6L 71 37.0269L 89.7565 37.0269L 89.7565 31.4866L 76.7159 31.4866L 76.7159 23.8184L 88.571 23.8184L 88.571 18.4993L 76.7159 18.4993L 76.7159 11.5407L 89.7565 11.5407L 89.7565 6L 71 6ZM 101.882 24.8823L 94.0916 37.0269L 99.9768 37.0269L 105.311 28.6056L 105.396 28.6056L 110.731 37.0269L 116.616 37.0269L 108.826 24.8823L 116.15 13.5353L 110.435 13.5353L 105.396 21.425L 105.311 21.425L 100.273 13.5353L 94.5574 13.5353L 101.882 24.8823ZM 120.85 13.5353L 120.85 47L 126.354 47L 126.354 34.7667L 126.439 34.7667L 126.608 35.0767C 126.749 35.2836 126.975 35.5273 127.286 35.808C 127.596 36.089 127.963 36.3697 128.387 36.6503C 128.81 36.931 129.367 37.1747 130.059 37.3816C 130.75 37.5885 131.505 37.692 132.324 37.692C 135.062 37.692 137.391 36.5837 139.31 34.3675C 141.229 32.1513 142.189 29.1225 142.189 25.2811C 142.189 21.4691 141.194 18.4478 139.204 16.2169C 137.214 13.9856 134.893 12.8702 132.239 12.8702C 131.421 12.8702 130.652 12.9737 129.932 13.1806C 129.212 13.3875 128.64 13.6237 128.217 13.8897C 127.794 14.1557 127.406 14.451 127.053 14.7764C 126.7 15.1014 126.481 15.3302 126.397 15.4634L 126.185 15.7956L 126.1 15.7956L 126.1 13.5353L 120.85 13.5353ZM 126.354 27.6745L 126.354 22.8433C 126.354 21.5134 126.792 20.3833 127.667 19.4526C 128.542 18.5215 129.713 18.0561 131.181 18.0561C 132.818 18.0561 134.145 18.6769 135.161 19.918C 136.177 21.159 136.685 22.9468 136.685 25.2811C 136.685 27.6154 136.17 29.4032 135.14 30.6442C 134.109 31.8853 132.79 32.5061 131.181 32.5061C 129.713 32.5061 128.542 32.0407 127.667 31.1096C 126.792 30.1789 126.354 29.0341 126.354 27.6745ZM 148.963 34.4119C 150.939 36.5988 153.451 37.692 156.5 37.692C 159.548 37.692 162.06 36.5988 164.036 34.4119C 166.012 32.2254 167 29.1816 167 25.2811C 167 21.4397 165.984 18.4109 163.952 16.1947C 161.919 13.9785 159.435 12.8702 156.5 12.8702C 153.564 12.8702 151.08 13.9785 149.048 16.1947C 147.016 18.4109 146 21.4397 146 25.2811C 146 29.1816 146.988 32.2254 148.963 34.4119ZM 160.226 30.622C 159.322 31.8782 158.08 32.5061 156.5 32.5061C 154.919 32.5061 153.677 31.8853 152.774 30.6442C 151.871 29.4032 151.419 27.6154 151.419 25.2811C 151.419 22.9468 151.878 21.159 152.795 19.918C 153.713 18.6769 154.947 18.0561 156.5 18.0561C 158.052 18.0561 159.287 18.684 160.205 19.9402C 161.122 21.1959 161.581 22.9761 161.581 25.2811C 161.581 27.5861 161.129 29.3663 160.226 30.622Z"/>
</defs>
</svg>
