<svg width="142" height="49" viewBox="0 0 142 49" version="1.1" xmlns="http://www.w3.org/2000/svg" xmlns:xlink="http://www.w3.org/1999/xlink">
<title>figma</title>
<desc>Created using Figma</desc>
<g id="Canvas" transform="translate(23 111)">
<g id="figma">
<use xlink:href="#path0_fill" transform="translate(-23 -111)" fill="#A3AFBF"/>
</g>
</g>
<defs>
<path id="path0_fill" fill-rule="evenodd" d="M 8.72438 0C 3.85326 0 0 4.08304 0 9.00064C 0 12.1066 1.53714 14.8796 3.89703 16.5013C 1.53714 18.1229 0 20.896 0 24.0019C 0 27.1079 1.53714 29.8809 3.89703 31.5026C 1.53714 33.1242 0 35.8972 0 39.0032C 0 43.9208 3.85326 48.0038 8.72438 48.0038C 13.5955 48.0038 17.4488 43.9208 17.4488 39.0032L 17.4488 31.5026L 17.4488 30.7957C 18.9734 32.1666 20.9691 33.0026 23.1731 33.0026C 28.0443 33.0026 31.8975 28.9195 31.8975 24.0019C 31.8975 20.896 30.3604 18.1229 28.0005 16.5013C 30.3604 14.8796 31.8975 12.1066 31.8975 9.00064C 31.8975 4.08304 28.0443 0 23.1731 0L 15.9488 0L 8.72438 0ZM 3 9.00064C 3 12.3685 5.61522 15.0013 8.72438 15.0013L 14.4488 15.0013L 14.4488 3L 8.72438 3C 5.61522 3 3 5.63279 3 9.00064ZM 8.72438 18.0013L 14.4488 18.0013L 14.4488 23.992L 14.4488 24.0019L 14.4488 24.0119L 14.4488 30.0026L 8.72438 30.0026C 5.61522 30.0026 3 27.3698 3 24.0019C 3 20.6341 5.61522 18.0013 8.72438 18.0013ZM 8.72438 33.0026L 14.4488 33.0026L 14.4488 39.0032C 14.4488 42.371 11.8335 45.0038 8.72438 45.0038C 5.61522 45.0038 3 42.371 3 39.0032C 3 35.6353 5.61522 33.0026 8.72438 33.0026ZM 17.4488 24.0019L 17.4488 23.9937C 17.453 20.6298 20.0665 18.0013 23.1731 18.0013C 26.2823 18.0013 28.8975 20.6341 28.8975 24.0019C 28.8975 27.3698 26.2823 30.0026 23.1731 30.0026C 20.0665 30.0026 17.453 27.3741 17.4488 24.0102L 17.4488 24.0019ZM 17.4488 15.0013L 23.1731 15.0013C 26.2823 15.0013 28.8975 12.3685 28.8975 9.00064C 28.8975 5.63279 26.2823 3 23.1731 3L 17.4488 3L 17.4488 15.0013ZM 46.341 7.50132L 46.341 34.0351L 49.7515 34.0456L 49.7515 21.4111L 57.9768 21.4111L 57.9768 18.0696L 49.7515 18.0696L 49.7515 10.8403L 60.4617 10.8403L 60.4617 7.5L 46.341 7.50132ZM 66.6005 12.8881C 67.8285 12.8881 68.8251 11.8905 68.8251 10.6613C 68.8251 9.43203 67.8285 8.43443 66.6005 8.43443C 65.3725 8.43443 64.3759 9.43203 64.3759 10.6613C 64.3759 11.8905 65.3725 12.8881 66.6005 12.8881ZM 64.865 16.227L 64.865 34.0404L 68.2755 34.0404L 68.2755 16.227L 64.8663 16.227L 64.865 16.227ZM 80.9263 15.7085C 76.3969 15.7085 73.2361 19.5423 73.2361 24.0946C 73.2361 28.6483 76.3969 32.4821 80.9263 32.4821C 82.9997 32.4821 84.7089 31.6793 85.9527 30.3698L 85.9527 32.7414C 85.9527 35.6934 83.6361 38.1598 80.6147 38.1598C 79.5274 38.1598 78.4479 37.7386 77.5881 37.145L 75.8788 40.1063C 77.2436 40.988 78.8687 41.5 80.6134 41.5C 85.4465 41.5 89.3633 37.578 89.3633 32.7414L 89.3633 16.2283L 85.9527 16.2283L 85.9527 17.8208C 84.7089 16.5113 82.9997 15.7085 80.9263 15.7085ZM 76.6467 24.0946C 76.6467 21.269 78.8069 19.0474 81.2971 19.0474C 83.7873 19.0474 85.9474 21.269 85.9474 24.0946C 85.9474 26.9203 83.7873 29.1419 81.2971 29.1419C 78.8069 29.1419 76.6467 26.9203 76.6467 24.0946ZM 98.0014 22.7772C 98.0014 20.7585 99.6353 19.0477 101.653 19.0474C 103.67 19.0478 105.304 20.7586 105.304 22.7772L 105.304 34.0404L 108.716 34.0404L 108.716 22.7772C 108.716 20.7583 110.35 19.0474 112.367 19.0474C 114.384 19.0474 116.018 20.7583 116.018 22.7772L 116.018 34.0404L 119.428 34.0404L 119.428 22.722C 119.406 18.8434 116.989 15.7085 113.108 15.7085C 110.789 15.7085 108.863 16.9588 107.679 18.7144C 106.618 16.8969 104.784 15.7085 102.394 15.7085C 100.473 15.7085 99.0006 16.5666 98.0014 17.859L 98.0014 16.227L 94.5908 16.227L 94.5908 34.0404L 98.0014 34.0404L 98.0014 22.7772ZM 137.595 18.2472C 136.077 16.6784 133.999 15.7072 131.589 15.7072C 126.514 15.7072 122.914 20.0082 122.914 25.1344C 122.914 30.2592 126.515 34.5602 131.589 34.5602C 133.999 34.5602 136.077 33.589 137.595 32.0202L 137.595 34.0404L 141.005 34.0404L 141.005 16.227L 137.595 16.227L 137.595 18.2472ZM 126.324 25.1344C 126.324 21.7336 128.925 19.0474 131.96 19.0474C 134.993 19.0474 137.595 21.7336 137.595 25.1344C 137.595 28.5352 134.993 31.22 131.96 31.22C 128.925 31.22 126.324 28.5352 126.324 25.1344Z"/>
</defs>
</svg>
