<svg width="165" height="48" viewBox="0 0 165 48" version="1.1" xmlns="http://www.w3.org/2000/svg" xmlns:xlink="http://www.w3.org/1999/xlink">
<title>nodejs</title>
<desc>Created using Figma</desc>
<g id="Canvas" transform="translate(-333 29)">
<g id="nodejs">
<use xlink:href="#path0_fill" transform="translate(333 -29)" fill="#A3AFBF"/>
</g>
</g>
<defs>
<path id="path0_fill" fill-rule="evenodd" d="M 82.9279 35.1367C 82.9279 35.2652 82.8592 35.3843 82.7478 35.4483L 78.6553 37.8108C 78.5445 37.8747 78.4072 37.8747 78.2961 37.8108L 74.2039 35.4483C 74.0922 35.3843 74.0239 35.2652 74.0239 35.1367L 74.0239 30.4044C 74.0239 30.276 74.0922 30.1568 74.2036 30.0923L 78.2958 27.725C 78.4072 27.6605 78.5445 27.6605 78.6559 27.725L 82.7481 30.0923C 82.8592 30.1568 82.9279 30.276 82.9279 30.4044L 82.9279 35.1367ZM 84.0338 0.0911679C 83.8107 -0.0330559 83.5385 -0.0302387 83.3182 0.0990547C 83.0986 0.22863 82.9633 0.464962 82.9633 0.72045L 82.9633 19.0319C 82.9633 19.2117 82.8671 19.3784 82.7118 19.4686C 82.556 19.559 82.3639 19.559 82.2081 19.4686L 79.2238 17.7469C 78.7785 17.49 78.2308 17.4903 77.7859 17.7475L 65.8667 24.6361C 65.4211 24.8935 65.1469 25.3693 65.1469 25.8842L 65.1469 39.6642C 65.1469 40.1794 65.4211 40.6549 65.8664 40.9129L 77.7848 47.8069C 78.2303 48.0644 78.7791 48.0644 79.2246 47.8069L 91.1452 40.9129C 91.5901 40.6549 91.8647 40.1794 91.8647 39.6642L 91.8647 5.3136C 91.8647 4.79136 91.5823 4.3094 91.1263 4.05476L 84.0338 0.0911679ZM 144.146 47.2756C 144.505 47.4838 144.914 47.5914 145.324 47.5914C 145.741 47.5914 146.148 47.4838 146.508 47.2756L 157.745 40.778C 158.473 40.3535 158.925 39.5687 158.925 38.7248L 158.925 25.7369C 158.925 24.8932 158.473 24.107 157.745 23.6856L 146.508 17.1824C 145.802 16.7796 144.857 16.7796 144.146 17.1824L 132.908 23.6856C 132.18 24.1054 131.729 24.8932 131.729 25.7369L 131.729 38.7248C 131.729 39.5687 132.18 40.3566 132.908 40.778L 135.855 42.4769C 137.283 43.1814 137.794 43.1814 138.443 43.1814C 140.557 43.1814 141.771 41.9011 141.771 39.6687L 141.771 26.8453C 141.771 26.6639 141.624 26.5211 141.445 26.5211L 140.021 26.5211C 139.839 26.5211 139.694 26.6639 139.694 26.8453L 139.694 39.6687C 139.694 40.6583 138.671 41.6433 137.001 40.807L 133.922 39.0257C 133.814 38.9668 133.745 38.849 133.745 38.7248L 133.745 25.7369C 133.745 25.6135 133.814 25.4912 133.923 25.4287L 145.154 18.9364C 145.258 18.8759 145.396 18.8759 145.5 18.9364L 156.733 25.4267C 156.84 25.4912 156.908 25.6098 156.908 25.7369L 156.908 38.7248C 156.908 38.849 156.84 38.9696 156.736 39.0293L 145.498 45.5252C 145.402 45.5833 145.254 45.5833 145.15 45.5252L 142.268 43.8112C 142.182 43.7608 142.072 43.743 141.989 43.7898C 141.191 44.243 141.04 44.303 140.292 44.5627C 140.107 44.6272 139.834 44.7385 140.394 45.0523L 144.146 47.2756ZM 142.848 34.4869C 142.848 36.3829 143.878 38.6434 148.796 38.6434C 152.357 38.6434 154.398 37.2389 154.398 34.7869C 154.398 32.3559 152.758 31.7086 149.304 31.2514C 145.814 30.7889 145.46 30.5506 145.46 29.732C 145.46 29.0563 145.76 28.1546 148.345 28.1546C 150.653 28.1546 151.505 28.6526 151.854 30.2115C 151.885 30.3579 152.019 30.4655 152.17 30.4655L 153.628 30.4655C 153.719 30.4655 153.805 30.4264 153.866 30.3619C 153.928 30.2926 153.961 30.2038 153.952 30.1115C 153.726 27.4264 151.945 26.1752 148.345 26.1752C 145.141 26.1752 143.229 27.5292 143.229 29.8002C 143.229 32.2635 145.131 32.9438 148.206 33.2486C 151.885 33.6091 152.171 34.1474 152.171 34.8728C 152.171 36.1305 151.163 36.6668 148.796 36.6668C 145.822 36.6668 145.168 35.9192 144.948 34.4381C 144.923 34.2793 144.788 34.1624 144.625 34.1624L 143.173 34.1624C 142.992 34.1624 142.848 34.3063 142.848 34.4869ZM 162.479 24.873L 162.858 24.873C 163.166 24.873 163.224 24.6552 163.224 24.529C 163.224 24.1958 162.995 24.1958 162.869 24.1958L 162.479 24.1958L 162.479 24.873ZM 162.021 23.8057L 162.858 23.8057C 163.144 23.8057 163.706 23.8057 163.706 24.4487C 163.706 24.8927 163.424 24.9864 163.251 25.0439L 163.247 25.0454C 163.57 25.0675 163.601 25.2745 163.644 25.5707L 163.648 25.5963L 163.654 25.6455C 163.677 25.8429 163.711 26.1334 163.774 26.2386L 163.259 26.2386C 163.254 26.1912 163.237 26.0573 163.219 25.9141L 163.218 25.9088L 163.217 25.8959L 163.213 25.8653L 163.212 25.8598C 163.189 25.6736 163.166 25.4883 163.166 25.4701C 163.133 25.3321 163.086 25.2637 162.914 25.2637L 162.491 25.2637L 162.491 26.2386L 162.021 26.2386L 162.021 23.8057ZM 161.018 25.0163C 161.018 26.0265 161.832 26.8414 162.829 26.8414C 163.837 26.8414 164.651 26.0093 164.651 25.0163C 164.651 24.0068 163.826 23.2034 162.829 23.2034C 161.843 23.2034 161.018 23.995 161.018 25.0163ZM 165 25.0225C 165 26.2157 164.026 27.1915 162.834 27.1915C 161.654 27.1915 160.668 26.2276 160.668 25.0225C 160.668 23.7944 161.677 22.853 162.834 22.853C 164.003 22.853 165 23.7944 165 25.0225ZM 25.9862 24.2566C 26.4332 24.5138 26.7057 24.9904 26.7057 25.509L 26.6823 43.9991C 26.6823 44.2563 26.5443 44.4954 26.3248 44.6216C 26.1049 44.7543 25.8276 44.7543 25.6053 44.6216L 18.5266 40.5611C 18.0816 40.2977 17.8054 39.8248 17.8054 39.3107L 17.8054 30.6723C 17.8054 30.1574 17.532 29.6805 17.0859 29.4247L 14.0718 27.6856C 13.8535 27.5554 13.6015 27.4921 13.3562 27.4921C 13.105 27.4921 12.8598 27.5554 12.6348 27.6856L 9.61981 29.4247C 9.17371 29.6805 8.90143 30.1574 8.90143 30.6723L 8.90143 39.3107C 8.90143 39.8248 8.62885 40.2947 8.18109 40.5611L 1.10034 44.6216C 0.880127 44.7543 0.606689 44.7543 0.38562 44.6216C 0.159485 44.4954 0.0261841 44.2563 0.0261841 43.9991L 0 25.509C 0 24.9904 0.276184 24.5138 0.720337 24.2566L 12.6348 17.39C 12.8392 17.2714 13.0651 17.2094 13.2927 17.2001L 13.4158 17.2001C 13.6445 17.2094 13.8704 17.2714 14.0718 17.39L 25.9862 24.2566ZM 124.438 29.0343C 124.438 29.5478 124.165 30.0224 123.722 30.2805L 116.585 34.4348C 116.363 34.5643 116.088 34.5652 115.865 34.4362C 115.642 34.3077 115.505 34.0694 115.505 33.8114L 115.505 30.4145C 115.505 30.1571 115.367 29.9188 115.144 29.7903L 111.411 27.6357C 111.189 27.5073 110.914 27.5073 110.692 27.6357L 106.961 29.7903C 106.737 29.9188 106.601 30.1571 106.601 30.4145L 106.601 34.7319C 106.601 34.99 106.738 35.2288 106.962 35.3573L 118.952 42.2493C 119.177 42.3786 119.315 42.6191 119.313 42.8791C 119.312 43.1388 119.171 43.3777 118.944 43.5042L 111.782 47.4909C 111.342 47.7354 110.807 47.7325 110.37 47.483L 98.5297 40.7259C 98.0805 40.4699 97.8026 39.9918 97.8026 39.4738L 97.8026 25.6972C 97.8026 25.1823 98.0771 24.7065 98.5221 24.449L 110.437 17.5604C 110.883 17.3024 111.434 17.303 111.879 17.5624L 123.722 24.4482C 124.165 24.7062 124.438 25.1814 124.438 25.6949L 124.438 29.0343ZM 110.982 29.6351C 111.068 29.5855 111.173 29.5855 111.259 29.6351L 113.546 30.9565C 113.631 31.0061 113.684 31.0971 113.684 31.1962L 113.684 33.841C 113.684 33.9398 113.631 34.0311 113.546 34.0807L 111.259 35.4021C 111.173 35.4514 111.068 35.4514 110.982 35.4021L 108.697 34.0807C 108.612 34.0311 108.559 33.9398 108.559 33.841L 108.559 31.1962C 108.559 31.0971 108.612 31.0061 108.697 30.9565L 110.982 29.6351ZM 45.2112 17.632L 33.3921 24.4639C 32.95 24.7192 32.678 25.1913 32.678 25.702L 32.678 39.3772C 32.678 39.6965 32.7842 40.0004 32.9716 40.246L 32.9553 40.2738C 33.0673 40.4087 33.2023 40.5262 33.3569 40.6158L 45.1965 47.4534C 45.3865 47.5631 45.5926 47.6249 45.8009 47.6396C 46.0881 47.6646 46.3811 47.6025 46.6392 47.4534L 58.4608 40.6158C 58.9027 40.36 59.1747 39.8882 59.1747 39.3772L 59.1747 25.7025C 59.1747 25.1913 58.9027 24.7192 58.4606 24.4639L 46.6387 17.632C 46.4178 17.5041 46.1714 17.4404 45.9248 17.4404C 45.6783 17.4404 45.4317 17.5041 45.2112 17.632Z"/>
</defs>
</svg>
