<svg width="150" height="48" viewBox="0 0 150 48" version="1.1" xmlns="http://www.w3.org/2000/svg" xmlns:xlink="http://www.w3.org/1999/xlink">
<title>realm</title>
<desc>Created using Figma</desc>
<g id="Canvas" transform="translate(-135 23)">
<g id="realm">
<g id="Group">
<g id="Ellipse">
<use xlink:href="#path0_fill" transform="translate(135 -23)" fill="#A3AFBF" style="mix-blend-mode:color"/>
</g>
<g id="Logo" opacity="0.5">
<g id="Melon">
<use xlink:href="#path1_fill" transform="translate(142.03 -23)" fill="#FCC397"/>
</g>
<g id="Peach">
<use xlink:href="#path2_fill" transform="translate(137.135 -20.7514)" fill="#FC9F95"/>
</g>
<g id="Sexy Salmon">
<use xlink:href="#path3_fill" transform="translate(135.487 -13.9832)" fill="#F77C88"/>
</g>
<g id="Flamingo">
<use xlink:href="#path4_fill" transform="translate(135.001 -7.64)" fill="#F25192"/>
</g>
<g id="Mulberry">
<use xlink:href="#path5_fill" transform="translate(135 -3.32)" fill="#D34CA3"/>
</g>
<g id="Grape Jelly">
<use xlink:href="#path6_fill" transform="translate(154.26 0.200001)" fill="#9A50A5"/>
</g>
<g id="Indigo">
<use xlink:href="#path7_fill" transform="translate(136.188 5.88885)" fill="#59569E"/>
</g>
<g id="East Bay">
<use xlink:href="#path8_fill" transform="translate(141.189 12.7019)" fill="#39477F"/>
</g>
</g>
<g id="Ellipse">
<use xlink:href="#path0_fill" transform="translate(135 -23)" fill="#A3AFBF" style="mix-blend-mode:color"/>
</g>
</g>
<g id="Fill 10">
<use xlink:href="#path9_fill" transform="translate(193.931 -15.4734)" fill="#A3AFBF"/>
</g>
</g>
</g>
<defs>
<path id="path0_fill" d="M 47.7811 24C 47.7811 37.2548 37.0849 48 23.8905 48C 10.6962 48 0 37.2548 0 24C 0 10.7452 10.6962 0 23.8905 0C 37.0849 0 47.7811 10.7452 47.7811 24Z"/>
<path id="path1_fill" fill-rule="evenodd" d="M 27.1038 2.31182C 23.9993 0.829485 20.5262 0 16.8603 0C 10.4651 0 4.65676 2.52432 0.368813 6.63522C -4.18998 11.0058 35.1727 6.16465 27.1038 2.31182Z"/>
<path id="path2_fill" fill-rule="evenodd" d="M 40.42 6.76818C 40.4473 6.80245 38.4715 9.45533 32.5332 10.2085C 20.5471 11.7286 -0.0309806 11.8894 3.5028e-05 11.8209C 1.27302 9.01089 3.0696 6.49084 5.26456 4.38652C 7.85075 5.19769 10.6657 5.39982 13.3284 4.9069C 17.7248 4.0989 21.6364 1.5469 25.9852 0.506897C 27.9155 0.0410444 30.0185 -0.0950302 31.9991 0.063025C 35.2903 1.63448 38.1671 3.93969 40.42 6.76818Z"/>
<path id="path3_fill" fill-rule="evenodd" d="M 47.0027 11.2237C 47.0179 11.3204 19.9741 13.8741 6.79774 13.1298C 2.50474 12.8873 -0.0288086 10.2798 0.000247236 10.1374C 0.362336 8.3633 0.919299 6.66054 1.64768 5.05271C 5.45439 2.95954 9.93297 1.75156 14.2757 1.79923C 19.7216 1.85523 25.0642 3.67923 30.5102 3.54323C 34.5545 3.4399 38.6311 2.14315 42.0676 1.95312e-08C 44.6003 3.17962 46.3445 7.02052 47.0027 11.2237Z"/>
<path id="path4_fill" fill-rule="evenodd" d="M 47.7802 8.64C 47.7802 8.77298 47.777 9.03818 47.777 9.03818C 47.777 9.03818 40.2656 10.9414 30.5918 10.8279C 17.0423 10.6688 -0.000338029 8.47326 5.0067e-09 8.43306C 0.0133881 6.84065 0.181153 5.28523 0.488994 3.78116C 3.73526 5.79336 7.67216 6.77884 11.4614 6.36405C 14.4746 6.03605 17.3366 4.91605 20.1272 3.72405C 22.9177 2.53205 25.6924 1.25205 28.6419 0.564049C 32.9748 -0.443951 37.6098 -0.0919507 41.7519 1.54805C 43.767 2.34634 45.7664 3.49402 47.4884 4.87796C 47.6805 6.10363 47.7802 7.36011 47.7802 8.64Z"/>
<path id="path5_fill" fill-rule="evenodd" d="M 20.687 12.1126C 13.5193 13.4423 1.21865 11.9086 1.18765 11.8138C 0.416913 9.45593 0 6.93688 0 4.32C 0 4.25089 0.000290753 4.18186 0.000871096 4.11289C 1.08899 3.24611 2.35998 2.47323 3.60074 1.87268C 6.66954 0.376678 10.1518 -0.247322 13.5465 0.0886779C 16.9015 0.424678 20.1055 1.67268 23.2061 3.01668C 25.8183 4.14899 28.4137 5.37217 31.1252 6.21735C 31.3908 6.30015 28.5771 10.6489 20.687 12.1126Z"/>
<path id="path6_fill" fill-rule="evenodd" d="M 27.6595 7.21111C 27.159 8.06024 22.3989 10.9207 15.9463 11.4106C 7.40278 12.0593 -2.69005 9.46495 0.657945 8.14469C 5.92897 6.06469 10.5004 2.32869 15.9463 0.768694C 20.0146 -0.402095 24.5244 -0.216981 28.5182 1.19773C 28.4845 3.27721 28.1876 5.29239 27.6595 7.21111Z"/>
<path id="path7_fill" fill-rule="evenodd" d="M 43.4196 7.07252C 39.2943 14.2674 9.37479 16.0718 5.00399 11.2319C 2.7791 8.76825 1.05688 5.83808 -2.97189e-08 2.60479C 3.67425 0.495154 7.97534 -0.400846 12.1095 0.167154C 17.46 0.903154 22.254 3.90315 27.533 5.07115C 31.7943 6.01515 36.3101 5.71915 40.4124 4.23115C 42.2669 3.5533 44.1057 2.64492 45.7317 1.52185C 45.1915 3.48448 44.4094 5.34618 43.4196 7.07252Z"/>
<path id="path8_fill" fill-rule="evenodd" d="M 38.4522 0.199311C 34.3356 7.42735 26.5847 12.2981 17.7013 12.2981C 10.6826 12.2981 4.37089 9.2576 -6.91753e-08 4.41626C 0.725337 4.69483 1.53659 4.93564 2.28013 5.14607C 6.43812 6.29807 10.9141 6.26606 15.0483 5.04207C 17.6957 4.25807 20.1841 3.01007 22.7839 2.06607C 27.7447 0.268988 33.2049 -0.363878 38.4522 0.199311Z"/>
<path id="path9_fill" fill-rule="evenodd" d="M 53.6634 -1.95656e-07L 59.6317 -1.95656e-07L 59.6317 28.1995L 53.6634 28.1995L 53.6634 -1.95656e-07ZM -1.94857e-06 28.1842L 5.88819 28.1842L 5.88819 16.5535C 5.88819 14.6328 6.35903 12.2506 8.30342 12.2506C 9.19548 12.2506 9.96803 12.4885 10.6844 13.0966C 10.7074 13.1197 12.83 8.13938 12.807 8.16246C 11.4873 6.94496 10.1105 6.65569 9.10651 6.65569C 6.92664 6.65569 5.1068 7.98894 4.37766 9.98283L 3.22096 7.24697L -1.94857e-06 7.24697L -1.94857e-06 28.1842ZM 62.9751 28.1842L 68.8618 28.1842L 68.8618 16.5535C 68.8618 14.6328 69.9892 12.3534 71.9337 12.3534C 73.8833 12.3534 74.0487 15.075 74.0487 16.3735C 74.0588 16.4108 74.055 28.1841 74.055 28.1841L 79.9457 28.1841L 79.9457 16.6408C 79.9457 14.0132 81.3976 12.3779 82.9757 12.3779C 84.8973 12.3779 85.1899 14.5275 85.1899 16.5535L 85.2026 28.1841L 91.0691 28.1841L 91.0691 14.6984C 91.0691 12.0038 90.1515 6.60686 84.3551 6.60686C 81.6015 6.60686 80.003 7.52604 78.7089 9.85165C 77.4999 7.6636 75.2908 6.59794 73.1097 6.59794C 70.9298 6.59794 68.5693 7.75743 67.3528 10.1513L 66.1959 7.24837L 62.9752 7.24837L 62.9751 28.1842ZM 18.8846 15.0905L 25.8137 15.0905C 25.6482 12.279 23.9978 11.2838 22.3905 11.2838C 20.7846 11.2838 19.0806 12.5977 18.8846 15.0905ZM 24.3211 23.5407C 26.8941 23.5407 28.8793 22.3232 28.8793 22.3232L 30.5438 26.9885C 29.7065 27.4488 26.9387 28.6187 23.6467 28.6187C 16.0724 28.6187 13.0297 23.5534 13.0297 17.4945C 13.0297 11.7711 16.4376 6.56696 22.5077 6.56696C 28.4708 6.56696 32.5341 11.5667 31.4702 19.5887L 18.8045 19.5887C 19.0806 22.4453 21.5366 23.5407 24.3211 23.5407ZM 38.5099 21.8938C 38.5099 23.3143 40.7853 24.672 42.6877 23.6447C 44.543 22.6429 44.389 21.0748 44.389 18.8585C 40.8755 18.8586 38.5099 20.1403 38.5099 21.8938ZM 46.9914 28.1944L 45.7443 25.7492C 45.1487 26.6337 43.2077 28.8 39.6335 28.8C 35.6784 28.8 32.6828 25.9678 32.6828 22.6562C 32.6828 19.2931 35.0002 14.8514 44.403 14.8514C 44.403 12.6196 42.4878 11.7891 40.4644 11.7891C 38.9157 11.7891 36.7129 12.4487 34.8335 14.2406L 33.0443 9.15353C 34.2799 8.37842 37.1305 6.39345 41.3756 6.39345C 47.7016 6.39345 50.286 10.2515 50.286 16.4686L 50.286 28.1957L 46.9915 28.1957L 46.9915 28.1944L 46.9914 28.1944Z"/>
</defs>
</svg>
