<svg width="212" height="48" viewBox="0 0 212 48" version="1.1" xmlns="http://www.w3.org/2000/svg" xmlns:xlink="http://www.w3.org/1999/xlink">
<title>sketch</title>
<desc>Created using Figma</desc>
<g id="Canvas" transform="translate(-737 23)">
<g id="sketch">
<g id="Vector">
<use xlink:href="#path0_fill" transform="translate(804.308 -16.8884)" fill="#A3AFBF"/>
</g>
<g id="Vector">
<use xlink:href="#path1_fill" transform="translate(737 -23)" fill="#A3AFBF"/>
</g>
<g id="Group" style="mix-blend-mode:luminosity" opacity="0.75">
<g id="Vector">
<use xlink:href="#path2_fill" transform="translate(737 -5.88399)" fill="#EA6C00"/>
</g>
<g id="Vector">
<use xlink:href="#path3_fill" transform="matrix(-1 0 0 1 790.738 -5.88399)" fill="#EA6C00"/>
</g>
<g id="Vector">
<use xlink:href="#path4_fill" transform="translate(747.883 -5.88399)" fill="#FDAD00"/>
</g>
<g id="Vector">
<use xlink:href="#path5_fill" transform="translate(747.883 -23)" fill="#FDD231"/>
</g>
<g id="Vector">
<use xlink:href="#path5_fill" transform="matrix(-1 0 0 1 779.854 -23)" fill="#FDD231"/>
</g>
<g id="Vector">
<use xlink:href="#path6_fill" transform="matrix(-1 0 0 1 790.738 -21.4199)" fill="#FDAD00"/>
</g>
<g id="Vector">
<use xlink:href="#path7_fill" transform="translate(737 -21.4199)" fill="#FDAD00"/>
</g>
<g id="Vector">
<use xlink:href="#path8_fill" transform="translate(747.883 -23)" fill="#FEEEB7"/>
</g>
</g>
</g>
</g>
<defs>
<path id="path0_fill" fill-rule="evenodd" d="M 4.59318 25.6251L 4.55243 25.0827L 4.00588 25.0827L 0.613571 25.0827L 0 25.0827L 0.0251238 25.6927C 0.305052 32.4894 4.90983 36.9911 13.0991 36.9911C 20.9098 36.9911 26.2208 32.9531 26.2208 26.8408C 26.2208 23.5358 25.0685 21.1969 22.8727 19.5997C 21.1837 18.371 19.1642 17.6784 15.8153 16.9559C 15.5915 16.9076 15.3583 16.8582 15.0788 16.7996C 14.9129 16.7649 14.3174 16.6409 14.349 16.6474C 8.26723 15.3787 6.33809 14.2766 6.33809 10.9942C 6.33809 7.59999 9.1275 5.43849 13.8059 5.43849C 18.3576 5.43849 21.2342 8.20476 21.3682 12.5593L 21.3856 13.1274L 21.9568 13.1274L 25.302 13.1274L 25.9047 13.1274L 25.8908 12.5278C 25.7334 5.74017 21.1566 1.17209 13.7588 1.17209C 6.5082 1.17209 1.72079 5.51347 1.72079 11.1348C 1.72079 14.4305 2.87186 16.7256 5.07107 18.2591C 6.74644 19.4272 8.68726 20.0465 12.111 20.7344C 12.2713 20.7666 12.4386 20.7999 12.6378 20.8392C 12.761 20.8635 12.9003 20.8909 13.1616 20.9423C 16.401 21.5801 17.8303 21.9737 19.1342 22.7282C 20.753 23.6649 21.5564 25.0028 21.5564 27.0753C 21.5564 30.6735 18.5161 32.7247 13.1934 32.7247C 8.09781 32.7247 4.93556 30.1818 4.59318 25.6251ZM 35.7616 0.586045L 35.7616 -1.06456e-07L 35.1727 -1.06456e-07L 31.8275 -1.06456e-07L 31.2386 -1.06456e-07L 31.2386 0.586045L 31.2386 35.7487L 31.2386 36.3348L 31.8275 36.3348L 35.1727 36.3348L 35.7616 36.3348L 35.7616 35.7487L 35.7616 29.4792L 40.5228 24.8651L 49.0253 36.1012L 49.202 36.3348L 49.4958 36.3348L 53.6419 36.3348L 54.8285 36.3348L 54.111 35.3943L 43.7272 21.7844L 53.3035 12.3004L 54.3147 11.2989L 52.8881 11.2989L 48.4121 11.2989L 48.1669 11.2989L 47.9942 11.4721L 35.7616 23.7311L 35.7616 0.586045ZM 78.0241 25.364L 78.5774 25.364L 78.6119 24.8145C 78.618 24.7179 78.627 24.5581 78.636 24.3657C 78.6431 24.2133 78.649 24.0648 78.6532 23.9245C 78.6577 23.7724 78.6602 23.634 78.6602 23.5121C 78.6602 16.1562 73.7639 10.7363 66.528 10.7363C 59.3056 10.7363 54.1602 16.5057 54.1602 23.7934C 54.1602 31.2926 59.0724 36.8974 66.5751 36.8974C 72.2481 36.8974 76.6308 33.5479 78.2098 28.4674L 78.4458 27.7082L 77.6472 27.7082L 74.1606 27.7082L 73.7447 27.7082L 73.6056 28.0983C 72.614 30.879 69.9294 32.7247 66.6222 32.7247C 62.2986 32.7247 59.2846 29.7701 58.7416 25.364L 78.0241 25.364ZM 58.8787 21.4727C 59.6421 17.5276 62.5579 14.909 66.528 14.909C 70.6198 14.909 73.4437 17.4416 74.0613 21.4727L 58.8787 21.4727ZM 93.5015 15.284L 94.0904 15.284L 94.0904 14.698L 94.0904 11.885L 94.0904 11.2989L 93.5015 11.2989L 88.5779 11.2989L 88.5779 5.08687L 88.5779 4.50082L 87.989 4.50082L 84.6438 4.50082L 84.0549 4.50082L 84.0549 5.08687L 84.0549 11.2989L 80.0736 11.2989L 79.4847 11.2989L 79.4847 11.885L 79.4847 14.698L 79.4847 15.284L 80.0736 15.284L 84.0549 15.284L 84.0549 29.3257C 84.0549 33.932 86.4559 36.4285 90.863 36.4285C 91.6323 36.4285 92.2954 36.3827 92.8522 36.3057C 93.1963 36.2582 93.4339 36.2089 93.5649 36.1727L 93.9962 36.0535L 93.9962 35.6081L 93.9962 32.6075L 93.9962 31.8804L 93.2822 32.0348C 93.2536 32.041 93.1958 32.0527 93.1132 32.0681C 92.9733 32.0942 92.8174 32.1204 92.6502 32.1449C 92.222 32.2076 91.7972 32.2477 91.4061 32.2548C 91.3659 32.2555 91.3262 32.2559 91.2871 32.2559C 89.3565 32.2559 88.5779 31.3535 88.5779 29.0912L 88.5779 15.284L 93.5015 15.284ZM 107.565 36.8974C 113.826 36.8974 118.247 32.9551 119.357 27.3766L 119.496 26.6767L 118.779 26.6767L 115.387 26.6767L 114.934 26.6767L 114.817 27.1122C 113.866 30.6722 111.285 32.7247 107.565 32.7247C 102.923 32.7247 99.7207 29.0808 99.7207 23.8403C 99.7207 18.5592 102.918 14.909 107.565 14.909C 111.285 14.909 113.866 16.9615 114.817 20.5215L 114.934 20.957L 115.387 20.957L 118.779 20.957L 119.496 20.957L 119.357 20.2571C 118.247 14.6786 113.826 10.7363 107.565 10.7363C 100.293 10.7363 95.1505 16.5464 95.1505 23.8403C 95.1505 31.094 100.3 36.8974 107.565 36.8974ZM 127.825 0.586045L 127.825 -1.06456e-07L 127.236 -1.06456e-07L 123.891 -1.06456e-07L 123.302 -1.06456e-07L 123.302 0.586045L 123.302 35.7487L 123.302 36.3348L 123.891 36.3348L 127.236 36.3348L 127.825 36.3348L 127.825 35.7487L 127.825 21.6368C 127.825 17.3371 130.455 14.8152 134.445 14.8152C 138.255 14.8152 140.169 17.0103 140.169 21.1679L 140.169 35.7487L 140.169 36.3348L 140.758 36.3348L 144.103 36.3348L 144.692 36.3348L 144.692 35.7487L 144.692 20.5116C 144.692 14.6386 141.038 10.7363 135.01 10.7363C 131.909 10.7363 129.416 11.8669 127.825 13.4895L 127.825 0.586045Z"/>
<path id="path1_fill" fill-rule="evenodd" d="M 11.7246 1.58035L 26.8688 0L 42.013 1.58035L 53.7376 17.116L 26.8688 47.9998L 0 17.116L 11.7246 1.58035Z"/>
<path id="path2_fill" fill-rule="evenodd" d="M 10.8831 0L 26.8687 30.884L 0 0L 10.8831 0Z"/>
<path id="path3_fill" fill-rule="evenodd" d="M 10.8831 0L 26.8687 30.884L -6.84689e-08 0L 10.8831 0Z"/>
<path id="path4_fill" fill-rule="evenodd" d="M -6.84689e-08 0L 31.9711 0L 15.9856 30.884L -6.84689e-08 0Z"/>
<path id="path5_fill" fill-rule="evenodd" d="M 15.9856 0L 0.841346 1.58009L -6.84689e-08 17.1158L 15.9856 0Z"/>
<path id="path6_fill" fill-rule="evenodd" d="M -6.84689e-08 15.5358L 11.7244 5.00345e-08L 10.8831 15.5358L -6.84689e-08 15.5358Z"/>
<path id="path7_fill" fill-rule="evenodd" d="M 0 15.5358L 11.7244 5.00345e-08L 10.8831 15.5358L 0 15.5358Z"/>
<path id="path8_fill" fill-rule="evenodd" d="M 15.9856 0L -6.84689e-08 17.1158L 31.9711 17.1158L 15.9856 0Z"/>
</defs>
</svg>
