<svg width="208" height="44" viewBox="0 0 208 44" version="1.1" xmlns="http://www.w3.org/2000/svg" xmlns:xlink="http://www.w3.org/1999/xlink">
<title>zeit</title>
<desc>Created using Figma</desc>
<g id="Canvas" transform="translate(-664 109)">
<g id="zeit">
<use xlink:href="#path0_fill" transform="translate(664 -109)" fill="#A3AFBF"/>
</g>
</g>
<defs>
<path id="path0_fill" fill-rule="evenodd" d="M 49.1017 44L 24.5509 0L 0 44L 49.1017 44ZM 96.398 33.7062L 77.8355 33.7062L 77.8355 30.8637L 91.5418 11.104L 78.0624 11.104L 78.0624 7.84889L 96.1711 7.84889L 96.1711 10.6914L 82.4648 30.4511L 96.398 30.4511L 96.398 33.7062ZM 132.479 33.7062L 115.823 33.7062L 115.823 7.84889L 132.479 7.84889L 132.479 11.104L 119.59 11.104L 119.59 18.8979L 130.8 18.8979L 130.8 22.1529L 119.59 22.1529L 119.59 30.4511L 132.479 30.4511L 132.479 33.7062ZM 168.787 33.7062L 152.539 33.7062L 152.539 30.4511L 158.803 30.4511L 158.803 11.104L 152.539 11.104L 152.539 7.84889L 168.787 7.84889L 168.787 11.104L 162.57 11.104L 162.57 30.4511L 168.787 30.4511L 168.787 33.7062ZM 199.286 33.7062L 195.519 33.7062L 195.519 11.104L 186.896 11.104L 186.896 7.84889L 208 7.84889L 208 11.104L 199.286 11.104L 199.286 33.7062Z"/>
</defs>
</svg>
