<svg width="320" height="160" viewBox="0 0 320 160" version="1.1" xmlns="http://www.w3.org/2000/svg" xmlns:xlink="http://www.w3.org/1999/xlink">
<title>channels</title>
<desc>Created using Figma</desc>
<g id="Canvas" transform="translate(243 536)">
 clip-path="url(#clip-0)"<g id="channels">
<mask id="mask0_alpha" mask-type="alpha">
<g id="Group">
<g id="Group">
<g id="~">
<use xlink:href="#path0_fill" transform="matrix(0.866025 0.5 -0.5 0.866025 -227.947 -527.716)"/>
</g>
<g id="~">
<use xlink:href="#path1_fill" transform="matrix(0.866025 0.5 -0.5 0.866025 -211.5 -503)"/>
</g>
<g id="~">
<use xlink:href="#path1_fill" transform="matrix(0.258819 0.965926 -0.965926 0.258819 -134.375 -531)"/>
</g>
<g id="~">
<use xlink:href="#path2_fill" transform="matrix(0.611224 0.791458 -0.791458 0.611224 -173.034 -518.317)"/>
</g>
<g id="~">
<use xlink:href="#path3_fill" transform="matrix(0.999846 0.0175511 -0.0175511 0.999846 -229.331 -467.281)"/>
</g>
<g id="~">
<use xlink:href="#path3_fill" transform="matrix(0.707107 -0.707107 0.707107 0.707107 -162 -392.71)"/>
</g>
<g id="~">
<use xlink:href="#path4_fill" transform="matrix(0.965926 -0.258819 0.258819 0.965926 -224 -405.427)"/>
</g>
<g id="~">
<use xlink:href="#path5_fill" transform="matrix(0.965926 -0.258819 0.258819 0.965926 -204.437 -436.847)"/>
</g>
</g>
<g id="Group">
<g id="~">
<use xlink:href="#path0_fill" transform="matrix(-0.866025 -0.5 0.5 -0.866025 63.2448 -384.986)"/>
</g>
<g id="~">
<use xlink:href="#path1_fill" transform="matrix(-0.866025 -0.5 0.5 -0.866025 46.7977 -409.702)"/>
</g>
<g id="~">
<use xlink:href="#path2_fill" transform="matrix(-0.611224 -0.791458 0.791458 -0.611224 8.33141 -394.385)"/>
</g>
<g id="~">
<use xlink:href="#path2_fill" transform="matrix(-0.258819 -0.965926 0.965926 -0.258819 -44.1403 -384.205)"/>
</g>
<g id="~">
<use xlink:href="#path3_fill" transform="matrix(-0.999846 -0.0175511 0.0175511 -0.999846 64.6283 -445.421)"/>
</g>
<g id="~">
<use xlink:href="#path3_fill" transform="matrix(-0.707107 0.707107 -0.707107 -0.707107 -2.70226 -519.993)"/>
</g>
<g id="~">
<use xlink:href="#path4_fill" transform="matrix(-0.965926 0.258819 -0.258819 -0.965926 59.2977 -507.276)"/>
</g>
<g id="~">
<use xlink:href="#path5_fill" transform="matrix(-0.965926 0.258819 -0.258819 -0.965926 39.7352 -475.855)"/>
</g>
</g>
</g>
</mask>
<g id="Rectangle" mask="url(#mask0_alpha)">
<use xlink:href="#path6_fill" transform="translate(-243 -536)" fill="url(#paint16_radial)" fill-opacity="0.48" style="mix-blend-mode:hard-light"/>
</g>
</g>
</g>
<defs>
<radialGradient id="paint16_radial" cx="0.5" cy="0.5" r="0.5" gradientUnits="userSpaceOnUse" gradientTransform="matrix(-320 160 -159.035 -318.07 399.517 159.035)">
<stop offset="0" stop-color="#FFFFFF"/>
<stop offset="1" stop-color="#D6E0EE"/>
</radialGradient>
<path id="path0_fill" d="M 5.56543 3.46875C 6.62012 4.52344 7.47559 4.94531 8.49512 4.94531C 10.4823 4.94531 12.0884 3.49315 12.1864 1.46559C 12.2144 0.886193 11.6953 0.46875 11.1152 0.46875C 10.4745 0.46875 9.99181 0.990352 9.7621 1.58851C 9.51364 2.23552 9.05514 2.56641 8.40137 2.56641C 7.89919 2.56641 7.42028 2.27544 6.65148 1.50792C 6.64627 1.50271 6.64088 1.49729 6.6357 1.49206C 5.58462 0.431441 4.73087 9.60378e-17 3.71387 1.60334e-32L 3.71387 8.79974e-33C 1.79691 1.3701e-16 0.168072 1.59991 0.0122006 3.48263C -0.0357054 4.06127 0.487279 4.47656 1.0679 4.47656C 1.71657 4.47656 2.20324 3.94761 2.43868 3.34317C 2.6851 2.71054 3.136 2.39062 3.78418 2.39062C 4.31153 2.39062 4.75684 2.66016 5.56543 3.46875Z"/>
<path id="path1_fill" d="M 12.3259 7.71564C 12.3259 7.71564 12.3259 7.71564 12.3259 7.71564C 14.6617 10.0616 16.5563 11 18.8143 11C 23.2182 11 26.777 7.76568 26.9899 3.25107C 27.0504 1.96765 25.9013 1.04265 24.6165 1.04265C 23.1978 1.04265 22.1281 2.19666 21.6243 3.52282C 21.075 4.96893 20.0581 5.70853 18.6067 5.70853C 17.4924 5.70853 16.4298 5.05888 14.7215 3.34444C 14.7163 3.33922 14.7109 3.33377 14.7058 3.32853C 12.3735 0.962296 10.4806 0 8.22518 0L 8.22518 3.9905e-33C 3.97672 1.37699e-16 0.367226 3.56367 0.0263072 7.75523C -0.0779531 9.03709 1.07975 9.95735 2.36585 9.95735C 3.80196 9.95735 4.88058 8.7871 5.39686 7.44699C 5.94171 6.03273 6.94174 5.31754 8.3809 5.31754C 9.54882 5.31754 10.5351 5.91706 12.3259 7.71564Z"/>
<path id="path2_fill" d="M 5.3289 3.33573L 5.3289 3.33573C 6.33876 4.34998 7.15787 4.75567 8.13407 4.75567C 10.038 4.75567 11.5766 3.35737 11.6687 1.40555C 11.6948 0.850682 11.198 0.450775 10.6425 0.450775C 10.0292 0.450775 9.56674 0.949689 9.34894 1.52303C 9.11145 2.14824 8.67182 2.46799 8.0443 2.46799C 7.56353 2.46799 7.10504 2.18826 6.36911 1.45042C 6.3639 1.4452 6.35853 1.43976 6.35335 1.43452C 5.34709 0.414809 4.5297 9.23454e-17 3.55603 1.54185e-32L 3.55603 9.23013e-33C 1.71927 1.37699e-16 0.158764 1.5407 0.0113735 3.35285C -0.0337018 3.90704 0.466811 4.3049 1.02284 4.3049C 1.64372 4.3049 2.11004 3.79896 2.33325 3.21959C 2.5688 2.60815 3.00115 2.29895 3.62335 2.29895C 4.12828 2.29895 4.55467 2.55815 5.3289 3.33573Z"/>
<path id="path3_fill" d="M 7.93483 4.96698C 9.43854 6.47721 10.6582 7.0813 12.1118 7.0813C 14.9468 7.0813 17.2378 4.99919 17.3749 2.09289C 17.4138 1.26668 16.6741 0.671213 15.847 0.671213C 14.9337 0.671213 14.2451 1.41411 13.9208 2.26783C 13.5671 3.19877 12.9125 3.67489 11.9781 3.67489C 11.2614 3.67489 10.578 3.25739 9.47987 2.15582C 9.47467 2.15061 9.46928 2.14516 9.46411 2.13992C 7.96401 0.618713 6.74605 0 5.295 0L 5.295 6.19879e-33C 2.56003 1.37699e-16 0.236403 2.29413 0.0169354 4.99246C -0.0501826 5.81767 0.695091 6.41008 1.52302 6.41008C 2.44753 6.41008 3.14189 5.65673 3.47425 4.79403C 3.825 3.88359 4.46878 3.42319 5.39524 3.42319C 6.1471 3.42319 6.78199 3.80913 7.93483 4.96698Z"/>
<path id="path4_fill" d="M 15.1218 9.46579C 17.9875 12.3439 20.3118 13.4952 23.082 13.4952C 28.4848 13.4952 32.8509 9.52719 33.1121 3.98851C 33.1863 2.41397 31.7766 1.27916 30.2003 1.27916C 28.4599 1.27916 27.1475 2.69493 26.5294 4.3219C 25.8555 6.09605 24.608 7.00341 22.8273 7.00341C 21.4598 7.00341 20.1559 6.20594 18.0591 4.10126C 18.0539 4.09604 18.0485 4.0906 18.0433 4.08535C 15.1812 1.18106 12.8585 0 10.0909 0L 10.0909 3.25269e-33C 4.87876 1.37699e-16 0.450524 4.37203 0.0322745 9.51436C -0.0956353 11.087 1.32467 12.216 2.90249 12.216C 4.66437 12.216 5.98765 10.7803 6.62104 9.13621C 7.28948 7.40114 8.51635 6.52372 10.282 6.52372C 11.7148 6.52372 12.9248 7.25924 15.1218 9.46579Z"/>
<path id="path5_fill" d="M 4.41587 2.7642L 4.41587 2.76421C 5.2527 3.60467 5.93147 3.94086 6.74041 3.94086C 8.31814 3.94086 9.59314 2.78213 9.66941 1.16473C 9.69109 0.70493 9.2794 0.373541 8.8191 0.373541C 8.31086 0.373541 7.92762 0.786973 7.74714 1.26208C 7.55033 1.78017 7.18603 2.04514 6.66603 2.04514C 6.26793 2.04514 5.88826 1.81368 5.27921 1.20326C 5.274 1.19805 5.26863 1.19262 5.26346 1.18738C 4.43022 0.343369 3.75317 1.52964e-16 2.94675 5.11072e-32L 2.94675 1.11386e-32C 1.4247 1.37699e-16 0.131562 1.27672 0.00942479 2.77839C -0.0279274 3.23763 0.38683 3.56732 0.847588 3.56732C 1.36209 3.56732 1.74852 3.14807 1.93348 2.66796C 2.12868 2.16129 2.48695 1.90506 3.00254 1.90506C 3.42096 1.90506 3.77429 2.11985 4.41587 2.7642Z"/>
<path id="path6_fill" d="M 0 0L 320 0L 320 160L 0 160L 0 0Z"/>
</defs>
</svg>
