<svg width="320" height="160" viewBox="0 0 320 160" version="1.1" xmlns="http://www.w3.org/2000/svg" xmlns:xlink="http://www.w3.org/1999/xlink">
<title>notifications</title>
<desc>Created using Figma</desc>
<g id="Canvas" transform="translate(603 336)">
 clip-path="url(#clip-0)"<g id="notifications">
<mask id="mask0_alpha" mask-type="alpha">
<g id="Group">
<g id="Group">
<g id="fill">
<use xlink:href="#path0_fill" transform="matrix(0.866025 -0.5 0.5 0.866025 -599 -323.042)"/>
</g>
<g id="fill">
<use xlink:href="#path1_fill" transform="matrix(0.969026 -0.246959 0.246959 0.969026 -562.308 -269.417)"/>
</g>
<g id="fill">
<use xlink:href="#path2_fill" transform="matrix(0.866025 0.5 -0.5 0.866025 -555.517 -225)"/>
</g>
<g id="stroke">
<use xlink:href="#path3_fill" transform="matrix(0.866025 0.5 -0.5 0.866025 -586 -292)"/>
</g>
<g id="stroke">
<use xlink:href="#path4_fill" transform="matrix(0.997096 -0.0761585 0.0761585 0.997096 -591.32 -250.35)"/>
</g>
<g id="fill">
<use xlink:href="#path5_fill" transform="matrix(-0.965926 0.258819 0.258819 0.965926 -495.389 -324)"/>
</g>
<g id="stroke">
<use xlink:href="#path3_fill" transform="matrix(-0.866025 0.5 0.5 0.866025 -530.608 -257)"/>
</g>
<g id="stroke">
<use xlink:href="#path6_fill" transform="matrix(-0.866025 0.5 0.5 0.866025 -510.06 -211.542)"/>
</g>
<g id="stroke">
<use xlink:href="#path4_fill" transform="matrix(-0.866025 -0.5 -0.5 0.866025 -520.078 -301.608)"/>
</g>
</g>
<g id="Group">
<g id="fill">
<use xlink:href="#path0_fill" transform="matrix(-0.866025 -0.5 -0.5 0.866025 -290.618 -201.974)"/>
</g>
<g id="fill">
<use xlink:href="#path7_fill" transform="matrix(-0.866025 -0.5 -0.5 0.866025 -370.253 -206.992)"/>
</g>
<g id="fill">
<use xlink:href="#path8_fill" transform="matrix(-0.969026 -0.246959 -0.246959 0.969026 -327.31 -250.349)"/>
</g>
<g id="fill">
<use xlink:href="#path9_fill" transform="matrix(-0.866025 -0.5 -0.5 0.866025 -288.742 -321.5)"/>
</g>
<g id="fill">
<use xlink:href="#path5_fill" transform="matrix(-0.965926 0.258819 0.258819 0.965926 -339.389 -298)"/>
</g>
<g id="stroke">
<use xlink:href="#path3_fill" transform="matrix(-0.866025 0.5 0.5 0.866025 -303.618 -241.045)"/>
</g>
<g id="stroke">
<use xlink:href="#path3_fill" transform="matrix(-0.866025 0.5 0.5 0.866025 -348.608 -330)"/>
</g>
<g id="stroke">
<use xlink:href="#path4_fill" transform="matrix(-0.997096 -0.0761585 -0.0761585 0.997096 -298.298 -291.395)"/>
</g>
<g id="stroke">
<use xlink:href="#path4_fill" transform="matrix(-0.866025 0.5 0.5 0.866025 -345.213 -223.838)"/>
</g>
<g id="stroke">
<use xlink:href="#path10_fill" transform="matrix(-0.866025 -0.5 -0.5 0.866025 -380.946 -319.848)"/>
</g>
</g>
</g>
</mask>
<g id="Rectangle" mask="url(#mask0_alpha)">
<use xlink:href="#path11_fill" transform="translate(-603 -336)" fill="url(#paint19_radial)" fill-opacity="0.48" style="mix-blend-mode:hard-light"/>
</g>
</g>
</g>
<defs>
<radialGradient id="paint19_radial" cx="0.5" cy="0.5" r="0.5" gradientUnits="userSpaceOnUse" gradientTransform="matrix(-320 160 -159.035 -318.07 399.517 159.035)">
<stop offset="0" stop-color="#FFFFFF"/>
<stop offset="1" stop-color="#D6E0EE"/>
</radialGradient>
<path id="path0_fill" fill-rule="evenodd" d="M 10.9187 1.61612C 10.9778 1.90532 10.7002 2.11809 10.4074 2.08069C 9.45209 1.95863 8.46473 1.9586 7.50934 2.08067C 7.21656 2.11807 6.93903 1.9053 6.99811 1.61609C 7.18271 0.712204 7.99286 0 8.95838 0C 9.92393 0 10.7341 0.712219 10.9187 1.61612ZM 5.08146 21.7795C 4.91147 21.2815 5.39631 20.8765 5.92139 20.9111C 6.27155 20.9342 6.62473 21.1646 6.96589 21.3871C 7.16541 21.5172 7.36082 21.6446 7.54908 21.7264C 8.02369 21.9324 8.65732 22 8.95838 22C 9.21027 22 9.84946 21.9176 10.3386 21.7064C 10.5215 21.6274 10.7148 21.5076 10.9131 21.3846L 10.9134 21.3844C 11.2683 21.1644 11.6391 20.9345 11.995 20.911C 12.5202 20.8763 13.0052 21.2814 12.8351 21.7795C 12.335 23.2446 10.423 24 8.95838 24C 7.49418 24 5.58152 23.2447 5.08146 21.7795ZM 16.7807 13.2637C 16.9059 13.5184 17.0368 13.785 17.1671 14.0739C 19.8401 20 14.9583 20 8.95838 20C 2.95838 20 -1.92263 20 0.749273 14.076C 0.911901 13.7154 1.06342 13.4057 1.20035 13.1257C 1.66202 12.1819 1.95838 11.576 1.95838 10.5C 1.95838 4 6.45838 3 8.95838 3C 11.4583 3 15.9584 4 15.9584 10.5C 15.9584 11.59 16.3321 12.3507 16.7807 13.2637Z"/>
<path id="path1_fill" fill-rule="evenodd" d="M 3.65631 0.246279C 3.84851 0.470302 3.57233 0.708264 3.27737 0.69737C 3.17815 0.69372 3.0787 0.693725 2.9795 0.697388C 2.68448 0.70824 2.40834 0.470289 2.60054 0.246258C 2.72882 0.0967969 2.91808 2.66956e-06 3.12839 2.28203e-09C 3.33877 -1.71641e-05 3.52805 0.0968166 3.65631 0.246279ZM 1.77453 7.60583C 1.71518 7.43191 1.88444 7.29047 2.06786 7.30257C 2.19013 7.31065 2.31349 7.39109 2.43264 7.46879C 2.50231 7.51423 2.57052 7.55873 2.63625 7.58726C 2.80202 7.6592 3.02326 7.6828 3.12838 7.68282C 3.21637 7.68282 3.43962 7.65406 3.61041 7.58027C 3.67432 7.55266 3.74194 7.51078 3.8112 7.46784C 3.93516 7.391 4.06458 7.31073 4.18887 7.30251C 4.37228 7.29039 4.54163 7.43187 4.48224 7.60582C 4.30757 8.11747 3.63989 8.38125 3.12838 8.38124C 2.61706 8.38125 1.94911 8.11749 1.77453 7.60583ZM 5.86021 4.63206C 5.90387 4.72097 5.94964 4.81401 5.99511 4.91486C 6.92852 6.98437 5.22374 6.98438 3.12844 6.98439C 1.03315 6.98439 -0.671443 6.98438 0.261673 4.91561C 0.318456 4.78968 0.371412 4.68149 0.4192 4.5837C 0.580409 4.25414 0.683903 4.04255 0.68393 3.66678C 0.683902 1.39685 2.2554 1.04766 3.12845 1.04766C 4.00144 1.04765 5.57295 1.39685 5.57297 3.66678C 5.57295 4.04749 5.70352 4.31316 5.86021 4.63206Z"/>
<path id="path2_fill" fill-rule="evenodd" d="M 16.8623 2.78311C 16.8925 3.07674 16.6167 3.2875 16.3245 3.24502C 14.6641 3.00331 12.9318 3.00325 11.2713 3.24498C 10.9792 3.2875 10.7034 3.07673 10.7336 2.7831C 10.8909 1.25453 12.2075 -7.18426e-07 13.7979 3.08563e-13C 15.3883 7.18427e-07 16.705 1.25455 16.8623 2.78311ZM 7.70822 33.1092C 7.5961 32.5581 8.10783 32.1339 8.66868 32.1761C 8.97416 32.1991 9.28793 32.2197 9.61012 32.238C 10.0364 32.2621 10.418 32.5865 10.7795 32.8937C 10.9214 33.0143 11.0601 33.1321 11.1972 33.2283C 11.9149 33.7313 13.2345 33.8851 13.7979 33.885C 14.2667 33.8851 15.6064 33.6997 16.3569 33.203C 16.4963 33.1108 16.6391 32.9968 16.7857 32.8797L 16.7867 32.8789C 17.1609 32.5801 17.5592 32.2619 17.9853 32.2378C 18.3075 32.2195 18.6213 32.1988 18.9268 32.1758C 19.4877 32.1335 19.9996 32.5578 19.8874 33.109C 19.3699 35.6519 16.195 36.9655 13.7979 36.9655C 11.4016 36.9655 8.22546 35.6521 7.70822 33.1092ZM 25.8461 20.4293C 26.0389 20.8216 26.2406 21.2321 26.4413 21.677C 30.5584 30.8046 23.0393 30.8046 13.7979 30.8046C 4.5566 30.8046 -2.96129 30.8046 1.15405 21.6803C 1.40454 21.1249 1.63788 20.6478 1.84887 20.2165C 2.55986 18.7629 3.01635 17.8297 3.01633 16.1724C 3.01632 6.16094 9.94737 4.6207 13.7979 4.62071C 17.6485 4.62068 24.5796 6.16093 24.5796 16.1724C 24.5796 17.8513 25.1552 19.023 25.8461 20.4293Z"/>
<path id="path3_fill" fill-rule="evenodd" d="M 7.26376 0.901367C 7.3626 1.17925 7.08382 1.39658 6.79041 1.36642C 6.26729 1.31264 5.73264 1.31263 5.20954 1.36642C 4.91613 1.39656 4.63738 1.17925 4.73616 0.901372C 4.91989 0.384874 5.41775 -4.93726e-07 5.99996 4.75023e-13C 6.58217 4.93727e-07 7.08008 0.384855 7.26376 0.901367ZM 3.40409 14.5219C 3.28936 14.1889 3.61389 13.9176 3.96538 13.9407C 4.19965 13.9561 4.43657 14.1098 4.66545 14.2581L 4.66659 14.2589L 4.66726 14.2593C 4.80114 14.3461 4.93211 14.431 5.05828 14.4852C 5.37586 14.6218 5.79877 14.6667 5.99997 14.6666C 6.16829 14.6667 6.59494 14.612 6.92224 14.4718C 7.04537 14.4191 7.17563 14.3388 7.30927 14.2564C 7.54739 14.1097 7.79621 13.9563 8.03431 13.9406C 8.38589 13.9175 8.71051 14.1888 8.59573 14.5219C 8.25953 15.4972 6.98022 16 5.99996 16C 5.02003 16 3.74018 15.4972 3.40409 14.5219ZM 9.34876 6.99999C 9.40123 8.09638 9.76332 8.85072 10.0795 9.50933L 10.0838 9.51844C 10.1515 9.65945 10.2171 9.79604 10.2768 9.93079C 10.6812 10.8232 10.679 11.2476 10.6484 11.3918L 10.6471 11.3989C 10.6404 11.4364 10.6271 11.5111 10.3748 11.6248C 10.0481 11.772 9.51149 11.883 8.70788 11.9418C 7.92505 12 7.03139 12 6.04442 12L 5.99996 12L 5.95555 12C 4.96852 12 4.07493 12 3.29206 11.9419C 2.48852 11.8831 1.9519 11.7721 1.62516 11.6249C 1.37285 11.5113 1.35957 11.4366 1.3529 11.3993L 1.3516 11.3922C 1.32108 11.2482 1.31873 10.8241 1.72292 9.93216C 1.79381 9.77565 1.87175 9.61926 1.95144 9.45943C 2.28618 8.78788 2.65115 8.05566 2.65115 6.99998C 2.65117 5.17739 3.2621 4.36068 3.8241 3.94724C 4.49899 3.40024 5.25771 3.32998 5.99999 3.33331C 6.74222 3.32994 7.50098 3.40026 8.17584 3.9472C 8.73783 4.36067 9.34878 5.1774 9.34876 6.99999ZM 11.2399 8.84421L 11.2391 8.84246C 10.9386 8.2338 10.6883 7.72665 10.6883 6.99998C 10.6883 2.66664 7.67436 1.99999 5.99995 1.99998C 4.32555 1.99999 1.31168 2.66664 1.31166 6.99999C 1.31167 7.7173 1.11314 8.12123 0.803982 8.75043C 0.712233 8.93709 0.610775 9.14357 0.501838 9.38396C -1.28771 13.3333 1.98139 13.3333 5.99999 13.3333C 10.0185 13.3333 13.2881 13.3333 11.4979 9.38254C 11.4109 9.19063 11.3235 9.01349 11.2399 8.84421Z"/>
<path id="path4_fill" fill-rule="evenodd" d="M 13.9104 2.19063C 13.9523 2.48256 13.6761 2.69382 13.3839 2.6535C 12.0733 2.47269 10.7112 2.47265 9.40061 2.65347C 9.10845 2.6938 8.83216 2.48253 8.87413 2.1906C 9.04827 0.978588 10.113 1.40114e-05 11.3922 0C 12.6715 1.65062e-05 13.7363 0.978584 13.9104 2.19063ZM 6.40634 27.3872C 6.25936 26.8446 6.77426 26.4168 7.33495 26.4563C 7.46808 26.4657 7.60308 26.4745 7.73994 26.4828C 8.13513 26.5069 8.51418 26.785 8.87778 27.0518C 9.06034 27.1858 9.23905 27.317 9.4139 27.4116C 10.0262 27.743 10.9684 27.8479 11.3923 27.8479C 11.7458 27.8479 12.6996 27.7208 13.3343 27.3875C 13.5061 27.2973 13.6846 27.1735 13.8678 27.0464L 13.8684 27.046L 13.8695 27.0451C 14.2473 26.7829 14.6449 26.507 15.0442 26.4827C 15.181 26.4743 15.316 26.4654 15.4491 26.456C 16.01 26.4165 16.5251 26.8444 16.378 27.3871C 15.8432 29.3609 13.3147 30.3795 11.3923 30.3795C 9.47035 30.3795 6.94098 29.3609 6.40634 27.3872ZM 17.7507 13.291C 17.8503 15.3728 18.5378 16.8051 19.1381 18.0556L 19.1416 18.063C 19.2718 18.3342 19.3979 18.5969 19.5128 18.8558C 20.2806 20.5502 20.2763 21.3561 20.2184 21.6299L 20.2158 21.6435C 20.2031 21.7147 20.1778 21.8564 19.6988 22.0723C 19.0784 22.3519 18.0596 22.5626 16.5338 22.6742C 15.0474 22.7847 13.3507 22.7847 11.4766 22.7846L 11.3923 22.7846L 11.3079 22.7847L 11.3067 22.7847C 9.43306 22.7846 7.7368 22.7847 6.25073 22.6743C 4.72499 22.5627 3.70617 22.352 3.08572 22.0725C 2.60667 21.8567 2.58139 21.7149 2.56879 21.6441L 2.56626 21.6306C 2.50836 21.3573 2.50389 20.5521 3.27133 18.8584C 3.40552 18.5623 3.55299 18.2663 3.70371 17.9639L 3.70527 17.9608C 4.34081 16.6857 5.03383 15.2955 5.03383 13.291C 5.03383 9.83047 6.19386 8.27975 7.26089 7.4947C 8.54227 6.4562 9.98293 6.32271 11.3922 6.3291C 12.8015 6.32272 14.2422 6.4562 15.5236 7.49471C 16.5907 8.27976 17.7507 9.83047 17.7507 13.291ZM 21.8312 17.8149C 21.6655 17.4492 21.499 17.1118 21.3398 16.7894C 20.7694 15.6337 20.2941 14.6708 20.2941 13.2911C 20.2941 5.06327 14.5714 3.79746 11.3923 3.79747C 8.21303 3.79745 2.49045 5.06326 2.49044 13.2911C 2.49047 14.6531 2.11358 15.42 1.52652 16.6147C 1.35235 16.9691 1.15968 17.3611 0.952831 17.8176C -2.44498 25.3163 3.76216 25.3163 11.3923 25.3163C 19.0223 25.3163 25.2305 25.3163 21.8312 17.8149Z"/>
<path id="path5_fill" fill-rule="evenodd" d="M 5.32515 0.474171C 5.47692 0.722367 5.20428 0.94739 4.91413 0.926088C 4.61102 0.903834 4.3039 0.903856 4.00081 0.926084C 3.71063 0.947377 3.43799 0.722341 3.58977 0.474131C 3.76064 0.194738 4.08592 2.4328e-06 4.45746 2.27915e-11C 4.82901 -2.43276e-06 5.15429 0.194752 5.32515 0.474171ZM 2.53924 9.98508C 2.44189 9.74537 2.68064 9.54393 2.93889 9.55969C 3.11031 9.57015 3.29206 9.67674 3.46755 9.77966C 3.5773 9.84402 3.68462 9.90695 3.78543 9.94404C 4.01775 10.0295 4.31375 10.058 4.45747 10.058C 4.578 10.0579 4.87689 10.0231 5.11608 9.93449C 5.2138 9.8983 5.31959 9.83924 5.42828 9.77855C 5.61066 9.67674 5.80128 9.57031 5.97584 9.55961C 6.23416 9.54382 6.47298 9.74532 6.37556 9.98512C 6.11097 10.6366 5.17604 10.9723 4.45746 10.9723C 3.73909 10.9723 2.8038 10.6366 2.53924 9.98508ZM 8.3497 6.06389C 8.41196 6.18035 8.47711 6.30219 8.54195 6.43426C 9.87198 9.14355 7.4429 9.14358 4.45748 9.14356C 1.47202 9.14357 -0.956651 9.14356 0.372816 6.43521C 0.45373 6.27038 0.529105 6.1288 0.597255 6.00081C 0.82697 5.56929 0.974441 5.29228 0.974442 4.80036C 0.974442 1.82871 3.21354 1.37152 4.45746 1.37153C 5.70138 1.37151 7.9405 1.82871 7.94052 4.80036C 7.9405 5.2987 8.12648 5.64647 8.3497 6.06389Z"/>
<path id="path6_fill" fill-rule="evenodd" d="M 10.6558 1.55577C 10.7173 1.84423 10.44 2.0571 10.1473 2.02023C 9.22272 1.90372 8.26767 1.9037 7.34307 2.02021C 7.05043 2.05709 6.77306 1.84419 6.83462 1.55574C 7.02057 0.684392 7.80788 1.36753e-05 8.74522 0C 9.68251 3.00568e-05 10.4698 0.684398 10.6558 1.55577ZM 4.96162 21.1662C 4.79438 20.6808 5.26742 20.2854 5.77967 20.3191C 6.12115 20.3415 6.46658 20.5655 6.8002 20.7818C 6.99614 20.9089 7.18803 21.0333 7.37264 21.1127C 7.83558 21.3118 8.45198 21.3772 8.7452 21.3772C 8.99054 21.3772 9.61234 21.2974 10.0894 21.0932C 10.2689 21.0163 10.4588 20.8993 10.6536 20.7792C 11.0006 20.5653 11.3633 20.3418 11.7103 20.3189C 12.2227 20.2852 12.6959 20.6807 12.5286 21.1662C 12.0386 22.5877 10.1739 23.3206 8.74518 23.3206C 7.31689 23.3206 5.4515 22.5877 4.96162 21.1662ZM 13.6261 10.2028C 13.7026 11.8008 14.2304 12.9003 14.6912 13.8603L 14.692 13.8618C 14.7926 14.0715 14.89 14.2745 14.9788 14.4745C 15.5682 15.7752 15.5649 16.3938 15.5204 16.604L 15.5185 16.6144C 15.5087 16.6691 15.4893 16.7779 15.1216 16.9436C 14.6454 17.1582 13.8633 17.32 12.692 17.4057C 11.551 17.4905 10.2485 17.4905 8.80993 17.4904L 8.74515 17.4904L 8.68039 17.4904C 7.24178 17.4905 5.93933 17.4905 4.79832 17.4057C 3.62711 17.3201 2.845 17.1583 2.36871 16.9438C 2.00097 16.7781 1.98161 16.6693 1.97192 16.6149L 1.96997 16.6045C 1.92554 16.3948 1.9221 15.7766 2.51119 14.4765C 2.61457 14.2484 2.72818 14.0204 2.8443 13.7875C 3.33218 12.8087 3.86418 11.7414 3.86418 10.2028C 3.86417 7.54627 4.75465 6.35591 5.57376 5.75327C 6.55739 4.95606 7.66333 4.85359 8.74516 4.85848C 9.82696 4.85361 10.9329 4.95607 11.9165 5.75327C 12.7357 6.3559 13.6261 7.5463 13.6261 10.2028ZM 16.7585 13.6755C 16.6313 13.3948 16.5035 13.1357 16.3813 12.8882C 15.9434 12.0011 15.5786 11.2619 15.5786 10.2028C 15.5785 3.8868 11.1856 2.91511 8.74512 2.91512C 6.30466 2.9151 1.91178 3.88679 1.91177 10.2028C 1.91178 11.2483 1.62246 11.837 1.1718 12.7541C 1.03809 13.0262 0.890199 13.3271 0.73143 13.6775C -1.87686 19.4338 2.88798 19.4338 8.74514 19.4338C 14.6023 19.4338 19.3679 19.4338 16.7585 13.6755Z"/>
<path id="path7_fill" fill-rule="evenodd" d="M 7.08139 0.872253C 7.18241 1.14962 6.90327 1.36736 6.6096 1.33761C 6.10848 1.28681 5.59675 1.28681 5.09565 1.3376C 4.80196 1.36735 4.52282 1.14959 4.62385 0.872242C 4.80615 0.371671 5.28884 -7.16507e-07 5.85262 3.15161e-10C 6.41641 -1.24974e-05 6.89908 0.371673 7.08139 0.872253ZM 3.31974 14.2288C 3.20872 13.9035 3.52547 13.6388 3.86849 13.6615C 4.09727 13.6766 4.32803 13.8271 4.5509 13.9724C 4.68125 14.0574 4.80892 14.1407 4.93191 14.1941C 5.24197 14.3287 5.65593 14.3728 5.85263 14.3729C 6.01716 14.3728 6.43478 14.319 6.75431 14.181C 6.8738 14.1294 7.00006 14.0511 7.12959 13.9708L 7.12985 13.9707C 7.36169 13.8269 7.60396 13.6767 7.83649 13.6614C 8.17959 13.6387 8.49643 13.9034 8.38533 14.2288C 8.05858 15.186 6.80948 15.6795 5.8526 15.6795C 4.89602 15.6795 3.64645 15.186 3.31974 14.2288ZM 10.963 8.66531C 11.0448 8.83173 11.1303 9.00587 11.2155 9.1946C 12.9618 13.0662 9.77247 13.0662 5.8526 13.0662C 1.93275 13.0662 -1.25608 13.0662 0.489507 9.19598C 0.595753 8.96038 0.694753 8.75803 0.784234 8.57509C 1.08583 7.95853 1.27943 7.56271 1.27944 6.85976C 1.27942 2.61322 4.21933 1.95991 5.85261 1.95992C 7.48586 1.9599 10.4258 2.61322 10.4258 6.85974C 10.4258 7.57185 10.67 8.06884 10.963 8.66531Z"/>
<path id="path8_fill" fill-rule="evenodd" d="M 3.65631 0.246279C 3.84851 0.470302 3.57233 0.708264 3.27737 0.69737C 3.17815 0.69372 3.0787 0.693725 2.9795 0.697388C 2.68448 0.70824 2.40834 0.470289 2.60054 0.246258C 2.72882 0.0967969 2.91808 2.66956e-06 3.12839 2.28203e-09C 3.33877 -1.71641e-05 3.52805 0.0968166 3.65631 0.246279ZM 1.77453 7.60583C 1.71518 7.43191 1.88444 7.29047 2.06786 7.30257C 2.19013 7.31065 2.31349 7.39109 2.43264 7.46879C 2.50231 7.51423 2.57052 7.55873 2.63625 7.58726C 2.80202 7.6592 3.02326 7.6828 3.12838 7.68282C 3.21637 7.68282 3.43962 7.65406 3.61041 7.58027C 3.67432 7.55266 3.74194 7.51078 3.8112 7.46784C 3.93516 7.391 4.06458 7.31073 4.18887 7.30251C 4.37228 7.29039 4.54163 7.43187 4.48224 7.60582C 4.30757 8.11747 3.63989 8.38125 3.12838 8.38124C 2.61706 8.38125 1.94911 8.11749 1.77453 7.60583ZM 5.86021 4.63206C 5.90387 4.72097 5.94964 4.81401 5.99511 4.91486C 6.92852 6.98437 5.22374 6.98438 3.12844 6.98439C 1.03315 6.98439 -0.671443 6.98438 0.261673 4.91561C 0.318456 4.78968 0.371412 4.68149 0.4192 4.5837C 0.580409 4.25414 0.683903 4.04255 0.68393 3.66678C 0.683902 1.39685 2.2554 1.04766 3.12845 1.04766C 4.00144 1.04765 5.57295 1.39685 5.57297 3.66678C 5.57295 4.04749 5.70352 4.31316 5.86021 4.63206Z"/>
<path id="path9_fill" fill-rule="evenodd" d="M 7.87348 0.913055C 7.97538 1.18555 7.7014 1.40118 7.41194 1.37189C 6.809 1.31082 6.19093 1.31082 5.58799 1.37189C 5.2985 1.40118 5.02452 1.18555 5.12644 0.913025C 5.32176 0.390656 5.86448 -3.52755e-17 6.49995 0C 7.13545 3.52772e-17 7.67814 0.390686 7.87348 0.913055ZM 3.70277 14.5604C 3.56083 14.2108 3.90895 13.9171 4.28556 13.9401C 4.53553 13.9554 4.80055 14.1108 5.05644 14.2608C 5.2165 14.3547 5.373 14.4465 5.52 14.5005C 5.85878 14.6252 6.29039 14.6667 6.49995 14.6667C 6.67576 14.6667 7.11158 14.6158 7.46037 14.4866C 7.60289 14.4338 7.75715 14.3477 7.91566 14.2592C 8.18162 14.1107 8.45954 13.9555 8.71406 13.94C 9.09077 13.917 9.43901 14.2108 9.29698 14.5605C 8.91111 15.5104 7.54777 16 6.49995 16C 5.4524 16 4.08854 15.5104 3.70277 14.5604ZM 12.1757 8.84253C 12.2665 9.01233 12.3615 9.19 12.456 9.38257C 14.3955 13.3333 10.8534 13.3333 6.49998 13.3333C 2.14653 13.3333 -1.39501 13.3333 0.54365 9.38397C 0.661662 9.14359 0.771586 8.9371 0.870982 8.75043C 1.20591 8.12125 1.42097 7.71732 1.42097 7C 1.42097 2.66666 4.68605 2 6.49998 2C 8.31388 2 11.579 2.66666 11.579 7C 11.579 7.72668 11.8502 8.23383 12.1757 8.84253Z"/>
<path id="path10_fill" fill-rule="evenodd" d="M 11.1565 1.65318C 11.2143 1.94239 10.9372 2.15492 10.6446 2.11739C 9.66065 1.99115 8.64315 1.99113 7.65914 2.11735C 7.3666 2.15488 7.08943 1.94238 7.14725 1.65316C 7.33198 0.729363 8.16199 -9.1627e-06 9.15188 3.06524e-10C 10.1418 -1.72657e-05 10.9718 0.729392 11.1565 1.65318ZM 5.19235 22.1505C 5.01731 21.6426 5.51235 21.2288 6.04843 21.2641C 6.4058 21.2875 6.76727 21.5219 7.11644 21.7483L 7.11671 21.7485L 7.1175 21.749C 7.32219 21.8817 7.52263 22.0116 7.71549 22.0946C 8.19997 22.3029 8.845 22.3714 9.15186 22.3714C 9.40864 22.3714 10.0594 22.2879 10.5586 22.0742C 10.7462 21.9939 10.9447 21.8715 11.1483 21.746L 11.1489 21.7457C 11.5121 21.5218 11.8917 21.2878 12.2549 21.2639C 12.7911 21.2286 13.2863 21.6425 13.1112 22.1506C 12.5984 23.6382 10.647 24.4051 9.15188 24.4051C 7.65713 24.4051 5.70499 23.6382 5.19235 22.1505ZM 14.2599 10.6773C 14.3399 12.3496 14.8922 13.5002 15.3744 14.5049C 15.48 14.7248 15.5822 14.9378 15.6754 15.1477C 16.2922 16.5088 16.2888 17.1563 16.2423 17.3762L 16.2402 17.3871C 16.23 17.4443 16.2097 17.5582 15.8249 17.7316C 15.3265 17.9562 14.508 18.1255 13.2823 18.2152C 12.0882 18.3039 10.7252 18.3039 9.21964 18.3039L 9.15189 18.3039L 9.08408 18.3039L 9.08169 18.3039C 7.57713 18.3039 6.21492 18.3039 5.02147 18.2152C 3.7958 18.1256 2.97731 17.9563 2.47888 17.7318C 2.09403 17.5584 2.07375 17.4445 2.06362 17.3876L 2.06158 17.3768C 2.01509 17.1572 2.01148 16.5104 2.62799 15.1498C 2.73606 14.9113 2.85485 14.6729 2.97625 14.4294L 2.97658 14.4287C 3.48718 13.4044 4.04388 12.2875 4.04388 10.6773C 4.04387 7.89725 4.97577 6.6515 5.83299 6.02082C 6.86237 5.18656 8.01971 5.07932 9.15186 5.08444C 10.284 5.0793 11.4414 5.18655 12.4708 6.02082C 13.328 6.65148 14.2599 7.89725 14.2599 10.6773ZM 17.1435 13.4883L 17.1432 13.4876C 16.6849 12.5592 16.3031 11.7857 16.3031 10.6773C 16.3031 4.06754 11.7058 3.05065 9.15187 3.05068C 6.59789 3.05066 2.00069 4.06756 2.00067 10.6773C 2.00068 11.7714 1.69793 12.3875 1.2263 13.3473C 1.08638 13.632 0.931622 13.9469 0.765451 14.3136C -1.96415 20.3376 3.02229 20.3376 9.15188 20.3376C 15.2814 20.3376 20.2687 20.3376 17.5379 14.3115C 17.405 14.018 17.2713 13.7472 17.1435 13.4883Z"/>
<path id="path11_fill" d="M 0 0L 320 0L 320 160L 0 160L 0 0Z"/>
</defs>
</svg>
