<svg width="320" height="160" viewBox="0 0 320 160" version="1.1" xmlns="http://www.w3.org/2000/svg" xmlns:xlink="http://www.w3.org/1999/xlink">
<title>feed</title>
<desc>Created using Figma</desc>
<g id="Canvas" transform="translate(-117 536)">
 clip-path="url(#clip-0)"<g id="feed">
<mask id="mask0_alpha" mask-type="alpha">
<g id="Group">
<g id="Group">
<g id="fill">
<use xlink:href="#path0_fill" transform="translate(193.067 -388.207)"/>
</g>
<g id="fill">
<use xlink:href="#path1_fill" transform="matrix(-1 1.21973e-16 -1.22959e-16 -1 164.941 -446.779)"/>
</g>
<g id="fill">
<use xlink:href="#path2_fill" transform="matrix(0.866895 -0.498491 0.50151 0.865152 123.392 -401.277)"/>
</g>
<g id="fill">
<use xlink:href="#path3_fill" transform="matrix(0.866895 0.498491 -0.50151 0.865152 133.43 -488.161)"/>
</g>
<g id="fill">
<use xlink:href="#path4_fill" transform="matrix(0.966185 0.257849 -0.259793 0.965664 177.387 -526.997)"/>
</g>
<g id="stroke">
<use xlink:href="#path5_fill" transform="matrix(0.866895 -0.498491 0.50151 0.865152 203.095 -526.124)"/>
</g>
<g id="stroke">
<use xlink:href="#path6_fill" transform="matrix(0.866895 0.498491 -0.50151 0.865152 160.319 -434.722)"/>
</g>
<g id="stroke">
<use xlink:href="#path7_fill" transform="translate(126.588 -455.692)"/>
</g>
<g id="stroke">
<use xlink:href="#path8_fill" transform="matrix(0.966185 0.257849 -0.259793 0.965664 165.669 -403.124)"/>
</g>
<g id="stroke">
<use xlink:href="#path9_fill" transform="matrix(-0.50151 0.865152 -0.866895 -0.498491 172.275 -495.355)"/>
</g>
<g id="stroke">
<use xlink:href="#path10_fill" transform="matrix(0.866895 -0.498491 0.50151 0.865152 117 -519.706)"/>
</g>
</g>
<g id="Group">
<g id="fill">
<use xlink:href="#path11_fill" transform="matrix(-1 -0 0 1 352.157 -529.788)"/>
</g>
<g id="fill">
<use xlink:href="#path12_fill" transform="matrix(1 1.21525e-16 1.23412e-16 -1 380.569 -452.894)"/>
</g>
<g id="fill">
<use xlink:href="#path13_fill" transform="matrix(-0.867686 -0.497113 -0.502892 0.864349 422.543 -518.523)"/>
</g>
<g id="fill">
<use xlink:href="#path14_fill" transform="matrix(-0.867686 0.497113 0.502892 0.864349 412.402 -440.938)"/>
</g>
<g id="fill">
<use xlink:href="#path15_fill" transform="matrix(-0.966421 0.256964 0.260686 0.965424 367.996 -402.707)"/>
</g>
<g id="stroke">
<use xlink:href="#path16_fill" transform="matrix(-0.867686 -0.497113 -0.502892 0.864349 342.027 -386.656)"/>
</g>
<g id="stroke">
<use xlink:href="#path17_fill" transform="matrix(-0.867686 0.497113 0.502892 0.864349 385.239 -491.381)"/>
</g>
<g id="stroke">
<use xlink:href="#path18_fill" transform="matrix(-1 -0 0 1 419.314 -468.534)"/>
</g>
<g id="stroke">
<use xlink:href="#path19_fill" transform="matrix(-0.966421 0.256964 0.260686 0.965424 379.834 -524.559)"/>
</g>
<g id="stroke">
<use xlink:href="#path20_fill" transform="matrix(0.502892 0.864349 0.867686 -0.497113 373.161 -420.026)"/>
</g>
<g id="stroke">
<use xlink:href="#path21_fill" transform="matrix(-0.867686 -0.497113 -0.502892 0.864349 429 -400.693)"/>
</g>
</g>
</g>
</mask>
<g id="Rectangle" mask="url(#mask0_alpha)">
<use xlink:href="#path22_fill" transform="translate(118 -536)" fill="url(#paint22_radial)" fill-opacity="0.48" style="mix-blend-mode:hard-light"/>
</g>
</g>
</g>
<defs>
<radialGradient id="paint22_radial" cx="0.5" cy="0.5" r="0.5" gradientUnits="userSpaceOnUse" gradientTransform="matrix(-319 160 -158.538 -318.07 398.269 159.035)">
<stop offset="0" stop-color="#FFFFFF"/>
<stop offset="1" stop-color="#D6E0EE"/>
</radialGradient>
<path id="path0_fill" fill-rule="evenodd" d="M 7.44125 0.0958328C 7.30258 -0.0319443 7.07777 -0.0319443 6.9391 0.0958328L 3.07025 3.66032C 2.82051 3.90479 2.70726 4.21317 2.65701 4.41514C 2.62886 4.52827 2.71846 4.62482 2.8335 4.6059C 3.04733 4.57075 3.38794 4.47834 3.70114 4.23539L 7.56664 0.673988C 7.70529 0.546242 7.70529 0.339088 7.56664 0.211342L 7.44125 0.0958328ZM 4.18178 4.71781L 4.17014 4.72684L 4.15851 4.73585C 3.60765 5.16315 3.00485 5.25413 2.75995 5.27488C 2.25758 5.31751 1.85284 4.91648 1.92508 4.46293C 1.9574 4.26121 2.10318 3.67347 2.54749 3.21751L 2.55028 3.21467L 2.55313 3.21186L 2.55682 3.20826L 2.5605 3.20466L 2.5643 3.20115L 2.5681 3.19764L 5.36786 0.618141C 4.89096 0.505196 4.29372 0.460426 3.5507 0.460426C 0.710144 0.460426 0 1.11469 0 3.73179C 0 6.34888 0.710144 7.00315 3.5507 7.00315C 6.39127 7.00315 7.10141 6.34888 7.10141 3.73179C 7.10141 3.09977 7.06 2.58225 6.95717 2.16074L 4.20328 4.69801L 4.19252 4.70789L 4.18178 4.71781Z"/>
<path id="path1_fill" fill-rule="evenodd" d="M 5.03017 10.8231C 9.05429 10.8231 10.0603 9.81188 10.0603 5.7673C 10.0603 4.79058 10.0016 3.99075 9.85597 3.33935L 5.95465 7.26052L 5.93942 7.27584L 5.92418 7.29116L 5.9077 7.30511L 5.89124 7.31905C 5.11086 7.97942 4.25687 8.11999 3.90993 8.15209C 3.19824 8.21795 2.62486 7.59823 2.7272 6.89724C 2.77298 6.5855 2.97951 5.67715 3.60895 4.97253L 3.61288 4.9681L 3.61694 4.9638L 3.62216 4.95821L 3.62738 4.95263L 3.63277 4.94723L 3.63815 4.94183L 7.60451 0.955284C 6.92889 0.780724 6.08278 0.71154 5.03017 0.71154C 1.00603 0.71154 4.97321e-16 1.72268 0 5.7673C -4.97317e-16 9.81188 1.00603 10.8231 5.03017 10.8231ZM 10.5418 0.148064C 10.3453 -0.0493546 10.0268 -0.0493546 9.8304 0.148064L 4.34953 5.65682C 3.94832 6.08526 3.79576 6.64071 3.74005 6.93932C 3.71875 7.05343 3.80865 7.14901 3.92358 7.13274C 4.21367 7.0917 4.75226 6.96108 5.24329 6.54556L 10.7194 1.04159C 10.9158 0.844139 10.9158 0.52404 10.7194 0.326591L 10.5418 0.148064Z"/>
<path id="path2_fill" fill-rule="evenodd" d="M 24.1241 0.336474C 23.6746 -0.11215 22.9457 -0.112162 22.4962 0.336462L 9.95359 12.8538C 8.8934 13.978 8.59192 15.487 8.51428 16.0378C 8.49807 16.1528 8.58746 16.2486 8.70315 16.2389C 9.23921 16.1936 10.6926 15.9709 11.9989 14.8733L 24.5306 2.36678C 24.9801 1.91816 24.9801 1.19077 24.5306 0.742146L 24.1241 0.336474ZM 13.5571 16.5675L 13.5194 16.5992L 13.4817 16.6309C 11.6958 18.1315 9.74155 18.4509 8.94758 18.5238C 7.31896 18.6735 6.00683 17.2653 6.24101 15.6725C 6.34579 14.9641 6.81839 12.9001 8.25883 11.299L 8.26786 11.2889L 8.27713 11.2791L 8.28907 11.2665L 8.30101 11.2538L 8.31335 11.2415L 8.32566 11.2292L 17.4024 2.17072C 15.8563 1.77407 13.92 1.61687 11.5112 1.61687C 2.30225 1.61687 -7.80123e-06 3.91448 1.9826e-11 13.1049C 7.80127e-06 22.2953 2.30224 24.593 11.5112 24.5929C 20.7201 24.5929 23.0224 22.2954 23.0224 13.1049C 23.0224 10.8855 22.8881 9.06811 22.5548 7.58795L 13.6268 16.498L 13.592 16.5327L 13.5571 16.5675Z"/>
<path id="path3_fill" fill-rule="evenodd" d="M 6.38578 13.6428C 11.4944 13.6428 12.7716 12.3683 12.7716 7.26989C 12.7716 6.03871 12.6971 5.03052 12.5121 4.2094L 7.5594 9.15217L 7.54008 9.17145L 7.52073 9.19075L 7.49982 9.20833L 7.4789 9.22593C 6.48821 10.0583 5.40407 10.2355 4.96363 10.276C 4.06017 10.359 3.33225 9.57781 3.46217 8.69422C 3.5203 8.30125 3.78247 7.15627 4.58153 6.26805L 4.58655 6.26248L 4.59171 6.25704L 4.59833 6.25001L 4.60496 6.24298L 4.61178 6.23615L 4.61862 6.22932L 9.65387 1.2042C 8.79618 0.984165 7.72206 0.896941 6.38578 0.896957C 1.27716 0.896959 4.94615e-06 2.17155 0 7.26988C 1.03588e-05 12.3682 1.27715 13.6428 6.38578 13.6428ZM 13.3827 0.186666C 13.1334 -0.0622123 12.729 -0.0622251 12.4797 0.186646L 5.5217 7.1306C 4.98632 7.69828 4.79972 8.44288 4.73806 8.80237C 4.71844 8.91682 4.80827 9.0125 4.92355 8.99857C 5.27443 8.95622 5.99895 8.80325 6.65633 8.25089L 13.6082 1.31296C 13.8576 1.06408 13.8576 0.660579 13.6082 0.411701L 13.3827 0.186666Z"/>
<path id="path4_fill" fill-rule="evenodd" d="M 7.46327 15.9214C 13.4339 15.9214 14.9265 14.4339 14.9265 8.48411C 14.9265 7.0473 14.8395 5.87071 14.6234 4.91246L 8.83492 10.6808L 8.81233 10.7033L 8.78972 10.7258L 8.76528 10.7463L 8.74082 10.7668C 7.58298 11.7383 6.31592 11.9451 5.80115 11.9923C 4.74524 12.0892 3.89451 11.1775 4.04635 10.1463C 4.11428 9.68775 4.42068 8.3515 5.35459 7.31497L 5.36045 7.30848L 5.36645 7.3021L 5.3742 7.29391L 5.38196 7.2857L 5.38994 7.27773L 5.39792 7.26978L 11.2828 1.40532C 10.2804 1.1485 9.02503 1.04676 7.46326 1.04675C 1.49265 1.04678 -1.02083e-06 2.53425 5.23612e-13 8.48411C 7.82747e-06 14.4339 1.49265 15.9214 7.46327 15.9214ZM 15.6408 0.217825C 15.3494 -0.072588 14.8768 -0.0726268 14.5854 0.217819L 6.45338 8.32152C 5.80975 9.00301 5.59741 9.90293 5.53166 10.3074C 5.51304 10.4221 5.60283 10.5182 5.71826 10.5056C 6.11301 10.4624 6.98789 10.2931 7.77945 9.62892L 15.9044 1.53228C 16.1958 1.24183 16.1958 0.770894 15.9044 0.480482L 15.6408 0.217825Z"/>
<path id="path5_fill" fill-rule="evenodd" d="M 8.67274 0.113342C 8.51111 -0.0377818 8.24909 -0.0377806 8.08749 0.113345L 3.57837 4.33015C 3.27111 4.63545 3.1411 5.02497 3.08763 5.26174C 3.06196 5.37535 3.15157 5.47178 3.26676 5.45448C 3.51255 5.41755 3.93068 5.312 4.31366 5.01047L 8.81886 0.797336C 8.98046 0.64621 8.98048 0.401134 8.81884 0.25001L 8.67274 0.113342ZM 5.22642 1.35816C 5.43165 1.37539 5.63678 1.31058 5.78724 1.16989C 5.98836 0.981788 5.89752 0.653597 5.62418 0.619984C 5.19567 0.567236 4.70316 0.544696 4.13833 0.544686C 0.827669 0.54468 1.52593e-05 1.31869 0 4.41477C 4.57078e-08 7.51083 0.827649 8.28483 4.13831 8.28483C 7.44897 8.28484 8.27668 7.51079 8.27666 4.41476C 8.27666 3.94737 8.2578 3.5329 8.21437 3.16607C 8.18189 2.89154 7.85811 2.79042 7.65623 2.97922C 7.48805 3.1365 7.40689 3.36453 7.42308 3.59425C 7.4401 3.83581 7.44897 4.10787 7.44899 4.41477C 7.44898 5.96832 7.22126 6.62915 6.86376 6.96349C 6.5062 7.29787 5.79957 7.51084 4.13835 7.5108C 2.4771 7.5108 1.77047 7.29787 1.4129 6.96351C 1.05538 6.62912 0.827667 5.96831 0.827672 4.41476C 0.827652 2.8612 1.05538 2.20036 1.41291 1.86604C 1.77044 1.53164 2.4771 1.31869 4.13835 1.31868C 4.55895 1.3187 4.91836 1.33234 5.22642 1.35816Z"/>
<path id="path6_fill" fill-rule="evenodd" d="M 6.54281 1.84063C 6.83188 1.86533 7.12092 1.76989 7.32534 1.56403C 7.57643 1.31113 7.45569 0.890389 7.10245 0.843232C 6.56009 0.770821 5.9362 0.739917 5.22028 0.739928C 1.04405 0.739922 -4.15294e-07 1.79142 1.23894e-13 5.99734C 4.15294e-07 10.2033 1.04405 11.2548 5.22027 11.2548C 9.3965 11.2548 10.4406 10.2033 10.4406 5.99735C 10.4406 5.36481 10.4169 4.80363 10.3626 4.30663C 10.3229 3.94326 9.89051 3.81298 9.63294 4.07236C 9.43532 4.27138 9.34069 4.54923 9.36021 4.82902C 9.38403 5.17044 9.3965 5.55755 9.39651 5.99735C 9.3965 8.10781 9.10927 9.00553 8.65825 9.45977C 8.20721 9.91397 7.31585 10.2033 5.22027 10.2033C 3.12471 10.2033 2.23334 9.91399 1.78231 9.45975C 1.33129 9.00553 1.04405 8.1078 1.04406 5.99734C 1.04405 3.88688 1.33128 2.98916 1.7823 2.53492C 2.23334 2.08068 3.12472 1.79142 5.22028 1.79142C 5.72824 1.79141 6.16547 1.80841 6.54281 1.84063ZM 10.9402 0.153975C 10.7363 -0.0513246 10.4058 -0.0513255 10.2019 0.153975L 4.51391 5.88246C 4.0937 6.3321 3.93632 6.9163 3.87983 7.22466C 3.8589 7.33881 3.94872 7.43432 4.06369 7.41842C 4.36271 7.37702 4.92722 7.2427 5.44146 6.80665L 11.1245 1.08313C 11.3284 0.877833 11.3284 0.544949 11.1245 0.339622L 10.9402 0.153975Z"/>
<path id="path7_fill" fill-rule="evenodd" d="M 13.3962 0.18647C 13.1465 -0.0621567 12.7418 -0.0621567 12.4922 0.18647L 5.52725 7.12342C 4.99146 7.69041 4.80461 8.43403 4.74286 8.79328C 4.72318 8.90772 4.813 9.00343 4.9283 8.98954C 5.27945 8.94724 6.00485 8.7945 6.66299 8.24259L 13.6219 1.31165C 13.8715 1.06303 13.8715 0.65992 13.6219 0.411293L 13.3962 0.18647ZM 8.08083 2.23499C 8.39131 2.26292 8.70187 2.16087 8.92276 1.94086L 9.04056 1.82352C 9.31535 1.54984 9.18483 1.09003 8.80086 1.03541C 8.11284 0.937538 7.31496 0.896065 6.39218 0.896065C 1.27844 0.896065 0 2.16938 0 7.26258C 0 12.3558 1.27844 13.6291 6.39218 13.6291C 11.5059 13.6291 12.7844 12.3558 12.7844 7.26258C 12.7844 6.44614 12.7515 5.72785 12.6753 5.09724C 12.6281 4.7067 12.1621 4.56635 11.8834 4.84394L 11.7555 4.97135C 11.5389 5.18699 11.435 5.48963 11.4576 5.79441C 11.4893 6.22074 11.5059 6.70695 11.5059 7.26258C 11.5059 9.81828 11.1542 10.9054 10.6019 11.4554C 10.0497 12.0055 8.95819 12.3558 6.39218 12.3558C 3.82619 12.3558 2.73471 12.0055 2.18243 11.4554C 1.63016 10.9054 1.27844 9.81828 1.27844 7.26258C 1.27844 4.70689 1.63016 3.61979 2.18243 3.06974C 2.73471 2.51966 3.82619 2.16938 6.39218 2.16938C 7.0455 2.16938 7.60324 2.19209 8.08083 2.23499Z"/>
<path id="path8_fill" fill-rule="evenodd" d="M 8.07831 2.23555C 8.38894 2.2635 8.6996 2.16137 8.92051 1.94124L 9.03843 1.82373C 9.31308 1.55003 9.18256 1.09037 8.79869 1.03571C 8.1108 0.937773 7.31309 0.89631 6.39047 0.896291C 1.2781 0.896302 -2.50946e-07 2.16995 3.69538e-14 7.26452C 8.1792e-06 12.3591 1.2781 13.6327 6.39047 13.6328C 11.5028 13.6328 12.7809 12.3591 12.7809 7.26454C 12.7809 6.44796 12.7481 5.72952 12.6719 5.09878C 12.6247 4.70819 12.1586 4.5678 11.8799 4.84551L 11.7522 4.97282C 11.5358 5.18845 11.4319 5.49098 11.4545 5.79562C 11.4862 6.22217 11.5028 6.70861 11.5028 7.26453C 11.5028 9.82091 11.1512 10.9083 10.5991 11.4585C 10.047 12.0087 8.95578 12.3591 6.39048 12.3591C 3.82515 12.3591 2.73397 12.0087 2.18184 11.4585C 1.62972 10.9083 1.27809 9.82093 1.2781 7.26453C 1.2781 4.70815 1.62972 3.62074 2.18184 3.07054C 2.73397 2.52034 3.82516 2.16994 6.39047 2.16994C 7.04345 2.16994 7.60093 2.19265 8.07831 2.23555ZM 13.3926 0.186525C 13.143 -0.0621692 12.7384 -0.0621798 12.4888 0.186522L 5.52577 7.12534C 4.99009 7.69251 4.80331 8.43641 4.74156 8.79569C 4.72191 8.91016 4.81175 9.00585 4.92702 8.99195C 5.27811 8.94965 6.00328 8.79685 6.66122 8.24481L 13.6182 1.312C 13.8678 1.0633 13.8678 0.660081 13.6182 0.411387L 13.3926 0.186525Z"/>
<path id="path9_fill" fill-rule="evenodd" d="M 8.05267 2.24138C 8.3645 2.26949 8.67642 2.16663 8.89756 1.94502L 9.01656 1.8258C 9.28981 1.55199 9.15937 1.0937 8.77645 1.03881C 8.09003 0.940409 7.29387 0.898737 6.37293 0.898744C 1.2746 0.898739 -1.67262e-06 2.1759 1.64619e-12 7.28452C 1.67262e-06 12.3931 1.2746 13.6703 6.37295 13.6703C 11.4713 13.6703 12.7459 12.3931 12.7459 7.28451C 12.7459 6.46649 12.7132 5.74669 12.6374 5.11466C 12.5904 4.72314 12.1229 4.58272 11.8443 4.86184L 11.7184 4.98796C 11.5035 5.20335 11.4004 5.50474 11.4229 5.8082C 11.4546 6.23674 11.4713 6.72563 11.4713 7.28451C 11.4713 9.84796 11.1206 10.9383 10.57 11.4901C 10.0194 12.0418 8.93123 12.3931 6.37293 12.3931C 3.81466 12.3931 2.72648 12.0418 2.17587 11.49C 1.62524 10.9383 1.27458 9.84795 1.2746 7.28452C 1.27458 4.72109 1.62524 3.6307 2.17587 3.07899C 2.72647 2.52727 3.81466 2.1759 6.37293 2.17591C 7.02253 2.1759 7.57737 2.19855 8.05267 2.24138ZM 13.3558 0.187036C 13.107 -0.0623462 12.7035 -0.0623476 12.4546 0.187046L 5.5106 7.14498C 4.97607 7.71405 4.78989 8.46056 4.72844 8.82059C 4.70891 8.93503 4.79879 9.03065 4.91402 9.01667C 5.26435 8.97416 5.98712 8.82081 6.64295 8.26753L 13.5809 1.31561C 13.8298 1.06623 13.8297 0.661913 13.5809 0.412531L 13.3558 0.187036Z"/>
<path id="path10_fill" fill-rule="evenodd" d="M 27.8166 0.387964C 27.2983 -0.129327 26.4578 -0.12932 25.9395 0.387976L 11.4771 14.8213C 10.2334 16.1401 9.89519 17.9182 9.81306 18.5248C 9.79749 18.6398 9.88777 18.736 10.0035 18.727C 10.5942 18.681 12.3027 18.4378 13.8355 17.1498L 28.2853 2.72905C 28.8037 2.21175 28.8036 1.37306 28.2853 0.855714L 27.8166 0.387964ZM 17.3084 4.70355C 17.6187 4.73839 17.9296 4.63509 18.1506 4.41454L 19.4447 3.12308C 19.719 2.84936 19.59 2.38501 19.2097 2.3109C 17.5824 1.99411 15.6227 1.86435 13.2731 1.86435C 2.65461 1.86437 5.81059e-06 4.51364 0 15.1108C 7.39066e-06 25.7079 2.65463 28.3572 13.2731 28.3572C 23.8916 28.3572 26.5462 25.7079 26.5462 15.1108C 26.5462 12.9798 26.4388 11.1702 26.181 9.63894C 26.1156 9.25073 25.6439 9.11184 25.3652 9.38994L 24.0398 10.7127C 23.8238 10.9282 23.7192 11.2304 23.7476 11.5342C 23.8417 12.5409 23.8916 13.7215 23.8916 15.1108C 23.8916 20.4283 23.1612 22.6901 22.0145 23.8346C 20.8677 24.979 18.6013 25.7079 13.2731 25.7079C 7.9449 25.7079 5.67849 24.979 4.53172 23.8346C 3.38495 22.6901 2.65462 20.4283 2.65463 15.1108C 2.65462 9.79328 3.38495 7.53145 4.53172 6.38697C 5.67849 5.2425 7.9449 4.51366 13.2731 4.51365C 14.8784 4.51367 16.2059 4.5798 17.3084 4.70355Z"/>
<path id="path11_fill" fill-rule="evenodd" d="M 7.51718 0.0964508C 7.37711 -0.0321503 7.14999 -0.0321503 7.00992 0.0964508L 3.10159 3.6841C 2.84875 3.93068 2.73438 4.2419 2.68378 4.44514C 2.65561 4.5583 2.74524 4.65492 2.86035 4.63618C 3.07623 4.60103 3.42151 4.50819 3.73889 4.26289L 7.64383 0.67836C 7.78391 0.549759 7.78391 0.341324 7.64383 0.212723L 7.51718 0.0964508ZM 4.22446 4.74849L 4.21271 4.75758L 4.20096 4.76668C 3.6445 5.19673 3.03552 5.28828 2.78812 5.30916C 2.28064 5.35207 1.87177 4.94844 1.94473 4.49196C 1.97739 4.28889 2.12466 3.69734 2.57349 3.23848L 2.57632 3.23555L 2.57919 3.23274L 2.58292 3.22914L 2.58664 3.22548L 2.59048 3.222L 2.59433 3.21846L 5.42267 0.622208C 4.94089 0.508499 4.33755 0.463455 3.58694 0.463455C 0.717377 0.463455 0 1.12196 0 3.75606C 0 6.39015 0.717377 7.04866 3.58694 7.04866C 6.45648 7.04866 7.17386 6.39015 7.17386 3.75606C 7.17386 3.11995 7.13205 2.59914 7.02817 2.17488L 4.24619 4.72853L 4.23532 4.73854L 4.22446 4.74849Z"/>
<path id="path12_fill" fill-rule="evenodd" d="M 5.08148 10.8933C 9.1467 10.8933 10.163 9.87561 10.163 5.80475C 10.163 4.82169 10.1037 4.01666 9.95657 3.36102L 6.01541 7.30771L 6.00003 7.32309L 5.98465 7.3385L 5.96799 7.35254L 5.95135 7.36658C 5.16299 8.03125 4.30029 8.17273 3.94983 8.20505C 3.2309 8.27133 2.65164 7.64755 2.75504 6.94205C 2.80127 6.62827 3.00992 5.71402 3.64578 5.00482L 3.64975 5.0004L 3.65384 4.99603L 3.65912 4.99042L 3.6644 4.9848L 3.66983 4.97937L 3.67529 4.97391L 7.6821 0.961487C 6.99957 0.785797 6.14484 0.716156 5.08148 0.716156C 1.0163 0.716156 5.02393e-16 1.73389 0 5.80475C -5.02393e-16 9.87561 1.0163 10.8933 5.08148 10.8933ZM 10.6494 0.149048C 10.4509 -0.0496826 10.1292 -0.0496826 9.93076 0.149048L 4.39395 5.69357C 3.98804 6.12543 3.83408 6.68555 3.77798 6.98575C 3.75668 7.09985 3.84665 7.19547 3.96161 7.17935C 4.25418 7.13837 4.79965 7.00726 5.29681 6.58807L 10.8288 1.04837C 11.0273 0.84964 11.0273 0.527466 10.8288 0.328735L 10.6494 0.149048Z"/>
<path id="path13_fill" fill-rule="evenodd" d="M 24.348 0.338974C 23.8943 -0.112984 23.1587 -0.113 22.705 0.338977L 10.046 12.9493C 8.97494 14.0829 8.67109 15.6049 8.59308 16.1585C 8.57687 16.2735 8.66625 16.3693 8.78198 16.3597C 9.32142 16.3145 10.7903 16.0909 12.1102 14.9838L 24.7583 2.38441C 25.212 1.93244 25.212 1.19967 24.7583 0.747663L 24.348 0.338974ZM 13.683 16.6908L 13.6449 16.7227L 13.6068 16.7546C 11.8044 18.2664 9.83198 18.5881 9.03066 18.6616C 7.38693 18.8124 6.06259 17.3937 6.29896 15.789C 6.4047 15.0754 6.88169 12.9961 8.3355 11.3831L 8.34461 11.373L 8.35396 11.3631L 8.36603 11.3503L 8.37808 11.3376L 8.39054 11.3252L 8.40296 11.3128L 17.5641 2.1869C 16.0036 1.78726 14.0493 1.62889 11.6181 1.6289C 2.32364 1.62894 3.06201e-05 3.94358 0 13.2023C 7.47439e-08 22.461 2.32362 24.7757 11.6181 24.7757C 20.9125 24.7757 23.2361 22.461 23.2361 13.2023C 23.2361 10.9665 23.1006 9.13565 22.7642 7.64448L 13.7533 16.6207L 13.7181 16.6557L 13.683 16.6908Z"/>
<path id="path14_fill" fill-rule="evenodd" d="M 6.44505 13.7442C 11.6011 13.7442 12.8901 12.4601 12.8901 7.32389C 12.8901 6.08356 12.8149 5.06786 12.6283 4.24066L 7.62958 9.22017L 7.61006 9.23958L 7.59055 9.25903L 7.56945 9.27674L 7.5483 9.29445C 6.54843 10.1331 5.45424 10.3116 5.0097 10.3523C 4.09786 10.436 3.36317 9.64897 3.4943 8.75881C 3.55298 8.36293 3.81755 7.20942 4.62406 6.31461L 4.62912 6.30902L 4.63433 6.30352L 4.64099 6.29644L 4.64769 6.28937L 4.6546 6.28247L 4.66149 6.27561L 9.74351 1.21314C 8.87784 0.991462 7.79376 0.903587 6.44505 0.903606C 1.28902 0.903598 -1.45707e-05 2.18766 1.23526e-10 7.32387C 3.53991e-06 12.4601 1.28901 13.7442 6.44505 13.7442ZM 13.507 0.188044C 13.2553 -0.0626689 12.8472 -0.0626954 12.5955 0.188049L 5.57299 7.18357C 5.03188 7.7563 4.84375 8.50776 4.78178 8.86932C 4.7622 8.98378 4.85196 9.07949 4.96726 9.06568C 5.32064 9.02334 6.05341 8.8697 6.71814 8.3122L 13.7346 1.32272C 13.9863 1.07198 13.9863 0.665483 13.7346 0.414743L 13.507 0.188044Z"/>
<path id="path15_fill" fill-rule="evenodd" d="M 7.53759 16.0287C 13.5677 16.0287 15.0752 14.5312 15.0752 8.54126C 15.0752 7.09476 14.9873 5.91025 14.769 4.94553L 8.92293 10.7527L 8.90012 10.7754L 8.87728 10.7981L 8.8526 10.8187L 8.82792 10.8394C 7.65853 11.8174 6.37884 12.0255 5.85895 12.0731C 4.79254 12.1706 3.93333 11.2528 4.08668 10.2147C 4.15528 9.75301 4.46473 8.40777 5.40796 7.36421L 5.41387 7.35767L 5.41994 7.35128L 5.42775 7.34301L 5.43557 7.33476L 5.44364 7.32674L 5.45171 7.31874L 11.3952 1.41477C 10.3828 1.15625 9.11491 1.05379 7.53759 1.05379C 1.50753 1.0538 -7.6031e-06 2.55128 2.8759e-11 8.54126C -3.52392e-07 14.5312 1.50753 16.0287 7.53759 16.0287ZM 15.7966 0.219315C 15.5023 -0.0730953 15.025 -0.073112 14.7307 0.219307L 6.5177 8.37764C 5.86689 9.06453 5.65269 9.97187 5.58658 10.3784C 5.56792 10.493 5.65778 10.5892 5.77326 10.5767C 6.17097 10.5336 7.0562 10.3636 7.85698 9.69383L 16.0628 1.54258C 16.3572 1.25017 16.3572 0.776106 16.0628 0.483696L 15.7966 0.219315Z"/>
<path id="path16_fill" fill-rule="evenodd" d="M 8.75326 0.114187C 8.59013 -0.0380647 8.32567 -0.0380588 8.16256 0.114183L 3.6116 4.36234C 3.30084 4.67053 3.16972 5.064 3.11595 5.30236C 3.09032 5.416 3.17995 5.51246 3.29517 5.49529C 3.54298 5.45835 3.96618 5.35224 4.35371 5.04771L 8.90073 0.80325C 9.06386 0.650981 9.06387 0.404116 8.90074 0.251864L 8.75326 0.114187ZM 5.27585 1.36833C 5.48244 1.38564 5.68892 1.32048 5.84046 1.17905C 6.04349 0.989499 5.95193 0.658413 5.67627 0.624539C 5.24381 0.571422 4.74674 0.548719 4.17675 0.548727C 0.835337 0.548738 6.00228e-06 1.32849 3.23462e-11 4.44755C -6.00221e-06 7.5666 0.835329 8.34636 4.17674 8.34635C 7.51814 8.34636 8.35349 7.56658 8.35348 4.44755C 8.35349 3.97663 8.33445 3.55909 8.2906 3.18945C 8.2578 2.9127 7.93152 2.81074 7.7278 3.00088C 7.55776 3.1596 7.47572 3.38993 7.49207 3.62194C 7.50919 3.86506 7.51812 4.13881 7.51813 4.44754C 7.51814 6.01264 7.28832 6.67836 6.92746 7.01522C 6.56658 7.35206 5.85341 7.56659 4.17673 7.56658C 2.50007 7.56659 1.78689 7.35205 1.42602 7.01521C 1.06515 6.67837 0.835326 6.01263 0.835346 4.44756C 0.835339 2.88246 1.06516 2.21674 1.42602 1.87988C 1.78688 1.54302 2.50009 1.32849 4.17674 1.32848C 4.60168 1.32848 4.96474 1.34228 5.27585 1.36833Z"/>
<path id="path17_fill" fill-rule="evenodd" d="M 6.60485 1.85441C 6.8958 1.87925 7.18674 1.78331 7.39268 1.57628C 7.64622 1.32144 7.52448 0.896942 7.16818 0.849454C 6.62083 0.776545 5.99124 0.745429 5.26875 0.745426C 1.05375 0.745418 -2.01982e-05 1.80471 3.2983e-10 6.04189C -2.1527e-05 10.2791 1.05373 11.3383 5.26873 11.3384C 9.48372 11.3384 10.5375 10.279 10.5375 6.04188C 10.5375 5.40459 10.5136 4.8392 10.4588 4.33848C 10.4187 3.97217 9.98289 3.84074 9.72301 4.10198C 9.52317 4.30285 9.42746 4.58351 9.44719 4.86617C 9.47117 5.20982 9.48371 5.59939 9.48371 6.04189C 9.48372 8.16804 9.19382 9.07244 8.73861 9.53002C 8.28339 9.98764 7.38375 10.2791 5.26874 10.2791C 3.15371 10.2791 2.25405 9.98762 1.79885 9.53004C 1.34363 9.07243 1.05375 8.16805 1.05374 6.0419C 1.05375 3.91574 1.34363 3.01135 1.79886 2.55376C 2.25405 2.09615 3.15372 1.80472 5.26874 1.80471C 5.78202 1.80471 6.2237 1.82188 6.60485 1.85441ZM 11.0417 0.155138C 10.836 -0.0516979 10.5024 -0.0517208 10.2966 0.155119L 4.55579 5.92615C 4.13096 6.37989 3.97231 6.96963 3.91552 7.27988C 3.89464 7.39403 3.98438 7.48958 4.09938 7.47379C 4.40066 7.43242 4.97178 7.29747 5.49194 6.85722L 11.2278 1.09118C 11.4335 0.884363 11.4336 0.548977 11.2278 0.342141L 11.0417 0.155138Z"/>
<path id="path18_fill" fill-rule="evenodd" d="M 13.5329 0.187683C 13.2807 -0.062561 12.8719 -0.062561 12.6197 0.187683L 5.58371 7.16968C 5.04175 7.74106 4.85321 8.49066 4.79108 8.85172C 4.77136 8.96616 4.86111 9.06192 4.97644 9.04816C 5.33035 9.00598 6.06482 8.85272 6.73105 8.29611L 13.761 1.32016C 14.0131 1.06992 14.0131 0.664185 13.761 0.413971L 13.5329 0.187683ZM 8.16974 2.25009C 8.4794 2.27798 8.78915 2.17642 9.00986 1.9574L 9.13605 1.83218C 9.41177 1.55856 9.28125 1.09772 8.8967 1.043C 8.20029 0.943848 7.3923 0.901886 6.45743 0.901886C 1.29147 0.901886 0 2.18344 0 7.30972C 0 12.436 1.29147 13.7176 6.45743 13.7176C 11.6234 13.7176 12.9148 12.436 12.9148 7.30972C 12.9148 6.48422 12.8813 5.75839 12.8036 5.12158C 12.756 4.73172 12.2908 4.59143 12.012 4.86807L 11.8735 5.00549C 11.6561 5.22131 11.5516 5.52475 11.5744 5.83026C 11.6065 6.25983 11.6234 6.74976 11.6234 7.30972C 11.6234 9.88202 11.268 10.9762 10.7101 11.5298C 10.1522 12.0834 9.04959 12.436 6.45743 12.436C 3.86523 12.436 2.7626 12.0834 2.20471 11.5298C 1.64679 10.9762 1.29147 9.88202 1.29147 7.30972C 1.29147 4.73746 1.64679 3.64328 2.20471 3.08966C 2.7626 2.53604 3.86523 2.18344 6.45743 2.18344C 7.12033 2.18344 7.68585 2.20651 8.16974 2.25009Z"/>
<path id="path19_fill" fill-rule="evenodd" d="M 8.16489 2.25119C 8.4748 2.27908 8.78474 2.17737 9.0055 1.95809L 9.13192 1.83252C 9.40737 1.55892 9.27687 1.09832 8.8925 1.04352C 8.19636 0.944315 7.38866 0.902303 6.4541 0.902276C 1.2908 0.902279 -3.88287e-06 2.18455 8.7601e-12 7.31349C 3.88289e-06 12.4424 1.29081 13.7247 6.45409 13.7247C 11.6174 13.7247 12.9082 12.4424 12.9082 7.31347C 12.9082 6.48768 12.8748 5.7616 12.797 5.12454C 12.7495 4.73448 12.2841 4.59422 12.0053 4.8711L 11.8672 5.00832C 11.6499 5.22407 11.5456 5.52729 11.5684 5.83265C 11.6006 6.26254 11.6174 6.75295 11.6174 7.3135C 11.6174 9.88711 11.2623 10.9819 10.7046 11.5357C 10.147 12.0897 9.04496 12.4424 6.45409 12.4424C 3.86325 12.4424 2.7612 12.0897 2.20358 11.5358C 1.64595 10.9818 1.29082 9.88713 1.2908 7.31347C 1.2908 4.73986 1.64594 3.64511 2.20356 3.09119C 2.76119 2.53733 3.86323 2.18452 6.45411 2.18453C 7.1164 2.18457 7.68139 2.2076 8.16489 2.25119ZM 13.526 0.187797C 13.2739 -0.0626106 12.8653 -0.0625836 12.6132 0.187786L 5.58081 7.17341C 5.03912 7.74515 4.85067 8.49523 4.78858 8.85644C 4.76889 8.9709 4.85866 9.06662 4.974 9.05286C 5.32774 9.01064 6.06174 8.85729 6.7276 8.30041L 13.7539 1.32087C 14.0059 1.07045 14.0059 0.664564 13.7539 0.414157L 13.526 0.187797Z"/>
<path id="path20_fill" fill-rule="evenodd" d="M 8.11543 2.26251C 8.42766 2.29078 8.74 2.18766 8.96124 1.96556L 9.08968 1.83664C 9.36247 1.56279 9.23211 1.10487 8.84953 1.04963C 8.15624 0.949511 7.35158 0.907124 6.42026 0.907128C 1.28405 0.907143 7.54516e-06 2.19615 0 7.35219C 7.62587e-06 12.5082 1.28406 13.7973 6.42027 13.7972C 11.5565 13.7973 12.8406 12.5082 12.8406 7.35219C 12.8406 6.52356 12.8074 5.79481 12.7304 5.15524C 12.6832 4.76344 12.2152 4.62307 11.9367 4.90263L 11.8022 5.03766C 11.5877 5.25296 11.4848 5.55398 11.5073 5.85703C 11.5396 6.29078 11.5565 6.78587 11.5565 7.3522C 11.5565 9.93942 11.2032 11.0399 10.6485 11.5968C 10.0938 12.1536 8.99756 12.5082 6.42027 12.5082C 3.84299 12.5082 2.74672 12.1536 2.19202 11.5968C 1.63733 11.0399 1.28407 9.93942 1.28405 7.3522C 1.28407 4.76496 1.63732 3.66444 2.19202 3.10762C 2.7467 2.55077 3.84299 2.19613 6.42027 2.19615C 7.07605 2.19613 7.63596 2.21911 8.11543 2.26251ZM 13.4551 0.188776C 13.2044 -0.0629258 12.7978 -0.062925 12.5471 0.188776L 5.55161 7.2113C 5.01209 7.78672 4.82485 8.54187 4.76331 8.90449C 4.74385 9.01892 4.83368 9.11451 4.94892 9.10058C 5.30117 9.05796 6.03062 8.90358 6.69235 8.34427L 13.6818 1.32783C 13.9325 1.07613 13.9326 0.668055 13.6818 0.416368L 13.4551 0.188776Z"/>
<path id="path21_fill" fill-rule="evenodd" d="M 28.0748 0.390845C 27.5517 -0.130281 26.7035 -0.130283 26.1803 0.39085L 11.5837 14.9314C 10.3272 16.2612 9.98645 18.0545 9.90394 18.664C 9.88838 18.7791 9.97881 18.8751 10.0946 18.8662C 10.6889 18.8203 12.4153 18.5761 13.9639 17.2772L 28.5479 2.74934C 29.0711 2.22818 29.0711 1.38324 28.5479 0.862074L 28.0748 0.390845ZM 17.4744 4.73908C 17.7842 4.77389 18.0948 4.6708 18.3157 4.45074L 19.6294 3.14208C 19.9042 2.8684 19.7753 2.40349 19.3946 2.32936C 17.751 2.00925 15.771 1.87822 13.3963 1.8782C 2.67928 1.8782 -1.66205e-06 4.54717 7.73265e-13 15.223C 1.70094e-05 25.8988 2.67927 28.5678 13.3963 28.5678C 24.1134 28.5678 26.7927 25.8988 26.7926 15.223C 26.7926 13.0725 26.6839 11.2468 26.4227 9.70244C 26.3571 9.31457 25.8858 9.17571 25.6071 9.45332L 24.2606 10.7946C 24.0442 11.0103 23.9393 11.3128 23.9678 11.617C 24.063 12.6317 24.1134 13.8221 24.1134 15.223C 24.1134 20.58 23.3763 22.8586 22.2189 24.0116C 21.0614 25.1646 18.774 25.8989 13.3963 25.8988C 8.01867 25.8988 5.7312 25.1646 4.5738 24.0116C 3.41637 22.8586 2.67926 20.58 2.67928 15.223C 2.67927 9.86602 3.41639 7.58738 4.57379 6.43441C 5.73122 5.28145 8.01865 4.54717 13.3963 4.54718C 15.0191 4.54716 16.3605 4.61402 17.4744 4.73908Z"/>
<path id="path22_fill" d="M 0 0L 319 0L 319 160L 0 160L 0 0Z"/>
</defs>
</svg>
